<svg width="300" height="240" viewBox="0 0 300 240" fill="none" xmlns="http://www.w3.org/2000/svg">
<path d="M298 120.049C298 137.893 283.718 152.316 266.153 152.316C248.587 152.316 234.305 137.893 234.305 120.049C234.305 102.206 248.587 87.7831 266.153 87.7831C283.718 87.7831 298 102.206 298 120.049Z" stroke="#9E9E9E" stroke-width="4"/>
<path d="M268.917 127.461H263.079L261.859 104.085H270.137L268.917 127.461ZM261.763 135.643C261.763 134.303 262.122 133.29 262.84 132.605C263.558 131.919 264.603 131.576 265.974 131.576C267.298 131.576 268.319 131.927 269.037 132.629C269.771 133.33 270.137 134.335 270.137 135.643C270.137 136.903 269.771 137.9 269.037 138.634C268.303 139.352 267.282 139.711 265.974 139.711C264.635 139.711 263.598 139.36 262.864 138.658C262.13 137.94 261.763 136.935 261.763 135.643Z" fill="#9E9E9E"/>
<path d="M113.153 232.587L4.17519 120L113.153 7.41285L113.153 232.587Z" stroke="#9E9E9E" stroke-width="6"/>
<path fill-rule="evenodd" clip-rule="evenodd" d="M81.4252 129.092C82.222 129.092 82.9854 129.411 83.5447 129.979L93.2969 139.875C94.58 141.177 94.5788 143.269 93.2941 144.569C92.0187 145.861 89.9343 145.862 88.6573 144.572L78.8927 134.71C78.3244 134.136 78.0055 133.357 78.0055 132.549C78.0055 131.767 77.7049 131.011 77.1658 130.446C73.6204 133.531 69.0175 135.389 64.0104 135.389C52.8454 135.389 43.7952 126.226 43.7952 114.923C43.7952 103.62 52.8454 94.4579 64.0104 94.4579C75.1754 94.4579 84.2256 103.62 84.2256 114.923C84.2256 119.992 82.3907 124.652 79.3428 128.242C79.8987 128.784 80.6485 129.092 81.4252 129.092ZM63.9791 131.068C72.804 131.068 79.958 123.826 79.958 114.892C79.958 105.957 72.804 98.7149 63.9791 98.7149C55.1542 98.7149 48.0002 105.957 48.0002 114.892C48.0002 123.826 55.1542 131.068 63.9791 131.068Z" fill="#9E9E9E"/>
<path d="M119.153 7.41286L228.13 120L119.153 232.587L119.153 7.41286Z" fill="#884A07" stroke="#884A07" stroke-width="6"/>
<path d="M188.501 120.482L168.501 108.935L168.501 132.029L188.501 120.482ZM156.962 141.687L156.962 143.687L158.962 143.687L158.962 141.687L156.962 141.687ZM156.962 99.2771L158.962 99.2771L158.962 97.2771L156.962 97.2771L156.962 99.2771ZM170.501 118.482C170.486 118.482 170.471 118.482 170.457 118.482C170.442 118.482 170.427 118.482 170.412 118.482C170.397 118.482 170.382 118.482 170.367 118.482C170.352 118.482 170.338 118.482 170.323 118.482C170.308 118.482 170.293 118.482 170.278 118.482C170.263 118.482 170.249 118.482 170.234 118.482C170.219 118.482 170.204 118.482 170.189 118.482C170.175 118.482 170.16 118.482 170.145 118.482C170.13 118.482 170.115 118.482 170.101 118.482C170.086 118.482 170.071 118.482 170.056 118.482C170.042 118.482 170.027 118.482 170.012 118.482C169.997 118.482 169.983 118.482 169.968 118.482C169.953 118.482 169.938 118.482 169.924 118.482C169.909 118.482 169.894 118.482 169.879 118.482C169.865 118.482 169.85 118.482 169.835 118.482C169.821 118.482 169.806 118.482 169.791 118.482C169.777 118.482 169.762 118.482 169.747 118.482C169.733 118.482 169.718 118.482 169.703 118.482C169.689 118.482 169.674 118.482 169.659 118.482C169.645 118.482 169.63 118.482 169.615 118.482C169.601 118.482 169.586 118.482 169.572 118.482C169.557 118.482 169.542 118.482 169.528 118.482C169.513 118.482 169.499 118.482 169.484 118.482C169.47 118.482 169.455 118.482 169.44 118.482C169.426 118.482 169.411 118.482 169.397 118.482C169.382 118.482 169.368 118.482 169.353 118.482C169.339 118.482 169.324 118.482 169.309 118.482C169.295 118.482 169.28 118.482 169.266 118.482C169.251 118.482 169.237 118.482 169.222 118.482C169.208 118.482 169.193 118.482 169.179 118.482C169.165 118.482 169.15 118.482 169.136 118.482C169.121 118.482 169.107 118.482 169.092 118.482C169.078 118.482 169.063 118.482 169.049 118.482C169.034 118.482 169.02 118.482 169.006 118.482C168.991 118.482 168.977 118.482 168.962 118.482C168.948 118.482 168.934 118.482 168.919 118.482C168.905 118.482 168.89 118.482 168.876 118.482C168.862 118.482 168.847 118.482 168.833 118.482C168.819 118.482 168.804 118.482 168.79 118.482C168.776 118.482 168.761 118.482 168.747 118.482C168.733 118.482 168.718 118.482 168.704 118.482C168.69 118.482 168.675 118.482 168.661 118.482C168.647 118.482 168.633 118.482 168.618 118.482C168.604 118.482 168.59 118.482 168.575 118.482C168.561 118.482 168.547 118.482 168.533 118.482C168.518 118.482 168.504 118.482 168.49 118.482C168.476 118.482 168.462 118.482 168.447 118.482C168.433 118.482 168.419 118.482 168.405 118.482C168.391 118.482 168.376 118.482 168.362 118.482C168.348 118.482 168.334 118.482 168.32 118.482C168.305 118.482 168.291 118.482 168.277 118.482C168.263 118.482 168.249 118.482 168.235 118.482C168.221 118.482 168.206 118.482 168.192 118.482C168.178 118.482 168.164 118.482 168.15 118.482C168.136 118.482 168.122 118.482 168.108 118.482C168.094 118.482 168.08 118.482 168.066 118.482C168.051 118.482 168.037 118.482 168.023 118.482C168.009 118.482 167.995 118.482 167.981 118.482C167.967 118.482 167.953 118.482 167.939 118.482C167.925 118.482 167.911 118.482 167.897 118.482C167.883 118.482 167.869 118.482 167.855 118.482C167.841 118.482 167.827 118.482 167.813 118.482C167.799 118.482 167.785 118.482 167.771 118.482C167.757 118.482 167.743 118.482 167.73 118.482C167.716 118.482 167.702 118.482 167.688 118.482C167.674 118.482 167.66 118.482 167.646 118.482C167.632 118.482 167.618 118.482 167.604 118.482C167.591 118.482 167.577 118.482 167.563 118.482C167.549 118.482 167.535 118.482 167.521 118.482C167.507 118.482 167.494 118.482 167.48 118.482C167.466 118.482 167.452 118.482 167.438 118.482C167.424 118.482 167.411 118.482 167.397 118.482C167.383 118.482 167.369 118.482 167.355 118.482C167.342 118.482 167.328 118.482 167.314 118.482C167.3 118.482 167.287 118.482 167.273 118.482C167.259 118.482 167.245 118.482 167.232 118.482C167.218 118.482 167.204 118.482 167.191 118.482C167.177 118.482 167.163 118.482 167.15 118.482C167.136 118.482 167.122 118.482 167.108 118.482C167.095 118.482 167.081 118.482 167.068 118.482C167.054 118.482 167.04 118.482 167.027 118.482C167.013 118.482 166.999 118.482 166.986 118.482C166.972 118.482 166.958 118.482 166.945 118.482C166.931 118.482 166.918 118.482 166.904 118.482C166.891 118.482 166.877 118.482 166.863 118.482C166.85 118.482 166.836 118.482 166.823 118.482C166.809 118.482 166.796 118.482 166.782 118.482C166.769 118.482 166.755 118.482 166.742 118.482C166.728 118.482 166.715 118.482 166.701 118.482C166.688 118.482 166.674 118.482 166.661 118.482C166.647 118.482 166.634 118.482 166.62 118.482C166.607 118.482 166.593 118.482 166.58 118.482C166.567 118.482 166.553 118.482 166.54 118.482C166.526 118.482 166.513 118.482 166.5 118.482C166.486 118.482 166.473 118.482 166.459 118.482C166.446 118.482 166.433 118.482 166.419 118.482C166.406 118.482 166.393 118.482 166.379 118.482C166.366 118.482 166.353 118.482 166.339 118.482C166.326 118.482 166.313 118.482 166.299 118.482C166.286 118.482 166.273 118.482 166.26 118.482C166.246 118.482 166.233 118.482 166.22 118.482C166.207 118.482 166.193 118.482 166.18 118.482C166.167 118.482 166.154 118.482 166.14 118.482C166.127 118.482 166.114 118.482 166.101 118.482C166.088 118.482 166.074 118.482 166.061 118.482C166.048 118.482 166.035 118.482 166.022 118.482C166.009 118.482 165.995 118.482 165.982 118.482C165.969 118.482 165.956 118.482 165.943 118.482C165.93 118.482 165.917 118.482 165.904 118.482C165.89 118.482 165.877 118.482 165.864 118.482C165.851 118.482 165.838 118.482 165.825 118.482C165.812 118.482 165.799 118.482 165.786 118.482C165.773 118.482 165.76 118.482 165.747 118.482C165.734 118.482 165.721 118.482 165.708 118.482C165.695 118.482 165.682 118.482 165.669 118.482C165.656 118.482 165.643 118.482 165.63 118.482C165.617 118.482 165.604 118.482 165.591 118.482C165.578 118.482 165.565 118.482 165.552 118.482C165.539 118.482 165.526 118.482 165.514 118.482C165.501 118.482 165.488 118.482 165.475 118.482C165.462 118.482 165.449 118.482 165.436 118.482C165.423 118.482 165.411 118.482 165.398 118.482C165.385 118.482 165.372 118.482 165.359 118.482C165.346 118.482 165.334 118.482 165.321 118.482C165.308 118.482 165.295 118.482 165.283 118.482C165.27 118.482 165.257 118.482 165.244 118.482C165.231 118.482 165.219 118.482 165.206 118.482C165.193 118.482 165.181 118.482 165.168 118.482C165.155 118.482 165.142 118.482 165.13 118.482C165.117 118.482 165.104 118.482 165.092 118.482C165.079 118.482 165.066 118.482 165.054 118.482C165.041 118.482 165.028 118.482 165.016 118.482C165.003 118.482 164.991 118.482 164.978 118.482C164.965 118.482 164.953 118.482 164.94 118.482C164.928 118.482 164.915 118.482 164.903 118.482C164.89 118.482 164.877 118.482 164.865 118.482C164.852 118.482 164.84 118.482 164.827 118.482C164.815 118.482 164.802 118.482 164.79 118.482C164.777 118.482 164.765 118.482 164.752 118.482C164.74 118.482 164.727 118.482 164.715 118.482C164.702 118.482 164.69 118.482 164.678 118.482C164.665 118.482 164.653 118.482 164.64 118.482C164.628 118.482 164.616 118.482 164.603 118.482C164.591 118.482 164.578 118.482 164.566 118.482C164.554 118.482 164.541 118.482 164.529 118.482C164.517 118.482 164.504 118.482 164.492 118.482C164.48 118.482 164.467 118.482 164.455 118.482C164.443 118.482 164.43 118.482 164.418 118.482C164.406 118.482 164.394 118.482 164.381 118.482C164.369 118.482 164.357 118.482 164.345 118.482C164.332 118.482 164.32 118.482 164.308 118.482C164.296 118.482 164.284 118.482 164.271 118.482C164.259 118.482 164.247 118.482 164.235 118.482C164.223 118.482 164.211 118.482 164.198 118.482C164.186 118.482 164.174 118.482 164.162 118.482C164.15 118.482 164.138 118.482 164.126 118.482C164.114 118.482 164.102 118.482 164.089 118.482C164.077 118.482 164.065 118.482 164.053 118.482C164.041 118.482 164.029 118.482 164.017 118.482C164.005 118.482 163.993 118.482 163.981 118.482C163.969 118.482 163.957 118.482 163.945 118.482C163.933 118.482 163.921 118.482 163.909 118.482C163.897 118.482 163.885 118.482 163.873 118.482C163.861 118.482 163.85 118.482 163.838 118.482C163.826 118.482 163.814 118.482 163.802 118.482C163.79 118.482 163.778 118.482 163.766 118.482C163.754 118.482 163.743 118.482 163.731 118.482C163.719 118.482 163.707 118.482 163.695 118.482C163.683 118.482 163.672 118.482 163.66 118.482C163.648 118.482 163.636 118.482 163.625 118.482C163.613 118.482 163.601 118.482 163.589 118.482C163.578 118.482 163.566 118.482 163.554 118.482C163.542 118.482 163.531 118.482 163.519 118.482C163.507 118.482 163.496 118.482 163.484 118.482C163.472 118.482 163.461 118.482 163.449 118.482C163.437 118.482 163.426 118.482 163.414 118.482C163.402 118.482 163.391 118.482 163.379 118.482C163.368 118.482 163.356 118.482 163.344 118.482C163.333 118.482 163.321 118.482 163.31 118.482C163.298 118.482 163.287 118.482 163.275 118.482C163.264 118.482 163.252 118.482 163.241 118.482C163.229 118.482 163.218 118.482 163.206 118.482C163.195 118.482 163.183 118.482 163.172 118.482C163.16 118.482 163.149 118.482 163.137 118.482C163.126 118.482 163.114 118.482 163.103 118.482C163.092 118.482 163.08 118.482 163.069 118.482C163.058 118.482 163.046 118.482 163.035 118.482C163.023 118.482 163.012 118.482 163.001 118.482C162.989 118.482 162.978 118.482 162.967 118.482C162.955 118.482 162.944 118.482 162.933 118.482C162.922 118.482 162.91 118.482 162.899 118.482C162.888 118.482 162.877 118.482 162.865 118.482C162.854 118.482 162.843 118.482 162.832 118.482C162.82 118.482 162.809 118.482 162.798 118.482C162.787 118.482 162.776 118.482 162.765 118.482C162.753 118.482 162.742 118.482 162.731 118.482C162.72 118.482 162.709 118.482 162.698 118.482C162.687 118.482 162.676 118.482 162.665 118.482C162.653 118.482 162.642 118.482 162.631 118.482C162.62 118.482 162.609 118.482 162.598 118.482C162.587 118.482 162.576 118.482 162.565 118.482C162.554 118.482 162.543 118.482 162.532 118.482C162.521 118.482 162.51 118.482 162.499 118.482C162.488 118.482 162.477 118.482 162.466 118.482C162.456 118.482 162.445 118.482 162.434 118.482C162.423 118.482 162.412 118.482 162.401 118.482C162.39 118.482 162.379 118.482 162.369 118.482C162.358 118.482 162.347 118.482 162.336 118.482C162.325 118.482 162.314 118.482 162.304 118.482C162.293 118.482 162.282 118.482 162.271 118.482C162.26 118.482 162.25 118.482 162.239 118.482C162.228 118.482 162.217 118.482 162.207 118.482C162.196 118.482 162.185 118.482 162.175 118.482C162.164 118.482 162.153 118.482 162.143 118.482C162.132 118.482 162.121 118.482 162.111 118.482C162.1 118.482 162.089 118.482 162.079 118.482C162.068 118.482 162.058 118.482 162.047 118.482C162.036 118.482 162.026 118.482 162.015 118.482C162.005 118.482 161.994 118.482 161.984 118.482C161.973 118.482 161.963 118.482 161.952 118.482C161.942 118.482 161.931 118.482 161.921 118.482C161.91 118.482 161.9 118.482 161.889 118.482C161.879 118.482 161.868 118.482 161.858 118.482C161.847 118.482 161.837 118.482 161.827 118.482C161.816 118.482 161.806 118.482 161.796 118.482C161.785 118.482 161.775 118.482 161.764 118.482C161.754 118.482 161.744 118.482 161.733 118.482C161.723 118.482 161.713 118.482 161.703 118.482C161.692 118.482 161.682 118.482 161.672 118.482C161.661 118.482 161.651 118.482 161.641 118.482C161.631 118.482 161.621 118.482 161.61 118.482C161.6 118.482 161.59 118.482 161.58 118.482C161.57 118.482 161.559 118.482 161.549 118.482C161.539 118.482 161.529 118.482 161.519 118.482C161.509 118.482 161.499 118.482 161.489 118.482C161.478 118.482 161.468 118.482 161.458 118.482C161.448 118.482 161.438 118.482 161.428 118.482C161.418 118.482 161.408 118.482 161.398 118.482C161.388 118.482 161.378 118.482 161.368 118.482C161.358 118.482 161.348 118.482 161.338 118.482C161.328 118.482 161.318 118.482 161.308 118.482C161.298 118.482 161.289 118.482 161.279 118.482C161.269 118.482 161.259 118.482 161.249 118.482C161.239 118.482 161.229 118.482 161.219 118.482C161.21 118.482 161.2 118.482 161.19 118.482C161.18 118.482 161.17 118.482 161.16 118.482C161.151 118.482 161.141 118.482 161.131 118.482C161.121 118.482 161.112 118.482 161.102 118.482C161.092 118.482 161.083 118.482 161.073 118.482C161.063 118.482 161.053 118.482 161.044 118.482C161.034 118.482 161.024 118.482 161.015 118.482C161.005 118.482 160.996 118.482 160.986 118.482C160.976 118.482 160.967 118.482 160.957 118.482C160.948 118.482 160.938 118.482 160.928 118.482C160.919 118.482 160.909 118.482 160.9 118.482C160.89 118.482 160.881 118.482 160.871 118.482C160.862 118.482 160.852 118.482 160.843 118.482C160.833 118.482 160.824 118.482 160.814 118.482C160.805 118.482 160.796 118.482 160.786 118.482C160.777 118.482 160.767 118.482 160.758 118.482C160.749 118.482 160.739 118.482 160.73 118.482C160.721 118.482 160.711 118.482 160.702 118.482C160.693 118.482 160.683 118.482 160.674 118.482C160.665 118.482 160.655 118.482 160.646 118.482C160.637 118.482 160.628 118.482 160.618 118.482C160.609 118.482 160.6 118.482 160.591 118.482C160.581 118.482 160.572 118.482 160.563 118.482C160.554 118.482 160.545 118.482 160.536 118.482C160.527 118.482 160.517 118.482 160.508 118.482C160.499 118.482 160.49 118.482 160.481 118.482C160.472 118.482 160.463 118.482 160.454 118.482C160.445 118.482 160.436 118.482 160.427 118.482C160.418 118.482 160.409 118.482 160.4 118.482C160.391 118.482 160.382 118.482 160.373 118.482C160.364 118.482 160.355 118.482 160.346 118.482C160.337 118.482 160.328 118.482 160.319 118.482C160.31 118.482 160.301 118.482 160.292 118.482C160.284 118.482 160.275 118.482 160.266 118.482C160.257 118.482 160.248 118.482 160.239 118.482C160.231 118.482 160.222 118.482 160.213 118.482C160.204 118.482 160.195 118.482 160.187 118.482C160.178 118.482 160.169 118.482 160.16 118.482C160.152 118.482 160.143 118.482 160.134 118.482C160.126 118.482 160.117 118.482 160.108 118.482C160.1 118.482 160.091 118.482 160.082 118.482C160.074 118.482 160.065 118.482 160.057 118.482C160.048 118.482 160.039 118.482 160.031 118.482C160.022 118.482 160.014 118.482 160.005 118.482C159.997 118.482 159.988 118.482 159.98 118.482C159.971 118.482 159.963 118.482 159.954 118.482C159.946 118.482 159.937 118.482 159.929 118.482C159.92 118.482 159.912 118.482 159.904 118.482C159.895 118.482 159.887 118.482 159.878 118.482C159.87 118.482 159.862 118.482 159.853 118.482C159.845 118.482 159.837 118.482 159.828 118.482C159.82 118.482 159.812 118.482 159.803 118.482C159.795 118.482 159.787 118.482 159.779 118.482C159.77 118.482 159.762 118.482 159.754 118.482C159.746 118.482 159.737 118.482 159.729 118.482C159.721 118.482 159.713 118.482 159.705 118.482C159.697 118.482 159.688 118.482 159.68 118.482C159.672 118.482 159.664 118.482 159.656 118.482C159.648 118.482 159.64 118.482 159.632 118.482C159.624 118.482 159.616 118.482 159.608 118.482C159.6 118.482 159.592 118.482 159.584 118.482C159.576 118.482 159.568 118.482 159.56 118.482C159.552 118.482 159.544 118.482 159.536 118.482C159.528 118.482 159.52 118.482 159.512 118.482C159.504 118.482 159.496 118.482 159.488 118.482C159.48 118.482 159.473 118.482 159.465 118.482C159.457 118.482 159.449 118.482 159.441 118.482C159.434 118.482 159.426 118.482 159.418 118.482C159.41 118.482 159.402 118.482 159.395 118.482C159.387 118.482 159.379 118.482 159.372 118.482C159.364 118.482 159.356 118.482 159.348 118.482C159.341 118.482 159.333 118.482 159.326 118.482C159.318 118.482 159.31 118.482 159.303 118.482C159.295 118.482 159.287 118.482 159.28 118.482C159.272 118.482 159.265 118.482 159.257 118.482C159.25 118.482 159.242 118.482 159.235 118.482C159.227 118.482 159.22 118.482 159.212 118.482C159.205 118.482 159.197 118.482 159.19 118.482C159.182 118.482 159.175 118.482 159.168 118.482C159.16 118.482 159.153 118.482 159.145 118.482C159.138 118.482 159.131 118.482 159.123 118.482C159.116 118.482 159.109 118.482 159.101 118.482C159.094 118.482 159.087 118.482 159.079 118.482C159.072 118.482 159.065 118.482 159.058 118.482C159.05 118.482 159.043 118.482 159.036 118.482C159.029 118.482 159.022 118.482 159.014 118.482C159.007 118.482 159 118.482 158.993 118.482C158.986 118.482 158.979 118.482 158.972 118.482C158.964 118.482 158.957 118.482 158.95 118.482C158.943 118.482 158.936 118.482 158.929 118.482C158.922 118.482 158.915 118.482 158.908 118.482C158.901 118.482 158.894 118.482 158.887 118.482C158.88 118.482 158.873 118.482 158.866 118.482C158.859 118.482 158.852 118.482 158.846 118.482C158.839 118.482 158.832 118.482 158.825 118.482C158.818 118.482 158.811 118.482 158.804 118.482C158.797 118.482 158.791 118.482 158.784 118.482C158.777 118.482 158.77 118.482 158.764 118.482C158.757 118.482 158.75 118.482 158.743 118.482C158.737 118.482 158.73 118.482 158.723 118.482C158.716 118.482 158.71 118.482 158.703 118.482C158.696 118.482 158.69 118.482 158.683 118.482C158.677 118.482 158.67 118.482 158.663 118.482C158.657 118.482 158.65 118.482 158.644 118.482C158.637 118.482 158.631 118.482 158.624 118.482C158.617 118.482 158.611 118.482 158.605 118.482C158.598 118.482 158.592 118.482 158.585 118.482C158.579 118.482 158.572 118.482 158.566 118.482C158.559 118.482 158.553 118.482 158.547 118.482C158.54 118.482 158.534 118.482 158.528 118.482C158.521 118.482 158.515 118.482 158.509 118.482C158.502 118.482 158.496 118.482 158.49 118.482C158.483 118.482 158.477 118.482 158.471 118.482C158.465 118.482 158.458 118.482 158.452 118.482C158.446 118.482 158.44 118.482 158.434 118.482C158.427 118.482 158.421 118.482 158.415 118.482C158.409 118.482 158.403 118.482 158.397 118.482C158.391 118.482 158.385 118.482 158.379 118.482C158.373 118.482 158.366 118.482 158.36 118.482C158.354 118.482 158.348 118.482 158.342 118.482C158.336 118.482 158.33 118.482 158.325 118.482C158.319 118.482 158.313 118.482 158.307 118.482C158.301 118.482 158.295 118.482 158.289 118.482C158.283 118.482 158.277 118.482 158.271 118.482C158.266 118.482 158.26 118.482 158.254 118.482C158.248 118.482 158.242 118.482 158.237 118.482C158.231 118.482 158.225 118.482 158.219 118.482C158.214 118.482 158.208 118.482 158.202 118.482C158.196 118.482 158.191 118.482 158.185 118.482C158.179 118.482 158.174 118.482 158.168 118.482C158.163 118.482 158.157 118.482 158.151 118.482C158.146 118.482 158.14 118.482 158.135 118.482C158.129 118.482 158.123 118.482 158.118 118.482C158.112 118.482 158.107 118.482 158.101 118.482C158.096 118.482 158.091 118.482 158.085 118.482C158.08 118.482 158.074 118.482 158.069 118.482C158.063 118.482 158.058 118.482 158.053 118.482C158.047 118.482 158.042 118.482 158.037 118.482C158.031 118.482 158.026 118.482 158.021 118.482C158.015 118.482 158.01 118.482 158.005 118.482C158 118.482 157.994 118.482 157.989 118.482C157.984 118.482 157.979 118.482 157.973 118.482C157.968 118.482 157.963 118.482 157.958 118.482C157.953 118.482 157.948 118.482 157.943 118.482C157.937 118.482 157.932 118.482 157.927 118.482C157.922 118.482 157.917 118.482 157.912 118.482C157.907 118.482 157.902 118.482 157.897 118.482C157.892 118.482 157.887 118.482 157.882 118.482C157.877 118.482 157.872 118.482 157.867 118.482C157.862 118.482 157.857 118.482 157.853 118.482C157.848 118.482 157.843 118.482 157.838 118.482C157.833 118.482 157.828 118.482 157.823 118.482C157.819 118.482 157.814 118.482 157.809 118.482C157.804 118.482 157.8 118.482 157.795 118.482C157.79 118.482 157.785 118.482 157.781 118.482C157.776 118.482 157.771 118.482 157.767 118.482C157.762 118.482 157.757 118.482 157.753 118.482C157.748 118.482 157.743 118.482 157.739 118.482C157.734 118.482 157.73 118.482 157.725 118.482C157.721 118.482 157.716 118.482 157.712 118.482C157.707 118.482 157.703 118.482 157.698 118.482C157.694 118.482 157.689 118.482 157.685 118.482C157.68 118.482 157.676 118.482 157.672 118.482C157.667 118.482 157.663 118.482 157.658 118.482C157.654 118.482 157.65 118.482 157.645 118.482C157.641 118.482 157.637 118.482 157.633 118.482C157.628 118.482 157.624 118.482 157.62 118.482C157.616 118.482 157.611 118.482 157.607 118.482C157.603 118.482 157.599 118.482 157.595 118.482C157.59 118.482 157.586 118.482 157.582 118.482C157.578 118.482 157.574 118.482 157.57 118.482C157.566 118.482 157.562 118.482 157.558 118.482C157.554 118.482 157.55 118.482 157.546 118.482C157.542 118.482 157.538 118.482 157.534 118.482C157.53 118.482 157.526 118.482 157.522 118.482C157.518 118.482 157.514 118.482 157.51 118.482C157.506 118.482 157.502 118.482 157.499 118.482C157.495 118.482 157.491 118.482 157.487 118.482C157.483 118.482 157.479 118.482 157.476 118.482C157.472 118.482 157.468 118.482 157.464 118.482C157.461 118.482 157.457 118.482 157.453 118.482C157.45 118.482 157.446 118.482 157.442 118.482C157.439 118.482 157.435 118.482 157.431 118.482C157.428 118.482 157.424 118.482 157.421 118.482C157.417 118.482 157.414 118.482 157.41 118.482C157.407 118.482 157.403 118.482 157.4 118.482C157.396 118.482 157.393 118.482 157.389 118.482C157.386 118.482 157.382 118.482 157.379 118.482C157.375 118.482 157.372 118.482 157.369 118.482C157.365 118.482 157.362 118.482 157.359 118.482C157.355 118.482 157.352 118.482 157.349 118.482C157.345 118.482 157.342 118.482 157.339 118.482C157.336 118.482 157.332 118.482 157.329 118.482C157.326 118.482 157.323 118.482 157.32 118.482C157.317 118.482 157.313 118.482 157.31 118.482C157.307 118.482 157.304 118.482 157.301 118.482C157.298 118.482 157.295 118.482 157.292 118.482C157.289 118.482 157.286 118.482 157.283 118.482C157.28 118.482 157.277 118.482 157.274 118.482C157.271 118.482 157.268 118.482 157.265 118.482C157.262 118.482 157.259 118.482 157.256 118.482C157.253 118.482 157.25 118.482 157.248 118.482C157.245 118.482 157.242 118.482 157.239 118.482C157.236 118.482 157.234 118.482 157.231 118.482C157.228 118.482 157.225 118.482 157.223 118.482C157.22 118.482 157.217 118.482 157.214 118.482C157.212 118.482 157.209 118.482 157.207 118.482C157.204 118.482 157.201 118.482 157.199 118.482C157.196 118.482 157.194 118.482 157.191 118.482C157.188 118.482 157.186 118.482 157.183 118.482C157.181 118.482 157.178 118.482 157.176 118.482C157.173 118.482 157.171 118.482 157.169 118.482C157.166 118.482 157.164 118.482 157.161 118.482C157.159 118.482 157.157 118.482 157.154 118.482C157.152 118.482 157.15 118.482 157.147 118.482C157.145 118.482 157.143 118.482 157.14 118.482C157.138 118.482 157.136 118.482 157.134 118.482C157.131 118.482 157.129 118.482 157.127 118.482C157.125 118.482 157.123 118.482 157.121 118.482C157.118 118.482 157.116 118.482 157.114 118.482C157.112 118.482 157.11 118.482 157.108 118.482C157.106 118.482 157.104 118.482 157.102 118.482C157.1 118.482 157.098 118.482 157.096 118.482C157.094 118.482 157.092 118.482 157.09 118.482C157.088 118.482 157.086 118.482 157.084 118.482C157.083 118.482 157.081 118.482 157.079 118.482C157.077 118.482 157.075 118.482 157.073 118.482C157.072 118.482 157.07 118.482 157.068 118.482C157.066 118.482 157.065 118.482 157.063 118.482C157.061 118.482 157.06 118.482 157.058 118.482C157.056 118.482 157.055 118.482 157.053 118.482C157.051 118.482 157.05 118.482 157.048 118.482C157.047 118.482 157.045 118.482 157.043 118.482C157.042 118.482 157.04 118.482 157.039 118.482C157.037 118.482 157.036 118.482 157.034 118.482C157.033 118.482 157.032 118.482 157.03 118.482C157.029 118.482 157.027 118.482 157.026 118.482C157.025 118.482 157.023 118.482 157.022 118.482C157.021 118.482 157.019 118.482 157.018 118.482C157.017 118.482 157.015 118.482 157.014 118.482C157.013 118.482 157.012 118.482 157.011 118.482C157.009 118.482 157.008 118.482 157.007 118.482C157.006 118.482 157.005 118.482 157.004 118.482C157.003 118.482 157.001 118.482 157 118.482C156.999 118.482 156.998 118.482 156.997 118.482C156.996 118.482 156.995 118.482 156.994 118.482C156.993 118.482 156.992 118.482 156.991 118.482C156.99 118.482 156.99 118.482 156.989 118.482C156.988 118.482 156.987 118.482 156.986 118.482C156.985 118.482 156.984 118.482 156.984 118.482C156.983 118.482 156.982 118.482 156.981 118.482C156.981 118.482 156.98 118.482 156.979 118.482C156.978 118.482 156.978 118.482 156.977 118.482C156.976 118.482 156.976 118.482 156.975 118.482C156.974 118.482 156.974 118.482 156.973 118.482C156.973 118.482 156.972 118.482 156.972 118.482C156.971 118.482 156.971 118.482 156.97 118.482C156.97 118.482 156.969 118.482 156.969 118.482C156.968 118.482 156.968 118.482 156.967 118.482C156.967 118.482 156.967 118.482 156.966 118.482C156.966 118.482 156.965 118.482 156.965 118.482C156.965 118.482 156.965 118.482 156.964 118.482C156.964 118.482 156.964 118.482 156.964 118.482C156.963 118.482 156.963 118.482 156.963 118.482C156.963 118.482 156.963 118.482 156.962 118.482C156.962 118.482 156.962 118.482 156.962 118.482C156.962 118.482 156.962 118.482 156.962 118.482C156.962 118.482 156.962 118.482 156.962 120.482C156.962 122.482 156.962 122.482 156.962 122.482C156.962 122.482 156.962 122.482 156.962 122.482C156.962 122.482 156.962 122.482 156.962 122.482C156.963 122.482 156.963 122.482 156.963 122.482C156.963 122.482 156.963 122.482 156.964 122.482C156.964 122.482 156.964 122.482 156.964 122.482C156.965 122.482 156.965 122.482 156.965 122.482C156.965 122.482 156.966 122.482 156.966 122.482C156.967 122.482 156.967 122.482 156.967 122.482C156.968 122.482 156.968 122.482 156.969 122.482C156.969 122.482 156.97 122.482 156.97 122.482C156.971 122.482 156.971 122.482 156.972 122.482C156.972 122.482 156.973 122.482 156.973 122.482C156.974 122.482 156.974 122.482 156.975 122.482C156.976 122.482 156.976 122.482 156.977 122.482C156.978 122.482 156.978 122.482 156.979 122.482C156.98 122.482 156.981 122.482 156.981 122.482C156.982 122.482 156.983 122.482 156.984 122.482C156.984 122.482 156.985 122.482 156.986 122.482C156.987 122.482 156.988 122.482 156.989 122.482C156.99 122.482 156.99 122.482 156.991 122.482C156.992 122.482 156.993 122.482 156.994 122.482C156.995 122.482 156.996 122.482 156.997 122.482C156.998 122.482 156.999 122.482 157 122.482C157.001 122.482 157.003 122.482 157.004 122.482C157.005 122.482 157.006 122.482 157.007 122.482C157.008 122.482 157.009 122.482 157.011 122.482C157.012 122.482 157.013 122.482 157.014 122.482C157.015 122.482 157.017 122.482 157.018 122.482C157.019 122.482 157.021 122.482 157.022 122.482C157.023 122.482 157.025 122.482 157.026 122.482C157.027 122.482 157.029 122.482 157.03 122.482C157.032 122.482 157.033 122.482 157.034 122.482C157.036 122.482 157.037 122.482 157.039 122.482C157.04 122.482 157.042 122.482 157.043 122.482C157.045 122.482 157.047 122.482 157.048 122.482C157.05 122.482 157.051 122.482 157.053 122.482C157.055 122.482 157.056 122.482 157.058 122.482C157.06 122.482 157.061 122.482 157.063 122.482C157.065 122.482 157.066 122.482 157.068 122.482C157.07 122.482 157.072 122.482 157.073 122.482C157.075 122.482 157.077 122.482 157.079 122.482C157.081 122.482 157.083 122.482 157.084 122.482C157.086 122.482 157.088 122.482 157.09 122.482C157.092 122.482 157.094 122.482 157.096 122.482C157.098 122.482 157.1 122.482 157.102 122.482C157.104 122.482 157.106 122.482 157.108 122.482C157.11 122.482 157.112 122.482 157.114 122.482C157.116 122.482 157.118 122.482 157.121 122.482C157.123 122.482 157.125 122.482 157.127 122.482C157.129 122.482 157.131 122.482 157.134 122.482C157.136 122.482 157.138 122.482 157.14 122.482C157.143 122.482 157.145 122.482 157.147 122.482C157.15 122.482 157.152 122.482 157.154 122.482C157.157 122.482 157.159 122.482 157.161 122.482C157.164 122.482 157.166 122.482 157.169 122.482C157.171 122.482 157.173 122.482 157.176 122.482C157.178 122.482 157.181 122.482 157.183 122.482C157.186 122.482 157.188 122.482 157.191 122.482C157.194 122.482 157.196 122.482 157.199 122.482C157.201 122.482 157.204 122.482 157.207 122.482C157.209 122.482 157.212 122.482 157.214 122.482C157.217 122.482 157.22 122.482 157.223 122.482C157.225 122.482 157.228 122.482 157.231 122.482C157.234 122.482 157.236 122.482 157.239 122.482C157.242 122.482 157.245 122.482 157.248 122.482C157.25 122.482 157.253 122.482 157.256 122.482C157.259 122.482 157.262 122.482 157.265 122.482C157.268 122.482 157.271 122.482 157.274 122.482C157.277 122.482 157.28 122.482 157.283 122.482C157.286 122.482 157.289 122.482 157.292 122.482C157.295 122.482 157.298 122.482 157.301 122.482C157.304 122.482 157.307 122.482 157.31 122.482C157.313 122.482 157.317 122.482 157.32 122.482C157.323 122.482 157.326 122.482 157.329 122.482C157.332 122.482 157.336 122.482 157.339 122.482C157.342 122.482 157.345 122.482 157.349 122.482C157.352 122.482 157.355 122.482 157.359 122.482C157.362 122.482 157.365 122.482 157.369 122.482C157.372 122.482 157.375 122.482 157.379 122.482C157.382 122.482 157.386 122.482 157.389 122.482C157.393 122.482 157.396 122.482 157.4 122.482C157.403 122.482 157.407 122.482 157.41 122.482C157.414 122.482 157.417 122.482 157.421 122.482C157.424 122.482 157.428 122.482 157.431 122.482C157.435 122.482 157.439 122.482 157.442 122.482C157.446 122.482 157.45 122.482 157.453 122.482C157.457 122.482 157.461 122.482 157.464 122.482C157.468 122.482 157.472 122.482 157.476 122.482C157.479 122.482 157.483 122.482 157.487 122.482C157.491 122.482 157.495 122.482 157.499 122.482C157.502 122.482 157.506 122.482 157.51 122.482C157.514 122.482 157.518 122.482 157.522 122.482C157.526 122.482 157.53 122.482 157.534 122.482C157.538 122.482 157.542 122.482 157.546 122.482C157.55 122.482 157.554 122.482 157.558 122.482C157.562 122.482 157.566 122.482 157.57 122.482C157.574 122.482 157.578 122.482 157.582 122.482C157.586 122.482 157.59 122.482 157.595 122.482C157.599 122.482 157.603 122.482 157.607 122.482C157.611 122.482 157.616 122.482 157.62 122.482C157.624 122.482 157.628 122.482 157.633 122.482C157.637 122.482 157.641 122.482 157.645 122.482C157.65 122.482 157.654 122.482 157.658 122.482C157.663 122.482 157.667 122.482 157.672 122.482C157.676 122.482 157.68 122.482 157.685 122.482C157.689 122.482 157.694 122.482 157.698 122.482C157.703 122.482 157.707 122.482 157.712 122.482C157.716 122.482 157.721 122.482 157.725 122.482C157.73 122.482 157.734 122.482 157.739 122.482C157.743 122.482 157.748 122.482 157.753 122.482C157.757 122.482 157.762 122.482 157.767 122.482C157.771 122.482 157.776 122.482 157.781 122.482C157.785 122.482 157.79 122.482 157.795 122.482C157.8 122.482 157.804 122.482 157.809 122.482C157.814 122.482 157.819 122.482 157.823 122.482C157.828 122.482 157.833 122.482 157.838 122.482C157.843 122.482 157.848 122.482 157.853 122.482C157.857 122.482 157.862 122.482 157.867 122.482C157.872 122.482 157.877 122.482 157.882 122.482C157.887 122.482 157.892 122.482 157.897 122.482C157.902 122.482 157.907 122.482 157.912 122.482C157.917 122.482 157.922 122.482 157.927 122.482C157.932 122.482 157.937 122.482 157.943 122.482C157.948 122.482 157.953 122.482 157.958 122.482C157.963 122.482 157.968 122.482 157.973 122.482C157.979 122.482 157.984 122.482 157.989 122.482C157.994 122.482 158 122.482 158.005 122.482C158.01 122.482 158.015 122.482 158.021 122.482C158.026 122.482 158.031 122.482 158.037 122.482C158.042 122.482 158.047 122.482 158.053 122.482C158.058 122.482 158.063 122.482 158.069 122.482C158.074 122.482 158.08 122.482 158.085 122.482C158.091 122.482 158.096 122.482 158.101 122.482C158.107 122.482 158.112 122.482 158.118 122.482C158.123 122.482 158.129 122.482 158.135 122.482C158.14 122.482 158.146 122.482 158.151 122.482C158.157 122.482 158.163 122.482 158.168 122.482C158.174 122.482 158.179 122.482 158.185 122.482C158.191 122.482 158.196 122.482 158.202 122.482C158.208 122.482 158.214 122.482 158.219 122.482C158.225 122.482 158.231 122.482 158.237 122.482C158.242 122.482 158.248 122.482 158.254 122.482C158.26 122.482 158.266 122.482 158.271 122.482C158.277 122.482 158.283 122.482 158.289 122.482C158.295 122.482 158.301 122.482 158.307 122.482C158.313 122.482 158.319 122.482 158.325 122.482C158.33 122.482 158.336 122.482 158.342 122.482C158.348 122.482 158.354 122.482 158.36 122.482C158.366 122.482 158.373 122.482 158.379 122.482C158.385 122.482 158.391 122.482 158.397 122.482C158.403 122.482 158.409 122.482 158.415 122.482C158.421 122.482 158.427 122.482 158.434 122.482C158.44 122.482 158.446 122.482 158.452 122.482C158.458 122.482 158.465 122.482 158.471 122.482C158.477 122.482 158.483 122.482 158.49 122.482C158.496 122.482 158.502 122.482 158.509 122.482C158.515 122.482 158.521 122.482 158.528 122.482C158.534 122.482 158.54 122.482 158.547 122.482C158.553 122.482 158.559 122.482 158.566 122.482C158.572 122.482 158.579 122.482 158.585 122.482C158.592 122.482 158.598 122.482 158.605 122.482C158.611 122.482 158.617 122.482 158.624 122.482C158.631 122.482 158.637 122.482 158.644 122.482C158.65 122.482 158.657 122.482 158.663 122.482C158.67 122.482 158.677 122.482 158.683 122.482C158.69 122.482 158.696 122.482 158.703 122.482C158.71 122.482 158.716 122.482 158.723 122.482C158.73 122.482 158.737 122.482 158.743 122.482C158.75 122.482 158.757 122.482 158.764 122.482C158.77 122.482 158.777 122.482 158.784 122.482C158.791 122.482 158.797 122.482 158.804 122.482C158.811 122.482 158.818 122.482 158.825 122.482C158.832 122.482 158.839 122.482 158.846 122.482C158.852 122.482 158.859 122.482 158.866 122.482C158.873 122.482 158.88 122.482 158.887 122.482C158.894 122.482 158.901 122.482 158.908 122.482C158.915 122.482 158.922 122.482 158.929 122.482C158.936 122.482 158.943 122.482 158.95 122.482C158.957 122.482 158.964 122.482 158.972 122.482C158.979 122.482 158.986 122.482 158.993 122.482C159 122.482 159.007 122.482 159.014 122.482C159.022 122.482 159.029 122.482 159.036 122.482C159.043 122.482 159.05 122.482 159.058 122.482C159.065 122.482 159.072 122.482 159.079 122.482C159.087 122.482 159.094 122.482 159.101 122.482C159.109 122.482 159.116 122.482 159.123 122.482C159.131 122.482 159.138 122.482 159.145 122.482C159.153 122.482 159.16 122.482 159.168 122.482C159.175 122.482 159.182 122.482 159.19 122.482C159.197 122.482 159.205 122.482 159.212 122.482C159.22 122.482 159.227 122.482 159.235 122.482C159.242 122.482 159.25 122.482 159.257 122.482C159.265 122.482 159.272 122.482 159.28 122.482C159.287 122.482 159.295 122.482 159.303 122.482C159.31 122.482 159.318 122.482 159.326 122.482C159.333 122.482 159.341 122.482 159.348 122.482C159.356 122.482 159.364 122.482 159.372 122.482C159.379 122.482 159.387 122.482 159.395 122.482C159.402 122.482 159.41 122.482 159.418 122.482C159.426 122.482 159.434 122.482 159.441 122.482C159.449 122.482 159.457 122.482 159.465 122.482C159.473 122.482 159.48 122.482 159.488 122.482C159.496 122.482 159.504 122.482 159.512 122.482C159.52 122.482 159.528 122.482 159.536 122.482C159.544 122.482 159.552 122.482 159.56 122.482C159.568 122.482 159.576 122.482 159.584 122.482C159.592 122.482 159.6 122.482 159.608 122.482C159.616 122.482 159.624 122.482 159.632 122.482C159.64 122.482 159.648 122.482 159.656 122.482C159.664 122.482 159.672 122.482 159.68 122.482C159.688 122.482 159.697 122.482 159.705 122.482C159.713 122.482 159.721 122.482 159.729 122.482C159.737 122.482 159.746 122.482 159.754 122.482C159.762 122.482 159.77 122.482 159.779 122.482C159.787 122.482 159.795 122.482 159.803 122.482C159.812 122.482 159.82 122.482 159.828 122.482C159.837 122.482 159.845 122.482 159.853 122.482C159.862 122.482 159.87 122.482 159.878 122.482C159.887 122.482 159.895 122.482 159.904 122.482C159.912 122.482 159.92 122.482 159.929 122.482C159.937 122.482 159.946 122.482 159.954 122.482C159.963 122.482 159.971 122.482 159.98 122.482C159.988 122.482 159.997 122.482 160.005 122.482C160.014 122.482 160.022 122.482 160.031 122.482C160.039 122.482 160.048 122.482 160.057 122.482C160.065 122.482 160.074 122.482 160.082 122.482C160.091 122.482 160.1 122.482 160.108 122.482C160.117 122.482 160.126 122.482 160.134 122.482C160.143 122.482 160.152 122.482 160.16 122.482C160.169 122.482 160.178 122.482 160.187 122.482C160.195 122.482 160.204 122.482 160.213 122.482C160.222 122.482 160.231 122.482 160.239 122.482C160.248 122.482 160.257 122.482 160.266 122.482C160.275 122.482 160.284 122.482 160.292 122.482C160.301 122.482 160.31 122.482 160.319 122.482C160.328 122.482 160.337 122.482 160.346 122.482C160.355 122.482 160.364 122.482 160.373 122.482C160.382 122.482 160.391 122.482 160.4 122.482C160.409 122.482 160.418 122.482 160.427 122.482C160.436 122.482 160.445 122.482 160.454 122.482C160.463 122.482 160.472 122.482 160.481 122.482C160.49 122.482 160.499 122.482 160.508 122.482C160.517 122.482 160.527 122.482 160.536 122.482C160.545 122.482 160.554 122.482 160.563 122.482C160.572 122.482 160.581 122.482 160.591 122.482C160.6 122.482 160.609 122.482 160.618 122.482C160.628 122.482 160.637 122.482 160.646 122.482C160.655 122.482 160.665 122.482 160.674 122.482C160.683 122.482 160.693 122.482 160.702 122.482C160.711 122.482 160.721 122.482 160.73 122.482C160.739 122.482 160.749 122.482 160.758 122.482C160.767 122.482 160.777 122.482 160.786 122.482C160.796 122.482 160.805 122.482 160.814 122.482C160.824 122.482 160.833 122.482 160.843 122.482C160.852 122.482 160.862 122.482 160.871 122.482C160.881 122.482 160.89 122.482 160.9 122.482C160.909 122.482 160.919 122.482 160.928 122.482C160.938 122.482 160.948 122.482 160.957 122.482C160.967 122.482 160.976 122.482 160.986 122.482C160.996 122.482 161.005 122.482 161.015 122.482C161.024 122.482 161.034 122.482 161.044 122.482C161.053 122.482 161.063 122.482 161.073 122.482C161.083 122.482 161.092 122.482 161.102 122.482C161.112 122.482 161.121 122.482 161.131 122.482C161.141 122.482 161.151 122.482 161.16 122.482C161.17 122.482 161.18 122.482 161.19 122.482C161.2 122.482 161.21 122.482 161.219 122.482C161.229 122.482 161.239 122.482 161.249 122.482C161.259 122.482 161.269 122.482 161.279 122.482C161.289 122.482 161.298 122.482 161.308 122.482C161.318 122.482 161.328 122.482 161.338 122.482C161.348 122.482 161.358 122.482 161.368 122.482C161.378 122.482 161.388 122.482 161.398 122.482C161.408 122.482 161.418 122.482 161.428 122.482C161.438 122.482 161.448 122.482 161.458 122.482C161.468 122.482 161.478 122.482 161.489 122.482C161.499 122.482 161.509 122.482 161.519 122.482C161.529 122.482 161.539 122.482 161.549 122.482C161.559 122.482 161.57 122.482 161.58 122.482C161.59 122.482 161.6 122.482 161.61 122.482C161.621 122.482 161.631 122.482 161.641 122.482C161.651 122.482 161.661 122.482 161.672 122.482C161.682 122.482 161.692 122.482 161.703 122.482C161.713 122.482 161.723 122.482 161.733 122.482C161.744 122.482 161.754 122.482 161.764 122.482C161.775 122.482 161.785 122.482 161.796 122.482C161.806 122.482 161.816 122.482 161.827 122.482C161.837 122.482 161.847 122.482 161.858 122.482C161.868 122.482 161.879 122.482 161.889 122.482C161.9 122.482 161.91 122.482 161.921 122.482C161.931 122.482 161.942 122.482 161.952 122.482C161.963 122.482 161.973 122.482 161.984 122.482C161.994 122.482 162.005 122.482 162.015 122.482C162.026 122.482 162.036 122.482 162.047 122.482C162.058 122.482 162.068 122.482 162.079 122.482C162.089 122.482 162.1 122.482 162.111 122.482C162.121 122.482 162.132 122.482 162.143 122.482C162.153 122.482 162.164 122.482 162.175 122.482C162.185 122.482 162.196 122.482 162.207 122.482C162.217 122.482 162.228 122.482 162.239 122.482C162.25 122.482 162.26 122.482 162.271 122.482C162.282 122.482 162.293 122.482 162.304 122.482C162.314 122.482 162.325 122.482 162.336 122.482C162.347 122.482 162.358 122.482 162.369 122.482C162.379 122.482 162.39 122.482 162.401 122.482C162.412 122.482 162.423 122.482 162.434 122.482C162.445 122.482 162.456 122.482 162.466 122.482C162.477 122.482 162.488 122.482 162.499 122.482C162.51 122.482 162.521 122.482 162.532 122.482C162.543 122.482 162.554 122.482 162.565 122.482C162.576 122.482 162.587 122.482 162.598 122.482C162.609 122.482 162.62 122.482 162.631 122.482C162.642 122.482 162.653 122.482 162.665 122.482C162.676 122.482 162.687 122.482 162.698 122.482C162.709 122.482 162.72 122.482 162.731 122.482C162.742 122.482 162.753 122.482 162.765 122.482C162.776 122.482 162.787 122.482 162.798 122.482C162.809 122.482 162.82 122.482 162.832 122.482C162.843 122.482 162.854 122.482 162.865 122.482C162.877 122.482 162.888 122.482 162.899 122.482C162.91 122.482 162.922 122.482 162.933 122.482C162.944 122.482 162.955 122.482 162.967 122.482C162.978 122.482 162.989 122.482 163.001 122.482C163.012 122.482 163.023 122.482 163.035 122.482C163.046 122.482 163.058 122.482 163.069 122.482C163.08 122.482 163.092 122.482 163.103 122.482C163.114 122.482 163.126 122.482 163.137 122.482C163.149 122.482 163.16 122.482 163.172 122.482C163.183 122.482 163.195 122.482 163.206 122.482C163.218 122.482 163.229 122.482 163.241 122.482C163.252 122.482 163.264 122.482 163.275 122.482C163.287 122.482 163.298 122.482 163.31 122.482C163.321 122.482 163.333 122.482 163.344 122.482C163.356 122.482 163.368 122.482 163.379 122.482C163.391 122.482 163.402 122.482 163.414 122.482C163.426 122.482 163.437 122.482 163.449 122.482C163.461 122.482 163.472 122.482 163.484 122.482C163.496 122.482 163.507 122.482 163.519 122.482C163.531 122.482 163.542 122.482 163.554 122.482C163.566 122.482 163.578 122.482 163.589 122.482C163.601 122.482 163.613 122.482 163.625 122.482C163.636 122.482 163.648 122.482 163.66 122.482C163.672 122.482 163.683 122.482 163.695 122.482C163.707 122.482 163.719 122.482 163.731 122.482C163.743 122.482 163.754 122.482 163.766 122.482C163.778 122.482 163.79 122.482 163.802 122.482C163.814 122.482 163.826 122.482 163.838 122.482C163.85 122.482 163.861 122.482 163.873 122.482C163.885 122.482 163.897 122.482 163.909 122.482C163.921 122.482 163.933 122.482 163.945 122.482C163.957 122.482 163.969 122.482 163.981 122.482C163.993 122.482 164.005 122.482 164.017 122.482C164.029 122.482 164.041 122.482 164.053 122.482C164.065 122.482 164.077 122.482 164.089 122.482C164.102 122.482 164.114 122.482 164.126 122.482C164.138 122.482 164.15 122.482 164.162 122.482C164.174 122.482 164.186 122.482 164.198 122.482C164.211 122.482 164.223 122.482 164.235 122.482C164.247 122.482 164.259 122.482 164.271 122.482C164.284 122.482 164.296 122.482 164.308 122.482C164.32 122.482 164.332 122.482 164.345 122.482C164.357 122.482 164.369 122.482 164.381 122.482C164.394 122.482 164.406 122.482 164.418 122.482C164.43 122.482 164.443 122.482 164.455 122.482C164.467 122.482 164.48 122.482 164.492 122.482C164.504 122.482 164.517 122.482 164.529 122.482C164.541 122.482 164.554 122.482 164.566 122.482C164.578 122.482 164.591 122.482 164.603 122.482C164.616 122.482 164.628 122.482 164.64 122.482C164.653 122.482 164.665 122.482 164.678 122.482C164.69 122.482 164.702 122.482 164.715 122.482C164.727 122.482 164.74 122.482 164.752 122.482C164.765 122.482 164.777 122.482 164.79 122.482C164.802 122.482 164.815 122.482 164.827 122.482C164.84 122.482 164.852 122.482 164.865 122.482C164.877 122.482 164.89 122.482 164.903 122.482C164.915 122.482 164.928 122.482 164.94 122.482C164.953 122.482 164.965 122.482 164.978 122.482C164.991 122.482 165.003 122.482 165.016 122.482C165.028 122.482 165.041 122.482 165.054 122.482C165.066 122.482 165.079 122.482 165.092 122.482C165.104 122.482 165.117 122.482 165.13 122.482C165.142 122.482 165.155 122.482 165.168 122.482C165.181 122.482 165.193 122.482 165.206 122.482C165.219 122.482 165.231 122.482 165.244 122.482C165.257 122.482 165.27 122.482 165.283 122.482C165.295 122.482 165.308 122.482 165.321 122.482C165.334 122.482 165.346 122.482 165.359 122.482C165.372 122.482 165.385 122.482 165.398 122.482C165.411 122.482 165.423 122.482 165.436 122.482C165.449 122.482 165.462 122.482 165.475 122.482C165.488 122.482 165.501 122.482 165.514 122.482C165.526 122.482 165.539 122.482 165.552 122.482C165.565 122.482 165.578 122.482 165.591 122.482C165.604 122.482 165.617 122.482 165.63 122.482C165.643 122.482 165.656 122.482 165.669 122.482C165.682 122.482 165.695 122.482 165.708 122.482C165.721 122.482 165.734 122.482 165.747 122.482C165.76 122.482 165.773 122.482 165.786 122.482C165.799 122.482 165.812 122.482 165.825 122.482C165.838 122.482 165.851 122.482 165.864 122.482C165.877 122.482 165.89 122.482 165.904 122.482C165.917 122.482 165.93 122.482 165.943 122.482C165.956 122.482 165.969 122.482 165.982 122.482C165.995 122.482 166.009 122.482 166.022 122.482C166.035 122.482 166.048 122.482 166.061 122.482C166.074 122.482 166.088 122.482 166.101 122.482C166.114 122.482 166.127 122.482 166.14 122.482C166.154 122.482 166.167 122.482 166.18 122.482C166.193 122.482 166.207 122.482 166.22 122.482C166.233 122.482 166.246 122.482 166.26 122.482C166.273 122.482 166.286 122.482 166.299 122.482C166.313 122.482 166.326 122.482 166.339 122.482C166.353 122.482 166.366 122.482 166.379 122.482C166.393 122.482 166.406 122.482 166.419 122.482C166.433 122.482 166.446 122.482 166.459 122.482C166.473 122.482 166.486 122.482 166.5 122.482C166.513 122.482 166.526 122.482 166.54 122.482C166.553 122.482 166.567 122.482 166.58 122.482C166.593 122.482 166.607 122.482 166.62 122.482C166.634 122.482 166.647 122.482 166.661 122.482C166.674 122.482 166.688 122.482 166.701 122.482C166.715 122.482 166.728 122.482 166.742 122.482C166.755 122.482 166.769 122.482 166.782 122.482C166.796 122.482 166.809 122.482 166.823 122.482C166.836 122.482 166.85 122.482 166.863 122.482C166.877 122.482 166.891 122.482 166.904 122.482C166.918 122.482 166.931 122.482 166.945 122.482C166.958 122.482 166.972 122.482 166.986 122.482C166.999 122.482 167.013 122.482 167.027 122.482C167.04 122.482 167.054 122.482 167.068 122.482C167.081 122.482 167.095 122.482 167.108 122.482C167.122 122.482 167.136 122.482 167.15 122.482C167.163 122.482 167.177 122.482 167.191 122.482C167.204 122.482 167.218 122.482 167.232 122.482C167.245 122.482 167.259 122.482 167.273 122.482C167.287 122.482 167.3 122.482 167.314 122.482C167.328 122.482 167.342 122.482 167.355 122.482C167.369 122.482 167.383 122.482 167.397 122.482C167.411 122.482 167.424 122.482 167.438 122.482C167.452 122.482 167.466 122.482 167.48 122.482C167.494 122.482 167.507 122.482 167.521 122.482C167.535 122.482 167.549 122.482 167.563 122.482C167.577 122.482 167.591 122.482 167.604 122.482C167.618 122.482 167.632 122.482 167.646 122.482C167.66 122.482 167.674 122.482 167.688 122.482C167.702 122.482 167.716 122.482 167.73 122.482C167.743 122.482 167.757 122.482 167.771 122.482C167.785 122.482 167.799 122.482 167.813 122.482C167.827 122.482 167.841 122.482 167.855 122.482C167.869 122.482 167.883 122.482 167.897 122.482C167.911 122.482 167.925 122.482 167.939 122.482C167.953 122.482 167.967 122.482 167.981 122.482C167.995 122.482 168.009 122.482 168.023 122.482C168.037 122.482 168.051 122.482 168.066 122.482C168.08 122.482 168.094 122.482 168.108 122.482C168.122 122.482 168.136 122.482 168.15 122.482C168.164 122.482 168.178 122.482 168.192 122.482C168.206 122.482 168.221 122.482 168.235 122.482C168.249 122.482 168.263 122.482 168.277 122.482C168.291 122.482 168.305 122.482 168.32 122.482C168.334 122.482 168.348 122.482 168.362 122.482C168.376 122.482 168.391 122.482 168.405 122.482C168.419 122.482 168.433 122.482 168.447 122.482C168.462 122.482 168.476 122.482 168.49 122.482C168.504 122.482 168.518 122.482 168.533 122.482C168.547 122.482 168.561 122.482 168.575 122.482C168.59 122.482 168.604 122.482 168.618 122.482C168.633 122.482 168.647 122.482 168.661 122.482C168.675 122.482 168.69 122.482 168.704 122.482C168.718 122.482 168.733 122.482 168.747 122.482C168.761 122.482 168.776 122.482 168.79 122.482C168.804 122.482 168.819 122.482 168.833 122.482C168.847 122.482 168.862 122.482 168.876 122.482C168.89 122.482 168.905 122.482 168.919 122.482C168.934 122.482 168.948 122.482 168.962 122.482C168.977 122.482 168.991 122.482 169.006 122.482C169.02 122.482 169.034 122.482 169.049 122.482C169.063 122.482 169.078 122.482 169.092 122.482C169.107 122.482 169.121 122.482 169.136 122.482C169.15 122.482 169.165 122.482 169.179 122.482C169.193 122.482 169.208 122.482 169.222 122.482C169.237 122.482 169.251 122.482 169.266 122.482C169.28 122.482 169.295 122.482 169.309 122.482C169.324 122.482 169.339 122.482 169.353 122.482C169.368 122.482 169.382 122.482 169.397 122.482C169.411 122.482 169.426 122.482 169.44 122.482C169.455 122.482 169.47 122.482 169.484 122.482C169.499 122.482 169.513 122.482 169.528 122.482C169.542 122.482 169.557 122.482 169.572 122.482C169.586 122.482 169.601 122.482 169.615 122.482C169.63 122.482 169.645 122.482 169.659 122.482C169.674 122.482 169.689 122.482 169.703 122.482C169.718 122.482 169.733 122.482 169.747 122.482C169.762 122.482 169.777 122.482 169.791 122.482C169.806 122.482 169.821 122.482 169.835 122.482C169.85 122.482 169.865 122.482 169.879 122.482C169.894 122.482 169.909 122.482 169.924 122.482C169.938 122.482 169.953 122.482 169.968 122.482C169.983 122.482 169.997 122.482 170.012 122.482C170.027 122.482 170.042 122.482 170.056 122.482C170.071 122.482 170.086 122.482 170.101 122.482C170.115 122.482 170.13 122.482 170.145 122.482C170.16 122.482 170.175 122.482 170.189 122.482C170.204 122.482 170.219 122.482 170.234 122.482C170.249 122.482 170.263 122.482 170.278 122.482C170.293 122.482 170.308 122.482 170.323 122.482C170.338 122.482 170.352 122.482 170.367 122.482C170.382 122.482 170.397 122.482 170.412 122.482C170.427 122.482 170.442 122.482 170.457 122.482C170.471 122.482 170.486 122.482 170.501 122.482L170.501 118.482ZM154.962 120.482L154.962 141.687L158.962 141.687L158.962 120.482L154.962 120.482ZM156.962 139.687L136.374 139.687L136.374 143.687L156.962 143.687L156.962 139.687ZM158.962 120.482L158.962 99.2771L154.962 99.2771L154.962 120.482L158.962 120.482ZM156.962 97.2771L136.374 97.2771L136.374 101.277L156.962 101.277L156.962 97.2771Z" fill="white"/>
</svg>
