<svg width="200" height="280" viewBox="0 0 200 280" fill="none" xmlns="http://www.w3.org/2000/svg">
<path d="M129.094 248.459C129.094 264.804 116.059 278 100.045 278C84.0309 278 70.9956 264.804 70.9956 248.459C70.9956 232.114 84.0309 218.918 100.045 218.918C116.059 218.918 129.094 232.114 129.094 248.459Z" stroke="#9E9E9E" stroke-width="4"/>
<path d="M102.824 255.909H96.9864L95.7662 232.534H104.044L102.824 255.909ZM95.6705 264.092C95.6705 262.752 96.0293 261.739 96.7471 261.053C97.4649 260.367 98.5097 260.024 99.8814 260.024C101.205 260.024 102.226 260.375 102.944 261.077C103.678 261.779 104.044 262.784 104.044 264.092C104.044 265.352 103.678 266.349 102.944 267.082C102.21 267.8 101.189 268.159 99.8814 268.159C98.5416 268.159 97.5048 267.808 96.771 267.106C96.0373 266.389 95.6705 265.384 95.6705 264.092Z" fill="#9E9E9E"/>
<path d="M193.144 111.237L100 212.054L6.85609 111.237L193.144 111.237Z" fill="#884A07" stroke="#884A07" stroke-width="6"/>
<path d="M99.5633 175.655L111.11 155.655L88.0163 155.655L99.5633 175.655ZM80.3494 146.266L78.3494 146.266L78.3494 148.266L80.3494 148.266L80.3494 146.266ZM118.777 146.266L118.777 148.266L120.777 148.266L120.777 146.266L118.777 146.266ZM101.563 157.655C101.563 157.642 101.563 157.629 101.563 157.616C101.563 157.604 101.563 157.591 101.563 157.578C101.563 157.566 101.563 157.553 101.563 157.54C101.563 157.528 101.563 157.515 101.563 157.502C101.563 157.49 101.563 157.477 101.563 157.464C101.563 157.452 101.563 157.439 101.563 157.427C101.563 157.414 101.563 157.401 101.563 157.389C101.563 157.376 101.563 157.363 101.563 157.351C101.563 157.338 101.563 157.326 101.563 157.313C101.563 157.301 101.563 157.288 101.563 157.275C101.563 157.263 101.563 157.25 101.563 157.238C101.563 157.225 101.563 157.213 101.563 157.2C101.563 157.187 101.563 157.175 101.563 157.162C101.563 157.15 101.563 157.137 101.563 157.125C101.563 157.112 101.563 157.1 101.563 157.087C101.563 157.075 101.563 157.062 101.563 157.05C101.563 157.037 101.563 157.025 101.563 157.012C101.563 157 101.563 156.987 101.563 156.975C101.563 156.962 101.563 156.95 101.563 156.937C101.563 156.925 101.563 156.912 101.563 156.9C101.563 156.888 101.563 156.875 101.563 156.863C101.563 156.85 101.563 156.838 101.563 156.825C101.563 156.813 101.563 156.801 101.563 156.788C101.563 156.776 101.563 156.763 101.563 156.751C101.563 156.739 101.563 156.726 101.563 156.714C101.563 156.701 101.563 156.689 101.563 156.677C101.563 156.664 101.563 156.652 101.563 156.64C101.563 156.627 101.563 156.615 101.563 156.603C101.563 156.59 101.563 156.578 101.563 156.566C101.563 156.553 101.563 156.541 101.563 156.529C101.563 156.516 101.563 156.504 101.563 156.492C101.563 156.479 101.563 156.467 101.563 156.455C101.563 156.442 101.563 156.43 101.563 156.418C101.563 156.406 101.563 156.393 101.563 156.381C101.563 156.369 101.563 156.357 101.563 156.344C101.563 156.332 101.563 156.32 101.563 156.308C101.563 156.295 101.563 156.283 101.563 156.271C101.563 156.259 101.563 156.247 101.563 156.234C101.563 156.222 101.563 156.21 101.563 156.198C101.563 156.186 101.563 156.173 101.563 156.161C101.563 156.149 101.563 156.137 101.563 156.125C101.563 156.113 101.563 156.101 101.563 156.088C101.563 156.076 101.563 156.064 101.563 156.052C101.563 156.04 101.563 156.028 101.563 156.016C101.563 156.003 101.563 155.991 101.563 155.979C101.563 155.967 101.563 155.955 101.563 155.943C101.563 155.931 101.563 155.919 101.563 155.907C101.563 155.895 101.563 155.883 101.563 155.871C101.563 155.859 101.563 155.846 101.563 155.834C101.563 155.822 101.563 155.81 101.563 155.798C101.563 155.786 101.563 155.774 101.563 155.762C101.563 155.75 101.563 155.738 101.563 155.726C101.563 155.714 101.563 155.702 101.563 155.69C101.563 155.678 101.563 155.666 101.563 155.654C101.563 155.642 101.563 155.63 101.563 155.619C101.563 155.607 101.563 155.595 101.563 155.583C101.563 155.571 101.563 155.559 101.563 155.547C101.563 155.535 101.563 155.523 101.563 155.511C101.563 155.499 101.563 155.487 101.563 155.475C101.563 155.464 101.563 155.452 101.563 155.44C101.563 155.428 101.563 155.416 101.563 155.404C101.563 155.392 101.563 155.381 101.563 155.369C101.563 155.357 101.563 155.345 101.563 155.333C101.563 155.321 101.563 155.31 101.563 155.298C101.563 155.286 101.563 155.274 101.563 155.262C101.563 155.25 101.563 155.239 101.563 155.227C101.563 155.215 101.563 155.203 101.563 155.192C101.563 155.18 101.563 155.168 101.563 155.156C101.563 155.145 101.563 155.133 101.563 155.121C101.563 155.109 101.563 155.098 101.563 155.086C101.563 155.074 101.563 155.062 101.563 155.051C101.563 155.039 101.563 155.027 101.563 155.016C101.563 155.004 101.563 154.992 101.563 154.981C101.563 154.969 101.563 154.957 101.563 154.946C101.563 154.934 101.563 154.922 101.563 154.911C101.563 154.899 101.563 154.887 101.563 154.876C101.563 154.864 101.563 154.853 101.563 154.841C101.563 154.829 101.563 154.818 101.563 154.806C101.563 154.795 101.563 154.783 101.563 154.771C101.563 154.76 101.563 154.748 101.563 154.737C101.563 154.725 101.563 154.714 101.563 154.702C101.563 154.691 101.563 154.679 101.563 154.667C101.563 154.656 101.563 154.644 101.563 154.633C101.563 154.621 101.563 154.61 101.563 154.598C101.563 154.587 101.563 154.575 101.563 154.564C101.563 154.552 101.563 154.541 101.563 154.53C101.563 154.518 101.563 154.507 101.563 154.495C101.563 154.484 101.563 154.472 101.563 154.461C101.563 154.449 101.563 154.438 101.563 154.427C101.563 154.415 101.563 154.404 101.563 154.392C101.563 154.381 101.563 154.37 101.563 154.358C101.563 154.347 101.563 154.335 101.563 154.324C101.563 154.313 101.563 154.301 101.563 154.29C101.563 154.279 101.563 154.267 101.563 154.256C101.563 154.245 101.563 154.233 101.563 154.222C101.563 154.211 101.563 154.199 101.563 154.188C101.563 154.177 101.563 154.166 101.563 154.154C101.563 154.143 101.563 154.132 101.563 154.121C101.563 154.109 101.563 154.098 101.563 154.087C101.563 154.076 101.563 154.064 101.563 154.053C101.563 154.042 101.563 154.031 101.563 154.019C101.563 154.008 101.563 153.997 101.563 153.986C101.563 153.975 101.563 153.963 101.563 153.952C101.563 153.941 101.563 153.93 101.563 153.919C101.563 153.908 101.563 153.896 101.563 153.885C101.563 153.874 101.563 153.863 101.563 153.852C101.563 153.841 101.563 153.83 101.563 153.819C101.563 153.808 101.563 153.796 101.563 153.785C101.563 153.774 101.563 153.763 101.563 153.752C101.563 153.741 101.563 153.73 101.563 153.719C101.563 153.708 101.563 153.697 101.563 153.686C101.563 153.675 101.563 153.664 101.563 153.653C101.563 153.642 101.563 153.631 101.563 153.62C101.563 153.609 101.563 153.598 101.563 153.587C101.563 153.576 101.563 153.565 101.563 153.554C101.563 153.543 101.563 153.532 101.563 153.521C101.563 153.51 101.563 153.499 101.563 153.488C101.563 153.477 101.563 153.466 101.563 153.455C101.563 153.445 101.563 153.434 101.563 153.423C101.563 153.412 101.563 153.401 101.563 153.39C101.563 153.379 101.563 153.368 101.563 153.358C101.563 153.347 101.563 153.336 101.563 153.325C101.563 153.314 101.563 153.303 101.563 153.293C101.563 153.282 101.563 153.271 101.563 153.26C101.563 153.249 101.563 153.239 101.563 153.228C101.563 153.217 101.563 153.206 101.563 153.195C101.563 153.185 101.563 153.174 101.563 153.163C101.563 153.152 101.563 153.142 101.563 153.131C101.563 153.12 101.563 153.11 101.563 153.099C101.563 153.088 101.563 153.077 101.563 153.067C101.563 153.056 101.563 153.045 101.563 153.035C101.563 153.024 101.563 153.013 101.563 153.003C101.563 152.992 101.563 152.981 101.563 152.971C101.563 152.96 101.563 152.95 101.563 152.939C101.563 152.928 101.563 152.918 101.563 152.907C101.563 152.897 101.563 152.886 101.563 152.875C101.563 152.865 101.563 152.854 101.563 152.844C101.563 152.833 101.563 152.823 101.563 152.812C101.563 152.802 101.563 152.791 101.563 152.78C101.563 152.77 101.563 152.759 101.563 152.749C101.563 152.738 101.563 152.728 101.563 152.718C101.563 152.707 101.563 152.697 101.563 152.686C101.563 152.676 101.563 152.665 101.563 152.655C101.563 152.644 101.563 152.634 101.563 152.623C101.563 152.613 101.563 152.603 101.563 152.592C101.563 152.582 101.563 152.571 101.563 152.561C101.563 152.551 101.563 152.54 101.563 152.53C101.563 152.52 101.563 152.509 101.563 152.499C101.563 152.489 101.563 152.478 101.563 152.468C101.563 152.458 101.563 152.447 101.563 152.437C101.563 152.427 101.563 152.416 101.563 152.406C101.563 152.396 101.563 152.386 101.563 152.375C101.563 152.365 101.563 152.355 101.563 152.345C101.563 152.334 101.563 152.324 101.563 152.314C101.563 152.304 101.563 152.293 101.563 152.283C101.563 152.273 101.563 152.263 101.563 152.253C101.563 152.242 101.563 152.232 101.563 152.222C101.563 152.212 101.563 152.202 101.563 152.192C101.563 152.181 101.563 152.171 101.563 152.161C101.563 152.151 101.563 152.141 101.563 152.131C101.563 152.121 101.563 152.111 101.563 152.101C101.563 152.09 101.563 152.08 101.563 152.07C101.563 152.06 101.563 152.05 101.563 152.04C101.563 152.03 101.563 152.02 101.563 152.01C101.563 152 101.563 151.99 101.563 151.98C101.563 151.97 101.563 151.96 101.563 151.95C101.563 151.94 101.563 151.93 101.563 151.92C101.563 151.91 101.563 151.9 101.563 151.89C101.563 151.88 101.563 151.87 101.563 151.861C101.563 151.851 101.563 151.841 101.563 151.831C101.563 151.821 101.563 151.811 101.563 151.801C101.563 151.791 101.563 151.781 101.563 151.772C101.563 151.762 101.563 151.752 101.563 151.742C101.563 151.732 101.563 151.722 101.563 151.712C101.563 151.703 101.563 151.693 101.563 151.683C101.563 151.673 101.563 151.663 101.563 151.654C101.563 151.644 101.563 151.634 101.563 151.624C101.563 151.615 101.563 151.605 101.563 151.595C101.563 151.585 101.563 151.576 101.563 151.566C101.563 151.556 101.563 151.547 101.563 151.537C101.563 151.527 101.563 151.518 101.563 151.508C101.563 151.498 101.563 151.489 101.563 151.479C101.563 151.469 101.563 151.46 101.563 151.45C101.563 151.44 101.563 151.431 101.563 151.421C101.563 151.412 101.563 151.402 101.563 151.392C101.563 151.383 101.563 151.373 101.563 151.364C101.563 151.354 101.563 151.344 101.563 151.335C101.563 151.325 101.563 151.316 101.563 151.306C101.563 151.297 101.563 151.287 101.563 151.278C101.563 151.268 101.563 151.259 101.563 151.249C101.563 151.24 101.563 151.23 101.563 151.221C101.563 151.211 101.563 151.202 101.563 151.193C101.563 151.183 101.563 151.174 101.563 151.164C101.563 151.155 101.563 151.146 101.563 151.136C101.563 151.127 101.563 151.117 101.563 151.108C101.563 151.099 101.563 151.089 101.563 151.08C101.563 151.071 101.563 151.061 101.563 151.052C101.563 151.043 101.563 151.033 101.563 151.024C101.563 151.015 101.563 151.005 101.563 150.996C101.563 150.987 101.563 150.978 101.563 150.968C101.563 150.959 101.563 150.95 101.563 150.941C101.563 150.931 101.563 150.922 101.563 150.913C101.563 150.904 101.563 150.894 101.563 150.885C101.563 150.876 101.563 150.867 101.563 150.858C101.563 150.849 101.563 150.839 101.563 150.83C101.563 150.821 101.563 150.812 101.563 150.803C101.563 150.794 101.563 150.785 101.563 150.775C101.563 150.766 101.563 150.757 101.563 150.748C101.563 150.739 101.563 150.73 101.563 150.721C101.563 150.712 101.563 150.703 101.563 150.694C101.563 150.685 101.563 150.676 101.563 150.667C101.563 150.658 101.563 150.649 101.563 150.64C101.563 150.631 101.563 150.622 101.563 150.613C101.563 150.604 101.563 150.595 101.563 150.586C101.563 150.577 101.563 150.568 101.563 150.559C101.563 150.55 101.563 150.541 101.563 150.532C101.563 150.524 101.563 150.515 101.563 150.506C101.563 150.497 101.563 150.488 101.563 150.479C101.563 150.47 101.563 150.461 101.563 150.453C101.563 150.444 101.563 150.435 101.563 150.426C101.563 150.417 101.563 150.409 101.563 150.4C101.563 150.391 101.563 150.382 101.563 150.373C101.563 150.365 101.563 150.356 101.563 150.347C101.563 150.338 101.563 150.33 101.563 150.321C101.563 150.312 101.563 150.304 101.563 150.295C101.563 150.286 101.563 150.278 101.563 150.269C101.563 150.26 101.563 150.252 101.563 150.243C101.563 150.234 101.563 150.226 101.563 150.217C101.563 150.208 101.563 150.2 101.563 150.191C101.563 150.183 101.563 150.174 101.563 150.165C101.563 150.157 101.563 150.148 101.563 150.14C101.563 150.131 101.563 150.123 101.563 150.114C101.563 150.106 101.563 150.097 101.563 150.089C101.563 150.08 101.563 150.072 101.563 150.063C101.563 150.055 101.563 150.046 101.563 150.038C101.563 150.029 101.563 150.021 101.563 150.012C101.563 150.004 101.563 149.995 101.563 149.987C101.563 149.979 101.563 149.97 101.563 149.962C101.563 149.954 101.563 149.945 101.563 149.937C101.563 149.928 101.563 149.92 101.563 149.912C101.563 149.903 101.563 149.895 101.563 149.887C101.563 149.878 101.563 149.87 101.563 149.862C101.563 149.854 101.563 149.845 101.563 149.837C101.563 149.829 101.563 149.821 101.563 149.812C101.563 149.804 101.563 149.796 101.563 149.788C101.563 149.779 101.563 149.771 101.563 149.763C101.563 149.755 101.563 149.747 101.563 149.738C101.563 149.73 101.563 149.722 101.563 149.714C101.563 149.706 101.563 149.698 101.563 149.69C101.563 149.681 101.563 149.673 101.563 149.665C101.563 149.657 101.563 149.649 101.563 149.641C101.563 149.633 101.563 149.625 101.563 149.617C101.563 149.609 101.563 149.601 101.563 149.593C101.563 149.585 101.563 149.577 101.563 149.569C101.563 149.561 101.563 149.553 101.563 149.545C101.563 149.537 101.563 149.529 101.563 149.521C101.563 149.513 101.563 149.505 101.563 149.497C101.563 149.489 101.563 149.481 101.563 149.473C101.563 149.465 101.563 149.458 101.563 149.45C101.563 149.442 101.563 149.434 101.563 149.426C101.563 149.418 101.563 149.41 101.563 149.403C101.563 149.395 101.563 149.387 101.563 149.379C101.563 149.371 101.563 149.364 101.563 149.356C101.563 149.348 101.563 149.34 101.563 149.333C101.563 149.325 101.563 149.317 101.563 149.309C101.563 149.302 101.563 149.294 101.563 149.286C101.563 149.279 101.563 149.271 101.563 149.263C101.563 149.256 101.563 149.248 101.563 149.24C101.563 149.233 101.563 149.225 101.563 149.217C101.563 149.21 101.563 149.202 101.563 149.195C101.563 149.187 101.563 149.179 101.563 149.172C101.563 149.164 101.563 149.157 101.563 149.149C101.563 149.142 101.563 149.134 101.563 149.127C101.563 149.119 101.563 149.111 101.563 149.104C101.563 149.097 101.563 149.089 101.563 149.082C101.563 149.074 101.563 149.067 101.563 149.059C101.563 149.052 101.563 149.044 101.563 149.037C101.563 149.03 101.563 149.022 101.563 149.015C101.563 149.007 101.563 149 101.563 148.993C101.563 148.985 101.563 148.978 101.563 148.971C101.563 148.963 101.563 148.956 101.563 148.949C101.563 148.941 101.563 148.934 101.563 148.927C101.563 148.919 101.563 148.912 101.563 148.905C101.563 148.898 101.563 148.89 101.563 148.883C101.563 148.876 101.563 148.869 101.563 148.861C101.563 148.854 101.563 148.847 101.563 148.84C101.563 148.833 101.563 148.826 101.563 148.818C101.563 148.811 101.563 148.804 101.563 148.797C101.563 148.79 101.563 148.783 101.563 148.776C101.563 148.769 101.563 148.761 101.563 148.754C101.563 148.747 101.563 148.74 101.563 148.733C101.563 148.726 101.563 148.719 101.563 148.712C101.563 148.705 101.563 148.698 101.563 148.691C101.563 148.684 101.563 148.677 101.563 148.67C101.563 148.663 101.563 148.656 101.563 148.649C101.563 148.642 101.563 148.635 101.563 148.628C101.563 148.622 101.563 148.615 101.563 148.608C101.563 148.601 101.563 148.594 101.563 148.587C101.563 148.58 101.563 148.573 101.563 148.567C101.563 148.56 101.563 148.553 101.563 148.546C101.563 148.539 101.563 148.533 101.563 148.526C101.563 148.519 101.563 148.512 101.563 148.505C101.563 148.499 101.563 148.492 101.563 148.485C101.563 148.479 101.563 148.472 101.563 148.465C101.563 148.458 101.563 148.452 101.563 148.445C101.563 148.438 101.563 148.432 101.563 148.425C101.563 148.418 101.563 148.412 101.563 148.405C101.563 148.399 101.563 148.392 101.563 148.385C101.563 148.379 101.563 148.372 101.563 148.366C101.563 148.359 101.563 148.353 101.563 148.346C101.563 148.339 101.563 148.333 101.563 148.326C101.563 148.32 101.563 148.313 101.563 148.307C101.563 148.3 101.563 148.294 101.563 148.288C101.563 148.281 101.563 148.275 101.563 148.268C101.563 148.262 101.563 148.255 101.563 148.249C101.563 148.243 101.563 148.236 101.563 148.23C101.563 148.223 101.563 148.217 101.563 148.211C101.563 148.204 101.563 148.198 101.563 148.192C101.563 148.185 101.563 148.179 101.563 148.173C101.563 148.167 101.563 148.16 101.563 148.154C101.563 148.148 101.563 148.142 101.563 148.135C101.563 148.129 101.563 148.123 101.563 148.117C101.563 148.11 101.563 148.104 101.563 148.098C101.563 148.092 101.563 148.086 101.563 148.08C101.563 148.073 101.563 148.067 101.563 148.061C101.563 148.055 101.563 148.049 101.563 148.043C101.563 148.037 101.563 148.031 101.563 148.025C101.563 148.019 101.563 148.013 101.563 148.007C101.563 148.001 101.563 147.995 101.563 147.989C101.563 147.982 101.563 147.977 101.563 147.971C101.563 147.965 101.563 147.959 101.563 147.953C101.563 147.947 101.563 147.941 101.563 147.935C101.563 147.929 101.563 147.923 101.563 147.917C101.563 147.911 101.563 147.905 101.563 147.899C101.563 147.894 101.563 147.888 101.563 147.882C101.563 147.876 101.563 147.87 101.563 147.864C101.563 147.859 101.563 147.853 101.563 147.847C101.563 147.841 101.563 147.836 101.563 147.83C101.563 147.824 101.563 147.818 101.563 147.813C101.563 147.807 101.563 147.801 101.563 147.796C101.563 147.79 101.563 147.784 101.563 147.778C101.563 147.773 101.563 147.767 101.563 147.762C101.563 147.756 101.563 147.75 101.563 147.745C101.563 147.739 101.563 147.734 101.563 147.728C101.563 147.722 101.563 147.717 101.563 147.711C101.563 147.706 101.563 147.7 101.563 147.695C101.563 147.689 101.563 147.684 101.563 147.678C101.563 147.673 101.563 147.667 101.563 147.662C101.563 147.656 101.563 147.651 101.563 147.645C101.563 147.64 101.563 147.635 101.563 147.629C101.563 147.624 101.563 147.618 101.563 147.613C101.563 147.608 101.563 147.602 101.563 147.597C101.563 147.592 101.563 147.586 101.563 147.581C101.563 147.576 101.563 147.57 101.563 147.565C101.563 147.56 101.563 147.555 101.563 147.549C101.563 147.544 101.563 147.539 101.563 147.534C101.563 147.528 101.563 147.523 101.563 147.518C101.563 147.513 101.563 147.508 101.563 147.502C101.563 147.497 101.563 147.492 101.563 147.487C101.563 147.482 101.563 147.477 101.563 147.472C101.563 147.467 101.563 147.461 101.563 147.456C101.563 147.451 101.563 147.446 101.563 147.441C101.563 147.436 101.563 147.431 101.563 147.426C101.563 147.421 101.563 147.416 101.563 147.411C101.563 147.406 101.563 147.401 101.563 147.396C101.563 147.391 101.563 147.386 101.563 147.381C101.563 147.376 101.563 147.372 101.563 147.367C101.563 147.362 101.563 147.357 101.563 147.352C101.563 147.347 101.563 147.342 101.563 147.338C101.563 147.333 101.563 147.328 101.563 147.323C101.563 147.318 101.563 147.313 101.563 147.309C101.563 147.304 101.563 147.299 101.563 147.294C101.563 147.29 101.563 147.285 101.563 147.28C101.563 147.276 101.563 147.271 101.563 147.266C101.563 147.262 101.563 147.257 101.563 147.252C101.563 147.248 101.563 147.243 101.563 147.238C101.563 147.234 101.563 147.229 101.563 147.224C101.563 147.22 101.563 147.215 101.563 147.211C101.563 147.206 101.563 147.202 101.563 147.197C101.563 147.193 101.563 147.188 101.563 147.184C101.563 147.179 101.563 147.175 101.563 147.17C101.563 147.166 101.563 147.161 101.563 147.157C101.563 147.152 101.563 147.148 101.563 147.144C101.563 147.139 101.563 147.135 101.563 147.13C101.563 147.126 101.563 147.122 101.563 147.117C101.563 147.113 101.563 147.109 101.563 147.104C101.563 147.1 101.563 147.096 101.563 147.091C101.563 147.087 101.563 147.083 101.563 147.079C101.563 147.074 101.563 147.07 101.563 147.066C101.563 147.062 101.563 147.058 101.563 147.053C101.563 147.049 101.563 147.045 101.563 147.041C101.563 147.037 101.563 147.033 101.563 147.028C101.563 147.024 101.563 147.02 101.563 147.016C101.563 147.012 101.563 147.008 101.563 147.004C101.563 147 101.563 146.996 101.563 146.992C101.563 146.988 101.563 146.984 101.563 146.98C101.563 146.976 101.563 146.972 101.563 146.968C101.563 146.964 101.563 146.96 101.563 146.956C101.563 146.952 101.563 146.948 101.563 146.944C101.563 146.94 101.563 146.936 101.563 146.933C101.563 146.929 101.563 146.925 101.563 146.921C101.563 146.917 101.563 146.913 101.563 146.91C101.563 146.906 101.563 146.902 101.563 146.898C101.563 146.894 101.563 146.891 101.563 146.887C101.563 146.883 101.563 146.879 101.563 146.876C101.563 146.872 101.563 146.868 101.563 146.865C101.563 146.861 101.563 146.857 101.563 146.854C101.563 146.85 101.563 146.846 101.563 146.843C101.563 146.839 101.563 146.836 101.563 146.832C101.563 146.828 101.563 146.825 101.563 146.821C101.563 146.818 101.563 146.814 101.563 146.811C101.563 146.807 101.563 146.804 101.563 146.8C101.563 146.797 101.563 146.793 101.563 146.79C101.563 146.786 101.563 146.783 101.563 146.78C101.563 146.776 101.563 146.773 101.563 146.769C101.563 146.766 101.563 146.763 101.563 146.759C101.563 146.756 101.563 146.753 101.563 146.749C101.563 146.746 101.563 146.743 101.563 146.739C101.563 146.736 101.563 146.733 101.563 146.729C101.563 146.726 101.563 146.723 101.563 146.72C101.563 146.717 101.563 146.713 101.563 146.71C101.563 146.707 101.563 146.704 101.563 146.701C101.563 146.697 101.563 146.694 101.563 146.691C101.563 146.688 101.563 146.685 101.563 146.682C101.563 146.679 101.563 146.676 101.563 146.673C101.563 146.67 101.563 146.667 101.563 146.664C101.563 146.66 101.563 146.657 101.563 146.654C101.563 146.652 101.563 146.649 101.563 146.646C101.563 146.643 101.563 146.64 101.563 146.637C101.563 146.634 101.563 146.631 101.563 146.628C101.563 146.625 101.563 146.622 101.563 146.619C101.563 146.617 101.563 146.614 101.563 146.611C101.563 146.608 101.563 146.605 101.563 146.602C101.563 146.6 101.563 146.597 101.563 146.594C101.563 146.591 101.563 146.589 101.563 146.586C101.563 146.583 101.563 146.58 101.563 146.578C101.563 146.575 101.563 146.572 101.563 146.57C101.563 146.567 101.563 146.564 101.563 146.562C101.563 146.559 101.563 146.557 101.563 146.554C101.563 146.551 101.563 146.549 101.563 146.546C101.563 146.544 101.563 146.541 101.563 146.539C101.563 146.536 101.563 146.534 101.563 146.531C101.563 146.529 101.563 146.526 101.563 146.524C101.563 146.521 101.563 146.519 101.563 146.516C101.563 146.514 101.563 146.512 101.563 146.509C101.563 146.507 101.563 146.504 101.563 146.502C101.563 146.5 101.563 146.497 101.563 146.495C101.563 146.493 101.563 146.49 101.563 146.488C101.563 146.486 101.563 146.484 101.563 146.481C101.563 146.479 101.563 146.477 101.563 146.475C101.563 146.472 101.563 146.47 101.563 146.468C101.563 146.466 101.563 146.464 101.563 146.462C101.563 146.459 101.563 146.457 101.563 146.455C101.563 146.453 101.563 146.451 101.563 146.449C101.563 146.447 101.563 146.445 101.563 146.443C101.563 146.441 101.563 146.439 101.563 146.437C101.563 146.435 101.563 146.433 101.563 146.431C101.563 146.429 101.563 146.427 101.563 146.425C101.563 146.423 101.563 146.421 101.563 146.419C101.563 146.417 101.563 146.415 101.563 146.413C101.563 146.411 101.563 146.41 101.563 146.408C101.563 146.406 101.563 146.404 101.563 146.402C101.563 146.4 101.563 146.399 101.563 146.397C101.563 146.395 101.563 146.393 101.563 146.392C101.563 146.39 101.563 146.388 101.563 146.387C101.563 146.385 101.563 146.383 101.563 146.381C101.563 146.38 101.563 146.378 101.563 146.377C101.563 146.375 101.563 146.373 101.563 146.372C101.563 146.37 101.563 146.369 101.563 146.367C101.563 146.365 101.563 146.364 101.563 146.362C101.563 146.361 101.563 146.359 101.563 146.358C101.563 146.356 101.563 146.355 101.563 146.353C101.563 146.352 101.563 146.351 101.563 146.349C101.563 146.348 101.563 146.346 101.563 146.345C101.563 146.344 101.563 146.342 101.563 146.341C101.563 146.34 101.563 146.338 101.563 146.337C101.563 146.336 101.563 146.334 101.563 146.333C101.563 146.332 101.563 146.33 101.563 146.329C101.563 146.328 101.563 146.327 101.563 146.326C101.563 146.324 101.563 146.323 101.563 146.322C101.563 146.321 101.563 146.32 101.563 146.319C101.563 146.317 101.563 146.316 101.563 146.315C101.563 146.314 101.563 146.313 101.563 146.312C101.563 146.311 101.563 146.31 101.563 146.309C101.563 146.308 101.563 146.307 101.563 146.306C101.563 146.305 101.563 146.304 101.563 146.303C101.563 146.302 101.563 146.301 101.563 146.3C101.563 146.299 101.563 146.298 101.563 146.297C101.563 146.297 101.563 146.296 101.563 146.295C101.563 146.294 101.563 146.293 101.563 146.292C101.563 146.292 101.563 146.291 101.563 146.29C101.563 146.289 101.563 146.288 101.563 146.288C101.563 146.287 101.563 146.286 101.563 146.286C101.563 146.285 101.563 146.284 101.563 146.284C101.563 146.283 101.563 146.282 101.563 146.282C101.563 146.281 101.563 146.28 101.563 146.28C101.563 146.279 101.563 146.279 101.563 146.278C101.563 146.278 101.563 146.277 101.563 146.276C101.563 146.276 101.563 146.275 101.563 146.275C101.563 146.274 101.563 146.274 101.563 146.274C101.563 146.273 101.563 146.273 101.563 146.272C101.563 146.272 101.563 146.271 101.563 146.271C101.563 146.271 101.563 146.27 101.563 146.27C101.563 146.27 101.563 146.269 101.563 146.269C101.563 146.269 101.563 146.269 101.563 146.268C101.563 146.268 101.563 146.268 101.563 146.268C101.563 146.267 101.563 146.267 101.563 146.267C101.563 146.267 101.563 146.267 101.563 146.266C101.563 146.266 101.563 146.266 101.563 146.266C101.563 146.266 101.563 146.266 101.563 146.266C101.563 146.266 101.563 146.266 101.563 146.266C101.563 146.266 101.563 146.266 99.5633 146.266C97.5633 146.266 97.5633 146.266 97.5633 146.266C97.5633 146.266 97.5633 146.266 97.5633 146.266C97.5633 146.266 97.5633 146.266 97.5633 146.266C97.5633 146.266 97.5633 146.266 97.5633 146.266C97.5633 146.267 97.5633 146.267 97.5633 146.267C97.5633 146.267 97.5633 146.267 97.5633 146.268C97.5633 146.268 97.5633 146.268 97.5633 146.268C97.5633 146.269 97.5633 146.269 97.5633 146.269C97.5633 146.269 97.5633 146.27 97.5633 146.27C97.5633 146.27 97.5633 146.271 97.5633 146.271C97.5633 146.271 97.5633 146.272 97.5633 146.272C97.5633 146.273 97.5633 146.273 97.5633 146.274C97.5633 146.274 97.5633 146.274 97.5633 146.275C97.5633 146.275 97.5633 146.276 97.5633 146.276C97.5633 146.277 97.5633 146.278 97.5633 146.278C97.5633 146.279 97.5633 146.279 97.5633 146.28C97.5633 146.28 97.5633 146.281 97.5633 146.282C97.5633 146.282 97.5633 146.283 97.5633 146.284C97.5633 146.284 97.5633 146.285 97.5633 146.286C97.5633 146.286 97.5633 146.287 97.5633 146.288C97.5633 146.288 97.5633 146.289 97.5633 146.29C97.5633 146.291 97.5633 146.292 97.5633 146.292C97.5633 146.293 97.5633 146.294 97.5633 146.295C97.5633 146.296 97.5633 146.297 97.5633 146.297C97.5633 146.298 97.5633 146.299 97.5633 146.3C97.5633 146.301 97.5633 146.302 97.5633 146.303C97.5633 146.304 97.5633 146.305 97.5633 146.306C97.5633 146.307 97.5633 146.308 97.5633 146.309C97.5633 146.31 97.5633 146.311 97.5633 146.312C97.5633 146.313 97.5633 146.314 97.5633 146.315C97.5633 146.316 97.5633 146.317 97.5633 146.319C97.5633 146.32 97.5633 146.321 97.5633 146.322C97.5633 146.323 97.5633 146.324 97.5633 146.326C97.5633 146.327 97.5633 146.328 97.5633 146.329C97.5633 146.33 97.5633 146.332 97.5633 146.333C97.5633 146.334 97.5633 146.336 97.5633 146.337C97.5633 146.338 97.5633 146.34 97.5633 146.341C97.5633 146.342 97.5633 146.344 97.5633 146.345C97.5633 146.346 97.5633 146.348 97.5633 146.349C97.5633 146.351 97.5633 146.352 97.5633 146.353C97.5633 146.355 97.5633 146.356 97.5633 146.358C97.5633 146.359 97.5633 146.361 97.5633 146.362C97.5633 146.364 97.5633 146.365 97.5633 146.367C97.5633 146.369 97.5633 146.37 97.5633 146.372C97.5633 146.373 97.5633 146.375 97.5633 146.377C97.5633 146.378 97.5633 146.38 97.5633 146.381C97.5633 146.383 97.5633 146.385 97.5633 146.387C97.5633 146.388 97.5633 146.39 97.5633 146.392C97.5633 146.393 97.5633 146.395 97.5633 146.397C97.5633 146.399 97.5633 146.4 97.5633 146.402C97.5633 146.404 97.5633 146.406 97.5633 146.408C97.5633 146.41 97.5633 146.411 97.5633 146.413C97.5633 146.415 97.5633 146.417 97.5633 146.419C97.5633 146.421 97.5633 146.423 97.5633 146.425C97.5633 146.427 97.5633 146.429 97.5633 146.431C97.5633 146.433 97.5633 146.435 97.5633 146.437C97.5633 146.439 97.5633 146.441 97.5633 146.443C97.5633 146.445 97.5633 146.447 97.5633 146.449C97.5633 146.451 97.5633 146.453 97.5633 146.455C97.5633 146.457 97.5633 146.459 97.5633 146.462C97.5633 146.464 97.5633 146.466 97.5633 146.468C97.5633 146.47 97.5633 146.472 97.5633 146.475C97.5633 146.477 97.5633 146.479 97.5633 146.481C97.5633 146.484 97.5633 146.486 97.5633 146.488C97.5633 146.49 97.5633 146.493 97.5633 146.495C97.5633 146.497 97.5633 146.5 97.5633 146.502C97.5633 146.504 97.5633 146.507 97.5633 146.509C97.5633 146.512 97.5633 146.514 97.5633 146.516C97.5633 146.519 97.5633 146.521 97.5633 146.524C97.5633 146.526 97.5633 146.529 97.5633 146.531C97.5633 146.534 97.5633 146.536 97.5633 146.539C97.5633 146.541 97.5633 146.544 97.5633 146.546C97.5633 146.549 97.5633 146.551 97.5633 146.554C97.5633 146.557 97.5633 146.559 97.5633 146.562C97.5633 146.564 97.5633 146.567 97.5633 146.57C97.5633 146.572 97.5633 146.575 97.5633 146.578C97.5633 146.58 97.5633 146.583 97.5633 146.586C97.5633 146.589 97.5633 146.591 97.5633 146.594C97.5633 146.597 97.5633 146.6 97.5633 146.602C97.5633 146.605 97.5633 146.608 97.5633 146.611C97.5633 146.614 97.5633 146.617 97.5633 146.619C97.5633 146.622 97.5633 146.625 97.5633 146.628C97.5633 146.631 97.5633 146.634 97.5633 146.637C97.5633 146.64 97.5633 146.643 97.5633 146.646C97.5633 146.649 97.5633 146.652 97.5633 146.654C97.5633 146.657 97.5633 146.66 97.5633 146.664C97.5633 146.667 97.5633 146.67 97.5633 146.673C97.5633 146.676 97.5633 146.679 97.5633 146.682C97.5633 146.685 97.5633 146.688 97.5633 146.691C97.5633 146.694 97.5633 146.697 97.5633 146.701C97.5633 146.704 97.5633 146.707 97.5633 146.71C97.5633 146.713 97.5633 146.717 97.5633 146.72C97.5633 146.723 97.5633 146.726 97.5633 146.729C97.5633 146.733 97.5633 146.736 97.5633 146.739C97.5633 146.743 97.5633 146.746 97.5633 146.749C97.5633 146.753 97.5633 146.756 97.5633 146.759C97.5633 146.763 97.5633 146.766 97.5633 146.769C97.5633 146.773 97.5633 146.776 97.5633 146.78C97.5633 146.783 97.5633 146.786 97.5633 146.79C97.5633 146.793 97.5633 146.797 97.5633 146.8C97.5633 146.804 97.5633 146.807 97.5633 146.811C97.5633 146.814 97.5633 146.818 97.5633 146.821C97.5633 146.825 97.5633 146.828 97.5633 146.832C97.5633 146.836 97.5633 146.839 97.5633 146.843C97.5633 146.846 97.5633 146.85 97.5633 146.854C97.5633 146.857 97.5633 146.861 97.5633 146.865C97.5633 146.868 97.5633 146.872 97.5633 146.876C97.5633 146.879 97.5633 146.883 97.5633 146.887C97.5633 146.891 97.5633 146.894 97.5633 146.898C97.5633 146.902 97.5633 146.906 97.5633 146.91C97.5633 146.913 97.5633 146.917 97.5633 146.921C97.5633 146.925 97.5633 146.929 97.5633 146.933C97.5633 146.936 97.5633 146.94 97.5633 146.944C97.5633 146.948 97.5633 146.952 97.5633 146.956C97.5633 146.96 97.5633 146.964 97.5633 146.968C97.5633 146.972 97.5633 146.976 97.5633 146.98C97.5633 146.984 97.5633 146.988 97.5633 146.992C97.5633 146.996 97.5633 147 97.5633 147.004C97.5633 147.008 97.5633 147.012 97.5633 147.016C97.5633 147.02 97.5633 147.024 97.5633 147.028C97.5633 147.033 97.5633 147.037 97.5633 147.041C97.5633 147.045 97.5633 147.049 97.5633 147.053C97.5633 147.058 97.5633 147.062 97.5633 147.066C97.5633 147.07 97.5633 147.074 97.5633 147.079C97.5633 147.083 97.5633 147.087 97.5633 147.091C97.5633 147.096 97.5633 147.1 97.5633 147.104C97.5633 147.109 97.5633 147.113 97.5633 147.117C97.5633 147.122 97.5633 147.126 97.5633 147.13C97.5633 147.135 97.5633 147.139 97.5633 147.144C97.5633 147.148 97.5633 147.152 97.5633 147.157C97.5633 147.161 97.5633 147.166 97.5633 147.17C97.5633 147.175 97.5633 147.179 97.5633 147.184C97.5633 147.188 97.5633 147.193 97.5633 147.197C97.5633 147.202 97.5633 147.206 97.5633 147.211C97.5633 147.215 97.5633 147.22 97.5633 147.224C97.5633 147.229 97.5633 147.234 97.5633 147.238C97.5633 147.243 97.5633 147.248 97.5633 147.252C97.5633 147.257 97.5633 147.261 97.5633 147.266C97.5633 147.271 97.5633 147.276 97.5633 147.28C97.5633 147.285 97.5633 147.29 97.5633 147.294C97.5633 147.299 97.5633 147.304 97.5633 147.309C97.5633 147.313 97.5633 147.318 97.5633 147.323C97.5633 147.328 97.5633 147.333 97.5633 147.338C97.5633 147.342 97.5633 147.347 97.5633 147.352C97.5633 147.357 97.5633 147.362 97.5633 147.367C97.5633 147.372 97.5633 147.376 97.5633 147.381C97.5633 147.386 97.5633 147.391 97.5633 147.396C97.5633 147.401 97.5633 147.406 97.5633 147.411C97.5633 147.416 97.5633 147.421 97.5633 147.426C97.5633 147.431 97.5633 147.436 97.5633 147.441C97.5633 147.446 97.5633 147.451 97.5633 147.456C97.5633 147.461 97.5633 147.467 97.5633 147.472C97.5633 147.477 97.5633 147.482 97.5633 147.487C97.5633 147.492 97.5633 147.497 97.5633 147.502C97.5633 147.508 97.5633 147.513 97.5633 147.518C97.5633 147.523 97.5633 147.528 97.5633 147.534C97.5633 147.539 97.5633 147.544 97.5633 147.549C97.5633 147.555 97.5633 147.56 97.5633 147.565C97.5633 147.57 97.5633 147.576 97.5633 147.581C97.5633 147.586 97.5633 147.592 97.5633 147.597C97.5633 147.602 97.5633 147.608 97.5633 147.613C97.5633 147.618 97.5633 147.624 97.5633 147.629C97.5633 147.635 97.5633 147.64 97.5633 147.645C97.5633 147.651 97.5633 147.656 97.5633 147.662C97.5633 147.667 97.5633 147.673 97.5633 147.678C97.5633 147.684 97.5633 147.689 97.5633 147.695C97.5633 147.7 97.5633 147.706 97.5633 147.711C97.5633 147.717 97.5633 147.722 97.5633 147.728C97.5633 147.733 97.5633 147.739 97.5633 147.745C97.5633 147.75 97.5633 147.756 97.5633 147.762C97.5633 147.767 97.5633 147.773 97.5633 147.778C97.5633 147.784 97.5633 147.79 97.5633 147.796C97.5633 147.801 97.5633 147.807 97.5633 147.813C97.5633 147.818 97.5633 147.824 97.5633 147.83C97.5633 147.836 97.5633 147.841 97.5633 147.847C97.5633 147.853 97.5633 147.859 97.5633 147.864C97.5633 147.87 97.5633 147.876 97.5633 147.882C97.5633 147.888 97.5633 147.894 97.5633 147.899C97.5633 147.905 97.5633 147.911 97.5633 147.917C97.5633 147.923 97.5633 147.929 97.5633 147.935C97.5633 147.941 97.5633 147.947 97.5633 147.953C97.5633 147.959 97.5633 147.965 97.5633 147.971C97.5633 147.977 97.5633 147.982 97.5633 147.989C97.5633 147.995 97.5633 148.001 97.5633 148.007C97.5633 148.013 97.5633 148.019 97.5633 148.025C97.5633 148.031 97.5633 148.037 97.5633 148.043C97.5633 148.049 97.5633 148.055 97.5633 148.061C97.5633 148.067 97.5633 148.073 97.5633 148.08C97.5633 148.086 97.5633 148.092 97.5633 148.098C97.5633 148.104 97.5633 148.11 97.5633 148.117C97.5633 148.123 97.5633 148.129 97.5633 148.135C97.5633 148.142 97.5633 148.148 97.5633 148.154C97.5633 148.16 97.5633 148.167 97.5633 148.173C97.5633 148.179 97.5633 148.185 97.5633 148.192C97.5633 148.198 97.5633 148.204 97.5633 148.211C97.5633 148.217 97.5633 148.223 97.5633 148.23C97.5633 148.236 97.5633 148.243 97.5633 148.249C97.5633 148.255 97.5633 148.262 97.5633 148.268C97.5633 148.275 97.5633 148.281 97.5633 148.288C97.5633 148.294 97.5633 148.3 97.5633 148.307C97.5633 148.313 97.5633 148.32 97.5633 148.326C97.5633 148.333 97.5633 148.339 97.5633 148.346C97.5633 148.353 97.5633 148.359 97.5633 148.366C97.5633 148.372 97.5633 148.379 97.5633 148.385C97.5633 148.392 97.5633 148.399 97.5633 148.405C97.5633 148.412 97.5633 148.418 97.5633 148.425C97.5633 148.432 97.5633 148.438 97.5633 148.445C97.5633 148.452 97.5633 148.458 97.5633 148.465C97.5633 148.472 97.5633 148.479 97.5633 148.485C97.5633 148.492 97.5633 148.499 97.5633 148.505C97.5633 148.512 97.5633 148.519 97.5633 148.526C97.5633 148.533 97.5633 148.539 97.5633 148.546C97.5633 148.553 97.5633 148.56 97.5633 148.567C97.5633 148.573 97.5633 148.58 97.5633 148.587C97.5633 148.594 97.5633 148.601 97.5633 148.608C97.5633 148.615 97.5633 148.622 97.5633 148.628C97.5633 148.635 97.5633 148.642 97.5633 148.649C97.5633 148.656 97.5633 148.663 97.5633 148.67C97.5633 148.677 97.5633 148.684 97.5633 148.691C97.5633 148.698 97.5633 148.705 97.5633 148.712C97.5633 148.719 97.5633 148.726 97.5633 148.733C97.5633 148.74 97.5633 148.747 97.5633 148.754C97.5633 148.761 97.5633 148.769 97.5633 148.776C97.5633 148.783 97.5633 148.79 97.5633 148.797C97.5633 148.804 97.5633 148.811 97.5633 148.818C97.5633 148.826 97.5633 148.833 97.5633 148.84C97.5633 148.847 97.5633 148.854 97.5633 148.861C97.5633 148.869 97.5633 148.876 97.5633 148.883C97.5633 148.89 97.5633 148.898 97.5633 148.905C97.5633 148.912 97.5633 148.919 97.5633 148.927C97.5633 148.934 97.5633 148.941 97.5633 148.949C97.5633 148.956 97.5633 148.963 97.5633 148.971C97.5633 148.978 97.5633 148.985 97.5633 148.993C97.5633 149 97.5633 149.007 97.5633 149.015C97.5633 149.022 97.5633 149.03 97.5633 149.037C97.5633 149.044 97.5633 149.052 97.5633 149.059C97.5633 149.067 97.5633 149.074 97.5633 149.082C97.5633 149.089 97.5633 149.097 97.5633 149.104C97.5633 149.111 97.5633 149.119 97.5633 149.127C97.5633 149.134 97.5633 149.142 97.5633 149.149C97.5633 149.157 97.5633 149.164 97.5633 149.172C97.5633 149.179 97.5633 149.187 97.5633 149.195C97.5633 149.202 97.5633 149.21 97.5633 149.217C97.5633 149.225 97.5633 149.233 97.5633 149.24C97.5633 149.248 97.5633 149.256 97.5633 149.263C97.5633 149.271 97.5633 149.279 97.5633 149.286C97.5633 149.294 97.5633 149.302 97.5633 149.309C97.5633 149.317 97.5633 149.325 97.5633 149.333C97.5633 149.34 97.5633 149.348 97.5633 149.356C97.5633 149.364 97.5633 149.371 97.5633 149.379C97.5633 149.387 97.5633 149.395 97.5633 149.403C97.5633 149.41 97.5633 149.418 97.5633 149.426C97.5633 149.434 97.5633 149.442 97.5633 149.45C97.5633 149.458 97.5633 149.465 97.5633 149.473C97.5633 149.481 97.5633 149.489 97.5633 149.497C97.5633 149.505 97.5633 149.513 97.5633 149.521C97.5633 149.529 97.5633 149.537 97.5633 149.545C97.5633 149.553 97.5633 149.561 97.5633 149.569C97.5633 149.577 97.5633 149.585 97.5633 149.593C97.5633 149.601 97.5633 149.609 97.5633 149.617C97.5633 149.625 97.5633 149.633 97.5633 149.641C97.5633 149.649 97.5633 149.657 97.5633 149.665C97.5633 149.673 97.5633 149.681 97.5633 149.69C97.5633 149.698 97.5633 149.706 97.5633 149.714C97.5633 149.722 97.5633 149.73 97.5633 149.738C97.5633 149.747 97.5633 149.755 97.5633 149.763C97.5633 149.771 97.5633 149.779 97.5633 149.788C97.5633 149.796 97.5633 149.804 97.5633 149.812C97.5633 149.821 97.5633 149.829 97.5633 149.837C97.5633 149.845 97.5633 149.854 97.5633 149.862C97.5633 149.87 97.5633 149.878 97.5633 149.887C97.5633 149.895 97.5633 149.903 97.5633 149.912C97.5633 149.92 97.5633 149.928 97.5633 149.937C97.5633 149.945 97.5633 149.954 97.5633 149.962C97.5633 149.97 97.5633 149.979 97.5633 149.987C97.5633 149.995 97.5633 150.004 97.5633 150.012C97.5633 150.021 97.5633 150.029 97.5633 150.038C97.5633 150.046 97.5633 150.055 97.5633 150.063C97.5633 150.072 97.5633 150.08 97.5633 150.089C97.5633 150.097 97.5633 150.106 97.5633 150.114C97.5633 150.123 97.5633 150.131 97.5633 150.14C97.5633 150.148 97.5633 150.157 97.5633 150.165C97.5633 150.174 97.5633 150.183 97.5633 150.191C97.5633 150.2 97.5633 150.208 97.5633 150.217C97.5633 150.226 97.5633 150.234 97.5633 150.243C97.5633 150.252 97.5633 150.26 97.5633 150.269C97.5633 150.278 97.5633 150.286 97.5633 150.295C97.5633 150.304 97.5633 150.312 97.5633 150.321C97.5633 150.33 97.5633 150.338 97.5633 150.347C97.5633 150.356 97.5633 150.365 97.5633 150.373C97.5633 150.382 97.5633 150.391 97.5633 150.4C97.5633 150.409 97.5633 150.417 97.5633 150.426C97.5633 150.435 97.5633 150.444 97.5633 150.453C97.5633 150.461 97.5633 150.47 97.5633 150.479C97.5633 150.488 97.5633 150.497 97.5633 150.506C97.5633 150.515 97.5633 150.524 97.5633 150.532C97.5633 150.541 97.5633 150.55 97.5633 150.559C97.5633 150.568 97.5633 150.577 97.5633 150.586C97.5633 150.595 97.5633 150.604 97.5633 150.613C97.5633 150.622 97.5633 150.631 97.5633 150.64C97.5633 150.649 97.5633 150.658 97.5633 150.667C97.5633 150.676 97.5633 150.685 97.5633 150.694C97.5633 150.703 97.5633 150.712 97.5633 150.721C97.5633 150.73 97.5633 150.739 97.5633 150.748C97.5633 150.757 97.5633 150.766 97.5633 150.775C97.5633 150.785 97.5633 150.794 97.5633 150.803C97.5633 150.812 97.5633 150.821 97.5633 150.83C97.5633 150.839 97.5633 150.849 97.5633 150.858C97.5633 150.867 97.5633 150.876 97.5633 150.885C97.5633 150.894 97.5633 150.904 97.5633 150.913C97.5633 150.922 97.5633 150.931 97.5633 150.941C97.5633 150.95 97.5633 150.959 97.5633 150.968C97.5633 150.978 97.5633 150.987 97.5633 150.996C97.5633 151.005 97.5633 151.015 97.5633 151.024C97.5633 151.033 97.5633 151.043 97.5633 151.052C97.5633 151.061 97.5633 151.071 97.5633 151.08C97.5633 151.089 97.5633 151.099 97.5633 151.108C97.5633 151.117 97.5633 151.127 97.5633 151.136C97.5633 151.146 97.5633 151.155 97.5633 151.164C97.5633 151.174 97.5633 151.183 97.5633 151.193C97.5633 151.202 97.5633 151.211 97.5633 151.221C97.5633 151.23 97.5633 151.24 97.5633 151.249C97.5633 151.259 97.5633 151.268 97.5633 151.278C97.5633 151.287 97.5633 151.297 97.5633 151.306C97.5633 151.316 97.5633 151.325 97.5633 151.335C97.5633 151.344 97.5633 151.354 97.5633 151.364C97.5633 151.373 97.5633 151.383 97.5633 151.392C97.5633 151.402 97.5633 151.412 97.5633 151.421C97.5633 151.431 97.5633 151.44 97.5633 151.45C97.5633 151.46 97.5633 151.469 97.5633 151.479C97.5633 151.489 97.5633 151.498 97.5633 151.508C97.5633 151.518 97.5633 151.527 97.5633 151.537C97.5633 151.547 97.5633 151.556 97.5633 151.566C97.5633 151.576 97.5633 151.585 97.5633 151.595C97.5633 151.605 97.5633 151.615 97.5633 151.624C97.5633 151.634 97.5633 151.644 97.5633 151.654C97.5633 151.663 97.5633 151.673 97.5633 151.683C97.5633 151.693 97.5633 151.703 97.5633 151.712C97.5633 151.722 97.5633 151.732 97.5633 151.742C97.5633 151.752 97.5633 151.762 97.5633 151.772C97.5633 151.781 97.5633 151.791 97.5633 151.801C97.5633 151.811 97.5633 151.821 97.5633 151.831C97.5633 151.841 97.5633 151.851 97.5633 151.861C97.5633 151.87 97.5633 151.88 97.5633 151.89C97.5633 151.9 97.5633 151.91 97.5633 151.92C97.5633 151.93 97.5633 151.94 97.5633 151.95C97.5633 151.96 97.5633 151.97 97.5633 151.98C97.5633 151.99 97.5633 152 97.5633 152.01C97.5633 152.02 97.5633 152.03 97.5633 152.04C97.5633 152.05 97.5633 152.06 97.5633 152.07C97.5633 152.08 97.5633 152.09 97.5633 152.101C97.5633 152.111 97.5633 152.121 97.5633 152.131C97.5633 152.141 97.5633 152.151 97.5633 152.161C97.5633 152.171 97.5633 152.181 97.5633 152.192C97.5633 152.202 97.5633 152.212 97.5633 152.222C97.5633 152.232 97.5633 152.242 97.5633 152.253C97.5633 152.263 97.5633 152.273 97.5633 152.283C97.5633 152.293 97.5633 152.304 97.5633 152.314C97.5633 152.324 97.5633 152.334 97.5633 152.345C97.5633 152.355 97.5633 152.365 97.5633 152.375C97.5633 152.386 97.5633 152.396 97.5633 152.406C97.5633 152.416 97.5633 152.427 97.5633 152.437C97.5633 152.447 97.5633 152.458 97.5633 152.468C97.5633 152.478 97.5633 152.489 97.5633 152.499C97.5633 152.509 97.5633 152.52 97.5633 152.53C97.5633 152.54 97.5633 152.551 97.5633 152.561C97.5633 152.571 97.5633 152.582 97.5633 152.592C97.5633 152.603 97.5633 152.613 97.5633 152.623C97.5633 152.634 97.5633 152.644 97.5633 152.655C97.5633 152.665 97.5633 152.676 97.5633 152.686C97.5633 152.697 97.5633 152.707 97.5633 152.718C97.5633 152.728 97.5633 152.738 97.5633 152.749C97.5633 152.759 97.5633 152.77 97.5633 152.78C97.5633 152.791 97.5633 152.802 97.5633 152.812C97.5633 152.823 97.5633 152.833 97.5633 152.844C97.5633 152.854 97.5633 152.865 97.5633 152.875C97.5633 152.886 97.5633 152.897 97.5633 152.907C97.5633 152.918 97.5633 152.928 97.5633 152.939C97.5633 152.95 97.5633 152.96 97.5633 152.971C97.5633 152.981 97.5633 152.992 97.5633 153.003C97.5633 153.013 97.5633 153.024 97.5633 153.035C97.5633 153.045 97.5633 153.056 97.5633 153.067C97.5633 153.077 97.5633 153.088 97.5633 153.099C97.5633 153.11 97.5633 153.12 97.5633 153.131C97.5633 153.142 97.5633 153.152 97.5633 153.163C97.5633 153.174 97.5633 153.185 97.5633 153.195C97.5633 153.206 97.5633 153.217 97.5633 153.228C97.5633 153.239 97.5633 153.249 97.5633 153.26C97.5633 153.271 97.5633 153.282 97.5633 153.293C97.5633 153.303 97.5633 153.314 97.5633 153.325C97.5633 153.336 97.5633 153.347 97.5633 153.358C97.5633 153.368 97.5633 153.379 97.5633 153.39C97.5633 153.401 97.5633 153.412 97.5633 153.423C97.5633 153.434 97.5633 153.445 97.5633 153.455C97.5633 153.466 97.5633 153.477 97.5633 153.488C97.5633 153.499 97.5633 153.51 97.5633 153.521C97.5633 153.532 97.5633 153.543 97.5633 153.554C97.5633 153.565 97.5633 153.576 97.5633 153.587C97.5633 153.598 97.5633 153.609 97.5633 153.62C97.5633 153.631 97.5633 153.642 97.5633 153.653C97.5633 153.664 97.5633 153.675 97.5633 153.686C97.5633 153.697 97.5633 153.708 97.5633 153.719C97.5633 153.73 97.5633 153.741 97.5633 153.752C97.5633 153.763 97.5633 153.774 97.5633 153.785C97.5633 153.796 97.5633 153.808 97.5633 153.819C97.5633 153.83 97.5633 153.841 97.5633 153.852C97.5633 153.863 97.5633 153.874 97.5633 153.885C97.5633 153.896 97.5633 153.908 97.5633 153.919C97.5633 153.93 97.5633 153.941 97.5633 153.952C97.5633 153.963 97.5633 153.975 97.5633 153.986C97.5633 153.997 97.5633 154.008 97.5633 154.019C97.5633 154.031 97.5633 154.042 97.5633 154.053C97.5633 154.064 97.5633 154.076 97.5633 154.087C97.5633 154.098 97.5633 154.109 97.5633 154.121C97.5633 154.132 97.5633 154.143 97.5633 154.154C97.5633 154.166 97.5633 154.177 97.5633 154.188C97.5633 154.199 97.5633 154.211 97.5633 154.222C97.5633 154.233 97.5633 154.245 97.5633 154.256C97.5633 154.267 97.5633 154.279 97.5633 154.29C97.5633 154.301 97.5633 154.313 97.5633 154.324C97.5633 154.335 97.5633 154.347 97.5633 154.358C97.5633 154.37 97.5633 154.381 97.5633 154.392C97.5633 154.404 97.5633 154.415 97.5633 154.427C97.5633 154.438 97.5633 154.449 97.5633 154.461C97.5633 154.472 97.5633 154.484 97.5633 154.495C97.5633 154.507 97.5633 154.518 97.5633 154.53C97.5633 154.541 97.5633 154.552 97.5633 154.564C97.5633 154.575 97.5633 154.587 97.5633 154.598C97.5633 154.61 97.5633 154.621 97.5633 154.633C97.5633 154.644 97.5633 154.656 97.5633 154.667C97.5633 154.679 97.5633 154.691 97.5633 154.702C97.5633 154.714 97.5633 154.725 97.5633 154.737C97.5633 154.748 97.5633 154.76 97.5633 154.771C97.5633 154.783 97.5633 154.795 97.5633 154.806C97.5633 154.818 97.5633 154.829 97.5633 154.841C97.5633 154.853 97.5633 154.864 97.5633 154.876C97.5633 154.887 97.5633 154.899 97.5633 154.911C97.5633 154.922 97.5633 154.934 97.5633 154.946C97.5633 154.957 97.5633 154.969 97.5633 154.981C97.5633 154.992 97.5633 155.004 97.5633 155.016C97.5633 155.027 97.5633 155.039 97.5633 155.051C97.5633 155.062 97.5633 155.074 97.5633 155.086C97.5633 155.098 97.5633 155.109 97.5633 155.121C97.5633 155.133 97.5633 155.145 97.5633 155.156C97.5633 155.168 97.5633 155.18 97.5633 155.192C97.5633 155.203 97.5633 155.215 97.5633 155.227C97.5633 155.239 97.5633 155.25 97.5633 155.262C97.5633 155.274 97.5633 155.286 97.5633 155.298C97.5633 155.31 97.5633 155.321 97.5633 155.333C97.5633 155.345 97.5633 155.357 97.5633 155.369C97.5633 155.381 97.5633 155.392 97.5633 155.404C97.5633 155.416 97.5633 155.428 97.5633 155.44C97.5633 155.452 97.5633 155.464 97.5633 155.475C97.5633 155.487 97.5633 155.499 97.5633 155.511C97.5633 155.523 97.5633 155.535 97.5633 155.547C97.5633 155.559 97.5633 155.571 97.5633 155.583C97.5633 155.595 97.5633 155.607 97.5633 155.619C97.5633 155.63 97.5633 155.642 97.5633 155.654C97.5633 155.666 97.5633 155.678 97.5633 155.69C97.5633 155.702 97.5633 155.714 97.5633 155.726C97.5633 155.738 97.5633 155.75 97.5633 155.762C97.5633 155.774 97.5633 155.786 97.5633 155.798C97.5633 155.81 97.5633 155.822 97.5633 155.834C97.5633 155.846 97.5633 155.859 97.5633 155.871C97.5633 155.883 97.5633 155.895 97.5633 155.907C97.5633 155.919 97.5633 155.931 97.5633 155.943C97.5633 155.955 97.5633 155.967 97.5633 155.979C97.5633 155.991 97.5633 156.003 97.5633 156.016C97.5633 156.028 97.5633 156.04 97.5633 156.052C97.5633 156.064 97.5633 156.076 97.5633 156.088C97.5633 156.101 97.5633 156.113 97.5633 156.125C97.5633 156.137 97.5633 156.149 97.5633 156.161C97.5633 156.173 97.5633 156.186 97.5633 156.198C97.5633 156.21 97.5633 156.222 97.5633 156.234C97.5633 156.247 97.5633 156.259 97.5633 156.271C97.5633 156.283 97.5633 156.295 97.5633 156.308C97.5633 156.32 97.5633 156.332 97.5633 156.344C97.5633 156.357 97.5633 156.369 97.5633 156.381C97.5633 156.393 97.5633 156.406 97.5633 156.418C97.5633 156.43 97.5633 156.442 97.5633 156.455C97.5633 156.467 97.5633 156.479 97.5633 156.492C97.5633 156.504 97.5633 156.516 97.5633 156.529C97.5633 156.541 97.5633 156.553 97.5633 156.566C97.5633 156.578 97.5633 156.59 97.5633 156.603C97.5633 156.615 97.5633 156.627 97.5633 156.64C97.5633 156.652 97.5633 156.664 97.5633 156.677C97.5633 156.689 97.5633 156.701 97.5633 156.714C97.5633 156.726 97.5633 156.739 97.5633 156.751C97.5633 156.763 97.5633 156.776 97.5633 156.788C97.5633 156.801 97.5633 156.813 97.5633 156.825C97.5633 156.838 97.5633 156.85 97.5633 156.863C97.5633 156.875 97.5633 156.888 97.5633 156.9C97.5633 156.912 97.5633 156.925 97.5633 156.937C97.5633 156.95 97.5633 156.962 97.5633 156.975C97.5633 156.987 97.5633 157 97.5633 157.012C97.5633 157.025 97.5633 157.037 97.5633 157.05C97.5633 157.062 97.5633 157.075 97.5633 157.087C97.5633 157.1 97.5633 157.112 97.5633 157.125C97.5633 157.137 97.5633 157.15 97.5633 157.162C97.5633 157.175 97.5633 157.187 97.5633 157.2C97.5633 157.212 97.5633 157.225 97.5633 157.238C97.5633 157.25 97.5633 157.263 97.5633 157.275C97.5633 157.288 97.5633 157.301 97.5633 157.313C97.5633 157.326 97.5633 157.338 97.5633 157.351C97.5633 157.363 97.5633 157.376 97.5633 157.389C97.5633 157.401 97.5633 157.414 97.5633 157.427C97.5633 157.439 97.5633 157.452 97.5633 157.464C97.5633 157.477 97.5633 157.49 97.5633 157.502C97.5633 157.515 97.5633 157.528 97.5633 157.54C97.5633 157.553 97.5633 157.566 97.5633 157.578C97.5633 157.591 97.5633 157.604 97.5633 157.616C97.5633 157.629 97.5633 157.642 97.5633 157.655L101.563 157.655ZM99.5633 144.266L80.3494 144.266L80.3494 148.266L99.5633 148.266L99.5633 144.266ZM82.3494 146.266L82.3494 127.081L78.3494 127.081L78.3494 146.266L82.3494 146.266ZM99.5633 148.266L118.777 148.266L118.777 144.266L99.5633 144.266L99.5633 148.266ZM120.777 146.266L120.777 127.081L116.777 127.081L116.777 146.266L120.777 146.266Z" fill="white"/>
<path d="M6.85608 105.237L100 4.42084L193.144 105.237L6.85608 105.237Z" stroke="#9E9E9E" stroke-width="6"/>
<path fill-rule="evenodd" clip-rule="evenodd" d="M91.762 75.8712C91.762 76.6149 91.4691 77.3338 90.9467 77.8631L81.9908 86.9391C80.8205 88.125 78.9061 88.1239 77.7373 86.9365C76.5577 85.7383 76.5566 83.8155 77.7347 82.6158L86.6822 73.5049C87.1942 72.9835 87.8943 72.6898 88.625 72.6898C89.3374 72.6898 90.0263 72.4059 90.5352 71.9073C87.7394 68.6035 86.0562 64.3143 86.0562 59.6484C86.0562 49.2442 94.3582 40.8108 104.6 40.8108C114.842 40.8108 123.144 49.2442 123.144 59.6484C123.144 70.0525 114.842 78.486 104.6 78.486C100.007 78.486 95.7846 76.7761 92.5323 73.936C92.0377 74.457 91.762 75.1528 91.762 75.8712ZM89.9709 59.6192C89.9709 67.8428 96.5335 74.5093 104.629 74.5093C112.724 74.5093 119.287 67.8428 119.287 59.6192C119.287 51.3957 112.724 44.7292 104.629 44.7292C96.5335 44.7292 89.9709 51.3957 89.9709 59.6192Z" fill="#9E9E9E"/>
</svg>
