<svg width="375" height="250" viewBox="0 0 375 250" fill="none" xmlns="http://www.w3.org/2000/svg">
<path d="M373 125.052C373 143.723 358.374 158.746 340.471 158.746C322.568 158.746 307.942 143.723 307.942 125.052C307.942 106.38 322.568 91.3574 340.471 91.3574C358.374 91.3574 373 106.38 373 125.052Z" fill="#884A07" stroke="#884A07" stroke-width="4"/>
<path d="M346.21 107.932L329.353 119.858L334.24 123.014L351.346 111.083L346.21 107.932Z" fill="white"/>
<path d="M340.482 104.418L341.005 103.565L340.484 103.246L339.961 103.564L340.482 104.418ZM322.453 115.404L321.933 114.55L321.453 114.842L321.453 115.404L322.453 115.404ZM322.453 133.965H321.453L321.453 134.51L321.911 134.806L322.453 133.965ZM340.482 145.582L339.94 146.423L340.487 146.775L341.031 146.418L340.482 145.582ZM358.389 133.815L358.938 134.651L359.389 134.355V133.815L358.389 133.815ZM358.389 115.404L359.389 115.404V114.844L358.912 114.551L358.389 115.404ZM327.124 126.365C326.647 126.087 326.035 126.249 325.757 126.727C325.48 127.204 325.642 127.816 326.119 128.094L327.124 126.365ZM332.3 131.686C332.778 131.964 333.39 131.802 333.667 131.324C333.945 130.847 333.783 130.235 333.305 129.957L332.3 131.686ZM327.016 130.727C326.551 130.43 325.933 130.566 325.635 131.032C325.338 131.497 325.474 132.115 325.939 132.413L327.016 130.727ZM332.264 136.454C332.73 136.752 333.348 136.616 333.645 136.15C333.943 135.685 333.807 135.066 333.341 134.769L332.264 136.454ZM351.346 111.083L351.869 110.23L351.346 111.083ZM339.961 103.564L321.933 114.55L322.973 116.258L341.002 105.272L339.961 103.564ZM321.453 115.404L321.453 133.965H323.453L323.453 115.404L321.453 115.404ZM321.911 134.806L339.94 146.423L341.023 144.742L322.995 133.125L321.911 134.806ZM341.031 146.418L358.938 134.651L357.84 132.98L339.933 144.747L341.031 146.418ZM359.389 133.815L359.389 115.404L357.389 115.404L357.389 133.815L359.389 133.815ZM339.479 127.042L339.482 145.583L341.482 145.582L341.479 127.042L339.479 127.042ZM341.024 127.88L358.934 116.242L357.844 114.565L339.934 126.203L341.024 127.88ZM326.119 128.094L332.3 131.686L333.305 129.957L327.124 126.365L326.119 128.094ZM325.939 132.413L332.264 136.454L333.341 134.769L327.016 130.727L325.939 132.413ZM321.911 116.244L328.81 120.699L329.895 119.018L322.996 114.564L321.911 116.244ZM329.93 120.675L346.787 108.748L345.632 107.115L328.775 119.042L329.93 120.675ZM328.81 120.699L333.698 123.854L334.783 122.174L329.895 119.018L328.81 120.699ZM333.698 123.854L339.937 127.882L341.021 126.202L334.783 122.174L333.698 123.854ZM358.912 114.551L351.869 110.23L350.823 111.935L357.866 116.256L358.912 114.551ZM334.812 123.834L351.918 111.903L350.774 110.262L333.668 122.194L334.812 123.834ZM351.869 110.23L346.733 107.079L345.687 108.784L350.823 111.935L351.869 110.23ZM346.733 107.079L341.005 103.565L339.959 105.27L345.687 108.784L346.733 107.079Z" fill="white"/>
<path d="M184.45 242.474L73.0919 125L184.45 7.52549L184.45 242.474Z" stroke="#9E9E9E" stroke-width="6"/>
<path d="M152 103.557H161.227V141.423C161.227 143.166 159.85 144.578 158.151 144.578H127.395C125.696 144.578 124.319 143.166 124.319 141.423V103.557H133.546M133.546 100.402H152V106.713C152 108.455 150.623 109.868 148.924 109.868H136.622C134.923 109.868 133.546 108.455 133.546 106.713V100.402Z" stroke="#9E9E9E" stroke-width="2"/>
<path fill-rule="evenodd" clip-rule="evenodd" d="M133.117 121.25L139.913 112.182L141.543 114.344L133.117 125.435L128.625 119.523L130.24 117.413L133.117 121.25Z" fill="#9E9E9E"/>
<path fill-rule="evenodd" clip-rule="evenodd" d="M133.117 135.975L139.913 126.908L141.543 129.07L133.117 140.161L128.625 134.249L130.24 132.139L133.117 135.975Z" fill="#9E9E9E"/>
<path d="M153.025 120.545C153.577 120.545 154.025 120.097 154.025 119.545C154.025 118.993 153.577 118.545 153.025 118.545V120.545ZM144.413 118.545C143.861 118.545 143.413 118.993 143.413 119.545C143.413 120.097 143.861 120.545 144.413 120.545V118.545ZM153.025 135.27C153.577 135.27 154.025 134.823 154.025 134.27C154.025 133.718 153.577 133.27 153.025 133.27V135.27ZM144.413 133.27C143.861 133.27 143.413 133.718 143.413 134.27C143.413 134.823 143.861 135.27 144.413 135.27V133.27ZM153.025 118.545H144.413V120.545H153.025V118.545ZM153.025 133.27H144.413V135.27H153.025V133.27Z" fill="#9E9E9E"/>
<path d="M190.45 7.5255L301.808 125L190.45 242.474L190.45 7.5255Z" stroke="#9E9E9E" stroke-width="6"/>
<mask id="path-10-inside-1_4761_2531" fill="white">
<path d="M236.826 124.079C236.885 123.548 236.925 122.995 236.925 122.422C236.925 121.848 236.885 121.295 236.807 120.764L240.135 117.959C240.431 117.704 240.509 117.237 240.332 116.875L237.181 110.989C236.984 110.607 236.57 110.479 236.216 110.607L232.296 112.307C231.469 111.627 230.602 111.074 229.637 110.649L229.046 106.144C228.987 105.719 228.653 105.422 228.259 105.422H221.956C221.562 105.422 221.247 105.719 221.188 106.144L220.597 110.649C219.632 111.074 218.746 111.648 217.938 112.307L214.019 110.607C213.664 110.458 213.251 110.607 213.054 110.989L209.902 116.875C209.705 117.258 209.784 117.704 210.099 117.959L213.428 120.764C213.349 121.295 213.29 121.869 213.29 122.422C213.29 122.974 213.329 123.548 213.408 124.079L210.08 126.884C209.784 127.139 209.705 127.607 209.883 127.968L213.034 133.854C213.231 134.237 213.644 134.364 213.999 134.237L217.918 132.537C218.746 133.217 219.612 133.769 220.577 134.194L221.168 138.699C221.247 139.124 221.562 139.422 221.956 139.422H228.259C228.653 139.422 228.987 139.124 229.027 138.699L229.618 134.194C230.583 133.769 231.469 133.195 232.277 132.537L236.196 134.237C236.551 134.385 236.964 134.237 237.161 133.854L240.312 127.968C240.509 127.585 240.431 127.139 240.115 126.884L236.826 124.079ZM225.107 128.797C221.858 128.797 219.199 125.928 219.199 122.422C219.199 118.915 221.858 116.047 225.107 116.047C228.357 116.047 231.016 118.915 231.016 122.422C231.016 125.928 228.357 128.797 225.107 128.797Z"/>
</mask>
<path d="M236.826 124.079C236.885 123.548 236.925 122.995 236.925 122.422C236.925 121.848 236.885 121.295 236.807 120.764L240.135 117.959C240.431 117.704 240.509 117.237 240.332 116.875L237.181 110.989C236.984 110.607 236.57 110.479 236.216 110.607L232.296 112.307C231.469 111.627 230.602 111.074 229.637 110.649L229.046 106.144C228.987 105.719 228.653 105.422 228.259 105.422H221.956C221.562 105.422 221.247 105.719 221.188 106.144L220.597 110.649C219.632 111.074 218.746 111.648 217.938 112.307L214.019 110.607C213.664 110.458 213.251 110.607 213.054 110.989L209.902 116.875C209.705 117.258 209.784 117.704 210.099 117.959L213.428 120.764C213.349 121.295 213.29 121.869 213.29 122.422C213.29 122.974 213.329 123.548 213.408 124.079L210.08 126.884C209.784 127.139 209.705 127.607 209.883 127.968L213.034 133.854C213.231 134.237 213.644 134.364 213.999 134.237L217.918 132.537C218.746 133.217 219.612 133.769 220.577 134.194L221.168 138.699C221.247 139.124 221.562 139.422 221.956 139.422H228.259C228.653 139.422 228.987 139.124 229.027 138.699L229.618 134.194C230.583 133.769 231.469 133.195 232.277 132.537L236.196 134.237C236.551 134.385 236.964 134.237 237.161 133.854L240.312 127.968C240.509 127.585 240.431 127.139 240.115 126.884L236.826 124.079ZM225.107 128.797C221.858 128.797 219.199 125.928 219.199 122.422C219.199 118.915 221.858 116.047 225.107 116.047C228.357 116.047 231.016 118.915 231.016 122.422C231.016 125.928 228.357 128.797 225.107 128.797Z" fill="#9E9E9E"/>
<path d="M236.826 124.079L235.832 123.969C235.796 124.298 235.925 124.625 236.177 124.84L236.826 124.079ZM236.807 120.764L236.162 119.999C235.897 120.223 235.767 120.568 235.817 120.911L236.807 120.764ZM240.135 117.959L240.78 118.724L240.789 118.716L240.135 117.959ZM240.332 116.875L241.23 116.435C241.225 116.424 241.219 116.414 241.214 116.403L240.332 116.875ZM237.181 110.989L236.292 111.447C236.294 111.452 236.297 111.456 236.299 111.461L237.181 110.989ZM236.216 110.607L235.877 109.666C235.857 109.673 235.837 109.681 235.818 109.689L236.216 110.607ZM232.296 112.307L231.661 113.079C231.951 113.317 232.35 113.373 232.694 113.224L232.296 112.307ZM229.637 110.649L228.646 110.779C228.691 111.126 228.914 111.423 229.234 111.564L229.637 110.649ZM229.046 106.144L230.038 106.014L230.037 106.006L229.046 106.144ZM221.188 106.144L220.197 106.006L220.196 106.014L221.188 106.144ZM220.597 110.649L221 111.564C221.32 111.423 221.543 111.126 221.589 110.779L220.597 110.649ZM217.938 112.307L217.54 113.224C217.883 113.373 218.281 113.318 218.57 113.082L217.938 112.307ZM214.019 110.607L214.417 109.689L214.406 109.685L214.019 110.607ZM213.054 110.989L213.935 111.461C213.938 111.456 213.94 111.452 213.943 111.447L213.054 110.989ZM209.902 116.875L209.021 116.403C209.018 116.408 209.016 116.413 209.013 116.418L209.902 116.875ZM210.099 117.959L210.744 117.194C210.739 117.19 210.733 117.186 210.728 117.182L210.099 117.959ZM213.428 120.764L214.417 120.911C214.468 120.568 214.337 120.223 214.072 119.999L213.428 120.764ZM213.408 124.079L214.052 124.844C214.318 124.62 214.448 124.275 214.397 123.932L213.408 124.079ZM210.08 126.884L209.435 126.119L209.426 126.127L210.08 126.884ZM209.883 127.968L208.985 128.408C208.99 128.419 208.995 128.429 209.001 128.44L209.883 127.968ZM213.034 133.854L213.923 133.396C213.92 133.392 213.918 133.387 213.915 133.382L213.034 133.854ZM213.999 134.237L214.337 135.178C214.357 135.17 214.377 135.163 214.397 135.154L213.999 134.237ZM217.918 132.537L218.553 131.764C218.264 131.526 217.865 131.47 217.52 131.619L217.918 132.537ZM220.577 134.194L221.569 134.064C221.523 133.718 221.3 133.42 220.98 133.279L220.577 134.194ZM221.168 138.699L220.177 138.829C220.179 138.847 220.182 138.864 220.185 138.881L221.168 138.699ZM229.027 138.699L228.035 138.569C228.034 138.582 228.032 138.594 228.031 138.607L229.027 138.699ZM229.618 134.194L229.215 133.279C228.895 133.42 228.672 133.718 228.626 134.064L229.618 134.194ZM232.277 132.537L232.674 131.619C232.331 131.47 231.934 131.525 231.644 131.762L232.277 132.537ZM236.196 134.237L235.798 135.154L235.809 135.159L236.196 134.237ZM237.161 133.854L236.279 133.382C236.277 133.387 236.274 133.392 236.272 133.396L237.161 133.854ZM240.312 127.968L241.194 128.44C241.197 128.435 241.199 128.43 241.201 128.426L240.312 127.968ZM240.115 126.884L239.467 127.645C239.473 127.651 239.48 127.656 239.486 127.662L240.115 126.884ZM237.82 124.19C237.882 123.631 237.925 123.041 237.925 122.422H235.925C235.925 122.95 235.888 123.464 235.832 123.969L237.82 124.19ZM237.925 122.422C237.925 121.802 237.882 121.2 237.796 120.617L235.817 120.911C235.888 121.39 235.925 121.894 235.925 122.422H237.925ZM237.451 121.529L240.78 118.724L239.491 117.194L236.162 119.999L237.451 121.529ZM240.789 118.716C241.46 118.137 241.588 117.165 241.23 116.435L239.434 117.316C239.428 117.304 239.427 117.295 239.426 117.291C239.426 117.288 239.426 117.285 239.426 117.282C239.427 117.28 239.433 117.244 239.482 117.202L240.789 118.716ZM241.214 116.403L238.062 110.517L236.299 111.461L239.45 117.347L241.214 116.403ZM238.07 110.531C237.626 109.67 236.669 109.381 235.877 109.666L236.554 111.548C236.516 111.561 236.465 111.565 236.41 111.545C236.349 111.522 236.308 111.478 236.292 111.447L238.07 110.531ZM235.818 109.689L231.898 111.389L232.694 113.224L236.614 111.524L235.818 109.689ZM232.931 111.534C232.043 110.804 231.099 110.2 230.04 109.734L229.234 111.564C230.106 111.948 230.895 112.45 231.661 113.079L232.931 111.534ZM230.629 110.519L230.038 106.014L228.055 106.274L228.646 110.779L230.629 110.519ZM230.037 106.006C229.914 105.125 229.189 104.422 228.259 104.422V106.422C228.198 106.422 228.143 106.397 228.106 106.364C228.069 106.33 228.058 106.296 228.056 106.282L230.037 106.006ZM228.259 104.422H221.956V106.422H228.259V104.422ZM221.956 104.422C220.996 104.422 220.316 105.157 220.197 106.006L222.178 106.282C222.179 106.279 222.174 106.312 222.132 106.352C222.087 106.394 222.021 106.422 221.956 106.422V104.422ZM220.196 106.014L219.606 110.519L221.589 110.779L222.179 106.274L220.196 106.014ZM220.194 109.734C219.132 110.202 218.17 110.827 217.306 111.532L218.57 113.082C219.321 112.469 220.132 111.947 221 111.564L220.194 109.734ZM218.336 111.389L214.417 109.689L213.621 111.524L217.54 113.224L218.336 111.389ZM214.406 109.685C213.539 109.321 212.585 109.715 212.165 110.531L213.943 111.447C213.933 111.466 213.901 111.507 213.837 111.532C213.773 111.556 213.698 111.556 213.632 111.529L214.406 109.685ZM212.172 110.517L209.021 116.403L210.784 117.347L213.935 111.461L212.172 110.517ZM209.013 116.418C208.623 117.176 208.748 118.152 209.47 118.737L210.728 117.182C210.766 117.212 210.787 117.254 210.793 117.288C210.799 117.319 210.79 117.335 210.791 117.333L209.013 116.418ZM209.455 118.724L212.783 121.529L214.072 119.999L210.744 117.194L209.455 118.724ZM212.439 120.617C212.356 121.176 212.29 121.803 212.29 122.422H214.29C214.29 121.936 214.342 121.414 214.417 120.911L212.439 120.617ZM212.29 122.422C212.29 123.019 212.332 123.642 212.419 124.226L214.397 123.932C214.326 123.454 214.29 122.929 214.29 122.422H212.29ZM212.764 123.314L209.435 126.119L210.724 127.649L214.052 124.844L212.764 123.314ZM209.426 126.127C208.755 126.707 208.626 127.678 208.985 128.408L210.78 127.527C210.786 127.54 210.788 127.548 210.789 127.552C210.789 127.556 210.789 127.558 210.788 127.561C210.788 127.563 210.781 127.599 210.733 127.641L209.426 126.127ZM209.001 128.44L212.152 134.326L213.915 133.382L210.764 127.496L209.001 128.44ZM212.145 134.312C212.588 135.173 213.545 135.462 214.337 135.178L213.661 133.296C213.699 133.282 213.75 133.279 213.804 133.299C213.866 133.322 213.907 133.365 213.923 133.396L212.145 134.312ZM214.397 135.154L218.316 133.454L217.52 131.619L213.601 133.319L214.397 135.154ZM217.283 133.309C218.172 134.04 219.116 134.643 220.174 135.109L220.98 133.279C220.109 132.895 219.319 132.394 218.553 131.764L217.283 133.309ZM219.586 134.324L220.177 138.829L222.16 138.569L221.569 134.064L219.586 134.324ZM220.185 138.881C220.334 139.688 220.992 140.422 221.956 140.422V138.422C221.985 138.422 222.018 138.427 222.05 138.44C222.081 138.453 222.106 138.47 222.123 138.486C222.157 138.517 222.155 138.537 222.151 138.517L220.185 138.881ZM221.956 140.422H228.259V138.422H221.956V140.422ZM228.259 140.422C229.182 140.422 229.937 139.718 230.022 138.791L228.031 138.607C228.034 138.576 228.052 138.527 228.097 138.486C228.14 138.445 228.199 138.422 228.259 138.422V140.422ZM230.018 138.829L230.609 134.324L228.626 134.064L228.035 138.569L230.018 138.829ZM230.021 135.109C231.082 134.642 232.045 134.016 232.909 133.312L231.644 131.762C230.893 132.374 230.083 132.897 229.215 133.279L230.021 135.109ZM231.879 133.454L235.798 135.154L236.594 133.319L232.674 131.619L231.879 133.454ZM235.809 135.159C236.676 135.523 237.63 135.128 238.05 134.312L236.272 133.396C236.282 133.377 236.314 133.336 236.378 133.311C236.441 133.287 236.517 133.287 236.583 133.315L235.809 135.159ZM238.043 134.326L241.194 128.44L239.431 127.496L236.279 133.382L238.043 134.326ZM241.201 128.426C241.592 127.667 241.466 126.691 240.744 126.107L239.486 127.662C239.449 127.631 239.428 127.589 239.422 127.556C239.416 127.524 239.424 127.508 239.423 127.51L241.201 128.426ZM240.764 126.123L237.475 123.318L236.177 124.84L239.467 127.645L240.764 126.123ZM225.107 127.797C222.48 127.797 220.199 125.448 220.199 122.422H218.199C218.199 126.407 221.235 129.797 225.107 129.797V127.797ZM220.199 122.422C220.199 119.395 222.48 117.047 225.107 117.047V115.047C221.235 115.047 218.199 118.436 218.199 122.422H220.199ZM225.107 117.047C227.735 117.047 230.016 119.395 230.016 122.422H232.016C232.016 118.436 228.98 115.047 225.107 115.047V117.047ZM230.016 122.422C230.016 125.448 227.735 127.797 225.107 127.797V129.797C228.98 129.797 232.016 126.407 232.016 122.422H230.016Z" fill="#9E9E9E" mask="url(#path-10-inside-1_4761_2531)"/>
<path d="M252.289 138.422C252.289 139.25 252.96 139.922 253.789 139.922C254.617 139.922 255.289 139.25 255.289 138.422L252.289 138.422ZM253.789 105.422L245.129 120.422L262.449 120.422L253.789 105.422ZM255.289 138.422L255.289 118.922L252.289 118.922L252.289 138.422L255.289 138.422Z" fill="#9E9E9E"/>
<path d="M67.0581 125.052C67.0581 143.723 52.4323 158.746 34.529 158.746C16.6258 158.746 2 143.723 2 125.052C2 106.38 16.6258 91.3574 34.529 91.3574C52.4323 91.3574 67.0581 106.38 67.0581 125.052Z" stroke="#9E9E9E" stroke-width="4"/>
<path d="M30.2722 136.863C31.318 138.098 31.3309 141.375 31.2648 142.81H38.4111C38.4773 141.716 38.7684 138.996 39.4036 136.863C40.1977 134.197 44.5649 129.89 44.3664 125.994C44.1679 122.097 40.3962 116.355 35.0364 116.355C30.4707 116.355 26.699 118.201 25.508 123.328C24.3169 128.455 26.1035 131.941 30.2722 136.863Z" stroke="#9E9E9E"/>
<path fill-rule="evenodd" clip-rule="evenodd" d="M31.9272 115.035C26.7498 116.325 23.1943 121.377 23.547 126.942C23.7134 129.565 24.369 131.198 26.3084 133.823C27.2028 135.033 28.3174 136.851 28.7852 137.864C29.2531 138.876 29.5197 141.861 29.5197 141.861H30.9731H32.447C32.447 141.861 32.447 140.095 32.447 138.942C32.0619 136.015 30.5501 134.403 28.9895 132.262C27.0431 129.593 26.6182 128.472 26.6212 126.016C26.6324 117.346 38.1238 114.7 41.8675 122.506C43.3977 125.697 42.9164 128.62 40.2609 132.262C38.7003 134.403 37.2095 136.018 36.8033 138.942C36.7747 139.969 36.7747 141.861 36.7747 141.861H38.1671H39.7306C39.7306 141.861 40.0574 138.763 40.5986 137.622C41.1397 136.481 42.1555 134.812 42.8556 133.914C44.9447 131.235 45.7504 129.074 45.756 126.135C45.7697 118.826 38.8868 113.301 31.9272 115.035ZM32.1797 120.504C30.1438 121.477 28.5845 123.783 28.5949 125.805C28.6038 127.482 30.1876 127.654 30.5329 126.016C31.0161 123.726 32.0393 122.466 33.634 122.2C35.0631 121.962 35.5534 121.672 35.5534 121.065C35.5534 119.812 34.1235 119.574 32.1797 120.504ZM29.5207 143.35C29.5218 144.7 29.6139 144.984 30.5097 146.388L31.4976 147.937H34.5542H37.6232L38.677 146.457C39.6478 144.972 39.7306 144.727 39.7306 143.353V141.861H34.6252H29.5197L29.5207 143.35Z" fill="#9E9E9E"/>
<rect x="33.8455" y="102.41" width="1.58808" height="9.43362" rx="0.794038" fill="#9E9E9E"/>
<rect width="1.61457" height="9.28376" rx="0.807283" transform="matrix(0.695505 -0.718521 0.695505 0.718521 15.1855 110.132)" fill="#9E9E9E"/>
<rect x="13.5974" y="132.351" width="1.64063" height="9.13144" rx="0.820314" transform="rotate(-90 13.5974 132.351)" fill="#9E9E9E"/>
<rect x="46.55" y="132.351" width="1.64063" height="9.13144" rx="0.820314" transform="rotate(-90 46.55 132.351)" fill="#9E9E9E"/>
<rect width="1.61457" height="9.28376" rx="0.807283" transform="matrix(0.695505 0.718521 -0.695505 0.718521 52.2129 108.972)" fill="#9E9E9E"/>
</svg>
