<svg width="240" height="400" viewBox="0 0 240 400" fill="none" xmlns="http://www.w3.org/2000/svg">
<path d="M155.314 36.831C155.314 56.0459 139.55 71.662 120.055 71.662C100.56 71.662 84.7957 56.0459 84.7957 36.831C84.7957 17.6161 100.56 2 120.055 2C139.55 2 155.314 17.6161 155.314 36.831Z" stroke="#9E9E9E" stroke-width="4"/>
<path d="M115.46 49.0185C116.588 50.2925 116.602 53.6739 116.531 55.1552H124.242C124.313 54.0266 124.627 51.2192 125.313 49.0185C126.17 46.2675 130.882 41.8237 130.668 37.8031C130.454 33.7825 126.384 27.8574 120.6 27.8574C115.674 27.8574 111.604 29.7619 110.319 35.0522C109.033 40.3424 110.961 43.9398 115.46 49.0185Z" stroke="#9E9E9E"/>
<path fill-rule="evenodd" clip-rule="evenodd" d="M117.245 26.4954C111.658 27.8263 107.822 33.0393 108.203 38.7816C108.382 41.4881 109.089 43.1737 111.182 45.8818C112.147 47.1306 113.35 49.0067 113.855 50.0512C114.36 51.0956 114.647 54.176 114.647 54.176H116.216H117.806C117.806 54.176 117.806 52.3532 117.806 51.1642C117.391 48.1433 115.759 46.4805 114.075 44.2714C111.975 41.5166 111.516 40.3603 111.52 37.8262C111.532 28.8798 123.932 26.15 127.971 34.2044C129.623 37.4967 129.103 40.513 126.238 44.2714C124.554 46.4805 122.945 48.1464 122.507 51.1642C122.476 52.2231 122.476 54.176 122.476 54.176H123.979H125.666C125.666 54.176 126.018 50.9795 126.602 49.8019C127.186 48.6242 128.282 46.9024 129.038 45.9758C131.292 43.211 132.161 40.9813 132.167 37.9491C132.182 30.4068 124.755 24.7063 117.245 26.4954ZM117.518 32.1384C115.321 33.1428 113.638 35.5222 113.65 37.6089C113.659 39.3387 115.368 39.5162 115.741 37.8262C116.262 35.4627 117.366 34.1636 119.087 33.889C120.629 33.6429 121.158 33.3437 121.158 32.7174C121.158 31.4249 119.615 31.1793 117.518 32.1384ZM114.648 55.7126C114.65 57.1057 114.749 57.3985 115.716 58.8473L116.782 60.4454H120.08H123.392L124.529 58.9184C125.576 57.3854 125.666 57.1334 125.666 55.7153V54.176H120.157H114.647L114.648 55.7126Z" fill="#9E9E9E"/>
<rect x="119.315" y="13.4679" width="1.71364" height="9.73408" rx="0.856818" fill="#9E9E9E"/>
<rect width="1.70329" height="9.79392" rx="0.851645" transform="matrix(0.711401 -0.702786 0.711401 0.702786 99.1799 21.4364)" fill="#9E9E9E"/>
<rect x="97.4663" y="44.363" width="1.69288" height="9.85341" rx="0.846442" transform="rotate(-90 97.4663 44.363)" fill="#9E9E9E"/>
<rect x="133.024" y="44.363" width="1.69288" height="9.85341" rx="0.846442" transform="rotate(-90 133.024 44.363)" fill="#9E9E9E"/>
<rect width="1.70329" height="9.79392" rx="0.851645" transform="matrix(0.711401 0.702786 -0.711401 0.702786 139.135 20.2394)" fill="#9E9E9E"/>
<path d="M233.015 203.053L120 322.088L6.98508 203.053L233.015 203.053Z" stroke="#9E9E9E" stroke-width="6"/>
<mask id="path-10-inside-1_4761_2517" fill="white">
<path d="M120.313 246.576C120.372 246.045 120.412 245.492 120.412 244.919C120.412 244.345 120.372 243.792 120.293 243.261L123.622 240.456C123.917 240.201 123.996 239.734 123.819 239.372L120.668 233.486C120.471 233.104 120.057 232.976 119.703 233.104L115.783 234.804C114.956 234.124 114.089 233.571 113.124 233.146L112.533 228.641C112.474 228.216 112.139 227.919 111.745 227.919H105.443C105.049 227.919 104.734 228.216 104.675 228.641L104.084 233.146C103.119 233.571 102.232 234.145 101.425 234.804L97.5055 233.104C97.1509 232.955 96.7373 233.104 96.5404 233.486L93.3891 239.372C93.1921 239.755 93.2709 240.201 93.586 240.456L96.9146 243.261C96.8358 243.792 96.7767 244.366 96.7767 244.919C96.7767 245.471 96.8161 246.045 96.8949 246.576L93.5663 249.381C93.2709 249.636 93.1921 250.104 93.3694 250.465L96.5207 256.351C96.7176 256.734 97.1313 256.861 97.4858 256.734L101.405 255.034C102.232 255.714 103.099 256.266 104.064 256.691L104.655 261.196C104.734 261.621 105.049 261.919 105.443 261.919H111.745C112.139 261.919 112.474 261.621 112.514 261.196L113.104 256.691C114.07 256.266 114.956 255.692 115.763 255.034L119.683 256.734C120.037 256.882 120.451 256.734 120.648 256.351L123.799 250.465C123.996 250.082 123.917 249.636 123.602 249.381L120.313 246.576ZM108.594 251.294C105.344 251.294 102.685 248.425 102.685 244.919C102.685 241.412 105.344 238.544 108.594 238.544C111.844 238.544 114.503 241.412 114.503 244.919C114.503 248.425 111.844 251.294 108.594 251.294Z"/>
</mask>
<path d="M120.313 246.576C120.372 246.045 120.412 245.492 120.412 244.919C120.412 244.345 120.372 243.792 120.293 243.261L123.622 240.456C123.917 240.201 123.996 239.734 123.819 239.372L120.668 233.486C120.471 233.104 120.057 232.976 119.703 233.104L115.783 234.804C114.956 234.124 114.089 233.571 113.124 233.146L112.533 228.641C112.474 228.216 112.139 227.919 111.745 227.919H105.443C105.049 227.919 104.734 228.216 104.675 228.641L104.084 233.146C103.119 233.571 102.232 234.145 101.425 234.804L97.5055 233.104C97.1509 232.955 96.7373 233.104 96.5404 233.486L93.3891 239.372C93.1921 239.755 93.2709 240.201 93.586 240.456L96.9146 243.261C96.8358 243.792 96.7767 244.366 96.7767 244.919C96.7767 245.471 96.8161 246.045 96.8949 246.576L93.5663 249.381C93.2709 249.636 93.1921 250.104 93.3694 250.465L96.5207 256.351C96.7176 256.734 97.1313 256.861 97.4858 256.734L101.405 255.034C102.232 255.714 103.099 256.266 104.064 256.691L104.655 261.196C104.734 261.621 105.049 261.919 105.443 261.919H111.745C112.139 261.919 112.474 261.621 112.514 261.196L113.104 256.691C114.07 256.266 114.956 255.692 115.763 255.034L119.683 256.734C120.037 256.882 120.451 256.734 120.648 256.351L123.799 250.465C123.996 250.082 123.917 249.636 123.602 249.381L120.313 246.576ZM108.594 251.294C105.344 251.294 102.685 248.425 102.685 244.919C102.685 241.412 105.344 238.544 108.594 238.544C111.844 238.544 114.503 241.412 114.503 244.919C114.503 248.425 111.844 251.294 108.594 251.294Z" fill="#9E9E9E"/>
<path d="M120.313 246.576L119.319 246.466C119.283 246.795 119.412 247.122 119.664 247.337L120.313 246.576ZM120.293 243.261L119.649 242.496C119.384 242.72 119.253 243.065 119.304 243.408L120.293 243.261ZM123.622 240.456L124.266 241.221L124.275 241.213L123.622 240.456ZM123.819 239.372L124.717 238.932C124.711 238.921 124.706 238.911 124.701 238.9L123.819 239.372ZM120.668 233.486L119.779 233.944C119.781 233.949 119.783 233.953 119.786 233.958L120.668 233.486ZM119.703 233.104L119.364 232.163C119.344 232.17 119.324 232.178 119.305 232.186L119.703 233.104ZM115.783 234.804L115.148 235.576C115.438 235.814 115.837 235.87 116.181 235.721L115.783 234.804ZM113.124 233.146L112.133 233.276C112.178 233.623 112.401 233.92 112.721 234.061L113.124 233.146ZM112.533 228.641L113.525 228.511L113.524 228.503L112.533 228.641ZM104.675 228.641L103.684 228.503L103.683 228.511L104.675 228.641ZM104.084 233.146L104.487 234.061C104.807 233.92 105.03 233.623 105.075 233.276L104.084 233.146ZM101.425 234.804L101.027 235.721C101.37 235.87 101.767 235.815 102.057 235.578L101.425 234.804ZM97.5055 233.104L97.9034 232.186L97.8924 232.181L97.5055 233.104ZM96.5404 233.486L97.422 233.958C97.4245 233.953 97.427 233.949 97.4294 233.944L96.5404 233.486ZM93.3891 239.372L92.5075 238.9C92.5049 238.905 92.5025 238.91 92.5 238.915L93.3891 239.372ZM93.586 240.456L94.2304 239.691C94.2254 239.687 94.2202 239.683 94.2151 239.679L93.586 240.456ZM96.9146 243.261L97.9038 243.408C97.9547 243.065 97.8242 242.72 97.559 242.496L96.9146 243.261ZM96.8949 246.576L97.5393 247.341C97.8045 247.117 97.935 246.772 97.8841 246.429L96.8949 246.576ZM93.5663 249.381L92.9219 248.616L92.9129 248.624L93.5663 249.381ZM93.3694 250.465L92.4716 250.905C92.4768 250.916 92.4822 250.926 92.4878 250.937L93.3694 250.465ZM96.5207 256.351L97.4097 255.893C97.4073 255.889 97.4048 255.884 97.4023 255.879L96.5207 256.351ZM97.4858 256.734L97.8242 257.675C97.8443 257.667 97.8641 257.659 97.8837 257.651L97.4858 256.734ZM101.405 255.034L102.04 254.261C101.75 254.023 101.352 253.967 101.007 254.116L101.405 255.034ZM104.064 256.691L105.056 256.561C105.01 256.214 104.787 255.917 104.467 255.776L104.064 256.691ZM104.655 261.196L103.663 261.326C103.666 261.344 103.669 261.361 103.672 261.378L104.655 261.196ZM112.514 261.196L111.522 261.066C111.52 261.079 111.519 261.091 111.518 261.104L112.514 261.196ZM113.104 256.691L112.701 255.776C112.382 255.917 112.158 256.214 112.113 256.561L113.104 256.691ZM115.763 255.034L116.161 254.116C115.818 253.967 115.421 254.022 115.131 254.259L115.763 255.034ZM119.683 256.734L119.285 257.651L119.296 257.656L119.683 256.734ZM120.648 256.351L119.766 255.879C119.764 255.884 119.761 255.889 119.759 255.893L120.648 256.351ZM123.799 250.465L124.681 250.937C124.683 250.932 124.686 250.927 124.688 250.923L123.799 250.465ZM123.602 249.381L122.953 250.142C122.96 250.148 122.967 250.153 122.973 250.158L123.602 249.381ZM121.307 246.687C121.369 246.128 121.412 245.538 121.412 244.919H119.412C119.412 245.447 119.375 245.961 119.319 246.466L121.307 246.687ZM121.412 244.919C121.412 244.299 121.369 243.697 121.283 243.114L119.304 243.408C119.375 243.887 119.412 244.391 119.412 244.919H121.412ZM120.938 244.026L124.266 241.221L122.978 239.691L119.649 242.496L120.938 244.026ZM124.275 241.213C124.947 240.633 125.075 239.662 124.717 238.932L122.921 239.813C122.915 239.8 122.913 239.792 122.913 239.788C122.912 239.785 122.913 239.782 122.913 239.779C122.913 239.777 122.92 239.741 122.969 239.699L124.275 241.213ZM124.701 238.9L121.549 233.014L119.786 233.958L122.937 239.844L124.701 238.9ZM121.557 233.028C121.113 232.167 120.156 231.878 119.364 232.163L120.041 234.045C120.003 234.058 119.952 234.062 119.897 234.041C119.835 234.019 119.795 233.975 119.779 233.944L121.557 233.028ZM119.305 232.186L115.385 233.886L116.181 235.721L120.1 234.021L119.305 232.186ZM116.418 234.031C115.53 233.301 114.586 232.697 113.527 232.231L112.721 234.061C113.593 234.445 114.382 234.947 115.148 235.576L116.418 234.031ZM114.116 233.016L113.525 228.511L111.542 228.771L112.133 233.276L114.116 233.016ZM113.524 228.503C113.401 227.622 112.675 226.919 111.745 226.919V228.919C111.685 228.919 111.629 228.894 111.592 228.861C111.556 228.827 111.545 228.793 111.543 228.779L113.524 228.503ZM111.745 226.919H105.443V228.919H111.745V226.919ZM105.443 226.919C104.482 226.919 103.802 227.654 103.684 228.503L105.665 228.779C105.666 228.776 105.661 228.809 105.619 228.848C105.574 228.891 105.507 228.919 105.443 228.919V226.919ZM103.683 228.511L103.092 233.016L105.075 233.276L105.666 228.771L103.683 228.511ZM103.681 232.231C102.619 232.698 101.657 233.324 100.793 234.029L102.057 235.578C102.808 234.966 103.618 234.444 104.487 234.061L103.681 232.231ZM101.823 233.886L97.9034 232.186L97.1076 234.021L101.027 235.721L101.823 233.886ZM97.8924 232.181C97.0254 231.818 96.0715 232.212 95.6513 233.028L97.4294 233.944C97.4195 233.963 97.3876 234.004 97.3234 234.029C97.26 234.053 97.1845 234.053 97.1186 234.026L97.8924 232.181ZM95.6588 233.014L92.5075 238.9L94.2707 239.844L97.422 233.958L95.6588 233.014ZM92.5 238.915C92.1095 239.673 92.2352 240.649 92.957 241.233L94.2151 239.679C94.2527 239.709 94.2736 239.751 94.2797 239.785C94.2854 239.816 94.2773 239.832 94.2781 239.83L92.5 238.915ZM92.9416 241.221L96.2702 244.026L97.559 242.496L94.2304 239.691L92.9416 241.221ZM95.9254 243.114C95.8425 243.673 95.7767 244.3 95.7767 244.919H97.7767C97.7767 244.433 97.8291 243.911 97.9038 243.408L95.9254 243.114ZM95.7767 244.919C95.7767 245.516 95.8191 246.139 95.9057 246.723L97.8841 246.429C97.8131 245.951 97.7767 245.426 97.7767 244.919H95.7767ZM96.2505 245.811L92.9219 248.616L94.2107 250.146L97.5393 247.341L96.2505 245.811ZM92.9129 248.624C92.2414 249.204 92.1132 250.175 92.4716 250.905L94.2671 250.024C94.2732 250.037 94.2749 250.045 94.2753 250.049C94.2758 250.052 94.2757 250.055 94.2752 250.058C94.2749 250.06 94.2683 250.096 94.2197 250.138L92.9129 248.624ZM92.4878 250.937L95.6391 256.823L97.4023 255.879L94.251 249.993L92.4878 250.937ZM95.6316 256.809C96.0751 257.67 97.0322 257.959 97.8242 257.675L97.1474 255.793C97.1857 255.779 97.2365 255.775 97.2911 255.796C97.3528 255.819 97.3937 255.862 97.4097 255.893L95.6316 256.809ZM97.8837 257.651L101.803 255.951L101.007 254.116L97.0879 255.816L97.8837 257.651ZM100.77 255.806C101.659 256.537 102.602 257.14 103.661 257.606L104.467 255.776C103.596 255.392 102.806 254.891 102.04 254.261L100.77 255.806ZM103.073 256.821L103.663 261.326L105.647 261.066L105.056 256.561L103.073 256.821ZM103.672 261.378C103.821 262.185 104.479 262.919 105.443 262.919V260.919C105.472 260.919 105.504 260.924 105.537 260.937C105.568 260.95 105.593 260.967 105.61 260.983C105.644 261.014 105.642 261.034 105.638 261.014L103.672 261.378ZM105.443 262.919H111.745V260.919H105.443V262.919ZM111.745 262.919C112.669 262.919 113.423 262.215 113.509 261.288L111.518 261.104C111.521 261.073 111.539 261.024 111.583 260.983C111.627 260.942 111.686 260.919 111.745 260.919V262.919ZM113.505 261.326L114.096 256.821L112.113 256.561L111.522 261.066L113.505 261.326ZM113.507 257.606C114.569 257.139 115.532 256.513 116.395 255.808L115.131 254.259C114.38 254.871 113.57 255.393 112.701 255.776L113.507 257.606ZM115.365 255.951L119.285 257.651L120.081 255.816L116.161 254.116L115.365 255.951ZM119.296 257.656C120.163 258.019 121.117 257.625 121.537 256.809L119.759 255.893C119.769 255.874 119.801 255.833 119.865 255.808C119.928 255.784 120.004 255.784 120.07 255.811L119.296 257.656ZM121.53 256.823L124.681 250.937L122.918 249.993L119.766 255.879L121.53 256.823ZM124.688 250.923C125.079 250.164 124.953 249.188 124.231 248.604L122.973 250.158C122.936 250.128 122.915 250.086 122.909 250.053C122.903 250.021 122.911 250.005 122.91 250.007L124.688 250.923ZM124.251 248.62L120.962 245.815L119.664 247.337L122.953 250.142L124.251 248.62ZM108.594 250.294C105.967 250.294 103.685 247.945 103.685 244.919H101.685C101.685 248.904 104.722 252.294 108.594 252.294V250.294ZM103.685 244.919C103.685 241.892 105.967 239.544 108.594 239.544V237.544C104.722 237.544 101.685 240.933 101.685 244.919H103.685ZM108.594 239.544C111.221 239.544 113.503 241.892 113.503 244.919H115.503C115.503 240.933 112.466 237.544 108.594 237.544V239.544ZM113.503 244.919C113.503 247.945 111.221 250.294 108.594 250.294V252.294C112.466 252.294 115.503 248.904 115.503 244.919H113.503Z" fill="#9E9E9E" mask="url(#path-10-inside-1_4761_2517)"/>
<path d="M135.776 260.919C135.776 261.747 136.447 262.419 137.276 262.419C138.104 262.419 138.776 261.747 138.776 260.919L135.776 260.919ZM137.276 227.919L128.615 242.919L145.936 242.919L137.276 227.919ZM138.776 260.919L138.776 241.419L135.776 241.419L135.776 260.919L138.776 260.919Z" fill="#9E9E9E"/>
<path d="M6.98507 197.053L120 78.0189L233.015 197.053L6.98507 197.053Z" stroke="#9E9E9E" stroke-width="6"/>
<path d="M130.48 131.719H140.436V170.791C140.436 172.589 138.951 174.047 137.118 174.047H103.93C102.097 174.047 100.611 172.589 100.611 170.791V131.719H110.567M110.567 128.463H130.48V134.975C130.48 136.773 128.994 138.231 127.161 138.231H113.886C112.053 138.231 110.567 136.773 110.567 134.975V128.463Z" stroke="#9E9E9E" stroke-width="2"/>
<path fill-rule="evenodd" clip-rule="evenodd" d="M110.104 149.975L117.438 140.619L119.196 142.85L110.104 154.294L105.257 148.194L107 146.017L110.104 149.975Z" fill="#9E9E9E"/>
<path fill-rule="evenodd" clip-rule="evenodd" d="M110.104 165.17L117.438 155.813L119.196 158.045L110.104 169.488L105.257 163.389L107 161.211L110.104 165.17Z" fill="#9E9E9E"/>
<path d="M131.586 149.216C132.139 149.216 132.586 148.768 132.586 148.216C132.586 147.664 132.139 147.216 131.586 147.216V149.216ZM122.294 147.216C121.741 147.216 121.294 147.664 121.294 148.216C121.294 148.768 121.741 149.216 122.294 149.216V147.216ZM131.586 164.411C132.139 164.411 132.586 163.963 132.586 163.411C132.586 162.858 132.139 162.411 131.586 162.411V164.411ZM122.294 162.411C121.741 162.411 121.294 162.858 121.294 163.411C121.294 163.963 121.741 164.411 122.294 164.411V162.411ZM131.586 147.216H122.294V149.216H131.586V147.216ZM131.586 162.411H122.294V164.411H131.586V162.411Z" fill="#9E9E9E"/>
<path d="M155.314 363.169C155.314 382.384 139.55 398 120.055 398C100.56 398 84.7957 382.384 84.7957 363.169C84.7957 343.954 100.56 328.338 120.055 328.338C139.55 328.338 155.314 343.954 155.314 363.169Z" fill="#884A07" stroke="#884A07" stroke-width="4"/>
<path d="M126.246 345.504L108.056 357.81L113.33 361.066L131.788 348.755L126.246 345.504Z" fill="white"/>
<path d="M120.065 341.878L120.571 341.015L120.067 340.72L119.562 341.014L120.065 341.878ZM100.611 353.214L100.107 352.35L99.6109 352.639L99.6109 353.214L100.611 353.214ZM100.611 372.366H99.6108L99.6108 372.925L100.086 373.218L100.611 372.366ZM120.065 384.354L119.54 385.205L120.07 385.531L120.597 385.2L120.065 384.354ZM139.388 372.212L139.92 373.059L140.388 372.765V372.212H139.388ZM139.388 353.214H140.388V352.641L139.894 352.351L139.388 353.214ZM105.595 364.542C105.112 364.274 104.503 364.447 104.235 364.93C103.967 365.413 104.14 366.022 104.623 366.29L105.595 364.542ZM111.293 369.997C111.776 370.265 112.384 370.091 112.653 369.609C112.921 369.126 112.747 368.517 112.265 368.249L111.293 369.997ZM105.475 369.042C105.004 368.754 104.389 368.902 104.101 369.374C103.813 369.845 103.961 370.46 104.432 370.748L105.475 369.042ZM111.257 374.919C111.729 375.207 112.344 375.058 112.632 374.587C112.92 374.116 112.771 373.5 112.3 373.212L111.257 374.919ZM131.788 348.755L132.294 347.893L131.788 348.755ZM119.562 341.014L100.107 352.35L101.114 354.078L120.568 342.742L119.562 341.014ZM99.6109 353.214L99.6108 372.366L101.611 372.366L101.611 353.214L99.6109 353.214ZM100.086 373.218L119.54 385.205L120.59 383.502L101.135 371.515L100.086 373.218ZM120.597 385.2L139.92 373.059L138.856 371.365L119.533 383.507L120.597 385.2ZM140.388 372.212L140.388 353.214L138.388 353.214L138.388 372.212H140.388ZM119.062 365.223L119.065 384.354L121.065 384.354L121.062 365.223L119.062 365.223ZM120.59 366.072L139.916 354.063L138.86 352.364L119.534 364.373L120.59 366.072ZM104.623 366.29L111.293 369.997L112.265 368.249L105.595 364.542L104.623 366.29ZM104.432 370.748L111.257 374.919L112.3 373.212L105.475 369.042L104.432 370.748ZM100.086 354.065L107.531 358.661L108.581 356.96L101.136 352.363L100.086 354.065ZM108.616 358.639L126.806 346.332L125.685 344.676L107.496 356.982L108.616 358.639ZM107.531 358.661L112.804 361.917L113.855 360.215L108.581 356.96L107.531 358.661ZM112.804 361.917L119.536 366.074L120.587 364.372L113.855 360.215L112.804 361.917ZM139.894 352.351L132.294 347.893L131.282 349.618L138.882 354.076L139.894 352.351ZM113.885 361.898L132.343 349.587L131.233 347.923L112.775 360.234L113.885 361.898ZM132.294 347.893L126.752 344.641L125.74 346.366L131.282 349.618L132.294 347.893ZM126.752 344.641L120.571 341.015L119.559 342.74L125.74 346.366L126.752 344.641Z" fill="white"/>
</svg>
