<svg width="375" height="250" viewBox="0 0 375 250" fill="none" xmlns="http://www.w3.org/2000/svg">
<path d="M373 125.052C373 143.723 358.374 158.746 340.471 158.746C322.568 158.746 307.942 143.723 307.942 125.052C307.942 106.38 322.568 91.3574 340.471 91.3574C358.374 91.3574 373 106.38 373 125.052Z" stroke="#9E9E9E" stroke-width="4"/>
<path d="M336.214 136.863C337.26 138.098 337.273 141.375 337.207 142.81H344.353C344.419 141.716 344.71 138.996 345.346 136.863C346.14 134.197 350.507 129.89 350.308 125.994C350.11 122.097 346.338 116.355 340.978 116.355C336.413 116.355 332.641 118.201 331.45 123.328C330.259 128.455 332.046 131.941 336.214 136.863Z" stroke="#9E9E9E"/>
<path fill-rule="evenodd" clip-rule="evenodd" d="M337.869 115.035C332.692 116.325 329.136 121.377 329.489 126.942C329.655 129.565 330.311 131.198 332.25 133.823C333.145 135.033 334.259 136.851 334.727 137.864C335.195 138.876 335.462 141.861 335.462 141.861H336.915H338.389C338.389 141.861 338.389 140.095 338.389 138.942C338.004 136.015 336.492 134.403 334.931 132.262C332.985 129.593 332.56 128.472 332.563 126.016C332.574 117.346 344.066 114.7 347.809 122.506C349.34 125.697 348.858 128.62 346.203 132.262C344.642 134.403 343.151 136.018 342.745 138.942C342.717 139.969 342.717 141.861 342.717 141.861H344.109H345.673C345.673 141.861 345.999 138.763 346.54 137.622C347.082 136.481 348.097 134.812 348.798 133.914C350.887 131.235 351.692 129.074 351.698 126.135C351.712 118.826 344.829 113.301 337.869 115.035ZM338.122 120.504C336.086 121.477 334.526 123.783 334.537 125.805C334.546 127.482 336.13 127.654 336.475 126.016C336.958 123.726 337.981 122.466 339.576 122.2C341.005 121.962 341.495 121.672 341.495 121.065C341.495 119.812 340.065 119.574 338.122 120.504ZM335.463 143.35C335.464 144.7 335.556 144.984 336.452 146.388L337.44 147.937H340.496H343.565L344.619 146.457C345.59 144.972 345.673 144.727 345.673 143.353V141.861H340.567H335.462L335.463 143.35Z" fill="#9E9E9E"/>
<rect x="339.787" y="102.41" width="1.58808" height="9.43362" rx="0.794038" fill="#9E9E9E"/>
<rect width="1.61457" height="9.28376" rx="0.807283" transform="matrix(0.695505 -0.718521 0.695505 0.718521 321.127 110.132)" fill="#9E9E9E"/>
<rect x="319.539" y="132.351" width="1.64063" height="9.13144" rx="0.820314" transform="rotate(-90 319.539 132.351)" fill="#9E9E9E"/>
<rect x="352.492" y="132.351" width="1.64063" height="9.13144" rx="0.820314" transform="rotate(-90 352.492 132.351)" fill="#9E9E9E"/>
<rect width="1.61457" height="9.28376" rx="0.807283" transform="matrix(0.695505 0.718521 -0.695505 0.718521 358.155 108.972)" fill="#9E9E9E"/>
<path d="M184.45 242.474L73.092 125L184.45 7.52549L184.45 242.474Z" fill="#884A07" stroke="#884A07" stroke-width="6"/>
<path fill-rule="evenodd" clip-rule="evenodd" d="M137.756 99.0574C131.471 100.527 122.598 105.014 118.404 108.845C115.154 111.814 113.838 114.275 113.654 117.728C113.357 123.322 116.592 126.92 122.516 127.587C124.252 127.782 124.321 127.834 124.535 129.104C124.804 130.7 127.229 133.448 129.223 134.415C131.308 135.426 135.256 135.957 138.979 135.728C142.135 135.534 142.262 135.555 142.404 136.299C142.484 136.724 142.734 138.027 142.958 139.194C143.493 141.981 145.651 146.096 147.299 147.47C149.829 149.582 151.737 148.67 152.177 145.142L152.395 143.397L154.345 143.733C159.214 144.571 165.706 140.718 165.706 136.988C165.706 136.198 166.096 135.709 167.541 134.684C171.184 132.1 172.893 128.619 172.881 123.809C172.873 120.064 172.053 117.04 170.052 113.376C166.452 106.78 157.949 100.745 149.632 98.8816C146.447 98.1683 141.23 98.2454 137.756 99.0574ZM147.85 99.7612C148.934 99.9568 150.505 100.292 151.342 100.506L152.862 100.895L151.264 101.67C149.244 102.649 146.725 104.951 146.725 105.818C146.725 106.784 147.065 106.643 148.458 105.096C149.143 104.335 150.469 103.36 151.404 102.931C153.87 101.796 155.658 102.091 159.232 104.222C161.973 105.856 167.557 110.482 165.824 109.684C164.517 109.081 161.539 109.241 159.979 109.996C158.575 110.676 158.55 110.676 157.787 110.001C156.787 109.115 155.681 108.791 155.205 109.244C154.95 109.486 155.173 109.772 155.895 110.127C157.35 110.842 158.141 111.745 158.51 113.113C158.946 114.728 159.565 114.527 159.565 112.77C159.565 111.328 159.602 111.286 161.285 110.785C163.331 110.177 165.119 110.418 166.865 111.536C168.628 112.665 169.677 114.309 170.783 117.681C171.624 120.245 171.727 121.077 171.59 124.247C171.459 127.289 171.276 128.166 170.46 129.667C169.432 131.557 167.26 133.65 165.354 134.587C164.304 135.103 164.231 135.255 164.44 136.498C164.638 137.674 164.511 138.016 163.461 139.154C161.484 141.292 159.326 142.287 156.254 142.474C154.05 142.609 153.238 142.497 151.628 141.839C148.543 140.578 147.426 138.743 148.948 137.434C149.6 136.873 150.139 136.831 153.756 137.054C156.39 137.216 158.087 137.174 158.558 136.934C159.386 136.513 159.799 135.418 159.375 134.767C159.038 134.249 158.263 134.611 158.263 135.287C158.263 136.085 157.203 136.209 153.764 135.811C150.17 135.396 149.212 135.533 147.935 136.644C146.234 138.122 147.28 140.877 150.142 142.463C151.209 143.054 151.254 143.171 151.051 144.831C150.65 148.11 148.953 148.284 146.77 145.269C145.164 143.05 144.248 140.649 143.734 137.306L143.29 134.419H138.189C132.307 134.419 129.922 133.912 127.91 132.234C126.337 130.922 125.841 130.105 125.478 128.232C124.776 124.608 129.127 120.626 133.789 120.626C136.372 120.626 137.579 121.375 137.281 122.791C136.935 124.436 135.93 125.573 133.82 126.704C132.048 127.654 131.19 128.761 132.225 128.761C132.854 128.761 135.383 127.443 135.909 126.841C136.583 126.069 136.854 126.1 143.758 127.746C153.118 129.978 158.501 129.635 162.162 126.572C163.731 125.259 165.894 121.751 166.154 120.096C166.357 118.801 165.237 119.35 164.711 120.803C164.009 122.741 162.123 125.298 160.725 126.205C159.201 127.195 155.644 128.053 153.067 128.054C150.559 128.054 144.864 127.022 144.864 126.567C144.864 125.956 145.691 124.697 146.487 124.096C147.221 123.543 147.23 123.482 146.616 123.258C145.773 122.951 144.641 123.897 144.076 125.382L143.651 126.499L140.815 125.832C139.255 125.465 137.944 125.132 137.902 125.092C137.86 125.052 138.029 124.361 138.279 123.558C138.821 121.814 140.645 120.298 144.042 118.77C146.053 117.865 146.716 117.736 148.733 117.858C150.924 117.991 151.436 118.186 153.645 119.73C154.35 120.223 154.669 119.745 154.195 118.905C153.971 118.508 152.715 117.696 151.402 117.101C148.82 115.93 147.088 114.307 147.114 113.084C147.122 112.661 147.35 111.73 147.618 111.016C147.891 110.29 147.973 109.51 147.804 109.25C147.413 108.65 146.956 109.119 146.403 110.688C145.78 112.46 145.886 113.854 146.744 115.173L147.506 116.345L145.908 116.754C143.823 117.288 142.029 118.173 139.902 119.715L138.177 120.967L136.775 120.054C135.565 119.266 135.09 119.165 133.3 119.314C129.622 119.62 126.165 121.96 124.683 125.144C123.95 126.717 123.949 126.718 122.404 126.485C120.101 126.138 117.169 124.743 116.317 123.589C115.13 121.983 114.623 120.028 114.782 117.673C114.972 114.863 116.163 112.547 118.621 110.212C120.344 108.575 126.235 104.575 126.522 104.847C126.584 104.906 126.369 105.656 126.044 106.513C125.678 107.475 125.452 109.224 125.451 111.086L125.45 114.101L123.991 114.899C123.189 115.337 122.533 115.841 122.533 116.018C122.533 116.715 123.28 116.71 124.538 116.005C125.49 115.472 126.351 115.295 127.637 115.37C129.9 115.503 130.145 114.627 127.981 114.141L126.544 113.818L126.688 110.403C126.814 107.432 126.97 106.766 127.888 105.278C128.789 103.816 129.328 103.4 131.599 102.407C133.061 101.768 135.154 100.994 136.251 100.687L138.245 100.129L137.634 100.917C136.618 102.229 135.607 104.481 135.35 106.007C135.217 106.8 134.916 107.445 134.682 107.439C133.454 107.41 132.954 107.593 132.954 108.071C132.954 108.458 133.382 108.604 134.536 108.609C135.406 108.614 136.846 108.931 137.737 109.315C138.628 109.699 139.518 109.919 139.715 109.803C140.269 109.478 138.975 108.324 137.561 107.88C136.127 107.43 136.094 107.28 136.878 104.77C137.528 102.689 139.284 100.588 140.949 99.8991C142.307 99.3368 145.176 99.2795 147.85 99.7612Z" fill="white" stroke="white"/>
<path d="M190.45 7.5255L301.808 125L190.45 242.474L190.45 7.5255Z" stroke="#9E9E9E" stroke-width="6"/>
<path d="M222.433 114.296L222.232 131.525C219.472 132.843 217.569 135.842 217.559 139.396C217.548 143.136 219.779 146.308 222.791 147.514L222.813 139.472L227.981 139.455L228.045 147.59C231.149 146.458 233.312 143.178 233.322 139.437C233.332 135.884 231.445 132.897 228.692 131.597L228.74 114.577C228.742 113.829 228.227 113.27 227.538 113.272L223.575 113.285C222.8 113.194 222.349 113.642 222.433 114.296Z" fill="#9E9E9E"/>
<path d="M228.695 130.475L228.743 113.455C231.503 112.137 233.407 109.138 233.416 105.584C233.427 101.844 231.196 98.6715 228.185 97.4658L228.162 105.508L222.994 105.525L222.93 97.3895C219.826 98.5219 217.664 101.802 217.653 105.543C217.643 109.096 219.68 112.996 222.433 114.296L222.311 130.485C222.309 131.233 222.749 131.71 223.438 131.708L227.4 131.695C228.175 131.786 228.78 131.129 228.695 130.475Z" fill="#9E9E9E"/>
<path d="M249.033 143.633L248.77 125.761L248.807 125.761C249.432 125.759 249.937 125.18 249.913 124.479C249.89 123.811 249.349 123.311 248.748 123.313L247.216 123.316C246.865 123.316 246.581 123 246.583 122.61L246.662 106.607C246.665 105.879 246.78 105.156 247.002 104.469L247.007 104.455C247.302 103.54 247.407 102.564 247.313 101.6L246.953 97.9059C246.924 97.6112 246.701 97.389 246.435 97.3895L244.931 97.3925C244.665 97.393 244.439 97.6161 244.408 97.911L244.012 101.602C243.909 102.567 244.004 103.545 244.29 104.461L244.296 104.478C244.51 105.163 244.618 105.885 244.614 106.613L244.536 122.614C244.534 123.004 244.248 123.322 243.897 123.322L242.355 123.325C241.759 123.326 241.223 123.824 241.188 124.486C241.152 125.192 241.653 125.775 242.281 125.774L242.368 125.773L241.931 143.647C241.92 145.829 243.501 147.594 245.462 147.59C247.424 147.586 249.022 145.815 249.033 143.633Z" fill="#9E9E9E"/>
<path d="M67.0581 125.052C67.0581 143.723 52.4323 158.746 34.529 158.746C16.6258 158.746 2 143.723 2 125.052C2 106.38 16.6258 91.3574 34.529 91.3574C52.4323 91.3574 67.0581 106.38 67.0581 125.052Z" stroke="#9E9E9E" stroke-width="4"/>
<path d="M37.2901 132.443H31.4522L30.232 109.067H38.5103L37.2901 132.443ZM30.1363 140.625C30.1363 139.285 30.4952 138.272 31.2129 137.587C31.9307 136.901 32.9755 136.558 34.3472 136.558C35.6711 136.558 36.6919 136.909 37.4097 137.61C38.1434 138.312 38.5103 139.317 38.5103 140.625C38.5103 141.885 38.1434 142.882 37.4097 143.616C36.676 144.334 35.6552 144.693 34.3472 144.693C33.0074 144.693 31.9706 144.342 31.2369 143.64C30.5031 142.922 30.1363 141.917 30.1363 140.625Z" fill="#9E9E9E"/>
</svg>
