<svg width="240" height="400" viewBox="0 0 240 400" fill="none" xmlns="http://www.w3.org/2000/svg">
<path d="M155.313 36.831C155.313 56.0459 139.549 71.662 120.054 71.662C100.559 71.662 84.7948 56.0459 84.7948 36.831C84.7948 17.6161 100.559 2 120.054 2C139.549 2 155.313 17.6161 155.313 36.831Z" stroke="#9E9E9E" stroke-width="4"/>
<path d="M122.801 44.2059H116.963L115.743 20.8304H124.021L122.801 44.2059ZM115.647 52.3885C115.647 51.0487 116.006 50.0358 116.724 49.35C117.441 48.6641 118.486 48.3212 119.858 48.3212C121.182 48.3212 122.203 48.6721 122.92 49.3739C123.654 50.0757 124.021 51.0806 124.021 52.3885C124.021 53.6486 123.654 54.6455 122.92 55.3793C122.187 56.097 121.166 56.4559 119.858 56.4559C118.518 56.4559 117.481 56.105 116.747 55.4032C116.014 54.6854 115.647 53.6805 115.647 52.3885Z" fill="#9E9E9E"/>
<path d="M233.015 203.053L120 322.088L6.98508 203.053L233.015 203.053Z" stroke="#9E9E9E" stroke-width="6"/>
<path d="M107.967 240.184L107.75 257.961C104.772 259.321 102.718 262.416 102.707 266.083C102.696 269.942 105.103 273.215 108.353 274.46L108.377 266.161L113.954 266.144L114.022 274.538C117.372 273.37 119.706 269.985 119.717 266.125C119.728 262.459 117.692 259.377 114.721 258.036L114.773 240.474C114.775 239.702 114.219 239.125 113.475 239.127L109.2 239.14C108.363 239.047 107.876 239.509 107.967 240.184Z" fill="#9E9E9E"/>
<path d="M114.725 256.878L114.776 239.316C117.754 237.956 119.808 234.861 119.819 231.194C119.83 227.335 117.423 224.061 114.173 222.817L114.149 231.116L108.572 231.133L108.504 222.739C105.154 223.907 102.821 227.292 102.809 231.151C102.799 234.818 104.997 238.842 107.967 240.184L107.836 256.888C107.834 257.66 108.307 258.152 109.051 258.15L113.327 258.137C114.163 258.23 114.816 257.553 114.725 256.878Z" fill="#9E9E9E"/>
<path d="M136.67 270.455L136.387 252.013L136.427 252.013C137.1 252.012 137.646 251.414 137.62 250.691C137.595 250.001 137.011 249.486 136.362 249.487L134.709 249.49C134.33 249.491 134.025 249.165 134.027 248.762L134.111 232.25C134.115 231.499 134.239 230.753 134.479 230.044L134.484 230.029C134.803 229.085 134.916 228.077 134.814 227.083L134.426 223.272C134.395 222.967 134.154 222.738 133.866 222.739L132.244 222.742C131.956 222.742 131.713 222.972 131.679 223.277L131.252 227.085C131.141 228.081 131.243 229.09 131.552 230.035L131.558 230.053C131.789 230.76 131.906 231.505 131.902 232.255L131.817 248.766C131.815 249.169 131.506 249.497 131.128 249.497L129.464 249.5C128.821 249.502 128.242 250.015 128.205 250.698C128.166 251.426 128.707 252.028 129.384 252.027L129.478 252.027L129.006 270.469C128.995 272.721 130.701 274.542 132.817 274.538C134.933 274.534 136.658 272.706 136.67 270.455Z" fill="#9E9E9E"/>
<path d="M6.98507 197.053L120 78.0189L233.015 197.053L6.98507 197.053Z" fill="#884A07" stroke="#884A07" stroke-width="6"/>
<path fill-rule="evenodd" clip-rule="evenodd" d="M113.014 124.074C106.232 125.591 96.6584 130.221 92.1326 134.174C88.6254 137.237 87.2053 139.777 87.0073 143.34C86.6864 149.112 90.1768 152.825 96.5693 153.513C98.4428 153.714 98.5175 153.768 98.748 155.078C99.038 156.725 101.655 159.561 103.806 160.558C106.057 161.601 110.317 162.15 114.334 161.913C117.74 161.713 117.877 161.735 118.029 162.502C118.117 162.941 118.386 164.285 118.628 165.489C119.205 168.365 121.534 172.611 123.311 174.03C126.042 176.208 128.101 175.268 128.576 171.627L128.81 169.826L130.915 170.173C136.169 171.038 143.175 167.062 143.175 163.213C143.175 162.398 143.595 161.893 145.154 160.835C149.085 158.169 150.929 154.577 150.917 149.615C150.907 145.75 150.023 142.63 147.864 138.849C143.979 132.044 134.804 125.816 125.83 123.893C122.392 123.157 116.763 123.237 113.014 124.074ZM123.906 124.801C125.076 125.003 126.772 125.348 127.674 125.569L129.315 125.97L127.59 126.77C125.41 127.781 122.693 130.156 122.693 131.05C122.693 132.048 123.06 131.901 124.563 130.305C125.302 129.52 126.733 128.515 127.741 128.071C130.402 126.901 132.332 127.205 136.189 129.404C139.146 131.09 145.172 135.863 143.302 135.039C141.891 134.417 138.677 134.582 136.994 135.362C135.48 136.063 135.453 136.063 134.629 135.366C133.55 134.452 132.357 134.118 131.843 134.585C131.568 134.835 131.809 135.131 132.587 135.497C134.157 136.234 135.011 137.166 135.41 138.577C135.88 140.244 136.548 140.037 136.548 138.223C136.548 136.736 136.587 136.692 138.404 136.176C140.611 135.548 142.541 135.797 144.425 136.951C146.328 138.116 147.459 139.812 148.653 143.292C149.56 145.937 149.671 146.795 149.523 150.066C149.382 153.205 149.184 154.11 148.304 155.659C147.195 157.61 144.851 159.769 142.794 160.735C141.661 161.268 141.582 161.425 141.808 162.707C142.021 163.921 141.885 164.274 140.751 165.448C138.619 167.655 136.29 168.681 132.975 168.874C130.597 169.013 129.72 168.898 127.983 168.219C124.654 166.917 123.449 165.024 125.091 163.674C125.795 163.095 126.377 163.051 130.279 163.281C133.121 163.448 134.953 163.405 135.461 163.158C136.354 162.723 136.8 161.593 136.343 160.922C135.979 160.387 135.142 160.76 135.142 161.458C135.142 162.282 133.999 162.409 130.288 161.999C126.409 161.571 125.376 161.712 123.998 162.858C122.163 164.384 123.291 167.226 126.38 168.862C127.531 169.472 127.58 169.593 127.361 171.306C126.928 174.69 125.097 174.869 122.742 171.758C121.008 169.468 120.02 166.991 119.465 163.541L118.986 160.563H113.482C107.135 160.563 104.561 160.039 102.39 158.307C100.693 156.954 100.158 156.111 99.7661 154.178C99.0086 150.439 103.703 146.33 108.734 146.33C111.521 146.33 112.824 147.103 112.502 148.564C112.128 150.262 111.044 151.434 108.767 152.602C106.855 153.582 105.929 154.724 107.046 154.724C107.725 154.724 110.454 153.364 111.021 152.743C111.749 151.947 112.041 151.979 119.491 153.677C129.591 155.98 135.4 155.626 139.35 152.466C141.043 151.111 143.377 147.49 143.657 145.783C143.877 144.447 142.668 145.013 142.1 146.513C141.343 148.512 139.308 151.15 137.799 152.087C136.155 153.108 132.316 153.994 129.536 153.994C126.829 153.995 120.684 152.93 120.684 152.46C120.684 151.83 121.577 150.53 122.436 149.911C123.227 149.34 123.237 149.277 122.574 149.046C121.665 148.729 120.444 149.705 119.834 151.237L119.376 152.39L116.315 151.702C114.632 151.323 113.217 150.98 113.171 150.938C113.126 150.897 113.309 150.184 113.579 149.355C114.163 147.555 116.132 145.992 119.798 144.415C121.968 143.481 122.682 143.348 124.859 143.474C127.223 143.611 127.776 143.813 130.159 145.405C130.921 145.914 131.264 145.421 130.753 144.554C130.512 144.144 129.156 143.307 127.739 142.693C124.953 141.484 123.084 139.81 123.112 138.547C123.121 138.111 123.366 137.151 123.656 136.414C123.95 135.665 124.039 134.86 123.856 134.592C123.435 133.972 122.942 134.457 122.346 136.075C121.673 137.904 121.787 139.342 122.713 140.703L123.535 141.913L121.811 142.335C119.562 142.886 117.625 143.798 115.33 145.39L113.469 146.681L111.956 145.74C110.65 144.927 110.138 144.822 108.206 144.976C104.238 145.292 100.507 147.706 98.9074 150.992C98.1171 152.615 98.1155 152.616 96.4484 152.375C93.964 152.017 90.7993 150.578 89.88 149.388C88.5997 147.731 88.0523 145.713 88.2242 143.284C88.4294 140.383 89.7145 137.994 92.366 135.585C94.2254 133.896 100.583 129.767 100.892 130.048C100.959 130.109 100.727 130.883 100.376 131.767C99.9817 132.76 99.7372 134.565 99.7364 136.486L99.7352 139.597L98.1612 140.42C97.2958 140.873 96.5877 141.393 96.5877 141.576C96.5877 142.295 97.3942 142.29 98.7516 141.562C99.7785 141.011 100.707 140.829 102.095 140.907C104.537 141.044 104.801 140.14 102.467 139.638L100.916 139.305L101.072 135.782C101.207 132.716 101.375 132.029 102.366 130.493C103.338 128.985 103.92 128.555 106.371 127.53C107.948 126.871 110.207 126.073 111.39 125.756L113.542 125.18L112.883 125.993C111.786 127.347 110.696 129.671 110.418 131.245C110.274 132.064 109.95 132.729 109.698 132.723C108.372 132.693 107.833 132.882 107.833 133.375C107.833 133.775 108.294 133.925 109.54 133.931C110.479 133.935 112.033 134.263 112.994 134.659C113.955 135.055 114.916 135.282 115.129 135.162C115.726 134.827 114.33 133.636 112.804 133.178C111.256 132.714 111.22 132.559 112.067 129.969C112.769 127.822 114.663 125.654 116.46 124.943C117.925 124.363 121.021 124.304 123.906 124.801Z" fill="white" stroke="white"/>
<path d="M155.313 363.169C155.313 382.384 139.549 398 120.054 398C100.559 398 84.7948 382.384 84.7948 363.169C84.7948 343.954 100.559 328.338 120.054 328.338C139.549 328.338 155.313 343.954 155.313 363.169Z" stroke="#9E9E9E" stroke-width="4"/>
<path d="M115.46 375.356C116.589 376.63 116.603 380.012 116.532 381.493H124.243C124.314 380.364 124.628 377.557 125.314 375.356C126.171 372.605 130.883 368.162 130.669 364.141C130.455 360.12 126.385 354.195 120.601 354.195C115.675 354.195 111.605 356.1 110.32 361.39C109.034 366.68 110.962 370.278 115.46 375.356Z" stroke="#9E9E9E"/>
<path fill-rule="evenodd" clip-rule="evenodd" d="M117.246 352.833C111.659 354.164 107.823 359.377 108.203 365.12C108.383 367.826 109.09 369.512 111.183 372.22C112.148 373.468 113.351 375.345 113.856 376.389C114.361 377.433 114.648 380.514 114.648 380.514H116.217H117.807C117.807 380.514 117.807 378.691 117.807 377.502C117.392 374.481 115.76 372.818 114.076 370.609C111.976 367.854 111.517 366.698 111.521 364.164C111.533 355.218 123.933 352.488 127.972 360.542C129.624 363.835 129.104 366.851 126.239 370.609C124.555 372.818 122.946 374.484 122.508 377.502C122.477 378.561 122.477 380.514 122.477 380.514H123.98H125.667C125.667 380.514 126.019 377.317 126.603 376.14C127.187 374.962 128.283 373.24 129.039 372.314C131.293 369.549 132.162 367.319 132.168 364.287C132.183 356.745 124.756 351.044 117.246 352.833ZM117.519 358.476C115.322 359.481 113.639 361.86 113.65 363.947C113.66 365.677 115.369 365.854 115.742 364.164C116.263 361.801 117.367 360.501 119.088 360.227C120.63 359.981 121.159 359.682 121.159 359.055C121.159 357.763 119.616 357.517 117.519 358.476ZM114.649 382.05C114.651 383.444 114.75 383.736 115.717 385.185L116.783 386.783H120.081H123.393L124.53 385.256C125.577 383.723 125.667 383.471 125.667 382.053V380.514H120.158H114.648L114.649 382.05Z" fill="#9E9E9E"/>
<rect x="119.316" y="339.806" width="1.71364" height="9.73408" rx="0.856818" fill="#9E9E9E"/>
<rect width="1.70329" height="9.79392" rx="0.851645" transform="matrix(0.711401 -0.702786 0.711401 0.702786 99.1809 347.774)" fill="#9E9E9E"/>
<rect x="97.4673" y="370.701" width="1.69288" height="9.85341" rx="0.846442" transform="rotate(-90 97.4673 370.701)" fill="#9E9E9E"/>
<rect x="133.025" y="370.701" width="1.69288" height="9.85341" rx="0.846442" transform="rotate(-90 133.025 370.701)" fill="#9E9E9E"/>
<rect width="1.70329" height="9.79392" rx="0.851645" transform="matrix(0.711401 0.702786 -0.711401 0.702786 139.136 346.577)" fill="#9E9E9E"/>
</svg>
