<svg width="375" height="250" viewBox="0 0 375 250" fill="none" xmlns="http://www.w3.org/2000/svg">
<path d="M369.637 112.437C369.637 129.248 356.011 142.875 339.202 142.875C322.394 142.875 308.767 129.248 308.767 112.437C308.767 95.6271 322.394 82 339.202 82C356.011 82 369.637 95.6271 369.637 112.437Z" stroke="#9E9E9E" stroke-width="4"/>
<path d="M335.203 123.171C336.186 124.293 336.198 127.271 336.136 128.576H342.849C342.911 127.582 343.184 125.109 343.781 123.171C344.527 120.748 348.629 116.835 348.443 113.294C348.256 109.753 344.713 104.534 339.679 104.534C335.39 104.534 331.847 106.212 330.728 110.871C329.609 115.53 331.288 118.698 335.203 123.171Z" stroke="#9E9E9E"/>
<path fill-rule="evenodd" clip-rule="evenodd" d="M336.758 103.335C331.895 104.507 328.555 109.098 328.886 114.155C329.042 116.539 329.658 118.023 331.48 120.409C332.32 121.508 333.367 123.161 333.807 124.08C334.246 125 334.497 127.713 334.497 127.713H335.862H337.246C337.246 127.713 337.246 126.108 337.246 125.061C336.885 122.4 335.465 120.936 333.999 118.99C332.17 116.564 331.771 115.546 331.774 113.314C331.784 105.435 342.579 103.031 346.096 110.124C347.533 113.024 347.081 115.68 344.586 118.99C343.12 120.936 341.72 122.403 341.339 125.061C341.312 125.993 341.312 127.713 341.312 127.713H342.62H344.088C344.088 127.713 344.395 124.898 344.904 123.861C345.412 122.824 346.366 121.307 347.024 120.491C348.986 118.056 349.743 116.093 349.748 113.422C349.761 106.78 343.296 101.759 336.758 103.335ZM336.995 108.305C335.083 109.189 333.618 111.285 333.628 113.122C333.636 114.646 335.124 114.802 335.448 113.314C335.902 111.232 336.863 110.088 338.361 109.846C339.704 109.63 340.164 109.366 340.164 108.815C340.164 107.676 338.821 107.46 336.995 108.305ZM334.497 129.067C334.499 130.293 334.585 130.551 335.427 131.827L336.355 133.235H339.226H342.109L343.099 131.89C344.01 130.54 344.088 130.318 344.088 129.069V127.713H339.292H334.497L334.497 129.067Z" fill="#9E9E9E"/>
<rect x="338.56" y="91.8613" width="1.49176" height="8.57289" rx="0.745882" fill="#9E9E9E"/>
<rect width="1.49135" height="8.57527" rx="0.745676" transform="matrix(0.707303 -0.70691 0.707303 0.70691 321.032 98.8793)" fill="#9E9E9E"/>
<rect x="319.54" y="119.071" width="1.49094" height="8.57765" rx="0.745469" transform="rotate(-90 319.54 119.071)" fill="#9E9E9E"/>
<rect x="350.494" y="119.071" width="1.49094" height="8.57765" rx="0.745469" transform="rotate(-90 350.494 119.071)" fill="#9E9E9E"/>
<rect width="1.49135" height="8.57527" rx="0.745676" transform="matrix(0.707303 0.70691 -0.707303 0.70691 355.814 97.8251)" fill="#9E9E9E"/>
<path d="M185.45 221.158L74.2933 114.595L185.45 8.03192L185.45 221.158Z" fill="#884A07" stroke="#884A07" stroke-width="6"/>
<path fill-rule="evenodd" clip-rule="evenodd" d="M138.756 91.0193C132.47 92.3547 123.598 96.4323 119.404 99.9137C116.154 102.612 114.838 104.848 114.654 107.987C114.357 113.07 117.592 116.34 123.516 116.946C125.252 117.123 125.321 117.17 125.535 118.324C125.804 119.775 128.229 122.272 130.222 123.151C132.308 124.07 136.256 124.553 139.979 124.344C143.135 124.168 143.262 124.187 143.403 124.863C143.484 125.249 143.734 126.433 143.958 127.494C144.493 130.027 146.651 133.766 148.298 135.015C150.829 136.934 152.737 136.106 153.177 132.899L153.394 131.313L155.345 131.618C160.214 132.38 166.706 128.878 166.706 125.489C166.706 124.771 167.096 124.326 168.541 123.395C172.183 121.047 173.893 117.884 173.881 113.513C173.872 110.109 173.052 107.361 171.052 104.031C167.452 98.0377 158.949 92.5527 150.632 90.8595C147.446 90.2113 142.23 90.2813 138.756 91.0193ZM148.85 91.6589C149.934 91.8366 151.505 92.141 152.341 92.3354L153.862 92.689L152.264 93.3931C150.243 94.2834 147.725 96.3751 147.725 97.1628C147.725 98.0412 148.065 97.9124 149.458 96.5069C150.143 95.8152 151.469 94.9298 152.404 94.5393C154.87 93.5082 156.658 93.7762 160.232 95.7127C162.973 97.1979 168.557 101.402 166.824 100.676C165.517 100.128 162.539 100.273 160.978 100.96C159.575 101.578 159.55 101.578 158.787 100.964C157.787 100.159 156.681 99.8649 156.205 100.276C155.95 100.496 156.173 100.756 156.894 101.079C158.35 101.728 159.141 102.549 159.51 103.792C159.946 105.26 160.565 105.077 160.565 103.48C160.565 102.17 160.602 102.132 162.285 101.677C164.331 101.124 166.119 101.343 167.865 102.36C169.628 103.385 170.676 104.88 171.783 107.944C172.624 110.274 172.726 111.03 172.59 113.91C172.459 116.675 172.276 117.472 171.46 118.836C170.432 120.554 168.26 122.455 166.354 123.307C165.304 123.776 165.231 123.915 165.439 125.044C165.637 126.113 165.511 126.423 164.461 127.457C162.484 129.401 160.326 130.304 157.254 130.475C155.05 130.597 154.237 130.496 152.628 129.897C149.543 128.751 148.426 127.084 149.948 125.895C150.6 125.385 151.139 125.346 154.756 125.549C157.389 125.696 159.087 125.658 159.558 125.44C160.386 125.058 160.799 124.062 160.375 123.471C160.038 123 159.263 123.329 159.263 123.943C159.263 124.669 158.203 124.781 154.764 124.42C151.169 124.043 150.211 124.167 148.934 125.176C147.234 126.52 148.279 129.024 151.142 130.464C152.209 131.001 152.254 131.108 152.051 132.617C151.65 135.597 149.953 135.754 147.77 133.014C146.164 130.998 145.248 128.816 144.734 125.778L144.29 123.155H139.189C133.307 123.155 130.922 122.694 128.91 121.169C127.337 119.976 126.841 119.234 126.478 117.532C125.776 114.239 130.127 110.62 134.789 110.62C137.372 110.62 138.579 111.3 138.281 112.588C137.935 114.083 136.93 115.115 134.82 116.143C133.048 117.007 132.19 118.012 133.225 118.012C133.854 118.012 136.383 116.815 136.909 116.268C137.583 115.567 137.853 115.595 144.758 117.091C154.118 119.119 159.501 118.807 163.162 116.024C164.731 114.831 166.894 111.642 167.154 110.138C167.357 108.961 166.237 109.46 165.711 110.781C165.009 112.542 163.123 114.865 161.725 115.69C160.201 116.589 156.644 117.37 154.067 117.37C151.558 117.37 145.864 116.432 145.864 116.019C145.864 115.463 146.691 114.319 147.487 113.774C148.221 113.271 148.23 113.215 147.615 113.012C146.773 112.732 145.641 113.593 145.076 114.942L144.651 115.957L141.815 115.351C140.255 115.018 138.944 114.715 138.901 114.679C138.859 114.642 139.029 114.015 139.279 113.284C139.821 111.699 141.645 110.322 145.042 108.933C147.053 108.111 147.716 107.994 149.732 108.105C151.924 108.225 152.436 108.403 154.645 109.805C155.35 110.253 155.668 109.82 155.195 109.056C154.971 108.695 153.714 107.957 152.402 107.416C149.82 106.352 148.087 104.877 148.113 103.766C148.122 103.382 148.349 102.536 148.618 101.886C148.891 101.227 148.972 100.519 148.803 100.282C148.413 99.7363 147.956 100.163 147.403 101.589C146.78 103.199 146.886 104.466 147.743 105.664L148.506 106.73L146.908 107.102C144.823 107.587 143.029 108.39 140.902 109.792L139.177 110.929L137.775 110.1C136.565 109.384 136.09 109.292 134.299 109.428C130.622 109.706 127.165 111.832 125.683 114.725C124.95 116.155 124.949 116.156 123.404 115.944C121.101 115.629 118.169 114.361 117.317 113.313C116.13 111.853 115.623 110.076 115.782 107.937C115.972 105.383 117.163 103.278 119.62 101.157C121.344 99.6688 127.235 96.0331 127.522 96.2806C127.584 96.3343 127.369 97.0156 127.044 97.7944C126.678 98.6689 126.452 100.258 126.451 101.95L126.45 104.69L124.991 105.415C124.189 105.814 123.533 106.272 123.533 106.433C123.533 107.066 124.28 107.062 125.538 106.421C126.49 105.936 127.351 105.775 128.637 105.844C130.9 105.964 131.145 105.168 128.981 104.726L127.544 104.433L127.688 101.33C127.814 98.63 127.97 98.0245 128.887 96.6724C129.789 95.3437 130.327 94.9654 132.599 94.0629C134.061 93.4825 136.154 92.7793 137.25 92.5003L139.245 91.9931L138.634 92.7092C137.617 93.9016 136.607 95.948 136.35 97.3348C136.217 98.0557 135.916 98.6413 135.682 98.6361C134.454 98.6098 133.954 98.776 133.954 99.2105C133.954 99.5624 134.382 99.6945 135.536 99.6997C136.406 99.7035 137.846 99.9921 138.737 100.341C139.628 100.69 140.518 100.89 140.715 100.784C141.269 100.489 139.975 99.44 138.561 99.0369C137.127 98.6281 137.093 98.4918 137.878 96.2109C138.528 94.3197 140.284 92.4106 141.949 91.7842C143.307 91.2732 146.176 91.2211 148.85 91.6589Z" fill="white" stroke="white"/>
<path d="M191.45 8.03196L302.607 114.595L191.45 221.158L191.45 8.03196Z" stroke="#9E9E9E" stroke-width="6"/>
<path d="M223.433 104.868L223.232 120.524C220.472 121.722 218.568 124.448 218.558 127.677C218.548 131.076 220.779 133.959 223.79 135.055L223.813 127.746L228.981 127.731L229.044 135.124C232.148 134.095 234.311 131.114 234.321 127.715C234.331 124.485 232.445 121.772 229.692 120.59L229.739 105.123C229.742 104.443 229.226 103.935 228.537 103.937L224.575 103.949C223.8 103.866 223.348 104.273 223.433 104.868Z" fill="#9E9E9E"/>
<path d="M229.695 119.57L229.743 104.103C232.503 102.905 234.406 100.18 234.416 96.9508C234.426 93.5514 232.196 90.6687 229.184 89.5729L229.162 96.8815L223.993 96.897L223.93 89.5037C220.826 90.5327 218.663 93.5136 218.653 96.9129C218.643 100.142 220.68 103.686 223.433 104.868L223.311 119.58C223.309 120.26 223.748 120.693 224.437 120.691L228.4 120.679C229.175 120.762 229.779 120.165 229.695 119.57Z" fill="#9E9E9E"/>
<path d="M250.032 131.528L249.77 115.286L249.807 115.286C250.431 115.285 250.937 114.759 250.913 114.121C250.889 113.514 250.349 113.06 249.747 113.061L248.215 113.064C247.864 113.065 247.581 112.778 247.583 112.423L247.661 97.8803C247.665 97.2186 247.78 96.5616 248.002 95.9375L248.006 95.9247C248.302 95.093 248.407 94.2056 248.313 93.3298L247.953 89.973C247.924 89.7051 247.701 89.5032 247.434 89.5037L245.931 89.5063C245.664 89.5068 245.439 89.7096 245.407 89.9775L245.012 93.3314C244.908 94.2089 245.003 95.0974 245.29 95.9295L245.295 95.9454C245.51 96.5682 245.617 97.2242 245.614 97.8851L245.535 112.426C245.533 112.781 245.247 113.07 244.896 113.07L243.355 113.073C242.759 113.074 242.222 113.526 242.188 114.128C242.151 114.769 242.653 115.299 243.28 115.298L243.368 115.298L242.93 131.541C242.92 133.523 244.501 135.128 246.462 135.124C248.423 135.121 250.022 133.51 250.032 131.528Z" fill="#9E9E9E"/>
<path d="M67.7672 112.642C67.7672 129.452 54.1409 143.079 37.3322 143.079C20.5236 143.079 6.89722 129.452 6.89722 112.642C6.89722 95.8315 20.5236 82.2043 37.3322 82.2043C54.1409 82.2043 67.7672 95.8315 67.7672 112.642Z" fill="#884A07" stroke="#884A07" stroke-width="4"/>
<path d="M40.1042 120.079H34.2663L33.0461 96.7034H41.3244L40.1042 120.079ZM32.9504 128.261C32.9504 126.922 33.3093 125.909 34.0271 125.223C34.7449 124.537 35.7896 124.194 37.1614 124.194C38.4853 124.194 39.5061 124.545 40.2239 125.247C40.9576 125.949 41.3244 126.954 41.3244 128.261C41.3244 129.522 40.9576 130.518 40.2239 131.252C39.4901 131.97 38.4693 132.329 37.1614 132.329C35.8215 132.329 34.7847 131.978 34.051 131.276C33.3173 130.558 32.9504 129.553 32.9504 128.261Z" fill="white"/>
<path d="M48.8972 163L45.3635 197.46L76.9739 183.29L48.8972 163ZM324.977 162.313C318.792 188.599 283.007 243 188.397 243V249C285.739 249 323.983 192.734 330.817 163.687L324.977 162.313ZM188.397 243C117.397 243 79.5425 212.361 62.4578 186.004L57.423 189.267C75.6461 217.381 115.424 249 188.397 249V243Z" fill="#884A07"/>
</svg>
