<svg width="280" height="400" viewBox="0 0 280 400" fill="none" xmlns="http://www.w3.org/2000/svg">
<path d="M156.003 36.831C156.003 56.0377 140.174 71.662 120.581 71.662C100.987 71.662 85.1582 56.0377 85.1582 36.831C85.1582 17.6243 100.987 2 120.581 2C140.174 2 156.003 17.6243 156.003 36.831Z" fill="#884A07" stroke="#884A07" stroke-width="4"/>
<path d="M123.327 44.2058H117.489L116.268 20.8303H124.547L123.327 44.2058ZM116.173 52.3884C116.173 51.0486 116.532 50.0357 117.249 49.3499C117.967 48.664 119.012 48.321 120.384 48.321C121.708 48.321 122.728 48.672 123.446 49.3738C124.18 50.0756 124.547 51.0805 124.547 52.3884C124.547 53.6485 124.18 54.6454 123.446 55.3792C122.712 56.0969 121.692 56.4558 120.384 56.4558C119.044 56.4558 118.007 56.1049 117.273 55.4031C116.54 54.6853 116.173 53.6804 116.173 52.3884Z" fill="white"/>
<path d="M234.046 203.053L120.526 322.097L7.00619 203.053L234.046 203.053Z" stroke="#9E9E9E" stroke-width="6"/>
<path d="M108.441 240.184L108.223 257.961C105.232 259.321 103.169 262.416 103.158 266.082C103.147 269.942 105.564 273.215 108.828 274.46L108.852 266.161L114.454 266.143L114.523 274.538C117.887 273.37 120.231 269.985 120.242 266.125C120.253 262.459 118.208 259.377 115.224 258.036L115.276 240.474C115.278 239.702 114.72 239.124 113.973 239.127L109.679 239.14C108.839 239.046 108.349 239.508 108.441 240.184Z" fill="#9E9E9E"/>
<path d="M115.228 256.878L115.279 239.316C118.271 237.955 120.334 234.861 120.344 231.194C120.356 227.335 117.938 224.061 114.674 222.817L114.65 231.116L109.048 231.133L108.98 222.739C105.616 223.907 103.272 227.292 103.26 231.151C103.25 234.818 105.457 238.842 108.441 240.184L108.309 256.888C108.307 257.66 108.783 258.152 109.529 258.15L113.824 258.136C114.664 258.23 115.319 257.553 115.228 256.878Z" fill="#9E9E9E"/>
<path d="M137.269 270.455L136.985 252.013L137.025 252.013C137.702 252.012 138.25 251.414 138.223 250.691C138.198 250.001 137.612 249.486 136.96 249.487L135.3 249.49C134.919 249.491 134.613 249.165 134.615 248.762L134.699 232.25C134.703 231.498 134.828 230.752 135.069 230.044L135.073 230.029C135.394 229.085 135.507 228.077 135.405 227.083L135.015 223.271C134.984 222.967 134.742 222.738 134.453 222.739L132.824 222.742C132.535 222.742 132.291 222.972 132.257 223.277L131.828 227.085C131.716 228.081 131.819 229.09 132.129 230.035L132.135 230.053C132.367 230.76 132.484 231.505 132.48 232.255L132.395 248.766C132.393 249.169 132.083 249.496 131.703 249.497L130.032 249.5C129.386 249.502 128.805 250.015 128.767 250.698C128.728 251.426 129.272 252.028 129.951 252.027L130.046 252.026L129.572 270.469C129.561 272.721 131.274 274.542 133.4 274.538C135.525 274.534 137.258 272.706 137.269 270.455Z" fill="#9E9E9E"/>
<path d="M7.00627 196.947L120.526 77.9028L234.047 196.947L7.00627 196.947Z" fill="#884A07" stroke="#884A07" stroke-width="6"/>
<path fill-rule="evenodd" clip-rule="evenodd" d="M113.51 123.968C106.698 125.485 97.0823 130.115 92.5367 134.067C89.014 137.131 87.5877 139.67 87.3888 143.234C87.0665 149.005 90.5723 152.719 96.9927 153.406C98.8745 153.608 98.9495 153.662 99.181 154.972C99.4723 156.619 102.101 159.454 104.262 160.452C106.522 161.495 110.801 162.044 114.835 161.807C118.256 161.606 118.394 161.628 118.547 162.396C118.635 162.835 118.905 164.179 119.148 165.383C119.728 168.259 122.067 172.505 123.852 173.923C126.594 176.102 128.663 175.162 129.14 171.521L129.375 169.72L131.489 170.066C136.767 170.932 143.803 166.955 143.803 163.107C143.803 162.292 144.225 161.787 145.791 160.729C149.739 158.063 151.591 154.471 151.579 149.509C151.569 145.644 150.681 142.523 148.513 138.743C144.611 131.937 135.395 125.709 126.381 123.787C122.929 123.051 117.275 123.13 113.51 123.968ZM124.45 124.695C125.625 124.896 127.328 125.242 128.234 125.463L129.882 125.864L128.15 126.664C125.96 127.675 123.231 130.05 123.231 130.944C123.231 131.941 123.599 131.795 125.109 130.199C125.852 129.414 127.289 128.408 128.301 127.965C130.974 126.794 132.912 127.099 136.786 129.297C139.756 130.984 145.808 135.757 143.93 134.933C142.513 134.311 139.286 134.476 137.595 135.256C136.074 135.957 136.047 135.957 135.22 135.26C134.136 134.346 132.937 134.012 132.421 134.479C132.145 134.729 132.387 135.024 133.168 135.39C134.746 136.128 135.603 137.06 136.003 138.471C136.476 140.138 137.147 139.931 137.147 138.117C137.147 136.63 137.186 136.586 139.011 136.07C141.228 135.442 143.166 135.691 145.059 136.845C146.97 138.009 148.105 139.706 149.305 143.185C150.216 145.831 150.327 146.689 150.179 149.96C150.037 153.099 149.839 154.004 148.955 155.553C147.84 157.504 145.487 159.662 143.421 160.629C142.282 161.162 142.203 161.319 142.43 162.601C142.644 163.815 142.507 164.168 141.369 165.342C139.227 167.548 136.888 168.575 133.559 168.768C131.17 168.907 130.289 168.792 128.544 168.113C125.201 166.811 123.991 164.918 125.64 163.568C126.346 162.989 126.931 162.945 130.851 163.175C133.705 163.342 135.545 163.299 136.055 163.052C136.952 162.617 137.4 161.487 136.941 160.815C136.575 160.28 135.735 160.654 135.735 161.351C135.735 162.175 134.587 162.303 130.859 161.893C126.964 161.465 125.926 161.606 124.542 162.752C122.699 164.277 123.832 167.12 126.934 168.756C128.09 169.366 128.139 169.487 127.919 171.2C127.485 174.584 125.646 174.763 123.28 171.652C121.538 169.362 120.547 166.885 119.989 163.435L119.507 160.457H113.98C107.605 160.457 105.019 159.933 102.839 158.201C101.135 156.847 100.597 156.005 100.204 154.072C99.4428 150.333 104.158 146.224 109.211 146.224C112.01 146.224 113.318 146.996 112.995 148.458C112.62 150.156 111.531 151.328 109.244 152.496C107.324 153.476 106.394 154.618 107.515 154.618C108.198 154.618 110.939 153.258 111.508 152.637C112.239 151.84 112.532 151.873 120.015 153.571C130.159 155.874 135.993 155.519 139.961 152.359C141.662 151.005 144.006 147.384 144.287 145.677C144.508 144.341 143.294 144.907 142.724 146.407C141.963 148.406 139.919 151.044 138.403 151.981C136.752 153.002 132.897 153.888 130.104 153.888C127.385 153.888 121.214 152.824 121.214 152.354C121.214 151.723 122.11 150.424 122.973 149.805C123.768 149.234 123.778 149.171 123.112 148.94C122.199 148.622 120.972 149.599 120.36 151.131L119.899 152.284L116.825 151.596C115.134 151.217 113.714 150.873 113.668 150.832C113.622 150.791 113.806 150.078 114.077 149.249C114.664 147.449 116.641 145.885 120.323 144.309C122.502 143.375 123.22 143.242 125.406 143.368C127.781 143.505 128.336 143.706 130.73 145.299C131.495 145.808 131.84 145.315 131.326 144.448C131.084 144.038 129.722 143.201 128.299 142.586C125.501 141.378 123.623 139.704 123.652 138.441C123.661 138.005 123.907 137.045 124.199 136.307C124.494 135.559 124.583 134.754 124.4 134.486C123.976 133.866 123.481 134.35 122.882 135.969C122.206 137.798 122.321 139.236 123.251 140.597L124.077 141.807L122.345 142.229C120.086 142.78 118.141 143.692 115.836 145.284L113.966 146.575L112.447 145.634C111.135 144.821 110.621 144.716 108.68 144.87C104.695 145.186 100.948 147.6 99.3412 150.885C98.5473 152.509 98.5457 152.51 96.8713 152.269C94.3761 151.911 91.1975 150.472 90.2742 149.282C88.9882 147.624 88.4384 145.606 88.611 143.177C88.8172 140.277 90.108 137.888 92.771 135.479C94.6387 133.789 101.024 129.661 101.335 129.942C101.402 130.003 101.168 130.777 100.816 131.661C100.42 132.654 100.175 134.458 100.174 136.38L100.173 139.491L98.5917 140.314C97.7224 140.767 97.0113 141.287 97.0113 141.469C97.0113 142.189 97.8213 142.184 99.1847 141.456C100.216 140.905 101.149 140.723 102.543 140.801C104.996 140.937 105.261 140.034 102.916 139.532L101.358 139.199L101.515 135.675C101.651 132.61 101.82 131.922 102.815 130.387C103.792 128.878 104.375 128.449 106.837 127.424C108.422 126.765 110.69 125.967 111.878 125.65L114.04 125.074L113.378 125.887C112.276 127.241 111.181 129.565 110.903 131.139C110.758 131.958 110.432 132.623 110.179 132.617C108.847 132.587 108.306 132.776 108.306 133.269C108.306 133.669 108.769 133.819 110.02 133.824C110.963 133.829 112.524 134.157 113.49 134.553C114.455 134.949 115.42 135.176 115.633 135.056C116.233 134.721 114.832 133.53 113.299 133.072C111.744 132.608 111.708 132.453 112.559 129.863C113.263 127.716 115.166 125.548 116.971 124.837C118.443 124.257 121.552 124.197 124.45 124.695Z" fill="white" stroke="white"/>
<path d="M156.003 363.169C156.003 382.376 140.174 398 120.581 398C100.987 398 85.1582 382.376 85.1582 363.169C85.1582 343.962 100.987 328.338 120.581 328.338C140.174 328.338 156.003 343.962 156.003 363.169Z" stroke="#9E9E9E" stroke-width="4"/>
<path d="M115.967 375.356C117.101 376.63 117.115 380.012 117.043 381.493H124.788C124.86 380.364 125.175 377.557 125.864 375.356C126.724 372.605 131.458 368.162 131.242 364.141C131.027 360.12 126.94 354.195 121.131 354.195C116.182 354.195 112.095 356.1 110.804 361.39C109.513 366.68 111.449 370.278 115.967 375.356Z" stroke="#9E9E9E"/>
<path fill-rule="evenodd" clip-rule="evenodd" d="M117.761 352.833C112.149 354.164 108.296 359.377 108.678 365.119C108.859 367.826 109.569 369.512 111.671 372.22C112.64 373.468 113.848 375.345 114.355 376.389C114.862 377.433 115.151 380.514 115.151 380.514H116.727H118.324C118.324 380.514 118.324 378.691 118.324 377.502C117.907 374.481 116.268 372.818 114.577 370.609C112.467 367.854 112.007 366.698 112.01 364.164C112.022 355.218 124.476 352.488 128.534 360.542C130.192 363.835 129.671 366.851 126.793 370.609C125.101 372.818 123.486 374.484 123.045 377.502C123.014 378.561 123.014 380.514 123.014 380.514H124.523H126.218C126.218 380.514 126.572 377.317 127.159 376.14C127.745 374.962 128.846 373.24 129.605 372.314C131.869 369.549 132.742 367.319 132.748 364.287C132.763 356.745 125.303 351.044 117.761 352.833ZM118.034 358.476C115.828 359.481 114.138 361.86 114.149 363.947C114.159 365.677 115.875 365.854 116.249 364.164C116.773 361.801 117.882 360.501 119.61 360.227C121.159 359.981 121.691 359.682 121.691 359.055C121.691 357.763 120.141 357.517 118.034 358.476ZM115.152 382.05C115.154 383.444 115.254 383.736 116.224 385.185L117.295 386.783H120.608H123.934L125.076 385.256C126.128 383.723 126.218 383.471 126.218 382.053V380.514H120.685H115.151L115.152 382.05Z" fill="#9E9E9E"/>
<rect x="119.84" y="339.806" width="1.72115" height="9.73407" rx="0.860576" fill="#9E9E9E"/>
<rect width="1.70708" height="9.81569" rx="0.853538" transform="matrix(0.712937 -0.701228 0.712937 0.701228 99.616 347.774)" fill="#9E9E9E"/>
<rect x="97.8948" y="370.701" width="1.69288" height="9.89662" rx="0.846442" transform="rotate(-90 97.8948 370.701)" fill="#9E9E9E"/>
<rect x="133.609" y="370.701" width="1.69288" height="9.89663" rx="0.846442" transform="rotate(-90 133.609 370.701)" fill="#9E9E9E"/>
<rect width="1.70708" height="9.81569" rx="0.853538" transform="matrix(0.712937 0.701228 -0.712937 0.701228 139.746 346.577)" fill="#9E9E9E"/>
<path d="M184.368 48.6919L218.73 44.3014L205.352 76.2547L184.368 48.6919ZM183.698 349.314C213.234 342.539 274 303.464 274 200.465L280 200.465C280 306.306 217.257 347.772 185.039 355.162L183.698 349.314ZM274 200.465C274 120.969 237.806 79.5723 207.741 61.6982L210.807 56.5408C242.692 75.4971 280 118.854 280 200.465L274 200.465Z" fill="#884A07"/>
</svg>
