<svg width="75" height="150" viewBox="0 0 75 150" fill="none" xmlns="http://www.w3.org/2000/svg">
<path fill-rule="evenodd" clip-rule="evenodd" d="M54.5522 2.33167C43.2319 7.58454 34.968 18.4895 36.6883 25.9082C37.0714 27.561 36.6631 27.363 34.8132 27.9283C18.14 33.0235 9.4791 38.925 9.4791 94.8623C9.57466 129.619 8.38539 139.057 2.13902 142.512C-0.801433 144.138 -0.759844 144.628 2.57173 147.602L5.26088 150L9.20478 147.839C13.5124 145.479 13.5734 144.601 9.56493 142.729C6.99612 141.528 6.95631 141.409 8.2146 138.665C10.333 134.044 11.3577 122.327 11.2435 104.033C11.1223 84.7248 11.4665 83.7477 15.322 92.4699C19.8348 102.679 21.3577 111.386 21.4896 127.736L21.6073 142.208L26.7325 142.838C32.839 143.587 35.9361 142.813 37.5077 140.142C38.6907 138.134 26.667 136.99 24.1194 138.868C23.546 139.292 23.2151 134.901 23.1779 126.393C23.1124 111.018 21.6294 102.951 16.8254 91.8331C15.0397 87.7001 13.6743 83.9353 13.792 83.4663C13.9088 82.9972 14.7946 77.383 15.7591 70.9903C18.196 54.8494 27.4997 34.9149 32.5975 34.9149C32.9169 34.9149 33.4222 45.8069 33.7213 59.1182C34.0195 72.4305 34.5814 85.3426 34.9689 87.8129C35.3574 90.2831 35.3707 94.5499 34.9999 97.2946C34.2734 102.667 34.7309 105.778 36.2485 105.778C39.3429 105.778 40.7782 96.1358 38.2819 92.1156C36.2918 88.9108 35.0698 72.4814 35.3618 52.8802L35.6229 35.4139L36.2883 46.3927C37.3086 63.2103 39.3296 69.9423 47.8864 85.0312C49.5721 88.0025 51.4029 92.427 51.956 94.8623C54.2283 104.877 55.415 106.559 57.1599 102.238C58.7333 98.3436 58.4014 95.9941 55.9362 93.5768C47.5802 85.3816 39.6181 65.8263 38.6474 51.1116C38.2226 44.674 37.666 37.7494 37.4103 35.7233C36.8281 31.1062 37.6572 30.5233 41.9382 32.5404C53.5673 38.0219 75 23.3681 75 9.93701C75 0.781657 65.5044 -2.74954 54.5522 2.33167ZM68.2599 2.93151C72.4339 4.72206 73.6992 8.29018 71.9702 13.3973C67.5944 26.3194 47.9068 35.886 40.5056 28.6869C31.7966 20.2162 56.06 -2.2994 68.2599 2.93151ZM31.2215 32.229C23.9513 37.1755 16.5997 51.3033 13.9716 65.3761C13.0514 70.3056 12.2753 73.216 12.247 71.8437C11.9426 56.8256 19.726 38.2704 28.5306 33.0235C32.2824 30.7888 34.1478 30.2369 31.2215 32.229Z" fill="#12499F"/>
</svg>
