<svg width="150" height="150" viewBox="0 0 150 150" fill="none" xmlns="http://www.w3.org/2000/svg">
<g clip-path="url(#clip0_4889_2802)">
<path d="M44.7793 90.4413L54.9264 72.7942C52.2793 71.4707 49.8529 69.9266 47.4264 68.1619L36.397 87.353C39.2646 88.0148 42.1323 89.1177 44.7793 90.4413Z" fill="#0047A3"/>
<path d="M86.4705 127.941C86.2499 126.176 86.0293 124.191 86.0293 122.426C86.0293 121.324 86.0293 120.221 86.2499 119.118H63.7499C63.9705 120.221 63.9705 121.324 63.9705 122.426C63.9705 124.191 63.7499 126.176 63.5293 127.941H86.4705Z" fill="#0047A3"/>
<path d="M103.676 91.3235C106.103 89.7794 108.97 88.4559 111.838 87.5735L100.588 67.9412C98.1617 69.7059 95.7352 71.4706 93.0881 72.7941L103.676 91.3235Z" fill="#0047A3"/>
<path d="M27.5735 94.853C12.3529 94.853 0 107.206 0 122.427C0 137.647 12.3529 150 27.5735 150C42.7941 150 55.1471 137.647 55.1471 122.427C55.1471 107.206 42.7941 94.853 27.5735 94.853ZM27.5735 105.662C31.7647 105.662 35.2941 109.191 35.2941 113.382C35.2941 117.574 31.7647 121.103 27.5735 121.103C23.3824 121.103 19.8529 117.574 19.8529 113.382C19.8529 108.971 23.3824 105.662 27.5735 105.662ZM43.0147 136.544H12.1324V130.588C12.1324 129.485 12.7941 128.162 13.6765 127.5C15.8824 125.956 18.5294 124.632 21.1765 123.75C23.1618 123.088 25.3676 122.868 27.5735 122.868C29.7794 122.868 31.9853 123.309 33.9706 123.75C36.6176 124.412 39.2647 125.735 41.4706 127.5C42.3529 128.162 43.0147 129.485 43.0147 130.588V136.544Z" fill="#0047A3"/>
<path d="M108.088 34.1912C108.088 15.2206 92.8676 0 73.897 0C54.9264 0 39.7058 15.2206 39.7058 34.1912C39.7058 53.1618 54.9264 68.3824 73.897 68.3824C92.8676 68.3824 108.088 53.1618 108.088 34.1912ZM73.897 13.2353C79.1911 13.2353 83.3823 17.4265 83.3823 22.9412C83.3823 28.4559 79.1911 32.6471 73.897 32.6471C68.6029 32.6471 64.1911 28.4559 64.1911 22.9412C64.1911 17.4265 68.6029 13.2353 73.897 13.2353ZM93.0882 51.6176H54.7058V44.3382C54.7058 42.7941 55.3676 41.4706 56.6911 40.5882C59.5588 38.6029 62.647 37.0588 65.9558 35.9559C68.6029 35.2941 71.2499 34.8529 73.897 34.8529C76.544 34.8529 79.1911 35.2941 81.8382 35.9559C85.147 36.8382 88.4558 38.3824 91.1029 40.5882C92.2058 41.4706 92.8676 43.0147 93.0882 44.3382V51.6176Z" fill="#0047A3"/>
<path d="M122.427 94.853C107.206 94.853 94.853 107.206 94.853 122.427C94.853 137.647 107.206 150 122.427 150C137.647 150 150 137.647 150 122.427C150 107.206 137.647 94.853 122.427 94.853ZM122.427 105.662C126.618 105.662 130.147 109.191 130.147 113.382C130.147 117.574 126.618 121.103 122.427 121.103C118.235 121.103 114.706 117.574 114.706 113.382C114.706 108.971 118.235 105.662 122.427 105.662ZM137.868 136.544H106.985V130.588C106.985 129.485 107.647 128.162 108.529 127.5C110.735 125.956 113.382 124.632 116.029 123.75C118.015 123.088 120.221 122.868 122.427 122.868C124.632 122.868 126.838 123.309 128.824 123.75C131.471 124.412 134.118 125.735 136.324 127.5C137.206 128.162 137.868 129.485 137.868 130.588V136.544Z" fill="#0047A3"/>
</g>
<defs>
<clipPath id="clip0_4889_2802">
<rect width="150" height="150" fill="white"/>
</clipPath>
</defs>
</svg>
