<svg width="150" height="150" viewBox="0 0 150 150" fill="none" xmlns="http://www.w3.org/2000/svg">
<path d="M16.8623 42.8274C19.9077 42.8274 22.3765 40.3825 22.3765 37.3667C22.3765 34.3508 19.9077 31.906 16.8623 31.906C13.8169 31.906 11.3481 34.3508 11.3481 37.3667C11.3481 40.3825 13.8169 42.8274 16.8623 42.8274Z" fill="#12499F"/>
<path d="M23.2957 42.8274H34.324V33.7263H32.4856C30.0623 33.7218 27.7356 34.6763 26.0137 36.3816C24.2918 38.0868 23.3146 40.4041 23.2957 42.8274V42.8274Z" fill="#12499F"/>
<path d="M79.3563 33.7263H37.0811V55.5691C37.0886 56.5384 37.4795 57.4654 38.1683 58.1475C38.8571 58.8296 39.7878 59.2114 40.7571 59.2095H77.5184V63.7602H83.0326V37.3669C83.025 36.3975 82.6341 35.4705 81.9453 34.7884C81.2565 34.1062 80.3257 33.7244 79.3563 33.7263V33.7263Z" fill="#12499F"/>
<path d="M7.6719 22.8048C7.67677 22.4426 7.60858 22.0832 7.47141 21.748C7.33423 21.4127 7.13089 21.1086 6.87354 20.8538C6.61618 20.5989 6.31009 20.3985 5.97355 20.2646C5.63701 20.1307 5.27694 20.0661 4.91484 20.0745C4.55274 20.0661 4.19268 20.1308 3.85615 20.2647C3.51963 20.3986 3.21355 20.599 2.95619 20.8539C2.69884 21.1087 2.49549 21.4128 2.3583 21.748C2.22111 22.0833 2.15289 22.4427 2.15771 22.8048V63.7601H7.6719V54.6588H34.3238V45.5577H7.6719V22.8048Z" fill="#12499F"/>
<path d="M104.42 66.6638L134.373 37.1342L133.384 36.1452C133.25 36.0176 133.144 35.8642 133.071 35.6942C132.998 35.5241 132.961 35.3411 132.961 35.1561C132.961 34.9712 132.998 34.7881 133.071 34.6181C133.144 34.4481 133.25 34.2947 133.384 34.1671L130.417 31.2C130.318 31.0637 130.27 30.8962 130.283 30.7277C130.296 30.5593 130.368 30.4011 130.488 30.2816C130.607 30.1622 130.766 30.0894 130.934 30.0764C131.103 30.0635 131.27 30.1112 131.406 30.211L134.373 33.1781L135.362 32.1891L132.395 29.2222C132.296 29.0859 132.248 28.9183 132.261 28.7499C132.274 28.5814 132.346 28.4232 132.466 28.3037C132.585 28.1842 132.744 28.1114 132.912 28.0985C133.081 28.0855 133.248 28.1333 133.384 28.2331L136.422 31.2002L137.411 30.2112L134.373 27.2441C134.308 27.1793 134.256 27.1022 134.22 27.0171C134.184 26.9321 134.166 26.8409 134.165 26.7486C134.165 26.6564 134.183 26.565 134.218 26.4798C134.253 26.3945 134.305 26.317 134.37 26.2518C134.435 26.1866 134.513 26.135 134.598 26.0998C134.683 26.0647 134.775 26.0467 134.867 26.047C134.959 26.0473 135.051 26.0659 135.136 26.1016C135.221 26.1373 135.298 26.1895 135.362 26.2551L138.33 29.2222L139.319 28.2331L136.351 25.266C136.252 25.1297 136.204 24.9622 136.217 24.7938C136.23 24.6253 136.303 24.4671 136.422 24.3476C136.542 24.2282 136.7 24.1554 136.868 24.1425C137.037 24.1295 137.204 24.1772 137.341 24.277L140.308 27.2441L141.367 26.2551L138.4 23.288C138.3 23.1517 138.253 22.9842 138.266 22.8157C138.279 22.6473 138.351 22.4891 138.471 22.3696C138.59 22.2502 138.749 22.1774 138.917 22.1644C139.085 22.1515 139.253 22.1992 139.389 22.2989L142.356 25.266L143.345 24.277L140.378 21.3097C140.274 21.2283 140.198 21.1166 140.16 20.9901C140.122 20.8636 140.125 20.7285 140.166 20.6033C140.2 20.4661 140.27 20.3408 140.37 20.2411C140.469 20.1413 140.595 20.071 140.732 20.0379C140.864 20.008 141.003 20.0191 141.129 20.0695C141.255 20.12 141.363 20.2075 141.438 20.3206L144.405 23.2877C144.533 23.1537 144.686 23.0471 144.856 22.9742C145.026 22.9014 145.209 22.8638 145.394 22.8638C145.579 22.8638 145.762 22.9014 145.932 22.9742C146.102 23.0471 146.256 23.1537 146.383 23.2877L148.361 25.2657C148.893 25.7878 149.198 26.4985 149.209 27.2438C149.22 27.6152 149.149 27.9845 149.003 28.326C148.857 28.6676 148.638 28.9732 148.361 29.2219L107.387 69.6309C107.259 69.7648 107.106 69.8715 106.936 69.9443C106.766 70.0172 106.583 70.0548 106.398 70.0548C106.213 70.0548 106.03 70.0172 105.86 69.9443C105.69 69.8715 105.537 69.7648 105.409 69.6309L104.42 68.6418C104.181 68.3678 104.049 68.0165 104.049 67.6528C104.049 67.2891 104.181 66.9378 104.42 66.6638V66.6638Z" fill="#12499F"/>
<path d="M130.347 27.1733C129.826 27.6235 129.374 28.1471 129.005 28.7275C128.66 29.2337 128.442 29.8151 128.369 30.423C128.298 31.5537 123.071 26.3962 126.179 23.5704C128.581 21.3805 135.928 15.9407 134.798 13.8217C133.95 12.1968 141.368 17.0714 137.341 20.7449L130.347 27.1733Z" fill="#12499F"/>
<path d="M129.292 100.741C127.126 101.386 125.227 102.714 123.876 104.526C122.526 106.339 121.797 108.538 121.798 110.798H142.834C142.829 108.421 142.022 106.114 140.542 104.253C139.063 102.391 136.998 101.084 134.682 100.543C133.929 96.6923 131.769 93.2595 128.623 90.9139C125.477 88.5683 121.571 87.478 117.665 87.8555C113.759 88.233 110.133 90.0511 107.495 92.9557C104.856 95.8603 103.393 99.6432 103.392 103.567V140.38H108.651V103.567C108.676 101.041 109.61 98.608 111.28 96.7126C112.951 94.8172 115.248 93.5857 117.751 93.2429C120.254 92.9001 122.797 93.4689 124.916 94.8453C127.035 96.2218 128.588 98.3142 129.292 100.741V100.741Z" fill="#12499F"/>
<path d="M143.491 113.428H121.141C120.618 113.428 120.116 113.636 119.746 114.006C119.376 114.375 119.168 114.877 119.168 115.4C119.168 115.923 119.376 116.425 119.746 116.795C120.116 117.164 120.618 117.372 121.141 117.372H143.491C144.014 117.372 144.516 117.164 144.886 116.795C145.255 116.425 145.463 115.923 145.463 115.4C145.463 114.877 145.255 114.375 144.886 114.006C144.516 113.636 144.014 113.428 143.491 113.428Z" fill="#12499F"/>
<path d="M132.908 140.511C132.559 140.51 132.225 140.372 131.979 140.125C131.733 139.879 131.594 139.545 131.593 139.197V121.448C131.593 121.099 131.731 120.765 131.978 120.518C132.224 120.272 132.559 120.133 132.908 120.133C133.256 120.133 133.591 120.272 133.837 120.518C134.084 120.765 134.222 121.099 134.222 121.448V139.197C134.221 139.545 134.082 139.879 133.836 140.125C133.59 140.372 133.256 140.51 132.908 140.511V140.511Z" fill="#12499F"/>
<path d="M140.796 140.38C140.477 140.389 140.167 140.28 139.924 140.074C139.681 139.867 139.523 139.578 139.481 139.262L136.852 121.711C136.825 121.538 136.832 121.361 136.874 121.191C136.916 121.021 136.991 120.861 137.094 120.719C137.198 120.578 137.329 120.459 137.479 120.369C137.629 120.278 137.795 120.218 137.968 120.192C138.141 120.166 138.318 120.175 138.488 120.217C138.658 120.26 138.818 120.335 138.958 120.44C139.099 120.544 139.217 120.675 139.307 120.826C139.397 120.976 139.456 121.143 139.481 121.316L142.111 138.868C142.134 139.042 142.122 139.218 142.077 139.387C142.032 139.556 141.954 139.715 141.848 139.854C141.634 140.125 141.331 140.311 140.993 140.38H140.796Z" fill="#12499F"/>
<path d="M148.618 139.722C148.338 139.727 148.064 139.639 147.839 139.473C147.613 139.306 147.448 139.071 147.369 138.802L142.176 121.842C142.131 121.678 142.119 121.506 142.14 121.338C142.162 121.169 142.218 121.006 142.304 120.859C142.389 120.712 142.504 120.584 142.64 120.482C142.776 120.379 142.931 120.306 143.096 120.264C143.419 120.167 143.767 120.195 144.071 120.341C144.375 120.486 144.613 120.741 144.74 121.053L149.933 138.013C150 138.211 150.017 138.423 149.982 138.629C149.948 138.836 149.863 139.031 149.736 139.196C149.447 139.512 149.046 139.701 148.618 139.722V139.722Z" fill="#12499F"/>
<path d="M124.953 140.38H124.756C124.413 140.316 124.107 140.124 123.9 139.844C123.693 139.563 123.599 139.214 123.638 138.868L126.268 121.316C126.322 120.969 126.511 120.657 126.794 120.449C127.077 120.241 127.431 120.153 127.779 120.205C128.126 120.257 128.439 120.445 128.649 120.727C128.858 121.009 128.948 121.363 128.897 121.711L126.268 139.262C126.226 139.578 126.068 139.867 125.825 140.074C125.582 140.28 125.272 140.389 124.953 140.38V140.38Z" fill="#12499F"/>
<path d="M117.131 139.723C116.927 139.718 116.727 139.669 116.546 139.578C116.364 139.487 116.204 139.357 116.079 139.197C115.951 139.031 115.867 138.836 115.832 138.63C115.798 138.423 115.815 138.212 115.882 138.013L121.075 121.053C121.196 120.736 121.433 120.478 121.739 120.331C122.045 120.184 122.395 120.16 122.718 120.265C123.036 120.372 123.305 120.591 123.474 120.881C123.643 121.171 123.702 121.512 123.639 121.842L118.445 138.802C118.343 139.07 118.164 139.3 117.929 139.464C117.695 139.628 117.417 139.718 117.131 139.723V139.723Z" fill="#12499F"/>
<path d="M78.5709 98.1042C75.7909 98.1042 73.5669 103.155 73.5669 107.371C73.5669 109.938 74.4009 111.634 75.6705 112.542C76.3432 112.964 76.8301 113.627 77.0327 114.395L76.4489 134.216C76.4836 134.762 76.7247 135.273 77.1232 135.647C77.5217 136.021 78.0476 136.229 78.5941 136.229C79.1406 136.229 79.6665 136.021 80.065 135.647C80.4635 135.273 80.7046 134.762 80.7394 134.216L80.1555 114.395C80.3604 113.625 80.8509 112.963 81.527 112.542C82.7872 111.615 83.6212 109.938 83.6212 107.371C83.5656 103.154 81.3416 98.1042 78.5709 98.1042Z" fill="#12499F"/>
<path d="M10.4796 98.1042H9.55274V108.298C9.55274 108.368 9.53884 108.438 9.51183 108.503C9.48482 108.568 9.44523 108.628 9.39532 108.678C9.34541 108.728 9.28616 108.767 9.22096 108.794C9.15575 108.821 9.08586 108.835 9.01528 108.835C8.9447 108.835 8.87481 108.821 8.8096 108.794C8.74439 108.767 8.68514 108.728 8.63523 108.678C8.58532 108.628 8.54574 108.568 8.51873 108.503C8.49172 108.438 8.47781 108.368 8.47781 108.298V98.1042H7.07874V108.298C7.07874 108.368 7.06484 108.438 7.03783 108.503C7.01082 108.568 6.97123 108.628 6.92132 108.678C6.87141 108.728 6.81216 108.767 6.74696 108.794C6.68175 108.821 6.61186 108.835 6.54128 108.835C6.4707 108.835 6.40081 108.821 6.3356 108.794C6.27039 108.767 6.21114 108.728 6.16123 108.678C6.11133 108.628 6.07174 108.568 6.04473 108.503C6.01772 108.438 6.00381 108.368 6.00381 108.298V98.1042H4.57674V108.298C4.57674 108.368 4.56284 108.438 4.53583 108.503C4.50882 108.568 4.46923 108.628 4.41932 108.678C4.36941 108.728 4.31016 108.767 4.24495 108.794C4.17975 108.821 4.10986 108.835 4.03928 108.835C3.96869 108.835 3.89881 108.821 3.8336 108.794C3.76839 108.767 3.70914 108.728 3.65923 108.678C3.60932 108.628 3.56973 108.568 3.54272 108.503C3.51571 108.438 3.50181 108.368 3.50181 108.298V98.1042H2.57493C1.94205 101.155 1.58232 104.256 1.5 107.371C1.5 109.947 2.334 111.643 3.59424 112.551C4.2685 112.974 4.75829 113.636 4.9657 114.404L4.41923 134.207C4.41923 134.777 4.64573 135.324 5.04891 135.727C5.45209 136.13 5.99891 136.357 6.56908 136.357C7.13926 136.357 7.68608 136.13 8.08926 135.727C8.49243 135.324 8.71894 134.777 8.71894 134.207L8.13513 114.367C8.34029 113.6 8.82659 112.939 9.49732 112.514C10.7669 111.587 11.6009 109.91 11.6009 107.334C11.4567 104.234 11.0819 101.149 10.4796 98.1042V98.1042Z" fill="#12499F"/>
<path d="M71.0372 115.887V94.4347C71.0408 94.2242 71.003 94.015 70.9258 93.8192C70.8486 93.6233 70.7336 93.4445 70.5874 93.2931C70.4411 93.1417 70.2665 93.0205 70.0734 92.9366C69.8803 92.8527 69.6726 92.8076 69.4621 92.804C69.4497 92.804 69.4372 92.804 69.4248 92.804C69.4248 92.804 66.6448 92.9059 66.1905 100.718L65.3938 114.59C65.3938 115.294 67.0433 115.859 67.6641 116.091L66.849 133.948C66.887 134.56 67.1569 135.134 67.6037 135.554C68.0505 135.974 68.6406 136.208 69.2537 136.208C69.8668 136.208 70.4569 135.974 70.9037 135.554C71.3505 135.134 71.6204 134.56 71.6584 133.948L71.0372 115.887Z" fill="#12499F"/>
<path d="M38.0569 89.0972C33.1084 89.0972 28.2711 90.5645 24.1565 93.3138C20.042 96.063 16.8351 99.9706 14.9414 104.542C13.0477 109.114 12.5522 114.145 13.5176 118.998C14.483 123.852 16.8659 128.31 20.3651 131.809C23.8642 135.308 28.3223 137.691 33.1757 138.656C38.0291 139.622 43.0598 139.126 47.6316 137.233C52.2034 135.339 56.111 132.132 58.8602 128.017C61.6094 123.903 63.0768 119.066 63.0768 114.117C63.0768 107.481 60.4408 101.117 55.7486 96.4253C51.0565 91.7332 44.6926 89.0972 38.0569 89.0972ZM38.0569 133.577C34.2081 133.577 30.4457 132.436 27.2455 130.297C24.0454 128.159 21.5511 125.12 20.0782 121.564C18.6054 118.008 18.22 114.095 18.9709 110.321C19.7217 106.546 21.5751 103.078 24.2966 100.357C27.0182 97.6353 30.4856 95.7819 34.2605 95.031C38.0353 94.2802 41.9481 94.6655 45.5039 96.1384C49.0598 97.6113 52.099 100.106 54.2373 103.306C56.3756 106.506 57.5169 110.268 57.5169 114.117C57.5169 116.673 57.0135 119.203 56.0356 121.564C55.0576 123.925 53.6242 126.07 51.8172 127.877C50.0102 129.684 47.8649 131.118 45.5039 132.096C43.1429 133.074 40.6124 133.577 38.0569 133.577Z" fill="#12499F"/>
<path d="M38.0571 130.797C47.2692 130.797 54.7371 123.329 54.7371 114.117C54.7371 104.905 47.2692 97.437 38.0571 97.437C28.8451 97.437 21.3772 104.905 21.3772 114.117C21.3772 123.329 28.8451 130.797 38.0571 130.797Z" fill="#12499F"/>
</svg>
