<svg width="150" height="150" viewBox="0 0 150 150" fill="none" xmlns="http://www.w3.org/2000/svg">
<path d="M71.9374 129.863C58.1807 127.547 45.6797 120.301 36.6729 109.421C27.6662 98.5412 22.7419 84.739 22.7819 70.4859C22.8248 66.8394 23.1888 63.2044 23.8696 59.6247H24.0508L28.1961 66.9658C28.7969 68.0314 29.7871 68.8094 30.949 69.1286C32.1109 69.4478 33.3492 69.2821 34.3915 68.6679C35.4339 68.0537 36.1949 67.0414 36.5071 65.8536C36.8193 64.6657 36.6572 63.3998 36.0564 62.3342L26.4293 45.313C26.1321 44.7866 25.7364 44.3251 25.2646 43.9552C24.7929 43.5852 24.2544 43.314 23.6801 43.157C23.1057 42.9999 22.5067 42.9602 21.9173 43.0401C21.3279 43.12 20.7597 43.3178 20.2452 43.6224L3.48285 53.5112C2.94774 53.7884 2.4718 54.1714 2.08265 54.6382C1.6935 55.1049 1.39888 55.646 1.21591 56.23C1.03293 56.8141 0.965225 57.4294 1.01673 58.0404C1.06823 58.6515 1.23792 59.2459 1.51594 59.7894C1.79396 60.3328 2.17477 60.8144 2.63629 61.2061C3.09781 61.5979 3.63083 61.8921 4.20444 62.0716C4.77805 62.2511 5.38082 62.3124 5.97777 62.2518C6.57471 62.1913 7.15396 62.0101 7.68188 61.7189C7.79467 61.6587 7.90474 61.5936 8.01208 61.5236L14.9437 57.4246C14.1374 61.7297 13.7277 66.1026 13.72 70.4859C13.6702 86.9178 19.34 102.832 29.7153 115.382C40.0906 127.932 54.4947 136.299 70.3512 138.987H71.1215C72.3186 139.077 73.502 138.68 74.4133 137.881C75.3246 137.082 75.8898 135.947 75.9855 134.724C76.0812 133.501 75.6997 132.288 74.9242 131.352C74.1488 130.415 73.0423 129.83 71.8464 129.724L71.9374 129.863Z" fill="#12499F"/>
<path d="M148.999 70.3406C149.009 62.0408 147.595 53.8059 144.826 46.0227C144.412 44.8677 143.574 43.9313 142.496 43.4195C141.419 42.9077 140.19 42.8624 139.08 43.2936C137.97 43.7248 137.071 44.5972 136.579 45.7188C136.087 46.8404 136.044 48.1194 136.458 49.2743C139.115 56.7068 140.339 64.6112 140.061 72.5362C139.783 80.4612 138.008 88.2516 134.838 95.4626C131.667 102.674 127.163 109.164 121.582 114.563C116.001 119.962 109.453 124.165 102.312 126.93C102.098 127.013 101.884 127.095 101.668 127.175L105.73 119.789C106.023 119.258 106.214 118.673 106.29 118.065C106.366 117.458 106.326 116.841 106.173 116.25C106.02 115.658 105.756 115.104 105.397 114.619C105.038 114.134 104.591 113.727 104.08 113.422C103.57 113.117 103.007 112.919 102.424 112.84C101.84 112.762 101.247 112.804 100.679 112.964C100.111 113.124 99.5792 113.398 99.1133 113.772C98.6474 114.147 98.2569 114.613 97.9641 115.144L88.5915 132.261C88.0027 133.33 87.8458 134.598 88.1554 135.787C88.4651 136.976 89.2159 137.989 90.2426 138.602L106.689 148.38C107.199 148.685 107.761 148.883 108.345 148.961C108.928 149.04 109.52 148.998 110.088 148.839C110.656 148.679 111.188 148.405 111.654 148.031C112.12 147.658 112.51 147.192 112.803 146.661C113.096 146.131 113.286 145.545 113.362 144.938C113.437 144.331 113.397 143.714 113.244 143.123C113.091 142.533 112.827 141.979 112.468 141.494C112.109 141.009 111.662 140.602 111.152 140.297L104.189 136.186C117.323 131.445 128.703 122.548 136.738 110.741C144.772 98.9345 149.06 84.8087 148.999 70.3406V70.3406Z" fill="#12499F"/>
<path d="M110.538 24.5623C109.35 24.5623 108.211 25.059 107.372 25.9431C106.532 26.8273 106.06 28.0264 106.06 29.2768C106.06 30.5271 106.532 31.7263 107.372 32.6104C108.211 33.4946 109.35 33.9913 110.538 33.9913H128.94C129.112 34.0029 129.284 34.0029 129.455 33.9913C130.317 33.9916 131.159 33.7206 131.873 33.2131L132.187 33.0009L132.321 32.883L132.612 32.6473C133.046 32.2118 133.392 31.6891 133.631 31.1101C133.869 30.5311 133.995 29.9076 134 29.2765V9.2874C134 8.03704 133.528 6.83788 132.689 5.95374C131.849 5.0696 130.71 4.5729 129.522 4.5729C128.335 4.5729 127.196 5.0696 126.356 5.95374C125.517 6.83788 125.045 8.03704 125.045 9.2874V17.8913C118.332 11.8681 110.558 7.29613 102.166 4.4364C93.775 1.57668 84.9309 0.485215 76.139 1.22434C67.3471 1.96346 58.7795 4.5187 50.9255 8.74415C43.0715 12.9696 36.0848 18.7825 30.3644 25.851C30.2607 25.979 30.1576 26.1073 30.055 26.236C29.2891 27.1925 28.9154 28.4302 29.0162 29.6769C29.1169 30.9235 29.6839 32.0769 30.5924 32.8834C31.5008 33.6899 32.6763 34.0833 33.8603 33.9772C35.0443 33.8711 36.1397 33.2741 36.9057 32.3176C46.7831 19.93 60.9109 12.1559 76.2092 10.6899C91.5076 9.22391 106.736 14.1849 118.575 24.4915L110.538 24.5623Z" fill="#12499F"/>
<path d="M104.324 64.5455C102.98 64.5455 101.666 64.1396 100.549 63.3791C99.4316 62.6187 98.5608 61.5379 98.0466 60.2733C97.5323 59.0088 97.3978 57.6173 97.66 56.2749C97.9221 54.9325 98.5692 53.6993 99.5194 52.7315C100.47 51.7637 101.68 51.1045 102.998 50.8375C104.316 50.5705 105.682 50.7075 106.924 51.2313C108.165 51.7551 109.226 52.6421 109.973 53.7802C110.719 54.9183 111.118 56.2563 111.118 57.625C111.123 58.5354 110.951 59.4378 110.612 60.28C110.272 61.1222 109.772 61.8874 109.14 62.5311C108.508 63.1749 107.757 63.6844 106.93 64.0302C106.103 64.376 105.217 64.5511 104.324 64.5455ZM115 57.625C114.997 55.6026 114.44 53.6211 113.393 51.9032C112.345 50.1853 110.848 48.799 109.069 47.9001C107.29 47.0012 105.301 46.6253 103.324 46.8145C101.348 47.0038 99.4617 47.7508 97.8788 48.9716C96.2959 50.1924 95.0785 51.8386 94.3635 53.7253C93.6484 55.612 93.464 57.6645 93.8311 59.652C94.1981 61.6395 95.1019 63.4835 96.441 64.9766C97.7802 66.4698 99.5016 67.553 101.412 68.1045V91.2386C101.412 95.1717 99.8779 98.9436 97.1476 101.725C94.4173 104.506 90.7142 106.068 86.8529 106.068C82.9917 106.068 79.2886 104.506 76.5583 101.725C73.828 98.9436 72.2941 95.1717 72.2941 91.2386V81.1545C77.1463 80.438 81.5828 77.9651 84.7912 74.1887C87.9996 70.4123 89.7652 65.585 89.7647 60.5909C89.779 59.9024 89.605 59.2234 89.2622 58.6298C88.9194 58.0362 88.4213 57.5514 87.8235 57.2295V32.9091C87.8079 31.4822 87.2898 30.1084 86.3635 29.0379C85.4372 27.9673 84.1643 27.2712 82.7765 27.0761C82.5933 26.4842 82.2327 25.9656 81.7452 25.5932C81.2578 25.2208 80.668 25.0133 80.0588 25H79.0882C78.0586 25 77.0711 25.4166 76.343 26.1583C75.6149 26.8999 75.2059 27.9057 75.2059 28.9545C75.2059 30.0034 75.6149 31.0092 76.343 31.7508C77.0711 32.4925 78.0586 32.9091 79.0882 32.9091H80.0588C80.6271 32.8889 81.1794 32.7129 81.6577 32.3997C82.136 32.0866 82.5225 31.6477 82.7765 31.1295C83.1195 31.2787 83.4123 31.5264 83.6192 31.8425C83.8261 32.1586 83.938 32.5292 83.9412 32.9091V57.2295C83.3596 57.5707 82.875 58.0599 82.5348 58.6491C82.1945 59.2383 82.0102 59.9074 82 60.5909C82 63.9995 80.6706 67.2686 78.3044 69.6788C75.9381 72.0891 72.7288 73.4432 69.3824 73.4432C66.0359 73.4432 62.8266 72.0891 60.4603 69.6788C58.0941 67.2686 56.7647 63.9995 56.7647 60.5909C56.779 59.9024 56.605 59.2234 56.2622 58.6298C55.9194 58.0362 55.4213 57.5514 54.8235 57.2295V32.9091C54.8267 32.5292 54.9386 32.1586 55.1455 31.8425C55.3524 31.5264 55.6452 31.2787 55.9882 31.1295C56.2153 31.6684 56.5954 32.1258 57.0797 32.4429C57.564 32.76 58.1303 32.9224 58.7059 32.9091H59.6765C60.7061 32.9091 61.6936 32.4925 62.4217 31.7508C63.1498 31.0092 63.5588 30.0034 63.5588 28.9545C63.5588 27.9057 63.1498 26.8999 62.4217 26.1583C61.6936 25.4166 60.7061 25 59.6765 25H58.7059C58.0967 25.0133 57.5069 25.2208 57.0195 25.5932C56.532 25.9656 56.1714 26.4842 55.9882 27.0761C54.6004 27.2712 53.3275 27.9673 52.4012 29.0379C51.4749 30.1084 50.9568 31.4822 50.9412 32.9091V57.2295C50.3596 57.5707 49.875 58.0599 49.5348 58.6491C49.1945 59.2383 49.0102 59.9074 49 60.5909C48.9995 65.585 50.7651 70.4123 53.9735 74.1887C57.1819 77.9651 61.6184 80.438 66.4706 81.1545V91.2386C66.4706 96.7449 68.618 102.026 72.4404 105.919C76.2629 109.813 81.4472 112 86.8529 112C92.2587 112 97.443 109.813 101.265 105.919C105.088 102.026 107.235 96.7449 107.235 91.2386V68.1045C109.468 67.4483 111.432 66.0722 112.832 64.1827C114.232 62.2932 114.993 59.9922 115 57.625V57.625Z" fill="#12499F"/>
<path d="M104.4 62C107.1 62 108.8 60.03 108.8 57.5999C108.8 55.1699 107.1 53.2 104.4 53.2C101.7 53.2 100 55.1699 100 57.5999C100 60.03 101.7 62 104.4 62Z" fill="#12499F"/>
</svg>
