<svg width="200" height="280" viewBox="0 0 200 280" fill="none" xmlns="http://www.w3.org/2000/svg">
<path d="M129.094 140C129.094 156.375 116.056 169.591 100.045 169.591C84.034 169.591 70.9957 156.375 70.9957 140C70.9957 123.625 84.034 110.409 100.045 110.409C116.056 110.409 129.094 123.625 129.094 140Z" fill="#884A07" stroke="#884A07" stroke-width="4"/>
<path d="M102.824 147.449H96.9864L95.7662 124.073H104.045L102.824 147.449ZM95.6705 155.632C95.6705 154.292 96.0294 153.279 96.7472 152.593C97.465 151.907 98.5097 151.564 99.8815 151.564C101.205 151.564 102.226 151.915 102.944 152.617C103.678 153.319 104.045 154.324 104.045 155.632C104.045 156.892 103.678 157.889 102.944 158.622C102.21 159.34 101.189 159.699 99.8815 159.699C98.5416 159.699 97.5048 159.348 96.7711 158.646C96.0374 157.928 95.6705 156.924 95.6705 155.632Z" fill="white"/>
<path d="M193.151 2.99997L100 103.984L6.84885 2.99995L193.151 2.99997Z" stroke="#9E9E9E" stroke-width="6"/>
<path d="M100.437 69.302L111.984 49.302L88.8897 49.302L100.437 69.302ZM81.2228 39.8659L79.2228 39.8659L79.2228 41.8659L81.2228 41.8659L81.2228 39.8659ZM119.651 39.8659L119.651 41.8659L121.651 41.8659L121.651 39.8659L119.651 39.8659ZM102.437 51.3012C102.437 51.2884 102.437 51.2757 102.437 51.2629C102.437 51.2502 102.437 51.2375 102.437 51.2247C102.437 51.212 102.437 51.1993 102.437 51.1866C102.437 51.1739 102.437 51.1612 102.437 51.1485C102.437 51.1358 102.437 51.1231 102.437 51.1104C102.437 51.0977 102.437 51.085 102.437 51.0723C102.437 51.0596 102.437 51.047 102.437 51.0343C102.437 51.0216 102.437 51.009 102.437 50.9963C102.437 50.9837 102.437 50.971 102.437 50.9584C102.437 50.9458 102.437 50.9331 102.437 50.9205C102.437 50.9079 102.437 50.8953 102.437 50.8827C102.437 50.87 102.437 50.8574 102.437 50.8448C102.437 50.8322 102.437 50.8196 102.437 50.8071C102.437 50.7945 102.437 50.7819 102.437 50.7693C102.437 50.7567 102.437 50.7442 102.437 50.7316C102.437 50.7191 102.437 50.7065 102.437 50.694C102.437 50.6814 102.437 50.6689 102.437 50.6563C102.437 50.6438 102.437 50.6313 102.437 50.6187C102.437 50.6062 102.437 50.5937 102.437 50.5812C102.437 50.5687 102.437 50.5562 102.437 50.5437C102.437 50.5312 102.437 50.5187 102.437 50.5062C102.437 50.4938 102.437 50.4813 102.437 50.4688C102.437 50.4563 102.437 50.4439 102.437 50.4314C102.437 50.419 102.437 50.4065 102.437 50.3941C102.437 50.3816 102.437 50.3692 102.437 50.3568C102.437 50.3444 102.437 50.3319 102.437 50.3195C102.437 50.3071 102.437 50.2947 102.437 50.2823C102.437 50.2699 102.437 50.2575 102.437 50.2451C102.437 50.2327 102.437 50.2204 102.437 50.208C102.437 50.1956 102.437 50.1833 102.437 50.1709C102.437 50.1585 102.437 50.1462 102.437 50.1338C102.437 50.1215 102.437 50.1092 102.437 50.0968C102.437 50.0845 102.437 50.0722 102.437 50.0599C102.437 50.0475 102.437 50.0352 102.437 50.0229C102.437 50.0106 102.437 49.9983 102.437 49.986C102.437 49.9738 102.437 49.9615 102.437 49.9492C102.437 49.9369 102.437 49.9247 102.437 49.9124C102.437 49.9001 102.437 49.8879 102.437 49.8756C102.437 49.8634 102.437 49.8512 102.437 49.8389C102.437 49.8267 102.437 49.8145 102.437 49.8022C102.437 49.79 102.437 49.7778 102.437 49.7656C102.437 49.7534 102.437 49.7412 102.437 49.729C102.437 49.7168 102.437 49.7047 102.437 49.6925C102.437 49.6803 102.437 49.6681 102.437 49.656C102.437 49.6438 102.437 49.6317 102.437 49.6195C102.437 49.6074 102.437 49.5952 102.437 49.5831C102.437 49.571 102.437 49.5589 102.437 49.5467C102.437 49.5346 102.437 49.5225 102.437 49.5104C102.437 49.4983 102.437 49.4862 102.437 49.4741C102.437 49.4621 102.437 49.45 102.437 49.4379C102.437 49.4258 102.437 49.4138 102.437 49.4017C102.437 49.3897 102.437 49.3776 102.437 49.3656C102.437 49.3535 102.437 49.3415 102.437 49.3295C102.437 49.3174 102.437 49.3054 102.437 49.2934C102.437 49.2814 102.437 49.2694 102.437 49.2574C102.437 49.2454 102.437 49.2334 102.437 49.2214C102.437 49.2094 102.437 49.1975 102.437 49.1855C102.437 49.1735 102.437 49.1616 102.437 49.1496C102.437 49.1377 102.437 49.1257 102.437 49.1138C102.437 49.1018 102.437 49.0899 102.437 49.078C102.437 49.0661 102.437 49.0542 102.437 49.0423C102.437 49.0304 102.437 49.0185 102.437 49.0066C102.437 48.9947 102.437 48.9828 102.437 48.9709C102.437 48.959 102.437 48.9472 102.437 48.9353C102.437 48.9235 102.437 48.9116 102.437 48.8998C102.437 48.8879 102.437 48.8761 102.437 48.8643C102.437 48.8524 102.437 48.8406 102.437 48.8288C102.437 48.817 102.437 48.8052 102.437 48.7934C102.437 48.7816 102.437 48.7698 102.437 48.758C102.437 48.7462 102.437 48.7345 102.437 48.7227C102.437 48.7109 102.437 48.6992 102.437 48.6874C102.437 48.6757 102.437 48.6639 102.437 48.6522C102.437 48.6405 102.437 48.6287 102.437 48.617C102.437 48.6053 102.437 48.5936 102.437 48.5819C102.437 48.5702 102.437 48.5585 102.437 48.5468C102.437 48.5351 102.437 48.5234 102.437 48.5118C102.437 48.5001 102.437 48.4884 102.437 48.4768C102.437 48.4651 102.437 48.4535 102.437 48.4419C102.437 48.4302 102.437 48.4186 102.437 48.407C102.437 48.3953 102.437 48.3837 102.437 48.3721C102.437 48.3605 102.437 48.3489 102.437 48.3373C102.437 48.3258 102.437 48.3142 102.437 48.3026C102.437 48.291 102.437 48.2795 102.437 48.2679C102.437 48.2564 102.437 48.2448 102.437 48.2333C102.437 48.2217 102.437 48.2102 102.437 48.1987C102.437 48.1871 102.437 48.1756 102.437 48.1641C102.437 48.1526 102.437 48.1411 102.437 48.1296C102.437 48.1181 102.437 48.1067 102.437 48.0952C102.437 48.0837 102.437 48.0723 102.437 48.0608C102.437 48.0493 102.437 48.0379 102.437 48.0265C102.437 48.015 102.437 48.0036 102.437 47.9922C102.437 47.9807 102.437 47.9693 102.437 47.9579C102.437 47.9465 102.437 47.9351 102.437 47.9237C102.437 47.9123 102.437 47.901 102.437 47.8896C102.437 47.8782 102.437 47.8668 102.437 47.8555C102.437 47.8441 102.437 47.8328 102.437 47.8215C102.437 47.8101 102.437 47.7988 102.437 47.7875C102.437 47.7761 102.437 47.7648 102.437 47.7535C102.437 47.7422 102.437 47.7309 102.437 47.7196C102.437 47.7084 102.437 47.6971 102.437 47.6858C102.437 47.6745 102.437 47.6633 102.437 47.652C102.437 47.6408 102.437 47.6295 102.437 47.6183C102.437 47.6071 102.437 47.5958 102.437 47.5846C102.437 47.5734 102.437 47.5622 102.437 47.551C102.437 47.5398 102.437 47.5286 102.437 47.5174C102.437 47.5062 102.437 47.4951 102.437 47.4839C102.437 47.4727 102.437 47.4616 102.437 47.4504C102.437 47.4393 102.437 47.4282 102.437 47.417C102.437 47.4059 102.437 47.3948 102.437 47.3837C102.437 47.3725 102.437 47.3614 102.437 47.3504C102.437 47.3393 102.437 47.3282 102.437 47.3171C102.437 47.306 102.437 47.295 102.437 47.2839C102.437 47.2728 102.437 47.2618 102.437 47.2507C102.437 47.2397 102.437 47.2287 102.437 47.2177C102.437 47.2066 102.437 47.1956 102.437 47.1846C102.437 47.1736 102.437 47.1626 102.437 47.1516C102.437 47.1406 102.437 47.1297 102.437 47.1187C102.437 47.1077 102.437 47.0968 102.437 47.0858C102.437 47.0749 102.437 47.0639 102.437 47.053C102.437 47.0421 102.437 47.0311 102.437 47.0202C102.437 47.0093 102.437 46.9984 102.437 46.9875C102.437 46.9766 102.437 46.9657 102.437 46.9548C102.437 46.944 102.437 46.9331 102.437 46.9222C102.437 46.9114 102.437 46.9005 102.437 46.8897C102.437 46.8788 102.437 46.868 102.437 46.8572C102.437 46.8464 102.437 46.8356 102.437 46.8248C102.437 46.814 102.437 46.8032 102.437 46.7924C102.437 46.7816 102.437 46.7708 102.437 46.76C102.437 46.7493 102.437 46.7385 102.437 46.7278C102.437 46.717 102.437 46.7063 102.437 46.6956C102.437 46.6848 102.437 46.6741 102.437 46.6634C102.437 46.6527 102.437 46.642 102.437 46.6313C102.437 46.6206 102.437 46.6099 102.437 46.5993C102.437 46.5886 102.437 46.5779 102.437 46.5673C102.437 46.5566 102.437 46.546 102.437 46.5353C102.437 46.5247 102.437 46.5141 102.437 46.5035C102.437 46.4928 102.437 46.4822 102.437 46.4716C102.437 46.461 102.437 46.4505 102.437 46.4399C102.437 46.4293 102.437 46.4187 102.437 46.4082C102.437 46.3976 102.437 46.3871 102.437 46.3765C102.437 46.366 102.437 46.3555 102.437 46.3449C102.437 46.3344 102.437 46.3239 102.437 46.3134C102.437 46.3029 102.437 46.2924 102.437 46.2819C102.437 46.2715 102.437 46.261 102.437 46.2505C102.437 46.2401 102.437 46.2296 102.437 46.2192C102.437 46.2087 102.437 46.1983 102.437 46.1879C102.437 46.1774 102.437 46.167 102.437 46.1566C102.437 46.1462 102.437 46.1358 102.437 46.1254C102.437 46.1151 102.437 46.1047 102.437 46.0943C102.437 46.084 102.437 46.0736 102.437 46.0633C102.437 46.0529 102.437 46.0426 102.437 46.0323C102.437 46.0219 102.437 46.0116 102.437 46.0013C102.437 45.991 102.437 45.9807 102.437 45.9704C102.437 45.9601 102.437 45.9499 102.437 45.9396C102.437 45.9293 102.437 45.9191 102.437 45.9088C102.437 45.8986 102.437 45.8884 102.437 45.8781C102.437 45.8679 102.437 45.8577 102.437 45.8475C102.437 45.8373 102.437 45.8271 102.437 45.8169C102.437 45.8067 102.437 45.7965 102.437 45.7864C102.437 45.7762 102.437 45.7661 102.437 45.7559C102.437 45.7458 102.437 45.7356 102.437 45.7255C102.437 45.7154 102.437 45.7053 102.437 45.6952C102.437 45.6851 102.437 45.675 102.437 45.6649C102.437 45.6548 102.437 45.6447 102.437 45.6347C102.437 45.6246 102.437 45.6145 102.437 45.6045C102.437 45.5945 102.437 45.5844 102.437 45.5744C102.437 45.5644 102.437 45.5544 102.437 45.5444C102.437 45.5344 102.437 45.5244 102.437 45.5144C102.437 45.5044 102.437 45.4944 102.437 45.4845C102.437 45.4745 102.437 45.4646 102.437 45.4546C102.437 45.4447 102.437 45.4348 102.437 45.4248C102.437 45.4149 102.437 45.405 102.437 45.3951C102.437 45.3852 102.437 45.3753 102.437 45.3654C102.437 45.3556 102.437 45.3457 102.437 45.3358C102.437 45.326 102.437 45.3161 102.437 45.3063C102.437 45.2965 102.437 45.2866 102.437 45.2768C102.437 45.267 102.437 45.2572 102.437 45.2474C102.437 45.2376 102.437 45.2278 102.437 45.2181C102.437 45.2083 102.437 45.1985 102.437 45.1888C102.437 45.179 102.437 45.1693 102.437 45.1595C102.437 45.1498 102.437 45.1401 102.437 45.1304C102.437 45.1207 102.437 45.111 102.437 45.1013C102.437 45.0916 102.437 45.0819 102.437 45.0723C102.437 45.0626 102.437 45.0529 102.437 45.0433C102.437 45.0336 102.437 45.024 102.437 45.0144C102.437 45.0048 102.437 44.9951 102.437 44.9855C102.437 44.9759 102.437 44.9663 102.437 44.9568C102.437 44.9472 102.437 44.9376 102.437 44.928C102.437 44.9185 102.437 44.9089 102.437 44.8994C102.437 44.8899 102.437 44.8803 102.437 44.8708C102.437 44.8613 102.437 44.8518 102.437 44.8423C102.437 44.8328 102.437 44.8233 102.437 44.8138C102.437 44.8044 102.437 44.7949 102.437 44.7855C102.437 44.776 102.437 44.7666 102.437 44.7571C102.437 44.7477 102.437 44.7383 102.437 44.7289C102.437 44.7195 102.437 44.7101 102.437 44.7007C102.437 44.6913 102.437 44.6819 102.437 44.6726C102.437 44.6632 102.437 44.6539 102.437 44.6445C102.437 44.6352 102.437 44.6258 102.437 44.6165C102.437 44.6072 102.437 44.5979 102.437 44.5886C102.437 44.5793 102.437 44.57 102.437 44.5607C102.437 44.5515 102.437 44.5422 102.437 44.5329C102.437 44.5237 102.437 44.5145 102.437 44.5052C102.437 44.496 102.437 44.4868 102.437 44.4776C102.437 44.4684 102.437 44.4592 102.437 44.45C102.437 44.4408 102.437 44.4316 102.437 44.4224C102.437 44.4133 102.437 44.4041 102.437 44.395C102.437 44.3859 102.437 44.3767 102.437 44.3676C102.437 44.3585 102.437 44.3494 102.437 44.3403C102.437 44.3312 102.437 44.3221 102.437 44.313C102.437 44.304 102.437 44.2949 102.437 44.2858C102.437 44.2768 102.437 44.2678 102.437 44.2587C102.437 44.2497 102.437 44.2407 102.437 44.2317C102.437 44.2227 102.437 44.2137 102.437 44.2047C102.437 44.1957 102.437 44.1867 102.437 44.1778C102.437 44.1688 102.437 44.1599 102.437 44.1509C102.437 44.142 102.437 44.1331 102.437 44.1242C102.437 44.1153 102.437 44.1063 102.437 44.0975C102.437 44.0886 102.437 44.0797 102.437 44.0708C102.437 44.062 102.437 44.0531 102.437 44.0443C102.437 44.0354 102.437 44.0266 102.437 44.0178C102.437 44.0089 102.437 44.0001 102.437 43.9913C102.437 43.9825 102.437 43.9737 102.437 43.965C102.437 43.9562 102.437 43.9474 102.437 43.9387C102.437 43.9299 102.437 43.9212 102.437 43.9125C102.437 43.9037 102.437 43.895 102.437 43.8863C102.437 43.8776 102.437 43.8689 102.437 43.8602C102.437 43.8516 102.437 43.8429 102.437 43.8342C102.437 43.8256 102.437 43.8169 102.437 43.8083C102.437 43.7997 102.437 43.791 102.437 43.7824C102.437 43.7738 102.437 43.7652 102.437 43.7566C102.437 43.748 102.437 43.7395 102.437 43.7309C102.437 43.7223 102.437 43.7138 102.437 43.7052C102.437 43.6967 102.437 43.6882 102.437 43.6797C102.437 43.6712 102.437 43.6626 102.437 43.6542C102.437 43.6457 102.437 43.6372 102.437 43.6287C102.437 43.6202 102.437 43.6118 102.437 43.6034C102.437 43.5949 102.437 43.5865 102.437 43.5781C102.437 43.5696 102.437 43.5612 102.437 43.5528C102.437 43.5444 102.437 43.5361 102.437 43.5277C102.437 43.5193 102.437 43.511 102.437 43.5026C102.437 43.4943 102.437 43.4859 102.437 43.4776C102.437 43.4693 102.437 43.461 102.437 43.4527C102.437 43.4444 102.437 43.4361 102.437 43.4278C102.437 43.4195 102.437 43.4113 102.437 43.403C102.437 43.3948 102.437 43.3865 102.437 43.3783C102.437 43.3701 102.437 43.3619 102.437 43.3537C102.437 43.3455 102.437 43.3373 102.437 43.3291C102.437 43.3209 102.437 43.3128 102.437 43.3046C102.437 43.2964 102.437 43.2883 102.437 43.2802C102.437 43.272 102.437 43.2639 102.437 43.2558C102.437 43.2477 102.437 43.2396 102.437 43.2316C102.437 43.2235 102.437 43.2154 102.437 43.2074C102.437 43.1993 102.437 43.1913 102.437 43.1832C102.437 43.1752 102.437 43.1672 102.437 43.1592C102.437 43.1512 102.437 43.1432 102.437 43.1352C102.437 43.1272 102.437 43.1193 102.437 43.1113C102.437 43.1034 102.437 43.0954 102.437 43.0875C102.437 43.0796 102.437 43.0716 102.437 43.0637C102.437 43.0558 102.437 43.0479 102.437 43.0401C102.437 43.0322 102.437 43.0243 102.437 43.0165C102.437 43.0086 102.437 43.0008 102.437 42.9929C102.437 42.9851 102.437 42.9773 102.437 42.9695C102.437 42.9617 102.437 42.9539 102.437 42.9461C102.437 42.9383 102.437 42.9306 102.437 42.9228C102.437 42.9151 102.437 42.9073 102.437 42.8996C102.437 42.8919 102.437 42.8841 102.437 42.8764C102.437 42.8687 102.437 42.8611 102.437 42.8534C102.437 42.8457 102.437 42.838 102.437 42.8304C102.437 42.8227 102.437 42.8151 102.437 42.8075C102.437 42.7998 102.437 42.7922 102.437 42.7846C102.437 42.777 102.437 42.7694 102.437 42.7619C102.437 42.7543 102.437 42.7467 102.437 42.7392C102.437 42.7316 102.437 42.7241 102.437 42.7166C102.437 42.709 102.437 42.7015 102.437 42.694C102.437 42.6865 102.437 42.6791 102.437 42.6716C102.437 42.6641 102.437 42.6567 102.437 42.6492C102.437 42.6418 102.437 42.6343 102.437 42.6269C102.437 42.6195 102.437 42.6121 102.437 42.6047C102.437 42.5973 102.437 42.5899 102.437 42.5826C102.437 42.5752 102.437 42.5678 102.437 42.5605C102.437 42.5531 102.437 42.5458 102.437 42.5385C102.437 42.5312 102.437 42.5239 102.437 42.5166C102.437 42.5093 102.437 42.502 102.437 42.4948C102.437 42.4875 102.437 42.4803 102.437 42.473C102.437 42.4658 102.437 42.4586 102.437 42.4514C102.437 42.4441 102.437 42.4369 102.437 42.4298C102.437 42.4226 102.437 42.4154 102.437 42.4082C102.437 42.4011 102.437 42.3939 102.437 42.3868C102.437 42.3797 102.437 42.3726 102.437 42.3655C102.437 42.3584 102.437 42.3513 102.437 42.3442C102.437 42.3371 102.437 42.3301 102.437 42.323C102.437 42.3159 102.437 42.3089 102.437 42.3019C102.437 42.2949 102.437 42.2879 102.437 42.2809C102.437 42.2739 102.437 42.2669 102.437 42.2599C102.437 42.2529 102.437 42.246 102.437 42.239C102.437 42.2321 102.437 42.2252 102.437 42.2182C102.437 42.2113 102.437 42.2044 102.437 42.1975C102.437 42.1906 102.437 42.1838 102.437 42.1769C102.437 42.17 102.437 42.1632 102.437 42.1563C102.437 42.1495 102.437 42.1427 102.437 42.1359C102.437 42.1291 102.437 42.1223 102.437 42.1155C102.437 42.1087 102.437 42.1019 102.437 42.0952C102.437 42.0884 102.437 42.0817 102.437 42.075C102.437 42.0682 102.437 42.0615 102.437 42.0548C102.437 42.0481 102.437 42.0414 102.437 42.0348C102.437 42.0281 102.437 42.0214 102.437 42.0148C102.437 42.0081 102.437 42.0015 102.437 41.9949C102.437 41.9883 102.437 41.9817 102.437 41.9751C102.437 41.9685 102.437 41.9619 102.437 41.9553C102.437 41.9488 102.437 41.9422 102.437 41.9357C102.437 41.9292 102.437 41.9226 102.437 41.9161C102.437 41.9096 102.437 41.9031 102.437 41.8967C102.437 41.8902 102.437 41.8837 102.437 41.8773C102.437 41.8708 102.437 41.8644 102.437 41.8579C102.437 41.8515 102.437 41.8451 102.437 41.8387C102.437 41.8323 102.437 41.8259 102.437 41.8196C102.437 41.8132 102.437 41.8068 102.437 41.8005C102.437 41.7941 102.437 41.7878 102.437 41.7815C102.437 41.7752 102.437 41.7689 102.437 41.7626C102.437 41.7563 102.437 41.7501 102.437 41.7438C102.437 41.7375 102.437 41.7313 102.437 41.7251C102.437 41.7188 102.437 41.7126 102.437 41.7064C102.437 41.7002 102.437 41.694 102.437 41.6879C102.437 41.6817 102.437 41.6755 102.437 41.6694C102.437 41.6632 102.437 41.6571 102.437 41.651C102.437 41.6449 102.437 41.6388 102.437 41.6327C102.437 41.6266 102.437 41.6205 102.437 41.6145C102.437 41.6084 102.437 41.6024 102.437 41.5963C102.437 41.5903 102.437 41.5843 102.437 41.5783C102.437 41.5723 102.437 41.5663 102.437 41.5603C102.437 41.5543 102.437 41.5484 102.437 41.5424C102.437 41.5365 102.437 41.5306 102.437 41.5246C102.437 41.5187 102.437 41.5128 102.437 41.5069C102.437 41.5011 102.437 41.4952 102.437 41.4893C102.437 41.4835 102.437 41.4776 102.437 41.4718C102.437 41.466 102.437 41.4601 102.437 41.4543C102.437 41.4485 102.437 41.4428 102.437 41.437C102.437 41.4312 102.437 41.4254 102.437 41.4197C102.437 41.414 102.437 41.4082 102.437 41.4025C102.437 41.3968 102.437 41.3911 102.437 41.3854C102.437 41.3797 102.437 41.3741 102.437 41.3684C102.437 41.3627 102.437 41.3571 102.437 41.3515C102.437 41.3459 102.437 41.3402 102.437 41.3346C102.437 41.329 102.437 41.3235 102.437 41.3179C102.437 41.3123 102.437 41.3068 102.437 41.3012C102.437 41.2957 102.437 41.2902 102.437 41.2847C102.437 41.2791 102.437 41.2736 102.437 41.2682C102.437 41.2627 102.437 41.2572 102.437 41.2518C102.437 41.2463 102.437 41.2409 102.437 41.2355C102.437 41.23 102.437 41.2246 102.437 41.2192C102.437 41.2138 102.437 41.2085 102.437 41.2031C102.437 41.1977 102.437 41.1924 102.437 41.1871C102.437 41.1817 102.437 41.1764 102.437 41.1711C102.437 41.1658 102.437 41.1605 102.437 41.1552C102.437 41.15 102.437 41.1447 102.437 41.1395C102.437 41.1342 102.437 41.129 102.437 41.1238C102.437 41.1186 102.437 41.1134 102.437 41.1082C102.437 41.103 102.437 41.0978 102.437 41.0927C102.437 41.0875 102.437 41.0824 102.437 41.0772C102.437 41.0721 102.437 41.067 102.437 41.0619C102.437 41.0568 102.437 41.0517 102.437 41.0467C102.437 41.0416 102.437 41.0366 102.437 41.0315C102.437 41.0265 102.437 41.0215 102.437 41.0165C102.437 41.0115 102.437 41.0065 102.437 41.0015C102.437 40.9965 102.437 40.9916 102.437 40.9866C102.437 40.9817 102.437 40.9768 102.437 40.9718C102.437 40.9669 102.437 40.962 102.437 40.9572C102.437 40.9523 102.437 40.9474 102.437 40.9425C102.437 40.9377 102.437 40.9329 102.437 40.928C102.437 40.9232 102.437 40.9184 102.437 40.9136C102.437 40.9088 102.437 40.904 102.437 40.8993C102.437 40.8945 102.437 40.8898 102.437 40.885C102.437 40.8803 102.437 40.8756 102.437 40.8709C102.437 40.8662 102.437 40.8615 102.437 40.8568C102.437 40.8522 102.437 40.8475 102.437 40.8429C102.437 40.8382 102.437 40.8336 102.437 40.829C102.437 40.8244 102.437 40.8198 102.437 40.8152C102.437 40.8107 102.437 40.8061 102.437 40.8016C102.437 40.797 102.437 40.7925 102.437 40.788C102.437 40.7835 102.437 40.779 102.437 40.7745C102.437 40.77 102.437 40.7655 102.437 40.7611C102.437 40.7566 102.437 40.7522 102.437 40.7478C102.437 40.7433 102.437 40.7389 102.437 40.7345C102.437 40.7301 102.437 40.7258 102.437 40.7214C102.437 40.7171 102.437 40.7127 102.437 40.7084C102.437 40.7041 102.437 40.6997 102.437 40.6954C102.437 40.6911 102.437 40.6869 102.437 40.6826C102.437 40.6783 102.437 40.6741 102.437 40.6698C102.437 40.6656 102.437 40.6614 102.437 40.6572C102.437 40.653 102.437 40.6488 102.437 40.6446C102.437 40.6405 102.437 40.6363 102.437 40.6322C102.437 40.628 102.437 40.6239 102.437 40.6198C102.437 40.6157 102.437 40.6116 102.437 40.6075C102.437 40.6034 102.437 40.5994 102.437 40.5953C102.437 40.5913 102.437 40.5873 102.437 40.5833C102.437 40.5792 102.437 40.5752 102.437 40.5713C102.437 40.5673 102.437 40.5633 102.437 40.5594C102.437 40.5554 102.437 40.5515 102.437 40.5476C102.437 40.5436 102.437 40.5397 102.437 40.5359C102.437 40.532 102.437 40.5281 102.437 40.5242C102.437 40.5204 102.437 40.5166 102.437 40.5127C102.437 40.5089 102.437 40.5051 102.437 40.5013C102.437 40.4975 102.437 40.4938 102.437 40.49C102.437 40.4862 102.437 40.4825 102.437 40.4788C102.437 40.4751 102.437 40.4713 102.437 40.4676C102.437 40.464 102.437 40.4603 102.437 40.4566C102.437 40.453 102.437 40.4493 102.437 40.4457C102.437 40.4421 102.437 40.4384 102.437 40.4348C102.437 40.4313 102.437 40.4277 102.437 40.4241C102.437 40.4205 102.437 40.417 102.437 40.4135C102.437 40.4099 102.437 40.4064 102.437 40.4029C102.437 40.3994 102.437 40.3959 102.437 40.3925C102.437 40.389 102.437 40.3856 102.437 40.3821C102.437 40.3787 102.437 40.3753 102.437 40.3719C102.437 40.3685 102.437 40.3651 102.437 40.3617C102.437 40.3584 102.437 40.355 102.437 40.3517C102.437 40.3483 102.437 40.345 102.437 40.3417C102.437 40.3384 102.437 40.3351 102.437 40.3319C102.437 40.3286 102.437 40.3253 102.437 40.3221C102.437 40.3189 102.437 40.3156 102.437 40.3124C102.437 40.3092 102.437 40.306 102.437 40.3029C102.437 40.2997 102.437 40.2965 102.437 40.2934C102.437 40.2903 102.437 40.2871 102.437 40.284C102.437 40.2809 102.437 40.2778 102.437 40.2748C102.437 40.2717 102.437 40.2687 102.437 40.2656C102.437 40.2626 102.437 40.2596 102.437 40.2565C102.437 40.2535 102.437 40.2506 102.437 40.2476C102.437 40.2446 102.437 40.2417 102.437 40.2387C102.437 40.2358 102.437 40.2329 102.437 40.23C102.437 40.227 102.437 40.2242 102.437 40.2213C102.437 40.2184 102.437 40.2156 102.437 40.2127C102.437 40.2099 102.437 40.2071 102.437 40.2043C102.437 40.2015 102.437 40.1987 102.437 40.1959C102.437 40.1931 102.437 40.1904 102.437 40.1876C102.437 40.1849 102.437 40.1822 102.437 40.1795C102.437 40.1768 102.437 40.1741 102.437 40.1714C102.437 40.1687 102.437 40.1661 102.437 40.1635C102.437 40.1608 102.437 40.1582 102.437 40.1556C102.437 40.153 102.437 40.1504 102.437 40.1478C102.437 40.1453 102.437 40.1427 102.437 40.1402C102.437 40.1377 102.437 40.1351 102.437 40.1326C102.437 40.1301 102.437 40.1276 102.437 40.1252C102.437 40.1227 102.437 40.1203 102.437 40.1178C102.437 40.1154 102.437 40.113 102.437 40.1106C102.437 40.1082 102.437 40.1058 102.437 40.1034C102.437 40.1011 102.437 40.0987 102.437 40.0964C102.437 40.0941 102.437 40.0918 102.437 40.0895C102.437 40.0872 102.437 40.0849 102.437 40.0826C102.437 40.0804 102.437 40.0781 102.437 40.0759C102.437 40.0737 102.437 40.0715 102.437 40.0693C102.437 40.0671 102.437 40.0649 102.437 40.0627C102.437 40.0606 102.437 40.0584 102.437 40.0563C102.437 40.0542 102.437 40.0521 102.437 40.05C102.437 40.0479 102.437 40.0458 102.437 40.0438C102.437 40.0417 102.437 40.0397 102.437 40.0377C102.437 40.0357 102.437 40.0337 102.437 40.0317C102.437 40.0297 102.437 40.0277 102.437 40.0258C102.437 40.0238 102.437 40.0219 102.437 40.02C102.437 40.0181 102.437 40.0162 102.437 40.0143C102.437 40.0124 102.437 40.0105 102.437 40.0087C102.437 40.0068 102.437 40.005 102.437 40.0032C102.437 40.0014 102.437 39.9996 102.437 39.9978C102.437 39.9961 102.437 39.9943 102.437 39.9926C102.437 39.9908 102.437 39.9891 102.437 39.9874C102.437 39.9857 102.437 39.984 102.437 39.9823C102.437 39.9807 102.437 39.979 102.437 39.9774C102.437 39.9757 102.437 39.9741 102.437 39.9725C102.437 39.9709 102.437 39.9693 102.437 39.9678C102.437 39.9662 102.437 39.9647 102.437 39.9631C102.437 39.9616 102.437 39.9601 102.437 39.9586C102.437 39.9571 102.437 39.9556 102.437 39.9542C102.437 39.9527 102.437 39.9513 102.437 39.9498C102.437 39.9484 102.437 39.947 102.437 39.9456C102.437 39.9442 102.437 39.9429 102.437 39.9415C102.437 39.9402 102.437 39.9388 102.437 39.9375C102.437 39.9362 102.437 39.9349 102.437 39.9336C102.437 39.9323 102.437 39.9311 102.437 39.9298C102.437 39.9286 102.437 39.9274 102.437 39.9262C102.437 39.925 102.437 39.9238 102.437 39.9226C102.437 39.9214 102.437 39.9203 102.437 39.9191C102.437 39.918 102.437 39.9169 102.437 39.9158C102.437 39.9147 102.437 39.9136 102.437 39.9125C102.437 39.9115 102.437 39.9104 102.437 39.9094C102.437 39.9083 102.437 39.9073 102.437 39.9063C102.437 39.9054 102.437 39.9044 102.437 39.9034C102.437 39.9025 102.437 39.9015 102.437 39.9006C102.437 39.8997 102.437 39.8988 102.437 39.8979C102.437 39.897 102.437 39.8961 102.437 39.8953C102.437 39.8945 102.437 39.8936 102.437 39.8928C102.437 39.892 102.437 39.8912 102.437 39.8904C102.437 39.8897 102.437 39.8889 102.437 39.8882C102.437 39.8874 102.437 39.8867 102.437 39.886C102.437 39.8853 102.437 39.8846 102.437 39.8839C102.437 39.8833 102.437 39.8826 102.437 39.882C102.437 39.8814 102.437 39.8808 102.437 39.8802C102.437 39.8796 102.437 39.879 102.437 39.8784C102.437 39.8779 102.437 39.8774 102.437 39.8768C102.437 39.8763 102.437 39.8758 102.437 39.8753C102.437 39.8748 102.437 39.8744 102.437 39.8739C102.437 39.8735 102.437 39.8731 102.437 39.8727C102.437 39.8722 102.437 39.8719 102.437 39.8715C102.437 39.8711 102.437 39.8708 102.437 39.8704C102.437 39.8701 102.437 39.8698 102.437 39.8695C102.437 39.8692 102.437 39.8689 102.437 39.8686C102.437 39.8684 102.437 39.8681 102.437 39.8679C102.437 39.8677 102.437 39.8675 102.437 39.8673C102.437 39.8671 102.437 39.8669 102.437 39.8668C102.437 39.8666 102.437 39.8665 102.437 39.8664C102.437 39.8663 102.437 39.8662 102.437 39.8661C102.437 39.866 102.437 39.866 102.437 39.866C102.437 39.8659 102.437 39.8659 100.437 39.8659C98.4367 39.8659 98.4367 39.8659 98.4367 39.866C98.4367 39.866 98.4367 39.866 98.4367 39.8661C98.4367 39.8662 98.4367 39.8663 98.4367 39.8664C98.4367 39.8665 98.4367 39.8666 98.4367 39.8668C98.4367 39.8669 98.4367 39.8671 98.4367 39.8673C98.4367 39.8675 98.4367 39.8677 98.4367 39.8679C98.4367 39.8681 98.4367 39.8684 98.4367 39.8686C98.4367 39.8689 98.4367 39.8692 98.4367 39.8695C98.4367 39.8698 98.4367 39.8701 98.4367 39.8704C98.4367 39.8708 98.4367 39.8711 98.4367 39.8715C98.4367 39.8719 98.4367 39.8722 98.4367 39.8727C98.4367 39.8731 98.4367 39.8735 98.4367 39.8739C98.4367 39.8744 98.4367 39.8748 98.4367 39.8753C98.4367 39.8758 98.4367 39.8763 98.4367 39.8768C98.4367 39.8774 98.4367 39.8779 98.4367 39.8784C98.4367 39.879 98.4367 39.8796 98.4367 39.8802C98.4367 39.8808 98.4367 39.8814 98.4367 39.882C98.4367 39.8826 98.4367 39.8833 98.4367 39.8839C98.4367 39.8846 98.4367 39.8853 98.4367 39.886C98.4367 39.8867 98.4367 39.8874 98.4367 39.8882C98.4367 39.8889 98.4367 39.8897 98.4367 39.8904C98.4367 39.8912 98.4367 39.892 98.4367 39.8928C98.4367 39.8936 98.4367 39.8945 98.4367 39.8953C98.4367 39.8961 98.4367 39.897 98.4367 39.8979C98.4367 39.8988 98.4367 39.8997 98.4367 39.9006C98.4367 39.9015 98.4367 39.9025 98.4367 39.9034C98.4367 39.9044 98.4367 39.9054 98.4367 39.9063C98.4367 39.9073 98.4367 39.9083 98.4367 39.9094C98.4367 39.9104 98.4367 39.9115 98.4367 39.9125C98.4367 39.9136 98.4367 39.9147 98.4367 39.9158C98.4367 39.9169 98.4367 39.918 98.4367 39.9191C98.4367 39.9203 98.4367 39.9214 98.4367 39.9226C98.4367 39.9238 98.4367 39.925 98.4367 39.9262C98.4367 39.9274 98.4367 39.9286 98.4367 39.9298C98.4367 39.9311 98.4367 39.9323 98.4367 39.9336C98.4367 39.9349 98.4367 39.9362 98.4367 39.9375C98.4367 39.9388 98.4367 39.9402 98.4367 39.9415C98.4367 39.9429 98.4367 39.9442 98.4367 39.9456C98.4367 39.947 98.4367 39.9484 98.4367 39.9498C98.4367 39.9513 98.4367 39.9527 98.4367 39.9542C98.4367 39.9556 98.4367 39.9571 98.4367 39.9586C98.4367 39.9601 98.4367 39.9616 98.4367 39.9631C98.4367 39.9647 98.4367 39.9662 98.4367 39.9678C98.4367 39.9693 98.4367 39.9709 98.4367 39.9725C98.4367 39.9741 98.4367 39.9757 98.4367 39.9774C98.4367 39.979 98.4367 39.9807 98.4367 39.9823C98.4367 39.984 98.4367 39.9857 98.4367 39.9874C98.4367 39.9891 98.4367 39.9908 98.4367 39.9926C98.4367 39.9943 98.4367 39.9961 98.4367 39.9978C98.4367 39.9996 98.4367 40.0014 98.4367 40.0032C98.4367 40.005 98.4367 40.0068 98.4367 40.0087C98.4367 40.0105 98.4367 40.0124 98.4367 40.0143C98.4367 40.0162 98.4367 40.0181 98.4367 40.02C98.4367 40.0219 98.4367 40.0238 98.4367 40.0258C98.4367 40.0277 98.4367 40.0297 98.4367 40.0317C98.4367 40.0337 98.4367 40.0357 98.4367 40.0377C98.4367 40.0397 98.4367 40.0417 98.4367 40.0438C98.4367 40.0458 98.4367 40.0479 98.4367 40.05C98.4367 40.0521 98.4367 40.0542 98.4367 40.0563C98.4367 40.0584 98.4367 40.0606 98.4367 40.0627C98.4367 40.0649 98.4367 40.0671 98.4367 40.0693C98.4367 40.0715 98.4367 40.0737 98.4367 40.0759C98.4367 40.0781 98.4367 40.0804 98.4367 40.0826C98.4367 40.0849 98.4367 40.0872 98.4367 40.0895C98.4367 40.0918 98.4367 40.0941 98.4367 40.0964C98.4367 40.0987 98.4367 40.1011 98.4367 40.1034C98.4367 40.1058 98.4367 40.1082 98.4367 40.1106C98.4367 40.113 98.4367 40.1154 98.4367 40.1178C98.4367 40.1203 98.4367 40.1227 98.4367 40.1252C98.4367 40.1277 98.4367 40.1301 98.4367 40.1326C98.4367 40.1351 98.4367 40.1377 98.4367 40.1402C98.4367 40.1427 98.4367 40.1453 98.4367 40.1478C98.4367 40.1504 98.4367 40.153 98.4367 40.1556C98.4367 40.1582 98.4367 40.1608 98.4367 40.1635C98.4367 40.1661 98.4367 40.1687 98.4367 40.1714C98.4367 40.1741 98.4367 40.1768 98.4367 40.1795C98.4367 40.1822 98.4367 40.1849 98.4367 40.1876C98.4367 40.1904 98.4367 40.1931 98.4367 40.1959C98.4367 40.1987 98.4367 40.2015 98.4367 40.2043C98.4367 40.2071 98.4367 40.2099 98.4367 40.2127C98.4367 40.2156 98.4367 40.2184 98.4367 40.2213C98.4367 40.2242 98.4367 40.227 98.4367 40.23C98.4367 40.2329 98.4367 40.2358 98.4367 40.2387C98.4367 40.2417 98.4367 40.2446 98.4367 40.2476C98.4367 40.2506 98.4367 40.2535 98.4367 40.2565C98.4367 40.2596 98.4367 40.2626 98.4367 40.2656C98.4367 40.2687 98.4367 40.2717 98.4367 40.2748C98.4367 40.2778 98.4367 40.2809 98.4367 40.284C98.4367 40.2871 98.4367 40.2903 98.4367 40.2934C98.4367 40.2965 98.4367 40.2997 98.4367 40.3029C98.4367 40.306 98.4367 40.3092 98.4367 40.3124C98.4367 40.3156 98.4367 40.3189 98.4367 40.3221C98.4367 40.3253 98.4367 40.3286 98.4367 40.3319C98.4367 40.3351 98.4367 40.3384 98.4367 40.3417C98.4367 40.345 98.4367 40.3483 98.4367 40.3517C98.4367 40.355 98.4367 40.3584 98.4367 40.3617C98.4367 40.3651 98.4367 40.3685 98.4367 40.3719C98.4367 40.3753 98.4367 40.3787 98.4367 40.3821C98.4367 40.3856 98.4367 40.389 98.4367 40.3925C98.4367 40.3959 98.4367 40.3994 98.4367 40.4029C98.4367 40.4064 98.4367 40.4099 98.4367 40.4135C98.4367 40.417 98.4367 40.4205 98.4367 40.4241C98.4367 40.4277 98.4367 40.4313 98.4367 40.4348C98.4367 40.4384 98.4367 40.4421 98.4367 40.4457C98.4367 40.4493 98.4367 40.453 98.4367 40.4566C98.4367 40.4603 98.4367 40.464 98.4367 40.4676C98.4367 40.4713 98.4367 40.4751 98.4367 40.4788C98.4367 40.4825 98.4367 40.4862 98.4367 40.49C98.4367 40.4938 98.4367 40.4975 98.4367 40.5013C98.4367 40.5051 98.4367 40.5089 98.4367 40.5127C98.4367 40.5166 98.4367 40.5204 98.4367 40.5242C98.4367 40.5281 98.4367 40.532 98.4367 40.5359C98.4367 40.5397 98.4367 40.5436 98.4367 40.5476C98.4367 40.5515 98.4367 40.5554 98.4367 40.5594C98.4367 40.5633 98.4367 40.5673 98.4367 40.5713C98.4367 40.5752 98.4367 40.5792 98.4367 40.5833C98.4367 40.5873 98.4367 40.5913 98.4367 40.5953C98.4367 40.5994 98.4367 40.6034 98.4367 40.6075C98.4367 40.6116 98.4367 40.6157 98.4367 40.6198C98.4367 40.6239 98.4367 40.628 98.4367 40.6322C98.4367 40.6363 98.4367 40.6405 98.4367 40.6446C98.4367 40.6488 98.4367 40.653 98.4367 40.6572C98.4367 40.6614 98.4367 40.6656 98.4367 40.6698C98.4367 40.6741 98.4367 40.6783 98.4367 40.6826C98.4367 40.6869 98.4367 40.6911 98.4367 40.6954C98.4367 40.6997 98.4367 40.7041 98.4367 40.7084C98.4367 40.7127 98.4367 40.7171 98.4367 40.7214C98.4367 40.7258 98.4367 40.7301 98.4367 40.7345C98.4367 40.7389 98.4367 40.7433 98.4367 40.7478C98.4367 40.7522 98.4367 40.7566 98.4367 40.7611C98.4367 40.7655 98.4367 40.77 98.4367 40.7745C98.4367 40.779 98.4367 40.7835 98.4367 40.788C98.4367 40.7925 98.4367 40.797 98.4367 40.8016C98.4367 40.8061 98.4367 40.8107 98.4367 40.8152C98.4367 40.8198 98.4367 40.8244 98.4367 40.829C98.4367 40.8336 98.4367 40.8383 98.4367 40.8429C98.4367 40.8475 98.4367 40.8522 98.4367 40.8568C98.4367 40.8615 98.4367 40.8662 98.4367 40.8709C98.4367 40.8756 98.4367 40.8803 98.4367 40.885C98.4367 40.8898 98.4367 40.8945 98.4367 40.8993C98.4367 40.904 98.4367 40.9088 98.4367 40.9136C98.4367 40.9184 98.4367 40.9232 98.4367 40.928C98.4367 40.9329 98.4367 40.9377 98.4367 40.9425C98.4367 40.9474 98.4367 40.9523 98.4367 40.9572C98.4367 40.962 98.4367 40.9669 98.4367 40.9718C98.4367 40.9768 98.4367 40.9817 98.4367 40.9866C98.4367 40.9916 98.4367 40.9965 98.4367 41.0015C98.4367 41.0065 98.4367 41.0115 98.4367 41.0165C98.4367 41.0215 98.4367 41.0265 98.4367 41.0315C98.4367 41.0366 98.4367 41.0416 98.4367 41.0467C98.4367 41.0517 98.4367 41.0568 98.4367 41.0619C98.4367 41.067 98.4367 41.0721 98.4367 41.0772C98.4367 41.0824 98.4367 41.0875 98.4367 41.0927C98.4367 41.0978 98.4367 41.103 98.4367 41.1082C98.4367 41.1134 98.4367 41.1186 98.4367 41.1238C98.4367 41.129 98.4367 41.1342 98.4367 41.1395C98.4367 41.1447 98.4367 41.15 98.4367 41.1552C98.4367 41.1605 98.4367 41.1658 98.4367 41.1711C98.4367 41.1764 98.4367 41.1817 98.4367 41.1871C98.4367 41.1924 98.4367 41.1977 98.4367 41.2031C98.4367 41.2085 98.4367 41.2138 98.4367 41.2192C98.4367 41.2246 98.4367 41.23 98.4367 41.2355C98.4367 41.2409 98.4367 41.2463 98.4367 41.2518C98.4367 41.2572 98.4367 41.2627 98.4367 41.2682C98.4367 41.2736 98.4367 41.2791 98.4367 41.2847C98.4367 41.2902 98.4367 41.2957 98.4367 41.3012C98.4367 41.3068 98.4367 41.3123 98.4367 41.3179C98.4367 41.3235 98.4367 41.329 98.4367 41.3346C98.4367 41.3402 98.4367 41.3459 98.4367 41.3515C98.4367 41.3571 98.4367 41.3627 98.4367 41.3684C98.4367 41.3741 98.4367 41.3797 98.4367 41.3854C98.4367 41.3911 98.4367 41.3968 98.4367 41.4025C98.4367 41.4082 98.4367 41.414 98.4367 41.4197C98.4367 41.4254 98.4367 41.4312 98.4367 41.437C98.4367 41.4428 98.4367 41.4485 98.4367 41.4543C98.4367 41.4601 98.4367 41.466 98.4367 41.4718C98.4367 41.4776 98.4367 41.4835 98.4367 41.4893C98.4367 41.4952 98.4367 41.5011 98.4367 41.5069C98.4367 41.5128 98.4367 41.5187 98.4367 41.5246C98.4367 41.5306 98.4367 41.5365 98.4367 41.5424C98.4367 41.5484 98.4367 41.5543 98.4367 41.5603C98.4367 41.5663 98.4367 41.5723 98.4367 41.5783C98.4367 41.5843 98.4367 41.5903 98.4367 41.5963C98.4367 41.6024 98.4367 41.6084 98.4367 41.6145C98.4367 41.6205 98.4367 41.6266 98.4367 41.6327C98.4367 41.6388 98.4367 41.6449 98.4367 41.651C98.4367 41.6571 98.4367 41.6632 98.4367 41.6694C98.4367 41.6755 98.4367 41.6817 98.4367 41.6879C98.4367 41.694 98.4367 41.7002 98.4367 41.7064C98.4367 41.7126 98.4367 41.7188 98.4367 41.7251C98.4367 41.7313 98.4367 41.7375 98.4367 41.7438C98.4367 41.7501 98.4367 41.7563 98.4367 41.7626C98.4367 41.7689 98.4367 41.7752 98.4367 41.7815C98.4367 41.7878 98.4367 41.7941 98.4367 41.8005C98.4367 41.8068 98.4367 41.8132 98.4367 41.8196C98.4367 41.8259 98.4367 41.8323 98.4367 41.8387C98.4367 41.8451 98.4367 41.8515 98.4367 41.8579C98.4367 41.8644 98.4367 41.8708 98.4367 41.8773C98.4367 41.8837 98.4367 41.8902 98.4367 41.8967C98.4367 41.9031 98.4367 41.9096 98.4367 41.9161C98.4367 41.9226 98.4367 41.9292 98.4367 41.9357C98.4367 41.9422 98.4367 41.9488 98.4367 41.9553C98.4367 41.9619 98.4367 41.9685 98.4367 41.9751C98.4367 41.9817 98.4367 41.9883 98.4367 41.9949C98.4367 42.0015 98.4367 42.0081 98.4367 42.0148C98.4367 42.0214 98.4367 42.0281 98.4367 42.0348C98.4367 42.0414 98.4367 42.0481 98.4367 42.0548C98.4367 42.0615 98.4367 42.0682 98.4367 42.075C98.4367 42.0817 98.4367 42.0884 98.4367 42.0952C98.4367 42.1019 98.4367 42.1087 98.4367 42.1155C98.4367 42.1223 98.4367 42.1291 98.4367 42.1359C98.4367 42.1427 98.4367 42.1495 98.4367 42.1563C98.4367 42.1632 98.4367 42.17 98.4367 42.1769C98.4367 42.1838 98.4367 42.1906 98.4367 42.1975C98.4367 42.2044 98.4367 42.2113 98.4367 42.2182C98.4367 42.2252 98.4367 42.2321 98.4367 42.239C98.4367 42.246 98.4367 42.2529 98.4367 42.2599C98.4367 42.2669 98.4367 42.2739 98.4367 42.2809C98.4367 42.2879 98.4367 42.2949 98.4367 42.3019C98.4367 42.3089 98.4367 42.3159 98.4367 42.323C98.4367 42.3301 98.4367 42.3371 98.4367 42.3442C98.4367 42.3513 98.4367 42.3584 98.4367 42.3655C98.4367 42.3726 98.4367 42.3797 98.4367 42.3868C98.4367 42.3939 98.4367 42.4011 98.4367 42.4082C98.4367 42.4154 98.4367 42.4226 98.4367 42.4298C98.4367 42.4369 98.4367 42.4441 98.4367 42.4514C98.4367 42.4586 98.4367 42.4658 98.4367 42.473C98.4367 42.4803 98.4367 42.4875 98.4367 42.4948C98.4367 42.502 98.4367 42.5093 98.4367 42.5166C98.4367 42.5239 98.4367 42.5312 98.4367 42.5385C98.4367 42.5458 98.4367 42.5531 98.4367 42.5605C98.4367 42.5678 98.4367 42.5752 98.4367 42.5826C98.4367 42.5899 98.4367 42.5973 98.4367 42.6047C98.4367 42.6121 98.4367 42.6195 98.4367 42.6269C98.4367 42.6343 98.4367 42.6418 98.4367 42.6492C98.4367 42.6567 98.4367 42.6641 98.4367 42.6716C98.4367 42.6791 98.4367 42.6865 98.4367 42.694C98.4367 42.7015 98.4367 42.709 98.4367 42.7166C98.4367 42.7241 98.4367 42.7316 98.4367 42.7392C98.4367 42.7467 98.4367 42.7543 98.4367 42.7619C98.4367 42.7694 98.4367 42.777 98.4367 42.7846C98.4367 42.7922 98.4367 42.7998 98.4367 42.8075C98.4367 42.8151 98.4367 42.8227 98.4367 42.8304C98.4367 42.838 98.4367 42.8457 98.4367 42.8534C98.4367 42.8611 98.4367 42.8687 98.4367 42.8764C98.4367 42.8841 98.4367 42.8919 98.4367 42.8996C98.4367 42.9073 98.4367 42.9151 98.4367 42.9228C98.4367 42.9306 98.4367 42.9383 98.4367 42.9461C98.4367 42.9539 98.4367 42.9617 98.4367 42.9695C98.4367 42.9773 98.4367 42.9851 98.4367 42.9929C98.4367 43.0008 98.4367 43.0086 98.4367 43.0165C98.4367 43.0243 98.4367 43.0322 98.4367 43.0401C98.4367 43.0479 98.4367 43.0558 98.4367 43.0637C98.4367 43.0716 98.4367 43.0796 98.4367 43.0875C98.4367 43.0954 98.4367 43.1034 98.4367 43.1113C98.4367 43.1193 98.4367 43.1272 98.4367 43.1352C98.4367 43.1432 98.4367 43.1512 98.4367 43.1592C98.4367 43.1672 98.4367 43.1752 98.4367 43.1832C98.4367 43.1913 98.4367 43.1993 98.4367 43.2074C98.4367 43.2154 98.4367 43.2235 98.4367 43.2316C98.4367 43.2396 98.4367 43.2477 98.4367 43.2558C98.4367 43.2639 98.4367 43.272 98.4367 43.2802C98.4367 43.2883 98.4367 43.2964 98.4367 43.3046C98.4367 43.3128 98.4367 43.3209 98.4367 43.3291C98.4367 43.3373 98.4367 43.3455 98.4367 43.3537C98.4367 43.3619 98.4367 43.3701 98.4367 43.3783C98.4367 43.3865 98.4367 43.3948 98.4367 43.403C98.4367 43.4113 98.4367 43.4195 98.4367 43.4278C98.4367 43.4361 98.4367 43.4444 98.4367 43.4527C98.4367 43.461 98.4367 43.4693 98.4367 43.4776C98.4367 43.4859 98.4367 43.4943 98.4367 43.5026C98.4367 43.511 98.4367 43.5193 98.4367 43.5277C98.4367 43.5361 98.4367 43.5444 98.4367 43.5528C98.4367 43.5612 98.4367 43.5696 98.4367 43.5781C98.4367 43.5865 98.4367 43.5949 98.4367 43.6034C98.4367 43.6118 98.4367 43.6202 98.4367 43.6287C98.4367 43.6372 98.4367 43.6457 98.4367 43.6542C98.4367 43.6626 98.4367 43.6712 98.4367 43.6797C98.4367 43.6882 98.4367 43.6967 98.4367 43.7052C98.4367 43.7138 98.4367 43.7223 98.4367 43.7309C98.4367 43.7395 98.4367 43.748 98.4367 43.7566C98.4367 43.7652 98.4367 43.7738 98.4367 43.7824C98.4367 43.791 98.4367 43.7997 98.4367 43.8083C98.4367 43.8169 98.4367 43.8256 98.4367 43.8342C98.4367 43.8429 98.4367 43.8516 98.4367 43.8602C98.4367 43.8689 98.4367 43.8776 98.4367 43.8863C98.4367 43.895 98.4367 43.9037 98.4367 43.9125C98.4367 43.9212 98.4367 43.9299 98.4367 43.9387C98.4367 43.9474 98.4367 43.9562 98.4367 43.965C98.4367 43.9737 98.4367 43.9825 98.4367 43.9913C98.4367 44.0001 98.4367 44.0089 98.4367 44.0178C98.4367 44.0266 98.4367 44.0354 98.4367 44.0443C98.4367 44.0531 98.4367 44.062 98.4367 44.0708C98.4367 44.0797 98.4367 44.0886 98.4367 44.0975C98.4367 44.1063 98.4367 44.1153 98.4367 44.1242C98.4367 44.1331 98.4367 44.142 98.4367 44.1509C98.4367 44.1599 98.4367 44.1688 98.4367 44.1778C98.4367 44.1867 98.4367 44.1957 98.4367 44.2047C98.4367 44.2137 98.4367 44.2227 98.4367 44.2317C98.4367 44.2407 98.4367 44.2497 98.4367 44.2587C98.4367 44.2678 98.4367 44.2768 98.4367 44.2858C98.4367 44.2949 98.4367 44.304 98.4367 44.313C98.4367 44.3221 98.4367 44.3312 98.4367 44.3403C98.4367 44.3494 98.4367 44.3585 98.4367 44.3676C98.4367 44.3767 98.4367 44.3859 98.4367 44.395C98.4367 44.4041 98.4367 44.4133 98.4367 44.4225C98.4367 44.4316 98.4367 44.4408 98.4367 44.45C98.4367 44.4592 98.4367 44.4684 98.4367 44.4776C98.4367 44.4868 98.4367 44.496 98.4367 44.5052C98.4367 44.5145 98.4367 44.5237 98.4367 44.5329C98.4367 44.5422 98.4367 44.5515 98.4367 44.5607C98.4367 44.57 98.4367 44.5793 98.4367 44.5886C98.4367 44.5979 98.4367 44.6072 98.4367 44.6165C98.4367 44.6258 98.4367 44.6352 98.4367 44.6445C98.4367 44.6539 98.4367 44.6632 98.4367 44.6726C98.4367 44.6819 98.4367 44.6913 98.4367 44.7007C98.4367 44.7101 98.4367 44.7195 98.4367 44.7289C98.4367 44.7383 98.4367 44.7477 98.4367 44.7571C98.4367 44.7666 98.4367 44.776 98.4367 44.7855C98.4367 44.7949 98.4367 44.8044 98.4367 44.8138C98.4367 44.8233 98.4367 44.8328 98.4367 44.8423C98.4367 44.8518 98.4367 44.8613 98.4367 44.8708C98.4367 44.8803 98.4367 44.8899 98.4367 44.8994C98.4367 44.9089 98.4367 44.9185 98.4367 44.928C98.4367 44.9376 98.4367 44.9472 98.4367 44.9568C98.4367 44.9663 98.4367 44.9759 98.4367 44.9855C98.4367 44.9951 98.4367 45.0048 98.4367 45.0144C98.4367 45.024 98.4367 45.0336 98.4367 45.0433C98.4367 45.0529 98.4367 45.0626 98.4367 45.0723C98.4367 45.0819 98.4367 45.0916 98.4367 45.1013C98.4367 45.111 98.4367 45.1207 98.4367 45.1304C98.4367 45.1401 98.4367 45.1498 98.4367 45.1595C98.4367 45.1693 98.4367 45.179 98.4367 45.1888C98.4367 45.1985 98.4367 45.2083 98.4367 45.2181C98.4367 45.2278 98.4367 45.2376 98.4367 45.2474C98.4367 45.2572 98.4367 45.267 98.4367 45.2768C98.4367 45.2866 98.4367 45.2965 98.4367 45.3063C98.4367 45.3161 98.4367 45.326 98.4367 45.3358C98.4367 45.3457 98.4367 45.3556 98.4367 45.3654C98.4367 45.3753 98.4367 45.3852 98.4367 45.3951C98.4367 45.405 98.4367 45.4149 98.4367 45.4248C98.4367 45.4348 98.4367 45.4447 98.4367 45.4546C98.4367 45.4646 98.4367 45.4745 98.4367 45.4845C98.4367 45.4944 98.4367 45.5044 98.4367 45.5144C98.4367 45.5244 98.4367 45.5344 98.4367 45.5444C98.4367 45.5544 98.4367 45.5644 98.4367 45.5744C98.4367 45.5844 98.4367 45.5945 98.4367 45.6045C98.4367 45.6145 98.4367 45.6246 98.4367 45.6347C98.4367 45.6447 98.4367 45.6548 98.4367 45.6649C98.4367 45.675 98.4367 45.6851 98.4367 45.6952C98.4367 45.7053 98.4367 45.7154 98.4367 45.7255C98.4367 45.7356 98.4367 45.7458 98.4367 45.7559C98.4367 45.7661 98.4367 45.7762 98.4367 45.7864C98.4367 45.7965 98.4367 45.8067 98.4367 45.8169C98.4367 45.8271 98.4367 45.8373 98.4367 45.8475C98.4367 45.8577 98.4367 45.8679 98.4367 45.8781C98.4367 45.8884 98.4367 45.8986 98.4367 45.9088C98.4367 45.9191 98.4367 45.9293 98.4367 45.9396C98.4367 45.9499 98.4367 45.9601 98.4367 45.9704C98.4367 45.9807 98.4367 45.991 98.4367 46.0013C98.4367 46.0116 98.4367 46.0219 98.4367 46.0323C98.4367 46.0426 98.4367 46.0529 98.4367 46.0633C98.4367 46.0736 98.4367 46.084 98.4367 46.0943C98.4367 46.1047 98.4367 46.1151 98.4367 46.1254C98.4367 46.1358 98.4367 46.1462 98.4367 46.1566C98.4367 46.167 98.4367 46.1774 98.4367 46.1879C98.4367 46.1983 98.4367 46.2087 98.4367 46.2192C98.4367 46.2296 98.4367 46.2401 98.4367 46.2505C98.4367 46.261 98.4367 46.2715 98.4367 46.2819C98.4367 46.2924 98.4367 46.3029 98.4367 46.3134C98.4367 46.3239 98.4367 46.3344 98.4367 46.3449C98.4367 46.3555 98.4367 46.366 98.4367 46.3765C98.4367 46.3871 98.4367 46.3976 98.4367 46.4082C98.4367 46.4187 98.4367 46.4293 98.4367 46.4399C98.4367 46.4505 98.4367 46.461 98.4367 46.4716C98.4367 46.4822 98.4367 46.4928 98.4367 46.5035C98.4367 46.5141 98.4367 46.5247 98.4367 46.5353C98.4367 46.546 98.4367 46.5566 98.4367 46.5673C98.4367 46.5779 98.4367 46.5886 98.4367 46.5993C98.4367 46.6099 98.4367 46.6206 98.4367 46.6313C98.4367 46.642 98.4367 46.6527 98.4367 46.6634C98.4367 46.6741 98.4367 46.6848 98.4367 46.6956C98.4367 46.7063 98.4367 46.717 98.4367 46.7278C98.4367 46.7385 98.4367 46.7493 98.4367 46.76C98.4367 46.7708 98.4367 46.7816 98.4367 46.7924C98.4367 46.8032 98.4367 46.814 98.4367 46.8248C98.4367 46.8356 98.4367 46.8464 98.4367 46.8572C98.4367 46.868 98.4367 46.8788 98.4367 46.8897C98.4367 46.9005 98.4367 46.9114 98.4367 46.9222C98.4367 46.9331 98.4367 46.944 98.4367 46.9548C98.4367 46.9657 98.4367 46.9766 98.4367 46.9875C98.4367 46.9984 98.4367 47.0093 98.4367 47.0202C98.4367 47.0311 98.4367 47.0421 98.4367 47.053C98.4367 47.0639 98.4367 47.0749 98.4367 47.0858C98.4367 47.0968 98.4367 47.1077 98.4367 47.1187C98.4367 47.1297 98.4367 47.1406 98.4367 47.1516C98.4367 47.1626 98.4367 47.1736 98.4367 47.1846C98.4367 47.1956 98.4367 47.2066 98.4367 47.2177C98.4367 47.2287 98.4367 47.2397 98.4367 47.2507C98.4367 47.2618 98.4367 47.2728 98.4367 47.2839C98.4367 47.295 98.4367 47.306 98.4367 47.3171C98.4367 47.3282 98.4367 47.3393 98.4367 47.3504C98.4367 47.3614 98.4367 47.3725 98.4367 47.3837C98.4367 47.3948 98.4367 47.4059 98.4367 47.417C98.4367 47.4282 98.4367 47.4393 98.4367 47.4504C98.4367 47.4616 98.4367 47.4727 98.4367 47.4839C98.4367 47.4951 98.4367 47.5062 98.4367 47.5174C98.4367 47.5286 98.4367 47.5398 98.4367 47.551C98.4367 47.5622 98.4367 47.5734 98.4367 47.5846C98.4367 47.5958 98.4367 47.6071 98.4367 47.6183C98.4367 47.6295 98.4367 47.6408 98.4367 47.652C98.4367 47.6633 98.4367 47.6745 98.4367 47.6858C98.4367 47.6971 98.4367 47.7084 98.4367 47.7196C98.4367 47.7309 98.4367 47.7422 98.4367 47.7535C98.4367 47.7648 98.4367 47.7761 98.4367 47.7875C98.4367 47.7988 98.4367 47.8101 98.4367 47.8215C98.4367 47.8328 98.4367 47.8441 98.4367 47.8555C98.4367 47.8668 98.4367 47.8782 98.4367 47.8896C98.4367 47.901 98.4367 47.9123 98.4367 47.9237C98.4367 47.9351 98.4367 47.9465 98.4367 47.9579C98.4367 47.9693 98.4367 47.9807 98.4367 47.9922C98.4367 48.0036 98.4367 48.015 98.4367 48.0265C98.4367 48.0379 98.4367 48.0493 98.4367 48.0608C98.4367 48.0723 98.4367 48.0837 98.4367 48.0952C98.4367 48.1067 98.4367 48.1181 98.4367 48.1296C98.4367 48.1411 98.4367 48.1526 98.4367 48.1641C98.4367 48.1756 98.4367 48.1871 98.4367 48.1987C98.4367 48.2102 98.4367 48.2217 98.4367 48.2333C98.4367 48.2448 98.4367 48.2564 98.4367 48.2679C98.4367 48.2795 98.4367 48.291 98.4367 48.3026C98.4367 48.3142 98.4367 48.3258 98.4367 48.3373C98.4367 48.3489 98.4367 48.3605 98.4367 48.3721C98.4367 48.3837 98.4367 48.3953 98.4367 48.407C98.4367 48.4186 98.4367 48.4302 98.4367 48.4419C98.4367 48.4535 98.4367 48.4651 98.4367 48.4768C98.4367 48.4884 98.4367 48.5001 98.4367 48.5118C98.4367 48.5234 98.4367 48.5351 98.4367 48.5468C98.4367 48.5585 98.4367 48.5702 98.4367 48.5819C98.4367 48.5936 98.4367 48.6053 98.4367 48.617C98.4367 48.6287 98.4367 48.6405 98.4367 48.6522C98.4367 48.6639 98.4367 48.6757 98.4367 48.6874C98.4367 48.6992 98.4367 48.7109 98.4367 48.7227C98.4367 48.7345 98.4367 48.7462 98.4367 48.758C98.4367 48.7698 98.4367 48.7816 98.4367 48.7934C98.4367 48.8052 98.4367 48.817 98.4367 48.8288C98.4367 48.8406 98.4367 48.8524 98.4367 48.8643C98.4367 48.8761 98.4367 48.8879 98.4367 48.8998C98.4367 48.9116 98.4367 48.9235 98.4367 48.9353C98.4367 48.9472 98.4367 48.959 98.4367 48.9709C98.4367 48.9828 98.4367 48.9947 98.4367 49.0066C98.4367 49.0185 98.4367 49.0304 98.4367 49.0423C98.4367 49.0542 98.4367 49.0661 98.4367 49.078C98.4367 49.0899 98.4367 49.1018 98.4367 49.1138C98.4367 49.1257 98.4367 49.1377 98.4367 49.1496C98.4367 49.1616 98.4367 49.1735 98.4367 49.1855C98.4367 49.1975 98.4367 49.2094 98.4367 49.2214C98.4367 49.2334 98.4367 49.2454 98.4367 49.2574C98.4367 49.2694 98.4367 49.2814 98.4367 49.2934C98.4367 49.3054 98.4367 49.3174 98.4367 49.3295C98.4367 49.3415 98.4367 49.3535 98.4367 49.3656C98.4367 49.3776 98.4367 49.3897 98.4367 49.4017C98.4367 49.4138 98.4367 49.4258 98.4367 49.4379C98.4367 49.45 98.4367 49.4621 98.4367 49.4741C98.4367 49.4862 98.4367 49.4983 98.4367 49.5104C98.4367 49.5225 98.4367 49.5346 98.4367 49.5467C98.4367 49.5589 98.4367 49.571 98.4367 49.5831C98.4367 49.5952 98.4367 49.6074 98.4367 49.6195C98.4367 49.6317 98.4367 49.6438 98.4367 49.656C98.4367 49.6681 98.4367 49.6803 98.4367 49.6925C98.4367 49.7047 98.4367 49.7168 98.4367 49.729C98.4367 49.7412 98.4367 49.7534 98.4367 49.7656C98.4367 49.7778 98.4367 49.79 98.4367 49.8022C98.4367 49.8145 98.4367 49.8267 98.4367 49.8389C98.4367 49.8512 98.4367 49.8634 98.4367 49.8756C98.4367 49.8879 98.4367 49.9001 98.4367 49.9124C98.4367 49.9247 98.4367 49.9369 98.4367 49.9492C98.4367 49.9615 98.4367 49.9738 98.4367 49.986C98.4367 49.9983 98.4367 50.0106 98.4367 50.0229C98.4367 50.0352 98.4367 50.0475 98.4367 50.0599C98.4367 50.0722 98.4367 50.0845 98.4367 50.0968C98.4367 50.1092 98.4367 50.1215 98.4367 50.1338C98.4367 50.1462 98.4367 50.1585 98.4367 50.1709C98.4367 50.1833 98.4367 50.1956 98.4367 50.208C98.4367 50.2204 98.4367 50.2327 98.4367 50.2451C98.4367 50.2575 98.4367 50.2699 98.4367 50.2823C98.4367 50.2947 98.4367 50.3071 98.4367 50.3195C98.4367 50.3319 98.4367 50.3444 98.4367 50.3568C98.4367 50.3692 98.4367 50.3816 98.4367 50.3941C98.4367 50.4065 98.4367 50.419 98.4367 50.4314C98.4367 50.4439 98.4367 50.4563 98.4367 50.4688C98.4367 50.4813 98.4367 50.4938 98.4367 50.5062C98.4367 50.5187 98.4367 50.5312 98.4367 50.5437C98.4367 50.5562 98.4367 50.5687 98.4367 50.5812C98.4367 50.5937 98.4367 50.6062 98.4367 50.6187C98.4367 50.6313 98.4367 50.6438 98.4367 50.6563C98.4367 50.6689 98.4367 50.6814 98.4367 50.694C98.4367 50.7065 98.4367 50.7191 98.4367 50.7316C98.4367 50.7442 98.4367 50.7567 98.4367 50.7693C98.4367 50.7819 98.4367 50.7945 98.4367 50.8071C98.4367 50.8196 98.4367 50.8322 98.4367 50.8448C98.4367 50.8574 98.4367 50.87 98.4367 50.8827C98.4367 50.8953 98.4367 50.9079 98.4367 50.9205C98.4367 50.9331 98.4367 50.9458 98.4367 50.9584C98.4367 50.971 98.4367 50.9837 98.4367 50.9963C98.4367 51.009 98.4367 51.0216 98.4367 51.0343C98.4367 51.047 98.4367 51.0596 98.4367 51.0723C98.4367 51.085 98.4367 51.0977 98.4367 51.1104C98.4367 51.1231 98.4367 51.1358 98.4367 51.1485C98.4367 51.1612 98.4367 51.1739 98.4367 51.1866C98.4367 51.1993 98.4367 51.212 98.4367 51.2247C98.4367 51.2375 98.4367 51.2502 98.4367 51.2629C98.4367 51.2757 98.4367 51.2884 98.4367 51.3012L102.437 51.3012ZM100.437 37.8659L81.2228 37.8659L81.2228 41.8659L100.437 41.8659L100.437 37.8659ZM83.2228 39.8659L83.2228 20.6507L79.2228 20.6507L79.2228 39.8659L83.2228 39.8659ZM100.437 41.8659L119.651 41.8659L119.651 37.8659L100.437 37.8659L100.437 41.8659ZM121.651 39.8659L121.651 20.6507L117.651 20.6507L117.651 39.8659L121.651 39.8659Z" fill="#9E9E9E"/>
<path d="M6.84872 277L100 176.015L193.151 277L6.84872 277Z" stroke="#9E9E9E" stroke-width="6"/>
<path fill-rule="evenodd" clip-rule="evenodd" d="M94.1784 214.831C88.5267 216.132 80.5487 220.103 76.7772 223.494C73.8545 226.121 72.6711 228.299 72.5061 231.356C72.2387 236.306 75.1473 239.491 80.4744 240.081C82.0357 240.254 82.0979 240.3 82.29 241.424C82.5317 242.836 84.7127 245.269 86.5053 246.124C88.3808 247.019 91.931 247.489 95.2782 247.287C98.1165 247.114 98.2307 247.133 98.3578 247.792C98.4305 248.168 98.655 249.321 98.8565 250.354C99.3378 252.821 101.278 256.463 102.76 257.679C105.035 259.547 106.751 258.741 107.146 255.618L107.342 254.073L109.096 254.371C113.475 255.113 119.312 251.702 119.312 248.402C119.312 247.703 119.663 247.269 120.962 246.362C124.237 244.075 125.775 240.994 125.764 236.738C125.756 233.423 125.019 230.746 123.22 227.504C119.983 221.666 112.337 216.325 104.858 214.676C101.993 214.044 97.3026 214.112 94.1784 214.831ZM103.255 215.454C104.23 215.627 105.643 215.924 106.395 216.113L107.763 216.457L106.325 217.143C104.509 218.01 102.244 220.047 102.244 220.814C102.244 221.67 102.55 221.544 103.802 220.176C104.419 219.502 105.611 218.64 106.451 218.259C108.669 217.255 110.276 217.516 113.491 219.402C115.955 220.849 120.976 224.943 119.418 224.236C118.243 223.703 115.565 223.844 114.162 224.513C112.9 225.114 112.877 225.114 112.191 224.516C111.292 223.733 110.297 223.446 109.869 223.847C109.64 224.061 109.841 224.314 110.489 224.628C111.798 225.261 112.509 226.06 112.841 227.271C113.234 228.7 113.79 228.522 113.79 226.967C113.79 225.691 113.823 225.654 115.337 225.211C117.176 224.673 118.784 224.886 120.354 225.876C121.94 226.875 122.882 228.33 123.877 231.314C124.634 233.583 124.726 234.319 124.603 237.125C124.485 239.817 124.32 240.594 123.587 241.922C122.662 243.595 120.71 245.447 118.995 246.276C118.051 246.733 117.985 246.868 118.173 247.968C118.351 249.009 118.238 249.311 117.293 250.318C115.516 252.211 113.575 253.091 110.813 253.257C108.831 253.376 108.1 253.277 106.652 252.695C103.878 251.579 102.874 249.954 104.243 248.797C104.829 248.3 105.314 248.263 108.566 248.46C110.934 248.603 112.461 248.566 112.884 248.354C113.628 247.981 114 247.012 113.619 246.436C113.316 245.977 112.619 246.297 112.619 246.896C112.619 247.602 111.666 247.712 108.573 247.36C105.341 246.993 104.48 247.114 103.331 248.097C101.803 249.405 102.742 251.844 105.316 253.247C106.276 253.77 106.316 253.874 106.134 255.343C105.773 258.245 104.247 258.399 102.285 255.73C100.84 253.767 100.017 251.642 99.554 248.683L99.1547 246.128H94.5683C89.2791 246.128 87.1341 245.679 85.3252 244.194C83.9109 243.032 83.4647 242.31 83.1384 240.652C82.5072 237.445 86.4196 233.921 90.6118 233.921C92.9344 233.921 94.0198 234.583 93.7517 235.837C93.4401 237.293 92.5365 238.298 90.6392 239.3C89.0461 240.14 88.2744 241.12 89.2048 241.12C89.771 241.12 92.0452 239.954 92.5177 239.421C93.1242 238.738 93.3671 238.765 99.5761 240.222C107.993 242.197 112.833 241.893 116.125 239.183C117.536 238.021 119.481 234.916 119.715 233.451C119.897 232.305 118.89 232.791 118.417 234.077C117.786 235.792 116.09 238.055 114.833 238.858C113.463 239.734 110.264 240.494 107.947 240.494C105.691 240.495 100.57 239.581 100.57 239.178C100.57 238.637 101.314 237.523 102.03 236.992C102.69 236.502 102.698 236.448 102.145 236.25C101.388 235.978 100.37 236.815 99.8619 238.129L99.4797 239.118L96.9291 238.528C95.5265 238.203 94.3477 237.908 94.3096 237.873C94.2718 237.837 94.4244 237.226 94.649 236.515C95.1362 234.971 96.7765 233.63 99.8314 232.278C101.64 231.477 102.235 231.363 104.049 231.471C106.02 231.588 106.48 231.761 108.466 233.127C109.101 233.563 109.387 233.141 108.961 232.397C108.76 232.046 107.63 231.327 106.449 230.8C104.128 229.764 102.57 228.328 102.593 227.245C102.601 226.871 102.805 226.047 103.047 225.415C103.292 224.773 103.366 224.083 103.214 223.852C102.862 223.321 102.451 223.736 101.955 225.125C101.394 226.693 101.489 227.927 102.261 229.094L102.946 230.132L101.509 230.494C99.6346 230.966 98.0208 231.749 96.1082 233.114L94.5573 234.222L93.2965 233.414C92.2082 232.717 91.7814 232.627 90.1713 232.759C86.8647 233.03 83.7559 235.101 82.4229 237.919C81.7642 239.311 81.7629 239.312 80.3737 239.106C78.3033 238.798 75.6661 237.564 74.9 236.543C73.8331 235.122 73.3769 233.391 73.5201 231.307C73.6912 228.82 74.7621 226.77 76.9717 224.704C78.5212 223.255 83.8188 219.714 84.0769 219.955C84.1327 220.007 83.939 220.671 83.6468 221.429C83.3181 222.281 83.1143 223.829 83.1137 225.477L83.1127 228.145L81.8011 228.851C81.0798 229.239 80.4898 229.686 80.4898 229.842C80.4898 230.459 81.1618 230.455 82.293 229.831C83.1488 229.358 83.9229 229.202 85.0795 229.269C87.1144 229.386 87.3346 228.611 85.3891 228.181L84.0966 227.895L84.2265 224.873C84.3396 222.243 84.4795 221.654 85.3048 220.337C86.1154 219.043 86.5997 218.674 88.6425 217.795C89.9568 217.23 91.839 216.545 92.825 216.274L94.6182 215.78L94.069 216.477C93.155 217.638 92.2463 219.631 92.0154 220.982C91.8952 221.684 91.6248 222.254 91.4146 222.249C90.3102 222.224 89.8607 222.385 89.8607 222.809C89.8607 223.151 90.2453 223.28 91.2831 223.285C92.0656 223.289 93.3608 223.57 94.1617 223.91C94.9626 224.25 95.7631 224.444 95.9405 224.341C96.4381 224.054 95.2751 223.032 94.0037 222.64C92.7135 222.241 92.6837 222.109 93.3892 219.887C93.9739 218.046 95.5529 216.186 97.0499 215.576C98.2712 215.078 100.851 215.028 103.255 215.454Z" fill="#9E9E9E" stroke="#9E9E9E"/>
</svg>
