<svg width="300" height="240" viewBox="0 0 300 240" fill="none" xmlns="http://www.w3.org/2000/svg">
<path d="M297 232.587L188.022 120L297 7.41285L297 232.587Z" stroke="#9E9E9E" stroke-width="6"/>
<path fill-rule="evenodd" clip-rule="evenodd" d="M251.286 95.095C245.125 96.5058 236.428 100.813 232.317 104.491C229.131 107.341 227.841 109.704 227.661 113.019C227.369 118.389 230.54 121.843 236.347 122.483C238.049 122.671 238.117 122.721 238.327 123.94C238.59 125.472 240.968 128.11 242.922 129.038C244.966 130.009 248.836 130.519 252.485 130.299C255.579 130.112 255.704 130.133 255.842 130.847C255.922 131.255 256.166 132.506 256.386 133.626C256.911 136.302 259.026 140.252 260.641 141.572C263.121 143.598 264.992 142.724 265.423 139.336L265.636 137.661L267.548 137.983C272.321 138.788 278.685 135.089 278.685 131.509C278.685 130.75 279.067 130.28 280.484 129.296C284.054 126.816 285.73 123.474 285.719 118.857C285.71 115.261 284.906 112.358 282.946 108.841C279.416 102.509 271.081 96.7149 262.928 94.9263C259.806 94.2415 254.692 94.3155 251.286 95.095ZM261.181 95.7707C262.244 95.9584 263.784 96.28 264.604 96.4854L266.095 96.8589L264.528 97.6028C262.547 98.5432 260.079 100.753 260.079 101.585C260.079 102.513 260.412 102.377 261.778 100.892C262.449 100.161 263.749 99.226 264.665 98.8135C267.082 97.7243 268.835 98.0075 272.339 100.053C275.026 101.622 280.499 106.063 278.801 105.296C277.519 104.718 274.6 104.871 273.07 105.596C271.695 106.249 271.67 106.249 270.922 105.601C269.942 104.75 268.858 104.439 268.391 104.874C268.141 105.107 268.36 105.381 269.067 105.722C270.494 106.408 271.269 107.275 271.631 108.588C272.059 110.139 272.666 109.946 272.666 108.259C272.666 106.875 272.701 106.834 274.351 106.354C276.357 105.77 278.11 106.001 279.821 107.075C281.55 108.159 282.577 109.737 283.662 112.974C284.486 115.436 284.587 116.234 284.453 119.277C284.324 122.197 284.145 123.039 283.345 124.48C282.337 126.295 280.209 128.304 278.34 129.203C277.31 129.699 277.239 129.845 277.443 131.038C277.638 132.167 277.514 132.496 276.484 133.587C274.547 135.641 272.431 136.595 269.42 136.775C267.259 136.904 266.463 136.797 264.885 136.165C261.86 134.955 260.766 133.193 262.258 131.937C262.897 131.399 263.425 131.358 266.971 131.572C269.552 131.727 271.216 131.687 271.678 131.457C272.489 131.053 272.894 130.001 272.479 129.376C272.149 128.879 271.389 129.226 271.389 129.875C271.389 130.642 270.35 130.76 266.978 130.379C263.455 129.98 262.516 130.112 261.264 131.178C259.598 132.597 260.622 135.242 263.428 136.764C264.474 137.331 264.518 137.444 264.319 139.038C263.926 142.186 262.263 142.353 260.123 139.458C258.548 137.328 257.651 135.023 257.146 131.814L256.711 129.043H251.711C245.946 129.043 243.607 128.556 241.635 126.944C240.094 125.685 239.607 124.901 239.251 123.102C238.563 119.624 242.828 115.801 247.398 115.801C249.93 115.801 251.113 116.52 250.821 117.88C250.482 119.459 249.496 120.55 247.428 121.636C245.692 122.548 244.85 123.61 245.865 123.61C246.482 123.61 248.961 122.345 249.476 121.768C250.137 121.026 250.402 121.056 257.17 122.636C266.345 124.779 271.622 124.449 275.211 121.509C276.749 120.249 278.869 116.881 279.124 115.292C279.323 114.049 278.225 114.576 277.709 115.971C277.022 117.831 275.173 120.286 273.802 121.157C272.309 122.107 268.821 122.931 266.295 122.931C263.836 122.932 258.254 121.941 258.254 121.504C258.254 120.917 259.065 119.709 259.845 119.133C260.565 118.601 260.574 118.542 259.971 118.328C259.145 118.033 258.036 118.941 257.482 120.366L257.065 121.439L254.285 120.799C252.756 120.447 251.471 120.127 251.429 120.088C251.388 120.05 251.555 119.387 251.799 118.615C252.331 116.941 254.119 115.486 257.449 114.019C259.42 113.151 260.069 113.027 262.047 113.144C264.195 113.271 264.697 113.459 266.862 114.94C267.553 115.414 267.865 114.955 267.401 114.148C267.182 113.767 265.95 112.988 264.663 112.417C262.132 111.293 260.434 109.735 260.459 108.56C260.468 108.154 260.691 107.261 260.954 106.575C261.221 105.879 261.302 105.13 261.136 104.88C260.753 104.304 260.305 104.754 259.763 106.26C259.152 107.962 259.256 109.3 260.097 110.566L260.844 111.692L259.278 112.084C257.234 112.596 255.475 113.446 253.39 114.927L251.699 116.128L250.325 115.252C249.139 114.495 248.673 114.398 246.918 114.542C243.314 114.836 239.925 117.081 238.471 120.138C237.753 121.648 237.752 121.649 236.238 121.425C233.981 121.092 231.106 119.753 230.271 118.646C229.108 117.104 228.61 115.226 228.766 112.966C228.953 110.268 230.12 108.045 232.529 105.804C234.218 104.232 239.993 100.392 240.274 100.653C240.335 100.71 240.124 101.43 239.806 102.252C239.447 103.176 239.225 104.855 239.224 106.643L239.223 109.537L237.794 110.303C237.007 110.724 236.364 111.207 236.364 111.378C236.364 112.047 237.097 112.042 238.33 111.365C239.263 110.853 240.107 110.683 241.368 110.756C243.586 110.883 243.826 110.042 241.705 109.575L240.296 109.265L240.438 105.987C240.561 103.135 240.713 102.495 241.613 101.067C242.497 99.6633 243.025 99.2637 245.252 98.3103C246.684 97.6971 248.736 96.9543 249.811 96.6596L251.766 96.1238L251.167 96.8803C250.171 98.1399 249.18 100.302 248.928 101.767C248.797 102.528 248.503 103.147 248.274 103.141C247.07 103.114 246.58 103.289 246.58 103.748C246.58 104.12 246.999 104.259 248.13 104.265C248.983 104.269 250.395 104.574 251.268 104.943C252.141 105.311 253.014 105.522 253.207 105.411C253.75 105.099 252.482 103.991 251.096 103.565C249.689 103.133 249.657 102.989 250.426 100.579C251.063 98.5816 252.785 96.5648 254.417 95.9031C255.748 95.3633 258.561 95.3083 261.181 95.7707Z" fill="#9E9E9E" stroke="#9E9E9E"/>
<path d="M2.99988 7.41288L111.977 120L2.99986 232.587L2.99988 7.41288Z" stroke="#9E9E9E" stroke-width="6"/>
<path d="M75.2041 118.554L55.2041 107.007L55.2041 130.101L75.2041 118.554ZM43.6654 139.759L43.6654 141.759L45.6654 141.759L45.6654 139.759L43.6654 139.759ZM43.6654 97.3494L45.6654 97.3494L45.6654 95.3494L43.6654 95.3494L43.6654 97.3494ZM57.2048 116.554C57.1899 116.554 57.175 116.554 57.1601 116.554C57.1452 116.554 57.1304 116.554 57.1155 116.554C57.1006 116.554 57.0858 116.554 57.0709 116.554C57.056 116.554 57.0412 116.554 57.0263 116.554C57.0115 116.554 56.9967 116.554 56.9818 116.554C56.967 116.554 56.9522 116.554 56.9374 116.554C56.9225 116.554 56.9077 116.554 56.8929 116.554C56.8781 116.554 56.8633 116.554 56.8485 116.554C56.8337 116.554 56.819 116.554 56.8042 116.554C56.7894 116.554 56.7746 116.554 56.7599 116.554C56.7451 116.554 56.7303 116.554 56.7156 116.554C56.7008 116.554 56.6861 116.554 56.6714 116.554C56.6566 116.554 56.6419 116.554 56.6272 116.554C56.6125 116.554 56.5977 116.554 56.583 116.554C56.5683 116.554 56.5536 116.554 56.5389 116.554C56.5242 116.554 56.5096 116.554 56.4949 116.554C56.4802 116.554 56.4655 116.554 56.4509 116.554C56.4362 116.554 56.4215 116.554 56.4069 116.554C56.3922 116.554 56.3776 116.554 56.3629 116.554C56.3483 116.554 56.3337 116.554 56.3191 116.554C56.3044 116.554 56.2898 116.554 56.2752 116.554C56.2606 116.554 56.246 116.554 56.2314 116.554C56.2168 116.554 56.2022 116.554 56.1876 116.554C56.1731 116.554 56.1585 116.554 56.1439 116.554C56.1294 116.554 56.1148 116.554 56.1002 116.554C56.0857 116.554 56.0712 116.554 56.0566 116.554C56.0421 116.554 56.0275 116.554 56.013 116.554C55.9985 116.554 55.984 116.554 55.9695 116.554C55.955 116.554 55.9405 116.554 55.926 116.554C55.9115 116.554 55.897 116.554 55.8825 116.554C55.8681 116.554 55.8536 116.554 55.8391 116.554C55.8247 116.554 55.8102 116.554 55.7958 116.554C55.7813 116.554 55.7669 116.554 55.7525 116.554C55.738 116.554 55.7236 116.554 55.7092 116.554C55.6948 116.554 55.6804 116.554 55.666 116.554C55.6516 116.554 55.6372 116.554 55.6228 116.554C55.6084 116.554 55.594 116.554 55.5796 116.554C55.5653 116.554 55.5509 116.554 55.5366 116.554C55.5222 116.554 55.5078 116.554 55.4935 116.554C55.4792 116.554 55.4648 116.554 55.4505 116.554C55.4362 116.554 55.4219 116.554 55.4076 116.554C55.3933 116.554 55.379 116.554 55.3647 116.554C55.3504 116.554 55.3361 116.554 55.3218 116.554C55.3075 116.554 55.2933 116.554 55.279 116.554C55.2647 116.554 55.2505 116.554 55.2362 116.554C55.222 116.554 55.2078 116.554 55.1935 116.554C55.1793 116.554 55.1651 116.554 55.1509 116.554C55.1367 116.554 55.1224 116.554 55.1083 116.554C55.0941 116.554 55.0799 116.554 55.0657 116.554C55.0515 116.554 55.0373 116.554 55.0232 116.554C55.009 116.554 54.9948 116.554 54.9807 116.554C54.9665 116.554 54.9524 116.554 54.9383 116.554C54.9241 116.554 54.91 116.554 54.8959 116.554C54.8818 116.554 54.8677 116.554 54.8536 116.554C54.8395 116.554 54.8254 116.554 54.8113 116.554C54.7972 116.554 54.7831 116.554 54.7691 116.554C54.755 116.554 54.741 116.554 54.7269 116.554C54.7129 116.554 54.6988 116.554 54.6848 116.554C54.6707 116.554 54.6567 116.554 54.6427 116.554C54.6287 116.554 54.6147 116.554 54.6007 116.554C54.5867 116.554 54.5727 116.554 54.5587 116.554C54.5447 116.554 54.5308 116.554 54.5168 116.554C54.5028 116.554 54.4889 116.554 54.4749 116.554C54.461 116.554 54.447 116.554 54.4331 116.554C54.4192 116.554 54.4052 116.554 54.3913 116.554C54.3774 116.554 54.3635 116.554 54.3496 116.554C54.3357 116.554 54.3218 116.554 54.3079 116.554C54.2941 116.554 54.2802 116.554 54.2663 116.554C54.2525 116.554 54.2386 116.554 54.2248 116.554C54.2109 116.554 54.1971 116.554 54.1833 116.554C54.1694 116.554 54.1556 116.554 54.1418 116.554C54.128 116.554 54.1142 116.554 54.1004 116.554C54.0866 116.554 54.0728 116.554 54.059 116.554C54.0453 116.554 54.0315 116.554 54.0177 116.554C54.004 116.554 53.9902 116.554 53.9765 116.554C53.9628 116.554 53.949 116.554 53.9353 116.554C53.9216 116.554 53.9079 116.554 53.8942 116.554C53.8805 116.554 53.8668 116.554 53.8531 116.554C53.8394 116.554 53.8257 116.554 53.812 116.554C53.7984 116.554 53.7847 116.554 53.7711 116.554C53.7574 116.554 53.7438 116.554 53.7301 116.554C53.7165 116.554 53.7029 116.554 53.6893 116.554C53.6757 116.554 53.6621 116.554 53.6485 116.554C53.6349 116.554 53.6213 116.554 53.6077 116.554C53.5941 116.554 53.5806 116.554 53.567 116.554C53.5534 116.554 53.5399 116.554 53.5263 116.554C53.5128 116.554 53.4993 116.554 53.4857 116.554C53.4722 116.554 53.4587 116.554 53.4452 116.554C53.4317 116.554 53.4182 116.554 53.4047 116.554C53.3912 116.554 53.3778 116.554 53.3643 116.554C53.3508 116.554 53.3374 116.554 53.3239 116.554C53.3105 116.554 53.297 116.554 53.2836 116.554C53.2702 116.554 53.2568 116.554 53.2434 116.554C53.2299 116.554 53.2165 116.554 53.2032 116.554C53.1898 116.554 53.1764 116.554 53.163 116.554C53.1496 116.554 53.1363 116.554 53.1229 116.554C53.1096 116.554 53.0962 116.554 53.0829 116.554C53.0696 116.554 53.0562 116.554 53.0429 116.554C53.0296 116.554 53.0163 116.554 53.003 116.554C52.9897 116.554 52.9764 116.554 52.9632 116.554C52.9499 116.554 52.9366 116.554 52.9234 116.554C52.9101 116.554 52.8969 116.554 52.8836 116.554C52.8704 116.554 52.8571 116.554 52.8439 116.554C52.8307 116.554 52.8175 116.554 52.8043 116.554C52.7911 116.554 52.7779 116.554 52.7647 116.554C52.7516 116.554 52.7384 116.554 52.7252 116.554C52.7121 116.554 52.6989 116.554 52.6858 116.554C52.6727 116.554 52.6595 116.554 52.6464 116.554C52.6333 116.554 52.6202 116.554 52.6071 116.554C52.594 116.554 52.5809 116.554 52.5678 116.554C52.5547 116.554 52.5417 116.554 52.5286 116.554C52.5155 116.554 52.5025 116.554 52.4895 116.554C52.4764 116.554 52.4634 116.554 52.4504 116.554C52.4373 116.554 52.4243 116.554 52.4113 116.554C52.3983 116.554 52.3853 116.554 52.3724 116.554C52.3594 116.554 52.3464 116.554 52.3335 116.554C52.3205 116.554 52.3076 116.554 52.2946 116.554C52.2817 116.554 52.2688 116.554 52.2558 116.554C52.2429 116.554 52.23 116.554 52.2171 116.554C52.2042 116.554 52.1913 116.554 52.1785 116.554C52.1656 116.554 52.1527 116.554 52.1399 116.554C52.127 116.554 52.1142 116.554 52.1013 116.554C52.0885 116.554 52.0757 116.554 52.0628 116.554C52.05 116.554 52.0372 116.554 52.0244 116.554C52.0116 116.554 51.9989 116.554 51.9861 116.554C51.9733 116.554 51.9605 116.554 51.9478 116.554C51.935 116.554 51.9223 116.554 51.9096 116.554C51.8968 116.554 51.8841 116.554 51.8714 116.554C51.8587 116.554 51.846 116.554 51.8333 116.554C51.8206 116.554 51.8079 116.554 51.7953 116.554C51.7826 116.554 51.77 116.554 51.7573 116.554C51.7447 116.554 51.732 116.554 51.7194 116.554C51.7068 116.554 51.6942 116.554 51.6816 116.554C51.669 116.554 51.6564 116.554 51.6438 116.554C51.6312 116.554 51.6186 116.554 51.6061 116.554C51.5935 116.554 51.581 116.554 51.5684 116.554C51.5559 116.554 51.5433 116.554 51.5308 116.554C51.5183 116.554 51.5058 116.554 51.4933 116.554C51.4808 116.554 51.4683 116.554 51.4559 116.554C51.4434 116.554 51.4309 116.554 51.4185 116.554C51.406 116.554 51.3936 116.554 51.3811 116.554C51.3687 116.554 51.3563 116.554 51.3439 116.554C51.3315 116.554 51.3191 116.554 51.3067 116.554C51.2943 116.554 51.2819 116.554 51.2696 116.554C51.2572 116.554 51.2448 116.554 51.2325 116.554C51.2202 116.554 51.2078 116.554 51.1955 116.554C51.1832 116.554 51.1709 116.554 51.1586 116.554C51.1463 116.554 51.134 116.554 51.1217 116.554C51.1095 116.554 51.0972 116.554 51.0849 116.554C51.0727 116.554 51.0604 116.554 51.0482 116.554C51.036 116.554 51.0238 116.554 51.0115 116.554C50.9993 116.554 50.9871 116.554 50.975 116.554C50.9628 116.554 50.9506 116.554 50.9384 116.554C50.9263 116.554 50.9141 116.554 50.902 116.554C50.8898 116.554 50.8777 116.554 50.8656 116.554C50.8535 116.554 50.8414 116.554 50.8293 116.554C50.8172 116.554 50.8051 116.554 50.793 116.554C50.781 116.554 50.7689 116.554 50.7568 116.554C50.7448 116.554 50.7328 116.554 50.7207 116.554C50.7087 116.554 50.6967 116.554 50.6847 116.554C50.6727 116.554 50.6607 116.554 50.6487 116.554C50.6367 116.554 50.6248 116.554 50.6128 116.554C50.6009 116.554 50.5889 116.554 50.577 116.554C50.565 116.554 50.5531 116.554 50.5412 116.554C50.5293 116.554 50.5174 116.554 50.5055 116.554C50.4936 116.554 50.4818 116.554 50.4699 116.554C50.458 116.554 50.4462 116.554 50.4343 116.554C50.4225 116.554 50.4107 116.554 50.3989 116.554C50.387 116.554 50.3752 116.554 50.3634 116.554C50.3517 116.554 50.3399 116.554 50.3281 116.554C50.3163 116.554 50.3046 116.554 50.2928 116.554C50.2811 116.554 50.2694 116.554 50.2576 116.554C50.2459 116.554 50.2342 116.554 50.2225 116.554C50.2108 116.554 50.1991 116.554 50.1874 116.554C50.1758 116.554 50.1641 116.554 50.1525 116.554C50.1408 116.554 50.1292 116.554 50.1175 116.554C50.1059 116.554 50.0943 116.554 50.0827 116.554C50.0711 116.554 50.0595 116.554 50.0479 116.554C50.0364 116.554 50.0248 116.554 50.0132 116.554C50.0017 116.554 49.9902 116.554 49.9786 116.554C49.9671 116.554 49.9556 116.554 49.9441 116.554C49.9326 116.554 49.9211 116.554 49.9096 116.554C49.8981 116.554 49.8867 116.554 49.8752 116.554C49.8637 116.554 49.8523 116.554 49.8409 116.554C49.8294 116.554 49.818 116.554 49.8066 116.554C49.7952 116.554 49.7838 116.554 49.7724 116.554C49.7611 116.554 49.7497 116.554 49.7383 116.554C49.727 116.554 49.7156 116.554 49.7043 116.554C49.693 116.554 49.6816 116.554 49.6703 116.554C49.659 116.554 49.6477 116.554 49.6365 116.554C49.6252 116.554 49.6139 116.554 49.6026 116.554C49.5914 116.554 49.5801 116.554 49.5689 116.554C49.5577 116.554 49.5465 116.554 49.5353 116.554C49.5241 116.554 49.5129 116.554 49.5017 116.554C49.4905 116.554 49.4793 116.554 49.4682 116.554C49.457 116.554 49.4459 116.554 49.4347 116.554C49.4236 116.554 49.4125 116.554 49.4014 116.554C49.3903 116.554 49.3792 116.554 49.3681 116.554C49.357 116.554 49.346 116.554 49.3349 116.554C49.3238 116.554 49.3128 116.554 49.3018 116.554C49.2907 116.554 49.2797 116.554 49.2687 116.554C49.2577 116.554 49.2467 116.554 49.2358 116.554C49.2248 116.554 49.2138 116.554 49.2029 116.554C49.1919 116.554 49.181 116.554 49.17 116.554C49.1591 116.554 49.1482 116.554 49.1373 116.554C49.1264 116.554 49.1155 116.554 49.1046 116.554C49.0938 116.554 49.0829 116.554 49.0721 116.554C49.0612 116.554 49.0504 116.554 49.0396 116.554C49.0287 116.554 49.0179 116.554 49.0071 116.554C48.9963 116.554 48.9855 116.554 48.9748 116.554C48.964 116.554 48.9532 116.554 48.9425 116.554C48.9318 116.554 48.921 116.554 48.9103 116.554C48.8996 116.554 48.8889 116.554 48.8782 116.554C48.8675 116.554 48.8568 116.554 48.8462 116.554C48.8355 116.554 48.8249 116.554 48.8142 116.554C48.8036 116.554 48.793 116.554 48.7823 116.554C48.7717 116.554 48.7611 116.554 48.7505 116.554C48.74 116.554 48.7294 116.554 48.7188 116.554C48.7083 116.554 48.6977 116.554 48.6872 116.554C48.6767 116.554 48.6661 116.554 48.6556 116.554C48.6451 116.554 48.6346 116.554 48.6242 116.554C48.6137 116.554 48.6032 116.554 48.5928 116.554C48.5823 116.554 48.5719 116.554 48.5615 116.554C48.551 116.554 48.5406 116.554 48.5302 116.554C48.5198 116.554 48.5095 116.554 48.4991 116.554C48.4887 116.554 48.4784 116.554 48.468 116.554C48.4577 116.554 48.4473 116.554 48.437 116.554C48.4267 116.554 48.4164 116.554 48.4061 116.554C48.3958 116.554 48.3856 116.554 48.3753 116.554C48.365 116.554 48.3548 116.554 48.3446 116.554C48.3343 116.554 48.3241 116.554 48.3139 116.554C48.3037 116.554 48.2935 116.554 48.2833 116.554C48.2731 116.554 48.263 116.554 48.2528 116.554C48.2427 116.554 48.2325 116.554 48.2224 116.554C48.2123 116.554 48.2022 116.554 48.1921 116.554C48.182 116.554 48.1719 116.554 48.1619 116.554C48.1518 116.554 48.1417 116.554 48.1317 116.554C48.1217 116.554 48.1116 116.554 48.1016 116.554C48.0916 116.554 48.0816 116.554 48.0716 116.554C48.0616 116.554 48.0517 116.554 48.0417 116.554C48.0318 116.554 48.0218 116.554 48.0119 116.554C48.002 116.554 47.9921 116.554 47.9822 116.554C47.9723 116.554 47.9624 116.554 47.9525 116.554C47.9426 116.554 47.9328 116.554 47.9229 116.554C47.9131 116.554 47.9033 116.554 47.8934 116.554C47.8836 116.554 47.8738 116.554 47.8641 116.554C47.8543 116.554 47.8445 116.554 47.8347 116.554C47.825 116.554 47.8152 116.554 47.8055 116.554C47.7958 116.554 47.7861 116.554 47.7764 116.554C47.7667 116.554 47.757 116.554 47.7473 116.554C47.7376 116.554 47.728 116.554 47.7183 116.554C47.7087 116.554 47.6991 116.554 47.6895 116.554C47.6798 116.554 47.6702 116.554 47.6607 116.554C47.6511 116.554 47.6415 116.554 47.6319 116.554C47.6224 116.554 47.6129 116.554 47.6033 116.554C47.5938 116.554 47.5843 116.554 47.5748 116.554C47.5653 116.554 47.5558 116.554 47.5463 116.554C47.5369 116.554 47.5274 116.554 47.518 116.554C47.5085 116.554 47.4991 116.554 47.4897 116.554C47.4803 116.554 47.4709 116.554 47.4615 116.554C47.4521 116.554 47.4428 116.554 47.4334 116.554C47.4241 116.554 47.4147 116.554 47.4054 116.554C47.3961 116.554 47.3868 116.554 47.3775 116.554C47.3682 116.554 47.3589 116.554 47.3497 116.554C47.3404 116.554 47.3311 116.554 47.3219 116.554C47.3127 116.554 47.3035 116.554 47.2943 116.554C47.285 116.554 47.2759 116.554 47.2667 116.554C47.2575 116.554 47.2484 116.554 47.2392 116.554C47.2301 116.554 47.2209 116.554 47.2118 116.554C47.2027 116.554 47.1936 116.554 47.1845 116.554C47.1754 116.554 47.1664 116.554 47.1573 116.554C47.1483 116.554 47.1392 116.554 47.1302 116.554C47.1212 116.554 47.1122 116.554 47.1032 116.554C47.0942 116.554 47.0852 116.554 47.0762 116.554C47.0673 116.554 47.0583 116.554 47.0494 116.554C47.0405 116.554 47.0315 116.554 47.0226 116.554C47.0137 116.554 47.0048 116.554 46.996 116.554C46.9871 116.554 46.9782 116.554 46.9694 116.554C46.9606 116.554 46.9517 116.554 46.9429 116.554C46.9341 116.554 46.9253 116.554 46.9165 116.554C46.9077 116.554 46.899 116.554 46.8902 116.554C46.8815 116.554 46.8727 116.554 46.864 116.554C46.8553 116.554 46.8466 116.554 46.8379 116.554C46.8292 116.554 46.8205 116.554 46.8119 116.554C46.8032 116.554 46.7946 116.554 46.786 116.554C46.7773 116.554 46.7687 116.554 46.7601 116.554C46.7515 116.554 46.7429 116.554 46.7344 116.554C46.7258 116.554 46.7173 116.554 46.7087 116.554C46.7002 116.554 46.6917 116.554 46.6832 116.554C46.6747 116.554 46.6662 116.554 46.6577 116.554C46.6492 116.554 46.6408 116.554 46.6323 116.554C46.6239 116.554 46.6155 116.554 46.6071 116.554C46.5987 116.554 46.5903 116.554 46.5819 116.554C46.5735 116.554 46.5651 116.554 46.5568 116.554C46.5484 116.554 46.5401 116.554 46.5318 116.554C46.5235 116.554 46.5152 116.554 46.5069 116.554C46.4986 116.554 46.4903 116.554 46.4821 116.554C46.4738 116.554 46.4656 116.554 46.4574 116.554C46.4492 116.554 46.441 116.554 46.4328 116.554C46.4246 116.554 46.4164 116.554 46.4083 116.554C46.4001 116.554 46.392 116.554 46.3838 116.554C46.3757 116.554 46.3676 116.554 46.3595 116.554C46.3514 116.554 46.3433 116.554 46.3353 116.554C46.3272 116.554 46.3192 116.554 46.3111 116.554C46.3031 116.554 46.2951 116.554 46.2871 116.554C46.2791 116.554 46.2711 116.554 46.2632 116.554C46.2552 116.554 46.2472 116.554 46.2393 116.554C46.2314 116.554 46.2235 116.554 46.2156 116.554C46.2077 116.554 46.1998 116.554 46.1919 116.554C46.184 116.554 46.1762 116.554 46.1684 116.554C46.1605 116.554 46.1527 116.554 46.1449 116.554C46.1371 116.554 46.1293 116.554 46.1215 116.554C46.1138 116.554 46.106 116.554 46.0983 116.554C46.0905 116.554 46.0828 116.554 46.0751 116.554C46.0674 116.554 46.0597 116.554 46.052 116.554C46.0444 116.554 46.0367 116.554 46.0291 116.554C46.0214 116.554 46.0138 116.554 46.0062 116.554C45.9986 116.554 45.991 116.554 45.9834 116.554C45.9759 116.554 45.9683 116.554 45.9608 116.554C45.9532 116.554 45.9457 116.554 45.9382 116.554C45.9307 116.554 45.9232 116.554 45.9157 116.554C45.9083 116.554 45.9008 116.554 45.8934 116.554C45.8859 116.554 45.8785 116.554 45.8711 116.554C45.8637 116.554 45.8563 116.554 45.8489 116.554C45.8415 116.554 45.8342 116.554 45.8268 116.554C45.8195 116.554 45.8122 116.554 45.8049 116.554C45.7976 116.554 45.7903 116.554 45.783 116.554C45.7757 116.554 45.7685 116.554 45.7612 116.554C45.754 116.554 45.7468 116.554 45.7395 116.554C45.7323 116.554 45.7251 116.554 45.718 116.554C45.7108 116.554 45.7036 116.554 45.6965 116.554C45.6894 116.554 45.6822 116.554 45.6751 116.554C45.668 116.554 45.6609 116.554 45.6539 116.554C45.6468 116.554 45.6397 116.554 45.6327 116.554C45.6257 116.554 45.6186 116.554 45.6116 116.554C45.6046 116.554 45.5977 116.554 45.5907 116.554C45.5837 116.554 45.5768 116.554 45.5698 116.554C45.5629 116.554 45.556 116.554 45.5491 116.554C45.5422 116.554 45.5353 116.554 45.5284 116.554C45.5215 116.554 45.5147 116.554 45.5079 116.554C45.501 116.554 45.4942 116.554 45.4874 116.554C45.4806 116.554 45.4738 116.554 45.4671 116.554C45.4603 116.554 45.4536 116.554 45.4468 116.554C45.4401 116.554 45.4334 116.554 45.4267 116.554C45.42 116.554 45.4133 116.554 45.4067 116.554C45.4 116.554 45.3934 116.554 45.3867 116.554C45.3801 116.554 45.3735 116.554 45.3669 116.554C45.3603 116.554 45.3537 116.554 45.3472 116.554C45.3406 116.554 45.3341 116.554 45.3276 116.554C45.321 116.554 45.3145 116.554 45.3081 116.554C45.3016 116.554 45.2951 116.554 45.2887 116.554C45.2822 116.554 45.2758 116.554 45.2694 116.554C45.2629 116.554 45.2565 116.554 45.2502 116.554C45.2438 116.554 45.2374 116.554 45.2311 116.554C45.2247 116.554 45.2184 116.554 45.2121 116.554C45.2058 116.554 45.1995 116.554 45.1932 116.554C45.1869 116.554 45.1807 116.554 45.1744 116.554C45.1682 116.554 45.162 116.554 45.1558 116.554C45.1496 116.554 45.1434 116.554 45.1372 116.554C45.131 116.554 45.1249 116.554 45.1187 116.554C45.1126 116.554 45.1065 116.554 45.1004 116.554C45.0943 116.554 45.0882 116.554 45.0822 116.554C45.0761 116.554 45.0701 116.554 45.064 116.554C45.058 116.554 45.052 116.554 45.046 116.554C45.04 116.554 45.034 116.554 45.0281 116.554C45.0221 116.554 45.0162 116.554 45.0103 116.554C45.0044 116.554 44.9985 116.554 44.9926 116.554C44.9867 116.554 44.9808 116.554 44.975 116.554C44.9691 116.554 44.9633 116.554 44.9575 116.554C44.9517 116.554 44.9459 116.554 44.9401 116.554C44.9343 116.554 44.9286 116.554 44.9228 116.554C44.9171 116.554 44.9114 116.554 44.9057 116.554C44.9 116.554 44.8943 116.554 44.8886 116.554C44.883 116.554 44.8773 116.554 44.8717 116.554C44.8661 116.554 44.8605 116.554 44.8549 116.554C44.8493 116.554 44.8437 116.554 44.8381 116.554C44.8326 116.554 44.827 116.554 44.8215 116.554C44.816 116.554 44.8105 116.554 44.805 116.554C44.7995 116.554 44.7941 116.554 44.7886 116.554C44.7832 116.554 44.7778 116.554 44.7723 116.554C44.7669 116.554 44.7615 116.554 44.7562 116.554C44.7508 116.554 44.7455 116.554 44.7401 116.554C44.7348 116.554 44.7295 116.554 44.7242 116.554C44.7189 116.554 44.7136 116.554 44.7083 116.554C44.7031 116.554 44.6978 116.554 44.6926 116.554C44.6874 116.554 44.6822 116.554 44.677 116.554C44.6718 116.554 44.6666 116.554 44.6615 116.554C44.6563 116.554 44.6512 116.554 44.6461 116.554C44.641 116.554 44.6359 116.554 44.6308 116.554C44.6257 116.554 44.6207 116.554 44.6156 116.554C44.6106 116.554 44.6056 116.554 44.6006 116.554C44.5956 116.554 44.5906 116.554 44.5856 116.554C44.5807 116.554 44.5757 116.554 44.5708 116.554C44.5659 116.554 44.561 116.554 44.5561 116.554C44.5512 116.554 44.5463 116.554 44.5415 116.554C44.5366 116.554 44.5318 116.554 44.527 116.554C44.5222 116.554 44.5174 116.554 44.5126 116.554C44.5078 116.554 44.5031 116.554 44.4984 116.554C44.4936 116.554 44.4889 116.554 44.4842 116.554C44.4795 116.554 44.4748 116.554 44.4702 116.554C44.4655 116.554 44.4609 116.554 44.4562 116.554C44.4516 116.554 44.447 116.554 44.4424 116.554C44.4379 116.554 44.4333 116.554 44.4288 116.554C44.4242 116.554 44.4197 116.554 44.4152 116.554C44.4107 116.554 44.4062 116.554 44.4017 116.554C44.3972 116.554 44.3928 116.554 44.3884 116.554C44.3839 116.554 44.3795 116.554 44.3751 116.554C44.3707 116.554 44.3664 116.554 44.362 116.554C44.3577 116.554 44.3533 116.554 44.349 116.554C44.3447 116.554 44.3404 116.554 44.3361 116.554C44.3319 116.554 44.3276 116.554 44.3234 116.554C44.3191 116.554 44.3149 116.554 44.3107 116.554C44.3065 116.554 44.3023 116.554 44.2982 116.554C44.294 116.554 44.2899 116.554 44.2858 116.554C44.2816 116.554 44.2775 116.554 44.2735 116.554C44.2694 116.554 44.2653 116.554 44.2613 116.554C44.2572 116.554 44.2532 116.554 44.2492 116.554C44.2452 116.554 44.2412 116.554 44.2373 116.554C44.2333 116.554 44.2294 116.554 44.2254 116.554C44.2215 116.554 44.2176 116.554 44.2137 116.554C44.2098 116.554 44.206 116.554 44.2021 116.554C44.1983 116.554 44.1944 116.554 44.1906 116.554C44.1868 116.554 44.183 116.554 44.1793 116.554C44.1755 116.554 44.1718 116.554 44.168 116.554C44.1643 116.554 44.1606 116.554 44.1569 116.554C44.1532 116.554 44.1496 116.554 44.1459 116.554C44.1423 116.554 44.1386 116.554 44.135 116.554C44.1314 116.554 44.1278 116.554 44.1243 116.554C44.1207 116.554 44.1172 116.554 44.1136 116.554C44.1101 116.554 44.1066 116.554 44.1031 116.554C44.0996 116.554 44.0961 116.554 44.0927 116.554C44.0892 116.554 44.0858 116.554 44.0824 116.554C44.079 116.554 44.0756 116.554 44.0722 116.554C44.0689 116.554 44.0655 116.554 44.0622 116.554C44.0589 116.554 44.0556 116.554 44.0523 116.554C44.049 116.554 44.0457 116.554 44.0425 116.554C44.0392 116.554 44.036 116.554 44.0328 116.554C44.0296 116.554 44.0264 116.554 44.0232 116.554C44.0201 116.554 44.0169 116.554 44.0138 116.554C44.0107 116.554 44.0076 116.554 44.0045 116.554C44.0014 116.554 43.9983 116.554 43.9953 116.554C43.9922 116.554 43.9892 116.554 43.9862 116.554C43.9832 116.554 43.9802 116.554 43.9773 116.554C43.9743 116.554 43.9714 116.554 43.9684 116.554C43.9655 116.554 43.9626 116.554 43.9597 116.554C43.9568 116.554 43.954 116.554 43.9511 116.554C43.9483 116.554 43.9455 116.554 43.9427 116.554C43.9399 116.554 43.9371 116.554 43.9343 116.554C43.9316 116.554 43.9288 116.554 43.9261 116.554C43.9234 116.554 43.9207 116.554 43.918 116.554C43.9154 116.554 43.9127 116.554 43.9101 116.554C43.9074 116.554 43.9048 116.554 43.9022 116.554C43.8996 116.554 43.8971 116.554 43.8945 116.554C43.892 116.554 43.8894 116.554 43.8869 116.554C43.8844 116.554 43.8819 116.554 43.8794 116.554C43.877 116.554 43.8745 116.554 43.8721 116.554C43.8697 116.554 43.8673 116.554 43.8649 116.554C43.8625 116.554 43.8601 116.554 43.8578 116.554C43.8554 116.554 43.8531 116.554 43.8508 116.554C43.8485 116.554 43.8462 116.554 43.844 116.554C43.8417 116.554 43.8395 116.554 43.8372 116.554C43.835 116.554 43.8328 116.554 43.8307 116.554C43.8285 116.554 43.8263 116.554 43.8242 116.554C43.822 116.554 43.8199 116.554 43.8178 116.554C43.8157 116.554 43.8137 116.554 43.8116 116.554C43.8096 116.554 43.8075 116.554 43.8055 116.554C43.8035 116.554 43.8015 116.554 43.7996 116.554C43.7976 116.554 43.7957 116.554 43.7937 116.554C43.7918 116.554 43.7899 116.554 43.788 116.554C43.7861 116.554 43.7843 116.554 43.7824 116.554C43.7806 116.554 43.7788 116.554 43.777 116.554C43.7752 116.554 43.7734 116.554 43.7717 116.554C43.7699 116.554 43.7682 116.554 43.7665 116.554C43.7648 116.554 43.7631 116.554 43.7614 116.554C43.7597 116.554 43.7581 116.554 43.7565 116.554C43.7548 116.554 43.7532 116.554 43.7516 116.554C43.7501 116.554 43.7485 116.554 43.747 116.554C43.7454 116.554 43.7439 116.554 43.7424 116.554C43.7409 116.554 43.7394 116.554 43.738 116.554C43.7365 116.554 43.7351 116.554 43.7337 116.554C43.7323 116.554 43.7309 116.554 43.7295 116.554C43.7281 116.554 43.7268 116.554 43.7255 116.554C43.7241 116.554 43.7228 116.554 43.7216 116.554C43.7203 116.554 43.719 116.554 43.7178 116.554C43.7165 116.554 43.7153 116.554 43.7141 116.554C43.7129 116.554 43.7118 116.554 43.7106 116.554C43.7095 116.554 43.7083 116.554 43.7072 116.554C43.7061 116.554 43.705 116.554 43.704 116.554C43.7029 116.554 43.7019 116.554 43.7008 116.554C43.6998 116.554 43.6988 116.554 43.6978 116.554C43.6969 116.554 43.6959 116.554 43.695 116.554C43.694 116.554 43.6931 116.554 43.6922 116.554C43.6913 116.554 43.6905 116.554 43.6896 116.554C43.6888 116.554 43.688 116.554 43.6872 116.554C43.6864 116.554 43.6856 116.554 43.6848 116.554C43.6841 116.554 43.6833 116.554 43.6826 116.554C43.6819 116.554 43.6812 116.554 43.6805 116.554C43.6799 116.554 43.6792 116.554 43.6786 116.554C43.678 116.554 43.6774 116.554 43.6768 116.554C43.6762 116.554 43.6756 116.554 43.6751 116.554C43.6746 116.554 43.6741 116.554 43.6736 116.554C43.6731 116.554 43.6726 116.554 43.6722 116.554C43.6717 116.554 43.6713 116.554 43.6709 116.554C43.6705 116.554 43.6701 116.554 43.6697 116.554C43.6694 116.554 43.669 116.554 43.6687 116.554C43.6684 116.554 43.6681 116.554 43.6678 116.554C43.6676 116.554 43.6673 116.554 43.6671 116.554C43.6669 116.554 43.6667 116.554 43.6665 116.554C43.6663 116.554 43.6662 116.554 43.666 116.554C43.6659 116.554 43.6658 116.554 43.6657 116.554C43.6656 116.554 43.6655 116.554 43.6655 116.554C43.6654 116.554 43.6654 116.554 43.6654 118.554C43.6654 120.554 43.6654 120.554 43.6655 120.554C43.6655 120.554 43.6656 120.554 43.6657 120.554C43.6658 120.554 43.6659 120.554 43.666 120.554C43.6662 120.554 43.6663 120.554 43.6665 120.554C43.6667 120.554 43.6669 120.554 43.6671 120.554C43.6673 120.554 43.6676 120.554 43.6678 120.554C43.6681 120.554 43.6684 120.554 43.6687 120.554C43.669 120.554 43.6694 120.554 43.6697 120.554C43.6701 120.554 43.6705 120.554 43.6709 120.554C43.6713 120.554 43.6717 120.554 43.6722 120.554C43.6726 120.554 43.6731 120.554 43.6736 120.554C43.6741 120.554 43.6746 120.554 43.6751 120.554C43.6756 120.554 43.6762 120.554 43.6768 120.554C43.6774 120.554 43.678 120.554 43.6786 120.554C43.6792 120.554 43.6799 120.554 43.6805 120.554C43.6812 120.554 43.6819 120.554 43.6826 120.554C43.6833 120.554 43.6841 120.554 43.6848 120.554C43.6856 120.554 43.6864 120.554 43.6872 120.554C43.688 120.554 43.6888 120.554 43.6896 120.554C43.6905 120.554 43.6913 120.554 43.6922 120.554C43.6931 120.554 43.694 120.554 43.695 120.554C43.6959 120.554 43.6969 120.554 43.6978 120.554C43.6988 120.554 43.6998 120.554 43.7008 120.554C43.7019 120.554 43.7029 120.554 43.704 120.554C43.705 120.554 43.7061 120.554 43.7072 120.554C43.7083 120.554 43.7095 120.554 43.7106 120.554C43.7118 120.554 43.7129 120.554 43.7141 120.554C43.7153 120.554 43.7165 120.554 43.7178 120.554C43.719 120.554 43.7203 120.554 43.7216 120.554C43.7228 120.554 43.7241 120.554 43.7255 120.554C43.7268 120.554 43.7281 120.554 43.7295 120.554C43.7309 120.554 43.7323 120.554 43.7337 120.554C43.7351 120.554 43.7365 120.554 43.738 120.554C43.7394 120.554 43.7409 120.554 43.7424 120.554C43.7439 120.554 43.7454 120.554 43.747 120.554C43.7485 120.554 43.7501 120.554 43.7516 120.554C43.7532 120.554 43.7548 120.554 43.7565 120.554C43.7581 120.554 43.7597 120.554 43.7614 120.554C43.7631 120.554 43.7648 120.554 43.7665 120.554C43.7682 120.554 43.7699 120.554 43.7717 120.554C43.7734 120.554 43.7752 120.554 43.777 120.554C43.7788 120.554 43.7806 120.554 43.7824 120.554C43.7843 120.554 43.7861 120.554 43.788 120.554C43.7899 120.554 43.7918 120.554 43.7937 120.554C43.7957 120.554 43.7976 120.554 43.7996 120.554C43.8015 120.554 43.8035 120.554 43.8055 120.554C43.8075 120.554 43.8096 120.554 43.8116 120.554C43.8137 120.554 43.8157 120.554 43.8178 120.554C43.8199 120.554 43.822 120.554 43.8242 120.554C43.8263 120.554 43.8285 120.554 43.8306 120.554C43.8328 120.554 43.835 120.554 43.8372 120.554C43.8395 120.554 43.8417 120.554 43.844 120.554C43.8462 120.554 43.8485 120.554 43.8508 120.554C43.8531 120.554 43.8554 120.554 43.8578 120.554C43.8601 120.554 43.8625 120.554 43.8649 120.554C43.8673 120.554 43.8697 120.554 43.8721 120.554C43.8745 120.554 43.877 120.554 43.8794 120.554C43.8819 120.554 43.8844 120.554 43.8869 120.554C43.8894 120.554 43.892 120.554 43.8945 120.554C43.8971 120.554 43.8996 120.554 43.9022 120.554C43.9048 120.554 43.9074 120.554 43.9101 120.554C43.9127 120.554 43.9154 120.554 43.918 120.554C43.9207 120.554 43.9234 120.554 43.9261 120.554C43.9288 120.554 43.9316 120.554 43.9343 120.554C43.9371 120.554 43.9399 120.554 43.9427 120.554C43.9455 120.554 43.9483 120.554 43.9511 120.554C43.954 120.554 43.9568 120.554 43.9597 120.554C43.9626 120.554 43.9655 120.554 43.9684 120.554C43.9714 120.554 43.9743 120.554 43.9773 120.554C43.9802 120.554 43.9832 120.554 43.9862 120.554C43.9892 120.554 43.9922 120.554 43.9953 120.554C43.9983 120.554 44.0014 120.554 44.0045 120.554C44.0076 120.554 44.0107 120.554 44.0138 120.554C44.0169 120.554 44.0201 120.554 44.0232 120.554C44.0264 120.554 44.0296 120.554 44.0328 120.554C44.036 120.554 44.0392 120.554 44.0425 120.554C44.0457 120.554 44.049 120.554 44.0523 120.554C44.0556 120.554 44.0589 120.554 44.0622 120.554C44.0655 120.554 44.0689 120.554 44.0722 120.554C44.0756 120.554 44.079 120.554 44.0824 120.554C44.0858 120.554 44.0892 120.554 44.0927 120.554C44.0961 120.554 44.0996 120.554 44.1031 120.554C44.1066 120.554 44.1101 120.554 44.1136 120.554C44.1172 120.554 44.1207 120.554 44.1243 120.554C44.1278 120.554 44.1314 120.554 44.135 120.554C44.1386 120.554 44.1423 120.554 44.1459 120.554C44.1496 120.554 44.1532 120.554 44.1569 120.554C44.1606 120.554 44.1643 120.554 44.168 120.554C44.1718 120.554 44.1755 120.554 44.1793 120.554C44.183 120.554 44.1868 120.554 44.1906 120.554C44.1944 120.554 44.1983 120.554 44.2021 120.554C44.206 120.554 44.2098 120.554 44.2137 120.554C44.2176 120.554 44.2215 120.554 44.2254 120.554C44.2294 120.554 44.2333 120.554 44.2373 120.554C44.2412 120.554 44.2452 120.554 44.2492 120.554C44.2532 120.554 44.2572 120.554 44.2613 120.554C44.2653 120.554 44.2694 120.554 44.2735 120.554C44.2775 120.554 44.2816 120.554 44.2858 120.554C44.2899 120.554 44.294 120.554 44.2982 120.554C44.3023 120.554 44.3065 120.554 44.3107 120.554C44.3149 120.554 44.3191 120.554 44.3234 120.554C44.3276 120.554 44.3319 120.554 44.3361 120.554C44.3404 120.554 44.3447 120.554 44.349 120.554C44.3533 120.554 44.3577 120.554 44.362 120.554C44.3664 120.554 44.3707 120.554 44.3751 120.554C44.3795 120.554 44.3839 120.554 44.3884 120.554C44.3928 120.554 44.3972 120.554 44.4017 120.554C44.4062 120.554 44.4107 120.554 44.4152 120.554C44.4197 120.554 44.4242 120.554 44.4288 120.554C44.4333 120.554 44.4379 120.554 44.4424 120.554C44.447 120.554 44.4516 120.554 44.4562 120.554C44.4609 120.554 44.4655 120.554 44.4702 120.554C44.4748 120.554 44.4795 120.554 44.4842 120.554C44.4889 120.554 44.4936 120.554 44.4984 120.554C44.5031 120.554 44.5078 120.554 44.5126 120.554C44.5174 120.554 44.5222 120.554 44.527 120.554C44.5318 120.554 44.5366 120.554 44.5415 120.554C44.5463 120.554 44.5512 120.554 44.5561 120.554C44.561 120.554 44.5659 120.554 44.5708 120.554C44.5757 120.554 44.5807 120.554 44.5856 120.554C44.5906 120.554 44.5956 120.554 44.6006 120.554C44.6056 120.554 44.6106 120.554 44.6156 120.554C44.6207 120.554 44.6257 120.554 44.6308 120.554C44.6359 120.554 44.641 120.554 44.6461 120.554C44.6512 120.554 44.6563 120.554 44.6615 120.554C44.6666 120.554 44.6718 120.554 44.677 120.554C44.6822 120.554 44.6874 120.554 44.6926 120.554C44.6978 120.554 44.7031 120.554 44.7083 120.554C44.7136 120.554 44.7189 120.554 44.7242 120.554C44.7295 120.554 44.7348 120.554 44.7401 120.554C44.7455 120.554 44.7508 120.554 44.7562 120.554C44.7615 120.554 44.7669 120.554 44.7723 120.554C44.7778 120.554 44.7832 120.554 44.7886 120.554C44.7941 120.554 44.7995 120.554 44.805 120.554C44.8105 120.554 44.816 120.554 44.8215 120.554C44.827 120.554 44.8326 120.554 44.8381 120.554C44.8437 120.554 44.8493 120.554 44.8549 120.554C44.8605 120.554 44.8661 120.554 44.8717 120.554C44.8773 120.554 44.883 120.554 44.8886 120.554C44.8943 120.554 44.9 120.554 44.9057 120.554C44.9114 120.554 44.9171 120.554 44.9228 120.554C44.9286 120.554 44.9343 120.554 44.9401 120.554C44.9459 120.554 44.9517 120.554 44.9575 120.554C44.9633 120.554 44.9691 120.554 44.975 120.554C44.9808 120.554 44.9867 120.554 44.9926 120.554C44.9985 120.554 45.0044 120.554 45.0103 120.554C45.0162 120.554 45.0221 120.554 45.0281 120.554C45.034 120.554 45.04 120.554 45.046 120.554C45.052 120.554 45.058 120.554 45.064 120.554C45.0701 120.554 45.0761 120.554 45.0822 120.554C45.0882 120.554 45.0943 120.554 45.1004 120.554C45.1065 120.554 45.1126 120.554 45.1187 120.554C45.1249 120.554 45.131 120.554 45.1372 120.554C45.1434 120.554 45.1496 120.554 45.1558 120.554C45.162 120.554 45.1682 120.554 45.1744 120.554C45.1807 120.554 45.1869 120.554 45.1932 120.554C45.1995 120.554 45.2058 120.554 45.2121 120.554C45.2184 120.554 45.2247 120.554 45.2311 120.554C45.2374 120.554 45.2438 120.554 45.2502 120.554C45.2565 120.554 45.2629 120.554 45.2693 120.554C45.2758 120.554 45.2822 120.554 45.2887 120.554C45.2951 120.554 45.3016 120.554 45.3081 120.554C45.3145 120.554 45.321 120.554 45.3276 120.554C45.3341 120.554 45.3406 120.554 45.3472 120.554C45.3537 120.554 45.3603 120.554 45.3669 120.554C45.3735 120.554 45.3801 120.554 45.3867 120.554C45.3934 120.554 45.4 120.554 45.4067 120.554C45.4133 120.554 45.42 120.554 45.4267 120.554C45.4334 120.554 45.4401 120.554 45.4468 120.554C45.4536 120.554 45.4603 120.554 45.4671 120.554C45.4738 120.554 45.4806 120.554 45.4874 120.554C45.4942 120.554 45.501 120.554 45.5079 120.554C45.5147 120.554 45.5215 120.554 45.5284 120.554C45.5353 120.554 45.5422 120.554 45.5491 120.554C45.556 120.554 45.5629 120.554 45.5698 120.554C45.5768 120.554 45.5837 120.554 45.5907 120.554C45.5977 120.554 45.6046 120.554 45.6116 120.554C45.6186 120.554 45.6257 120.554 45.6327 120.554C45.6397 120.554 45.6468 120.554 45.6539 120.554C45.6609 120.554 45.668 120.554 45.6751 120.554C45.6822 120.554 45.6894 120.554 45.6965 120.554C45.7036 120.554 45.7108 120.554 45.718 120.554C45.7251 120.554 45.7323 120.554 45.7395 120.554C45.7468 120.554 45.754 120.554 45.7612 120.554C45.7685 120.554 45.7757 120.554 45.783 120.554C45.7903 120.554 45.7976 120.554 45.8049 120.554C45.8122 120.554 45.8195 120.554 45.8268 120.554C45.8342 120.554 45.8415 120.554 45.8489 120.554C45.8563 120.554 45.8637 120.554 45.8711 120.554C45.8785 120.554 45.8859 120.554 45.8934 120.554C45.9008 120.554 45.9083 120.554 45.9157 120.554C45.9232 120.554 45.9307 120.554 45.9382 120.554C45.9457 120.554 45.9532 120.554 45.9608 120.554C45.9683 120.554 45.9759 120.554 45.9834 120.554C45.991 120.554 45.9986 120.554 46.0062 120.554C46.0138 120.554 46.0214 120.554 46.0291 120.554C46.0367 120.554 46.0444 120.554 46.052 120.554C46.0597 120.554 46.0674 120.554 46.0751 120.554C46.0828 120.554 46.0905 120.554 46.0983 120.554C46.106 120.554 46.1138 120.554 46.1215 120.554C46.1293 120.554 46.1371 120.554 46.1449 120.554C46.1527 120.554 46.1605 120.554 46.1684 120.554C46.1762 120.554 46.184 120.554 46.1919 120.554C46.1998 120.554 46.2077 120.554 46.2156 120.554C46.2235 120.554 46.2314 120.554 46.2393 120.554C46.2472 120.554 46.2552 120.554 46.2632 120.554C46.2711 120.554 46.2791 120.554 46.2871 120.554C46.2951 120.554 46.3031 120.554 46.3111 120.554C46.3192 120.554 46.3272 120.554 46.3353 120.554C46.3433 120.554 46.3514 120.554 46.3595 120.554C46.3676 120.554 46.3757 120.554 46.3838 120.554C46.392 120.554 46.4001 120.554 46.4083 120.554C46.4164 120.554 46.4246 120.554 46.4328 120.554C46.441 120.554 46.4492 120.554 46.4574 120.554C46.4656 120.554 46.4738 120.554 46.4821 120.554C46.4903 120.554 46.4986 120.554 46.5069 120.554C46.5152 120.554 46.5235 120.554 46.5318 120.554C46.5401 120.554 46.5484 120.554 46.5568 120.554C46.5651 120.554 46.5735 120.554 46.5819 120.554C46.5903 120.554 46.5987 120.554 46.6071 120.554C46.6155 120.554 46.6239 120.554 46.6323 120.554C46.6408 120.554 46.6492 120.554 46.6577 120.554C46.6662 120.554 46.6747 120.554 46.6832 120.554C46.6917 120.554 46.7002 120.554 46.7087 120.554C46.7173 120.554 46.7258 120.554 46.7344 120.554C46.7429 120.554 46.7515 120.554 46.7601 120.554C46.7687 120.554 46.7773 120.554 46.786 120.554C46.7946 120.554 46.8032 120.554 46.8119 120.554C46.8205 120.554 46.8292 120.554 46.8379 120.554C46.8466 120.554 46.8553 120.554 46.864 120.554C46.8727 120.554 46.8815 120.554 46.8902 120.554C46.899 120.554 46.9077 120.554 46.9165 120.554C46.9253 120.554 46.9341 120.554 46.9429 120.554C46.9517 120.554 46.9606 120.554 46.9694 120.554C46.9782 120.554 46.9871 120.554 46.996 120.554C47.0048 120.554 47.0137 120.554 47.0226 120.554C47.0315 120.554 47.0405 120.554 47.0494 120.554C47.0583 120.554 47.0673 120.554 47.0762 120.554C47.0852 120.554 47.0942 120.554 47.1032 120.554C47.1122 120.554 47.1212 120.554 47.1302 120.554C47.1392 120.554 47.1483 120.554 47.1573 120.554C47.1664 120.554 47.1754 120.554 47.1845 120.554C47.1936 120.554 47.2027 120.554 47.2118 120.554C47.2209 120.554 47.2301 120.554 47.2392 120.554C47.2484 120.554 47.2575 120.554 47.2667 120.554C47.2759 120.554 47.285 120.554 47.2943 120.554C47.3035 120.554 47.3127 120.554 47.3219 120.554C47.3311 120.554 47.3404 120.554 47.3497 120.554C47.3589 120.554 47.3682 120.554 47.3775 120.554C47.3868 120.554 47.3961 120.554 47.4054 120.554C47.4147 120.554 47.4241 120.554 47.4334 120.554C47.4428 120.554 47.4521 120.554 47.4615 120.554C47.4709 120.554 47.4803 120.554 47.4897 120.554C47.4991 120.554 47.5085 120.554 47.518 120.554C47.5274 120.554 47.5369 120.554 47.5463 120.554C47.5558 120.554 47.5653 120.554 47.5748 120.554C47.5843 120.554 47.5938 120.554 47.6033 120.554C47.6128 120.554 47.6224 120.554 47.6319 120.554C47.6415 120.554 47.6511 120.554 47.6607 120.554C47.6702 120.554 47.6798 120.554 47.6895 120.554C47.6991 120.554 47.7087 120.554 47.7183 120.554C47.728 120.554 47.7376 120.554 47.7473 120.554C47.757 120.554 47.7667 120.554 47.7764 120.554C47.7861 120.554 47.7958 120.554 47.8055 120.554C47.8152 120.554 47.825 120.554 47.8347 120.554C47.8445 120.554 47.8543 120.554 47.8641 120.554C47.8738 120.554 47.8836 120.554 47.8934 120.554C47.9033 120.554 47.9131 120.554 47.9229 120.554C47.9328 120.554 47.9426 120.554 47.9525 120.554C47.9624 120.554 47.9723 120.554 47.9822 120.554C47.9921 120.554 48.002 120.554 48.0119 120.554C48.0218 120.554 48.0318 120.554 48.0417 120.554C48.0517 120.554 48.0616 120.554 48.0716 120.554C48.0816 120.554 48.0916 120.554 48.1016 120.554C48.1116 120.554 48.1217 120.554 48.1317 120.554C48.1417 120.554 48.1518 120.554 48.1619 120.554C48.1719 120.554 48.182 120.554 48.1921 120.554C48.2022 120.554 48.2123 120.554 48.2224 120.554C48.2325 120.554 48.2427 120.554 48.2528 120.554C48.263 120.554 48.2731 120.554 48.2833 120.554C48.2935 120.554 48.3037 120.554 48.3139 120.554C48.3241 120.554 48.3343 120.554 48.3446 120.554C48.3548 120.554 48.365 120.554 48.3753 120.554C48.3856 120.554 48.3958 120.554 48.4061 120.554C48.4164 120.554 48.4267 120.554 48.437 120.554C48.4473 120.554 48.4577 120.554 48.468 120.554C48.4784 120.554 48.4887 120.554 48.4991 120.554C48.5095 120.554 48.5198 120.554 48.5302 120.554C48.5406 120.554 48.551 120.554 48.5615 120.554C48.5719 120.554 48.5823 120.554 48.5928 120.554C48.6032 120.554 48.6137 120.554 48.6242 120.554C48.6346 120.554 48.6451 120.554 48.6556 120.554C48.6661 120.554 48.6767 120.554 48.6872 120.554C48.6977 120.554 48.7083 120.554 48.7188 120.554C48.7294 120.554 48.74 120.554 48.7505 120.554C48.7611 120.554 48.7717 120.554 48.7823 120.554C48.793 120.554 48.8036 120.554 48.8142 120.554C48.8249 120.554 48.8355 120.554 48.8462 120.554C48.8568 120.554 48.8675 120.554 48.8782 120.554C48.8889 120.554 48.8996 120.554 48.9103 120.554C48.921 120.554 48.9318 120.554 48.9425 120.554C48.9532 120.554 48.964 120.554 48.9748 120.554C48.9855 120.554 48.9963 120.554 49.0071 120.554C49.0179 120.554 49.0287 120.554 49.0396 120.554C49.0504 120.554 49.0612 120.554 49.0721 120.554C49.0829 120.554 49.0938 120.554 49.1046 120.554C49.1155 120.554 49.1264 120.554 49.1373 120.554C49.1482 120.554 49.1591 120.554 49.17 120.554C49.181 120.554 49.1919 120.554 49.2029 120.554C49.2138 120.554 49.2248 120.554 49.2358 120.554C49.2467 120.554 49.2577 120.554 49.2687 120.554C49.2797 120.554 49.2907 120.554 49.3018 120.554C49.3128 120.554 49.3238 120.554 49.3349 120.554C49.346 120.554 49.357 120.554 49.3681 120.554C49.3792 120.554 49.3903 120.554 49.4014 120.554C49.4125 120.554 49.4236 120.554 49.4347 120.554C49.4459 120.554 49.457 120.554 49.4682 120.554C49.4793 120.554 49.4905 120.554 49.5017 120.554C49.5129 120.554 49.5241 120.554 49.5353 120.554C49.5465 120.554 49.5577 120.554 49.5689 120.554C49.5801 120.554 49.5914 120.554 49.6026 120.554C49.6139 120.554 49.6252 120.554 49.6365 120.554C49.6477 120.554 49.659 120.554 49.6703 120.554C49.6816 120.554 49.693 120.554 49.7043 120.554C49.7156 120.554 49.727 120.554 49.7383 120.554C49.7497 120.554 49.7611 120.554 49.7724 120.554C49.7838 120.554 49.7952 120.554 49.8066 120.554C49.818 120.554 49.8294 120.554 49.8409 120.554C49.8523 120.554 49.8637 120.554 49.8752 120.554C49.8867 120.554 49.8981 120.554 49.9096 120.554C49.9211 120.554 49.9326 120.554 49.9441 120.554C49.9556 120.554 49.9671 120.554 49.9786 120.554C49.9902 120.554 50.0017 120.554 50.0132 120.554C50.0248 120.554 50.0364 120.554 50.0479 120.554C50.0595 120.554 50.0711 120.554 50.0827 120.554C50.0943 120.554 50.1059 120.554 50.1175 120.554C50.1292 120.554 50.1408 120.554 50.1525 120.554C50.1641 120.554 50.1758 120.554 50.1874 120.554C50.1991 120.554 50.2108 120.554 50.2225 120.554C50.2342 120.554 50.2459 120.554 50.2576 120.554C50.2694 120.554 50.2811 120.554 50.2928 120.554C50.3046 120.554 50.3163 120.554 50.3281 120.554C50.3399 120.554 50.3516 120.554 50.3634 120.554C50.3752 120.554 50.387 120.554 50.3989 120.554C50.4107 120.554 50.4225 120.554 50.4343 120.554C50.4462 120.554 50.458 120.554 50.4699 120.554C50.4818 120.554 50.4936 120.554 50.5055 120.554C50.5174 120.554 50.5293 120.554 50.5412 120.554C50.5531 120.554 50.565 120.554 50.577 120.554C50.5889 120.554 50.6009 120.554 50.6128 120.554C50.6248 120.554 50.6367 120.554 50.6487 120.554C50.6607 120.554 50.6727 120.554 50.6847 120.554C50.6967 120.554 50.7087 120.554 50.7207 120.554C50.7328 120.554 50.7448 120.554 50.7568 120.554C50.7689 120.554 50.781 120.554 50.793 120.554C50.8051 120.554 50.8172 120.554 50.8293 120.554C50.8414 120.554 50.8535 120.554 50.8656 120.554C50.8777 120.554 50.8898 120.554 50.902 120.554C50.9141 120.554 50.9263 120.554 50.9384 120.554C50.9506 120.554 50.9628 120.554 50.975 120.554C50.9871 120.554 50.9993 120.554 51.0115 120.554C51.0238 120.554 51.036 120.554 51.0482 120.554C51.0604 120.554 51.0727 120.554 51.0849 120.554C51.0972 120.554 51.1095 120.554 51.1217 120.554C51.134 120.554 51.1463 120.554 51.1586 120.554C51.1709 120.554 51.1832 120.554 51.1955 120.554C51.2078 120.554 51.2202 120.554 51.2325 120.554C51.2448 120.554 51.2572 120.554 51.2696 120.554C51.2819 120.554 51.2943 120.554 51.3067 120.554C51.3191 120.554 51.3315 120.554 51.3439 120.554C51.3563 120.554 51.3687 120.554 51.3811 120.554C51.3936 120.554 51.406 120.554 51.4185 120.554C51.4309 120.554 51.4434 120.554 51.4559 120.554C51.4683 120.554 51.4808 120.554 51.4933 120.554C51.5058 120.554 51.5183 120.554 51.5308 120.554C51.5433 120.554 51.5559 120.554 51.5684 120.554C51.581 120.554 51.5935 120.554 51.6061 120.554C51.6186 120.554 51.6312 120.554 51.6438 120.554C51.6564 120.554 51.669 120.554 51.6816 120.554C51.6942 120.554 51.7068 120.554 51.7194 120.554C51.732 120.554 51.7447 120.554 51.7573 120.554C51.77 120.554 51.7826 120.554 51.7953 120.554C51.8079 120.554 51.8206 120.554 51.8333 120.554C51.846 120.554 51.8587 120.554 51.8714 120.554C51.8841 120.554 51.8968 120.554 51.9096 120.554C51.9223 120.554 51.935 120.554 51.9478 120.554C51.9605 120.554 51.9733 120.554 51.9861 120.554C51.9989 120.554 52.0116 120.554 52.0244 120.554C52.0372 120.554 52.05 120.554 52.0628 120.554C52.0757 120.554 52.0885 120.554 52.1013 120.554C52.1142 120.554 52.127 120.554 52.1399 120.554C52.1527 120.554 52.1656 120.554 52.1785 120.554C52.1913 120.554 52.2042 120.554 52.2171 120.554C52.23 120.554 52.2429 120.554 52.2558 120.554C52.2688 120.554 52.2817 120.554 52.2946 120.554C52.3076 120.554 52.3205 120.554 52.3335 120.554C52.3464 120.554 52.3594 120.554 52.3724 120.554C52.3853 120.554 52.3983 120.554 52.4113 120.554C52.4243 120.554 52.4373 120.554 52.4504 120.554C52.4634 120.554 52.4764 120.554 52.4895 120.554C52.5025 120.554 52.5155 120.554 52.5286 120.554C52.5417 120.554 52.5547 120.554 52.5678 120.554C52.5809 120.554 52.594 120.554 52.6071 120.554C52.6202 120.554 52.6333 120.554 52.6464 120.554C52.6595 120.554 52.6727 120.554 52.6858 120.554C52.6989 120.554 52.7121 120.554 52.7252 120.554C52.7384 120.554 52.7516 120.554 52.7647 120.554C52.7779 120.554 52.7911 120.554 52.8043 120.554C52.8175 120.554 52.8307 120.554 52.8439 120.554C52.8571 120.554 52.8704 120.554 52.8836 120.554C52.8969 120.554 52.9101 120.554 52.9234 120.554C52.9366 120.554 52.9499 120.554 52.9632 120.554C52.9764 120.554 52.9897 120.554 53.003 120.554C53.0163 120.554 53.0296 120.554 53.0429 120.554C53.0562 120.554 53.0696 120.554 53.0829 120.554C53.0962 120.554 53.1096 120.554 53.1229 120.554C53.1363 120.554 53.1496 120.554 53.163 120.554C53.1764 120.554 53.1898 120.554 53.2032 120.554C53.2165 120.554 53.2299 120.554 53.2434 120.554C53.2568 120.554 53.2702 120.554 53.2836 120.554C53.297 120.554 53.3105 120.554 53.3239 120.554C53.3374 120.554 53.3508 120.554 53.3643 120.554C53.3778 120.554 53.3912 120.554 53.4047 120.554C53.4182 120.554 53.4317 120.554 53.4452 120.554C53.4587 120.554 53.4722 120.554 53.4857 120.554C53.4993 120.554 53.5128 120.554 53.5263 120.554C53.5399 120.554 53.5534 120.554 53.567 120.554C53.5806 120.554 53.5941 120.554 53.6077 120.554C53.6213 120.554 53.6349 120.554 53.6485 120.554C53.6621 120.554 53.6757 120.554 53.6893 120.554C53.7029 120.554 53.7165 120.554 53.7301 120.554C53.7438 120.554 53.7574 120.554 53.7711 120.554C53.7847 120.554 53.7984 120.554 53.812 120.554C53.8257 120.554 53.8394 120.554 53.8531 120.554C53.8668 120.554 53.8805 120.554 53.8942 120.554C53.9079 120.554 53.9216 120.554 53.9353 120.554C53.949 120.554 53.9628 120.554 53.9765 120.554C53.9902 120.554 54.004 120.554 54.0177 120.554C54.0315 120.554 54.0453 120.554 54.059 120.554C54.0728 120.554 54.0866 120.554 54.1004 120.554C54.1142 120.554 54.128 120.554 54.1418 120.554C54.1556 120.554 54.1694 120.554 54.1833 120.554C54.1971 120.554 54.2109 120.554 54.2248 120.554C54.2386 120.554 54.2525 120.554 54.2663 120.554C54.2802 120.554 54.2941 120.554 54.3079 120.554C54.3218 120.554 54.3357 120.554 54.3496 120.554C54.3635 120.554 54.3774 120.554 54.3913 120.554C54.4052 120.554 54.4192 120.554 54.4331 120.554C54.447 120.554 54.461 120.554 54.4749 120.554C54.4889 120.554 54.5028 120.554 54.5168 120.554C54.5308 120.554 54.5447 120.554 54.5587 120.554C54.5727 120.554 54.5867 120.554 54.6007 120.554C54.6147 120.554 54.6287 120.554 54.6427 120.554C54.6567 120.554 54.6707 120.554 54.6848 120.554C54.6988 120.554 54.7129 120.554 54.7269 120.554C54.741 120.554 54.755 120.554 54.7691 120.554C54.7831 120.554 54.7972 120.554 54.8113 120.554C54.8254 120.554 54.8395 120.554 54.8536 120.554C54.8677 120.554 54.8818 120.554 54.8959 120.554C54.91 120.554 54.9241 120.554 54.9383 120.554C54.9524 120.554 54.9665 120.554 54.9807 120.554C54.9948 120.554 55.009 120.554 55.0232 120.554C55.0373 120.554 55.0515 120.554 55.0657 120.554C55.0799 120.554 55.0941 120.554 55.1083 120.554C55.1224 120.554 55.1367 120.554 55.1509 120.554C55.1651 120.554 55.1793 120.554 55.1935 120.554C55.2078 120.554 55.222 120.554 55.2362 120.554C55.2505 120.554 55.2647 120.554 55.279 120.554C55.2933 120.554 55.3075 120.554 55.3218 120.554C55.3361 120.554 55.3504 120.554 55.3647 120.554C55.379 120.554 55.3933 120.554 55.4076 120.554C55.4219 120.554 55.4362 120.554 55.4505 120.554C55.4648 120.554 55.4792 120.554 55.4935 120.554C55.5078 120.554 55.5222 120.554 55.5366 120.554C55.5509 120.554 55.5653 120.554 55.5796 120.554C55.594 120.554 55.6084 120.554 55.6228 120.554C55.6372 120.554 55.6516 120.554 55.666 120.554C55.6804 120.554 55.6948 120.554 55.7092 120.554C55.7236 120.554 55.738 120.554 55.7525 120.554C55.7669 120.554 55.7813 120.554 55.7958 120.554C55.8102 120.554 55.8247 120.554 55.8391 120.554C55.8536 120.554 55.8681 120.554 55.8825 120.554C55.897 120.554 55.9115 120.554 55.926 120.554C55.9405 120.554 55.955 120.554 55.9695 120.554C55.984 120.554 55.9985 120.554 56.013 120.554C56.0275 120.554 56.0421 120.554 56.0566 120.554C56.0712 120.554 56.0857 120.554 56.1002 120.554C56.1148 120.554 56.1294 120.554 56.1439 120.554C56.1585 120.554 56.1731 120.554 56.1876 120.554C56.2022 120.554 56.2168 120.554 56.2314 120.554C56.246 120.554 56.2606 120.554 56.2752 120.554C56.2898 120.554 56.3044 120.554 56.3191 120.554C56.3337 120.554 56.3483 120.554 56.3629 120.554C56.3776 120.554 56.3922 120.554 56.4069 120.554C56.4215 120.554 56.4362 120.554 56.4509 120.554C56.4655 120.554 56.4802 120.554 56.4949 120.554C56.5096 120.554 56.5242 120.554 56.5389 120.554C56.5536 120.554 56.5683 120.554 56.583 120.554C56.5977 120.554 56.6125 120.554 56.6272 120.554C56.6419 120.554 56.6566 120.554 56.6714 120.554C56.6861 120.554 56.7008 120.554 56.7156 120.554C56.7303 120.554 56.7451 120.554 56.7599 120.554C56.7746 120.554 56.7894 120.554 56.8042 120.554C56.819 120.554 56.8337 120.554 56.8485 120.554C56.8633 120.554 56.8781 120.554 56.8929 120.554C56.9077 120.554 56.9225 120.554 56.9374 120.554C56.9522 120.554 56.967 120.554 56.9818 120.554C56.9967 120.554 57.0115 120.554 57.0263 120.554C57.0412 120.554 57.056 120.554 57.0709 120.554C57.0858 120.554 57.1006 120.554 57.1155 120.554C57.1304 120.554 57.1452 120.554 57.1601 120.554C57.175 120.554 57.1899 120.554 57.2048 120.554L57.2048 116.554ZM41.6654 118.554L41.6654 139.759L45.6654 139.759L45.6654 118.554L41.6654 118.554ZM43.6654 137.759L23.0777 137.759L23.0777 141.759L43.6654 141.759L43.6654 137.759ZM45.6654 118.554L45.6654 97.3494L41.6654 97.3494L41.6654 118.554L45.6654 118.554ZM43.6654 95.3494L23.0777 95.3494L23.0777 99.3494L43.6654 99.3494L43.6654 95.3494Z" fill="#9E9E9E"/>
<path d="M181.847 120.049C181.847 137.893 167.566 152.316 150 152.316C132.434 152.316 118.152 137.893 118.152 120.049C118.152 102.206 132.434 87.7831 150 87.7831C167.566 87.7831 181.847 102.206 181.847 120.049Z" fill="#884A07" stroke="#884A07" stroke-width="4"/>
<path d="M152.765 127.461H146.927L145.706 104.085H153.985L152.765 127.461ZM145.611 135.643C145.611 134.303 145.97 133.29 146.687 132.605C147.405 131.919 148.45 131.576 149.822 131.576C151.146 131.576 152.166 131.927 152.884 132.629C153.618 133.33 153.985 134.335 153.985 135.643C153.985 136.903 153.618 137.9 152.884 138.634C152.15 139.352 151.13 139.711 149.822 139.711C148.482 139.711 147.445 139.36 146.711 138.658C145.978 137.94 145.611 136.935 145.611 135.643Z" fill="white"/>
</svg>
