<svg width="240" height="400" viewBox="0 0 240 400" fill="none" xmlns="http://www.w3.org/2000/svg">
<path d="M155.314 36.831C155.314 56.0459 139.55 71.662 120.055 71.662C100.56 71.662 84.7957 56.0459 84.7957 36.831C84.7957 17.6161 100.56 2 120.055 2C139.55 2 155.314 17.6161 155.314 36.831Z" stroke="#9E9E9E" stroke-width="4"/>
<path d="M122.802 44.2059H116.964L115.744 20.8304H124.022L122.802 44.2059ZM115.648 52.3885C115.648 51.0487 116.007 50.0358 116.724 49.35C117.442 48.6641 118.487 48.3212 119.859 48.3212C121.183 48.3212 122.203 48.6721 122.921 49.3739C123.655 50.0757 124.022 51.0806 124.022 52.3885C124.022 53.6486 123.655 54.6455 122.921 55.3793C122.188 56.097 121.167 56.4559 119.859 56.4559C118.519 56.4559 117.482 56.105 116.748 55.4032C116.015 54.6854 115.648 53.6805 115.648 52.3885Z" fill="#9E9E9E"/>
<path d="M233.015 203.053L120 322.088L6.98508 203.053L233.015 203.053Z" fill="#884A07" stroke="#884A07" stroke-width="6"/>
<path d="M107.966 240.184L107.749 257.961C104.771 259.321 102.717 262.416 102.707 266.083C102.695 269.942 105.102 273.215 108.352 274.46L108.376 266.161L113.953 266.144L114.022 274.538C117.371 273.37 119.705 269.985 119.716 266.125C119.727 262.459 117.691 259.377 114.72 258.036L114.772 240.474C114.774 239.702 114.218 239.125 113.474 239.127L109.199 239.14C108.362 239.047 107.875 239.509 107.966 240.184Z" fill="white"/>
<path d="M114.724 256.878L114.775 239.316C117.753 237.956 119.807 234.861 119.818 231.194C119.829 227.335 117.422 224.061 114.173 222.817L114.148 231.116L108.571 231.133L108.503 222.739C105.153 223.907 102.82 227.292 102.809 231.151C102.798 234.818 104.996 238.842 107.966 240.184L107.835 256.888C107.833 257.66 108.307 258.152 109.05 258.15L113.326 258.137C114.162 258.23 114.815 257.553 114.724 256.878Z" fill="white"/>
<path d="M136.669 270.455L136.386 252.013L136.426 252.013C137.099 252.012 137.645 251.414 137.619 250.691C137.594 250.001 137.01 249.486 136.361 249.487L134.708 249.49C134.329 249.491 134.024 249.165 134.026 248.762L134.11 232.25C134.114 231.499 134.238 230.753 134.478 230.044L134.483 230.029C134.802 229.085 134.915 228.077 134.813 227.083L134.425 223.272C134.394 222.967 134.153 222.738 133.865 222.739L132.243 222.742C131.955 222.742 131.712 222.972 131.678 223.277L131.251 227.085C131.14 228.081 131.242 229.09 131.551 230.035L131.557 230.053C131.788 230.76 131.905 231.505 131.901 232.255L131.816 248.766C131.814 249.169 131.505 249.497 131.127 249.497L129.463 249.5C128.82 249.502 128.241 250.015 128.204 250.698C128.165 251.426 128.706 252.028 129.383 252.027L129.477 252.027L129.005 270.469C128.994 272.721 130.7 274.542 132.816 274.538C134.932 274.534 136.657 272.706 136.669 270.455Z" fill="white"/>
<path d="M7.00209 196.947L120 78.349L232.998 196.947L7.00209 196.947Z" stroke="#9E9E9E" stroke-width="6"/>
<path fill-rule="evenodd" clip-rule="evenodd" d="M116.12 127.537C109.894 129.051 101.105 133.674 96.9505 137.622C93.7307 140.681 92.427 143.217 92.2452 146.776C91.9506 152.539 95.155 156.247 101.023 156.934C102.743 157.135 102.812 157.189 103.024 158.498C103.29 160.142 105.693 162.974 107.667 163.97C109.733 165.012 113.645 165.559 117.332 165.323C120.459 165.123 120.584 165.145 120.725 165.911C120.805 166.35 121.052 167.692 121.274 168.894C121.804 171.766 123.942 176.007 125.574 177.423C128.08 179.598 129.971 178.659 130.406 175.023L130.622 173.225L132.554 173.571C137.378 174.435 143.809 170.464 143.809 166.621C143.809 165.808 144.195 165.303 145.626 164.247C149.234 161.584 150.928 157.998 150.916 153.042C150.908 149.182 150.095 146.066 148.114 142.291C144.547 135.495 136.124 129.275 127.885 127.356C124.73 126.621 119.562 126.7 116.12 127.537ZM126.12 128.262C127.194 128.463 128.75 128.809 129.579 129.029L131.085 129.43L129.502 130.228C127.5 131.238 125.005 133.61 125.005 134.503C125.005 135.499 125.342 135.353 126.722 133.759C127.401 132.975 128.714 131.971 129.64 131.528C132.083 130.359 133.854 130.663 137.395 132.858C140.11 134.542 145.642 139.309 143.925 138.486C142.63 137.865 139.68 138.03 138.135 138.808C136.745 139.509 136.72 139.509 135.964 138.813C134.973 137.9 133.878 137.567 133.406 138.033C133.153 138.283 133.374 138.577 134.089 138.943C135.531 139.679 136.314 140.61 136.68 142.019C137.112 143.684 137.725 143.477 137.725 141.666C137.725 140.181 137.761 140.137 139.429 139.622C141.455 138.995 143.227 139.243 144.957 140.395C146.703 141.558 147.742 143.253 148.838 146.727C149.671 149.369 149.772 150.226 149.637 153.492C149.507 156.627 149.326 157.531 148.518 159.078C147.499 161.026 145.348 163.182 143.46 164.147C142.419 164.679 142.347 164.836 142.554 166.116C142.75 167.328 142.625 167.681 141.584 168.853C139.626 171.057 137.488 172.081 134.445 172.274C132.262 172.413 131.457 172.298 129.862 171.62C126.806 170.32 125.7 168.429 127.208 167.081C127.853 166.503 128.387 166.46 131.97 166.689C134.579 166.856 136.261 166.813 136.727 166.566C137.547 166.132 137.957 165.004 137.537 164.333C137.203 163.799 136.435 164.172 136.435 164.868C136.435 165.691 135.385 165.818 131.978 165.409C128.418 164.981 127.469 165.122 126.204 166.266C124.52 167.79 125.555 170.629 128.39 172.262C129.447 172.871 129.492 172.992 129.291 174.703C128.894 178.082 127.213 178.261 125.05 175.154C123.459 172.868 122.552 170.394 122.042 166.949L121.602 163.975L116.55 163.975C110.723 163.975 108.36 163.452 106.367 161.722C104.809 160.37 104.318 159.529 103.958 157.598C103.263 153.865 107.573 149.762 112.191 149.762C114.75 149.762 115.946 150.533 115.65 151.993C115.307 153.688 114.312 154.859 112.221 156.025C110.466 157.003 109.616 158.144 110.641 158.144C111.265 158.144 113.77 156.786 114.291 156.166C114.959 155.37 115.227 155.402 122.067 157.098C131.338 159.398 136.671 159.044 140.297 155.889C141.852 154.536 143.995 150.92 144.252 149.215C144.453 147.881 143.344 148.447 142.823 149.944C142.128 151.941 140.259 154.575 138.874 155.511C137.365 156.53 133.84 157.415 131.288 157.415C128.803 157.416 123.162 156.352 123.162 155.883C123.162 155.253 123.981 153.956 124.77 153.338C125.497 152.767 125.506 152.704 124.897 152.474C124.062 152.157 122.941 153.132 122.381 154.662L121.96 155.813L119.151 155.126C117.605 154.748 116.307 154.405 116.265 154.363C116.223 154.322 116.391 153.611 116.639 152.783C117.176 150.985 118.982 149.424 122.348 147.849C124.34 146.917 124.996 146.784 126.994 146.91C129.165 147.046 129.672 147.248 131.86 148.838C132.559 149.346 132.874 148.854 132.405 147.988C132.184 147.579 130.939 146.742 129.638 146.129C127.081 144.923 125.365 143.25 125.39 141.99C125.399 141.554 125.624 140.595 125.89 139.859C126.16 139.111 126.241 138.308 126.074 138.04C125.687 137.421 125.234 137.904 124.687 139.521C124.069 141.347 124.174 142.783 125.024 144.142L125.779 145.351L124.196 145.772C122.131 146.322 120.353 147.233 118.246 148.823L116.538 150.112L115.149 149.172C113.95 148.36 113.48 148.256 111.706 148.41C108.063 148.725 104.638 151.136 103.17 154.417C102.444 156.038 102.443 156.039 100.912 155.799C98.6317 155.441 95.7264 154.003 94.8825 152.815C93.7071 151.16 93.2046 149.145 93.3624 146.719C93.5508 143.823 94.7306 141.437 97.1647 139.031C98.8717 137.344 104.708 133.222 104.992 133.502C105.054 133.563 104.84 134.336 104.518 135.219C104.156 136.21 103.932 138.012 103.931 139.931L103.93 143.038L102.485 143.86C101.69 144.312 101.04 144.831 101.04 145.014C101.04 145.732 101.781 145.727 103.027 145C103.97 144.45 104.822 144.268 106.097 144.346C108.338 144.482 108.581 143.58 106.438 143.079L105.014 142.746L105.157 139.228C105.281 136.166 105.436 135.48 106.345 133.947C107.238 132.44 107.771 132.011 110.022 130.988C111.47 130.33 113.543 129.532 114.629 129.216L116.605 128.641L116 129.453C114.993 130.805 113.992 133.125 113.737 134.698C113.605 135.515 113.307 136.179 113.076 136.173C111.859 136.143 111.364 136.332 111.364 136.825C111.364 137.224 111.787 137.373 112.931 137.379C113.793 137.384 115.22 137.711 116.102 138.107C116.984 138.502 117.866 138.729 118.061 138.609C118.61 138.274 117.329 137.085 115.928 136.628C114.507 136.164 114.474 136.01 115.251 133.423C115.895 131.279 117.635 129.114 119.284 128.404C120.629 127.825 123.471 127.766 126.12 128.262Z" fill="#9E9E9E" stroke="#9E9E9E"/>
<path d="M155.314 363.169C155.314 382.384 139.55 398 120.055 398C100.56 398 84.7957 382.384 84.7957 363.169C84.7957 343.954 100.56 328.338 120.055 328.338C139.55 328.338 155.314 343.954 155.314 363.169Z" stroke="#884A07" stroke-width="4"/>
<path d="M115.46 375.356C116.588 376.63 116.602 380.012 116.531 381.493H124.242C124.313 380.364 124.627 377.557 125.313 375.356C126.17 372.605 130.882 368.162 130.668 364.141C130.454 360.12 126.384 354.195 120.6 354.195C115.674 354.195 111.604 356.1 110.319 361.39C109.033 366.68 110.961 370.278 115.46 375.356Z" fill="#FFF500"/>
<path d="M116.531 381.493L116.031 381.469L116.006 381.993H116.531V381.493ZM115.46 375.356L115.085 375.688L115.46 375.356ZM110.319 361.39L110.804 361.508L110.319 361.39ZM130.668 364.141L130.169 364.168L130.668 364.141ZM125.313 375.356L124.836 375.208L125.313 375.356ZM124.242 381.493V381.993H124.711L124.741 381.525L124.242 381.493ZM117.03 381.517C117.066 380.762 117.082 379.517 116.942 378.29C116.872 377.677 116.762 377.056 116.591 376.498C116.422 375.946 116.183 375.419 115.834 375.025L115.085 375.688C115.3 375.931 115.486 376.304 115.635 376.791C115.782 377.271 115.882 377.827 115.948 378.404C116.08 379.557 116.066 380.743 116.031 381.469L117.03 381.517ZM115.834 375.025C113.593 372.495 112.034 370.379 111.184 368.266C110.342 366.175 110.185 364.06 110.804 361.508L109.833 361.272C109.167 364.01 109.331 366.34 110.256 368.639C111.173 370.917 112.828 373.139 115.085 375.688L115.834 375.025ZM110.804 361.508C111.419 358.977 112.687 357.293 114.362 356.231C116.05 355.161 118.196 354.695 120.6 354.695V353.695C118.079 353.695 115.726 354.182 113.826 355.387C111.913 356.599 110.503 358.512 109.833 361.272L110.804 361.508ZM120.6 354.695C123.312 354.695 125.649 356.084 127.349 357.993C129.056 359.909 130.069 362.291 130.169 364.168L131.167 364.114C131.053 361.97 129.924 359.38 128.096 357.328C126.262 355.269 123.672 353.695 120.6 353.695V354.695ZM130.169 364.168C130.266 365.999 129.234 367.99 127.972 369.954C127.66 370.438 127.34 370.913 127.026 371.379C126.713 371.843 126.404 372.299 126.121 372.738C125.561 373.605 125.072 374.449 124.836 375.208L125.79 375.505C125.982 374.889 126.403 374.145 126.961 373.28C127.237 372.852 127.54 372.405 127.855 371.939C128.169 371.474 128.495 370.99 128.813 370.495C130.067 368.545 131.284 366.304 131.167 364.114L130.169 364.168ZM124.836 375.208C124.133 377.463 123.815 380.315 123.743 381.461L124.741 381.525C124.811 380.414 125.122 377.651 125.79 375.505L124.836 375.208ZM124.242 380.993H116.531V381.993H124.242V380.993Z" fill="#884A07"/>
<path fill-rule="evenodd" clip-rule="evenodd" d="M117.245 352.833C111.658 354.164 107.822 359.377 108.203 365.12C108.382 367.826 109.089 369.512 111.182 372.22C112.147 373.468 113.35 375.345 113.855 376.389C114.36 377.433 114.647 380.514 114.647 380.514H116.216H117.806C117.806 380.514 117.806 378.691 117.806 377.502C117.391 374.481 115.759 372.818 114.075 370.609C111.975 367.854 111.516 366.698 111.52 364.164C111.532 355.218 123.932 352.488 127.971 360.542C129.623 363.835 129.103 366.851 126.238 370.609C124.554 372.818 122.945 374.484 122.507 377.502C122.476 378.561 122.476 380.514 122.476 380.514H123.979H125.666C125.666 380.514 126.018 377.317 126.602 376.14C127.186 374.962 128.282 373.24 129.038 372.314C131.292 369.549 132.161 367.319 132.167 364.287C132.182 356.745 124.755 351.044 117.245 352.833ZM117.518 358.476C115.321 359.481 113.638 361.86 113.65 363.947C113.659 365.677 115.368 365.854 115.741 364.164C116.262 361.801 117.366 360.501 119.087 360.227C120.629 359.981 121.158 359.682 121.158 359.055C121.158 357.763 119.615 357.517 117.518 358.476ZM114.648 382.05C114.65 383.444 114.749 383.736 115.716 385.185L116.782 386.783H120.08H123.392L124.529 385.256C125.576 383.723 125.666 383.471 125.666 382.053V380.514H120.157H114.647L114.648 382.05Z" fill="#884A07"/>
<rect x="119.315" y="339.806" width="1.71364" height="9.73408" rx="0.856818" fill="#884A07"/>
<rect width="1.70329" height="9.79392" rx="0.851645" transform="matrix(0.711401 -0.702786 0.711401 0.702786 99.1799 347.774)" fill="#884A07"/>
<rect x="97.4663" y="370.701" width="1.69288" height="9.85341" rx="0.846442" transform="rotate(-90 97.4663 370.701)" fill="#884A07"/>
<rect x="133.024" y="370.701" width="1.69288" height="9.8534" rx="0.846442" transform="rotate(-90 133.024 370.701)" fill="#884A07"/>
<rect width="1.70329" height="9.79392" rx="0.851645" transform="matrix(0.711401 0.702786 -0.711401 0.702786 139.135 346.577)" fill="#884A07"/>
</svg>
