<svg width="480" height="250" viewBox="0 0 480 250" fill="none" xmlns="http://www.w3.org/2000/svg">
<path d="M160 137H468C473.523 137 478 141.477 478 147V208.122C478 213.645 473.523 218.122 468 218.122H429.967L441.51 244L405.43 218.122H160C154.477 218.122 150 213.645 150 208.122V147C150 141.477 154.477 137 160 137Z" stroke="#884A07" stroke-width="4"/>
<path d="M175.883 160.615L175.805 160.4C176.326 159.222 177.211 157.663 178.461 155.723H179.701C178.646 158.19 177.986 159.821 177.719 160.615H175.883ZM172.26 160.615L172.201 160.4C172.839 159.027 173.718 157.467 174.838 155.723H176.078C175.121 157.969 174.46 159.6 174.096 160.615H172.26ZM178.871 170L181.908 155.723H183.549L180.512 170H178.871ZM195.492 170L196.938 163.242C197.055 162.63 197.113 162.191 197.113 161.924C197.113 161.468 197.012 161.113 196.811 160.859C196.609 160.605 196.264 160.479 195.775 160.479C195.229 160.479 194.695 160.674 194.174 161.064C193.66 161.455 193.204 162.015 192.807 162.744C192.416 163.467 192.113 164.339 191.898 165.361L190.912 170H189.271L191.557 159.297H192.914L192.699 161.279H192.797C193.363 160.505 193.926 159.948 194.486 159.609C195.053 159.271 195.635 159.102 196.234 159.102C196.97 159.102 197.536 159.313 197.934 159.736C198.331 160.16 198.565 160.749 198.637 161.504H198.715C199.275 160.69 199.87 160.088 200.502 159.697C201.133 159.3 201.771 159.102 202.416 159.102C203.243 159.102 203.881 159.323 204.33 159.766C204.786 160.208 205.014 160.853 205.014 161.699C205.014 162.142 204.942 162.721 204.799 163.438L203.393 170H201.732L203.178 163.242C203.308 162.565 203.373 162.09 203.373 161.816C203.373 161.413 203.259 161.09 203.031 160.85C202.81 160.602 202.458 160.479 201.977 160.479C201.449 160.479 200.928 160.667 200.414 161.045C199.9 161.423 199.447 161.96 199.057 162.656C198.673 163.346 198.38 164.167 198.178 165.117L197.133 170H195.492ZM208.354 170H206.713L208.998 159.297H210.639L208.354 170ZM209.457 156.562C209.457 156.198 209.561 155.902 209.77 155.674C209.978 155.439 210.248 155.322 210.58 155.322C211.153 155.322 211.439 155.615 211.439 156.201C211.439 156.559 211.329 156.862 211.107 157.109C210.893 157.357 210.642 157.48 210.355 157.48C210.095 157.48 209.88 157.402 209.711 157.246C209.542 157.083 209.457 156.855 209.457 156.562ZM218.393 166.963C218.393 167.979 218.031 168.773 217.309 169.346C216.592 169.912 215.58 170.195 214.271 170.195C213.171 170.195 212.178 169.971 211.293 169.521V167.979C211.749 168.252 212.24 168.464 212.768 168.613C213.295 168.763 213.783 168.838 214.232 168.838C215.053 168.838 215.671 168.675 216.088 168.35C216.505 168.024 216.713 167.607 216.713 167.1C216.713 166.729 216.599 166.416 216.371 166.162C216.143 165.908 215.652 165.56 214.896 165.117C214.05 164.642 213.451 164.176 213.1 163.721C212.748 163.265 212.572 162.725 212.572 162.1C212.572 161.201 212.901 160.479 213.559 159.932C214.216 159.378 215.082 159.102 216.156 159.102C217.27 159.102 218.344 159.342 219.379 159.824L218.852 161.162L218.305 160.918C217.647 160.638 216.931 160.498 216.156 160.498C215.551 160.498 215.076 160.641 214.73 160.928C214.385 161.208 214.213 161.572 214.213 162.021C214.213 162.386 214.327 162.699 214.555 162.959C214.789 163.219 215.268 163.555 215.99 163.965C216.687 164.355 217.185 164.691 217.484 164.971C217.79 165.251 218.018 165.553 218.168 165.879C218.318 166.198 218.393 166.559 218.393 166.963ZM226.967 166.963C226.967 167.979 226.605 168.773 225.883 169.346C225.167 169.912 224.154 170.195 222.846 170.195C221.745 170.195 220.753 169.971 219.867 169.521V167.979C220.323 168.252 220.814 168.464 221.342 168.613C221.869 168.763 222.357 168.838 222.807 168.838C223.627 168.838 224.245 168.675 224.662 168.35C225.079 168.024 225.287 167.607 225.287 167.1C225.287 166.729 225.173 166.416 224.945 166.162C224.717 165.908 224.226 165.56 223.471 165.117C222.624 164.642 222.025 164.176 221.674 163.721C221.322 163.265 221.146 162.725 221.146 162.1C221.146 161.201 221.475 160.479 222.133 159.932C222.79 159.378 223.656 159.102 224.73 159.102C225.844 159.102 226.918 159.342 227.953 159.824L227.426 161.162L226.879 160.918C226.221 160.638 225.505 160.498 224.73 160.498C224.125 160.498 223.65 160.641 223.305 160.928C222.96 161.208 222.787 161.572 222.787 162.021C222.787 162.386 222.901 162.699 223.129 162.959C223.363 163.219 223.842 163.555 224.564 163.965C225.261 164.355 225.759 164.691 226.059 164.971C226.365 165.251 226.592 165.553 226.742 165.879C226.892 166.198 226.967 166.559 226.967 166.963ZM240.355 170L241.801 163.242C241.918 162.63 241.977 162.191 241.977 161.924C241.977 161.468 241.876 161.113 241.674 160.859C241.472 160.605 241.127 160.479 240.639 160.479C240.092 160.479 239.558 160.674 239.037 161.064C238.523 161.455 238.067 162.015 237.67 162.744C237.279 163.467 236.977 164.339 236.762 165.361L235.775 170H234.135L236.42 159.297H237.777L237.562 161.279H237.66C238.227 160.505 238.79 159.948 239.35 159.609C239.916 159.271 240.499 159.102 241.098 159.102C241.833 159.102 242.4 159.313 242.797 159.736C243.194 160.16 243.428 160.749 243.5 161.504H243.578C244.138 160.69 244.734 160.088 245.365 159.697C245.997 159.3 246.635 159.102 247.279 159.102C248.106 159.102 248.744 159.323 249.193 159.766C249.649 160.208 249.877 160.853 249.877 161.699C249.877 162.142 249.805 162.721 249.662 163.438L248.256 170H246.596L248.041 163.242C248.171 162.565 248.236 162.09 248.236 161.816C248.236 161.413 248.122 161.09 247.895 160.85C247.673 160.602 247.322 160.479 246.84 160.479C246.312 160.479 245.792 160.667 245.277 161.045C244.763 161.423 244.311 161.96 243.92 162.656C243.536 163.346 243.243 164.167 243.041 165.117L241.996 170H240.355ZM255.805 170.195C254.607 170.195 253.666 169.84 252.982 169.131C252.299 168.421 251.957 167.438 251.957 166.182C251.957 164.958 252.198 163.786 252.68 162.666C253.168 161.54 253.812 160.664 254.613 160.039C255.414 159.414 256.296 159.102 257.26 159.102C258.256 159.102 259.005 159.32 259.506 159.756C260.007 160.186 260.258 160.788 260.258 161.562C260.258 162.734 259.717 163.656 258.637 164.326C257.556 164.99 256.01 165.322 253.998 165.322H253.676L253.637 166.104C253.637 166.956 253.835 167.624 254.232 168.105C254.636 168.581 255.258 168.818 256.098 168.818C256.508 168.818 256.928 168.76 257.357 168.643C257.794 168.525 258.334 168.311 258.979 167.998V169.424C258.367 169.71 257.826 169.909 257.357 170.02C256.889 170.137 256.371 170.195 255.805 170.195ZM257.162 160.498C256.492 160.498 255.86 160.804 255.268 161.416C254.682 162.028 254.232 162.878 253.92 163.965H254.037C255.521 163.965 256.658 163.773 257.445 163.389C258.24 162.998 258.637 162.435 258.637 161.699C258.637 161.354 258.516 161.068 258.275 160.84C258.041 160.612 257.67 160.498 257.162 160.498ZM272.299 159.102C272.898 159.102 273.432 159.264 273.9 159.59C274.369 159.909 274.734 160.371 274.994 160.977H275.102L275.756 159.297H276.996L274.721 170H273.422L273.676 167.959H273.598C272.432 169.45 271.205 170.195 269.916 170.195C269.011 170.195 268.301 169.873 267.787 169.229C267.273 168.584 267.016 167.702 267.016 166.582C267.016 165.228 267.247 163.971 267.709 162.812C268.171 161.654 268.809 160.745 269.623 160.088C270.437 159.43 271.329 159.102 272.299 159.102ZM270.443 168.838C271.075 168.838 271.703 168.538 272.328 167.939C272.953 167.334 273.461 166.549 273.852 165.586C274.242 164.616 274.438 163.646 274.438 162.676C274.438 162.005 274.255 161.471 273.891 161.074C273.526 160.677 273.048 160.479 272.455 160.479C271.778 160.479 271.146 160.758 270.561 161.318C269.981 161.878 269.525 162.637 269.193 163.594C268.861 164.551 268.695 165.56 268.695 166.621C268.695 167.363 268.848 167.92 269.154 168.291C269.46 168.656 269.89 168.838 270.443 168.838ZM284.486 170L285.932 163.242C286.062 162.565 286.127 162.096 286.127 161.836C286.127 161.426 286.01 161.097 285.775 160.85C285.548 160.602 285.18 160.479 284.672 160.479C284.092 160.479 283.526 160.674 282.973 161.064C282.426 161.455 281.941 162.012 281.518 162.734C281.101 163.457 280.785 164.333 280.57 165.361L279.584 170H277.943L280.229 159.297H281.586L281.371 161.279H281.469C282.094 160.485 282.696 159.925 283.275 159.6C283.861 159.268 284.467 159.102 285.092 159.102C285.919 159.102 286.57 159.329 287.045 159.785C287.527 160.234 287.768 160.866 287.768 161.68C287.768 162.194 287.693 162.78 287.543 163.438L286.146 170H284.486ZM295.15 159.121C296.413 159.121 297.328 159.74 297.895 160.977H297.992C298.103 159.967 298.249 159.076 298.432 158.301L299.193 154.805H300.814L297.592 170H296.234L296.449 167.959H296.371C295.714 168.773 295.098 169.349 294.525 169.688C293.952 170.026 293.36 170.195 292.748 170.195C291.843 170.195 291.137 169.876 290.629 169.238C290.121 168.6 289.867 167.715 289.867 166.582C289.867 165.189 290.102 163.913 290.57 162.754C291.039 161.595 291.671 160.7 292.465 160.068C293.266 159.437 294.161 159.121 295.15 159.121ZM293.295 168.838C293.907 168.838 294.538 168.535 295.189 167.93C295.84 167.318 296.355 166.54 296.732 165.596C297.117 164.645 297.309 163.678 297.309 162.695C297.309 161.973 297.133 161.423 296.781 161.045C296.43 160.667 295.919 160.479 295.248 160.479C294.59 160.479 293.979 160.749 293.412 161.289C292.852 161.823 292.4 162.578 292.055 163.555C291.716 164.525 291.547 165.547 291.547 166.621C291.547 168.099 292.13 168.838 293.295 168.838ZM306.488 170L309.525 155.723H311.166L308.129 170H306.488ZM323.109 170L324.555 163.242C324.672 162.63 324.73 162.191 324.73 161.924C324.73 161.468 324.63 161.113 324.428 160.859C324.226 160.605 323.881 160.479 323.393 160.479C322.846 160.479 322.312 160.674 321.791 161.064C321.277 161.455 320.821 162.015 320.424 162.744C320.033 163.467 319.73 164.339 319.516 165.361L318.529 170H316.889L319.174 159.297H320.531L320.316 161.279H320.414C320.98 160.505 321.544 159.948 322.104 159.609C322.67 159.271 323.253 159.102 323.852 159.102C324.587 159.102 325.154 159.313 325.551 159.736C325.948 160.16 326.182 160.749 326.254 161.504H326.332C326.892 160.69 327.488 160.088 328.119 159.697C328.751 159.3 329.389 159.102 330.033 159.102C330.86 159.102 331.498 159.323 331.947 159.766C332.403 160.208 332.631 160.853 332.631 161.699C332.631 162.142 332.559 162.721 332.416 163.438L331.01 170H329.35L330.795 163.242C330.925 162.565 330.99 162.09 330.99 161.816C330.99 161.413 330.876 161.09 330.648 160.85C330.427 160.602 330.076 160.479 329.594 160.479C329.066 160.479 328.546 160.667 328.031 161.045C327.517 161.423 327.064 161.96 326.674 162.656C326.29 163.346 325.997 164.167 325.795 165.117L324.75 170H323.109ZM335.971 170H334.33L336.615 159.297H338.256L335.971 170ZM337.074 156.562C337.074 156.198 337.178 155.902 337.387 155.674C337.595 155.439 337.865 155.322 338.197 155.322C338.77 155.322 339.057 155.615 339.057 156.201C339.057 156.559 338.946 156.862 338.725 157.109C338.51 157.357 338.259 157.48 337.973 157.48C337.712 157.48 337.497 157.402 337.328 157.246C337.159 157.083 337.074 156.855 337.074 156.562ZM346.01 166.963C346.01 167.979 345.648 168.773 344.926 169.346C344.21 169.912 343.197 170.195 341.889 170.195C340.788 170.195 339.796 169.971 338.91 169.521V167.979C339.366 168.252 339.857 168.464 340.385 168.613C340.912 168.763 341.4 168.838 341.85 168.838C342.67 168.838 343.288 168.675 343.705 168.35C344.122 168.024 344.33 167.607 344.33 167.1C344.33 166.729 344.216 166.416 343.988 166.162C343.76 165.908 343.269 165.56 342.514 165.117C341.667 164.642 341.068 164.176 340.717 163.721C340.365 163.265 340.189 162.725 340.189 162.1C340.189 161.201 340.518 160.479 341.176 159.932C341.833 159.378 342.699 159.102 343.773 159.102C344.887 159.102 345.961 159.342 346.996 159.824L346.469 161.162L345.922 160.918C345.264 160.638 344.548 160.498 343.773 160.498C343.168 160.498 342.693 160.641 342.348 160.928C342.003 161.208 341.83 161.572 341.83 162.021C341.83 162.386 341.944 162.699 342.172 162.959C342.406 163.219 342.885 163.555 343.607 163.965C344.304 164.355 344.802 164.691 345.102 164.971C345.408 165.251 345.635 165.553 345.785 165.879C345.935 166.198 346.01 166.559 346.01 166.963ZM354.584 166.963C354.584 167.979 354.223 168.773 353.5 169.346C352.784 169.912 351.771 170.195 350.463 170.195C349.363 170.195 348.37 169.971 347.484 169.521V167.979C347.94 168.252 348.432 168.464 348.959 168.613C349.486 168.763 349.975 168.838 350.424 168.838C351.244 168.838 351.863 168.675 352.279 168.35C352.696 168.024 352.904 167.607 352.904 167.1C352.904 166.729 352.79 166.416 352.562 166.162C352.335 165.908 351.843 165.56 351.088 165.117C350.242 164.642 349.643 164.176 349.291 163.721C348.939 163.265 348.764 162.725 348.764 162.1C348.764 161.201 349.092 160.479 349.75 159.932C350.408 159.378 351.273 159.102 352.348 159.102C353.461 159.102 354.535 159.342 355.57 159.824L355.043 161.162L354.496 160.918C353.839 160.638 353.122 160.498 352.348 160.498C351.742 160.498 351.267 160.641 350.922 160.928C350.577 161.208 350.404 161.572 350.404 162.021C350.404 162.386 350.518 162.699 350.746 162.959C350.98 163.219 351.459 163.555 352.182 163.965C352.878 164.355 353.376 164.691 353.676 164.971C353.982 165.251 354.21 165.553 354.359 165.879C354.509 166.198 354.584 166.559 354.584 166.963ZM367.973 170L369.418 163.242C369.535 162.63 369.594 162.191 369.594 161.924C369.594 161.468 369.493 161.113 369.291 160.859C369.089 160.605 368.744 160.479 368.256 160.479C367.709 160.479 367.175 160.674 366.654 161.064C366.14 161.455 365.684 162.015 365.287 162.744C364.896 163.467 364.594 164.339 364.379 165.361L363.393 170H361.752L364.037 159.297H365.395L365.18 161.279H365.277C365.844 160.505 366.407 159.948 366.967 159.609C367.533 159.271 368.116 159.102 368.715 159.102C369.451 159.102 370.017 159.313 370.414 159.736C370.811 160.16 371.046 160.749 371.117 161.504H371.195C371.755 160.69 372.351 160.088 372.982 159.697C373.614 159.3 374.252 159.102 374.896 159.102C375.723 159.102 376.361 159.323 376.811 159.766C377.266 160.208 377.494 160.853 377.494 161.699C377.494 162.142 377.423 162.721 377.279 163.438L375.873 170H374.213L375.658 163.242C375.788 162.565 375.854 162.09 375.854 161.816C375.854 161.413 375.74 161.09 375.512 160.85C375.29 160.602 374.939 160.479 374.457 160.479C373.93 160.479 373.409 160.667 372.895 161.045C372.38 161.423 371.928 161.96 371.537 162.656C371.153 163.346 370.86 164.167 370.658 165.117L369.613 170H367.973ZM379.574 159.297H381.215L381.938 164.619C382.003 165.068 382.064 165.732 382.123 166.611C382.188 167.484 382.221 168.187 382.221 168.721H382.279C382.507 168.154 382.79 167.503 383.129 166.768C383.467 166.032 383.718 165.524 383.881 165.244L387.055 159.297H388.793L381.996 171.816C381.391 172.936 380.792 173.714 380.199 174.15C379.607 174.587 378.894 174.805 378.061 174.805C377.592 174.805 377.136 174.736 376.693 174.6V173.281C377.104 173.398 377.53 173.457 377.973 173.457C378.507 173.457 378.962 173.291 379.34 172.959C379.724 172.633 380.095 172.148 380.453 171.504L381.195 170.176L379.574 159.297ZM395.248 170H393.607L396.85 154.805H398.49L395.248 170ZM400.346 170H398.705L400.99 159.297H402.631L400.346 170ZM401.449 156.562C401.449 156.198 401.553 155.902 401.762 155.674C401.97 155.439 402.24 155.322 402.572 155.322C403.145 155.322 403.432 155.615 403.432 156.201C403.432 156.559 403.321 156.862 403.1 157.109C402.885 157.357 402.634 157.48 402.348 157.48C402.087 157.48 401.872 157.402 401.703 157.246C401.534 157.083 401.449 156.855 401.449 156.562ZM402.191 174.805C401.742 174.805 401.335 174.736 400.971 174.6V173.223C401.387 173.366 401.752 173.438 402.064 173.438C402.559 173.438 402.94 173.236 403.207 172.832C403.474 172.428 403.689 171.852 403.852 171.104L406.068 160.537H404.184L404.311 159.883L406.322 159.238L406.547 158.262C406.846 156.96 407.26 156.042 407.787 155.508C408.321 154.967 409.109 154.697 410.15 154.697C410.411 154.697 410.73 154.736 411.107 154.814C411.485 154.886 411.778 154.967 411.986 155.059L411.566 156.318C411.072 156.13 410.626 156.035 410.229 156.035C409.662 156.035 409.226 156.195 408.92 156.514C408.62 156.826 408.376 157.402 408.188 158.242L407.943 159.297H410.268L410.023 160.537H407.709L405.443 171.26C405.189 172.49 404.799 173.389 404.271 173.955C403.744 174.521 403.051 174.805 402.191 174.805ZM414.281 170.195C413.083 170.195 412.143 169.84 411.459 169.131C410.775 168.421 410.434 167.438 410.434 166.182C410.434 164.958 410.674 163.786 411.156 162.666C411.645 161.54 412.289 160.664 413.09 160.039C413.891 159.414 414.773 159.102 415.736 159.102C416.732 159.102 417.481 159.32 417.982 159.756C418.484 160.186 418.734 160.788 418.734 161.562C418.734 162.734 418.194 163.656 417.113 164.326C416.033 164.99 414.486 165.322 412.475 165.322H412.152L412.113 166.104C412.113 166.956 412.312 167.624 412.709 168.105C413.113 168.581 413.734 168.818 414.574 168.818C414.984 168.818 415.404 168.76 415.834 168.643C416.27 168.525 416.811 168.311 417.455 167.998V169.424C416.843 169.71 416.303 169.909 415.834 170.02C415.365 170.137 414.848 170.195 414.281 170.195ZM415.639 160.498C414.968 160.498 414.337 160.804 413.744 161.416C413.158 162.028 412.709 162.878 412.396 163.965H412.514C413.998 163.965 415.134 163.773 415.922 163.389C416.716 162.998 417.113 162.435 417.113 161.699C417.113 161.354 416.993 161.068 416.752 160.84C416.518 160.612 416.146 160.498 415.639 160.498ZM429.857 170.195C429.226 170.195 428.673 170.033 428.197 169.707C427.722 169.382 427.354 168.926 427.094 168.34H426.996L426.957 168.711C426.938 168.874 426.902 169.102 426.85 169.395C426.804 169.688 426.433 171.491 425.736 174.805H424.115L427.396 159.297H428.754L428.5 161.338H428.578C429.743 159.86 430.954 159.121 432.211 159.121C433.103 159.121 433.806 159.44 434.32 160.078C434.835 160.71 435.092 161.598 435.092 162.744C435.092 164.124 434.867 165.391 434.418 166.543C433.969 167.695 433.347 168.594 432.553 169.238C431.758 169.876 430.86 170.195 429.857 170.195ZM431.674 160.479C431.049 160.479 430.411 160.788 429.76 161.406C429.115 162.025 428.601 162.803 428.217 163.74C427.839 164.678 427.65 165.638 427.65 166.621C427.65 167.337 427.829 167.887 428.188 168.271C428.552 168.649 429.076 168.838 429.76 168.838C430.404 168.838 431.003 168.574 431.557 168.047C432.117 167.52 432.566 166.771 432.904 165.801C433.243 164.824 433.412 163.789 433.412 162.695C433.412 161.217 432.833 160.479 431.674 160.479ZM443.422 159.102C443.871 159.102 444.262 159.147 444.594 159.238L444.242 160.703C443.897 160.618 443.555 160.576 443.217 160.576C442.624 160.576 442.068 160.771 441.547 161.162C441.033 161.553 440.58 162.096 440.189 162.793C439.805 163.483 439.522 164.251 439.34 165.098L438.295 170H436.654L438.939 159.297H440.297L440.082 161.279H440.18C440.648 160.661 441.036 160.218 441.342 159.951C441.648 159.678 441.967 159.469 442.299 159.326C442.637 159.176 443.012 159.102 443.422 159.102ZM448.812 170.195C447.615 170.195 446.674 169.84 445.99 169.131C445.307 168.421 444.965 167.438 444.965 166.182C444.965 164.958 445.206 163.786 445.688 162.666C446.176 161.54 446.82 160.664 447.621 160.039C448.422 159.414 449.304 159.102 450.268 159.102C451.264 159.102 452.012 159.32 452.514 159.756C453.015 160.186 453.266 160.788 453.266 161.562C453.266 162.734 452.725 163.656 451.645 164.326C450.564 164.99 449.018 165.322 447.006 165.322H446.684L446.645 166.104C446.645 166.956 446.843 167.624 447.24 168.105C447.644 168.581 448.266 168.818 449.105 168.818C449.516 168.818 449.936 168.76 450.365 168.643C450.801 168.525 451.342 168.311 451.986 167.998V169.424C451.374 169.71 450.834 169.909 450.365 170.02C449.896 170.137 449.379 170.195 448.812 170.195ZM450.17 160.498C449.499 160.498 448.868 160.804 448.275 161.416C447.689 162.028 447.24 162.878 446.928 163.965H447.045C448.529 163.965 449.665 163.773 450.453 163.389C451.247 162.998 451.645 162.435 451.645 161.699C451.645 161.354 451.524 161.068 451.283 160.84C451.049 160.612 450.678 160.498 450.17 160.498ZM177.24 189.102C177.839 189.102 178.373 189.264 178.842 189.59C179.311 189.909 179.675 190.371 179.936 190.977H180.043L180.697 189.297H181.938L179.662 200H178.363L178.617 197.959H178.539C177.374 199.45 176.146 200.195 174.857 200.195C173.952 200.195 173.243 199.873 172.729 199.229C172.214 198.584 171.957 197.702 171.957 196.582C171.957 195.228 172.188 193.971 172.65 192.812C173.113 191.654 173.751 190.745 174.564 190.088C175.378 189.43 176.27 189.102 177.24 189.102ZM175.385 198.838C176.016 198.838 176.645 198.538 177.27 197.939C177.895 197.334 178.402 196.549 178.793 195.586C179.184 194.616 179.379 193.646 179.379 192.676C179.379 192.005 179.197 191.471 178.832 191.074C178.467 190.677 177.989 190.479 177.396 190.479C176.719 190.479 176.088 190.758 175.502 191.318C174.923 191.878 174.467 192.637 174.135 193.594C173.803 194.551 173.637 195.56 173.637 196.621C173.637 197.363 173.79 197.92 174.096 198.291C174.402 198.656 174.831 198.838 175.385 198.838ZM189.428 200L190.873 193.242C191.003 192.565 191.068 192.096 191.068 191.836C191.068 191.426 190.951 191.097 190.717 190.85C190.489 190.602 190.121 190.479 189.613 190.479C189.034 190.479 188.467 190.674 187.914 191.064C187.367 191.455 186.882 192.012 186.459 192.734C186.042 193.457 185.727 194.333 185.512 195.361L184.525 200H182.885L185.17 189.297H186.527L186.312 191.279H186.41C187.035 190.485 187.637 189.925 188.217 189.6C188.803 189.268 189.408 189.102 190.033 189.102C190.86 189.102 191.511 189.329 191.986 189.785C192.468 190.234 192.709 190.866 192.709 191.68C192.709 192.194 192.634 192.78 192.484 193.438L191.088 200H189.428ZM200.092 189.121C201.355 189.121 202.27 189.74 202.836 190.977H202.934C203.044 189.967 203.191 189.076 203.373 188.301L204.135 184.805H205.756L202.533 200H201.176L201.391 197.959H201.312C200.655 198.773 200.04 199.349 199.467 199.688C198.894 200.026 198.301 200.195 197.689 200.195C196.785 200.195 196.078 199.876 195.57 199.238C195.062 198.6 194.809 197.715 194.809 196.582C194.809 195.189 195.043 193.913 195.512 192.754C195.98 191.595 196.612 190.7 197.406 190.068C198.207 189.437 199.102 189.121 200.092 189.121ZM198.236 198.838C198.848 198.838 199.48 198.535 200.131 197.93C200.782 197.318 201.296 196.54 201.674 195.596C202.058 194.645 202.25 193.678 202.25 192.695C202.25 191.973 202.074 191.423 201.723 191.045C201.371 190.667 200.86 190.479 200.189 190.479C199.532 190.479 198.92 190.749 198.354 191.289C197.794 191.823 197.341 192.578 196.996 193.555C196.658 194.525 196.488 195.547 196.488 196.621C196.488 198.099 197.071 198.838 198.236 198.838ZM215.912 200.195C215.281 200.195 214.727 200.033 214.252 199.707C213.777 199.382 213.409 198.926 213.148 198.34H213.051L213.012 198.711C212.992 198.874 212.956 199.102 212.904 199.395C212.859 199.688 212.488 201.491 211.791 204.805H210.17L213.451 189.297H214.809L214.555 191.338H214.633C215.798 189.86 217.009 189.121 218.266 189.121C219.158 189.121 219.861 189.44 220.375 190.078C220.889 190.71 221.146 191.598 221.146 192.744C221.146 194.124 220.922 195.391 220.473 196.543C220.023 197.695 219.402 198.594 218.607 199.238C217.813 199.876 216.915 200.195 215.912 200.195ZM217.729 190.479C217.104 190.479 216.465 190.788 215.814 191.406C215.17 192.025 214.656 192.803 214.271 193.74C213.894 194.678 213.705 195.638 213.705 196.621C213.705 197.337 213.884 197.887 214.242 198.271C214.607 198.649 215.131 198.838 215.814 198.838C216.459 198.838 217.058 198.574 217.611 198.047C218.171 197.52 218.62 196.771 218.959 195.801C219.298 194.824 219.467 193.789 219.467 192.695C219.467 191.217 218.887 190.479 217.729 190.479ZM228.412 189.16C229.649 189.16 230.626 189.528 231.342 190.264C232.058 190.993 232.416 191.999 232.416 193.281C232.416 194.505 232.182 195.661 231.713 196.748C231.244 197.835 230.609 198.675 229.809 199.268C229.008 199.86 228.103 200.156 227.094 200.156C225.844 200.156 224.864 199.788 224.154 199.053C223.445 198.317 223.09 197.311 223.09 196.035C223.09 194.798 223.327 193.636 223.803 192.549C224.278 191.455 224.919 190.618 225.727 190.039C226.534 189.453 227.429 189.16 228.412 189.16ZM230.717 193.057C230.717 192.308 230.512 191.702 230.102 191.24C229.698 190.771 229.148 190.537 228.451 190.537C227.742 190.537 227.104 190.778 226.537 191.26C225.977 191.742 225.541 192.412 225.229 193.271C224.923 194.124 224.77 195.075 224.77 196.123C224.77 196.976 224.975 197.637 225.385 198.105C225.801 198.568 226.397 198.799 227.172 198.799C227.849 198.799 228.458 198.561 228.998 198.086C229.538 197.611 229.958 196.937 230.258 196.064C230.564 195.186 230.717 194.183 230.717 193.057ZM240.541 196.963C240.541 197.979 240.18 198.773 239.457 199.346C238.741 199.912 237.729 200.195 236.42 200.195C235.32 200.195 234.327 199.971 233.441 199.521V197.979C233.897 198.252 234.389 198.464 234.916 198.613C235.443 198.763 235.932 198.838 236.381 198.838C237.201 198.838 237.82 198.675 238.236 198.35C238.653 198.024 238.861 197.607 238.861 197.1C238.861 196.729 238.747 196.416 238.52 196.162C238.292 195.908 237.8 195.56 237.045 195.117C236.199 194.642 235.6 194.176 235.248 193.721C234.896 193.265 234.721 192.725 234.721 192.1C234.721 191.201 235.049 190.479 235.707 189.932C236.365 189.378 237.23 189.102 238.305 189.102C239.418 189.102 240.492 189.342 241.527 189.824L241 191.162L240.453 190.918C239.796 190.638 239.079 190.498 238.305 190.498C237.699 190.498 237.224 190.641 236.879 190.928C236.534 191.208 236.361 191.572 236.361 192.021C236.361 192.386 236.475 192.699 236.703 192.959C236.938 193.219 237.416 193.555 238.139 193.965C238.835 194.355 239.333 194.691 239.633 194.971C239.939 195.251 240.167 195.553 240.316 195.879C240.466 196.198 240.541 196.559 240.541 196.963ZM245.795 198.857C246.153 198.857 246.622 198.773 247.201 198.604V199.863C246.98 199.954 246.706 200.033 246.381 200.098C246.055 200.163 245.795 200.195 245.6 200.195C244.786 200.195 244.161 200.003 243.725 199.619C243.295 199.229 243.08 198.649 243.08 197.881C243.08 197.451 243.139 196.963 243.256 196.416L244.496 190.537H242.816L242.953 189.824L244.76 189.062L245.98 186.836H246.938L246.4 189.297H249.076L248.822 190.537H246.156L244.896 196.436C244.779 197.002 244.721 197.432 244.721 197.725C244.721 198.089 244.815 198.369 245.004 198.564C245.193 198.76 245.456 198.857 245.795 198.857ZM248.959 195.42L249.301 193.877H253.979L253.646 195.42H248.959ZM260.912 189.121C262.175 189.121 263.09 189.74 263.656 190.977H263.754C263.865 189.967 264.011 189.076 264.193 188.301L264.955 184.805H266.576L263.354 200H261.996L262.211 197.959H262.133C261.475 198.773 260.86 199.349 260.287 199.688C259.714 200.026 259.122 200.195 258.51 200.195C257.605 200.195 256.898 199.876 256.391 199.238C255.883 198.6 255.629 197.715 255.629 196.582C255.629 195.189 255.863 193.913 256.332 192.754C256.801 191.595 257.432 190.7 258.227 190.068C259.027 189.437 259.923 189.121 260.912 189.121ZM259.057 198.838C259.669 198.838 260.3 198.535 260.951 197.93C261.602 197.318 262.117 196.54 262.494 195.596C262.878 194.645 263.07 193.678 263.07 192.695C263.07 191.973 262.895 191.423 262.543 191.045C262.191 190.667 261.68 190.479 261.01 190.479C260.352 190.479 259.74 190.749 259.174 191.289C258.614 191.823 258.161 192.578 257.816 193.555C257.478 194.525 257.309 195.547 257.309 196.621C257.309 198.099 257.891 198.838 259.057 198.838ZM268.432 200H266.791L269.076 189.297H270.717L268.432 200ZM269.535 186.562C269.535 186.198 269.639 185.902 269.848 185.674C270.056 185.439 270.326 185.322 270.658 185.322C271.231 185.322 271.518 185.615 271.518 186.201C271.518 186.559 271.407 186.862 271.186 187.109C270.971 187.357 270.72 187.48 270.434 187.48C270.173 187.48 269.958 187.402 269.789 187.246C269.62 187.083 269.535 186.855 269.535 186.562ZM277.533 189.102C278.132 189.102 278.666 189.264 279.135 189.59C279.604 189.909 279.968 190.371 280.229 190.977H280.336L280.99 189.297H282.23L279.955 200H278.656L278.91 197.959H278.832C277.667 199.45 276.439 200.195 275.15 200.195C274.245 200.195 273.536 199.873 273.021 199.229C272.507 198.584 272.25 197.702 272.25 196.582C272.25 195.228 272.481 193.971 272.943 192.812C273.406 191.654 274.044 190.745 274.857 190.088C275.671 189.43 276.563 189.102 277.533 189.102ZM275.678 198.838C276.309 198.838 276.938 198.538 277.562 197.939C278.188 197.334 278.695 196.549 279.086 195.586C279.477 194.616 279.672 193.646 279.672 192.676C279.672 192.005 279.49 191.471 279.125 191.074C278.76 190.677 278.282 190.479 277.689 190.479C277.012 190.479 276.381 190.758 275.795 191.318C275.215 191.878 274.76 192.637 274.428 193.594C274.096 194.551 273.93 195.56 273.93 196.621C273.93 197.363 274.083 197.92 274.389 198.291C274.695 198.656 275.124 198.838 275.678 198.838ZM293.344 189.297L293.1 190.342L291.039 190.576C291.306 190.98 291.439 191.494 291.439 192.119C291.439 193.363 291.059 194.355 290.297 195.098C289.542 195.833 288.529 196.201 287.26 196.201C286.902 196.201 286.628 196.175 286.439 196.123C285.535 196.468 285.082 196.895 285.082 197.402C285.082 197.669 285.189 197.848 285.404 197.939C285.619 198.024 285.932 198.092 286.342 198.145L287.484 198.281C288.663 198.424 289.516 198.711 290.043 199.141C290.577 199.57 290.844 200.202 290.844 201.035C290.844 202.233 290.368 203.161 289.418 203.818C288.467 204.476 287.13 204.805 285.404 204.805C284.141 204.805 283.152 204.564 282.436 204.082C281.719 203.607 281.361 202.933 281.361 202.061C281.361 201.377 281.596 200.785 282.064 200.283C282.533 199.782 283.292 199.355 284.34 199.004C283.832 198.737 283.578 198.343 283.578 197.822C283.578 197.373 283.744 196.989 284.076 196.67C284.408 196.344 284.87 196.042 285.463 195.762C285.053 195.553 284.717 195.247 284.457 194.844C284.197 194.434 284.066 193.958 284.066 193.418C284.066 192.155 284.454 191.12 285.229 190.312C286.01 189.505 287.006 189.102 288.217 189.102C288.725 189.102 289.226 189.167 289.721 189.297H293.344ZM282.943 201.904C282.943 202.406 283.155 202.803 283.578 203.096C284.001 203.389 284.63 203.535 285.463 203.535C286.648 203.535 287.572 203.327 288.236 202.91C288.907 202.5 289.242 201.917 289.242 201.162C289.242 200.758 289.066 200.439 288.715 200.205C288.363 199.971 287.764 199.808 286.918 199.717L285.365 199.561C284.584 199.723 283.985 200.01 283.568 200.42C283.152 200.83 282.943 201.325 282.943 201.904ZM285.658 193.359C285.658 193.913 285.805 194.336 286.098 194.629C286.391 194.915 286.798 195.059 287.318 195.059C287.833 195.059 288.282 194.922 288.666 194.648C289.05 194.375 289.343 194.001 289.545 193.525C289.753 193.044 289.857 192.523 289.857 191.963C289.857 191.429 289.714 191.022 289.428 190.742C289.141 190.462 288.731 190.322 288.197 190.322C287.689 190.322 287.243 190.456 286.859 190.723C286.482 190.983 286.186 191.351 285.971 191.826C285.762 192.295 285.658 192.806 285.658 193.359ZM299.74 200L301.186 193.242C301.316 192.565 301.381 192.096 301.381 191.836C301.381 191.426 301.264 191.097 301.029 190.85C300.801 190.602 300.434 190.479 299.926 190.479C299.346 190.479 298.78 190.674 298.227 191.064C297.68 191.455 297.195 192.012 296.771 192.734C296.355 193.457 296.039 194.333 295.824 195.361L294.838 200H293.197L295.482 189.297H296.84L296.625 191.279H296.723C297.348 190.485 297.95 189.925 298.529 189.6C299.115 189.268 299.721 189.102 300.346 189.102C301.173 189.102 301.824 189.329 302.299 189.785C302.781 190.234 303.021 190.866 303.021 191.68C303.021 192.194 302.947 192.78 302.797 193.438L301.4 200H299.74ZM310.443 189.16C311.68 189.16 312.657 189.528 313.373 190.264C314.089 190.993 314.447 191.999 314.447 193.281C314.447 194.505 314.213 195.661 313.744 196.748C313.275 197.835 312.641 198.675 311.84 199.268C311.039 199.86 310.134 200.156 309.125 200.156C307.875 200.156 306.895 199.788 306.186 199.053C305.476 198.317 305.121 197.311 305.121 196.035C305.121 194.798 305.359 193.636 305.834 192.549C306.309 191.455 306.951 190.618 307.758 190.039C308.565 189.453 309.46 189.16 310.443 189.16ZM312.748 193.057C312.748 192.308 312.543 191.702 312.133 191.24C311.729 190.771 311.179 190.537 310.482 190.537C309.773 190.537 309.135 190.778 308.568 191.26C308.008 191.742 307.572 192.412 307.26 193.271C306.954 194.124 306.801 195.075 306.801 196.123C306.801 196.976 307.006 197.637 307.416 198.105C307.833 198.568 308.428 198.799 309.203 198.799C309.88 198.799 310.489 198.561 311.029 198.086C311.57 197.611 311.99 196.937 312.289 196.064C312.595 195.186 312.748 194.183 312.748 193.057ZM322.572 196.963C322.572 197.979 322.211 198.773 321.488 199.346C320.772 199.912 319.76 200.195 318.451 200.195C317.351 200.195 316.358 199.971 315.473 199.521V197.979C315.928 198.252 316.42 198.464 316.947 198.613C317.475 198.763 317.963 198.838 318.412 198.838C319.232 198.838 319.851 198.675 320.268 198.35C320.684 198.024 320.893 197.607 320.893 197.1C320.893 196.729 320.779 196.416 320.551 196.162C320.323 195.908 319.831 195.56 319.076 195.117C318.23 194.642 317.631 194.176 317.279 193.721C316.928 193.265 316.752 192.725 316.752 192.1C316.752 191.201 317.081 190.479 317.738 189.932C318.396 189.378 319.262 189.102 320.336 189.102C321.449 189.102 322.523 189.342 323.559 189.824L323.031 191.162L322.484 190.918C321.827 190.638 321.111 190.498 320.336 190.498C319.73 190.498 319.255 190.641 318.91 190.928C318.565 191.208 318.393 191.572 318.393 192.021C318.393 192.386 318.507 192.699 318.734 192.959C318.969 193.219 319.447 193.555 320.17 193.965C320.867 194.355 321.365 194.691 321.664 194.971C321.97 195.251 322.198 195.553 322.348 195.879C322.497 196.198 322.572 196.559 322.572 196.963ZM326.186 200H324.545L326.83 189.297H328.471L326.186 200ZM327.289 186.562C327.289 186.198 327.393 185.902 327.602 185.674C327.81 185.439 328.08 185.322 328.412 185.322C328.985 185.322 329.271 185.615 329.271 186.201C329.271 186.559 329.161 186.862 328.939 187.109C328.725 187.357 328.474 187.48 328.188 187.48C327.927 187.48 327.712 187.402 327.543 187.246C327.374 187.083 327.289 186.855 327.289 186.562ZM336.225 196.963C336.225 197.979 335.863 198.773 335.141 199.346C334.424 199.912 333.412 200.195 332.104 200.195C331.003 200.195 330.01 199.971 329.125 199.521V197.979C329.581 198.252 330.072 198.464 330.6 198.613C331.127 198.763 331.615 198.838 332.064 198.838C332.885 198.838 333.503 198.675 333.92 198.35C334.337 198.024 334.545 197.607 334.545 197.1C334.545 196.729 334.431 196.416 334.203 196.162C333.975 195.908 333.484 195.56 332.729 195.117C331.882 194.642 331.283 194.176 330.932 193.721C330.58 193.265 330.404 192.725 330.404 192.1C330.404 191.201 330.733 190.479 331.391 189.932C332.048 189.378 332.914 189.102 333.988 189.102C335.102 189.102 336.176 189.342 337.211 189.824L336.684 191.162L336.137 190.918C335.479 190.638 334.763 190.498 333.988 190.498C333.383 190.498 332.908 190.641 332.562 190.928C332.217 191.208 332.045 191.572 332.045 192.021C332.045 192.386 332.159 192.699 332.387 192.959C332.621 193.219 333.1 193.555 333.822 193.965C334.519 194.355 335.017 194.691 335.316 194.971C335.622 195.251 335.85 195.553 336 195.879C336.15 196.198 336.225 196.559 336.225 196.963ZM338.041 199.277C338.041 198.776 338.171 198.379 338.432 198.086C338.699 197.786 339.063 197.637 339.525 197.637C339.805 197.637 340.03 197.721 340.199 197.891C340.375 198.06 340.463 198.317 340.463 198.662C340.463 199.124 340.333 199.512 340.072 199.824C339.812 200.13 339.46 200.283 339.018 200.283C338.718 200.283 338.48 200.199 338.305 200.029C338.129 199.86 338.041 199.609 338.041 199.277ZM347.719 185.723L347.797 185.938C347.536 186.53 347.175 187.243 346.713 188.076C346.251 188.903 345.733 189.749 345.16 190.615H343.9C344.773 188.675 345.434 187.044 345.883 185.723H347.719ZM351.322 185.723L351.42 185.938C350.808 187.279 349.916 188.838 348.744 190.615H347.504C347.875 189.795 348.249 188.91 348.627 187.959C349.011 187.002 349.294 186.257 349.477 185.723H351.322Z" fill="#444444"/>
<path d="M417 2H12C6.47715 2 2 6.47716 2 12V73.1219C2 78.6447 6.47715 83.1219 12 83.1219H64.2385L49.2812 109L96.0312 83.1219H417C422.523 83.1219 427 78.6447 427 73.1219V12C427 6.47715 422.523 2 417 2Z" stroke="#884A07" stroke-width="4"/>
<path d="M31.8828 25.6152L31.8047 25.4004C32.3255 24.222 33.2109 22.6628 34.4609 20.7227H35.7012C34.6465 23.1901 33.9857 24.821 33.7188 25.6152H31.8828ZM28.2598 25.6152L28.2012 25.4004C28.8392 24.0267 29.7181 22.4674 30.8379 20.7227H32.0781C31.1211 22.9688 30.4603 24.5996 30.0957 25.6152H28.2598ZM41.5508 20.7227C44.3633 20.7227 45.7695 21.8164 45.7695 24.0039C45.7695 24.9219 45.4863 25.6966 44.9199 26.3281C44.3535 26.9596 43.556 27.3698 42.5273 27.5586V27.6562C43.276 27.8646 43.849 28.2259 44.2461 28.7402C44.6497 29.248 44.8516 29.86 44.8516 30.5762C44.8516 31.9564 44.3568 33.0404 43.3672 33.8281C42.3776 34.6094 41.0527 35 39.3926 35H34.8711L37.8887 20.7227H41.5508ZM38.2695 26.8359H40.6914C41.707 26.8359 42.5176 26.5983 43.123 26.123C43.7285 25.6478 44.0312 25 44.0312 24.1797C44.0312 23.5026 43.8132 22.998 43.377 22.666C42.9473 22.3275 42.2669 22.1582 41.3359 22.1582H39.2754L38.2695 26.8359ZM36.834 33.584H39.4316C40.61 33.584 41.515 33.3236 42.1465 32.8027C42.778 32.2754 43.0938 31.5332 43.0938 30.5762C43.0938 29.821 42.8496 29.2448 42.3613 28.8477C41.8796 28.444 41.1829 28.2422 40.2715 28.2422H37.9668L36.834 33.584ZM48.2207 35H46.5801L48.8652 24.2969H50.5059L48.2207 35ZM49.3242 21.5625C49.3242 21.1979 49.4284 20.9017 49.6367 20.6738C49.8451 20.4395 50.1152 20.3223 50.4473 20.3223C51.0202 20.3223 51.3066 20.6152 51.3066 21.2012C51.3066 21.5592 51.196 21.862 50.9746 22.1094C50.7598 22.3568 50.5091 22.4805 50.2227 22.4805C49.9622 22.4805 49.7474 22.4023 49.5781 22.2461C49.4089 22.0833 49.3242 21.8555 49.3242 21.5625ZM61.8242 24.2969L61.5801 25.3418L59.5195 25.5762C59.7865 25.9798 59.9199 26.4941 59.9199 27.1191C59.9199 28.3626 59.5391 29.3555 58.7773 30.0977C58.0221 30.8333 57.0098 31.2012 55.7402 31.2012C55.3822 31.2012 55.1087 31.1751 54.9199 31.123C54.015 31.4681 53.5625 31.8945 53.5625 32.4023C53.5625 32.6693 53.6699 32.8483 53.8848 32.9395C54.0996 33.0241 54.4121 33.0924 54.8223 33.1445L55.9648 33.2812C57.1432 33.4245 57.9961 33.7109 58.5234 34.1406C59.0573 34.5703 59.3242 35.2018 59.3242 36.0352C59.3242 37.2331 58.849 38.1608 57.8984 38.8184C56.9479 39.4759 55.61 39.8047 53.8848 39.8047C52.6217 39.8047 51.6322 39.5638 50.916 39.082C50.1999 38.6068 49.8418 37.9329 49.8418 37.0605C49.8418 36.377 50.0762 35.7845 50.5449 35.2832C51.0137 34.7819 51.7721 34.3555 52.8203 34.0039C52.3125 33.737 52.0586 33.3431 52.0586 32.8223C52.0586 32.373 52.2246 31.9889 52.5566 31.6699C52.8887 31.3444 53.3509 31.0417 53.9434 30.7617C53.5332 30.5534 53.1979 30.2474 52.9375 29.8438C52.6771 29.4336 52.5469 28.9583 52.5469 28.418C52.5469 27.1549 52.9342 26.1198 53.709 25.3125C54.4902 24.5052 55.4863 24.1016 56.6973 24.1016C57.2051 24.1016 57.7064 24.1667 58.2012 24.2969H61.8242ZM51.4238 36.9043C51.4238 37.4056 51.6354 37.8027 52.0586 38.0957C52.4818 38.3887 53.11 38.5352 53.9434 38.5352C55.1283 38.5352 56.0527 38.3268 56.7168 37.9102C57.3874 37.5 57.7227 36.9173 57.7227 36.1621C57.7227 35.7585 57.5469 35.4395 57.1953 35.2051C56.8438 34.9707 56.2448 34.8079 55.3984 34.7168L53.8457 34.5605C53.0645 34.7233 52.4655 35.0098 52.0488 35.4199C51.6322 35.8301 51.4238 36.3249 51.4238 36.9043ZM54.1387 28.3594C54.1387 28.9128 54.2852 29.3359 54.5781 29.6289C54.8711 29.9154 55.278 30.0586 55.7988 30.0586C56.3132 30.0586 56.7624 29.9219 57.1465 29.6484C57.5306 29.375 57.8236 29.0007 58.0254 28.5254C58.2337 28.0436 58.3379 27.5228 58.3379 26.9629C58.3379 26.429 58.1947 26.0221 57.9082 25.7422C57.6217 25.4622 57.2116 25.3223 56.6777 25.3223C56.1699 25.3223 55.724 25.4557 55.3398 25.7227C54.9622 25.9831 54.666 26.3509 54.4512 26.8262C54.2428 27.2949 54.1387 27.806 54.1387 28.3594ZM71.8438 24.2969L71.5996 25.3418L69.5391 25.5762C69.806 25.9798 69.9395 26.4941 69.9395 27.1191C69.9395 28.3626 69.5586 29.3555 68.7969 30.0977C68.0417 30.8333 67.0293 31.2012 65.7598 31.2012C65.4017 31.2012 65.1283 31.1751 64.9395 31.123C64.0345 31.4681 63.582 31.8945 63.582 32.4023C63.582 32.6693 63.6895 32.8483 63.9043 32.9395C64.1191 33.0241 64.4316 33.0924 64.8418 33.1445L65.9844 33.2812C67.1628 33.4245 68.0156 33.7109 68.543 34.1406C69.0768 34.5703 69.3438 35.2018 69.3438 36.0352C69.3438 37.2331 68.8685 38.1608 67.918 38.8184C66.9674 39.4759 65.6296 39.8047 63.9043 39.8047C62.6413 39.8047 61.6517 39.5638 60.9355 39.082C60.2194 38.6068 59.8613 37.9329 59.8613 37.0605C59.8613 36.377 60.0957 35.7845 60.5645 35.2832C61.0332 34.7819 61.7917 34.3555 62.8398 34.0039C62.332 33.737 62.0781 33.3431 62.0781 32.8223C62.0781 32.373 62.2441 31.9889 62.5762 31.6699C62.9082 31.3444 63.3704 31.0417 63.9629 30.7617C63.5527 30.5534 63.2174 30.2474 62.957 29.8438C62.6966 29.4336 62.5664 28.9583 62.5664 28.418C62.5664 27.1549 62.9538 26.1198 63.7285 25.3125C64.5098 24.5052 65.5059 24.1016 66.7168 24.1016C67.2246 24.1016 67.7259 24.1667 68.2207 24.2969H71.8438ZM61.4434 36.9043C61.4434 37.4056 61.6549 37.8027 62.0781 38.0957C62.5013 38.3887 63.1296 38.5352 63.9629 38.5352C65.1478 38.5352 66.0723 38.3268 66.7363 37.9102C67.4069 37.5 67.7422 36.9173 67.7422 36.1621C67.7422 35.7585 67.5664 35.4395 67.2148 35.2051C66.8633 34.9707 66.2643 34.8079 65.418 34.7168L63.8652 34.5605C63.084 34.7233 62.485 35.0098 62.0684 35.4199C61.6517 35.8301 61.4434 36.3249 61.4434 36.9043ZM64.1582 28.3594C64.1582 28.9128 64.3047 29.3359 64.5977 29.6289C64.8906 29.9154 65.2975 30.0586 65.8184 30.0586C66.3327 30.0586 66.7819 29.9219 67.166 29.6484C67.5501 29.375 67.8431 29.0007 68.0449 28.5254C68.2533 28.0436 68.3574 27.5228 68.3574 26.9629C68.3574 26.429 68.2142 26.0221 67.9277 25.7422C67.6413 25.4622 67.2311 25.3223 66.6973 25.3223C66.1895 25.3223 65.7435 25.4557 65.3594 25.7227C64.9818 25.9831 64.6855 26.3509 64.4707 26.8262C64.2624 27.2949 64.1582 27.806 64.1582 28.3594ZM75.9258 35.1953C74.7279 35.1953 73.7871 34.8405 73.1035 34.1309C72.4199 33.4212 72.0781 32.4382 72.0781 31.1816C72.0781 29.9577 72.319 28.7858 72.8008 27.666C73.2891 26.5397 73.9336 25.6641 74.7344 25.0391C75.5352 24.4141 76.4173 24.1016 77.3809 24.1016C78.377 24.1016 79.1257 24.3197 79.627 24.7559C80.1283 25.1855 80.3789 25.7878 80.3789 26.5625C80.3789 27.7344 79.8385 28.6556 78.7578 29.3262C77.6771 29.9902 76.1309 30.3223 74.1191 30.3223H73.7969L73.7578 31.1035C73.7578 31.9564 73.9564 32.6237 74.3535 33.1055C74.7572 33.5807 75.3789 33.8184 76.2188 33.8184C76.6289 33.8184 77.0488 33.7598 77.4785 33.6426C77.9147 33.5254 78.4551 33.3105 79.0996 32.998V34.4238C78.4876 34.7103 77.9473 34.9089 77.4785 35.0195C77.0098 35.1367 76.4922 35.1953 75.9258 35.1953ZM77.2832 25.498C76.6126 25.498 75.9811 25.804 75.3887 26.416C74.8027 27.028 74.3535 27.8776 74.041 28.9648H74.1582C75.6426 28.9648 76.7786 28.7728 77.5664 28.3887C78.3607 27.998 78.7578 27.4349 78.7578 26.6992C78.7578 26.3542 78.6374 26.0677 78.3965 25.8398C78.1621 25.612 77.791 25.498 77.2832 25.498ZM88.1621 31.9629C88.1621 32.9785 87.8008 33.7728 87.0781 34.3457C86.362 34.9121 85.3496 35.1953 84.041 35.1953C82.9408 35.1953 81.9479 34.9707 81.0625 34.5215V32.9785C81.5182 33.252 82.0098 33.4635 82.5371 33.6133C83.0645 33.763 83.5527 33.8379 84.002 33.8379C84.8223 33.8379 85.4408 33.6751 85.8574 33.3496C86.2741 33.0241 86.4824 32.6074 86.4824 32.0996C86.4824 31.7285 86.3685 31.416 86.1406 31.1621C85.9128 30.9082 85.4212 30.5599 84.666 30.1172C83.8197 29.6419 83.2207 29.1764 82.8691 28.7207C82.5176 28.265 82.3418 27.7246 82.3418 27.0996C82.3418 26.2012 82.6706 25.4785 83.3281 24.9316C83.9857 24.3783 84.8516 24.1016 85.9258 24.1016C87.0391 24.1016 88.1133 24.3424 89.1484 24.8242L88.6211 26.1621L88.0742 25.918C87.4167 25.638 86.7005 25.498 85.9258 25.498C85.3203 25.498 84.8451 25.6413 84.5 25.9277C84.1549 26.2077 83.9824 26.5723 83.9824 27.0215C83.9824 27.3861 84.0964 27.6986 84.3242 27.959C84.5586 28.2194 85.0371 28.5547 85.7598 28.9648C86.4564 29.3555 86.9544 29.6908 87.2539 29.9707C87.5599 30.2507 87.7878 30.5534 87.9375 30.8789C88.0872 31.1979 88.1621 31.5592 88.1621 31.9629ZM93.416 33.8574C93.7741 33.8574 94.2428 33.7728 94.8223 33.6035V34.8633C94.6009 34.9544 94.3275 35.0326 94.002 35.0977C93.6764 35.1628 93.416 35.1953 93.2207 35.1953C92.4069 35.1953 91.7819 35.0033 91.3457 34.6191C90.916 34.2285 90.7012 33.6491 90.7012 32.8809C90.7012 32.4512 90.7598 31.9629 90.877 31.416L92.1172 25.5371H90.4375L90.5742 24.8242L92.3809 24.0625L93.6016 21.8359H94.5586L94.0215 24.2969H96.6973L96.4434 25.5371H93.7773L92.5176 31.4355C92.4004 32.002 92.3418 32.4316 92.3418 32.7246C92.3418 33.0892 92.4362 33.3691 92.625 33.5645C92.8138 33.7598 93.0775 33.8574 93.416 33.8574ZM105.096 33.8574C105.454 33.8574 105.923 33.7728 106.502 33.6035V34.8633C106.281 34.9544 106.007 35.0326 105.682 35.0977C105.356 35.1628 105.096 35.1953 104.9 35.1953C104.087 35.1953 103.462 35.0033 103.025 34.6191C102.596 34.2285 102.381 33.6491 102.381 32.8809C102.381 32.4512 102.439 31.9629 102.557 31.416L103.797 25.5371H102.117L102.254 24.8242L104.061 24.0625L105.281 21.8359H106.238L105.701 24.2969H108.377L108.123 25.5371H105.457L104.197 31.4355C104.08 32.002 104.021 32.4316 104.021 32.7246C104.021 33.0892 104.116 33.3691 104.305 33.5645C104.493 33.7598 104.757 33.8574 105.096 33.8574ZM114.842 35L116.287 28.2422C116.404 27.6302 116.463 27.1908 116.463 26.9238C116.463 25.9603 115.984 25.4785 115.027 25.4785C114.448 25.4785 113.882 25.6706 113.328 26.0547C112.781 26.4388 112.296 26.9987 111.873 27.7344C111.456 28.4635 111.141 29.3457 110.926 30.3809L109.939 35H108.299L111.521 19.8047H113.162C113.045 20.3385 112.931 20.8561 112.82 21.3574C112.716 21.8587 112.605 22.3698 112.488 22.8906C112.378 23.4049 112.254 23.9453 112.117 24.5117C111.987 25.0781 111.834 25.6934 111.658 26.3574H111.766C112.378 25.5566 112.98 24.9837 113.572 24.6387C114.171 24.2936 114.796 24.1211 115.447 24.1211C116.3 24.1211 116.958 24.3555 117.42 24.8242C117.889 25.293 118.123 25.957 118.123 26.8164C118.123 27.2201 118.048 27.7604 117.898 28.4375C117.645 29.694 117.173 31.8815 116.482 35H114.842ZM121.482 35H119.842L122.127 24.2969H123.768L121.482 35ZM122.586 21.5625C122.586 21.1979 122.69 20.9017 122.898 20.6738C123.107 20.4395 123.377 20.3223 123.709 20.3223C124.282 20.3223 124.568 20.6152 124.568 21.2012C124.568 21.5592 124.458 21.862 124.236 22.1094C124.021 22.3568 123.771 22.4805 123.484 22.4805C123.224 22.4805 123.009 22.4023 122.84 22.2461C122.671 22.0833 122.586 21.8555 122.586 21.5625ZM131.463 35L132.908 28.2422C133.038 27.5651 133.104 27.0964 133.104 26.8359C133.104 26.4258 132.986 26.097 132.752 25.8496C132.524 25.6022 132.156 25.4785 131.648 25.4785C131.069 25.4785 130.503 25.6738 129.949 26.0645C129.402 26.4551 128.917 27.0117 128.494 27.7344C128.077 28.457 127.762 29.3327 127.547 30.3613L126.561 35H124.92L127.205 24.2969H128.562L128.348 26.2793H128.445C129.07 25.485 129.673 24.9251 130.252 24.5996C130.838 24.2676 131.443 24.1016 132.068 24.1016C132.895 24.1016 133.546 24.3294 134.021 24.7852C134.503 25.2344 134.744 25.8659 134.744 26.6797C134.744 27.194 134.669 27.7799 134.52 28.4375L133.123 35H131.463ZM146.629 24.2969L146.385 25.3418L144.324 25.5762C144.591 25.9798 144.725 26.4941 144.725 27.1191C144.725 28.3626 144.344 29.3555 143.582 30.0977C142.827 30.8333 141.814 31.2012 140.545 31.2012C140.187 31.2012 139.913 31.1751 139.725 31.123C138.82 31.4681 138.367 31.8945 138.367 32.4023C138.367 32.6693 138.475 32.8483 138.689 32.9395C138.904 33.0241 139.217 33.0924 139.627 33.1445L140.77 33.2812C141.948 33.4245 142.801 33.7109 143.328 34.1406C143.862 34.5703 144.129 35.2018 144.129 36.0352C144.129 37.2331 143.654 38.1608 142.703 38.8184C141.753 39.4759 140.415 39.8047 138.689 39.8047C137.426 39.8047 136.437 39.5638 135.721 39.082C135.005 38.6068 134.646 37.9329 134.646 37.0605C134.646 36.377 134.881 35.7845 135.35 35.2832C135.818 34.7819 136.577 34.3555 137.625 34.0039C137.117 33.737 136.863 33.3431 136.863 32.8223C136.863 32.373 137.029 31.9889 137.361 31.6699C137.693 31.3444 138.156 31.0417 138.748 30.7617C138.338 30.5534 138.003 30.2474 137.742 29.8438C137.482 29.4336 137.352 28.9583 137.352 28.418C137.352 27.1549 137.739 26.1198 138.514 25.3125C139.295 24.5052 140.291 24.1016 141.502 24.1016C142.01 24.1016 142.511 24.1667 143.006 24.2969H146.629ZM136.229 36.9043C136.229 37.4056 136.44 37.8027 136.863 38.0957C137.286 38.3887 137.915 38.5352 138.748 38.5352C139.933 38.5352 140.857 38.3268 141.521 37.9102C142.192 37.5 142.527 36.9173 142.527 36.1621C142.527 35.7585 142.352 35.4395 142 35.2051C141.648 34.9707 141.049 34.8079 140.203 34.7168L138.65 34.5605C137.869 34.7233 137.27 35.0098 136.854 35.4199C136.437 35.8301 136.229 36.3249 136.229 36.9043ZM138.943 28.3594C138.943 28.9128 139.09 29.3359 139.383 29.6289C139.676 29.9154 140.083 30.0586 140.604 30.0586C141.118 30.0586 141.567 29.9219 141.951 29.6484C142.335 29.375 142.628 29.0007 142.83 28.5254C143.038 28.0436 143.143 27.5228 143.143 26.9629C143.143 26.429 142.999 26.0221 142.713 25.7422C142.426 25.4622 142.016 25.3223 141.482 25.3223C140.975 25.3223 140.529 25.4557 140.145 25.7227C139.767 25.9831 139.471 26.3509 139.256 26.8262C139.048 27.2949 138.943 27.806 138.943 28.3594ZM153.318 35H151.678L153.963 24.2969H155.604L153.318 35ZM154.422 21.5625C154.422 21.1979 154.526 20.9017 154.734 20.6738C154.943 20.4395 155.213 20.3223 155.545 20.3223C156.118 20.3223 156.404 20.6152 156.404 21.2012C156.404 21.5592 156.294 21.862 156.072 22.1094C155.857 22.3568 155.607 22.4805 155.32 22.4805C155.06 22.4805 154.845 22.4023 154.676 22.2461C154.507 22.0833 154.422 21.8555 154.422 21.5625ZM163.357 31.9629C163.357 32.9785 162.996 33.7728 162.273 34.3457C161.557 34.9121 160.545 35.1953 159.236 35.1953C158.136 35.1953 157.143 34.9707 156.258 34.5215V32.9785C156.714 33.252 157.205 33.4635 157.732 33.6133C158.26 33.763 158.748 33.8379 159.197 33.8379C160.018 33.8379 160.636 33.6751 161.053 33.3496C161.469 33.0241 161.678 32.6074 161.678 32.0996C161.678 31.7285 161.564 31.416 161.336 31.1621C161.108 30.9082 160.617 30.5599 159.861 30.1172C159.015 29.6419 158.416 29.1764 158.064 28.7207C157.713 28.265 157.537 27.7246 157.537 27.0996C157.537 26.2012 157.866 25.4785 158.523 24.9316C159.181 24.3783 160.047 24.1016 161.121 24.1016C162.234 24.1016 163.309 24.3424 164.344 24.8242L163.816 26.1621L163.27 25.918C162.612 25.638 161.896 25.498 161.121 25.498C160.516 25.498 160.04 25.6413 159.695 25.9277C159.35 26.2077 159.178 26.5723 159.178 27.0215C159.178 27.3861 159.292 27.6986 159.52 27.959C159.754 28.2194 160.232 28.5547 160.955 28.9648C161.652 29.3555 162.15 29.6908 162.449 29.9707C162.755 30.2507 162.983 30.5534 163.133 30.8789C163.283 31.1979 163.357 31.5592 163.357 31.9629ZM168.934 39.8047C168.484 39.8047 168.077 39.7363 167.713 39.5996V38.2227C168.13 38.3659 168.494 38.4375 168.807 38.4375C169.301 38.4375 169.682 38.2357 169.949 37.832C170.216 37.4284 170.431 36.8522 170.594 36.1035L172.811 25.5371H170.926L171.053 24.8828L173.064 24.2383L173.289 23.2617C173.589 21.9596 174.002 21.0417 174.529 20.5078C175.063 19.9674 175.851 19.6973 176.893 19.6973C177.153 19.6973 177.472 19.7363 177.85 19.8145C178.227 19.8861 178.52 19.9674 178.729 20.0586L178.309 21.3184C177.814 21.1296 177.368 21.0352 176.971 21.0352C176.404 21.0352 175.968 21.1947 175.662 21.5137C175.363 21.8262 175.118 22.4023 174.93 23.2422L174.686 24.2969H177.01L176.766 25.5371H174.451L172.186 36.2598C171.932 37.4902 171.541 38.3887 171.014 38.9551C170.486 39.5215 169.793 39.8047 168.934 39.8047ZM181.023 35.1953C179.826 35.1953 178.885 34.8405 178.201 34.1309C177.518 33.4212 177.176 32.4382 177.176 31.1816C177.176 29.9577 177.417 28.7858 177.898 27.666C178.387 26.5397 179.031 25.6641 179.832 25.0391C180.633 24.4141 181.515 24.1016 182.479 24.1016C183.475 24.1016 184.223 24.3197 184.725 24.7559C185.226 25.1855 185.477 25.7878 185.477 26.5625C185.477 27.7344 184.936 28.6556 183.855 29.3262C182.775 29.9902 181.229 30.3223 179.217 30.3223H178.895L178.855 31.1035C178.855 31.9564 179.054 32.6237 179.451 33.1055C179.855 33.5807 180.477 33.8184 181.316 33.8184C181.727 33.8184 182.146 33.7598 182.576 33.6426C183.012 33.5254 183.553 33.3105 184.197 32.998V34.4238C183.585 34.7103 183.045 34.9089 182.576 35.0195C182.107 35.1367 181.59 35.1953 181.023 35.1953ZM182.381 25.498C181.71 25.498 181.079 25.804 180.486 26.416C179.9 27.028 179.451 27.8776 179.139 28.9648H179.256C180.74 28.9648 181.876 28.7728 182.664 28.3887C183.458 27.998 183.855 27.4349 183.855 26.6992C183.855 26.3542 183.735 26.0677 183.494 25.8398C183.26 25.612 182.889 25.498 182.381 25.498ZM192.322 24.1016C192.921 24.1016 193.455 24.2643 193.924 24.5898C194.393 24.9089 194.757 25.3711 195.018 25.9766H195.125L195.779 24.2969H197.02L194.744 35H193.445L193.699 32.959H193.621C192.456 34.4499 191.229 35.1953 189.939 35.1953C189.035 35.1953 188.325 34.873 187.811 34.2285C187.296 33.584 187.039 32.7018 187.039 31.582C187.039 30.2279 187.27 28.9714 187.732 27.8125C188.195 26.6536 188.833 25.7454 189.646 25.0879C190.46 24.4303 191.352 24.1016 192.322 24.1016ZM190.467 33.8379C191.098 33.8379 191.727 33.5384 192.352 32.9395C192.977 32.334 193.484 31.5495 193.875 30.5859C194.266 29.6159 194.461 28.6458 194.461 27.6758C194.461 27.0052 194.279 26.4714 193.914 26.0742C193.549 25.6771 193.071 25.4785 192.479 25.4785C191.801 25.4785 191.17 25.7585 190.584 26.3184C190.005 26.8783 189.549 27.6367 189.217 28.5938C188.885 29.5508 188.719 30.5599 188.719 31.6211C188.719 32.3633 188.872 32.9199 189.178 33.291C189.484 33.6556 189.913 33.8379 190.467 33.8379ZM204.734 24.1016C205.184 24.1016 205.574 24.1471 205.906 24.2383L205.555 25.7031C205.21 25.6185 204.868 25.5762 204.529 25.5762C203.937 25.5762 203.38 25.7715 202.859 26.1621C202.345 26.5527 201.893 27.0964 201.502 27.793C201.118 28.4831 200.835 29.2513 200.652 30.0977L199.607 35H197.967L200.252 24.2969H201.609L201.395 26.2793H201.492C201.961 25.6608 202.348 25.2181 202.654 24.9512C202.96 24.6777 203.279 24.4694 203.611 24.3262C203.95 24.1764 204.324 24.1016 204.734 24.1016ZM205.74 34.2773C205.74 33.776 205.87 33.3789 206.131 33.0859C206.398 32.7865 206.762 32.6367 207.225 32.6367C207.505 32.6367 207.729 32.7214 207.898 32.8906C208.074 33.0599 208.162 33.3171 208.162 33.6621C208.162 34.1243 208.032 34.5117 207.771 34.8242C207.511 35.1302 207.16 35.2832 206.717 35.2832C206.417 35.2832 206.18 35.1986 206.004 35.0293C205.828 34.86 205.74 34.6094 205.74 34.2773ZM210.799 34.2773C210.799 33.776 210.929 33.3789 211.189 33.0859C211.456 32.7865 211.821 32.6367 212.283 32.6367C212.563 32.6367 212.788 32.7214 212.957 32.8906C213.133 33.0599 213.221 33.3171 213.221 33.6621C213.221 34.1243 213.09 34.5117 212.83 34.8242C212.57 35.1302 212.218 35.2832 211.775 35.2832C211.476 35.2832 211.238 35.1986 211.062 35.0293C210.887 34.86 210.799 34.6094 210.799 34.2773ZM215.857 34.2773C215.857 33.776 215.988 33.3789 216.248 33.0859C216.515 32.7865 216.88 32.6367 217.342 32.6367C217.622 32.6367 217.846 32.7214 218.016 32.8906C218.191 33.0599 218.279 33.3171 218.279 33.6621C218.279 34.1243 218.149 34.5117 217.889 34.8242C217.628 35.1302 217.277 35.2832 216.834 35.2832C216.535 35.2832 216.297 35.1986 216.121 35.0293C215.945 34.86 215.857 34.6094 215.857 34.2773ZM223.016 35H221.336L224.354 20.7227H231.531L231.238 22.2168H225.691L224.617 27.4219H229.773L229.461 28.916H224.295L223.016 35ZM236.189 24.1016C236.788 24.1016 237.322 24.2643 237.791 24.5898C238.26 24.9089 238.624 25.3711 238.885 25.9766H238.992L239.646 24.2969H240.887L238.611 35H237.312L237.566 32.959H237.488C236.323 34.4499 235.096 35.1953 233.807 35.1953C232.902 35.1953 232.192 34.873 231.678 34.2285C231.163 33.584 230.906 32.7018 230.906 31.582C230.906 30.2279 231.137 28.9714 231.6 27.8125C232.062 26.6536 232.7 25.7454 233.514 25.0879C234.327 24.4303 235.219 24.1016 236.189 24.1016ZM234.334 33.8379C234.965 33.8379 235.594 33.5384 236.219 32.9395C236.844 32.334 237.352 31.5495 237.742 30.5859C238.133 29.6159 238.328 28.6458 238.328 27.6758C238.328 27.0052 238.146 26.4714 237.781 26.0742C237.417 25.6771 236.938 25.4785 236.346 25.4785C235.669 25.4785 235.037 25.7585 234.451 26.3184C233.872 26.8783 233.416 27.6367 233.084 28.5938C232.752 29.5508 232.586 30.5599 232.586 31.6211C232.586 32.3633 232.739 32.9199 233.045 33.291C233.351 33.6556 233.781 33.8379 234.334 33.8379ZM243.455 35H241.814L245.057 19.8047H246.697L243.455 35ZM248.533 35H246.893L250.135 19.8047H251.775L248.533 35ZM256.219 35.1953C255.021 35.1953 254.08 34.8405 253.396 34.1309C252.713 33.4212 252.371 32.4382 252.371 31.1816C252.371 29.9577 252.612 28.7858 253.094 27.666C253.582 26.5397 254.227 25.6641 255.027 25.0391C255.828 24.4141 256.71 24.1016 257.674 24.1016C258.67 24.1016 259.419 24.3197 259.92 24.7559C260.421 25.1855 260.672 25.7878 260.672 26.5625C260.672 27.7344 260.132 28.6556 259.051 29.3262C257.97 29.9902 256.424 30.3223 254.412 30.3223H254.09L254.051 31.1035C254.051 31.9564 254.249 32.6237 254.646 33.1055C255.05 33.5807 255.672 33.8184 256.512 33.8184C256.922 33.8184 257.342 33.7598 257.771 33.6426C258.208 33.5254 258.748 33.3105 259.393 32.998V34.4238C258.781 34.7103 258.24 34.9089 257.771 35.0195C257.303 35.1367 256.785 35.1953 256.219 35.1953ZM257.576 25.498C256.906 25.498 256.274 25.804 255.682 26.416C255.096 27.028 254.646 27.8776 254.334 28.9648H254.451C255.936 28.9648 257.072 28.7728 257.859 28.3887C258.654 27.998 259.051 27.4349 259.051 26.6992C259.051 26.3542 258.93 26.0677 258.689 25.8398C258.455 25.612 258.084 25.498 257.576 25.498ZM268.396 35L269.842 28.2422C269.972 27.5651 270.037 27.0964 270.037 26.8359C270.037 26.4258 269.92 26.097 269.686 25.8496C269.458 25.6022 269.09 25.4785 268.582 25.4785C268.003 25.4785 267.436 25.6738 266.883 26.0645C266.336 26.4551 265.851 27.0117 265.428 27.7344C265.011 28.457 264.695 29.3327 264.48 30.3613L263.494 35H261.854L264.139 24.2969H265.496L265.281 26.2793H265.379C266.004 25.485 266.606 24.9251 267.186 24.5996C267.771 24.2676 268.377 24.1016 269.002 24.1016C269.829 24.1016 270.48 24.3294 270.955 24.7852C271.437 25.2344 271.678 25.8659 271.678 26.6797C271.678 27.194 271.603 27.7799 271.453 28.4375L270.057 35H268.396ZM285.193 31.9629C285.193 32.9785 284.832 33.7728 284.109 34.3457C283.393 34.9121 282.381 35.1953 281.072 35.1953C279.972 35.1953 278.979 34.9707 278.094 34.5215V32.9785C278.549 33.252 279.041 33.4635 279.568 33.6133C280.096 33.763 280.584 33.8379 281.033 33.8379C281.854 33.8379 282.472 33.6751 282.889 33.3496C283.305 33.0241 283.514 32.6074 283.514 32.0996C283.514 31.7285 283.4 31.416 283.172 31.1621C282.944 30.9082 282.452 30.5599 281.697 30.1172C280.851 29.6419 280.252 29.1764 279.9 28.7207C279.549 28.265 279.373 27.7246 279.373 27.0996C279.373 26.2012 279.702 25.4785 280.359 24.9316C281.017 24.3783 281.883 24.1016 282.957 24.1016C284.07 24.1016 285.145 24.3424 286.18 24.8242L285.652 26.1621L285.105 25.918C284.448 25.638 283.732 25.498 282.957 25.498C282.352 25.498 281.876 25.6413 281.531 25.9277C281.186 26.2077 281.014 26.5723 281.014 27.0215C281.014 27.3861 281.128 27.6986 281.355 27.959C281.59 28.2194 282.068 28.5547 282.791 28.9648C283.488 29.3555 283.986 29.6908 284.285 29.9707C284.591 30.2507 284.819 30.5534 284.969 30.8789C285.118 31.1979 285.193 31.5592 285.193 31.9629ZM291.395 35.1953C290.197 35.1953 289.256 34.8405 288.572 34.1309C287.889 33.4212 287.547 32.4382 287.547 31.1816C287.547 29.9577 287.788 28.7858 288.27 27.666C288.758 26.5397 289.402 25.6641 290.203 25.0391C291.004 24.4141 291.886 24.1016 292.85 24.1016C293.846 24.1016 294.594 24.3197 295.096 24.7559C295.597 25.1855 295.848 25.7878 295.848 26.5625C295.848 27.7344 295.307 28.6556 294.227 29.3262C293.146 29.9902 291.6 30.3223 289.588 30.3223H289.266L289.227 31.1035C289.227 31.9564 289.425 32.6237 289.822 33.1055C290.226 33.5807 290.848 33.8184 291.688 33.8184C292.098 33.8184 292.518 33.7598 292.947 33.6426C293.383 33.5254 293.924 33.3105 294.568 32.998V34.4238C293.956 34.7103 293.416 34.9089 292.947 35.0195C292.479 35.1367 291.961 35.1953 291.395 35.1953ZM292.752 25.498C292.081 25.498 291.45 25.804 290.857 26.416C290.271 27.028 289.822 27.8776 289.51 28.9648H289.627C291.111 28.9648 292.247 28.7728 293.035 28.3887C293.829 27.998 294.227 27.4349 294.227 26.6992C294.227 26.3542 294.106 26.0677 293.865 25.8398C293.631 25.612 293.26 25.498 292.752 25.498ZM298.631 35L297.41 24.2969H299.051L299.676 30.2832C299.832 31.9629 299.91 33.1413 299.91 33.8184H299.969C300.796 32.028 301.378 30.8203 301.717 30.1953L304.891 24.2969H306.629L300.857 35H298.631ZM310.496 35.1953C309.298 35.1953 308.357 34.8405 307.674 34.1309C306.99 33.4212 306.648 32.4382 306.648 31.1816C306.648 29.9577 306.889 28.7858 307.371 27.666C307.859 26.5397 308.504 25.6641 309.305 25.0391C310.105 24.4141 310.988 24.1016 311.951 24.1016C312.947 24.1016 313.696 24.3197 314.197 24.7559C314.699 25.1855 314.949 25.7878 314.949 26.5625C314.949 27.7344 314.409 28.6556 313.328 29.3262C312.247 29.9902 310.701 30.3223 308.689 30.3223H308.367L308.328 31.1035C308.328 31.9564 308.527 32.6237 308.924 33.1055C309.327 33.5807 309.949 33.8184 310.789 33.8184C311.199 33.8184 311.619 33.7598 312.049 33.6426C312.485 33.5254 313.025 33.3105 313.67 32.998V34.4238C313.058 34.7103 312.518 34.9089 312.049 35.0195C311.58 35.1367 311.062 35.1953 310.496 35.1953ZM311.854 25.498C311.183 25.498 310.551 25.804 309.959 26.416C309.373 27.028 308.924 27.8776 308.611 28.9648H308.729C310.213 28.9648 311.349 28.7728 312.137 28.3887C312.931 27.998 313.328 27.4349 313.328 26.6992C313.328 26.3542 313.208 26.0677 312.967 25.8398C312.732 25.612 312.361 25.498 311.854 25.498ZM322.898 24.1016C323.348 24.1016 323.738 24.1471 324.07 24.2383L323.719 25.7031C323.374 25.6185 323.032 25.5762 322.693 25.5762C322.101 25.5762 321.544 25.7715 321.023 26.1621C320.509 26.5527 320.057 27.0964 319.666 27.793C319.282 28.4831 318.999 29.2513 318.816 30.0977L317.771 35H316.131L318.416 24.2969H319.773L319.559 26.2793H319.656C320.125 25.6608 320.512 25.2181 320.818 24.9512C321.124 24.6777 321.443 24.4694 321.775 24.3262C322.114 24.1764 322.488 24.1016 322.898 24.1016ZM329.725 24.1016C330.324 24.1016 330.857 24.2643 331.326 24.5898C331.795 24.9089 332.16 25.3711 332.42 25.9766H332.527L333.182 24.2969H334.422L332.146 35H330.848L331.102 32.959H331.023C329.858 34.4499 328.631 35.1953 327.342 35.1953C326.437 35.1953 325.727 34.873 325.213 34.2285C324.699 33.584 324.441 32.7018 324.441 31.582C324.441 30.2279 324.673 28.9714 325.135 27.8125C325.597 26.6536 326.235 25.7454 327.049 25.0879C327.863 24.4303 328.755 24.1016 329.725 24.1016ZM327.869 33.8379C328.501 33.8379 329.129 33.5384 329.754 32.9395C330.379 32.334 330.887 31.5495 331.277 30.5859C331.668 29.6159 331.863 28.6458 331.863 27.6758C331.863 27.0052 331.681 26.4714 331.316 26.0742C330.952 25.6771 330.473 25.4785 329.881 25.4785C329.204 25.4785 328.572 25.7585 327.986 26.3184C327.407 26.8783 326.951 27.6367 326.619 28.5938C326.287 29.5508 326.121 30.5599 326.121 31.6211C326.121 32.3633 326.274 32.9199 326.58 33.291C326.886 33.6556 327.316 33.8379 327.869 33.8379ZM336.99 35H335.35L338.592 19.8047H340.232L336.99 35ZM348.924 33.8574C349.282 33.8574 349.751 33.7728 350.33 33.6035V34.8633C350.109 34.9544 349.835 35.0326 349.51 35.0977C349.184 35.1628 348.924 35.1953 348.729 35.1953C347.915 35.1953 347.29 35.0033 346.854 34.6191C346.424 34.2285 346.209 33.6491 346.209 32.8809C346.209 32.4512 346.268 31.9629 346.385 31.416L347.625 25.5371H345.945L346.082 24.8242L347.889 24.0625L349.109 21.8359H350.066L349.529 24.2969H352.205L351.951 25.5371H349.285L348.025 31.4355C347.908 32.002 347.85 32.4316 347.85 32.7246C347.85 33.0892 347.944 33.3691 348.133 33.5645C348.322 33.7598 348.585 33.8574 348.924 33.8574ZM353.768 35H352.127L354.412 24.2969H356.053L353.768 35ZM354.871 21.5625C354.871 21.1979 354.975 20.9017 355.184 20.6738C355.392 20.4395 355.662 20.3223 355.994 20.3223C356.567 20.3223 356.854 20.6152 356.854 21.2012C356.854 21.5592 356.743 21.862 356.521 22.1094C356.307 22.3568 356.056 22.4805 355.77 22.4805C355.509 22.4805 355.294 22.4023 355.125 22.2461C354.956 22.0833 354.871 21.8555 354.871 21.5625ZM363.426 35L364.871 28.2422C364.988 27.6302 365.047 27.1908 365.047 26.9238C365.047 26.4681 364.946 26.1133 364.744 25.8594C364.542 25.6055 364.197 25.4785 363.709 25.4785C363.162 25.4785 362.628 25.6738 362.107 26.0645C361.593 26.4551 361.137 27.015 360.74 27.7441C360.35 28.4668 360.047 29.3392 359.832 30.3613L358.846 35H357.205L359.49 24.2969H360.848L360.633 26.2793H360.73C361.297 25.5046 361.86 24.9479 362.42 24.6094C362.986 24.2708 363.569 24.1016 364.168 24.1016C364.904 24.1016 365.47 24.3132 365.867 24.7363C366.264 25.1595 366.499 25.7487 366.57 26.5039H366.648C367.208 25.6901 367.804 25.0879 368.436 24.6973C369.067 24.3001 369.705 24.1016 370.35 24.1016C371.176 24.1016 371.814 24.3229 372.264 24.7656C372.719 25.2083 372.947 25.8529 372.947 26.6992C372.947 27.1419 372.876 27.7214 372.732 28.4375L371.326 35H369.666L371.111 28.2422C371.242 27.5651 371.307 27.0898 371.307 26.8164C371.307 26.4128 371.193 26.0905 370.965 25.8496C370.743 25.6022 370.392 25.4785 369.91 25.4785C369.383 25.4785 368.862 25.6673 368.348 26.0449C367.833 26.4225 367.381 26.9596 366.99 27.6562C366.606 28.3464 366.313 29.1667 366.111 30.1172L365.066 35H363.426ZM378.875 35.1953C377.677 35.1953 376.736 34.8405 376.053 34.1309C375.369 33.4212 375.027 32.4382 375.027 31.1816C375.027 29.9577 375.268 28.7858 375.75 27.666C376.238 26.5397 376.883 25.6641 377.684 25.0391C378.484 24.4141 379.367 24.1016 380.33 24.1016C381.326 24.1016 382.075 24.3197 382.576 24.7559C383.077 25.1855 383.328 25.7878 383.328 26.5625C383.328 27.7344 382.788 28.6556 381.707 29.3262C380.626 29.9902 379.08 30.3223 377.068 30.3223H376.746L376.707 31.1035C376.707 31.9564 376.906 32.6237 377.303 33.1055C377.706 33.5807 378.328 33.8184 379.168 33.8184C379.578 33.8184 379.998 33.7598 380.428 33.6426C380.864 33.5254 381.404 33.3105 382.049 32.998V34.4238C381.437 34.7103 380.896 34.9089 380.428 35.0195C379.959 35.1367 379.441 35.1953 378.875 35.1953ZM380.232 25.498C379.562 25.498 378.93 25.804 378.338 26.416C377.752 27.028 377.303 27.8776 376.99 28.9648H377.107C378.592 28.9648 379.728 28.7728 380.516 28.3887C381.31 27.998 381.707 27.4349 381.707 26.6992C381.707 26.3542 381.587 26.0677 381.346 25.8398C381.111 25.612 380.74 25.498 380.232 25.498ZM391.111 31.9629C391.111 32.9785 390.75 33.7728 390.027 34.3457C389.311 34.9121 388.299 35.1953 386.99 35.1953C385.89 35.1953 384.897 34.9707 384.012 34.5215V32.9785C384.467 33.252 384.959 33.4635 385.486 33.6133C386.014 33.763 386.502 33.8379 386.951 33.8379C387.771 33.8379 388.39 33.6751 388.807 33.3496C389.223 33.0241 389.432 32.6074 389.432 32.0996C389.432 31.7285 389.318 31.416 389.09 31.1621C388.862 30.9082 388.37 30.5599 387.615 30.1172C386.769 29.6419 386.17 29.1764 385.818 28.7207C385.467 28.265 385.291 27.7246 385.291 27.0996C385.291 26.2012 385.62 25.4785 386.277 24.9316C386.935 24.3783 387.801 24.1016 388.875 24.1016C389.988 24.1016 391.062 24.3424 392.098 24.8242L391.57 26.1621L391.023 25.918C390.366 25.638 389.65 25.498 388.875 25.498C388.27 25.498 387.794 25.6413 387.449 25.9277C387.104 26.2077 386.932 26.5723 386.932 27.0215C386.932 27.3861 387.046 27.6986 387.273 27.959C387.508 28.2194 387.986 28.5547 388.709 28.9648C389.406 29.3555 389.904 29.6908 390.203 29.9707C390.509 30.2507 390.737 30.5534 390.887 30.8789C391.036 31.1979 391.111 31.5592 391.111 31.9629ZM395.35 32.6758L395.428 32.9004C394.692 34.4303 393.813 35.9896 392.791 37.5781H391.531C392.352 35.7161 393.016 34.082 393.523 32.6758H395.35ZM35.1152 65L34.8027 59.1211C34.7767 58.5091 34.7637 57.9492 34.7637 57.4414V55.918H34.6758L34.1875 57.0703L33.377 58.916L30.5352 65H28.5625L28.1426 54.2969H29.7441L29.9199 60.0977V60.957C29.9199 61.9141 29.8939 62.7897 29.8418 63.584H29.9004C30.2064 62.7767 30.6523 61.7285 31.2383 60.4395L34.1191 54.2969H35.8965L36.2578 60.0977C36.2969 61.1914 36.3164 62.0443 36.3164 62.6562V63.1738L36.2969 63.584H36.3555C36.5378 63.0241 36.8079 62.3145 37.166 61.4551C37.5241 60.5892 38.5755 58.2031 40.3203 54.2969H42.0586L37.1172 65H35.1152ZM48.4551 65L49.9004 58.2422C50.0176 57.6302 50.0762 57.1908 50.0762 56.9238C50.0762 55.9603 49.5977 55.4785 48.6406 55.4785C48.0612 55.4785 47.4948 55.6706 46.9414 56.0547C46.3945 56.4388 45.9095 56.9987 45.4863 57.7344C45.0697 58.4635 44.7539 59.3457 44.5391 60.3809L43.5527 65H41.9121L45.1348 49.8047H46.7754C46.6582 50.3385 46.5443 50.8561 46.4336 51.3574C46.3294 51.8587 46.2188 52.3698 46.1016 52.8906C45.9909 53.4049 45.8672 53.9453 45.7305 54.5117C45.6003 55.0781 45.4473 55.6934 45.2715 56.3574H45.3789C45.9909 55.5566 46.5931 54.9837 47.1855 54.6387C47.7845 54.2936 48.4095 54.1211 49.0605 54.1211C49.9134 54.1211 50.571 54.3555 51.0332 54.8242C51.502 55.293 51.7363 55.957 51.7363 56.8164C51.7363 57.2201 51.6615 57.7604 51.5117 58.4375C51.2578 59.694 50.7858 61.8815 50.0957 65H48.4551ZM57.6836 65.1953C56.4857 65.1953 55.5449 64.8405 54.8613 64.1309C54.1777 63.4212 53.8359 62.4382 53.8359 61.1816C53.8359 59.9577 54.0768 58.7858 54.5586 57.666C55.0469 56.5397 55.6914 55.6641 56.4922 55.0391C57.293 54.4141 58.1751 54.1016 59.1387 54.1016C60.1348 54.1016 60.8835 54.3197 61.3848 54.7559C61.8861 55.1855 62.1367 55.7878 62.1367 56.5625C62.1367 57.7344 61.5964 58.6556 60.5156 59.3262C59.4349 59.9902 57.8887 60.3223 55.877 60.3223H55.5547L55.5156 61.1035C55.5156 61.9564 55.7142 62.6237 56.1113 63.1055C56.515 63.5807 57.1367 63.8184 57.9766 63.8184C58.3867 63.8184 58.8066 63.7598 59.2363 63.6426C59.6725 63.5254 60.2129 63.3105 60.8574 62.998V64.4238C60.2454 64.7103 59.7051 64.9089 59.2363 65.0195C58.7676 65.1367 58.25 65.1953 57.6836 65.1953ZM59.041 55.498C58.3704 55.498 57.7389 55.804 57.1465 56.416C56.5605 57.028 56.1113 57.8776 55.7988 58.9648H55.916C57.4004 58.9648 58.5365 58.7728 59.3242 58.3887C60.1185 57.998 60.5156 57.4349 60.5156 56.6992C60.5156 56.3542 60.3952 56.0677 60.1543 55.8398C59.9199 55.612 59.5488 55.498 59.041 55.498ZM69.8613 65L71.3066 58.2422C71.4368 57.5651 71.502 57.0964 71.502 56.8359C71.502 56.4258 71.3848 56.097 71.1504 55.8496C70.9225 55.6022 70.5547 55.4785 70.0469 55.4785C69.4674 55.4785 68.901 55.6738 68.3477 56.0645C67.8008 56.4551 67.3158 57.0117 66.8926 57.7344C66.4759 58.457 66.1602 59.3327 65.9453 60.3613L64.959 65H63.3184L65.6035 54.2969H66.9609L66.7461 56.2793H66.8438C67.4688 55.485 68.071 54.9251 68.6504 54.5996C69.2363 54.2676 69.8418 54.1016 70.4668 54.1016C71.2936 54.1016 71.9447 54.3294 72.4199 54.7852C72.9017 55.2344 73.1426 55.8659 73.1426 56.6797C73.1426 57.194 73.0677 57.7799 72.918 58.4375L71.5215 65H69.8613ZM80.3203 65L83.3574 50.7227H84.998L81.9609 65H80.3203ZM100.887 54.2969L100.643 55.3418L98.582 55.5762C98.849 55.9798 98.9824 56.4941 98.9824 57.1191C98.9824 58.3626 98.6016 59.3555 97.8398 60.0977C97.0846 60.8333 96.0723 61.2012 94.8027 61.2012C94.4447 61.2012 94.1712 61.1751 93.9824 61.123C93.0775 61.4681 92.625 61.8945 92.625 62.4023C92.625 62.6693 92.7324 62.8483 92.9473 62.9395C93.1621 63.0241 93.4746 63.0924 93.8848 63.1445L95.0273 63.2812C96.2057 63.4245 97.0586 63.7109 97.5859 64.1406C98.1198 64.5703 98.3867 65.2018 98.3867 66.0352C98.3867 67.2331 97.9115 68.1608 96.9609 68.8184C96.0104 69.4759 94.6725 69.8047 92.9473 69.8047C91.6842 69.8047 90.6947 69.5638 89.9785 69.082C89.2624 68.6068 88.9043 67.9329 88.9043 67.0605C88.9043 66.377 89.1387 65.7845 89.6074 65.2832C90.0762 64.7819 90.8346 64.3555 91.8828 64.0039C91.375 63.737 91.1211 63.3431 91.1211 62.8223C91.1211 62.373 91.2871 61.9889 91.6191 61.6699C91.9512 61.3444 92.4134 61.0417 93.0059 60.7617C92.5957 60.5534 92.2604 60.2474 92 59.8438C91.7396 59.4336 91.6094 58.9583 91.6094 58.418C91.6094 57.1549 91.9967 56.1198 92.7715 55.3125C93.5527 54.5052 94.5488 54.1016 95.7598 54.1016C96.2676 54.1016 96.7689 54.1667 97.2637 54.2969H100.887ZM90.4863 66.9043C90.4863 67.4056 90.6979 67.8027 91.1211 68.0957C91.5443 68.3887 92.1725 68.5352 93.0059 68.5352C94.1908 68.5352 95.1152 68.3268 95.7793 67.9102C96.4499 67.5 96.7852 66.9173 96.7852 66.1621C96.7852 65.7585 96.6094 65.4395 96.2578 65.2051C95.9062 64.9707 95.3073 64.8079 94.4609 64.7168L92.9082 64.5605C92.127 64.7233 91.528 65.0098 91.1113 65.4199C90.6947 65.8301 90.4863 66.3249 90.4863 66.9043ZM93.2012 58.3594C93.2012 58.9128 93.3477 59.3359 93.6406 59.6289C93.9336 59.9154 94.3405 60.0586 94.8613 60.0586C95.3757 60.0586 95.8249 59.9219 96.209 59.6484C96.5931 59.375 96.8861 59.0007 97.0879 58.5254C97.2962 58.0436 97.4004 57.5228 97.4004 56.9629C97.4004 56.429 97.2572 56.0221 96.9707 55.7422C96.6842 55.4622 96.2741 55.3223 95.7402 55.3223C95.2324 55.3223 94.7865 55.4557 94.4023 55.7227C94.0247 55.9831 93.7285 56.3509 93.5137 56.8262C93.3053 57.2949 93.2012 57.806 93.2012 58.3594ZM106.443 54.1602C107.68 54.1602 108.657 54.528 109.373 55.2637C110.089 55.9928 110.447 56.9987 110.447 58.2812C110.447 59.5052 110.213 60.6608 109.744 61.748C109.275 62.8353 108.641 63.6751 107.84 64.2676C107.039 64.86 106.134 65.1562 105.125 65.1562C103.875 65.1562 102.895 64.7884 102.186 64.0527C101.476 63.3171 101.121 62.3112 101.121 61.0352C101.121 59.7982 101.359 58.6361 101.834 57.5488C102.309 56.4551 102.951 55.6185 103.758 55.0391C104.565 54.4531 105.46 54.1602 106.443 54.1602ZM108.748 58.0566C108.748 57.3079 108.543 56.7025 108.133 56.2402C107.729 55.7715 107.179 55.5371 106.482 55.5371C105.773 55.5371 105.135 55.778 104.568 56.2598C104.008 56.7415 103.572 57.4121 103.26 58.2715C102.954 59.1243 102.801 60.0749 102.801 61.123C102.801 61.9759 103.006 62.6367 103.416 63.1055C103.833 63.5677 104.428 63.7988 105.203 63.7988C105.88 63.7988 106.489 63.5612 107.029 63.0859C107.57 62.6107 107.99 61.9368 108.289 61.0645C108.595 60.1855 108.748 59.1829 108.748 58.0566ZM115.574 69.8047C115.125 69.8047 114.718 69.7363 114.354 69.5996V68.2227C114.77 68.3659 115.135 68.4375 115.447 68.4375C115.942 68.4375 116.323 68.2357 116.59 67.832C116.857 67.4284 117.072 66.8522 117.234 66.1035L119.451 55.5371H117.566L117.693 54.8828L119.705 54.2383L119.93 53.2617C120.229 51.9596 120.643 51.0417 121.17 50.5078C121.704 49.9674 122.492 49.6973 123.533 49.6973C123.794 49.6973 124.113 49.7363 124.49 49.8145C124.868 49.8861 125.161 49.9674 125.369 50.0586L124.949 51.3184C124.454 51.1296 124.008 51.0352 123.611 51.0352C123.045 51.0352 122.609 51.1947 122.303 51.5137C122.003 51.8262 121.759 52.4023 121.57 53.2422L121.326 54.2969H123.65L123.406 55.5371H121.092L118.826 66.2598C118.572 67.4902 118.182 68.3887 117.654 68.9551C117.127 69.5215 116.434 69.8047 115.574 69.8047ZM129.139 54.1602C130.376 54.1602 131.352 54.528 132.068 55.2637C132.785 55.9928 133.143 56.9987 133.143 58.2812C133.143 59.5052 132.908 60.6608 132.439 61.748C131.971 62.8353 131.336 63.6751 130.535 64.2676C129.734 64.86 128.829 65.1562 127.82 65.1562C126.57 65.1562 125.59 64.7884 124.881 64.0527C124.171 63.3171 123.816 62.3112 123.816 61.0352C123.816 59.7982 124.054 58.6361 124.529 57.5488C125.005 56.4551 125.646 55.6185 126.453 55.0391C127.26 54.4531 128.156 54.1602 129.139 54.1602ZM131.443 58.0566C131.443 57.3079 131.238 56.7025 130.828 56.2402C130.424 55.7715 129.874 55.5371 129.178 55.5371C128.468 55.5371 127.83 55.778 127.264 56.2598C126.704 56.7415 126.268 57.4121 125.955 58.2715C125.649 59.1243 125.496 60.0749 125.496 61.123C125.496 61.9759 125.701 62.6367 126.111 63.1055C126.528 63.5677 127.124 63.7988 127.898 63.7988C128.576 63.7988 129.184 63.5612 129.725 63.0859C130.265 62.6107 130.685 61.9368 130.984 61.0645C131.29 60.1855 131.443 59.1829 131.443 58.0566ZM141.434 54.1016C141.883 54.1016 142.273 54.1471 142.605 54.2383L142.254 55.7031C141.909 55.6185 141.567 55.5762 141.229 55.5762C140.636 55.5762 140.079 55.7715 139.559 56.1621C139.044 56.5527 138.592 57.0964 138.201 57.793C137.817 58.4831 137.534 59.2513 137.352 60.0977L136.307 65H134.666L136.951 54.2969H138.309L138.094 56.2793H138.191C138.66 55.6608 139.048 55.2181 139.354 54.9512C139.66 54.6777 139.979 54.4694 140.311 54.3262C140.649 54.1764 141.023 54.1016 141.434 54.1016ZM153.455 54.1016C154.054 54.1016 154.588 54.2643 155.057 54.5898C155.525 54.9089 155.89 55.3711 156.15 55.9766H156.258L156.912 54.2969H158.152L155.877 65H154.578L154.832 62.959H154.754C153.589 64.4499 152.361 65.1953 151.072 65.1953C150.167 65.1953 149.458 64.873 148.943 64.2285C148.429 63.584 148.172 62.7018 148.172 61.582C148.172 60.2279 148.403 58.9714 148.865 57.8125C149.327 56.6536 149.965 55.7454 150.779 55.0879C151.593 54.4303 152.485 54.1016 153.455 54.1016ZM151.6 63.8379C152.231 63.8379 152.859 63.5384 153.484 62.9395C154.109 62.334 154.617 61.5495 155.008 60.5859C155.398 59.6159 155.594 58.6458 155.594 57.6758C155.594 57.0052 155.411 56.4714 155.047 56.0742C154.682 55.6771 154.204 55.4785 153.611 55.4785C152.934 55.4785 152.303 55.7585 151.717 56.3184C151.137 56.8783 150.682 57.6367 150.35 58.5938C150.018 59.5508 149.852 60.5599 149.852 61.6211C149.852 62.3633 150.005 62.9199 150.311 63.291C150.617 63.6556 151.046 63.8379 151.6 63.8379ZM171.834 65L171.521 59.1211C171.495 58.5091 171.482 57.9492 171.482 57.4414V55.918H171.395L170.906 57.0703L170.096 58.916L167.254 65H165.281L164.861 54.2969H166.463L166.639 60.0977V60.957C166.639 61.9141 166.613 62.7897 166.561 63.584H166.619C166.925 62.7767 167.371 61.7285 167.957 60.4395L170.838 54.2969H172.615L172.977 60.0977C173.016 61.1914 173.035 62.0443 173.035 62.6562V63.1738L173.016 63.584H173.074C173.257 63.0241 173.527 62.3145 173.885 61.4551C174.243 60.5892 175.294 58.2031 177.039 54.2969H178.777L173.836 65H171.834ZM184.295 54.1016C184.894 54.1016 185.428 54.2643 185.896 54.5898C186.365 54.9089 186.73 55.3711 186.99 55.9766H187.098L187.752 54.2969H188.992L186.717 65H185.418L185.672 62.959H185.594C184.428 64.4499 183.201 65.1953 181.912 65.1953C181.007 65.1953 180.298 64.873 179.783 64.2285C179.269 63.584 179.012 62.7018 179.012 61.582C179.012 60.2279 179.243 58.9714 179.705 57.8125C180.167 56.6536 180.805 55.7454 181.619 55.0879C182.433 54.4303 183.325 54.1016 184.295 54.1016ZM182.439 63.8379C183.071 63.8379 183.699 63.5384 184.324 62.9395C184.949 62.334 185.457 61.5495 185.848 60.5859C186.238 59.6159 186.434 58.6458 186.434 57.6758C186.434 57.0052 186.251 56.4714 185.887 56.0742C185.522 55.6771 185.044 55.4785 184.451 55.4785C183.774 55.4785 183.143 55.7585 182.557 56.3184C181.977 56.8783 181.521 57.6367 181.189 58.5938C180.857 59.5508 180.691 60.5599 180.691 61.6211C180.691 62.3633 180.844 62.9199 181.15 63.291C181.456 63.6556 181.886 63.8379 182.439 63.8379ZM191.561 65H189.92L193.162 49.8047H194.803L191.561 65ZM197.664 59.541L202.801 54.2969H204.764L200.184 58.8574L203.064 65H201.238L198.943 59.8828L197.459 61.084L196.658 65H194.998L198.221 49.8047H199.881C199.412 51.9922 198.992 53.9518 198.621 55.6836C198.25 57.4154 197.918 58.7012 197.625 59.541H197.664ZM207.049 62.6758L207.127 62.9004C206.391 64.4303 205.512 65.9896 204.49 67.5781H203.23C204.051 65.7161 204.715 64.082 205.223 62.6758H207.049ZM215.047 65L218.084 50.7227H219.725L216.688 65H215.047ZM224.715 50.7227L224.793 50.9375C224.533 51.5299 224.171 52.2428 223.709 53.0762C223.247 53.903 222.729 54.7493 222.156 55.6152H220.896C221.769 53.6751 222.43 52.0443 222.879 50.7227H224.715ZM229.871 65L231.316 58.2422C231.434 57.6302 231.492 57.1908 231.492 56.9238C231.492 56.4681 231.391 56.1133 231.189 55.8594C230.988 55.6055 230.643 55.4785 230.154 55.4785C229.607 55.4785 229.074 55.6738 228.553 56.0645C228.038 56.4551 227.583 57.015 227.186 57.7441C226.795 58.4668 226.492 59.3392 226.277 60.3613L225.291 65H223.65L225.936 54.2969H227.293L227.078 56.2793H227.176C227.742 55.5046 228.305 54.9479 228.865 54.6094C229.432 54.2708 230.014 54.1016 230.613 54.1016C231.349 54.1016 231.915 54.3132 232.312 54.7363C232.71 55.1595 232.944 55.7487 233.016 56.5039H233.094C233.654 55.6901 234.249 55.0879 234.881 54.6973C235.512 54.3001 236.15 54.1016 236.795 54.1016C237.622 54.1016 238.26 54.3229 238.709 54.7656C239.165 55.2083 239.393 55.8529 239.393 56.6992C239.393 57.1419 239.321 57.7214 239.178 58.4375L237.771 65H236.111L237.557 58.2422C237.687 57.5651 237.752 57.0898 237.752 56.8164C237.752 56.4128 237.638 56.0905 237.41 55.8496C237.189 55.6022 236.837 55.4785 236.355 55.4785C235.828 55.4785 235.307 55.6673 234.793 56.0449C234.279 56.4225 233.826 56.9596 233.436 57.6562C233.051 58.3464 232.758 59.1667 232.557 60.1172L231.512 65H229.871ZM252.889 61.9629C252.889 62.9785 252.527 63.7728 251.805 64.3457C251.089 64.9121 250.076 65.1953 248.768 65.1953C247.667 65.1953 246.674 64.9707 245.789 64.5215V62.9785C246.245 63.252 246.736 63.4635 247.264 63.6133C247.791 63.763 248.279 63.8379 248.729 63.8379C249.549 63.8379 250.167 63.6751 250.584 63.3496C251.001 63.0241 251.209 62.6074 251.209 62.0996C251.209 61.7285 251.095 61.416 250.867 61.1621C250.639 60.9082 250.148 60.5599 249.393 60.1172C248.546 59.6419 247.947 59.1764 247.596 58.7207C247.244 58.265 247.068 57.7246 247.068 57.0996C247.068 56.2012 247.397 55.4785 248.055 54.9316C248.712 54.3783 249.578 54.1016 250.652 54.1016C251.766 54.1016 252.84 54.3424 253.875 54.8242L253.348 56.1621L252.801 55.918C252.143 55.638 251.427 55.498 250.652 55.498C250.047 55.498 249.572 55.6413 249.227 55.9277C248.882 56.2077 248.709 56.5723 248.709 57.0215C248.709 57.3861 248.823 57.6986 249.051 57.959C249.285 58.2194 249.764 58.5547 250.486 58.9648C251.183 59.3555 251.681 59.6908 251.98 59.9707C252.286 60.2507 252.514 60.5534 252.664 60.8789C252.814 61.1979 252.889 61.5592 252.889 61.9629ZM259.227 65.1953C257.964 65.1953 256.984 64.847 256.287 64.1504C255.59 63.4538 255.242 62.4707 255.242 61.2012C255.242 59.8991 255.483 58.6979 255.965 57.5977C256.447 56.4974 257.111 55.6413 257.957 55.0293C258.81 54.4108 259.767 54.1016 260.828 54.1016C261.72 54.1016 262.592 54.2676 263.445 54.5996L262.986 55.9766C262.205 55.6445 261.492 55.4785 260.848 55.4785C260.118 55.4785 259.451 55.7292 258.846 56.2305C258.247 56.7253 257.775 57.4186 257.43 58.3105C257.091 59.196 256.922 60.1595 256.922 61.2012C256.922 62.0345 257.137 62.6823 257.566 63.1445C258.003 63.6068 258.602 63.8379 259.363 63.8379C259.832 63.8379 260.275 63.7728 260.691 63.6426C261.108 63.5124 261.518 63.3594 261.922 63.1836V64.5801C261.115 64.9902 260.216 65.1953 259.227 65.1953ZM269.529 54.1016C270.128 54.1016 270.662 54.2643 271.131 54.5898C271.6 54.9089 271.964 55.3711 272.225 55.9766H272.332L272.986 54.2969H274.227L271.951 65H270.652L270.906 62.959H270.828C269.663 64.4499 268.436 65.1953 267.146 65.1953C266.242 65.1953 265.532 64.873 265.018 64.2285C264.503 63.584 264.246 62.7018 264.246 61.582C264.246 60.2279 264.477 58.9714 264.939 57.8125C265.402 56.6536 266.04 55.7454 266.854 55.0879C267.667 54.4303 268.559 54.1016 269.529 54.1016ZM267.674 63.8379C268.305 63.8379 268.934 63.5384 269.559 62.9395C270.184 62.334 270.691 61.5495 271.082 60.5859C271.473 59.6159 271.668 58.6458 271.668 57.6758C271.668 57.0052 271.486 56.4714 271.121 56.0742C270.757 55.6771 270.278 55.4785 269.686 55.4785C269.008 55.4785 268.377 55.7585 267.791 56.3184C267.212 56.8783 266.756 57.6367 266.424 58.5938C266.092 59.5508 265.926 60.5599 265.926 61.6211C265.926 62.3633 266.079 62.9199 266.385 63.291C266.691 63.6556 267.12 63.8379 267.674 63.8379ZM281.941 54.1016C282.391 54.1016 282.781 54.1471 283.113 54.2383L282.762 55.7031C282.417 55.6185 282.075 55.5762 281.736 55.5762C281.144 55.5762 280.587 55.7715 280.066 56.1621C279.552 56.5527 279.1 57.0964 278.709 57.793C278.325 58.4831 278.042 59.2513 277.859 60.0977L276.814 65H275.174L277.459 54.2969H278.816L278.602 56.2793H278.699C279.168 55.6608 279.555 55.2181 279.861 54.9512C280.167 54.6777 280.486 54.4694 280.818 54.3262C281.157 54.1764 281.531 54.1016 281.941 54.1016ZM287.332 65.1953C286.134 65.1953 285.193 64.8405 284.51 64.1309C283.826 63.4212 283.484 62.4382 283.484 61.1816C283.484 59.9577 283.725 58.7858 284.207 57.666C284.695 56.5397 285.34 55.6641 286.141 55.0391C286.941 54.4141 287.824 54.1016 288.787 54.1016C289.783 54.1016 290.532 54.3197 291.033 54.7559C291.535 55.1855 291.785 55.7878 291.785 56.5625C291.785 57.7344 291.245 58.6556 290.164 59.3262C289.083 59.9902 287.537 60.3223 285.525 60.3223H285.203L285.164 61.1035C285.164 61.9564 285.363 62.6237 285.76 63.1055C286.163 63.5807 286.785 63.8184 287.625 63.8184C288.035 63.8184 288.455 63.7598 288.885 63.6426C289.321 63.5254 289.861 63.3105 290.506 62.998V64.4238C289.894 64.7103 289.354 64.9089 288.885 65.0195C288.416 65.1367 287.898 65.1953 287.332 65.1953ZM288.689 55.498C288.019 55.498 287.387 55.804 286.795 56.416C286.209 57.028 285.76 57.8776 285.447 58.9648H285.564C287.049 58.9648 288.185 58.7728 288.973 58.3887C289.767 57.998 290.164 57.4349 290.164 56.6992C290.164 56.3542 290.044 56.0677 289.803 55.8398C289.568 55.612 289.197 55.498 288.689 55.498ZM298.631 54.1211C299.894 54.1211 300.809 54.7396 301.375 55.9766H301.473C301.583 54.9674 301.73 54.0755 301.912 53.3008L302.674 49.8047H304.295L301.072 65H299.715L299.93 62.959H299.852C299.194 63.7728 298.579 64.349 298.006 64.6875C297.433 65.026 296.84 65.1953 296.229 65.1953C295.324 65.1953 294.617 64.8763 294.109 64.2383C293.602 63.6003 293.348 62.7148 293.348 61.582C293.348 60.1888 293.582 58.9128 294.051 57.7539C294.52 56.5951 295.151 55.6999 295.945 55.0684C296.746 54.4368 297.641 54.1211 298.631 54.1211ZM296.775 63.8379C297.387 63.8379 298.019 63.5352 298.67 62.9297C299.321 62.3177 299.835 61.5397 300.213 60.5957C300.597 59.6452 300.789 58.6784 300.789 57.6953C300.789 56.9727 300.613 56.4225 300.262 56.0449C299.91 55.6673 299.399 55.4785 298.729 55.4785C298.071 55.4785 297.459 55.7487 296.893 56.2891C296.333 56.8229 295.88 57.5781 295.535 58.5547C295.197 59.5247 295.027 60.5469 295.027 61.6211C295.027 63.099 295.61 63.8379 296.775 63.8379ZM304.354 64.2773C304.354 63.776 304.484 63.3789 304.744 63.0859C305.011 62.7865 305.376 62.6367 305.838 62.6367C306.118 62.6367 306.342 62.7214 306.512 62.8906C306.688 63.0599 306.775 63.3171 306.775 63.6621C306.775 64.1243 306.645 64.5117 306.385 64.8242C306.124 65.1302 305.773 65.2832 305.33 65.2832C305.031 65.2832 304.793 65.1986 304.617 65.0293C304.441 64.86 304.354 64.6094 304.354 64.2773ZM314.031 50.7227L314.109 50.9375C313.849 51.5299 313.488 52.2428 313.025 53.0762C312.563 53.903 312.046 54.7493 311.473 55.6152H310.213C311.085 53.6751 311.746 52.0443 312.195 50.7227H314.031ZM317.635 50.7227L317.732 50.9375C317.12 52.2786 316.229 53.8379 315.057 55.6152H313.816C314.188 54.7949 314.562 53.9095 314.939 52.959C315.324 52.002 315.607 51.2565 315.789 50.7227H317.635Z" fill="#444444"/>
</svg>
