<svg width="480" height="250" viewBox="0 0 480 250" fill="none" xmlns="http://www.w3.org/2000/svg">
<path d="M407 137H12C6.47715 137 2 141.477 2 147V208.122C2 213.645 6.47715 218.122 12 218.122H62.7741L48.1688 244L93.8187 218.122H407C412.523 218.122 417 213.645 417 208.122V147C417 141.477 412.523 137 407 137Z" stroke="#884A07" stroke-width="4"/>
<path d="M12 2H468C473.523 2 478 6.47716 478 12V73.1219C478 78.6447 473.523 83.1219 468 83.1219H408.293L425.045 109L372.685 83.1219H12C6.47714 83.1219 1.99997 78.6447 1.99997 73.1219V12C1.99997 6.47715 6.47714 2 12 2Z" stroke="#884A07" stroke-width="4"/>
<path d="M26.8828 160.615L26.8047 160.4C27.3255 159.222 28.2109 157.663 29.4609 155.723H30.7012C29.6465 158.19 28.9857 159.821 28.7188 160.615H26.8828ZM23.2598 160.615L23.2012 160.4C23.8392 159.027 24.7181 157.467 25.8379 155.723H27.0781C26.1211 157.969 25.4603 159.6 25.0957 160.615H23.2598ZM29.4512 169.277C29.4512 168.776 29.5814 168.379 29.8418 168.086C30.1087 167.786 30.4733 167.637 30.9355 167.637C31.2155 167.637 31.4401 167.721 31.6094 167.891C31.7852 168.06 31.873 168.317 31.873 168.662C31.873 169.124 31.7428 169.512 31.4824 169.824C31.222 170.13 30.8704 170.283 30.4277 170.283C30.1283 170.283 29.8906 170.199 29.7148 170.029C29.5391 169.86 29.4512 169.609 29.4512 169.277ZM34.5098 169.277C34.5098 168.776 34.64 168.379 34.9004 168.086C35.1673 167.786 35.5319 167.637 35.9941 167.637C36.2741 167.637 36.4987 167.721 36.668 167.891C36.8438 168.06 36.9316 168.317 36.9316 168.662C36.9316 169.124 36.8014 169.512 36.541 169.824C36.2806 170.13 35.929 170.283 35.4863 170.283C35.1868 170.283 34.9492 170.199 34.7734 170.029C34.5977 169.86 34.5098 169.609 34.5098 169.277ZM39.5684 169.277C39.5684 168.776 39.6986 168.379 39.959 168.086C40.2259 167.786 40.5905 167.637 41.0527 167.637C41.3327 167.637 41.5573 167.721 41.7266 167.891C41.9023 168.06 41.9902 168.317 41.9902 168.662C41.9902 169.124 41.86 169.512 41.5996 169.824C41.3392 170.13 40.9876 170.283 40.5449 170.283C40.2454 170.283 40.0078 170.199 39.832 170.029C39.6562 169.86 39.5684 169.609 39.5684 169.277ZM48.0645 168.857C48.4225 168.857 48.8913 168.773 49.4707 168.604V169.863C49.2493 169.954 48.9759 170.033 48.6504 170.098C48.3249 170.163 48.0645 170.195 47.8691 170.195C47.0553 170.195 46.4303 170.003 45.9941 169.619C45.5645 169.229 45.3496 168.649 45.3496 167.881C45.3496 167.451 45.4082 166.963 45.5254 166.416L46.7656 160.537H45.0859L45.2227 159.824L47.0293 159.062L48.25 156.836H49.207L48.6699 159.297H51.3457L51.0918 160.537H48.4258L47.166 166.436C47.0488 167.002 46.9902 167.432 46.9902 167.725C46.9902 168.089 47.0846 168.369 47.2734 168.564C47.4622 168.76 47.7259 168.857 48.0645 168.857ZM56.9316 159.102C57.5306 159.102 58.0645 159.264 58.5332 159.59C59.002 159.909 59.3665 160.371 59.627 160.977H59.7344L60.3887 159.297H61.6289L59.3535 170H58.0547L58.3086 167.959H58.2305C57.0651 169.45 55.8379 170.195 54.5488 170.195C53.6439 170.195 52.9342 169.873 52.4199 169.229C51.9056 168.584 51.6484 167.702 51.6484 166.582C51.6484 165.228 51.8796 163.971 52.3418 162.812C52.804 161.654 53.4421 160.745 54.2559 160.088C55.0697 159.43 55.9616 159.102 56.9316 159.102ZM55.0762 168.838C55.7077 168.838 56.3359 168.538 56.9609 167.939C57.5859 167.334 58.0938 166.549 58.4844 165.586C58.875 164.616 59.0703 163.646 59.0703 162.676C59.0703 162.005 58.888 161.471 58.5234 161.074C58.1589 160.677 57.6803 160.479 57.0879 160.479C56.4108 160.479 55.7793 160.758 55.1934 161.318C54.6139 161.878 54.1582 162.637 53.8262 163.594C53.4941 164.551 53.3281 165.56 53.3281 166.621C53.3281 167.363 53.4811 167.92 53.7871 168.291C54.0931 168.656 54.5228 168.838 55.0762 168.838ZM65.2227 164.541L70.3594 159.297H72.3223L67.7422 163.857L70.623 170H68.7969L66.502 164.883L65.0176 166.084L64.2168 170H62.5566L65.7793 154.805H67.4395C66.9707 156.992 66.5508 158.952 66.1797 160.684C65.8086 162.415 65.4766 163.701 65.1836 164.541H65.2227ZM76.5703 170.195C75.3724 170.195 74.4316 169.84 73.748 169.131C73.0645 168.421 72.7227 167.438 72.7227 166.182C72.7227 164.958 72.9635 163.786 73.4453 162.666C73.9336 161.54 74.5781 160.664 75.3789 160.039C76.1797 159.414 77.0618 159.102 78.0254 159.102C79.0215 159.102 79.7702 159.32 80.2715 159.756C80.7728 160.186 81.0234 160.788 81.0234 161.562C81.0234 162.734 80.4831 163.656 79.4023 164.326C78.3216 164.99 76.7754 165.322 74.7637 165.322H74.4414L74.4023 166.104C74.4023 166.956 74.6009 167.624 74.998 168.105C75.4017 168.581 76.0234 168.818 76.8633 168.818C77.2734 168.818 77.6934 168.76 78.123 168.643C78.5592 168.525 79.0996 168.311 79.7441 167.998V169.424C79.1322 169.71 78.5918 169.909 78.123 170.02C77.6543 170.137 77.1367 170.195 76.5703 170.195ZM77.9277 160.498C77.2572 160.498 76.6257 160.804 76.0332 161.416C75.4473 162.028 74.998 162.878 74.6855 163.965H74.8027C76.2871 163.965 77.4232 163.773 78.2109 163.389C79.0052 162.998 79.4023 162.435 79.4023 161.699C79.4023 161.354 79.2819 161.068 79.041 160.84C78.8066 160.612 78.4355 160.498 77.9277 160.498ZM88.8066 166.963C88.8066 167.979 88.4453 168.773 87.7227 169.346C87.0065 169.912 85.9941 170.195 84.6855 170.195C83.5853 170.195 82.5924 169.971 81.707 169.521V167.979C82.1628 168.252 82.6543 168.464 83.1816 168.613C83.709 168.763 84.1973 168.838 84.6465 168.838C85.4668 168.838 86.0853 168.675 86.502 168.35C86.9186 168.024 87.127 167.607 87.127 167.1C87.127 166.729 87.013 166.416 86.7852 166.162C86.5573 165.908 86.0658 165.56 85.3105 165.117C84.4642 164.642 83.8652 164.176 83.5137 163.721C83.1621 163.265 82.9863 162.725 82.9863 162.1C82.9863 161.201 83.3151 160.479 83.9727 159.932C84.6302 159.378 85.4961 159.102 86.5703 159.102C87.6836 159.102 88.7578 159.342 89.793 159.824L89.2656 161.162L88.7188 160.918C88.0612 160.638 87.3451 160.498 86.5703 160.498C85.9648 160.498 85.4896 160.641 85.1445 160.928C84.7995 161.208 84.627 161.572 84.627 162.021C84.627 162.386 84.7409 162.699 84.9688 162.959C85.2031 163.219 85.6816 163.555 86.4043 163.965C87.1009 164.355 87.599 164.691 87.8984 164.971C88.2044 165.251 88.4323 165.553 88.582 165.879C88.7318 166.198 88.8066 166.559 88.8066 166.963ZM105.877 158.682C105.877 159.697 105.548 160.56 104.891 161.27C104.233 161.973 103.322 162.428 102.156 162.637V162.725C102.964 162.874 103.598 163.223 104.061 163.77C104.523 164.31 104.754 164.987 104.754 165.801C104.754 166.667 104.552 167.432 104.148 168.096C103.745 168.753 103.156 169.268 102.381 169.639C101.606 170.01 100.685 170.195 99.6172 170.195C98.25 170.195 96.9967 169.938 95.8574 169.424V167.822C96.4694 168.141 97.1172 168.389 97.8008 168.564C98.4844 168.734 99.1029 168.818 99.6562 168.818C100.711 168.818 101.531 168.561 102.117 168.047C102.703 167.526 102.996 166.816 102.996 165.918C102.996 165.065 102.739 164.421 102.225 163.984C101.71 163.542 100.994 163.32 100.076 163.32H98.7969L99.0996 161.924H100.457C101.531 161.924 102.423 161.641 103.133 161.074C103.842 160.508 104.197 159.769 104.197 158.857C104.197 158.258 104.008 157.783 103.631 157.432C103.253 157.08 102.742 156.904 102.098 156.904C101.577 156.904 101.066 156.992 100.564 157.168C100.063 157.344 99.4935 157.646 98.8555 158.076L98.0742 156.924C99.3438 155.986 100.724 155.518 102.215 155.518C103.38 155.518 104.282 155.801 104.92 156.367C105.558 156.934 105.877 157.705 105.877 158.682ZM118.729 170L120.174 163.242C120.291 162.63 120.35 162.191 120.35 161.924C120.35 160.96 119.871 160.479 118.914 160.479C118.335 160.479 117.768 160.671 117.215 161.055C116.668 161.439 116.183 161.999 115.76 162.734C115.343 163.464 115.027 164.346 114.812 165.381L113.826 170H112.186L115.408 154.805H117.049C116.932 155.339 116.818 155.856 116.707 156.357C116.603 156.859 116.492 157.37 116.375 157.891C116.264 158.405 116.141 158.945 116.004 159.512C115.874 160.078 115.721 160.693 115.545 161.357H115.652C116.264 160.557 116.867 159.984 117.459 159.639C118.058 159.294 118.683 159.121 119.334 159.121C120.187 159.121 120.844 159.355 121.307 159.824C121.775 160.293 122.01 160.957 122.01 161.816C122.01 162.22 121.935 162.76 121.785 163.438C121.531 164.694 121.059 166.882 120.369 170H118.729ZM129.432 159.16C130.669 159.16 131.645 159.528 132.361 160.264C133.077 160.993 133.436 161.999 133.436 163.281C133.436 164.505 133.201 165.661 132.732 166.748C132.264 167.835 131.629 168.675 130.828 169.268C130.027 169.86 129.122 170.156 128.113 170.156C126.863 170.156 125.883 169.788 125.174 169.053C124.464 168.317 124.109 167.311 124.109 166.035C124.109 164.798 124.347 163.636 124.822 162.549C125.298 161.455 125.939 160.618 126.746 160.039C127.553 159.453 128.449 159.16 129.432 159.16ZM131.736 163.057C131.736 162.308 131.531 161.702 131.121 161.24C130.717 160.771 130.167 160.537 129.471 160.537C128.761 160.537 128.123 160.778 127.557 161.26C126.997 161.742 126.561 162.412 126.248 163.271C125.942 164.124 125.789 165.075 125.789 166.123C125.789 166.976 125.994 167.637 126.404 168.105C126.821 168.568 127.417 168.799 128.191 168.799C128.868 168.799 129.477 168.561 130.018 168.086C130.558 167.611 130.978 166.937 131.277 166.064C131.583 165.186 131.736 164.183 131.736 163.057ZM138.787 159.297L137.322 166.084C137.205 166.663 137.146 167.116 137.146 167.441C137.146 168.372 137.625 168.838 138.582 168.838C139.155 168.838 139.718 168.643 140.271 168.252C140.825 167.861 141.313 167.301 141.736 166.572C142.16 165.843 142.482 164.964 142.703 163.936L143.68 159.297H145.301L143.045 170H141.688L141.902 168.018H141.785C141.147 168.831 140.538 169.398 139.959 169.717C139.38 170.036 138.781 170.195 138.162 170.195C137.329 170.195 136.674 169.971 136.199 169.521C135.724 169.066 135.486 168.418 135.486 167.578C135.486 167.174 135.558 166.615 135.701 165.898L137.127 159.297H138.787ZM153.27 159.102C153.719 159.102 154.109 159.147 154.441 159.238L154.09 160.703C153.745 160.618 153.403 160.576 153.064 160.576C152.472 160.576 151.915 160.771 151.395 161.162C150.88 161.553 150.428 162.096 150.037 162.793C149.653 163.483 149.37 164.251 149.188 165.098L148.143 170H146.502L148.787 159.297H150.145L149.93 161.279H150.027C150.496 160.661 150.883 160.218 151.189 159.951C151.495 159.678 151.814 159.469 152.146 159.326C152.485 159.176 152.859 159.102 153.27 159.102ZM161.033 166.963C161.033 167.979 160.672 168.773 159.949 169.346C159.233 169.912 158.221 170.195 156.912 170.195C155.812 170.195 154.819 169.971 153.934 169.521V167.979C154.389 168.252 154.881 168.464 155.408 168.613C155.936 168.763 156.424 168.838 156.873 168.838C157.693 168.838 158.312 168.675 158.729 168.35C159.145 168.024 159.354 167.607 159.354 167.1C159.354 166.729 159.24 166.416 159.012 166.162C158.784 165.908 158.292 165.56 157.537 165.117C156.691 164.642 156.092 164.176 155.74 163.721C155.389 163.265 155.213 162.725 155.213 162.1C155.213 161.201 155.542 160.479 156.199 159.932C156.857 159.378 157.723 159.102 158.797 159.102C159.91 159.102 160.984 159.342 162.02 159.824L161.492 161.162L160.945 160.918C160.288 160.638 159.572 160.498 158.797 160.498C158.191 160.498 157.716 160.641 157.371 160.928C157.026 161.208 156.854 161.572 156.854 162.021C156.854 162.386 156.967 162.699 157.195 162.959C157.43 163.219 157.908 163.555 158.631 163.965C159.327 164.355 159.826 164.691 160.125 164.971C160.431 165.251 160.659 165.553 160.809 165.879C160.958 166.198 161.033 166.559 161.033 166.963ZM174.744 170L176.189 163.242C176.32 162.565 176.385 162.096 176.385 161.836C176.385 161.426 176.268 161.097 176.033 160.85C175.805 160.602 175.438 160.479 174.93 160.479C174.35 160.479 173.784 160.674 173.23 161.064C172.684 161.455 172.199 162.012 171.775 162.734C171.359 163.457 171.043 164.333 170.828 165.361L169.842 170H168.201L170.486 159.297H171.844L171.629 161.279H171.727C172.352 160.485 172.954 159.925 173.533 159.6C174.119 159.268 174.725 159.102 175.35 159.102C176.176 159.102 176.827 159.329 177.303 159.785C177.785 160.234 178.025 160.866 178.025 161.68C178.025 162.194 177.951 162.78 177.801 163.438L176.404 170H174.744ZM185.447 159.16C186.684 159.16 187.661 159.528 188.377 160.264C189.093 160.993 189.451 161.999 189.451 163.281C189.451 164.505 189.217 165.661 188.748 166.748C188.279 167.835 187.645 168.675 186.844 169.268C186.043 169.86 185.138 170.156 184.129 170.156C182.879 170.156 181.899 169.788 181.189 169.053C180.48 168.317 180.125 167.311 180.125 166.035C180.125 164.798 180.363 163.636 180.838 162.549C181.313 161.455 181.954 160.618 182.762 160.039C183.569 159.453 184.464 159.16 185.447 159.16ZM187.752 163.057C187.752 162.308 187.547 161.702 187.137 161.24C186.733 160.771 186.183 160.537 185.486 160.537C184.777 160.537 184.139 160.778 183.572 161.26C183.012 161.742 182.576 162.412 182.264 163.271C181.958 164.124 181.805 165.075 181.805 166.123C181.805 166.976 182.01 167.637 182.42 168.105C182.837 168.568 183.432 168.799 184.207 168.799C184.884 168.799 185.493 168.561 186.033 168.086C186.574 167.611 186.993 166.937 187.293 166.064C187.599 165.186 187.752 164.183 187.752 163.057ZM198.514 170L198.201 164.121C198.175 163.509 198.162 162.949 198.162 162.441V160.918H198.074L197.586 162.07L196.775 163.916L193.934 170H191.961L191.541 159.297H193.143L193.318 165.098V165.957C193.318 166.914 193.292 167.79 193.24 168.584H193.299C193.605 167.777 194.051 166.729 194.637 165.439L197.518 159.297H199.295L199.656 165.098C199.695 166.191 199.715 167.044 199.715 167.656V168.174L199.695 168.584H199.754C199.936 168.024 200.206 167.314 200.564 166.455C200.923 165.589 201.974 163.203 203.719 159.297H205.457L200.516 170H198.514ZM213.787 168.857C214.145 168.857 214.614 168.773 215.193 168.604V169.863C214.972 169.954 214.699 170.033 214.373 170.098C214.048 170.163 213.787 170.195 213.592 170.195C212.778 170.195 212.153 170.003 211.717 169.619C211.287 169.229 211.072 168.649 211.072 167.881C211.072 167.451 211.131 166.963 211.248 166.416L212.488 160.537H210.809L210.945 159.824L212.752 159.062L213.973 156.836H214.93L214.393 159.297H217.068L216.814 160.537H214.148L212.889 166.436C212.771 167.002 212.713 167.432 212.713 167.725C212.713 168.089 212.807 168.369 212.996 168.564C213.185 168.76 213.449 168.857 213.787 168.857ZM222.693 159.16C223.93 159.16 224.907 159.528 225.623 160.264C226.339 160.993 226.697 161.999 226.697 163.281C226.697 164.505 226.463 165.661 225.994 166.748C225.525 167.835 224.891 168.675 224.09 169.268C223.289 169.86 222.384 170.156 221.375 170.156C220.125 170.156 219.145 169.788 218.436 169.053C217.726 168.317 217.371 167.311 217.371 166.035C217.371 164.798 217.609 163.636 218.084 162.549C218.559 161.455 219.201 160.618 220.008 160.039C220.815 159.453 221.71 159.16 222.693 159.16ZM224.998 163.057C224.998 162.308 224.793 161.702 224.383 161.24C223.979 160.771 223.429 160.537 222.732 160.537C222.023 160.537 221.385 160.778 220.818 161.26C220.258 161.742 219.822 162.412 219.51 163.271C219.204 164.124 219.051 165.075 219.051 166.123C219.051 166.976 219.256 167.637 219.666 168.105C220.083 168.568 220.678 168.799 221.453 168.799C222.13 168.799 222.739 168.561 223.279 168.086C223.82 167.611 224.24 166.937 224.539 166.064C224.845 165.186 224.998 164.183 224.998 163.057ZM243.582 159.297L243.338 160.342L241.277 160.576C241.544 160.98 241.678 161.494 241.678 162.119C241.678 163.363 241.297 164.355 240.535 165.098C239.78 165.833 238.768 166.201 237.498 166.201C237.14 166.201 236.867 166.175 236.678 166.123C235.773 166.468 235.32 166.895 235.32 167.402C235.32 167.669 235.428 167.848 235.643 167.939C235.857 168.024 236.17 168.092 236.58 168.145L237.723 168.281C238.901 168.424 239.754 168.711 240.281 169.141C240.815 169.57 241.082 170.202 241.082 171.035C241.082 172.233 240.607 173.161 239.656 173.818C238.706 174.476 237.368 174.805 235.643 174.805C234.38 174.805 233.39 174.564 232.674 174.082C231.958 173.607 231.6 172.933 231.6 172.061C231.6 171.377 231.834 170.785 232.303 170.283C232.771 169.782 233.53 169.355 234.578 169.004C234.07 168.737 233.816 168.343 233.816 167.822C233.816 167.373 233.982 166.989 234.314 166.67C234.646 166.344 235.109 166.042 235.701 165.762C235.291 165.553 234.956 165.247 234.695 164.844C234.435 164.434 234.305 163.958 234.305 163.418C234.305 162.155 234.692 161.12 235.467 160.312C236.248 159.505 237.244 159.102 238.455 159.102C238.963 159.102 239.464 159.167 239.959 159.297H243.582ZM233.182 171.904C233.182 172.406 233.393 172.803 233.816 173.096C234.24 173.389 234.868 173.535 235.701 173.535C236.886 173.535 237.811 173.327 238.475 172.91C239.145 172.5 239.48 171.917 239.48 171.162C239.48 170.758 239.305 170.439 238.953 170.205C238.602 169.971 238.003 169.808 237.156 169.717L235.604 169.561C234.822 169.723 234.223 170.01 233.807 170.42C233.39 170.83 233.182 171.325 233.182 171.904ZM235.896 163.359C235.896 163.913 236.043 164.336 236.336 164.629C236.629 164.915 237.036 165.059 237.557 165.059C238.071 165.059 238.52 164.922 238.904 164.648C239.288 164.375 239.581 164.001 239.783 163.525C239.992 163.044 240.096 162.523 240.096 161.963C240.096 161.429 239.952 161.022 239.666 160.742C239.38 160.462 238.969 160.322 238.436 160.322C237.928 160.322 237.482 160.456 237.098 160.723C236.72 160.983 236.424 161.351 236.209 161.826C236.001 162.295 235.896 162.806 235.896 163.359ZM247.664 170.195C246.466 170.195 245.525 169.84 244.842 169.131C244.158 168.421 243.816 167.438 243.816 166.182C243.816 164.958 244.057 163.786 244.539 162.666C245.027 161.54 245.672 160.664 246.473 160.039C247.273 159.414 248.156 159.102 249.119 159.102C250.115 159.102 250.864 159.32 251.365 159.756C251.867 160.186 252.117 160.788 252.117 161.562C252.117 162.734 251.577 163.656 250.496 164.326C249.415 164.99 247.869 165.322 245.857 165.322H245.535L245.496 166.104C245.496 166.956 245.695 167.624 246.092 168.105C246.495 168.581 247.117 168.818 247.957 168.818C248.367 168.818 248.787 168.76 249.217 168.643C249.653 168.525 250.193 168.311 250.838 167.998V169.424C250.226 169.71 249.686 169.909 249.217 170.02C248.748 170.137 248.23 170.195 247.664 170.195ZM249.021 160.498C248.351 160.498 247.719 160.804 247.127 161.416C246.541 162.028 246.092 162.878 245.779 163.965H245.896C247.381 163.965 248.517 163.773 249.305 163.389C250.099 162.998 250.496 162.435 250.496 161.699C250.496 161.354 250.376 161.068 250.135 160.84C249.9 160.612 249.529 160.498 249.021 160.498ZM256.58 168.857C256.938 168.857 257.407 168.773 257.986 168.604V169.863C257.765 169.954 257.492 170.033 257.166 170.098C256.84 170.163 256.58 170.195 256.385 170.195C255.571 170.195 254.946 170.003 254.51 169.619C254.08 169.229 253.865 168.649 253.865 167.881C253.865 167.451 253.924 166.963 254.041 166.416L255.281 160.537H253.602L253.738 159.824L255.545 159.062L256.766 156.836H257.723L257.186 159.297H259.861L259.607 160.537H256.941L255.682 166.436C255.564 167.002 255.506 167.432 255.506 167.725C255.506 168.089 255.6 168.369 255.789 168.564C255.978 168.76 256.242 168.857 256.58 168.857ZM270.682 159.16C271.919 159.16 272.895 159.528 273.611 160.264C274.327 160.993 274.686 161.999 274.686 163.281C274.686 164.505 274.451 165.661 273.982 166.748C273.514 167.835 272.879 168.675 272.078 169.268C271.277 169.86 270.372 170.156 269.363 170.156C268.113 170.156 267.133 169.788 266.424 169.053C265.714 168.317 265.359 167.311 265.359 166.035C265.359 164.798 265.597 163.636 266.072 162.549C266.548 161.455 267.189 160.618 267.996 160.039C268.803 159.453 269.699 159.16 270.682 159.16ZM272.986 163.057C272.986 162.308 272.781 161.702 272.371 161.24C271.967 160.771 271.417 160.537 270.721 160.537C270.011 160.537 269.373 160.778 268.807 161.26C268.247 161.742 267.811 162.412 267.498 163.271C267.192 164.124 267.039 165.075 267.039 166.123C267.039 166.976 267.244 167.637 267.654 168.105C268.071 168.568 268.667 168.799 269.441 168.799C270.118 168.799 270.727 168.561 271.268 168.086C271.808 167.611 272.228 166.937 272.527 166.064C272.833 165.186 272.986 164.183 272.986 163.057ZM280.037 159.297L278.572 166.084C278.455 166.663 278.396 167.116 278.396 167.441C278.396 168.372 278.875 168.838 279.832 168.838C280.405 168.838 280.968 168.643 281.521 168.252C282.075 167.861 282.563 167.301 282.986 166.572C283.41 165.843 283.732 164.964 283.953 163.936L284.93 159.297H286.551L284.295 170H282.938L283.152 168.018H283.035C282.397 168.831 281.788 169.398 281.209 169.717C280.63 170.036 280.031 170.195 279.412 170.195C278.579 170.195 277.924 169.971 277.449 169.521C276.974 169.066 276.736 168.418 276.736 167.578C276.736 167.174 276.808 166.615 276.951 165.898L278.377 159.297H280.037ZM291.033 168.857C291.391 168.857 291.86 168.773 292.439 168.604V169.863C292.218 169.954 291.945 170.033 291.619 170.098C291.294 170.163 291.033 170.195 290.838 170.195C290.024 170.195 289.399 170.003 288.963 169.619C288.533 169.229 288.318 168.649 288.318 167.881C288.318 167.451 288.377 166.963 288.494 166.416L289.734 160.537H288.055L288.191 159.824L289.998 159.062L291.219 156.836H292.176L291.639 159.297H294.314L294.061 160.537H291.395L290.135 166.436C290.018 167.002 289.959 167.432 289.959 167.725C289.959 168.089 290.053 168.369 290.242 168.564C290.431 168.76 290.695 168.857 291.033 168.857ZM305.135 159.16C306.372 159.16 307.348 159.528 308.064 160.264C308.781 160.993 309.139 161.999 309.139 163.281C309.139 164.505 308.904 165.661 308.436 166.748C307.967 167.835 307.332 168.675 306.531 169.268C305.73 169.86 304.826 170.156 303.816 170.156C302.566 170.156 301.587 169.788 300.877 169.053C300.167 168.317 299.812 167.311 299.812 166.035C299.812 164.798 300.05 163.636 300.525 162.549C301.001 161.455 301.642 160.618 302.449 160.039C303.257 159.453 304.152 159.16 305.135 159.16ZM307.439 163.057C307.439 162.308 307.234 161.702 306.824 161.24C306.421 160.771 305.87 160.537 305.174 160.537C304.464 160.537 303.826 160.778 303.26 161.26C302.7 161.742 302.264 162.412 301.951 163.271C301.645 164.124 301.492 165.075 301.492 166.123C301.492 166.976 301.697 167.637 302.107 168.105C302.524 168.568 303.12 168.799 303.895 168.799C304.572 168.799 305.18 168.561 305.721 168.086C306.261 167.611 306.681 166.937 306.98 166.064C307.286 165.186 307.439 164.183 307.439 163.057ZM309.07 174.805C308.621 174.805 308.214 174.736 307.85 174.6V173.223C308.266 173.366 308.631 173.438 308.943 173.438C309.438 173.438 309.819 173.236 310.086 172.832C310.353 172.428 310.568 171.852 310.73 171.104L312.947 160.537H311.062L311.189 159.883L313.201 159.238L313.426 158.262C313.725 156.96 314.139 156.042 314.666 155.508C315.2 154.967 315.988 154.697 317.029 154.697C317.29 154.697 317.609 154.736 317.986 154.814C318.364 154.886 318.657 154.967 318.865 155.059L318.445 156.318C317.951 156.13 317.505 156.035 317.107 156.035C316.541 156.035 316.105 156.195 315.799 156.514C315.499 156.826 315.255 157.402 315.066 158.242L314.822 159.297H317.146L316.902 160.537H314.588L312.322 171.26C312.068 172.49 311.678 173.389 311.15 173.955C310.623 174.521 309.93 174.805 309.07 174.805ZM325.408 168.857C325.766 168.857 326.235 168.773 326.814 168.604V169.863C326.593 169.954 326.32 170.033 325.994 170.098C325.669 170.163 325.408 170.195 325.213 170.195C324.399 170.195 323.774 170.003 323.338 169.619C322.908 169.229 322.693 168.649 322.693 167.881C322.693 167.451 322.752 166.963 322.869 166.416L324.109 160.537H322.43L322.566 159.824L324.373 159.062L325.594 156.836H326.551L326.014 159.297H328.689L328.436 160.537H325.77L324.51 166.436C324.393 167.002 324.334 167.432 324.334 167.725C324.334 168.089 324.428 168.369 324.617 168.564C324.806 168.76 325.07 168.857 325.408 168.857ZM335.154 170L336.6 163.242C336.717 162.63 336.775 162.191 336.775 161.924C336.775 160.96 336.297 160.479 335.34 160.479C334.76 160.479 334.194 160.671 333.641 161.055C333.094 161.439 332.609 161.999 332.186 162.734C331.769 163.464 331.453 164.346 331.238 165.381L330.252 170H328.611L331.834 154.805H333.475C333.357 155.339 333.243 155.856 333.133 156.357C333.029 156.859 332.918 157.37 332.801 157.891C332.69 158.405 332.566 158.945 332.43 159.512C332.299 160.078 332.146 160.693 331.971 161.357H332.078C332.69 160.557 333.292 159.984 333.885 159.639C334.484 159.294 335.109 159.121 335.76 159.121C336.613 159.121 337.27 159.355 337.732 159.824C338.201 160.293 338.436 160.957 338.436 161.816C338.436 162.22 338.361 162.76 338.211 163.438C337.957 164.694 337.485 166.882 336.795 170H335.154ZM344.383 170.195C343.185 170.195 342.244 169.84 341.561 169.131C340.877 168.421 340.535 167.438 340.535 166.182C340.535 164.958 340.776 163.786 341.258 162.666C341.746 161.54 342.391 160.664 343.191 160.039C343.992 159.414 344.874 159.102 345.838 159.102C346.834 159.102 347.583 159.32 348.084 159.756C348.585 160.186 348.836 160.788 348.836 161.562C348.836 162.734 348.296 163.656 347.215 164.326C346.134 164.99 344.588 165.322 342.576 165.322H342.254L342.215 166.104C342.215 166.956 342.413 167.624 342.811 168.105C343.214 168.581 343.836 168.818 344.676 168.818C345.086 168.818 345.506 168.76 345.936 168.643C346.372 168.525 346.912 168.311 347.557 167.998V169.424C346.945 169.71 346.404 169.909 345.936 170.02C345.467 170.137 344.949 170.195 344.383 170.195ZM345.74 160.498C345.07 160.498 344.438 160.804 343.846 161.416C343.26 162.028 342.811 162.878 342.498 163.965H342.615C344.1 163.965 345.236 163.773 346.023 163.389C346.818 162.998 347.215 162.435 347.215 161.699C347.215 161.354 347.094 161.068 346.854 160.84C346.619 160.612 346.248 160.498 345.74 160.498ZM360.877 159.121C362.14 159.121 363.055 159.74 363.621 160.977H363.719C363.829 159.967 363.976 159.076 364.158 158.301L364.92 154.805H366.541L363.318 170H361.961L362.176 167.959H362.098C361.44 168.773 360.825 169.349 360.252 169.688C359.679 170.026 359.087 170.195 358.475 170.195C357.57 170.195 356.863 169.876 356.355 169.238C355.848 168.6 355.594 167.715 355.594 166.582C355.594 165.189 355.828 163.913 356.297 162.754C356.766 161.595 357.397 160.7 358.191 160.068C358.992 159.437 359.887 159.121 360.877 159.121ZM359.021 168.838C359.633 168.838 360.265 168.535 360.916 167.93C361.567 167.318 362.081 166.54 362.459 165.596C362.843 164.645 363.035 163.678 363.035 162.695C363.035 161.973 362.859 161.423 362.508 161.045C362.156 160.667 361.645 160.479 360.975 160.479C360.317 160.479 359.705 160.749 359.139 161.289C358.579 161.823 358.126 162.578 357.781 163.555C357.443 164.525 357.273 165.547 357.273 166.621C357.273 168.099 357.856 168.838 359.021 168.838ZM372.459 159.16C373.696 159.16 374.673 159.528 375.389 160.264C376.105 160.993 376.463 161.999 376.463 163.281C376.463 164.505 376.229 165.661 375.76 166.748C375.291 167.835 374.656 168.675 373.855 169.268C373.055 169.86 372.15 170.156 371.141 170.156C369.891 170.156 368.911 169.788 368.201 169.053C367.492 168.317 367.137 167.311 367.137 166.035C367.137 164.798 367.374 163.636 367.85 162.549C368.325 161.455 368.966 160.618 369.773 160.039C370.581 159.453 371.476 159.16 372.459 159.16ZM374.764 163.057C374.764 162.308 374.559 161.702 374.148 161.24C373.745 160.771 373.195 160.537 372.498 160.537C371.788 160.537 371.15 160.778 370.584 161.26C370.024 161.742 369.588 162.412 369.275 163.271C368.969 164.124 368.816 165.075 368.816 166.123C368.816 166.976 369.021 167.637 369.432 168.105C369.848 168.568 370.444 168.799 371.219 168.799C371.896 168.799 372.505 168.561 373.045 168.086C373.585 167.611 374.005 166.937 374.305 166.064C374.611 165.186 374.764 164.183 374.764 163.057ZM383.689 159.16C384.926 159.16 385.903 159.528 386.619 160.264C387.335 160.993 387.693 161.999 387.693 163.281C387.693 164.505 387.459 165.661 386.99 166.748C386.521 167.835 385.887 168.675 385.086 169.268C384.285 169.86 383.38 170.156 382.371 170.156C381.121 170.156 380.141 169.788 379.432 169.053C378.722 168.317 378.367 167.311 378.367 166.035C378.367 164.798 378.605 163.636 379.08 162.549C379.555 161.455 380.197 160.618 381.004 160.039C381.811 159.453 382.706 159.16 383.689 159.16ZM385.994 163.057C385.994 162.308 385.789 161.702 385.379 161.24C384.975 160.771 384.425 160.537 383.729 160.537C383.019 160.537 382.381 160.778 381.814 161.26C381.255 161.742 380.818 162.412 380.506 163.271C380.2 164.124 380.047 165.075 380.047 166.123C380.047 166.976 380.252 167.637 380.662 168.105C381.079 168.568 381.674 168.799 382.449 168.799C383.126 168.799 383.735 168.561 384.275 168.086C384.816 167.611 385.236 166.937 385.535 166.064C385.841 165.186 385.994 164.183 385.994 163.057ZM395.984 159.102C396.434 159.102 396.824 159.147 397.156 159.238L396.805 160.703C396.46 160.618 396.118 160.576 395.779 160.576C395.187 160.576 394.63 160.771 394.109 161.162C393.595 161.553 393.143 162.096 392.752 162.793C392.368 163.483 392.085 164.251 391.902 165.098L390.857 170H389.217L391.502 159.297H392.859L392.645 161.279H392.742C393.211 160.661 393.598 160.218 393.904 159.951C394.21 159.678 394.529 159.469 394.861 159.326C395.2 159.176 395.574 159.102 395.984 159.102ZM30.1152 200L29.8027 194.121C29.7767 193.509 29.7637 192.949 29.7637 192.441V190.918H29.6758L29.1875 192.07L28.377 193.916L25.5352 200H23.5625L23.1426 189.297H24.7441L24.9199 195.098V195.957C24.9199 196.914 24.8939 197.79 24.8418 198.584H24.9004C25.2064 197.777 25.6523 196.729 26.2383 195.439L29.1191 189.297H30.8965L31.2578 195.098C31.2969 196.191 31.3164 197.044 31.3164 197.656V198.174L31.2969 198.584H31.3555C31.5378 198.024 31.8079 197.314 32.166 196.455C32.5241 195.589 33.5755 193.203 35.3203 189.297H37.0586L32.1172 200H30.1152ZM43.4551 200L44.9004 193.242C45.0176 192.63 45.0762 192.191 45.0762 191.924C45.0762 190.96 44.5977 190.479 43.6406 190.479C43.0612 190.479 42.4948 190.671 41.9414 191.055C41.3945 191.439 40.9095 191.999 40.4863 192.734C40.0697 193.464 39.7539 194.346 39.5391 195.381L38.5527 200H36.9121L40.1348 184.805H41.7754C41.6582 185.339 41.5443 185.856 41.4336 186.357C41.3294 186.859 41.2188 187.37 41.1016 187.891C40.9909 188.405 40.8672 188.945 40.7305 189.512C40.6003 190.078 40.4473 190.693 40.2715 191.357H40.3789C40.9909 190.557 41.5931 189.984 42.1855 189.639C42.7845 189.294 43.4095 189.121 44.0605 189.121C44.9134 189.121 45.571 189.355 46.0332 189.824C46.502 190.293 46.7363 190.957 46.7363 191.816C46.7363 192.22 46.6615 192.76 46.5117 193.438C46.2578 194.694 45.7858 196.882 45.0957 200H43.4551ZM52.6836 200.195C51.4857 200.195 50.5449 199.84 49.8613 199.131C49.1777 198.421 48.8359 197.438 48.8359 196.182C48.8359 194.958 49.0768 193.786 49.5586 192.666C50.0469 191.54 50.6914 190.664 51.4922 190.039C52.293 189.414 53.1751 189.102 54.1387 189.102C55.1348 189.102 55.8835 189.32 56.3848 189.756C56.8861 190.186 57.1367 190.788 57.1367 191.562C57.1367 192.734 56.5964 193.656 55.5156 194.326C54.4349 194.99 52.8887 195.322 50.877 195.322H50.5547L50.5156 196.104C50.5156 196.956 50.7142 197.624 51.1113 198.105C51.515 198.581 52.1367 198.818 52.9766 198.818C53.3867 198.818 53.8066 198.76 54.2363 198.643C54.6725 198.525 55.2129 198.311 55.8574 197.998V199.424C55.2454 199.71 54.7051 199.909 54.2363 200.02C53.7676 200.137 53.25 200.195 52.6836 200.195ZM54.041 190.498C53.3704 190.498 52.7389 190.804 52.1465 191.416C51.5605 192.028 51.1113 192.878 50.7988 193.965H50.916C52.4004 193.965 53.5365 193.773 54.3242 193.389C55.1185 192.998 55.5156 192.435 55.5156 191.699C55.5156 191.354 55.3952 191.068 55.1543 190.84C54.9199 190.612 54.5488 190.498 54.041 190.498ZM64.8613 200L66.3066 193.242C66.4368 192.565 66.502 192.096 66.502 191.836C66.502 191.426 66.3848 191.097 66.1504 190.85C65.9225 190.602 65.5547 190.479 65.0469 190.479C64.4674 190.479 63.901 190.674 63.3477 191.064C62.8008 191.455 62.3158 192.012 61.8926 192.734C61.4759 193.457 61.1602 194.333 60.9453 195.361L59.959 200H58.3184L60.6035 189.297H61.9609L61.7461 191.279H61.8438C62.4688 190.485 63.071 189.925 63.6504 189.6C64.2363 189.268 64.8418 189.102 65.4668 189.102C66.2936 189.102 66.9447 189.329 67.4199 189.785C67.9017 190.234 68.1426 190.866 68.1426 191.68C68.1426 192.194 68.0677 192.78 67.918 193.438L66.5215 200H64.8613ZM79.8027 200.195C79.1712 200.195 78.6146 200.029 78.1328 199.697C77.6576 199.365 77.2995 198.913 77.0586 198.34H76.9609L76.2773 200H75.0566L78.2793 184.805H79.9199C79.5879 186.38 79.3307 187.588 79.1484 188.428C78.9727 189.261 78.7285 190.238 78.416 191.357H78.5039C79.1094 190.589 79.7051 190.026 80.291 189.668C80.8835 189.303 81.4922 189.121 82.1172 189.121C83.0352 189.121 83.7513 189.443 84.2656 190.088C84.7799 190.732 85.0371 191.618 85.0371 192.744C85.0371 194.105 84.8125 195.365 84.3633 196.523C83.9206 197.676 83.2988 198.577 82.498 199.229C81.7038 199.873 80.8053 200.195 79.8027 200.195ZM81.6191 190.479C80.9941 190.479 80.3561 190.788 79.7051 191.406C79.0605 192.025 78.5462 192.803 78.1621 193.74C77.7845 194.678 77.5957 195.638 77.5957 196.621C77.5957 197.337 77.7747 197.887 78.1328 198.271C78.4974 198.649 79.0215 198.838 79.7051 198.838C80.3496 198.838 80.9486 198.574 81.502 198.047C82.0618 197.52 82.5111 196.771 82.8496 195.801C83.1882 194.824 83.3574 193.789 83.3574 192.695C83.3574 191.217 82.778 190.479 81.6191 190.479ZM90.8281 200.195C89.6302 200.195 88.6895 199.84 88.0059 199.131C87.3223 198.421 86.9805 197.438 86.9805 196.182C86.9805 194.958 87.2214 193.786 87.7031 192.666C88.1914 191.54 88.8359 190.664 89.6367 190.039C90.4375 189.414 91.3197 189.102 92.2832 189.102C93.2793 189.102 94.028 189.32 94.5293 189.756C95.0306 190.186 95.2812 190.788 95.2812 191.562C95.2812 192.734 94.7409 193.656 93.6602 194.326C92.5794 194.99 91.0332 195.322 89.0215 195.322H88.6992L88.6602 196.104C88.6602 196.956 88.8587 197.624 89.2559 198.105C89.6595 198.581 90.2812 198.818 91.1211 198.818C91.5312 198.818 91.9512 198.76 92.3809 198.643C92.8171 198.525 93.3574 198.311 94.002 197.998V199.424C93.39 199.71 92.8496 199.909 92.3809 200.02C91.9121 200.137 91.3945 200.195 90.8281 200.195ZM92.1855 190.498C91.515 190.498 90.8835 190.804 90.291 191.416C89.7051 192.028 89.2559 192.878 88.9434 193.965H89.0605C90.5449 193.965 91.681 193.773 92.4688 193.389C93.263 192.998 93.6602 192.435 93.6602 191.699C93.6602 191.354 93.5397 191.068 93.2988 190.84C93.0645 190.612 92.6934 190.498 92.1855 190.498ZM94.8711 204.805C94.4219 204.805 94.015 204.736 93.6504 204.6V203.223C94.0671 203.366 94.4316 203.438 94.7441 203.438C95.2389 203.438 95.6198 203.236 95.8867 202.832C96.1536 202.428 96.3685 201.852 96.5312 201.104L98.748 190.537H96.8633L96.9902 189.883L99.002 189.238L99.2266 188.262C99.526 186.96 99.9395 186.042 100.467 185.508C101.001 184.967 101.788 184.697 102.83 184.697C103.09 184.697 103.41 184.736 103.787 184.814C104.165 184.886 104.458 184.967 104.666 185.059L104.246 186.318C103.751 186.13 103.305 186.035 102.908 186.035C102.342 186.035 101.906 186.195 101.6 186.514C101.3 186.826 101.056 187.402 100.867 188.242L100.623 189.297H102.947L102.703 190.537H100.389L98.123 201.26C97.8691 202.49 97.4785 203.389 96.9512 203.955C96.4238 204.521 95.7305 204.805 94.8711 204.805ZM108.436 189.16C109.673 189.16 110.649 189.528 111.365 190.264C112.081 190.993 112.439 191.999 112.439 193.281C112.439 194.505 112.205 195.661 111.736 196.748C111.268 197.835 110.633 198.675 109.832 199.268C109.031 199.86 108.126 200.156 107.117 200.156C105.867 200.156 104.887 199.788 104.178 199.053C103.468 198.317 103.113 197.311 103.113 196.035C103.113 194.798 103.351 193.636 103.826 192.549C104.301 191.455 104.943 190.618 105.75 190.039C106.557 189.453 107.452 189.16 108.436 189.16ZM110.74 193.057C110.74 192.308 110.535 191.702 110.125 191.24C109.721 190.771 109.171 190.537 108.475 190.537C107.765 190.537 107.127 190.778 106.561 191.26C106.001 191.742 105.564 192.412 105.252 193.271C104.946 194.124 104.793 195.075 104.793 196.123C104.793 196.976 104.998 197.637 105.408 198.105C105.825 198.568 106.421 198.799 107.195 198.799C107.872 198.799 108.481 198.561 109.021 198.086C109.562 197.611 109.982 196.937 110.281 196.064C110.587 195.186 110.74 194.183 110.74 193.057ZM120.73 189.102C121.18 189.102 121.57 189.147 121.902 189.238L121.551 190.703C121.206 190.618 120.864 190.576 120.525 190.576C119.933 190.576 119.376 190.771 118.855 191.162C118.341 191.553 117.889 192.096 117.498 192.793C117.114 193.483 116.831 194.251 116.648 195.098L115.604 200H113.963L116.248 189.297H117.605L117.391 191.279H117.488C117.957 190.661 118.344 190.218 118.65 189.951C118.956 189.678 119.275 189.469 119.607 189.326C119.946 189.176 120.32 189.102 120.73 189.102ZM126.121 200.195C124.923 200.195 123.982 199.84 123.299 199.131C122.615 198.421 122.273 197.438 122.273 196.182C122.273 194.958 122.514 193.786 122.996 192.666C123.484 191.54 124.129 190.664 124.93 190.039C125.73 189.414 126.613 189.102 127.576 189.102C128.572 189.102 129.321 189.32 129.822 189.756C130.324 190.186 130.574 190.788 130.574 191.562C130.574 192.734 130.034 193.656 128.953 194.326C127.872 194.99 126.326 195.322 124.314 195.322H123.992L123.953 196.104C123.953 196.956 124.152 197.624 124.549 198.105C124.952 198.581 125.574 198.818 126.414 198.818C126.824 198.818 127.244 198.76 127.674 198.643C128.11 198.525 128.65 198.311 129.295 197.998V199.424C128.683 199.71 128.143 199.909 127.674 200.02C127.205 200.137 126.688 200.195 126.121 200.195ZM127.479 190.498C126.808 190.498 126.176 190.804 125.584 191.416C124.998 192.028 124.549 192.878 124.236 193.965H124.354C125.838 193.965 126.974 193.773 127.762 193.389C128.556 192.998 128.953 192.435 128.953 191.699C128.953 191.354 128.833 191.068 128.592 190.84C128.357 190.612 127.986 190.498 127.479 190.498ZM138.592 200H136.951L139.236 189.297H140.877L138.592 200ZM139.695 186.562C139.695 186.198 139.799 185.902 140.008 185.674C140.216 185.439 140.486 185.322 140.818 185.322C141.391 185.322 141.678 185.615 141.678 186.201C141.678 186.559 141.567 186.862 141.346 187.109C141.131 187.357 140.88 187.48 140.594 187.48C140.333 187.48 140.118 187.402 139.949 187.246C139.78 187.083 139.695 186.855 139.695 186.562ZM145.311 198.857C145.669 198.857 146.137 198.773 146.717 198.604V199.863C146.495 199.954 146.222 200.033 145.896 200.098C145.571 200.163 145.311 200.195 145.115 200.195C144.301 200.195 143.676 200.003 143.24 199.619C142.811 199.229 142.596 198.649 142.596 197.881C142.596 197.451 142.654 196.963 142.771 196.416L144.012 190.537H142.332L142.469 189.824L144.275 189.062L145.496 186.836H146.453L145.916 189.297H148.592L148.338 190.537H145.672L144.412 196.436C144.295 197.002 144.236 197.432 144.236 197.725C144.236 198.089 144.331 198.369 144.52 198.564C144.708 198.76 144.972 198.857 145.311 198.857ZM161.248 200L160.936 194.121C160.91 193.509 160.896 192.949 160.896 192.441V190.918H160.809L160.32 192.07L159.51 193.916L156.668 200H154.695L154.275 189.297H155.877L156.053 195.098V195.957C156.053 196.914 156.027 197.79 155.975 198.584H156.033C156.339 197.777 156.785 196.729 157.371 195.439L160.252 189.297H162.029L162.391 195.098C162.43 196.191 162.449 197.044 162.449 197.656V198.174L162.43 198.584H162.488C162.671 198.024 162.941 197.314 163.299 196.455C163.657 195.589 164.708 193.203 166.453 189.297H168.191L163.25 200H161.248ZM173.748 189.16C174.985 189.16 175.962 189.528 176.678 190.264C177.394 190.993 177.752 191.999 177.752 193.281C177.752 194.505 177.518 195.661 177.049 196.748C176.58 197.835 175.945 198.675 175.145 199.268C174.344 199.86 173.439 200.156 172.43 200.156C171.18 200.156 170.2 199.788 169.49 199.053C168.781 198.317 168.426 197.311 168.426 196.035C168.426 194.798 168.663 193.636 169.139 192.549C169.614 191.455 170.255 190.618 171.062 190.039C171.87 189.453 172.765 189.16 173.748 189.16ZM176.053 193.057C176.053 192.308 175.848 191.702 175.438 191.24C175.034 190.771 174.484 190.537 173.787 190.537C173.077 190.537 172.439 190.778 171.873 191.26C171.313 191.742 170.877 192.412 170.564 193.271C170.258 194.124 170.105 195.075 170.105 196.123C170.105 196.976 170.311 197.637 170.721 198.105C171.137 198.568 171.733 198.799 172.508 198.799C173.185 198.799 173.794 198.561 174.334 198.086C174.874 197.611 175.294 196.937 175.594 196.064C175.9 195.186 176.053 194.183 176.053 193.057ZM183.104 189.297L181.639 196.084C181.521 196.663 181.463 197.116 181.463 197.441C181.463 198.372 181.941 198.838 182.898 198.838C183.471 198.838 184.035 198.643 184.588 198.252C185.141 197.861 185.63 197.301 186.053 196.572C186.476 195.843 186.798 194.964 187.02 193.936L187.996 189.297H189.617L187.361 200H186.004L186.219 198.018H186.102C185.464 198.831 184.855 199.398 184.275 199.717C183.696 200.036 183.097 200.195 182.479 200.195C181.645 200.195 180.991 199.971 180.516 199.521C180.04 199.066 179.803 198.418 179.803 197.578C179.803 197.174 179.874 196.615 180.018 195.898L181.443 189.297H183.104ZM192.439 200H190.799L194.041 184.805H195.682L192.439 200ZM201.561 189.121C202.824 189.121 203.738 189.74 204.305 190.977H204.402C204.513 189.967 204.66 189.076 204.842 188.301L205.604 184.805H207.225L204.002 200H202.645L202.859 197.959H202.781C202.124 198.773 201.508 199.349 200.936 199.688C200.363 200.026 199.77 200.195 199.158 200.195C198.253 200.195 197.547 199.876 197.039 199.238C196.531 198.6 196.277 197.715 196.277 196.582C196.277 195.189 196.512 193.913 196.98 192.754C197.449 191.595 198.081 190.7 198.875 190.068C199.676 189.437 200.571 189.121 201.561 189.121ZM199.705 198.838C200.317 198.838 200.949 198.535 201.6 197.93C202.251 197.318 202.765 196.54 203.143 195.596C203.527 194.645 203.719 193.678 203.719 192.695C203.719 191.973 203.543 191.423 203.191 191.045C202.84 190.667 202.329 190.479 201.658 190.479C201.001 190.479 200.389 190.749 199.822 191.289C199.262 191.823 198.81 192.578 198.465 193.555C198.126 194.525 197.957 195.547 197.957 196.621C197.957 198.099 198.54 198.838 199.705 198.838ZM215.916 198.857C216.274 198.857 216.743 198.773 217.322 198.604V199.863C217.101 199.954 216.827 200.033 216.502 200.098C216.176 200.163 215.916 200.195 215.721 200.195C214.907 200.195 214.282 200.003 213.846 199.619C213.416 199.229 213.201 198.649 213.201 197.881C213.201 197.451 213.26 196.963 213.377 196.416L214.617 190.537H212.938L213.074 189.824L214.881 189.062L216.102 186.836H217.059L216.521 189.297H219.197L218.943 190.537H216.277L215.018 196.436C214.9 197.002 214.842 197.432 214.842 197.725C214.842 198.089 214.936 198.369 215.125 198.564C215.314 198.76 215.577 198.857 215.916 198.857ZM224.783 189.102C225.382 189.102 225.916 189.264 226.385 189.59C226.854 189.909 227.218 190.371 227.479 190.977H227.586L228.24 189.297H229.48L227.205 200H225.906L226.16 197.959H226.082C224.917 199.45 223.689 200.195 222.4 200.195C221.495 200.195 220.786 199.873 220.271 199.229C219.757 198.584 219.5 197.702 219.5 196.582C219.5 195.228 219.731 193.971 220.193 192.812C220.656 191.654 221.294 190.745 222.107 190.088C222.921 189.43 223.813 189.102 224.783 189.102ZM222.928 198.838C223.559 198.838 224.188 198.538 224.812 197.939C225.438 197.334 225.945 196.549 226.336 195.586C226.727 194.616 226.922 193.646 226.922 192.676C226.922 192.005 226.74 191.471 226.375 191.074C226.01 190.677 225.532 190.479 224.939 190.479C224.262 190.479 223.631 190.758 223.045 191.318C222.465 191.878 222.01 192.637 221.678 193.594C221.346 194.551 221.18 195.56 221.18 196.621C221.18 197.363 221.333 197.92 221.639 198.291C221.945 198.656 222.374 198.838 222.928 198.838ZM233.074 194.541L238.211 189.297H240.174L235.594 193.857L238.475 200H236.648L234.354 194.883L232.869 196.084L232.068 200H230.408L233.631 184.805H235.291C234.822 186.992 234.402 188.952 234.031 190.684C233.66 192.415 233.328 193.701 233.035 194.541H233.074ZM244.422 200.195C243.224 200.195 242.283 199.84 241.6 199.131C240.916 198.421 240.574 197.438 240.574 196.182C240.574 194.958 240.815 193.786 241.297 192.666C241.785 191.54 242.43 190.664 243.23 190.039C244.031 189.414 244.913 189.102 245.877 189.102C246.873 189.102 247.622 189.32 248.123 189.756C248.624 190.186 248.875 190.788 248.875 191.562C248.875 192.734 248.335 193.656 247.254 194.326C246.173 194.99 244.627 195.322 242.615 195.322H242.293L242.254 196.104C242.254 196.956 242.452 197.624 242.85 198.105C243.253 198.581 243.875 198.818 244.715 198.818C245.125 198.818 245.545 198.76 245.975 198.643C246.411 198.525 246.951 198.311 247.596 197.998V199.424C246.984 199.71 246.443 199.909 245.975 200.02C245.506 200.137 244.988 200.195 244.422 200.195ZM245.779 190.498C245.109 190.498 244.477 190.804 243.885 191.416C243.299 192.028 242.85 192.878 242.537 193.965H242.654C244.139 193.965 245.275 193.773 246.062 193.389C246.857 192.998 247.254 192.435 247.254 191.699C247.254 191.354 247.133 191.068 246.893 190.84C246.658 190.612 246.287 190.498 245.779 190.498ZM260.916 189.102C261.515 189.102 262.049 189.264 262.518 189.59C262.986 189.909 263.351 190.371 263.611 190.977H263.719L264.373 189.297H265.613L263.338 200H262.039L262.293 197.959H262.215C261.049 199.45 259.822 200.195 258.533 200.195C257.628 200.195 256.919 199.873 256.404 199.229C255.89 198.584 255.633 197.702 255.633 196.582C255.633 195.228 255.864 193.971 256.326 192.812C256.788 191.654 257.426 190.745 258.24 190.088C259.054 189.43 259.946 189.102 260.916 189.102ZM259.061 198.838C259.692 198.838 260.32 198.538 260.945 197.939C261.57 197.334 262.078 196.549 262.469 195.586C262.859 194.616 263.055 193.646 263.055 192.676C263.055 192.005 262.872 191.471 262.508 191.074C262.143 190.677 261.665 190.479 261.072 190.479C260.395 190.479 259.764 190.758 259.178 191.318C258.598 191.878 258.143 192.637 257.811 193.594C257.479 194.551 257.312 195.56 257.312 196.621C257.312 197.363 257.465 197.92 257.771 198.291C258.077 198.656 258.507 198.838 259.061 198.838ZM273.104 200L274.549 193.242C274.679 192.565 274.744 192.096 274.744 191.836C274.744 191.426 274.627 191.097 274.393 190.85C274.165 190.602 273.797 190.479 273.289 190.479C272.71 190.479 272.143 190.674 271.59 191.064C271.043 191.455 270.558 192.012 270.135 192.734C269.718 193.457 269.402 194.333 269.188 195.361L268.201 200H266.561L268.846 189.297H270.203L269.988 191.279H270.086C270.711 190.485 271.313 189.925 271.893 189.6C272.479 189.268 273.084 189.102 273.709 189.102C274.536 189.102 275.187 189.329 275.662 189.785C276.144 190.234 276.385 190.866 276.385 191.68C276.385 192.194 276.31 192.78 276.16 193.438L274.764 200H273.104ZM289.842 200L291.287 193.242C291.404 192.63 291.463 192.191 291.463 191.924C291.463 190.96 290.984 190.479 290.027 190.479C289.448 190.479 288.882 190.671 288.328 191.055C287.781 191.439 287.296 191.999 286.873 192.734C286.456 193.464 286.141 194.346 285.926 195.381L284.939 200H283.299L286.521 184.805H288.162C288.045 185.339 287.931 185.856 287.82 186.357C287.716 186.859 287.605 187.37 287.488 187.891C287.378 188.405 287.254 188.945 287.117 189.512C286.987 190.078 286.834 190.693 286.658 191.357H286.766C287.378 190.557 287.98 189.984 288.572 189.639C289.171 189.294 289.796 189.121 290.447 189.121C291.3 189.121 291.958 189.355 292.42 189.824C292.889 190.293 293.123 190.957 293.123 191.816C293.123 192.22 293.048 192.76 292.898 193.438C292.645 194.694 292.173 196.882 291.482 200H289.842ZM300.545 189.16C301.782 189.16 302.758 189.528 303.475 190.264C304.191 190.993 304.549 191.999 304.549 193.281C304.549 194.505 304.314 195.661 303.846 196.748C303.377 197.835 302.742 198.675 301.941 199.268C301.141 199.86 300.236 200.156 299.227 200.156C297.977 200.156 296.997 199.788 296.287 199.053C295.577 198.317 295.223 197.311 295.223 196.035C295.223 194.798 295.46 193.636 295.936 192.549C296.411 191.455 297.052 190.618 297.859 190.039C298.667 189.453 299.562 189.16 300.545 189.16ZM302.85 193.057C302.85 192.308 302.645 191.702 302.234 191.24C301.831 190.771 301.281 190.537 300.584 190.537C299.874 190.537 299.236 190.778 298.67 191.26C298.11 191.742 297.674 192.412 297.361 193.271C297.055 194.124 296.902 195.075 296.902 196.123C296.902 196.976 297.107 197.637 297.518 198.105C297.934 198.568 298.53 198.799 299.305 198.799C299.982 198.799 300.59 198.561 301.131 198.086C301.671 197.611 302.091 196.937 302.391 196.064C302.697 195.186 302.85 194.183 302.85 193.057ZM309.9 189.297L308.436 196.084C308.318 196.663 308.26 197.116 308.26 197.441C308.26 198.372 308.738 198.838 309.695 198.838C310.268 198.838 310.831 198.643 311.385 198.252C311.938 197.861 312.426 197.301 312.85 196.572C313.273 195.843 313.595 194.964 313.816 193.936L314.793 189.297H316.414L314.158 200H312.801L313.016 198.018H312.898C312.26 198.831 311.652 199.398 311.072 199.717C310.493 200.036 309.894 200.195 309.275 200.195C308.442 200.195 307.788 199.971 307.312 199.521C306.837 199.066 306.6 198.418 306.6 197.578C306.6 197.174 306.671 196.615 306.814 195.898L308.24 189.297H309.9ZM324.383 189.102C324.832 189.102 325.223 189.147 325.555 189.238L325.203 190.703C324.858 190.618 324.516 190.576 324.178 190.576C323.585 190.576 323.029 190.771 322.508 191.162C321.993 191.553 321.541 192.096 321.15 192.793C320.766 193.483 320.483 194.251 320.301 195.098L319.256 200H317.615L319.9 189.297H321.258L321.043 191.279H321.141C321.609 190.661 321.997 190.218 322.303 189.951C322.609 189.678 322.928 189.469 323.26 189.326C323.598 189.176 323.973 189.102 324.383 189.102ZM330.008 185.723L330.086 185.938C329.826 186.53 329.464 187.243 329.002 188.076C328.54 188.903 328.022 189.749 327.449 190.615H326.189C327.062 188.675 327.723 187.044 328.172 185.723H330.008ZM333.611 185.723L333.709 185.938C333.097 187.279 332.205 188.838 331.033 190.615H329.793C330.164 189.795 330.538 188.91 330.916 187.959C331.3 187.002 331.583 186.257 331.766 185.723H333.611Z" fill="#444444"/>
<path d="M30.8828 25.6152L30.8047 25.4004C31.3255 24.222 32.2109 22.6628 33.4609 20.7227H34.7012C33.6465 23.1901 32.9857 24.821 32.7188 25.6152H30.8828ZM27.2598 25.6152L27.2012 25.4004C27.8392 24.0267 28.7181 22.4674 29.8379 20.7227H31.0781C30.1211 22.9688 29.4603 24.5996 29.0957 25.6152H27.2598ZM43.627 35H41.9961L43.3926 28.2812H36.9473L35.5312 35H33.8711L36.8887 20.7227H38.5488L37.2695 26.7969H43.7148L45.0137 20.7227H46.6543L43.627 35ZM52.8457 24.1016C53.4447 24.1016 53.9785 24.2643 54.4473 24.5898C54.916 24.9089 55.2806 25.3711 55.541 25.9766H55.6484L56.3027 24.2969H57.543L55.2676 35H53.9688L54.2227 32.959H54.1445C52.9792 34.4499 51.752 35.1953 50.4629 35.1953C49.5579 35.1953 48.8483 34.873 48.334 34.2285C47.8197 33.584 47.5625 32.7018 47.5625 31.582C47.5625 30.2279 47.7936 28.9714 48.2559 27.8125C48.7181 26.6536 49.3561 25.7454 50.1699 25.0879C50.9837 24.4303 51.8757 24.1016 52.8457 24.1016ZM50.9902 33.8379C51.6217 33.8379 52.25 33.5384 52.875 32.9395C53.5 32.334 54.0078 31.5495 54.3984 30.5859C54.7891 29.6159 54.9844 28.6458 54.9844 27.6758C54.9844 27.0052 54.8021 26.4714 54.4375 26.0742C54.0729 25.6771 53.5944 25.4785 53.002 25.4785C52.3249 25.4785 51.6934 25.7585 51.1074 26.3184C50.528 26.8783 50.0723 27.6367 49.7402 28.5938C49.4082 29.5508 49.2422 30.5599 49.2422 31.6211C49.2422 32.3633 49.3952 32.9199 49.7012 33.291C50.0072 33.6556 50.4368 33.8379 50.9902 33.8379ZM65.0332 35L66.4785 28.2422C66.6087 27.5651 66.6738 27.0964 66.6738 26.8359C66.6738 26.4258 66.5566 26.097 66.3223 25.8496C66.0944 25.6022 65.7266 25.4785 65.2188 25.4785C64.6393 25.4785 64.0729 25.6738 63.5195 26.0645C62.9727 26.4551 62.4876 27.0117 62.0645 27.7344C61.6478 28.457 61.332 29.3327 61.1172 30.3613L60.1309 35H58.4902L60.7754 24.2969H62.1328L61.918 26.2793H62.0156C62.6406 25.485 63.2428 24.9251 63.8223 24.5996C64.4082 24.2676 65.0137 24.1016 65.6387 24.1016C66.4655 24.1016 67.1165 24.3294 67.5918 24.7852C68.0736 25.2344 68.3145 25.8659 68.3145 26.6797C68.3145 27.194 68.2396 27.7799 68.0898 28.4375L66.6934 35H65.0332ZM75.6973 24.1211C76.9603 24.1211 77.875 24.7396 78.4414 25.9766H78.5391C78.6497 24.9674 78.7962 24.0755 78.9785 23.3008L79.7402 19.8047H81.3613L78.1387 35H76.7812L76.9961 32.959H76.918C76.2604 33.7728 75.6452 34.349 75.0723 34.6875C74.4993 35.026 73.9069 35.1953 73.2949 35.1953C72.39 35.1953 71.6836 34.8763 71.1758 34.2383C70.668 33.6003 70.4141 32.7148 70.4141 31.582C70.4141 30.1888 70.6484 28.9128 71.1172 27.7539C71.5859 26.5951 72.2174 25.6999 73.0117 25.0684C73.8125 24.4368 74.7077 24.1211 75.6973 24.1211ZM73.8418 33.8379C74.4538 33.8379 75.0853 33.5352 75.7363 32.9297C76.3874 32.3177 76.9017 31.5397 77.2793 30.5957C77.6634 29.6452 77.8555 28.6784 77.8555 27.6953C77.8555 26.9727 77.6797 26.4225 77.3281 26.0449C76.9766 25.6673 76.4655 25.4785 75.7949 25.4785C75.1374 25.4785 74.5254 25.7487 73.959 26.2891C73.3991 26.8229 72.9466 27.5781 72.6016 28.5547C72.263 29.5247 72.0938 30.5469 72.0938 31.6211C72.0938 33.099 72.6764 33.8379 73.8418 33.8379ZM88.1777 31.9629C88.1777 32.9785 87.8164 33.7728 87.0938 34.3457C86.3776 34.9121 85.3652 35.1953 84.0566 35.1953C82.9564 35.1953 81.9635 34.9707 81.0781 34.5215V32.9785C81.5339 33.252 82.0254 33.4635 82.5527 33.6133C83.0801 33.763 83.5684 33.8379 84.0176 33.8379C84.8379 33.8379 85.4564 33.6751 85.873 33.3496C86.2897 33.0241 86.498 32.6074 86.498 32.0996C86.498 31.7285 86.3841 31.416 86.1562 31.1621C85.9284 30.9082 85.4368 30.5599 84.6816 30.1172C83.8353 29.6419 83.2363 29.1764 82.8848 28.7207C82.5332 28.265 82.3574 27.7246 82.3574 27.0996C82.3574 26.2012 82.6862 25.4785 83.3438 24.9316C84.0013 24.3783 84.8672 24.1016 85.9414 24.1016C87.0547 24.1016 88.1289 24.3424 89.1641 24.8242L88.6367 26.1621L88.0898 25.918C87.4323 25.638 86.7161 25.498 85.9414 25.498C85.3359 25.498 84.8607 25.6413 84.5156 25.9277C84.1706 26.2077 83.998 26.5723 83.998 27.0215C83.998 27.3861 84.112 27.6986 84.3398 27.959C84.5742 28.2194 85.0527 28.5547 85.7754 28.9648C86.472 29.3555 86.9701 29.6908 87.2695 29.9707C87.5755 30.2507 87.8034 30.5534 87.9531 30.8789C88.1029 31.1979 88.1777 31.5592 88.1777 31.9629ZM101.889 35L103.334 28.2422C103.451 27.6302 103.51 27.1908 103.51 26.9238C103.51 25.9603 103.031 25.4785 102.074 25.4785C101.495 25.4785 100.928 25.6706 100.375 26.0547C99.8281 26.4388 99.3431 26.9987 98.9199 27.7344C98.5033 28.4635 98.1875 29.3457 97.9727 30.3809L96.9863 35H95.3457L98.5684 19.8047H100.209C100.092 20.3385 99.9779 20.8561 99.8672 21.3574C99.763 21.8587 99.6523 22.3698 99.5352 22.8906C99.4245 23.4049 99.3008 23.9453 99.1641 24.5117C99.0339 25.0781 98.8809 25.6934 98.7051 26.3574H98.8125C99.4245 25.5566 100.027 24.9837 100.619 24.6387C101.218 24.2936 101.843 24.1211 102.494 24.1211C103.347 24.1211 104.005 24.3555 104.467 24.8242C104.936 25.293 105.17 25.957 105.17 26.8164C105.17 27.2201 105.095 27.7604 104.945 28.4375C104.691 29.694 104.219 31.8815 103.529 35H101.889ZM112.592 24.1602C113.829 24.1602 114.805 24.528 115.521 25.2637C116.238 25.9928 116.596 26.9987 116.596 28.2812C116.596 29.5052 116.361 30.6608 115.893 31.748C115.424 32.8353 114.789 33.6751 113.988 34.2676C113.188 34.86 112.283 35.1562 111.273 35.1562C110.023 35.1562 109.044 34.7884 108.334 34.0527C107.624 33.3171 107.27 32.3112 107.27 31.0352C107.27 29.7982 107.507 28.6361 107.982 27.5488C108.458 26.4551 109.099 25.6185 109.906 25.0391C110.714 24.4531 111.609 24.1602 112.592 24.1602ZM114.896 28.0566C114.896 27.3079 114.691 26.7025 114.281 26.2402C113.878 25.7715 113.327 25.5371 112.631 25.5371C111.921 25.5371 111.283 25.778 110.717 26.2598C110.157 26.7415 109.721 27.4121 109.408 28.2715C109.102 29.1243 108.949 30.0749 108.949 31.123C108.949 31.9759 109.154 32.6367 109.564 33.1055C109.981 33.5677 110.577 33.7988 111.352 33.7988C112.029 33.7988 112.637 33.5612 113.178 33.0859C113.718 32.6107 114.138 31.9368 114.438 31.0645C114.743 30.1855 114.896 29.1829 114.896 28.0566ZM119.721 35L118.5 24.2969H120.141L120.766 30.2832C120.922 31.9629 121 33.1413 121 33.8184H121.059C121.885 32.028 122.468 30.8203 122.807 30.1953L125.98 24.2969H127.719L121.947 35H119.721ZM131.586 35.1953C130.388 35.1953 129.447 34.8405 128.764 34.1309C128.08 33.4212 127.738 32.4382 127.738 31.1816C127.738 29.9577 127.979 28.7858 128.461 27.666C128.949 26.5397 129.594 25.6641 130.395 25.0391C131.195 24.4141 132.077 24.1016 133.041 24.1016C134.037 24.1016 134.786 24.3197 135.287 24.7559C135.788 25.1855 136.039 25.7878 136.039 26.5625C136.039 27.7344 135.499 28.6556 134.418 29.3262C133.337 29.9902 131.791 30.3223 129.779 30.3223H129.457L129.418 31.1035C129.418 31.9564 129.617 32.6237 130.014 33.1055C130.417 33.5807 131.039 33.8184 131.879 33.8184C132.289 33.8184 132.709 33.7598 133.139 33.6426C133.575 33.5254 134.115 33.3105 134.76 32.998V34.4238C134.148 34.7103 133.607 34.9089 133.139 35.0195C132.67 35.1367 132.152 35.1953 131.586 35.1953ZM132.943 25.498C132.273 25.498 131.641 25.804 131.049 26.416C130.463 27.028 130.014 27.8776 129.701 28.9648H129.818C131.303 28.9648 132.439 28.7728 133.227 28.3887C134.021 27.998 134.418 27.4349 134.418 26.6992C134.418 26.3542 134.298 26.0677 134.057 25.8398C133.822 25.612 133.451 25.498 132.943 25.498ZM143.988 24.1016C144.438 24.1016 144.828 24.1471 145.16 24.2383L144.809 25.7031C144.464 25.6185 144.122 25.5762 143.783 25.5762C143.191 25.5762 142.634 25.7715 142.113 26.1621C141.599 26.5527 141.146 27.0964 140.756 27.793C140.372 28.4831 140.089 29.2513 139.906 30.0977L138.861 35H137.221L139.506 24.2969H140.863L140.648 26.2793H140.746C141.215 25.6608 141.602 25.2181 141.908 24.9512C142.214 24.6777 142.533 24.4694 142.865 24.3262C143.204 24.1764 143.578 24.1016 143.988 24.1016ZM156.049 24.1602C157.286 24.1602 158.262 24.528 158.979 25.2637C159.695 25.9928 160.053 26.9987 160.053 28.2812C160.053 29.5052 159.818 30.6608 159.35 31.748C158.881 32.8353 158.246 33.6751 157.445 34.2676C156.645 34.86 155.74 35.1562 154.73 35.1562C153.48 35.1562 152.501 34.7884 151.791 34.0527C151.081 33.3171 150.727 32.3112 150.727 31.0352C150.727 29.7982 150.964 28.6361 151.439 27.5488C151.915 26.4551 152.556 25.6185 153.363 25.0391C154.171 24.4531 155.066 24.1602 156.049 24.1602ZM158.354 28.0566C158.354 27.3079 158.148 26.7025 157.738 26.2402C157.335 25.7715 156.785 25.5371 156.088 25.5371C155.378 25.5371 154.74 25.778 154.174 26.2598C153.614 26.7415 153.178 27.4121 152.865 28.2715C152.559 29.1243 152.406 30.0749 152.406 31.123C152.406 31.9759 152.611 32.6367 153.021 33.1055C153.438 33.5677 154.034 33.7988 154.809 33.7988C155.486 33.7988 156.094 33.5612 156.635 33.0859C157.175 32.6107 157.595 31.9368 157.895 31.0645C158.201 30.1855 158.354 29.1829 158.354 28.0566ZM163.178 35L161.957 24.2969H163.598L164.223 30.2832C164.379 31.9629 164.457 33.1413 164.457 33.8184H164.516C165.342 32.028 165.925 30.8203 166.264 30.1953L169.438 24.2969H171.176L165.404 35H163.178ZM175.043 35.1953C173.845 35.1953 172.904 34.8405 172.221 34.1309C171.537 33.4212 171.195 32.4382 171.195 31.1816C171.195 29.9577 171.436 28.7858 171.918 27.666C172.406 26.5397 173.051 25.6641 173.852 25.0391C174.652 24.4141 175.535 24.1016 176.498 24.1016C177.494 24.1016 178.243 24.3197 178.744 24.7559C179.245 25.1855 179.496 25.7878 179.496 26.5625C179.496 27.7344 178.956 28.6556 177.875 29.3262C176.794 29.9902 175.248 30.3223 173.236 30.3223H172.914L172.875 31.1035C172.875 31.9564 173.074 32.6237 173.471 33.1055C173.874 33.5807 174.496 33.8184 175.336 33.8184C175.746 33.8184 176.166 33.7598 176.596 33.6426C177.032 33.5254 177.572 33.3105 178.217 32.998V34.4238C177.605 34.7103 177.064 34.9089 176.596 35.0195C176.127 35.1367 175.609 35.1953 175.043 35.1953ZM176.4 25.498C175.73 25.498 175.098 25.804 174.506 26.416C173.92 27.028 173.471 27.8776 173.158 28.9648H173.275C174.76 28.9648 175.896 28.7728 176.684 28.3887C177.478 27.998 177.875 27.4349 177.875 26.6992C177.875 26.3542 177.755 26.0677 177.514 25.8398C177.279 25.612 176.908 25.498 176.4 25.498ZM187.445 24.1016C187.895 24.1016 188.285 24.1471 188.617 24.2383L188.266 25.7031C187.921 25.6185 187.579 25.5762 187.24 25.5762C186.648 25.5762 186.091 25.7715 185.57 26.1621C185.056 26.5527 184.604 27.0964 184.213 27.793C183.829 28.4831 183.546 29.2513 183.363 30.0977L182.318 35H180.678L182.963 24.2969H184.32L184.105 26.2793H184.203C184.672 25.6608 185.059 25.2181 185.365 24.9512C185.671 24.6777 185.99 24.4694 186.322 24.3262C186.661 24.1764 187.035 24.1016 187.445 24.1016ZM196.449 29.541L201.586 24.2969H203.549L198.969 28.8574L201.85 35H200.023L197.729 29.8828L196.244 31.084L195.443 35H193.783L197.006 19.8047H198.666C198.197 21.9922 197.777 23.9518 197.406 25.6836C197.035 27.4154 196.703 28.7012 196.41 29.541H196.449ZM207.797 35.1953C206.599 35.1953 205.658 34.8405 204.975 34.1309C204.291 33.4212 203.949 32.4382 203.949 31.1816C203.949 29.9577 204.19 28.7858 204.672 27.666C205.16 26.5397 205.805 25.6641 206.605 25.0391C207.406 24.4141 208.288 24.1016 209.252 24.1016C210.248 24.1016 210.997 24.3197 211.498 24.7559C211.999 25.1855 212.25 25.7878 212.25 26.5625C212.25 27.7344 211.71 28.6556 210.629 29.3262C209.548 29.9902 208.002 30.3223 205.99 30.3223H205.668L205.629 31.1035C205.629 31.9564 205.827 32.6237 206.225 33.1055C206.628 33.5807 207.25 33.8184 208.09 33.8184C208.5 33.8184 208.92 33.7598 209.35 33.6426C209.786 33.5254 210.326 33.3105 210.971 32.998V34.4238C210.359 34.7103 209.818 34.9089 209.35 35.0195C208.881 35.1367 208.363 35.1953 207.797 35.1953ZM209.154 25.498C208.484 25.498 207.852 25.804 207.26 26.416C206.674 27.028 206.225 27.8776 205.912 28.9648H206.029C207.514 28.9648 208.65 28.7728 209.438 28.3887C210.232 27.998 210.629 27.4349 210.629 26.6992C210.629 26.3542 210.508 26.0677 210.268 25.8398C210.033 25.612 209.662 25.498 209.154 25.498ZM213.812 24.2969H215.453L216.176 29.6191C216.241 30.0684 216.303 30.7324 216.361 31.6113C216.426 32.4837 216.459 33.1868 216.459 33.7207H216.518C216.745 33.1543 217.029 32.5033 217.367 31.7676C217.706 31.0319 217.956 30.5241 218.119 30.2441L221.293 24.2969H223.031L216.234 36.8164C215.629 37.9362 215.03 38.7142 214.438 39.1504C213.845 39.5866 213.132 39.8047 212.299 39.8047C211.83 39.8047 211.374 39.7363 210.932 39.5996V38.2812C211.342 38.3984 211.768 38.457 212.211 38.457C212.745 38.457 213.201 38.291 213.578 37.959C213.962 37.6335 214.333 37.1484 214.691 36.5039L215.434 35.1758L213.812 24.2969ZM227.416 35.1953C226.785 35.1953 226.228 35.0293 225.746 34.6973C225.271 34.3652 224.913 33.9128 224.672 33.3398H224.574L223.891 35H222.67L225.893 19.8047H227.533C227.201 21.3802 226.944 22.5879 226.762 23.4277C226.586 24.2611 226.342 25.2376 226.029 26.3574H226.117C226.723 25.5892 227.318 25.026 227.904 24.668C228.497 24.3034 229.105 24.1211 229.73 24.1211C230.648 24.1211 231.365 24.4434 231.879 25.0879C232.393 25.7324 232.65 26.6178 232.65 27.7441C232.65 29.1048 232.426 30.3646 231.977 31.5234C231.534 32.6758 230.912 33.5775 230.111 34.2285C229.317 34.873 228.419 35.1953 227.416 35.1953ZM229.232 25.4785C228.607 25.4785 227.969 25.7878 227.318 26.4062C226.674 27.0247 226.16 27.8027 225.775 28.7402C225.398 29.6777 225.209 30.638 225.209 31.6211C225.209 32.3372 225.388 32.8874 225.746 33.2715C226.111 33.6491 226.635 33.8379 227.318 33.8379C227.963 33.8379 228.562 33.5742 229.115 33.0469C229.675 32.5195 230.124 31.7708 230.463 30.8008C230.801 29.8242 230.971 28.7891 230.971 27.6953C230.971 26.2174 230.391 25.4785 229.232 25.4785ZM239.916 24.1602C241.153 24.1602 242.13 24.528 242.846 25.2637C243.562 25.9928 243.92 26.9987 243.92 28.2812C243.92 29.5052 243.686 30.6608 243.217 31.748C242.748 32.8353 242.113 33.6751 241.312 34.2676C240.512 34.86 239.607 35.1562 238.598 35.1562C237.348 35.1562 236.368 34.7884 235.658 34.0527C234.949 33.3171 234.594 32.3112 234.594 31.0352C234.594 29.7982 234.831 28.6361 235.307 27.5488C235.782 26.4551 236.423 25.6185 237.23 25.0391C238.038 24.4531 238.933 24.1602 239.916 24.1602ZM242.221 28.0566C242.221 27.3079 242.016 26.7025 241.605 26.2402C241.202 25.7715 240.652 25.5371 239.955 25.5371C239.245 25.5371 238.607 25.778 238.041 26.2598C237.481 26.7415 237.045 27.4121 236.732 28.2715C236.426 29.1243 236.273 30.0749 236.273 31.123C236.273 31.9759 236.479 32.6367 236.889 33.1055C237.305 33.5677 237.901 33.7988 238.676 33.7988C239.353 33.7988 239.962 33.5612 240.502 33.0859C241.042 32.6107 241.462 31.9368 241.762 31.0645C242.068 30.1855 242.221 29.1829 242.221 28.0566ZM251.107 24.1016C251.706 24.1016 252.24 24.2643 252.709 24.5898C253.178 24.9089 253.542 25.3711 253.803 25.9766H253.91L254.564 24.2969H255.805L253.529 35H252.23L252.484 32.959H252.406C251.241 34.4499 250.014 35.1953 248.725 35.1953C247.82 35.1953 247.11 34.873 246.596 34.2285C246.081 33.584 245.824 32.7018 245.824 31.582C245.824 30.2279 246.055 28.9714 246.518 27.8125C246.98 26.6536 247.618 25.7454 248.432 25.0879C249.245 24.4303 250.137 24.1016 251.107 24.1016ZM249.252 33.8379C249.883 33.8379 250.512 33.5384 251.137 32.9395C251.762 32.334 252.27 31.5495 252.66 30.5859C253.051 29.6159 253.246 28.6458 253.246 27.6758C253.246 27.0052 253.064 26.4714 252.699 26.0742C252.335 25.6771 251.856 25.4785 251.264 25.4785C250.587 25.4785 249.955 25.7585 249.369 26.3184C248.79 26.8783 248.334 27.6367 248.002 28.5938C247.67 29.5508 247.504 30.5599 247.504 31.6211C247.504 32.3633 247.657 32.9199 247.963 33.291C248.269 33.6556 248.699 33.8379 249.252 33.8379ZM263.52 24.1016C263.969 24.1016 264.359 24.1471 264.691 24.2383L264.34 25.7031C263.995 25.6185 263.653 25.5762 263.314 25.5762C262.722 25.5762 262.165 25.7715 261.645 26.1621C261.13 26.5527 260.678 27.0964 260.287 27.793C259.903 28.4831 259.62 29.2513 259.438 30.0977L258.393 35H256.752L259.037 24.2969H260.395L260.18 26.2793H260.277C260.746 25.6608 261.133 25.2181 261.439 24.9512C261.745 24.6777 262.064 24.4694 262.396 24.3262C262.735 24.1764 263.109 24.1016 263.52 24.1016ZM270.346 24.1211C271.609 24.1211 272.523 24.7396 273.09 25.9766H273.188C273.298 24.9674 273.445 24.0755 273.627 23.3008L274.389 19.8047H276.01L272.787 35H271.43L271.645 32.959H271.566C270.909 33.7728 270.294 34.349 269.721 34.6875C269.148 35.026 268.555 35.1953 267.943 35.1953C267.038 35.1953 266.332 34.8763 265.824 34.2383C265.316 33.6003 265.062 32.7148 265.062 31.582C265.062 30.1888 265.297 28.9128 265.766 27.7539C266.234 26.5951 266.866 25.6999 267.66 25.0684C268.461 24.4368 269.356 24.1211 270.346 24.1211ZM268.49 33.8379C269.102 33.8379 269.734 33.5352 270.385 32.9297C271.036 32.3177 271.55 31.5397 271.928 30.5957C272.312 29.6452 272.504 28.6784 272.504 27.6953C272.504 26.9727 272.328 26.4225 271.977 26.0449C271.625 25.6673 271.114 25.4785 270.443 25.4785C269.786 25.4785 269.174 25.7487 268.607 26.2891C268.048 26.8229 267.595 27.5781 267.25 28.5547C266.911 29.5247 266.742 30.5469 266.742 31.6211C266.742 33.099 267.325 33.8379 268.49 33.8379ZM288.959 35L288.646 29.1211C288.62 28.5091 288.607 27.9492 288.607 27.4414V25.918H288.52L288.031 27.0703L287.221 28.916L284.379 35H282.406L281.986 24.2969H283.588L283.764 30.0977V30.957C283.764 31.9141 283.738 32.7897 283.686 33.584H283.744C284.05 32.7767 284.496 31.7285 285.082 30.4395L287.963 24.2969H289.74L290.102 30.0977C290.141 31.1914 290.16 32.0443 290.16 32.6562V33.1738L290.141 33.584H290.199C290.382 33.0241 290.652 32.3145 291.01 31.4551C291.368 30.5892 292.419 28.2031 294.164 24.2969H295.902L290.961 35H288.959ZM302.299 35L303.744 28.2422C303.861 27.6302 303.92 27.1908 303.92 26.9238C303.92 25.9603 303.441 25.4785 302.484 25.4785C301.905 25.4785 301.339 25.6706 300.785 26.0547C300.238 26.4388 299.753 26.9987 299.33 27.7344C298.913 28.4635 298.598 29.3457 298.383 30.3809L297.396 35H295.756L298.979 19.8047H300.619C300.502 20.3385 300.388 20.8561 300.277 21.3574C300.173 21.8587 300.062 22.3698 299.945 22.8906C299.835 23.4049 299.711 23.9453 299.574 24.5117C299.444 25.0781 299.291 25.6934 299.115 26.3574H299.223C299.835 25.5566 300.437 24.9837 301.029 24.6387C301.628 24.2936 302.253 24.1211 302.904 24.1211C303.757 24.1211 304.415 24.3555 304.877 24.8242C305.346 25.293 305.58 25.957 305.58 26.8164C305.58 27.2201 305.505 27.7604 305.355 28.4375C305.102 29.694 304.63 31.8815 303.939 35H302.299ZM311.527 35.1953C310.329 35.1953 309.389 34.8405 308.705 34.1309C308.021 33.4212 307.68 32.4382 307.68 31.1816C307.68 29.9577 307.921 28.7858 308.402 27.666C308.891 26.5397 309.535 25.6641 310.336 25.0391C311.137 24.4141 312.019 24.1016 312.982 24.1016C313.979 24.1016 314.727 24.3197 315.229 24.7559C315.73 25.1855 315.98 25.7878 315.98 26.5625C315.98 27.7344 315.44 28.6556 314.359 29.3262C313.279 29.9902 311.732 30.3223 309.721 30.3223H309.398L309.359 31.1035C309.359 31.9564 309.558 32.6237 309.955 33.1055C310.359 33.5807 310.98 33.8184 311.82 33.8184C312.23 33.8184 312.65 33.7598 313.08 33.6426C313.516 33.5254 314.057 33.3105 314.701 32.998V34.4238C314.089 34.7103 313.549 34.9089 313.08 35.0195C312.611 35.1367 312.094 35.1953 311.527 35.1953ZM312.885 25.498C312.214 25.498 311.583 25.804 310.99 26.416C310.404 27.028 309.955 27.8776 309.643 28.9648H309.76C311.244 28.9648 312.38 28.7728 313.168 28.3887C313.962 27.998 314.359 27.4349 314.359 26.6992C314.359 26.3542 314.239 26.0677 313.998 25.8398C313.764 25.612 313.393 25.498 312.885 25.498ZM323.705 35L325.15 28.2422C325.281 27.5651 325.346 27.0964 325.346 26.8359C325.346 26.4258 325.229 26.097 324.994 25.8496C324.766 25.6022 324.398 25.4785 323.891 25.4785C323.311 25.4785 322.745 25.6738 322.191 26.0645C321.645 26.4551 321.16 27.0117 320.736 27.7344C320.32 28.457 320.004 29.3327 319.789 30.3613L318.803 35H317.162L319.447 24.2969H320.805L320.59 26.2793H320.688C321.312 25.485 321.915 24.9251 322.494 24.5996C323.08 24.2676 323.686 24.1016 324.311 24.1016C325.137 24.1016 325.788 24.3294 326.264 24.7852C326.745 25.2344 326.986 25.8659 326.986 26.6797C326.986 27.194 326.911 27.7799 326.762 28.4375L325.365 35H323.705ZM335.521 35H333.881L337.123 19.8047H338.764L335.521 35ZM344.682 24.1602C345.919 24.1602 346.895 24.528 347.611 25.2637C348.327 25.9928 348.686 26.9987 348.686 28.2812C348.686 29.5052 348.451 30.6608 347.982 31.748C347.514 32.8353 346.879 33.6751 346.078 34.2676C345.277 34.86 344.372 35.1562 343.363 35.1562C342.113 35.1562 341.133 34.7884 340.424 34.0527C339.714 33.3171 339.359 32.3112 339.359 31.0352C339.359 29.7982 339.597 28.6361 340.072 27.5488C340.548 26.4551 341.189 25.6185 341.996 25.0391C342.803 24.4531 343.699 24.1602 344.682 24.1602ZM346.986 28.0566C346.986 27.3079 346.781 26.7025 346.371 26.2402C345.967 25.7715 345.417 25.5371 344.721 25.5371C344.011 25.5371 343.373 25.778 342.807 26.2598C342.247 26.7415 341.811 27.4121 341.498 28.2715C341.192 29.1243 341.039 30.0749 341.039 31.123C341.039 31.9759 341.244 32.6367 341.654 33.1055C342.071 33.5677 342.667 33.7988 343.441 33.7988C344.118 33.7988 344.727 33.5612 345.268 33.0859C345.808 32.6107 346.228 31.9368 346.527 31.0645C346.833 30.1855 346.986 29.1829 346.986 28.0566ZM356.811 31.9629C356.811 32.9785 356.449 33.7728 355.727 34.3457C355.01 34.9121 353.998 35.1953 352.689 35.1953C351.589 35.1953 350.596 34.9707 349.711 34.5215V32.9785C350.167 33.252 350.658 33.4635 351.186 33.6133C351.713 33.763 352.201 33.8379 352.65 33.8379C353.471 33.8379 354.089 33.6751 354.506 33.3496C354.923 33.0241 355.131 32.6074 355.131 32.0996C355.131 31.7285 355.017 31.416 354.789 31.1621C354.561 30.9082 354.07 30.5599 353.314 30.1172C352.468 29.6419 351.869 29.1764 351.518 28.7207C351.166 28.265 350.99 27.7246 350.99 27.0996C350.99 26.2012 351.319 25.4785 351.977 24.9316C352.634 24.3783 353.5 24.1016 354.574 24.1016C355.688 24.1016 356.762 24.3424 357.797 24.8242L357.27 26.1621L356.723 25.918C356.065 25.638 355.349 25.498 354.574 25.498C353.969 25.498 353.493 25.6413 353.148 25.9277C352.803 26.2077 352.631 26.5723 352.631 27.0215C352.631 27.3861 352.745 27.6986 352.973 27.959C353.207 28.2194 353.686 28.5547 354.408 28.9648C355.105 29.3555 355.603 29.6908 355.902 29.9707C356.208 30.2507 356.436 30.5534 356.586 30.8789C356.736 31.1979 356.811 31.5592 356.811 31.9629ZM362.064 33.8574C362.423 33.8574 362.891 33.7728 363.471 33.6035V34.8633C363.249 34.9544 362.976 35.0326 362.65 35.0977C362.325 35.1628 362.064 35.1953 361.869 35.1953C361.055 35.1953 360.43 35.0033 359.994 34.6191C359.564 34.2285 359.35 33.6491 359.35 32.8809C359.35 32.4512 359.408 31.9629 359.525 31.416L360.766 25.5371H359.086L359.223 24.8242L361.029 24.0625L362.25 21.8359H363.207L362.67 24.2969H365.346L365.092 25.5371H362.426L361.166 31.4355C361.049 32.002 360.99 32.4316 360.99 32.7246C360.99 33.0892 361.085 33.3691 361.273 33.5645C361.462 33.7598 361.726 33.8574 362.064 33.8574ZM372.104 35H370.463L372.748 24.2969H374.389L372.104 35ZM373.207 21.5625C373.207 21.1979 373.311 20.9017 373.52 20.6738C373.728 20.4395 373.998 20.3223 374.33 20.3223C374.903 20.3223 375.189 20.6152 375.189 21.2012C375.189 21.5592 375.079 21.862 374.857 22.1094C374.643 22.3568 374.392 22.4805 374.105 22.4805C373.845 22.4805 373.63 22.4023 373.461 22.2461C373.292 22.0833 373.207 21.8555 373.207 21.5625ZM382.084 35L383.529 28.2422C383.66 27.5651 383.725 27.0964 383.725 26.8359C383.725 26.4258 383.607 26.097 383.373 25.8496C383.145 25.6022 382.777 25.4785 382.27 25.4785C381.69 25.4785 381.124 25.6738 380.57 26.0645C380.023 26.4551 379.538 27.0117 379.115 27.7344C378.699 28.457 378.383 29.3327 378.168 30.3613L377.182 35H375.541L377.826 24.2969H379.184L378.969 26.2793H379.066C379.691 25.485 380.294 24.9251 380.873 24.5996C381.459 24.2676 382.064 24.1016 382.689 24.1016C383.516 24.1016 384.167 24.3294 384.643 24.7852C385.124 25.2344 385.365 25.8659 385.365 26.6797C385.365 27.194 385.29 27.7799 385.141 28.4375L383.744 35H382.084ZM395.561 33.8574C395.919 33.8574 396.387 33.7728 396.967 33.6035V34.8633C396.745 34.9544 396.472 35.0326 396.146 35.0977C395.821 35.1628 395.561 35.1953 395.365 35.1953C394.551 35.1953 393.926 35.0033 393.49 34.6191C393.061 34.2285 392.846 33.6491 392.846 32.8809C392.846 32.4512 392.904 31.9629 393.021 31.416L394.262 25.5371H392.582L392.719 24.8242L394.525 24.0625L395.746 21.8359H396.703L396.166 24.2969H398.842L398.588 25.5371H395.922L394.662 31.4355C394.545 32.002 394.486 32.4316 394.486 32.7246C394.486 33.0892 394.581 33.3691 394.77 33.5645C394.958 33.7598 395.222 33.8574 395.561 33.8574ZM405.307 35L406.752 28.2422C406.869 27.6302 406.928 27.1908 406.928 26.9238C406.928 25.9603 406.449 25.4785 405.492 25.4785C404.913 25.4785 404.346 25.6706 403.793 26.0547C403.246 26.4388 402.761 26.9987 402.338 27.7344C401.921 28.4635 401.605 29.3457 401.391 30.3809L400.404 35H398.764L401.986 19.8047H403.627C403.51 20.3385 403.396 20.8561 403.285 21.3574C403.181 21.8587 403.07 22.3698 402.953 22.8906C402.842 23.4049 402.719 23.9453 402.582 24.5117C402.452 25.0781 402.299 25.6934 402.123 26.3574H402.23C402.842 25.5566 403.445 24.9837 404.037 24.6387C404.636 24.2936 405.261 24.1211 405.912 24.1211C406.765 24.1211 407.423 24.3555 407.885 24.8242C408.354 25.293 408.588 25.957 408.588 26.8164C408.588 27.2201 408.513 27.7604 408.363 28.4375C408.109 29.694 407.637 31.8815 406.947 35H405.307ZM416.01 24.1602C417.247 24.1602 418.223 24.528 418.939 25.2637C419.656 25.9928 420.014 26.9987 420.014 28.2812C420.014 29.5052 419.779 30.6608 419.311 31.748C418.842 32.8353 418.207 33.6751 417.406 34.2676C416.605 34.86 415.701 35.1562 414.691 35.1562C413.441 35.1562 412.462 34.7884 411.752 34.0527C411.042 33.3171 410.688 32.3112 410.688 31.0352C410.688 29.7982 410.925 28.6361 411.4 27.5488C411.876 26.4551 412.517 25.6185 413.324 25.0391C414.132 24.4531 415.027 24.1602 416.01 24.1602ZM418.314 28.0566C418.314 27.3079 418.109 26.7025 417.699 26.2402C417.296 25.7715 416.745 25.5371 416.049 25.5371C415.339 25.5371 414.701 25.778 414.135 26.2598C413.575 26.7415 413.139 27.4121 412.826 28.2715C412.52 29.1243 412.367 30.0749 412.367 31.123C412.367 31.9759 412.572 32.6367 412.982 33.1055C413.399 33.5677 413.995 33.7988 414.77 33.7988C415.447 33.7988 416.055 33.5612 416.596 33.0859C417.136 32.6107 417.556 31.9368 417.855 31.0645C418.161 30.1855 418.314 29.1829 418.314 28.0566ZM425.365 24.2969L423.9 31.084C423.783 31.6634 423.725 32.1159 423.725 32.4414C423.725 33.3724 424.203 33.8379 425.16 33.8379C425.733 33.8379 426.296 33.6426 426.85 33.252C427.403 32.8613 427.891 32.3014 428.314 31.5723C428.738 30.8431 429.06 29.9642 429.281 28.9355L430.258 24.2969H431.879L429.623 35H428.266L428.48 33.0176H428.363C427.725 33.8314 427.117 34.3978 426.537 34.7168C425.958 35.0358 425.359 35.1953 424.74 35.1953C423.907 35.1953 423.253 34.9707 422.777 34.5215C422.302 34.0658 422.064 33.418 422.064 32.5781C422.064 32.1745 422.136 31.6146 422.279 30.8984L423.705 24.2969H425.365ZM443.246 24.2969L443.002 25.3418L440.941 25.5762C441.208 25.9798 441.342 26.4941 441.342 27.1191C441.342 28.3626 440.961 29.3555 440.199 30.0977C439.444 30.8333 438.432 31.2012 437.162 31.2012C436.804 31.2012 436.531 31.1751 436.342 31.123C435.437 31.4681 434.984 31.8945 434.984 32.4023C434.984 32.6693 435.092 32.8483 435.307 32.9395C435.521 33.0241 435.834 33.0924 436.244 33.1445L437.387 33.2812C438.565 33.4245 439.418 33.7109 439.945 34.1406C440.479 34.5703 440.746 35.2018 440.746 36.0352C440.746 37.2331 440.271 38.1608 439.32 38.8184C438.37 39.4759 437.032 39.8047 435.307 39.8047C434.044 39.8047 433.054 39.5638 432.338 39.082C431.622 38.6068 431.264 37.9329 431.264 37.0605C431.264 36.377 431.498 35.7845 431.967 35.2832C432.436 34.7819 433.194 34.3555 434.242 34.0039C433.734 33.737 433.48 33.3431 433.48 32.8223C433.48 32.373 433.646 31.9889 433.979 31.6699C434.311 31.3444 434.773 31.0417 435.365 30.7617C434.955 30.5534 434.62 30.2474 434.359 29.8438C434.099 29.4336 433.969 28.9583 433.969 28.418C433.969 27.1549 434.356 26.1198 435.131 25.3125C435.912 24.5052 436.908 24.1016 438.119 24.1016C438.627 24.1016 439.128 24.1667 439.623 24.2969H443.246ZM432.846 36.9043C432.846 37.4056 433.057 37.8027 433.48 38.0957C433.904 38.3887 434.532 38.5352 435.365 38.5352C436.55 38.5352 437.475 38.3268 438.139 37.9102C438.809 37.5 439.145 36.9173 439.145 36.1621C439.145 35.7585 438.969 35.4395 438.617 35.2051C438.266 34.9707 437.667 34.8079 436.82 34.7168L435.268 34.5605C434.486 34.7233 433.887 35.0098 433.471 35.4199C433.054 35.8301 432.846 36.3249 432.846 36.9043ZM435.561 28.3594C435.561 28.9128 435.707 29.3359 436 29.6289C436.293 29.9154 436.7 30.0586 437.221 30.0586C437.735 30.0586 438.184 29.9219 438.568 29.6484C438.952 29.375 439.245 29.0007 439.447 28.5254C439.656 28.0436 439.76 27.5228 439.76 26.9629C439.76 26.429 439.617 26.0221 439.33 25.7422C439.044 25.4622 438.633 25.3223 438.1 25.3223C437.592 25.3223 437.146 25.4557 436.762 25.7227C436.384 25.9831 436.088 26.3509 435.873 26.8262C435.665 27.2949 435.561 27.806 435.561 28.3594ZM449.643 35L451.088 28.2422C451.205 27.6302 451.264 27.1908 451.264 26.9238C451.264 25.9603 450.785 25.4785 449.828 25.4785C449.249 25.4785 448.682 25.6706 448.129 26.0547C447.582 26.4388 447.097 26.9987 446.674 27.7344C446.257 28.4635 445.941 29.3457 445.727 30.3809L444.74 35H443.1L446.322 19.8047H447.963C447.846 20.3385 447.732 20.8561 447.621 21.3574C447.517 21.8587 447.406 22.3698 447.289 22.8906C447.178 23.4049 447.055 23.9453 446.918 24.5117C446.788 25.0781 446.635 25.6934 446.459 26.3574H446.566C447.178 25.5566 447.781 24.9837 448.373 24.6387C448.972 24.2936 449.597 24.1211 450.248 24.1211C451.101 24.1211 451.758 24.3555 452.221 24.8242C452.689 25.293 452.924 25.957 452.924 26.8164C452.924 27.2201 452.849 27.7604 452.699 28.4375C452.445 29.694 451.973 31.8815 451.283 35H449.643ZM457.924 33.8574C458.282 33.8574 458.751 33.7728 459.33 33.6035V34.8633C459.109 34.9544 458.835 35.0326 458.51 35.0977C458.184 35.1628 457.924 35.1953 457.729 35.1953C456.915 35.1953 456.29 35.0033 455.854 34.6191C455.424 34.2285 455.209 33.6491 455.209 32.8809C455.209 32.4512 455.268 31.9629 455.385 31.416L456.625 25.5371H454.945L455.082 24.8242L456.889 24.0625L458.109 21.8359H459.066L458.529 24.2969H461.205L460.951 25.5371H458.285L457.025 31.4355C456.908 32.002 456.85 32.4316 456.85 32.7246C456.85 33.0892 456.944 33.3691 457.133 33.5645C457.322 33.7598 457.585 33.8574 457.924 33.8574ZM32.2402 54.1016C32.8392 54.1016 33.373 54.2643 33.8418 54.5898C34.3105 54.9089 34.6751 55.3711 34.9355 55.9766H35.043L35.6973 54.2969H36.9375L34.6621 65H33.3633L33.6172 62.959H33.5391C32.3737 64.4499 31.1465 65.1953 29.8574 65.1953C28.9525 65.1953 28.2428 64.873 27.7285 64.2285C27.2142 63.584 26.957 62.7018 26.957 61.582C26.957 60.2279 27.1882 58.9714 27.6504 57.8125C28.1126 56.6536 28.7507 55.7454 29.5645 55.0879C30.3783 54.4303 31.2702 54.1016 32.2402 54.1016ZM30.3848 63.8379C31.0163 63.8379 31.6445 63.5384 32.2695 62.9395C32.8945 62.334 33.4023 61.5495 33.793 60.5859C34.1836 59.6159 34.3789 58.6458 34.3789 57.6758C34.3789 57.0052 34.1966 56.4714 33.832 56.0742C33.4674 55.6771 32.9889 55.4785 32.3965 55.4785C31.7194 55.4785 31.0879 55.7585 30.502 56.3184C29.9225 56.8783 29.4668 57.6367 29.1348 58.5938C28.8027 59.5508 28.6367 60.5599 28.6367 61.6211C28.6367 62.3633 28.7897 62.9199 29.0957 63.291C29.4017 63.6556 29.8314 63.8379 30.3848 63.8379ZM44.4277 65L45.873 58.2422C46.0033 57.5651 46.0684 57.0964 46.0684 56.8359C46.0684 56.4258 45.9512 56.097 45.7168 55.8496C45.4889 55.6022 45.1211 55.4785 44.6133 55.4785C44.0339 55.4785 43.4674 55.6738 42.9141 56.0645C42.3672 56.4551 41.8822 57.0117 41.459 57.7344C41.0423 58.457 40.7266 59.3327 40.5117 60.3613L39.5254 65H37.8848L40.1699 54.2969H41.5273L41.3125 56.2793H41.4102C42.0352 55.485 42.6374 54.9251 43.2168 54.5996C43.8027 54.2676 44.4082 54.1016 45.0332 54.1016C45.86 54.1016 46.5111 54.3294 46.9863 54.7852C47.4681 55.2344 47.709 55.8659 47.709 56.6797C47.709 57.194 47.6341 57.7799 47.4844 58.4375L46.0879 65H44.4277ZM55.0918 54.1211C56.3548 54.1211 57.2695 54.7396 57.8359 55.9766H57.9336C58.0443 54.9674 58.1908 54.0755 58.373 53.3008L59.1348 49.8047H60.7559L57.5332 65H56.1758L56.3906 62.959H56.3125C55.6549 63.7728 55.0397 64.349 54.4668 64.6875C53.8939 65.026 53.3014 65.1953 52.6895 65.1953C51.7845 65.1953 51.0781 64.8763 50.5703 64.2383C50.0625 63.6003 49.8086 62.7148 49.8086 61.582C49.8086 60.1888 50.043 58.9128 50.5117 57.7539C50.9805 56.5951 51.612 55.6999 52.4062 55.0684C53.207 54.4368 54.1022 54.1211 55.0918 54.1211ZM53.2363 63.8379C53.8483 63.8379 54.4798 63.5352 55.1309 62.9297C55.7819 62.3177 56.2962 61.5397 56.6738 60.5957C57.0579 59.6452 57.25 58.6784 57.25 57.6953C57.25 56.9727 57.0742 56.4225 56.7227 56.0449C56.3711 55.6673 55.86 55.4785 55.1895 55.4785C54.5319 55.4785 53.9199 55.7487 53.3535 56.2891C52.7936 56.8229 52.3411 57.5781 51.9961 58.5547C51.6576 59.5247 51.4883 60.5469 51.4883 61.6211C51.4883 63.099 52.071 63.8379 53.2363 63.8379ZM71.8301 54.1016C72.429 54.1016 72.9629 54.2643 73.4316 54.5898C73.9004 54.9089 74.265 55.3711 74.5254 55.9766H74.6328L75.2871 54.2969H76.5273L74.252 65H72.9531L73.207 62.959H73.1289C71.9635 64.4499 70.7363 65.1953 69.4473 65.1953C68.5423 65.1953 67.8327 64.873 67.3184 64.2285C66.804 63.584 66.5469 62.7018 66.5469 61.582C66.5469 60.2279 66.778 58.9714 67.2402 57.8125C67.7025 56.6536 68.3405 55.7454 69.1543 55.0879C69.9681 54.4303 70.86 54.1016 71.8301 54.1016ZM69.9746 63.8379C70.6061 63.8379 71.2344 63.5384 71.8594 62.9395C72.4844 62.334 72.9922 61.5495 73.3828 60.5859C73.7734 59.6159 73.9688 58.6458 73.9688 57.6758C73.9688 57.0052 73.7865 56.4714 73.4219 56.0742C73.0573 55.6771 72.5788 55.4785 71.9863 55.4785C71.3092 55.4785 70.6777 55.7585 70.0918 56.3184C69.5124 56.8783 69.0566 57.6367 68.7246 58.5938C68.3926 59.5508 68.2266 60.5599 68.2266 61.6211C68.2266 62.3633 68.3796 62.9199 68.6855 63.291C68.9915 63.6556 69.4212 63.8379 69.9746 63.8379ZM81.8398 65.1953C80.5768 65.1953 79.597 64.847 78.9004 64.1504C78.2038 63.4538 77.8555 62.4707 77.8555 61.2012C77.8555 59.8991 78.0964 58.6979 78.5781 57.5977C79.0599 56.4974 79.724 55.6413 80.5703 55.0293C81.4232 54.4108 82.3802 54.1016 83.4414 54.1016C84.3333 54.1016 85.2057 54.2676 86.0586 54.5996L85.5996 55.9766C84.8184 55.6445 84.1055 55.4785 83.4609 55.4785C82.7318 55.4785 82.0645 55.7292 81.459 56.2305C80.86 56.7253 80.388 57.4186 80.043 58.3105C79.7044 59.196 79.5352 60.1595 79.5352 61.2012C79.5352 62.0345 79.75 62.6823 80.1797 63.1445C80.6159 63.6068 81.2148 63.8379 81.9766 63.8379C82.4453 63.8379 82.888 63.7728 83.3047 63.6426C83.7214 63.5124 84.1315 63.3594 84.5352 63.1836V64.5801C83.7279 64.9902 82.8294 65.1953 81.8398 65.1953ZM90.8438 65.1953C89.5807 65.1953 88.6009 64.847 87.9043 64.1504C87.2077 63.4538 86.8594 62.4707 86.8594 61.2012C86.8594 59.8991 87.1003 58.6979 87.582 57.5977C88.0638 56.4974 88.7279 55.6413 89.5742 55.0293C90.4271 54.4108 91.3841 54.1016 92.4453 54.1016C93.3372 54.1016 94.2096 54.2676 95.0625 54.5996L94.6035 55.9766C93.8223 55.6445 93.1094 55.4785 92.4648 55.4785C91.7357 55.4785 91.0684 55.7292 90.4629 56.2305C89.8639 56.7253 89.3919 57.4186 89.0469 58.3105C88.7083 59.196 88.5391 60.1595 88.5391 61.2012C88.5391 62.0345 88.7539 62.6823 89.1836 63.1445C89.6198 63.6068 90.2188 63.8379 90.9805 63.8379C91.4492 63.8379 91.8919 63.7728 92.3086 63.6426C92.7253 63.5124 93.1354 63.3594 93.5391 63.1836V64.5801C92.7318 64.9902 91.8333 65.1953 90.8438 65.1953ZM97.123 65H95.4824L97.7676 54.2969H99.4082L97.123 65ZM98.2266 51.5625C98.2266 51.1979 98.3307 50.9017 98.5391 50.6738C98.7474 50.4395 99.0176 50.3223 99.3496 50.3223C99.9225 50.3223 100.209 50.6152 100.209 51.2012C100.209 51.5592 100.098 51.862 99.877 52.1094C99.6621 52.3568 99.4115 52.4805 99.125 52.4805C98.8646 52.4805 98.6497 52.4023 98.4805 52.2461C98.3112 52.0833 98.2266 51.8555 98.2266 51.5625ZM106.225 54.1211C107.488 54.1211 108.402 54.7396 108.969 55.9766H109.066C109.177 54.9674 109.324 54.0755 109.506 53.3008L110.268 49.8047H111.889L108.666 65H107.309L107.523 62.959H107.445C106.788 63.7728 106.173 64.349 105.6 64.6875C105.027 65.026 104.434 65.1953 103.822 65.1953C102.917 65.1953 102.211 64.8763 101.703 64.2383C101.195 63.6003 100.941 62.7148 100.941 61.582C100.941 60.1888 101.176 58.9128 101.645 57.7539C102.113 56.5951 102.745 55.6999 103.539 55.0684C104.34 54.4368 105.235 54.1211 106.225 54.1211ZM104.369 63.8379C104.981 63.8379 105.613 63.5352 106.264 62.9297C106.915 62.3177 107.429 61.5397 107.807 60.5957C108.191 59.6452 108.383 58.6784 108.383 57.6953C108.383 56.9727 108.207 56.4225 107.855 56.0449C107.504 55.6673 106.993 55.4785 106.322 55.4785C105.665 55.4785 105.053 55.7487 104.486 56.2891C103.926 56.8229 103.474 57.5781 103.129 58.5547C102.79 59.5247 102.621 60.5469 102.621 61.6211C102.621 63.099 103.204 63.8379 104.369 63.8379ZM116.332 65.1953C115.134 65.1953 114.193 64.8405 113.51 64.1309C112.826 63.4212 112.484 62.4382 112.484 61.1816C112.484 59.9577 112.725 58.7858 113.207 57.666C113.695 56.5397 114.34 55.6641 115.141 55.0391C115.941 54.4141 116.824 54.1016 117.787 54.1016C118.783 54.1016 119.532 54.3197 120.033 54.7559C120.535 55.1855 120.785 55.7878 120.785 56.5625C120.785 57.7344 120.245 58.6556 119.164 59.3262C118.083 59.9902 116.537 60.3223 114.525 60.3223H114.203L114.164 61.1035C114.164 61.9564 114.363 62.6237 114.76 63.1055C115.163 63.5807 115.785 63.8184 116.625 63.8184C117.035 63.8184 117.455 63.7598 117.885 63.6426C118.321 63.5254 118.861 63.3105 119.506 62.998V64.4238C118.894 64.7103 118.354 64.9089 117.885 65.0195C117.416 65.1367 116.898 65.1953 116.332 65.1953ZM117.689 55.498C117.019 55.498 116.387 55.804 115.795 56.416C115.209 57.028 114.76 57.8776 114.447 58.9648H114.564C116.049 58.9648 117.185 58.7728 117.973 58.3887C118.767 57.998 119.164 57.4349 119.164 56.6992C119.164 56.3542 119.044 56.0677 118.803 55.8398C118.568 55.612 118.197 55.498 117.689 55.498ZM128.51 65L129.955 58.2422C130.085 57.5651 130.15 57.0964 130.15 56.8359C130.15 56.4258 130.033 56.097 129.799 55.8496C129.571 55.6022 129.203 55.4785 128.695 55.4785C128.116 55.4785 127.549 55.6738 126.996 56.0645C126.449 56.4551 125.964 57.0117 125.541 57.7344C125.124 58.457 124.809 59.3327 124.594 60.3613L123.607 65H121.967L124.252 54.2969H125.609L125.395 56.2793H125.492C126.117 55.485 126.719 54.9251 127.299 54.5996C127.885 54.2676 128.49 54.1016 129.115 54.1016C129.942 54.1016 130.593 54.3294 131.068 54.7852C131.55 55.2344 131.791 55.8659 131.791 56.6797C131.791 57.194 131.716 57.7799 131.566 58.4375L130.17 65H128.51ZM136.791 63.8574C137.149 63.8574 137.618 63.7728 138.197 63.6035V64.8633C137.976 64.9544 137.702 65.0326 137.377 65.0977C137.051 65.1628 136.791 65.1953 136.596 65.1953C135.782 65.1953 135.157 65.0033 134.721 64.6191C134.291 64.2285 134.076 63.6491 134.076 62.8809C134.076 62.4512 134.135 61.9629 134.252 61.416L135.492 55.5371H133.812L133.949 54.8242L135.756 54.0625L136.977 51.8359H137.934L137.396 54.2969H140.072L139.818 55.5371H137.152L135.893 61.4355C135.775 62.002 135.717 62.4316 135.717 62.7246C135.717 63.0892 135.811 63.3691 136 63.5645C136.189 63.7598 136.452 63.8574 136.791 63.8574ZM145.658 54.1016C146.257 54.1016 146.791 54.2643 147.26 54.5898C147.729 54.9089 148.093 55.3711 148.354 55.9766H148.461L149.115 54.2969H150.355L148.08 65H146.781L147.035 62.959H146.957C145.792 64.4499 144.564 65.1953 143.275 65.1953C142.37 65.1953 141.661 64.873 141.146 64.2285C140.632 63.584 140.375 62.7018 140.375 61.582C140.375 60.2279 140.606 58.9714 141.068 57.8125C141.531 56.6536 142.169 55.7454 142.982 55.0879C143.796 54.4303 144.688 54.1016 145.658 54.1016ZM143.803 63.8379C144.434 63.8379 145.062 63.5384 145.688 62.9395C146.312 62.334 146.82 61.5495 147.211 60.5859C147.602 59.6159 147.797 58.6458 147.797 57.6758C147.797 57.0052 147.615 56.4714 147.25 56.0742C146.885 55.6771 146.407 55.4785 145.814 55.4785C145.137 55.4785 144.506 55.7585 143.92 56.3184C143.34 56.8783 142.885 57.6367 142.553 58.5938C142.221 59.5508 142.055 60.5599 142.055 61.6211C142.055 62.3633 142.208 62.9199 142.514 63.291C142.82 63.6556 143.249 63.8379 143.803 63.8379ZM152.924 65H151.283L154.525 49.8047H156.166L152.924 65ZM158.002 65H156.361L159.604 49.8047H161.244L158.002 65ZM161.84 54.2969H163.48L164.203 59.6191C164.268 60.0684 164.33 60.7324 164.389 61.6113C164.454 62.4837 164.486 63.1868 164.486 63.7207H164.545C164.773 63.1543 165.056 62.5033 165.395 61.7676C165.733 61.0319 165.984 60.5241 166.146 60.2441L169.32 54.2969H171.059L164.262 66.8164C163.656 67.9362 163.057 68.7142 162.465 69.1504C161.872 69.5866 161.16 69.8047 160.326 69.8047C159.857 69.8047 159.402 69.7363 158.959 69.5996V68.2812C159.369 68.3984 159.796 68.457 160.238 68.457C160.772 68.457 161.228 68.291 161.605 67.959C161.99 67.6335 162.361 67.1484 162.719 66.5039L163.461 65.1758L161.84 54.2969ZM179.174 63.8574C179.532 63.8574 180.001 63.7728 180.58 63.6035V64.8633C180.359 64.9544 180.085 65.0326 179.76 65.0977C179.434 65.1628 179.174 65.1953 178.979 65.1953C178.165 65.1953 177.54 65.0033 177.104 64.6191C176.674 64.2285 176.459 63.6491 176.459 62.8809C176.459 62.4512 176.518 61.9629 176.635 61.416L177.875 55.5371H176.195L176.332 54.8242L178.139 54.0625L179.359 51.8359H180.316L179.779 54.2969H182.455L182.201 55.5371H179.535L178.275 61.4355C178.158 62.002 178.1 62.4316 178.1 62.7246C178.1 63.0892 178.194 63.3691 178.383 63.5645C178.572 63.7598 178.835 63.8574 179.174 63.8574ZM182.758 54.2969H184.398L185.121 59.6191C185.186 60.0684 185.248 60.7324 185.307 61.6113C185.372 62.4837 185.404 63.1868 185.404 63.7207H185.463C185.691 63.1543 185.974 62.5033 186.312 61.7676C186.651 61.0319 186.902 60.5241 187.064 60.2441L190.238 54.2969H191.977L185.18 66.8164C184.574 67.9362 183.975 68.7142 183.383 69.1504C182.79 69.5866 182.077 69.8047 181.244 69.8047C180.775 69.8047 180.32 69.7363 179.877 69.5996V68.2812C180.287 68.3984 180.714 68.457 181.156 68.457C181.69 68.457 182.146 68.291 182.523 67.959C182.908 67.6335 183.279 67.1484 183.637 66.5039L184.379 65.1758L182.758 54.2969ZM196.361 65.1953C195.73 65.1953 195.176 65.0326 194.701 64.707C194.226 64.3815 193.858 63.9258 193.598 63.3398H193.5L193.461 63.7109C193.441 63.8737 193.406 64.1016 193.354 64.3945C193.308 64.6875 192.937 66.4909 192.24 69.8047H190.619L193.9 54.2969H195.258L195.004 56.3379H195.082C196.247 54.86 197.458 54.1211 198.715 54.1211C199.607 54.1211 200.31 54.4401 200.824 55.0781C201.339 55.7096 201.596 56.5983 201.596 57.7441C201.596 59.1243 201.371 60.3906 200.922 61.543C200.473 62.6953 199.851 63.5938 199.057 64.2383C198.262 64.8763 197.364 65.1953 196.361 65.1953ZM198.178 55.4785C197.553 55.4785 196.915 55.7878 196.264 56.4062C195.619 57.0247 195.105 57.8027 194.721 58.7402C194.343 59.6777 194.154 60.638 194.154 61.6211C194.154 62.3372 194.333 62.8874 194.691 63.2715C195.056 63.6491 195.58 63.8379 196.264 63.8379C196.908 63.8379 197.507 63.5742 198.061 63.0469C198.62 62.5195 199.07 61.7708 199.408 60.8008C199.747 59.8242 199.916 58.7891 199.916 57.6953C199.916 56.2174 199.337 55.4785 198.178 55.4785ZM207.387 65.1953C206.189 65.1953 205.248 64.8405 204.564 64.1309C203.881 63.4212 203.539 62.4382 203.539 61.1816C203.539 59.9577 203.78 58.7858 204.262 57.666C204.75 56.5397 205.395 55.6641 206.195 55.0391C206.996 54.4141 207.878 54.1016 208.842 54.1016C209.838 54.1016 210.587 54.3197 211.088 54.7559C211.589 55.1855 211.84 55.7878 211.84 56.5625C211.84 57.7344 211.299 58.6556 210.219 59.3262C209.138 59.9902 207.592 60.3223 205.58 60.3223H205.258L205.219 61.1035C205.219 61.9564 205.417 62.6237 205.814 63.1055C206.218 63.5807 206.84 63.8184 207.68 63.8184C208.09 63.8184 208.51 63.7598 208.939 63.6426C209.376 63.5254 209.916 63.3105 210.561 62.998V64.4238C209.949 64.7103 209.408 64.9089 208.939 65.0195C208.471 65.1367 207.953 65.1953 207.387 65.1953ZM208.744 55.498C208.074 55.498 207.442 55.804 206.85 56.416C206.264 57.028 205.814 57.8776 205.502 58.9648H205.619C207.104 58.9648 208.24 58.7728 209.027 58.3887C209.822 57.998 210.219 57.4349 210.219 56.6992C210.219 56.3542 210.098 56.0677 209.857 55.8398C209.623 55.612 209.252 55.498 208.744 55.498ZM221.498 63.8574C221.856 63.8574 222.325 63.7728 222.904 63.6035V64.8633C222.683 64.9544 222.41 65.0326 222.084 65.0977C221.758 65.1628 221.498 65.1953 221.303 65.1953C220.489 65.1953 219.864 65.0033 219.428 64.6191C218.998 64.2285 218.783 63.6491 218.783 62.8809C218.783 62.4512 218.842 61.9629 218.959 61.416L220.199 55.5371H218.52L218.656 54.8242L220.463 54.0625L221.684 51.8359H222.641L222.104 54.2969H224.779L224.525 55.5371H221.859L220.6 61.4355C220.482 62.002 220.424 62.4316 220.424 62.7246C220.424 63.0892 220.518 63.3691 220.707 63.5645C220.896 63.7598 221.16 63.8574 221.498 63.8574ZM231.244 65L232.689 58.2422C232.807 57.6302 232.865 57.1908 232.865 56.9238C232.865 55.9603 232.387 55.4785 231.43 55.4785C230.85 55.4785 230.284 55.6706 229.73 56.0547C229.184 56.4388 228.699 56.9987 228.275 57.7344C227.859 58.4635 227.543 59.3457 227.328 60.3809L226.342 65H224.701L227.924 49.8047H229.564C229.447 50.3385 229.333 50.8561 229.223 51.3574C229.118 51.8587 229.008 52.3698 228.891 52.8906C228.78 53.4049 228.656 53.9453 228.52 54.5117C228.389 55.0781 228.236 55.6934 228.061 56.3574H228.168C228.78 55.5566 229.382 54.9837 229.975 54.6387C230.574 54.2936 231.199 54.1211 231.85 54.1211C232.702 54.1211 233.36 54.3555 233.822 54.8242C234.291 55.293 234.525 55.957 234.525 56.8164C234.525 57.2201 234.451 57.7604 234.301 58.4375C234.047 59.694 233.575 61.8815 232.885 65H231.244ZM237.885 65H236.244L238.529 54.2969H240.17L237.885 65ZM238.988 51.5625C238.988 51.1979 239.092 50.9017 239.301 50.6738C239.509 50.4395 239.779 50.3223 240.111 50.3223C240.684 50.3223 240.971 50.6152 240.971 51.2012C240.971 51.5592 240.86 51.862 240.639 52.1094C240.424 52.3568 240.173 52.4805 239.887 52.4805C239.626 52.4805 239.411 52.4023 239.242 52.2461C239.073 52.0833 238.988 51.8555 238.988 51.5625ZM247.865 65L249.311 58.2422C249.441 57.5651 249.506 57.0964 249.506 56.8359C249.506 56.4258 249.389 56.097 249.154 55.8496C248.926 55.6022 248.559 55.4785 248.051 55.4785C247.471 55.4785 246.905 55.6738 246.352 56.0645C245.805 56.4551 245.32 57.0117 244.896 57.7344C244.48 58.457 244.164 59.3327 243.949 60.3613L242.963 65H241.322L243.607 54.2969H244.965L244.75 56.2793H244.848C245.473 55.485 246.075 54.9251 246.654 54.5996C247.24 54.2676 247.846 54.1016 248.471 54.1016C249.298 54.1016 249.949 54.3294 250.424 54.7852C250.906 55.2344 251.146 55.8659 251.146 56.6797C251.146 57.194 251.072 57.7799 250.922 58.4375L249.525 65H247.865ZM263.031 54.2969L262.787 55.3418L260.727 55.5762C260.993 55.9798 261.127 56.4941 261.127 57.1191C261.127 58.3626 260.746 59.3555 259.984 60.0977C259.229 60.8333 258.217 61.2012 256.947 61.2012C256.589 61.2012 256.316 61.1751 256.127 61.123C255.222 61.4681 254.77 61.8945 254.77 62.4023C254.77 62.6693 254.877 62.8483 255.092 62.9395C255.307 63.0241 255.619 63.0924 256.029 63.1445L257.172 63.2812C258.35 63.4245 259.203 63.7109 259.73 64.1406C260.264 64.5703 260.531 65.2018 260.531 66.0352C260.531 67.2331 260.056 68.1608 259.105 68.8184C258.155 69.4759 256.817 69.8047 255.092 69.8047C253.829 69.8047 252.839 69.5638 252.123 69.082C251.407 68.6068 251.049 67.9329 251.049 67.0605C251.049 66.377 251.283 65.7845 251.752 65.2832C252.221 64.7819 252.979 64.3555 254.027 64.0039C253.52 63.737 253.266 63.3431 253.266 62.8223C253.266 62.373 253.432 61.9889 253.764 61.6699C254.096 61.3444 254.558 61.0417 255.15 60.7617C254.74 60.5534 254.405 60.2474 254.145 59.8438C253.884 59.4336 253.754 58.9583 253.754 58.418C253.754 57.1549 254.141 56.1198 254.916 55.3125C255.697 54.5052 256.693 54.1016 257.904 54.1016C258.412 54.1016 258.913 54.1667 259.408 54.2969H263.031ZM252.631 66.9043C252.631 67.4056 252.842 67.8027 253.266 68.0957C253.689 68.3887 254.317 68.5352 255.15 68.5352C256.335 68.5352 257.26 68.3268 257.924 67.9102C258.594 67.5 258.93 66.9173 258.93 66.1621C258.93 65.7585 258.754 65.4395 258.402 65.2051C258.051 64.9707 257.452 64.8079 256.605 64.7168L255.053 64.5605C254.271 64.7233 253.673 65.0098 253.256 65.4199C252.839 65.8301 252.631 66.3249 252.631 66.9043ZM255.346 58.3594C255.346 58.9128 255.492 59.3359 255.785 59.6289C256.078 59.9154 256.485 60.0586 257.006 60.0586C257.52 60.0586 257.969 59.9219 258.354 59.6484C258.738 59.375 259.031 59.0007 259.232 58.5254C259.441 58.0436 259.545 57.5228 259.545 56.9629C259.545 56.429 259.402 56.0221 259.115 55.7422C258.829 55.4622 258.419 55.3223 257.885 55.3223C257.377 55.3223 256.931 55.4557 256.547 55.7227C256.169 55.9831 255.873 56.3509 255.658 56.8262C255.45 57.2949 255.346 57.806 255.346 58.3594ZM269.486 61.9629C269.486 62.9785 269.125 63.7728 268.402 64.3457C267.686 64.9121 266.674 65.1953 265.365 65.1953C264.265 65.1953 263.272 64.9707 262.387 64.5215V62.9785C262.842 63.252 263.334 63.4635 263.861 63.6133C264.389 63.763 264.877 63.8379 265.326 63.8379C266.146 63.8379 266.765 63.6751 267.182 63.3496C267.598 63.0241 267.807 62.6074 267.807 62.0996C267.807 61.7285 267.693 61.416 267.465 61.1621C267.237 60.9082 266.745 60.5599 265.99 60.1172C265.144 59.6419 264.545 59.1764 264.193 58.7207C263.842 58.265 263.666 57.7246 263.666 57.0996C263.666 56.2012 263.995 55.4785 264.652 54.9316C265.31 54.3783 266.176 54.1016 267.25 54.1016C268.363 54.1016 269.438 54.3424 270.473 54.8242L269.945 56.1621L269.398 55.918C268.741 55.638 268.025 55.498 267.25 55.498C266.645 55.498 266.169 55.6413 265.824 55.9277C265.479 56.2077 265.307 56.5723 265.307 57.0215C265.307 57.3861 265.421 57.6986 265.648 57.959C265.883 58.2194 266.361 58.5547 267.084 58.9648C267.781 59.3555 268.279 59.6908 268.578 59.9707C268.884 60.2507 269.112 60.5534 269.262 60.8789C269.411 61.1979 269.486 61.5592 269.486 61.9629ZM271.303 64.2773C271.303 63.776 271.433 63.3789 271.693 63.0859C271.96 62.7865 272.325 62.6367 272.787 62.6367C273.067 62.6367 273.292 62.7214 273.461 62.8906C273.637 63.0599 273.725 63.3171 273.725 63.6621C273.725 64.1243 273.594 64.5117 273.334 64.8242C273.074 65.1302 272.722 65.2832 272.279 65.2832C271.98 65.2832 271.742 65.1986 271.566 65.0293C271.391 64.86 271.303 64.6094 271.303 64.2773ZM280.98 50.7227L281.059 50.9375C280.798 51.5299 280.437 52.2428 279.975 53.0762C279.512 53.903 278.995 54.7493 278.422 55.6152H277.162C278.035 53.6751 278.695 52.0443 279.145 50.7227H280.98ZM284.584 50.7227L284.682 50.9375C284.07 52.2786 283.178 53.8379 282.006 55.6152H280.766C281.137 54.7949 281.511 53.9095 281.889 52.959C282.273 52.002 282.556 51.2565 282.738 50.7227H284.584Z" fill="#444444"/>
</svg>
