<svg width="100" height="100" viewBox="0 0 100 100" fill="none" xmlns="http://www.w3.org/2000/svg">
<path d="M97.9059 55.2995L62.19 92.797C60.806 94.2735 58.9755 95 57.1451 95C55.3147 95 53.4887 94.2676 52.0958 92.8029C49.3055 89.8734 49.3055 85.1276 52.0958 82.1981L75.6281 57.5024H7.14282C3.19845 57.5024 0 54.1511 0 50.0029C0 45.8548 3.19845 42.5034 7.14282 42.5034H75.6281L52.1002 17.8019C49.3099 14.8724 49.3099 10.1266 52.1002 7.19712C54.8905 4.26763 59.4108 4.26763 62.2011 7.19712L97.917 44.6947C100.696 47.6359 100.696 52.37 97.9059 55.2995Z" fill="black"/>
</svg>
