<svg width="30" height="30" viewBox="0 0 30 30" fill="none" xmlns="http://www.w3.org/2000/svg">
<path d="M29.2368 2.97752C28.9427 1.79148 27.6311 1.12809 26.5595 1.06721C26.531 1.06523 25.8505 1 24.8137 1C21.3395 1 17.3605 1.79148 15.8773 2.97752H15H14.1227C12.6395 1.79148 8.65281 1 5.17902 1C4.14183 1 3.45366 1.06563 3.42512 1.06721C2.35317 1.12809 1.05732 1.79148 0.763171 2.97752C0.763171 2.97752 0 2.97752 0 3.76821C0 4.55891 0 25.5123 0 26.3029C0 27.489 1.09756 27.489 1.09756 27.489H12.367C12.367 27.489 12.3629 27.4977 12.3629 27.5064C12.3629 28.3216 13.537 28.9775 15 29C16.463 28.9771 17.6371 28.3212 17.6371 27.5064C17.6371 27.4981 17.633 27.489 17.633 27.489H28.9024C28.9024 27.489 30 27.489 30 26.3029C30 25.5123 30 4.55891 30 3.76821C30 2.97752 29.2368 2.97752 29.2368 2.97752ZM13.9024 26.3029C12.8049 25.345 10.2241 24.2246 3.39329 24.2246C2.56829 24.2246 1.97671 23.5905 1.81646 22.7492C1.79671 22.6274 1.77841 4.35728 1.7978 4.23314C1.95951 3.37405 2.59024 2.69327 3.42256 2.64622C3.42695 2.64583 4.07707 2.60708 5.10329 2.60708C10.6599 2.60708 13.9021 3.6334 13.9021 5.35158V26.3029H13.9024ZM28.1832 22.7492C28.0229 23.5905 27.4313 24.2246 26.6063 24.2246C19.7759 24.2246 17.1951 25.345 16.0976 26.3029V5.35118C16.0976 3.63261 19.3398 2.60669 24.8963 2.60669C25.9226 2.60669 26.5727 2.64543 26.5771 2.64583C27.4094 2.69327 28.0401 3.37366 28.2018 4.23275C28.2216 4.35688 28.2029 22.6274 28.1832 22.7492Z" fill="#444444"/>
<path d="M18 9C19.4546 8.61938 22.3638 8.41144 26 8.41144V7C23.0911 7 20.5454 7.1923 18 7.64438V9Z" fill="#444444"/>
<path d="M18 15C19.4546 14.6191 22.3638 14.4111 26 14.4111V13C23.0911 13 20.5454 13.192 18 13.6444V15Z" fill="#444444"/>
<path d="M18 21C19.4546 20.6196 22.3638 20.411 26 20.411V19C23.0911 19 20.5454 19.192 18 19.6445V21Z" fill="#444444"/>
<path d="M3.5 8.41144C7.13617 8.41144 10.0454 8.61969 11.5 9V7.64438C8.95461 7.1923 6.40887 7 3.5 7V8.41144Z" fill="#444444"/>
<path d="M3.5 14.4111C7.13617 14.4111 10.0454 14.6191 11.5 15V13.6444C8.95461 13.192 6.40887 13 3.5 13V14.4111Z" fill="#444444"/>
<path d="M3.5 20.411C7.13617 20.411 10.0454 20.6196 11.5 21V19.6445C8.95461 19.192 6.40887 19 3.5 19V20.411Z" fill="#444444"/>
</svg>
