<svg width="40" height="40" viewBox="0 0 40 40" fill="none" xmlns="http://www.w3.org/2000/svg">
<path d="M28.4286 3.71429H36.5714V36.2857C36.5714 37.7848 35.3562 39 33.8571 39H6.71429C5.21523 39 4 37.7848 4 36.2857V3.71429H12.1429M12.1429 1H28.4286V6.42857C28.4286 7.92763 27.2133 9.14286 25.7143 9.14286H14.8571C13.3581 9.14286 12.1429 7.92763 12.1429 6.42857V1Z" stroke="#444444" stroke-width="2"/>
<path fill-rule="evenodd" clip-rule="evenodd" d="M11.7637 18.9333L17.7619 11.1333L19.2 12.9934L11.7637 22.5333L7.79999 17.4483L9.22499 15.6333L11.7637 18.9333Z" fill="#444444"/>
<path fill-rule="evenodd" clip-rule="evenodd" d="M11.7637 31.6L17.7619 23.8L19.2 25.6601L11.7637 35.2L7.79999 30.115L9.22499 28.3L11.7637 31.6Z" fill="#444444"/>
<path d="M29.3333 18.4667C29.8856 18.4667 30.3333 18.019 30.3333 17.4667C30.3333 16.9144 29.8856 16.4667 29.3333 16.4667V18.4667ZM21.7333 16.4667C21.1811 16.4667 20.7333 16.9144 20.7333 17.4667C20.7333 18.019 21.1811 18.4667 21.7333 18.4667V16.4667ZM29.3333 31.1333C29.8856 31.1333 30.3333 30.6856 30.3333 30.1333C30.3333 29.581 29.8856 29.1333 29.3333 29.1333V31.1333ZM21.7333 29.1333C21.1811 29.1333 20.7333 29.581 20.7333 30.1333C20.7333 30.6856 21.1811 31.1333 21.7333 31.1333V29.1333ZM29.3333 16.4667H21.7333V18.4667H29.3333V16.4667ZM29.3333 29.1333H21.7333V31.1333H29.3333V29.1333Z" fill="#444444"/>
</svg>
