<svg width="40" height="40" viewBox="0 0 40 40" fill="none" xmlns="http://www.w3.org/2000/svg">
<path d="M40 20L25 11.3397L25 28.6603L40 20ZM14.4368 38L14.4368 39.5L15.9368 39.5L15.9368 38L14.4368 38ZM14.4368 2L15.9368 2L15.9368 0.500002L14.4368 0.500002L14.4368 2ZM26.499 18.5C26.486 18.5 26.4731 18.5 26.4602 18.5C26.4473 18.5 26.4344 18.5 26.4214 18.5C26.4085 18.5 26.3956 18.5 26.3827 18.5C26.3698 18.5 26.3569 18.5 26.344 18.5C26.3311 18.5 26.3182 18.5 26.3053 18.5C26.2924 18.5 26.2796 18.5 26.2667 18.5C26.2538 18.5 26.2409 18.5 26.2281 18.5C26.2152 18.5 26.2023 18.5 26.1895 18.5C26.1766 18.5 26.1638 18.5 26.1509 18.5C26.1381 18.5 26.1252 18.5 26.1124 18.5C26.0995 18.5 26.0867 18.5 26.0739 18.5C26.0611 18.5 26.0482 18.5 26.0354 18.5C26.0226 18.5 26.0098 18.5 25.997 18.5C25.9842 18.5 25.9714 18.5 25.9586 18.5C25.9458 18.5 25.933 18.5 25.9202 18.5C25.9074 18.5 25.8946 18.5 25.8818 18.5C25.869 18.5 25.8563 18.5 25.8435 18.5C25.8307 18.5 25.8179 18.5 25.8052 18.5C25.7924 18.5 25.7797 18.5 25.7669 18.5C25.7542 18.5 25.7414 18.5 25.7287 18.5C25.7159 18.5 25.7032 18.5 25.6905 18.5C25.6778 18.5 25.665 18.5 25.6523 18.5C25.6396 18.5 25.6269 18.5 25.6142 18.5C25.6015 18.5 25.5888 18.5 25.5761 18.5C25.5634 18.5 25.5507 18.5 25.538 18.5C25.5253 18.5 25.5126 18.5 25.4999 18.5C25.4873 18.5 25.4746 18.5 25.4619 18.5C25.4493 18.5 25.4366 18.5 25.4239 18.5C25.4113 18.5 25.3986 18.5 25.386 18.5C25.3733 18.5 25.3607 18.5 25.3481 18.5C25.3354 18.5 25.3228 18.5 25.3102 18.5C25.2976 18.5 25.2849 18.5 25.2723 18.5C25.2597 18.5 25.2471 18.5 25.2345 18.5C25.2219 18.5 25.2093 18.5 25.1967 18.5C25.1841 18.5 25.1716 18.5 25.159 18.5C25.1464 18.5 25.1338 18.5 25.1213 18.5C25.1087 18.5 25.0961 18.5 25.0836 18.5C25.071 18.5 25.0585 18.5 25.0459 18.5C25.0334 18.5 25.0208 18.5 25.0083 18.5C24.9958 18.5 24.9833 18.5 24.9707 18.5C24.9582 18.5 24.9457 18.5 24.9332 18.5C24.9207 18.5 24.9082 18.5 24.8957 18.5C24.8832 18.5 24.8707 18.5 24.8582 18.5C24.8457 18.5 24.8332 18.5 24.8208 18.5C24.8083 18.5 24.7958 18.5 24.7833 18.5C24.7709 18.5 24.7584 18.5 24.746 18.5C24.7335 18.5 24.7211 18.5 24.7086 18.5C24.6962 18.5 24.6838 18.5 24.6713 18.5C24.6589 18.5 24.6465 18.5 24.6341 18.5C24.6217 18.5 24.6093 18.5 24.5969 18.5C24.5845 18.5 24.5721 18.5 24.5597 18.5C24.5473 18.5 24.5349 18.5 24.5225 18.5C24.5101 18.5 24.4978 18.5 24.4854 18.5C24.473 18.5 24.4607 18.5 24.4483 18.5C24.436 18.5 24.4236 18.5 24.4113 18.5C24.3989 18.5 24.3866 18.5 24.3743 18.5C24.3619 18.5 24.3496 18.5 24.3373 18.5C24.325 18.5 24.3127 18.5 24.3004 18.5C24.2881 18.5 24.2758 18.5 24.2635 18.5C24.2512 18.5 24.2389 18.5 24.2266 18.5C24.2144 18.5 24.2021 18.5 24.1898 18.5C24.1776 18.5 24.1653 18.5 24.153 18.5C24.1408 18.5 24.1285 18.5 24.1163 18.5C24.1041 18.5 24.0918 18.5 24.0796 18.5C24.0674 18.5 24.0552 18.5 24.0429 18.5C24.0307 18.5 24.0185 18.5 24.0063 18.5C23.9941 18.5 23.9819 18.5 23.9697 18.5C23.9576 18.5 23.9454 18.5 23.9332 18.5C23.921 18.5 23.9089 18.5 23.8967 18.5C23.8846 18.5 23.8724 18.5 23.8603 18.5C23.8481 18.5 23.836 18.5 23.8238 18.5C23.8117 18.5 23.7996 18.5 23.7875 18.5C23.7753 18.5 23.7632 18.5 23.7511 18.5C23.739 18.5 23.7269 18.5 23.7148 18.5C23.7027 18.5 23.6906 18.5 23.6786 18.5C23.6665 18.5 23.6544 18.5 23.6423 18.5C23.6303 18.5 23.6182 18.5 23.6062 18.5C23.5941 18.5 23.5821 18.5 23.57 18.5C23.558 18.5 23.546 18.5 23.534 18.5C23.5219 18.5 23.5099 18.5 23.4979 18.5C23.4859 18.5 23.4739 18.5 23.4619 18.5C23.4499 18.5 23.4379 18.5 23.4259 18.5C23.414 18.5 23.402 18.5 23.39 18.5C23.3781 18.5 23.3661 18.5 23.3541 18.5C23.3422 18.5 23.3302 18.5 23.3183 18.5C23.3064 18.5 23.2944 18.5 23.2825 18.5C23.2706 18.5 23.2587 18.5 23.2468 18.5C23.2349 18.5 23.223 18.5 23.2111 18.5C23.1992 18.5 23.1873 18.5 23.1754 18.5C23.1635 18.5 23.1517 18.5 23.1398 18.5C23.1279 18.5 23.1161 18.5 23.1042 18.5C23.0924 18.5 23.0805 18.5 23.0687 18.5C23.0569 18.5 23.045 18.5 23.0332 18.5C23.0214 18.5 23.0096 18.5 22.9978 18.5C22.986 18.5 22.9742 18.5 22.9624 18.5C22.9506 18.5 22.9388 18.5 22.927 18.5C22.9153 18.5 22.9035 18.5 22.8917 18.5C22.88 18.5 22.8682 18.5 22.8565 18.5C22.8447 18.5 22.833 18.5 22.8213 18.5C22.8095 18.5 22.7978 18.5 22.7861 18.5C22.7744 18.5 22.7627 18.5 22.751 18.5C22.7393 18.5 22.7276 18.5 22.7159 18.5C22.7042 18.5 22.6925 18.5 22.6809 18.5C22.6692 18.5 22.6575 18.5 22.6459 18.5C22.6342 18.5 22.6226 18.5 22.611 18.5C22.5993 18.5 22.5877 18.5 22.5761 18.5C22.5644 18.5 22.5528 18.5 22.5412 18.5C22.5296 18.5 22.518 18.5 22.5064 18.5C22.4948 18.5 22.4833 18.5 22.4717 18.5C22.4601 18.5 22.4486 18.5 22.437 18.5C22.4254 18.5 22.4139 18.5 22.4023 18.5C22.3908 18.5 22.3793 18.5 22.3677 18.5C22.3562 18.5 22.3447 18.5 22.3332 18.5C22.3217 18.5 22.3102 18.5 22.2987 18.5C22.2872 18.5 22.2757 18.5 22.2642 18.5C22.2528 18.5 22.2413 18.5 22.2298 18.5C22.2184 18.5 22.2069 18.5 22.1955 18.5C22.184 18.5 22.1726 18.5 22.1612 18.5C22.1497 18.5 22.1383 18.5 22.1269 18.5C22.1155 18.5 22.1041 18.5 22.0927 18.5C22.0813 18.5 22.0699 18.5 22.0585 18.5C22.0472 18.5 22.0358 18.5 22.0244 18.5C22.0131 18.5 22.0017 18.5 21.9904 18.5C21.979 18.5 21.9677 18.5 21.9564 18.5C21.945 18.5 21.9337 18.5 21.9224 18.5C21.9111 18.5 21.8998 18.5 21.8885 18.5C21.8772 18.5 21.8659 18.5 21.8546 18.5C21.8434 18.5 21.8321 18.5 21.8208 18.5C21.8096 18.5 21.7983 18.5 21.7871 18.5C21.7758 18.5 21.7646 18.5 21.7534 18.5C21.7422 18.5 21.7309 18.5 21.7197 18.5C21.7085 18.5 21.6973 18.5 21.6861 18.5C21.675 18.5 21.6638 18.5 21.6526 18.5C21.6414 18.5 21.6303 18.5 21.6191 18.5C21.6079 18.5 21.5968 18.5 21.5857 18.5C21.5745 18.5 21.5634 18.5 21.5523 18.5C21.5412 18.5 21.53 18.5 21.5189 18.5C21.5078 18.5 21.4967 18.5 21.4857 18.5C21.4746 18.5 21.4635 18.5 21.4524 18.5C21.4414 18.5 21.4303 18.5 21.4193 18.5C21.4082 18.5 21.3972 18.5 21.3861 18.5C21.3751 18.5 21.3641 18.5 21.3531 18.5C21.3421 18.5 21.3311 18.5 21.3201 18.5C21.3091 18.5 21.2981 18.5 21.2871 18.5C21.2761 18.5 21.2652 18.5 21.2542 18.5C21.2432 18.5 21.2323 18.5 21.2213 18.5C21.2104 18.5 21.1995 18.5 21.1885 18.5C21.1776 18.5 21.1667 18.5 21.1558 18.5C21.1449 18.5 21.134 18.5 21.1231 18.5C21.1122 18.5 21.1014 18.5 21.0905 18.5C21.0796 18.5 21.0688 18.5 21.0579 18.5C21.0471 18.5 21.0362 18.5 21.0254 18.5C21.0146 18.5 21.0038 18.5 20.9929 18.5C20.9821 18.5 20.9713 18.5 20.9605 18.5C20.9497 18.5 20.939 18.5 20.9282 18.5C20.9174 18.5 20.9066 18.5 20.8959 18.5C20.8851 18.5 20.8744 18.5 20.8637 18.5C20.8529 18.5 20.8422 18.5 20.8315 18.5C20.8208 18.5 20.8101 18.5 20.7994 18.5C20.7887 18.5 20.778 18.5 20.7673 18.5C20.7566 18.5 20.7459 18.5 20.7353 18.5C20.7246 18.5 20.714 18.5 20.7033 18.5C20.6927 18.5 20.6821 18.5 20.6714 18.5C20.6608 18.5 20.6502 18.5 20.6396 18.5C20.629 18.5 20.6184 18.5 20.6078 18.5C20.5973 18.5 20.5867 18.5 20.5761 18.5C20.5656 18.5 20.555 18.5 20.5445 18.5C20.5339 18.5 20.5234 18.5 20.5129 18.5C20.5023 18.5 20.4918 18.5 20.4813 18.5C20.4708 18.5 20.4603 18.5 20.4498 18.5C20.4394 18.5 20.4289 18.5 20.4184 18.5C20.408 18.5 20.3975 18.5 20.3871 18.5C20.3766 18.5 20.3662 18.5 20.3558 18.5C20.3453 18.5 20.3349 18.5 20.3245 18.5C20.3141 18.5 20.3037 18.5 20.2933 18.5C20.2829 18.5 20.2726 18.5 20.2622 18.5C20.2518 18.5 20.2415 18.5 20.2311 18.5C20.2208 18.5 20.2105 18.5 20.2001 18.5C20.1898 18.5 20.1795 18.5 20.1692 18.5C20.1589 18.5 20.1486 18.5 20.1383 18.5C20.128 18.5 20.1178 18.5 20.1075 18.5C20.0972 18.5 20.087 18.5 20.0767 18.5C20.0665 18.5 20.0563 18.5 20.0461 18.5C20.0358 18.5 20.0256 18.5 20.0154 18.5C20.0052 18.5 19.995 18.5 19.9849 18.5C19.9747 18.5 19.9645 18.5 19.9543 18.5C19.9442 18.5 19.934 18.5 19.9239 18.5C19.9138 18.5 19.9036 18.5 19.8935 18.5C19.8834 18.5 19.8733 18.5 19.8632 18.5C19.8531 18.5 19.843 18.5 19.8329 18.5C19.8229 18.5 19.8128 18.5 19.8027 18.5C19.7927 18.5 19.7826 18.5 19.7726 18.5C19.7626 18.5 19.7526 18.5 19.7425 18.5C19.7325 18.5 19.7225 18.5 19.7125 18.5C19.7026 18.5 19.6926 18.5 19.6826 18.5C19.6726 18.5 19.6627 18.5 19.6527 18.5C19.6428 18.5 19.6328 18.5 19.6229 18.5C19.613 18.5 19.6031 18.5 19.5932 18.5C19.5833 18.5 19.5734 18.5 19.5635 18.5C19.5536 18.5 19.5437 18.5 19.5339 18.5C19.524 18.5 19.5142 18.5 19.5043 18.5C19.4945 18.5 19.4847 18.5 19.4748 18.5C19.465 18.5 19.4552 18.5 19.4454 18.5C19.4356 18.5 19.4258 18.5 19.4161 18.5C19.4063 18.5 19.3965 18.5 19.3868 18.5C19.377 18.5 19.3673 18.5 19.3575 18.5C19.3478 18.5 19.3381 18.5 19.3284 18.5C19.3187 18.5 19.309 18.5 19.2993 18.5C19.2896 18.5 19.2799 18.5 19.2703 18.5C19.2606 18.5 19.251 18.5 19.2413 18.5C19.2317 18.5 19.2221 18.5 19.2124 18.5C19.2028 18.5 19.1932 18.5 19.1836 18.5C19.174 18.5 19.1644 18.5 19.1549 18.5C19.1453 18.5 19.1357 18.5 19.1262 18.5C19.1166 18.5 19.1071 18.5 19.0975 18.5C19.088 18.5 19.0785 18.5 19.069 18.5C19.0595 18.5 19.05 18.5 19.0405 18.5C19.031 18.5 19.0216 18.5 19.0121 18.5C19.0026 18.5 18.9932 18.5 18.9837 18.5C18.9743 18.5 18.9649 18.5 18.9555 18.5C18.9461 18.5 18.9367 18.5 18.9273 18.5C18.9179 18.5 18.9085 18.5 18.8991 18.5C18.8898 18.5 18.8804 18.5 18.8711 18.5C18.8617 18.5 18.8524 18.5 18.843 18.5C18.8337 18.5 18.8244 18.5 18.8151 18.5C18.8058 18.5 18.7965 18.5 18.7873 18.5C18.778 18.5 18.7687 18.5 18.7595 18.5C18.7502 18.5 18.741 18.5 18.7317 18.5C18.7225 18.5 18.7133 18.5 18.7041 18.5C18.6949 18.5 18.6857 18.5 18.6765 18.5C18.6673 18.5 18.6582 18.5 18.649 18.5C18.6398 18.5 18.6307 18.5 18.6216 18.5C18.6124 18.5 18.6033 18.5 18.5942 18.5C18.5851 18.5 18.576 18.5 18.5669 18.5C18.5578 18.5 18.5487 18.5 18.5397 18.5C18.5306 18.5 18.5216 18.5 18.5125 18.5C18.5035 18.5 18.4945 18.5 18.4854 18.5C18.4764 18.5 18.4674 18.5 18.4584 18.5C18.4494 18.5 18.4405 18.5 18.4315 18.5C18.4225 18.5 18.4136 18.5 18.4046 18.5C18.3957 18.5 18.3868 18.5 18.3778 18.5C18.3689 18.5 18.36 18.5 18.3511 18.5C18.3422 18.5 18.3334 18.5 18.3245 18.5C18.3156 18.5 18.3068 18.5 18.2979 18.5C18.2891 18.5 18.2802 18.5 18.2714 18.5C18.2626 18.5 18.2538 18.5 18.245 18.5C18.2362 18.5 18.2274 18.5 18.2186 18.5C18.2099 18.5 18.2011 18.5 18.1924 18.5C18.1836 18.5 18.1749 18.5 18.1662 18.5C18.1574 18.5 18.1487 18.5 18.14 18.5C18.1313 18.5 18.1227 18.5 18.114 18.5C18.1053 18.5 18.0966 18.5 18.088 18.5C18.0794 18.5 18.0707 18.5 18.0621 18.5C18.0535 18.5 18.0449 18.5 18.0363 18.5C18.0277 18.5 18.0191 18.5 18.0105 18.5C18.0019 18.5 17.9934 18.5 17.9848 18.5C17.9763 18.5 17.9678 18.5 17.9592 18.5C17.9507 18.5 17.9422 18.5 17.9337 18.5C17.9252 18.5 17.9167 18.5 17.9083 18.5C17.8998 18.5 17.8913 18.5 17.8829 18.5C17.8744 18.5 17.866 18.5 17.8576 18.5C17.8492 18.5 17.8408 18.5 17.8324 18.5C17.824 18.5 17.8156 18.5 17.8072 18.5C17.7989 18.5 17.7905 18.5 17.7822 18.5C17.7738 18.5 17.7655 18.5 17.7572 18.5C17.7489 18.5 17.7406 18.5 17.7323 18.5C17.724 18.5 17.7157 18.5 17.7074 18.5C17.6992 18.5 17.6909 18.5 17.6827 18.5C17.6744 18.5 17.6662 18.5 17.658 18.5C17.6498 18.5 17.6416 18.5 17.6334 18.5C17.6252 18.5 17.617 18.5 17.6089 18.5C17.6007 18.5 17.5926 18.5 17.5844 18.5C17.5763 18.5 17.5682 18.5 17.5601 18.5C17.552 18.5 17.5439 18.5 17.5358 18.5C17.5277 18.5 17.5196 18.5 17.5116 18.5C17.5035 18.5 17.4955 18.5 17.4875 18.5C17.4794 18.5 17.4714 18.5 17.4634 18.5C17.4554 18.5 17.4474 18.5 17.4395 18.5C17.4315 18.5 17.4235 18.5 17.4156 18.5C17.4076 18.5 17.3997 18.5 17.3918 18.5C17.3838 18.5 17.3759 18.5 17.368 18.5C17.3601 18.5 17.3523 18.5 17.3444 18.5C17.3365 18.5 17.3287 18.5 17.3208 18.5C17.313 18.5 17.3052 18.5 17.2973 18.5C17.2895 18.5 17.2817 18.5 17.2739 18.5C17.2662 18.5 17.2584 18.5 17.2506 18.5C17.2429 18.5 17.2351 18.5 17.2274 18.5C17.2197 18.5 17.2119 18.5 17.2042 18.5C17.1965 18.5 17.1888 18.5 17.1811 18.5C17.1735 18.5 17.1658 18.5 17.1582 18.5C17.1505 18.5 17.1429 18.5 17.1352 18.5C17.1276 18.5 17.12 18.5 17.1124 18.5C17.1048 18.5 17.0972 18.5 17.0897 18.5C17.0821 18.5 17.0745 18.5 17.067 18.5C17.0595 18.5 17.0519 18.5 17.0444 18.5C17.0369 18.5 17.0294 18.5 17.0219 18.5C17.0144 18.5 17.007 18.5 16.9995 18.5C16.9921 18.5 16.9846 18.5 16.9772 18.5C16.9698 18.5 16.9623 18.5 16.9549 18.5C16.9475 18.5 16.9401 18.5 16.9328 18.5C16.9254 18.5 16.918 18.5 16.9107 18.5C16.9033 18.5 16.896 18.5 16.8887 18.5C16.8814 18.5 16.8741 18.5 16.8668 18.5C16.8595 18.5 16.8522 18.5 16.845 18.5C16.8377 18.5 16.8305 18.5 16.8232 18.5C16.816 18.5 16.8088 18.5 16.8016 18.5C16.7944 18.5 16.7872 18.5 16.78 18.5C16.7728 18.5 16.7657 18.5 16.7585 18.5C16.7514 18.5 16.7442 18.5 16.7371 18.5C16.73 18.5 16.7229 18.5 16.7158 18.5C16.7087 18.5 16.7016 18.5 16.6946 18.5C16.6875 18.5 16.6805 18.5 16.6734 18.5C16.6664 18.5 16.6594 18.5 16.6524 18.5C16.6454 18.5 16.6384 18.5 16.6314 18.5C16.6244 18.5 16.6175 18.5 16.6105 18.5C16.6036 18.5 16.5967 18.5 16.5897 18.5C16.5828 18.5 16.5759 18.5 16.569 18.5C16.5622 18.5 16.5553 18.5 16.5484 18.5C16.5416 18.5 16.5347 18.5 16.5279 18.5C16.5211 18.5 16.5142 18.5 16.5074 18.5C16.5006 18.5 16.4939 18.5 16.4871 18.5C16.4803 18.5 16.4736 18.5 16.4668 18.5C16.4601 18.5 16.4534 18.5 16.4466 18.5C16.4399 18.5 16.4332 18.5 16.4266 18.5C16.4199 18.5 16.4132 18.5 16.4066 18.5C16.3999 18.5 16.3933 18.5 16.3866 18.5C16.38 18.5 16.3734 18.5 16.3668 18.5C16.3602 18.5 16.3536 18.5 16.3471 18.5C16.3405 18.5 16.334 18.5 16.3274 18.5C16.3209 18.5 16.3144 18.5 16.3079 18.5C16.3014 18.5 16.2949 18.5 16.2884 18.5C16.2819 18.5 16.2755 18.5 16.269 18.5C16.2626 18.5 16.2562 18.5 16.2498 18.5C16.2433 18.5 16.2369 18.5 16.2306 18.5C16.2242 18.5 16.2178 18.5 16.2115 18.5C16.2051 18.5 16.1988 18.5 16.1924 18.5C16.1861 18.5 16.1798 18.5 16.1735 18.5C16.1672 18.5 16.161 18.5 16.1547 18.5C16.1484 18.5 16.1422 18.5 16.136 18.5C16.1297 18.5 16.1235 18.5 16.1173 18.5C16.1111 18.5 16.1049 18.5 16.0987 18.5C16.0926 18.5 16.0864 18.5 16.0803 18.5C16.0741 18.5 16.068 18.5 16.0619 18.5C16.0558 18.5 16.0497 18.5 16.0436 18.5C16.0376 18.5 16.0315 18.5 16.0254 18.5C16.0194 18.5 16.0134 18.5 16.0074 18.5C16.0013 18.5 15.9953 18.5 15.9893 18.5C15.9834 18.5 15.9774 18.5 15.9714 18.5C15.9655 18.5 15.9595 18.5 15.9536 18.5C15.9477 18.5 15.9418 18.5 15.9359 18.5C15.93 18.5 15.9241 18.5 15.9183 18.5C15.9124 18.5 15.9066 18.5 15.9007 18.5C15.8949 18.5 15.8891 18.5 15.8833 18.5C15.8775 18.5 15.8717 18.5 15.866 18.5C15.8602 18.5 15.8544 18.5 15.8487 18.5C15.843 18.5 15.8373 18.5 15.8315 18.5C15.8258 18.5 15.8202 18.5 15.8145 18.5C15.8088 18.5 15.8032 18.5 15.7975 18.5C15.7919 18.5 15.7863 18.5 15.7806 18.5C15.775 18.5 15.7694 18.5 15.7639 18.5C15.7583 18.5 15.7527 18.5 15.7472 18.5C15.7416 18.5 15.7361 18.5 15.7306 18.5C15.7251 18.5 15.7196 18.5 15.7141 18.5C15.7086 18.5 15.7032 18.5 15.6977 18.5C15.6923 18.5 15.6868 18.5 15.6814 18.5C15.676 18.5 15.6706 18.5 15.6652 18.5C15.6598 18.5 15.6545 18.5 15.6491 18.5C15.6438 18.5 15.6384 18.5 15.6331 18.5C15.6278 18.5 15.6225 18.5 15.6172 18.5C15.6119 18.5 15.6067 18.5 15.6014 18.5C15.5961 18.5 15.5909 18.5 15.5857 18.5C15.5805 18.5 15.5753 18.5 15.5701 18.5C15.5649 18.5 15.5597 18.5 15.5545 18.5C15.5494 18.5 15.5443 18.5 15.5391 18.5C15.534 18.5 15.5289 18.5 15.5238 18.5C15.5187 18.5 15.5136 18.5 15.5086 18.5C15.5035 18.5 15.4985 18.5 15.4935 18.5C15.4884 18.5 15.4834 18.5 15.4784 18.5C15.4734 18.5 15.4685 18.5 15.4635 18.5C15.4585 18.5 15.4536 18.5 15.4487 18.5C15.4437 18.5 15.4388 18.5 15.4339 18.5C15.4291 18.5 15.4242 18.5 15.4193 18.5C15.4145 18.5 15.4096 18.5 15.4048 18.5C15.4 18.5 15.3951 18.5 15.3904 18.5C15.3856 18.5 15.3808 18.5 15.376 18.5C15.3713 18.5 15.3665 18.5 15.3618 18.5C15.3571 18.5 15.3524 18.5 15.3477 18.5C15.343 18.5 15.3383 18.5 15.3336 18.5C15.329 18.5 15.3243 18.5 15.3197 18.5C15.3151 18.5 15.3105 18.5 15.3059 18.5C15.3013 18.5 15.2967 18.5 15.2922 18.5C15.2876 18.5 15.2831 18.5 15.2785 18.5C15.274 18.5 15.2695 18.5 15.265 18.5C15.2605 18.5 15.2561 18.5 15.2516 18.5C15.2471 18.5 15.2427 18.5 15.2383 18.5C15.2339 18.5 15.2295 18.5 15.2251 18.5C15.2207 18.5 15.2163 18.5 15.212 18.5C15.2076 18.5 15.2033 18.5 15.1989 18.5C15.1946 18.5 15.1903 18.5 15.186 18.5C15.1817 18.5 15.1775 18.5 15.1732 18.5C15.169 18.5 15.1647 18.5 15.1605 18.5C15.1563 18.5 15.1521 18.5 15.1479 18.5C15.1437 18.5 15.1396 18.5 15.1354 18.5C15.1313 18.5 15.1272 18.5 15.123 18.5C15.1189 18.5 15.1148 18.5 15.1108 18.5C15.1067 18.5 15.1026 18.5 15.0986 18.5C15.0945 18.5 15.0905 18.5 15.0865 18.5C15.0825 18.5 15.0785 18.5 15.0745 18.5C15.0706 18.5 15.0666 18.5 15.0627 18.5C15.0587 18.5 15.0548 18.5 15.0509 18.5C15.047 18.5 15.0431 18.5 15.0392 18.5C15.0354 18.5 15.0315 18.5 15.0277 18.5C15.0238 18.5 15.02 18.5 15.0162 18.5C15.0124 18.5 15.0087 18.5 15.0049 18.5C15.0011 18.5 14.9974 18.5 14.9937 18.5C14.9899 18.5 14.9862 18.5 14.9825 18.5C14.9788 18.5 14.9752 18.5 14.9715 18.5C14.9678 18.5 14.9642 18.5 14.9606 18.5C14.957 18.5 14.9534 18.5 14.9498 18.5C14.9462 18.5 14.9426 18.5 14.9391 18.5C14.9355 18.5 14.932 18.5 14.9285 18.5C14.925 18.5 14.9215 18.5 14.918 18.5C14.9145 18.5 14.911 18.5 14.9076 18.5C14.9042 18.5 14.9007 18.5 14.8973 18.5C14.8939 18.5 14.8905 18.5 14.8872 18.5C14.8838 18.5 14.8804 18.5 14.8771 18.5C14.8738 18.5 14.8704 18.5 14.8671 18.5C14.8638 18.5 14.8606 18.5 14.8573 18.5C14.854 18.5 14.8508 18.5 14.8476 18.5C14.8443 18.5 14.8411 18.5 14.8379 18.5C14.8348 18.5 14.8316 18.5 14.8284 18.5C14.8253 18.5 14.8221 18.5 14.819 18.5C14.8159 18.5 14.8128 18.5 14.8097 18.5C14.8066 18.5 14.8036 18.5 14.8005 18.5C14.7975 18.5 14.7945 18.5 14.7915 18.5C14.7884 18.5 14.7855 18.5 14.7825 18.5C14.7795 18.5 14.7766 18.5 14.7736 18.5C14.7707 18.5 14.7678 18.5 14.7649 18.5C14.762 18.5 14.7591 18.5 14.7562 18.5C14.7534 18.5 14.7505 18.5 14.7477 18.5C14.7449 18.5 14.7421 18.5 14.7393 18.5C14.7365 18.5 14.7337 18.5 14.731 18.5C14.7282 18.5 14.7255 18.5 14.7228 18.5C14.7201 18.5 14.7174 18.5 14.7147 18.5C14.712 18.5 14.7094 18.5 14.7067 18.5C14.7041 18.5 14.7015 18.5 14.6989 18.5C14.6963 18.5 14.6937 18.5 14.6911 18.5C14.6886 18.5 14.686 18.5 14.6835 18.5C14.681 18.5 14.6785 18.5 14.676 18.5C14.6735 18.5 14.671 18.5 14.6686 18.5C14.6661 18.5 14.6637 18.5 14.6613 18.5C14.6588 18.5 14.6564 18.5 14.6541 18.5C14.6517 18.5 14.6493 18.5 14.647 18.5C14.6447 18.5 14.6423 18.5 14.64 18.5C14.6377 18.5 14.6355 18.5 14.6332 18.5C14.6309 18.5 14.6287 18.5 14.6265 18.5C14.6242 18.5 14.622 18.5 14.6198 18.5C14.6177 18.5 14.6155 18.5 14.6133 18.5C14.6112 18.5 14.6091 18.5 14.607 18.5C14.6048 18.5 14.6027 18.5 14.6007 18.5C14.5986 18.5 14.5965 18.5 14.5945 18.5C14.5925 18.5 14.5905 18.5 14.5885 18.5C14.5865 18.5 14.5845 18.5 14.5825 18.5C14.5806 18.5 14.5786 18.5 14.5767 18.5C14.5748 18.5 14.5729 18.5 14.571 18.5C14.5691 18.5 14.5673 18.5 14.5654 18.5C14.5636 18.5 14.5618 18.5 14.56 18.5C14.5582 18.5 14.5564 18.5 14.5546 18.5C14.5529 18.5 14.5511 18.5 14.5494 18.5C14.5477 18.5 14.5459 18.5 14.5443 18.5C14.5426 18.5 14.5409 18.5 14.5393 18.5C14.5376 18.5 14.536 18.5 14.5344 18.5C14.5328 18.5 14.5312 18.5 14.5296 18.5C14.528 18.5 14.5265 18.5 14.5249 18.5C14.5234 18.5 14.5219 18.5 14.5204 18.5C14.5189 18.5 14.5174 18.5 14.516 18.5C14.5145 18.5 14.5131 18.5 14.5117 18.5C14.5103 18.5 14.5089 18.5 14.5075 18.5C14.5061 18.5 14.5048 18.5 14.5034 18.5C14.5021 18.5 14.5008 18.5 14.4995 18.5C14.4982 18.5 14.4969 18.5 14.4957 18.5C14.4944 18.5 14.4932 18.5 14.492 18.5C14.4907 18.5 14.4895 18.5 14.4884 18.5C14.4872 18.5 14.486 18.5 14.4849 18.5C14.4838 18.5 14.4826 18.5 14.4815 18.5C14.4804 18.5 14.4794 18.5 14.4783 18.5C14.4772 18.5 14.4762 18.5 14.4752 18.5C14.4742 18.5 14.4732 18.5 14.4722 18.5C14.4712 18.5 14.4703 18.5 14.4693 18.5C14.4684 18.5 14.4675 18.5 14.4666 18.5C14.4657 18.5 14.4648 18.5 14.4639 18.5C14.4631 18.5 14.4622 18.5 14.4614 18.5C14.4606 18.5 14.4598 18.5 14.459 18.5C14.4583 18.5 14.4575 18.5 14.4568 18.5C14.456 18.5 14.4553 18.5 14.4546 18.5C14.4539 18.5 14.4532 18.5 14.4526 18.5C14.4519 18.5 14.4513 18.5 14.4507 18.5C14.4501 18.5 14.4495 18.5 14.4489 18.5C14.4483 18.5 14.4478 18.5 14.4472 18.5C14.4467 18.5 14.4462 18.5 14.4457 18.5C14.4452 18.5 14.4447 18.5 14.4443 18.5C14.4438 18.5 14.4434 18.5 14.443 18.5C14.4426 18.5 14.4422 18.5 14.4418 18.5C14.4414 18.5 14.4411 18.5 14.4407 18.5C14.4404 18.5 14.4401 18.5 14.4398 18.5C14.4395 18.5 14.4393 18.5 14.439 18.5C14.4388 18.5 14.4385 18.5 14.4383 18.5C14.4381 18.5 14.4379 18.5 14.4378 18.5C14.4376 18.5 14.4375 18.5 14.4373 18.5C14.4372 18.5 14.4371 18.5 14.437 18.5C14.4369 18.5 14.4369 18.5 14.4368 18.5C14.4368 18.5 14.4368 18.5 14.4368 20C14.4368 21.5 14.4368 21.5 14.4368 21.5C14.4369 21.5 14.4369 21.5 14.437 21.5C14.4371 21.5 14.4372 21.5 14.4373 21.5C14.4375 21.5 14.4376 21.5 14.4378 21.5C14.4379 21.5 14.4381 21.5 14.4383 21.5C14.4385 21.5 14.4388 21.5 14.439 21.5C14.4393 21.5 14.4395 21.5 14.4398 21.5C14.4401 21.5 14.4404 21.5 14.4407 21.5C14.4411 21.5 14.4414 21.5 14.4418 21.5C14.4422 21.5 14.4426 21.5 14.443 21.5C14.4434 21.5 14.4438 21.5 14.4443 21.5C14.4447 21.5 14.4452 21.5 14.4457 21.5C14.4462 21.5 14.4467 21.5 14.4472 21.5C14.4478 21.5 14.4483 21.5 14.4489 21.5C14.4495 21.5 14.4501 21.5 14.4507 21.5C14.4513 21.5 14.4519 21.5 14.4526 21.5C14.4532 21.5 14.4539 21.5 14.4546 21.5C14.4553 21.5 14.456 21.5 14.4568 21.5C14.4575 21.5 14.4583 21.5 14.459 21.5C14.4598 21.5 14.4606 21.5 14.4614 21.5C14.4622 21.5 14.4631 21.5 14.4639 21.5C14.4648 21.5 14.4657 21.5 14.4666 21.5C14.4675 21.5 14.4684 21.5 14.4693 21.5C14.4703 21.5 14.4712 21.5 14.4722 21.5C14.4732 21.5 14.4742 21.5 14.4752 21.5C14.4762 21.5 14.4772 21.5 14.4783 21.5C14.4794 21.5 14.4804 21.5 14.4815 21.5C14.4826 21.5 14.4838 21.5 14.4849 21.5C14.486 21.5 14.4872 21.5 14.4884 21.5C14.4895 21.5 14.4907 21.5 14.492 21.5C14.4932 21.5 14.4944 21.5 14.4957 21.5C14.4969 21.5 14.4982 21.5 14.4995 21.5C14.5008 21.5 14.5021 21.5 14.5034 21.5C14.5048 21.5 14.5061 21.5 14.5075 21.5C14.5089 21.5 14.5103 21.5 14.5117 21.5C14.5131 21.5 14.5145 21.5 14.516 21.5C14.5174 21.5 14.5189 21.5 14.5204 21.5C14.5219 21.5 14.5234 21.5 14.5249 21.5C14.5265 21.5 14.528 21.5 14.5296 21.5C14.5312 21.5 14.5328 21.5 14.5344 21.5C14.536 21.5 14.5376 21.5 14.5393 21.5C14.5409 21.5 14.5426 21.5 14.5443 21.5C14.5459 21.5 14.5477 21.5 14.5494 21.5C14.5511 21.5 14.5529 21.5 14.5546 21.5C14.5564 21.5 14.5582 21.5 14.56 21.5C14.5618 21.5 14.5636 21.5 14.5654 21.5C14.5673 21.5 14.5691 21.5 14.571 21.5C14.5729 21.5 14.5748 21.5 14.5767 21.5C14.5786 21.5 14.5806 21.5 14.5825 21.5C14.5845 21.5 14.5865 21.5 14.5885 21.5C14.5905 21.5 14.5925 21.5 14.5945 21.5C14.5965 21.5 14.5986 21.5 14.6007 21.5C14.6027 21.5 14.6048 21.5 14.607 21.5C14.6091 21.5 14.6112 21.5 14.6133 21.5C14.6155 21.5 14.6177 21.5 14.6198 21.5C14.622 21.5 14.6242 21.5 14.6265 21.5C14.6287 21.5 14.6309 21.5 14.6332 21.5C14.6355 21.5 14.6377 21.5 14.64 21.5C14.6423 21.5 14.6447 21.5 14.647 21.5C14.6493 21.5 14.6517 21.5 14.6541 21.5C14.6564 21.5 14.6588 21.5 14.6613 21.5C14.6637 21.5 14.6661 21.5 14.6686 21.5C14.671 21.5 14.6735 21.5 14.676 21.5C14.6785 21.5 14.681 21.5 14.6835 21.5C14.686 21.5 14.6886 21.5 14.6911 21.5C14.6937 21.5 14.6963 21.5 14.6989 21.5C14.7015 21.5 14.7041 21.5 14.7067 21.5C14.7094 21.5 14.712 21.5 14.7147 21.5C14.7174 21.5 14.7201 21.5 14.7228 21.5C14.7255 21.5 14.7282 21.5 14.731 21.5C14.7337 21.5 14.7365 21.5 14.7393 21.5C14.7421 21.5 14.7449 21.5 14.7477 21.5C14.7505 21.5 14.7534 21.5 14.7562 21.5C14.7591 21.5 14.762 21.5 14.7649 21.5C14.7678 21.5 14.7707 21.5 14.7736 21.5C14.7766 21.5 14.7795 21.5 14.7825 21.5C14.7855 21.5 14.7884 21.5 14.7915 21.5C14.7945 21.5 14.7975 21.5 14.8005 21.5C14.8036 21.5 14.8066 21.5 14.8097 21.5C14.8128 21.5 14.8159 21.5 14.819 21.5C14.8221 21.5 14.8253 21.5 14.8284 21.5C14.8316 21.5 14.8348 21.5 14.8379 21.5C14.8411 21.5 14.8443 21.5 14.8476 21.5C14.8508 21.5 14.854 21.5 14.8573 21.5C14.8606 21.5 14.8638 21.5 14.8671 21.5C14.8704 21.5 14.8738 21.5 14.8771 21.5C14.8804 21.5 14.8838 21.5 14.8872 21.5C14.8905 21.5 14.8939 21.5 14.8973 21.5C14.9007 21.5 14.9042 21.5 14.9076 21.5C14.911 21.5 14.9145 21.5 14.918 21.5C14.9215 21.5 14.925 21.5 14.9285 21.5C14.932 21.5 14.9355 21.5 14.9391 21.5C14.9426 21.5 14.9462 21.5 14.9498 21.5C14.9534 21.5 14.957 21.5 14.9606 21.5C14.9642 21.5 14.9678 21.5 14.9715 21.5C14.9752 21.5 14.9788 21.5 14.9825 21.5C14.9862 21.5 14.9899 21.5 14.9937 21.5C14.9974 21.5 15.0011 21.5 15.0049 21.5C15.0087 21.5 15.0124 21.5 15.0162 21.5C15.02 21.5 15.0238 21.5 15.0277 21.5C15.0315 21.5 15.0354 21.5 15.0392 21.5C15.0431 21.5 15.047 21.5 15.0509 21.5C15.0548 21.5 15.0587 21.5 15.0627 21.5C15.0666 21.5 15.0706 21.5 15.0745 21.5C15.0785 21.5 15.0825 21.5 15.0865 21.5C15.0905 21.5 15.0945 21.5 15.0986 21.5C15.1026 21.5 15.1067 21.5 15.1108 21.5C15.1148 21.5 15.1189 21.5 15.123 21.5C15.1272 21.5 15.1313 21.5 15.1354 21.5C15.1396 21.5 15.1437 21.5 15.1479 21.5C15.1521 21.5 15.1563 21.5 15.1605 21.5C15.1647 21.5 15.169 21.5 15.1732 21.5C15.1775 21.5 15.1817 21.5 15.186 21.5C15.1903 21.5 15.1946 21.5 15.1989 21.5C15.2033 21.5 15.2076 21.5 15.212 21.5C15.2163 21.5 15.2207 21.5 15.2251 21.5C15.2295 21.5 15.2339 21.5 15.2383 21.5C15.2427 21.5 15.2471 21.5 15.2516 21.5C15.2561 21.5 15.2605 21.5 15.265 21.5C15.2695 21.5 15.274 21.5 15.2785 21.5C15.2831 21.5 15.2876 21.5 15.2922 21.5C15.2967 21.5 15.3013 21.5 15.3059 21.5C15.3105 21.5 15.3151 21.5 15.3197 21.5C15.3243 21.5 15.329 21.5 15.3336 21.5C15.3383 21.5 15.343 21.5 15.3477 21.5C15.3524 21.5 15.3571 21.5 15.3618 21.5C15.3665 21.5 15.3713 21.5 15.376 21.5C15.3808 21.5 15.3856 21.5 15.3904 21.5C15.3951 21.5 15.4 21.5 15.4048 21.5C15.4096 21.5 15.4145 21.5 15.4193 21.5C15.4242 21.5 15.4291 21.5 15.4339 21.5C15.4388 21.5 15.4437 21.5 15.4487 21.5C15.4536 21.5 15.4585 21.5 15.4635 21.5C15.4685 21.5 15.4734 21.5 15.4784 21.5C15.4834 21.5 15.4884 21.5 15.4935 21.5C15.4985 21.5 15.5035 21.5 15.5086 21.5C15.5136 21.5 15.5187 21.5 15.5238 21.5C15.5289 21.5 15.534 21.5 15.5391 21.5C15.5443 21.5 15.5494 21.5 15.5545 21.5C15.5597 21.5 15.5649 21.5 15.5701 21.5C15.5753 21.5 15.5805 21.5 15.5857 21.5C15.5909 21.5 15.5961 21.5 15.6014 21.5C15.6067 21.5 15.6119 21.5 15.6172 21.5C15.6225 21.5 15.6278 21.5 15.6331 21.5C15.6384 21.5 15.6438 21.5 15.6491 21.5C15.6545 21.5 15.6598 21.5 15.6652 21.5C15.6706 21.5 15.676 21.5 15.6814 21.5C15.6868 21.5 15.6923 21.5 15.6977 21.5C15.7032 21.5 15.7086 21.5 15.7141 21.5C15.7196 21.5 15.7251 21.5 15.7306 21.5C15.7361 21.5 15.7416 21.5 15.7472 21.5C15.7527 21.5 15.7583 21.5 15.7639 21.5C15.7694 21.5 15.775 21.5 15.7806 21.5C15.7863 21.5 15.7919 21.5 15.7975 21.5C15.8032 21.5 15.8088 21.5 15.8145 21.5C15.8202 21.5 15.8258 21.5 15.8315 21.5C15.8373 21.5 15.843 21.5 15.8487 21.5C15.8544 21.5 15.8602 21.5 15.866 21.5C15.8717 21.5 15.8775 21.5 15.8833 21.5C15.8891 21.5 15.8949 21.5 15.9007 21.5C15.9066 21.5 15.9124 21.5 15.9183 21.5C15.9241 21.5 15.93 21.5 15.9359 21.5C15.9418 21.5 15.9477 21.5 15.9536 21.5C15.9595 21.5 15.9655 21.5 15.9714 21.5C15.9774 21.5 15.9834 21.5 15.9893 21.5C15.9953 21.5 16.0013 21.5 16.0074 21.5C16.0134 21.5 16.0194 21.5 16.0254 21.5C16.0315 21.5 16.0376 21.5 16.0436 21.5C16.0497 21.5 16.0558 21.5 16.0619 21.5C16.068 21.5 16.0741 21.5 16.0803 21.5C16.0864 21.5 16.0926 21.5 16.0987 21.5C16.1049 21.5 16.1111 21.5 16.1173 21.5C16.1235 21.5 16.1297 21.5 16.136 21.5C16.1422 21.5 16.1484 21.5 16.1547 21.5C16.161 21.5 16.1672 21.5 16.1735 21.5C16.1798 21.5 16.1861 21.5 16.1924 21.5C16.1988 21.5 16.2051 21.5 16.2115 21.5C16.2178 21.5 16.2242 21.5 16.2306 21.5C16.2369 21.5 16.2433 21.5 16.2498 21.5C16.2562 21.5 16.2626 21.5 16.269 21.5C16.2755 21.5 16.2819 21.5 16.2884 21.5C16.2949 21.5 16.3014 21.5 16.3079 21.5C16.3144 21.5 16.3209 21.5 16.3274 21.5C16.334 21.5 16.3405 21.5 16.3471 21.5C16.3536 21.5 16.3602 21.5 16.3668 21.5C16.3734 21.5 16.38 21.5 16.3866 21.5C16.3933 21.5 16.3999 21.5 16.4066 21.5C16.4132 21.5 16.4199 21.5 16.4266 21.5C16.4332 21.5 16.4399 21.5 16.4466 21.5C16.4534 21.5 16.4601 21.5 16.4668 21.5C16.4736 21.5 16.4803 21.5 16.4871 21.5C16.4939 21.5 16.5006 21.5 16.5074 21.5C16.5142 21.5 16.5211 21.5 16.5279 21.5C16.5347 21.5 16.5416 21.5 16.5484 21.5C16.5553 21.5 16.5622 21.5 16.569 21.5C16.5759 21.5 16.5828 21.5 16.5897 21.5C16.5967 21.5 16.6036 21.5 16.6105 21.5C16.6175 21.5 16.6244 21.5 16.6314 21.5C16.6384 21.5 16.6454 21.5 16.6524 21.5C16.6594 21.5 16.6664 21.5 16.6734 21.5C16.6805 21.5 16.6875 21.5 16.6946 21.5C16.7016 21.5 16.7087 21.5 16.7158 21.5C16.7229 21.5 16.73 21.5 16.7371 21.5C16.7442 21.5 16.7514 21.5 16.7585 21.5C16.7657 21.5 16.7728 21.5 16.78 21.5C16.7872 21.5 16.7944 21.5 16.8016 21.5C16.8088 21.5 16.816 21.5 16.8232 21.5C16.8305 21.5 16.8377 21.5 16.845 21.5C16.8522 21.5 16.8595 21.5 16.8668 21.5C16.8741 21.5 16.8814 21.5 16.8887 21.5C16.896 21.5 16.9033 21.5 16.9107 21.5C16.918 21.5 16.9254 21.5 16.9328 21.5C16.9401 21.5 16.9475 21.5 16.9549 21.5C16.9623 21.5 16.9698 21.5 16.9772 21.5C16.9846 21.5 16.9921 21.5 16.9995 21.5C17.007 21.5 17.0144 21.5 17.0219 21.5C17.0294 21.5 17.0369 21.5 17.0444 21.5C17.0519 21.5 17.0595 21.5 17.067 21.5C17.0745 21.5 17.0821 21.5 17.0897 21.5C17.0972 21.5 17.1048 21.5 17.1124 21.5C17.12 21.5 17.1276 21.5 17.1352 21.5C17.1429 21.5 17.1505 21.5 17.1582 21.5C17.1658 21.5 17.1735 21.5 17.1811 21.5C17.1888 21.5 17.1965 21.5 17.2042 21.5C17.2119 21.5 17.2196 21.5 17.2274 21.5C17.2351 21.5 17.2429 21.5 17.2506 21.5C17.2584 21.5 17.2662 21.5 17.2739 21.5C17.2817 21.5 17.2895 21.5 17.2973 21.5C17.3052 21.5 17.313 21.5 17.3208 21.5C17.3287 21.5 17.3365 21.5 17.3444 21.5C17.3523 21.5 17.3601 21.5 17.368 21.5C17.3759 21.5 17.3838 21.5 17.3918 21.5C17.3997 21.5 17.4076 21.5 17.4156 21.5C17.4235 21.5 17.4315 21.5 17.4395 21.5C17.4474 21.5 17.4554 21.5 17.4634 21.5C17.4714 21.5 17.4794 21.5 17.4875 21.5C17.4955 21.5 17.5035 21.5 17.5116 21.5C17.5196 21.5 17.5277 21.5 17.5358 21.5C17.5439 21.5 17.552 21.5 17.5601 21.5C17.5682 21.5 17.5763 21.5 17.5844 21.5C17.5926 21.5 17.6007 21.5 17.6089 21.5C17.617 21.5 17.6252 21.5 17.6334 21.5C17.6416 21.5 17.6498 21.5 17.658 21.5C17.6662 21.5 17.6744 21.5 17.6827 21.5C17.6909 21.5 17.6992 21.5 17.7074 21.5C17.7157 21.5 17.724 21.5 17.7323 21.5C17.7406 21.5 17.7489 21.5 17.7572 21.5C17.7655 21.5 17.7738 21.5 17.7822 21.5C17.7905 21.5 17.7989 21.5 17.8072 21.5C17.8156 21.5 17.824 21.5 17.8324 21.5C17.8408 21.5 17.8492 21.5 17.8576 21.5C17.866 21.5 17.8744 21.5 17.8829 21.5C17.8913 21.5 17.8998 21.5 17.9083 21.5C17.9167 21.5 17.9252 21.5 17.9337 21.5C17.9422 21.5 17.9507 21.5 17.9592 21.5C17.9678 21.5 17.9763 21.5 17.9848 21.5C17.9934 21.5 18.0019 21.5 18.0105 21.5C18.0191 21.5 18.0277 21.5 18.0363 21.5C18.0449 21.5 18.0535 21.5 18.0621 21.5C18.0707 21.5 18.0794 21.5 18.088 21.5C18.0966 21.5 18.1053 21.5 18.114 21.5C18.1227 21.5 18.1313 21.5 18.14 21.5C18.1487 21.5 18.1574 21.5 18.1662 21.5C18.1749 21.5 18.1836 21.5 18.1924 21.5C18.2011 21.5 18.2099 21.5 18.2186 21.5C18.2274 21.5 18.2362 21.5 18.245 21.5C18.2538 21.5 18.2626 21.5 18.2714 21.5C18.2802 21.5 18.2891 21.5 18.2979 21.5C18.3068 21.5 18.3156 21.5 18.3245 21.5C18.3334 21.5 18.3422 21.5 18.3511 21.5C18.36 21.5 18.3689 21.5 18.3778 21.5C18.3868 21.5 18.3957 21.5 18.4046 21.5C18.4136 21.5 18.4225 21.5 18.4315 21.5C18.4405 21.5 18.4494 21.5 18.4584 21.5C18.4674 21.5 18.4764 21.5 18.4854 21.5C18.4945 21.5 18.5035 21.5 18.5125 21.5C18.5216 21.5 18.5306 21.5 18.5397 21.5C18.5487 21.5 18.5578 21.5 18.5669 21.5C18.576 21.5 18.5851 21.5 18.5942 21.5C18.6033 21.5 18.6124 21.5 18.6216 21.5C18.6307 21.5 18.6398 21.5 18.649 21.5C18.6582 21.5 18.6673 21.5 18.6765 21.5C18.6857 21.5 18.6949 21.5 18.7041 21.5C18.7133 21.5 18.7225 21.5 18.7317 21.5C18.741 21.5 18.7502 21.5 18.7595 21.5C18.7687 21.5 18.778 21.5 18.7873 21.5C18.7965 21.5 18.8058 21.5 18.8151 21.5C18.8244 21.5 18.8337 21.5 18.843 21.5C18.8524 21.5 18.8617 21.5 18.8711 21.5C18.8804 21.5 18.8898 21.5 18.8991 21.5C18.9085 21.5 18.9179 21.5 18.9273 21.5C18.9367 21.5 18.9461 21.5 18.9555 21.5C18.9649 21.5 18.9743 21.5 18.9837 21.5C18.9932 21.5 19.0026 21.5 19.0121 21.5C19.0216 21.5 19.031 21.5 19.0405 21.5C19.05 21.5 19.0595 21.5 19.069 21.5C19.0785 21.5 19.088 21.5 19.0975 21.5C19.1071 21.5 19.1166 21.5 19.1262 21.5C19.1357 21.5 19.1453 21.5 19.1549 21.5C19.1644 21.5 19.174 21.5 19.1836 21.5C19.1932 21.5 19.2028 21.5 19.2124 21.5C19.2221 21.5 19.2317 21.5 19.2413 21.5C19.251 21.5 19.2606 21.5 19.2703 21.5C19.2799 21.5 19.2896 21.5 19.2993 21.5C19.309 21.5 19.3187 21.5 19.3284 21.5C19.3381 21.5 19.3478 21.5 19.3575 21.5C19.3673 21.5 19.377 21.5 19.3868 21.5C19.3965 21.5 19.4063 21.5 19.4161 21.5C19.4258 21.5 19.4356 21.5 19.4454 21.5C19.4552 21.5 19.465 21.5 19.4748 21.5C19.4847 21.5 19.4945 21.5 19.5043 21.5C19.5142 21.5 19.524 21.5 19.5339 21.5C19.5437 21.5 19.5536 21.5 19.5635 21.5C19.5734 21.5 19.5833 21.5 19.5932 21.5C19.6031 21.5 19.613 21.5 19.6229 21.5C19.6328 21.5 19.6428 21.5 19.6527 21.5C19.6627 21.5 19.6726 21.5 19.6826 21.5C19.6926 21.5 19.7026 21.5 19.7125 21.5C19.7225 21.5 19.7325 21.5 19.7425 21.5C19.7526 21.5 19.7626 21.5 19.7726 21.5C19.7826 21.5 19.7927 21.5 19.8027 21.5C19.8128 21.5 19.8229 21.5 19.8329 21.5C19.843 21.5 19.8531 21.5 19.8632 21.5C19.8733 21.5 19.8834 21.5 19.8935 21.5C19.9036 21.5 19.9138 21.5 19.9239 21.5C19.934 21.5 19.9442 21.5 19.9543 21.5C19.9645 21.5 19.9747 21.5 19.9849 21.5C19.995 21.5 20.0052 21.5 20.0154 21.5C20.0256 21.5 20.0358 21.5 20.0461 21.5C20.0563 21.5 20.0665 21.5 20.0767 21.5C20.087 21.5 20.0972 21.5 20.1075 21.5C20.1178 21.5 20.128 21.5 20.1383 21.5C20.1486 21.5 20.1589 21.5 20.1692 21.5C20.1795 21.5 20.1898 21.5 20.2001 21.5C20.2105 21.5 20.2208 21.5 20.2311 21.5C20.2415 21.5 20.2518 21.5 20.2622 21.5C20.2726 21.5 20.2829 21.5 20.2933 21.5C20.3037 21.5 20.3141 21.5 20.3245 21.5C20.3349 21.5 20.3453 21.5 20.3557 21.5C20.3662 21.5 20.3766 21.5 20.3871 21.5C20.3975 21.5 20.408 21.5 20.4184 21.5C20.4289 21.5 20.4394 21.5 20.4498 21.5C20.4603 21.5 20.4708 21.5 20.4813 21.5C20.4918 21.5 20.5023 21.5 20.5129 21.5C20.5234 21.5 20.5339 21.5 20.5445 21.5C20.555 21.5 20.5656 21.5 20.5761 21.5C20.5867 21.5 20.5973 21.5 20.6078 21.5C20.6184 21.5 20.629 21.5 20.6396 21.5C20.6502 21.5 20.6608 21.5 20.6714 21.5C20.6821 21.5 20.6927 21.5 20.7033 21.5C20.714 21.5 20.7246 21.5 20.7353 21.5C20.7459 21.5 20.7566 21.5 20.7673 21.5C20.778 21.5 20.7887 21.5 20.7994 21.5C20.8101 21.5 20.8208 21.5 20.8315 21.5C20.8422 21.5 20.8529 21.5 20.8637 21.5C20.8744 21.5 20.8851 21.5 20.8959 21.5C20.9066 21.5 20.9174 21.5 20.9282 21.5C20.939 21.5 20.9497 21.5 20.9605 21.5C20.9713 21.5 20.9821 21.5 20.9929 21.5C21.0038 21.5 21.0146 21.5 21.0254 21.5C21.0362 21.5 21.0471 21.5 21.0579 21.5C21.0688 21.5 21.0796 21.5 21.0905 21.5C21.1014 21.5 21.1122 21.5 21.1231 21.5C21.134 21.5 21.1449 21.5 21.1558 21.5C21.1667 21.5 21.1776 21.5 21.1885 21.5C21.1995 21.5 21.2104 21.5 21.2213 21.5C21.2323 21.5 21.2432 21.5 21.2542 21.5C21.2652 21.5 21.2761 21.5 21.2871 21.5C21.2981 21.5 21.3091 21.5 21.3201 21.5C21.3311 21.5 21.3421 21.5 21.3531 21.5C21.3641 21.5 21.3751 21.5 21.3861 21.5C21.3972 21.5 21.4082 21.5 21.4193 21.5C21.4303 21.5 21.4414 21.5 21.4524 21.5C21.4635 21.5 21.4746 21.5 21.4857 21.5C21.4967 21.5 21.5078 21.5 21.5189 21.5C21.53 21.5 21.5412 21.5 21.5523 21.5C21.5634 21.5 21.5745 21.5 21.5857 21.5C21.5968 21.5 21.6079 21.5 21.6191 21.5C21.6303 21.5 21.6414 21.5 21.6526 21.5C21.6638 21.5 21.675 21.5 21.6861 21.5C21.6973 21.5 21.7085 21.5 21.7197 21.5C21.7309 21.5 21.7422 21.5 21.7534 21.5C21.7646 21.5 21.7758 21.5 21.7871 21.5C21.7983 21.5 21.8096 21.5 21.8208 21.5C21.8321 21.5 21.8434 21.5 21.8546 21.5C21.8659 21.5 21.8772 21.5 21.8885 21.5C21.8998 21.5 21.9111 21.5 21.9224 21.5C21.9337 21.5 21.945 21.5 21.9564 21.5C21.9677 21.5 21.979 21.5 21.9904 21.5C22.0017 21.5 22.0131 21.5 22.0244 21.5C22.0358 21.5 22.0472 21.5 22.0585 21.5C22.0699 21.5 22.0813 21.5 22.0927 21.5C22.1041 21.5 22.1155 21.5 22.1269 21.5C22.1383 21.5 22.1497 21.5 22.1612 21.5C22.1726 21.5 22.184 21.5 22.1955 21.5C22.2069 21.5 22.2184 21.5 22.2298 21.5C22.2413 21.5 22.2528 21.5 22.2642 21.5C22.2757 21.5 22.2872 21.5 22.2987 21.5C22.3102 21.5 22.3217 21.5 22.3332 21.5C22.3447 21.5 22.3562 21.5 22.3677 21.5C22.3793 21.5 22.3908 21.5 22.4023 21.5C22.4139 21.5 22.4254 21.5 22.437 21.5C22.4486 21.5 22.4601 21.5 22.4717 21.5C22.4833 21.5 22.4948 21.5 22.5064 21.5C22.518 21.5 22.5296 21.5 22.5412 21.5C22.5528 21.5 22.5644 21.5 22.5761 21.5C22.5877 21.5 22.5993 21.5 22.611 21.5C22.6226 21.5 22.6342 21.5 22.6459 21.5C22.6575 21.5 22.6692 21.5 22.6809 21.5C22.6925 21.5 22.7042 21.5 22.7159 21.5C22.7276 21.5 22.7393 21.5 22.751 21.5C22.7627 21.5 22.7744 21.5 22.7861 21.5C22.7978 21.5 22.8095 21.5 22.8213 21.5C22.833 21.5 22.8447 21.5 22.8565 21.5C22.8682 21.5 22.88 21.5 22.8917 21.5C22.9035 21.5 22.9153 21.5 22.927 21.5C22.9388 21.5 22.9506 21.5 22.9624 21.5C22.9742 21.5 22.986 21.5 22.9978 21.5C23.0096 21.5 23.0214 21.5 23.0332 21.5C23.045 21.5 23.0569 21.5 23.0687 21.5C23.0805 21.5 23.0924 21.5 23.1042 21.5C23.1161 21.5 23.1279 21.5 23.1398 21.5C23.1517 21.5 23.1635 21.5 23.1754 21.5C23.1873 21.5 23.1992 21.5 23.2111 21.5C23.223 21.5 23.2349 21.5 23.2468 21.5C23.2587 21.5 23.2706 21.5 23.2825 21.5C23.2944 21.5 23.3064 21.5 23.3183 21.5C23.3302 21.5 23.3422 21.5 23.3541 21.5C23.3661 21.5 23.3781 21.5 23.39 21.5C23.402 21.5 23.414 21.5 23.4259 21.5C23.4379 21.5 23.4499 21.5 23.4619 21.5C23.4739 21.5 23.4859 21.5 23.4979 21.5C23.5099 21.5 23.5219 21.5 23.534 21.5C23.546 21.5 23.558 21.5 23.57 21.5C23.5821 21.5 23.5941 21.5 23.6062 21.5C23.6182 21.5 23.6303 21.5 23.6423 21.5C23.6544 21.5 23.6665 21.5 23.6786 21.5C23.6906 21.5 23.7027 21.5 23.7148 21.5C23.7269 21.5 23.739 21.5 23.7511 21.5C23.7632 21.5 23.7753 21.5 23.7875 21.5C23.7996 21.5 23.8117 21.5 23.8238 21.5C23.836 21.5 23.8481 21.5 23.8603 21.5C23.8724 21.5 23.8846 21.5 23.8967 21.5C23.9089 21.5 23.921 21.5 23.9332 21.5C23.9454 21.5 23.9576 21.5 23.9697 21.5C23.9819 21.5 23.9941 21.5 24.0063 21.5C24.0185 21.5 24.0307 21.5 24.0429 21.5C24.0552 21.5 24.0674 21.5 24.0796 21.5C24.0918 21.5 24.1041 21.5 24.1163 21.5C24.1285 21.5 24.1408 21.5 24.153 21.5C24.1653 21.5 24.1776 21.5 24.1898 21.5C24.2021 21.5 24.2144 21.5 24.2266 21.5C24.2389 21.5 24.2512 21.5 24.2635 21.5C24.2758 21.5 24.2881 21.5 24.3004 21.5C24.3127 21.5 24.325 21.5 24.3373 21.5C24.3496 21.5 24.3619 21.5 24.3743 21.5C24.3866 21.5 24.3989 21.5 24.4113 21.5C24.4236 21.5 24.436 21.5 24.4483 21.5C24.4607 21.5 24.473 21.5 24.4854 21.5C24.4978 21.5 24.5101 21.5 24.5225 21.5C24.5349 21.5 24.5473 21.5 24.5597 21.5C24.5721 21.5 24.5845 21.5 24.5969 21.5C24.6093 21.5 24.6217 21.5 24.6341 21.5C24.6465 21.5 24.6589 21.5 24.6713 21.5C24.6838 21.5 24.6962 21.5 24.7086 21.5C24.7211 21.5 24.7335 21.5 24.746 21.5C24.7584 21.5 24.7709 21.5 24.7833 21.5C24.7958 21.5 24.8083 21.5 24.8208 21.5C24.8332 21.5 24.8457 21.5 24.8582 21.5C24.8707 21.5 24.8832 21.5 24.8957 21.5C24.9082 21.5 24.9207 21.5 24.9332 21.5C24.9457 21.5 24.9582 21.5 24.9707 21.5C24.9833 21.5 24.9958 21.5 25.0083 21.5C25.0208 21.5 25.0334 21.5 25.0459 21.5C25.0585 21.5 25.071 21.5 25.0836 21.5C25.0961 21.5 25.1087 21.5 25.1213 21.5C25.1338 21.5 25.1464 21.5 25.159 21.5C25.1716 21.5 25.1841 21.5 25.1967 21.5C25.2093 21.5 25.2219 21.5 25.2345 21.5C25.2471 21.5 25.2597 21.5 25.2723 21.5C25.2849 21.5 25.2976 21.5 25.3102 21.5C25.3228 21.5 25.3354 21.5 25.3481 21.5C25.3607 21.5 25.3733 21.5 25.386 21.5C25.3986 21.5 25.4113 21.5 25.4239 21.5C25.4366 21.5 25.4493 21.5 25.4619 21.5C25.4746 21.5 25.4873 21.5 25.4999 21.5C25.5126 21.5 25.5253 21.5 25.538 21.5C25.5507 21.5 25.5634 21.5 25.5761 21.5C25.5888 21.5 25.6015 21.5 25.6142 21.5C25.6269 21.5 25.6396 21.5 25.6523 21.5C25.665 21.5 25.6778 21.5 25.6905 21.5C25.7032 21.5 25.7159 21.5 25.7287 21.5C25.7414 21.5 25.7542 21.5 25.7669 21.5C25.7797 21.5 25.7924 21.5 25.8052 21.5C25.8179 21.5 25.8307 21.5 25.8435 21.5C25.8563 21.5 25.869 21.5 25.8818 21.5C25.8946 21.5 25.9074 21.5 25.9202 21.5C25.933 21.5 25.9458 21.5 25.9586 21.5C25.9714 21.5 25.9842 21.5 25.997 21.5C26.0098 21.5 26.0226 21.5 26.0354 21.5C26.0482 21.5 26.0611 21.5 26.0739 21.5C26.0867 21.5 26.0995 21.5 26.1124 21.5C26.1252 21.5 26.1381 21.5 26.1509 21.5C26.1638 21.5 26.1766 21.5 26.1895 21.5C26.2023 21.5 26.2152 21.5 26.2281 21.5C26.2409 21.5 26.2538 21.5 26.2667 21.5C26.2796 21.5 26.2924 21.5 26.3053 21.5C26.3182 21.5 26.3311 21.5 26.344 21.5C26.3569 21.5 26.3698 21.5 26.3827 21.5C26.3956 21.5 26.4085 21.5 26.4214 21.5C26.4344 21.5 26.4473 21.5 26.4602 21.5C26.4731 21.5 26.486 21.5 26.499 21.5L26.499 18.5ZM12.9368 20L12.9368 38L15.9368 38L15.9368 20L12.9368 20ZM14.4368 36.5L-4.49132e-06 36.5L-4.82868e-06 39.5L14.4368 39.5L14.4368 36.5ZM14.4368 0.500002L-1.6164e-06 0.500001L-1.85988e-06 3.5L14.4368 3.5L14.4368 0.500002ZM12.9368 2L12.9368 20L15.9368 20L15.9368 2L12.9368 2Z" fill="#444444"/>
</svg>
