<svg width="25" height="24" viewBox="0 0 25 24" fill="none" xmlns="http://www.w3.org/2000/svg">
<path d="M7.15388 5.61182C4.05674 6.4971 1.44076 7.24767 1.33799 7.27654C1.09507 7.35833 0.940918 7.58927 0.940918 7.87795C0.940918 8.25805 1.13245 8.46494 1.56689 8.56597C1.69301 8.59484 4.24827 9.32135 7.25198 10.1778C10.3304 11.0582 12.7969 11.7415 12.9044 11.7415C13.0071 11.7415 14.7122 11.2796 16.7162 10.707C18.7062 10.1393 20.3506 9.67258 20.3786 9.67258C20.402 9.67258 20.4206 10.2307 20.4206 11.0679V12.468L20.1684 12.723C19.9115 12.978 19.7667 13.3051 19.7667 13.6179C19.7667 13.8969 19.9115 14.253 20.1217 14.4839L20.3319 14.7149L20.0469 16.4373C19.8788 17.4333 19.7713 18.2079 19.79 18.28C19.9208 18.8237 20.771 19.1461 21.5278 18.9344C21.7754 18.867 21.8828 18.7997 22.065 18.6217C22.2705 18.4148 22.2892 18.3811 22.2892 18.1646C22.2892 18.0347 22.1724 17.2071 22.0229 16.3266L21.7613 14.7197L21.9295 14.5416C22.1724 14.2818 22.2892 13.9932 22.2892 13.6179C22.2892 13.2233 22.1818 12.9732 21.8968 12.6893L21.6819 12.4776V9.29249L21.9062 9.22513C22.0276 9.18664 22.6536 9.01343 23.2936 8.83541C23.9382 8.65258 24.5315 8.47937 24.6156 8.44088C24.8491 8.33984 24.9612 8.11371 24.9379 7.80097C24.9239 7.57484 24.8958 7.5171 24.751 7.37758C24.6483 7.28135 24.5315 7.2188 24.4567 7.2188C24.3913 7.2188 21.7987 6.49229 18.7016 5.60701C15.6044 4.72172 13.0025 3.99521 12.9277 4.00002C12.8483 4.00002 10.251 4.72653 7.15388 5.61182Z" fill="black"/>
<path d="M6.68674 13.4399C6.68674 16.0428 6.68207 15.9995 7.08848 16.4517C8.08349 17.5583 10.5593 18.2127 13.4136 18.1261C14.815 18.0828 15.796 17.924 16.8377 17.5776C17.7953 17.2649 18.3792 16.9281 18.8043 16.4517C19.2108 15.9995 19.2061 16.0428 19.2061 13.4399C19.2061 12.213 19.1967 11.2122 19.1827 11.2122C19.1687 11.2122 17.8093 11.6019 16.1557 12.0831C14.5067 12.5594 13.1006 12.9635 13.0352 12.978C12.9604 12.9924 11.7692 12.67 9.83059 12.1071C8.13487 11.6164 6.73345 11.2122 6.71477 11.2122C6.70075 11.2122 6.68674 12.213 6.68674 13.4399Z" fill="black"/>
</svg>
