<svg width="29" height="20" viewBox="0 0 29 20" fill="none" xmlns="http://www.w3.org/2000/svg">
<mask id="path-1-inside-1_9533_6800" fill="white">
<path d="M0.940918 0H28.9409V20H0.940918V0Z"/>
</mask>
<path d="M14.9409 10L14.3597 10.8137L14.9409 11.2289L15.5222 10.8137L14.9409 10ZM0.35968 0.813733L14.3597 10.8137L15.5222 9.18627L1.52216 -0.813733L0.35968 0.813733ZM28.3597 -0.813733L14.3597 9.18627L15.5222 10.8137L29.5222 0.813733L28.3597 -0.813733ZM0.940918 0V-2C-0.163652 -2 -1.05908 -1.10457 -1.05908 0L0.940918 0ZM28.9409 0H30.9409C30.9409 -1.10457 30.0455 -2 28.9409 -2V0ZM28.9409 20V22C30.0455 22 30.9409 21.1046 30.9409 20H28.9409ZM0.940918 20H-1.05908C-1.05908 21.1046 -0.163652 22 0.940918 22L0.940918 20ZM0.940918 2H28.9409V-2H0.940918V2ZM26.9409 0V20H30.9409V0H26.9409ZM28.9409 18H0.940918V22H28.9409V18ZM2.94092 20V0H-1.05908V20H2.94092Z" fill="black" mask="url(#path-1-inside-1_9533_6800)"/>
</svg>
