<svg width="30" height="30" viewBox="0 0 30 30" fill="none" xmlns="http://www.w3.org/2000/svg">
<path d="M26.9141 13.7813C26.6379 13.7813 26.4141 14.0052 26.4141 14.2813V19.7289L21.0338 13.9507C20.9394 13.8493 20.8072 13.7916 20.6687 13.7914L14.1651 13.7813H14.1643C13.8354 13.7813 13.4501 13.448 13.4501 12.8749V12.8702V12.8654V12.8604V12.8552V12.8498V12.8443V12.8386V12.8327V12.8266V12.8204V12.814V12.8074V12.8006V12.7937V12.7866V12.7793V12.7718V12.7642V12.7565V12.7485V12.7404V12.7321V12.7237V12.7151V12.7063V12.6974V12.6883V12.679V12.6696V12.66V12.6503V12.6404V12.6303V12.6201V12.6098V12.5992V12.5886V12.5777V12.5668V12.5556V12.5443V12.5329V12.5213V12.5096V12.4977V12.4857V12.4735V12.4612V12.4487V12.4361V12.4233V12.4104V12.3974V12.3842V12.3709V12.3574V12.3438V12.3301V12.3162V12.3022V12.288V12.2737V12.2593V12.2447V12.23V12.2152V12.2002V12.1852V12.1699V12.1546V12.1391V12.1235V12.1078V12.0919V12.0759V12.0598V12.0435V12.0272V12.0107V11.9941V11.9774V11.9605V11.9435V11.9264V11.9092V11.8919V11.8744V11.8569V11.8392V11.8214V11.8035V11.7855V11.7673V11.7491V11.7307V11.7123V11.6937V11.675V11.6562V11.6373V11.6183V11.5992V11.58V11.5606V11.5412V11.5217V11.502V11.4823V11.4625V11.4425V11.4225V11.4023V11.3821V11.3618V11.3413V11.3208V11.3002V11.2795V11.2587V11.2378V11.2168V11.1957V11.1745V11.1533V11.1319V11.1105V11.0889V11.0673V11.0456V11.0238V11.002V10.98V10.958V10.9358V10.9136V10.8914V10.869V10.8465V10.824V10.8014V10.7787V10.756V10.7332V10.7103V10.6873V10.6642V10.6411V10.6179V10.5946V10.5713V10.5479V10.5244V10.5009V10.4773V10.4536V10.4298V10.406V10.3821V10.3582V10.3342V10.3101V10.286V10.2618V10.2376V10.2133V10.1889V10.1645V10.14V10.1154V10.0909V10.0662V10.0415V10.0167V9.99194V9.96708V9.94217V9.91721V9.89219V9.86713V9.84202V9.81687V9.79166V9.76641V9.74112V9.71578V9.6904V9.66497V9.6395V9.61399V9.58844V9.56285V9.53722V9.51155V9.48584V9.4601V9.43432V9.4085V9.38265V9.35677V9.33085V9.3049V9.27892V9.2529V9.22686V9.20078V9.17468V9.14855V9.12239V9.0962V9.06999V9.04375V9.01749V8.99121V8.9649V8.93857V8.91222V8.88585V8.85945V8.83304V8.80661V8.78016V8.7537V8.72721V8.70072V8.6742V8.64768V8.62114V8.59459V8.56802V8.54145V8.51486V8.48826V8.46166V8.43505V8.40843V8.3818V8.35517V8.32853V8.30189V8.27524V8.24859V8.22194V8.19529V8.16864V8.14198V8.11533V8.08868V8.06203V8.03538V8.00874V7.9821V7.95547V7.92884V7.90222V7.87561V7.84901V7.82241V7.79582V7.76925V7.74268V7.71613V7.68959V7.66307V7.63655V7.61005V7.58357V7.55711V7.53066V7.50423V7.47782V7.45142V7.42505V7.3987V7.37237V7.34606V7.31977V7.29351V7.26727V7.24106V7.21488V7.18872V7.16258V7.13648V7.11041V7.08436V7.05835V7.03236V7.00641V6.98049V6.95461V6.92875V6.90294V6.87716V6.85141V6.82571V6.80004V6.77441V6.74881V6.72326V6.69775V6.67228V6.64686V6.62147V6.59613V6.57084V6.54559V6.52038V6.49522V6.47011V6.44505V6.42004V6.39508V6.37016V6.3453V6.32049V6.29574V6.27103V6.24638V6.22179V6.19725V6.17277V6.14834V6.12398V6.09967V6.07542V6.05123V6.0271V6.00304V5.97903V5.95509V5.93121V5.9074V5.88365V5.85997V5.83636V5.81281V5.78933V5.76592V5.74258V5.71931V5.69611V5.67299V5.64994V5.62696V5.60405V5.58122V5.55846V5.53578V5.51318V5.49066V5.46821V5.44585V5.42356V5.40136V5.37924V5.3572V5.33524V5.31337V5.29158V5.26987V5.24826V5.22673V5.20528V5.18393V5.16266V5.14149V5.1204V5.09941V5.07851V5.0577V5.03698V5.01636V4.99583V4.9754V4.95507V4.93483V4.91469V4.89465V4.87471V4.85487V4.83513V4.81549V4.79596V4.77653V4.7572V4.73797V4.71886V4.69984V4.68094V4.66214V4.64345V4.62487V4.6064V4.58804V4.56979V4.55166V4.53363V4.51572V4.49793V4.48025V4.46268V4.44523V4.4279V4.41069V4.39359V4.37662V4.35976V4.34303V4.32642V4.30993V4.29356V4.27732V4.2612V4.24521V4.22934V4.21361V4.19799V4.18251V4.16716V4.15193V4.13684V4.12188V4.10705V4.09235V4.07779V4.06336V4.04906V4.03491V4.02088V4.007V3.99325V3.97965V3.96618V3.95285V3.93966V3.92662V3.91372V3.90096V3.88834V3.87587V3.86355V3.85137V3.83933V3.82745V3.81571V3.80413V3.79269V3.78141V3.77027V3.75929V3.74846V3.73778V3.72726V3.7169V3.70669V3.69663V3.68674V3.677V3.66742V3.658V3.64874V3.63964V3.6307V3.62193V3.61332V3.60487V3.59659V3.58847V3.58052V3.57274V3.56512V3.55767V3.5504V3.54329V3.53635V3.52958V3.52299V3.51657V3.51032V3.50425V3.49835V3.49263V3.48709V3.48172V3.47653V3.47152V3.46669V3.46204V3.45757V3.45328V3.44918V3.44525V3.44152V3.43796V3.4346V3.43141V3.42842V3.42561V3.423V3.42057V3.41833V3.41628V3.41443V3.41276V3.41129V3.41001V3.40893V3.40804V3.40735V3.40686V3.40656L12.9501 3.40646H13.4501C13.4501 2.83335 13.8354 2.5 14.1643 2.5H28.7355C29.0644 2.5 29.4497 2.83335 29.4497 3.40646H29.9497L29.4497 3.40656V3.40686V3.40735V3.40804V3.40893V3.41001V3.41129V3.41276V3.41443V3.41628V3.41833V3.42057V3.423V3.42561V3.42842V3.43141V3.4346V3.43796V3.44152V3.44525V3.44918V3.45328V3.45757V3.46204V3.46669V3.47152V3.47653V3.48172V3.48709V3.49263V3.49835V3.50425V3.51032V3.51657V3.52299V3.52958V3.53635V3.54329V3.5504V3.55767V3.56512V3.57274V3.58052V3.58847V3.59659V3.60487V3.61332V3.62193V3.6307V3.63964V3.64874V3.658V3.66742V3.677V3.68674V3.69663V3.70669V3.7169V3.72726V3.73778V3.74846V3.75929V3.77027V3.78141V3.79269V3.80413V3.81571V3.82745V3.83933V3.85137V3.86355V3.87587V3.88834V3.90096V3.91372V3.92662V3.93966V3.95285V3.96618V3.97965V3.99325V4.007V4.02088V4.03491V4.04906V4.06336V4.07779V4.09235V4.10705V4.12188V4.13684V4.15193V4.16716V4.18251V4.19799V4.21361V4.22934V4.24521V4.2612V4.27732V4.29356V4.30993V4.32642V4.34303V4.35976V4.37662V4.39359V4.41069V4.4279V4.44523V4.46268V4.48025V4.49793V4.51572V4.53363V4.55166V4.56979V4.58804V4.6064V4.62487V4.64345V4.66214V4.68094V4.69984V4.71886V4.73797V4.7572V4.77653V4.79596V4.81549V4.83513V4.85487V4.87471V4.89465V4.91469V4.93483V4.95507V4.9754V4.99583V5.01636V5.03698V5.0577V5.07851V5.09941V5.1204V5.14149V5.16266V5.18393V5.20528V5.22673V5.24826V5.26987V5.29158V5.31337V5.33524V5.3572V5.37924V5.40136V5.42356V5.44585V5.46821V5.49066V5.51318V5.53578V5.55846V5.58122V5.60405V5.62696V5.64994V5.67299V5.69611V5.71931V5.74258V5.76592V5.78933V5.81281V5.83636V5.85997V5.88365V5.9074V5.93121V5.95509V5.97903V6.00304V6.0271V6.05123V6.07542V6.09967V6.12398V6.14834V6.17277V6.19725V6.22179V6.24638V6.27103V6.29574V6.32049V6.3453V6.37016V6.39508V6.42004V6.44505V6.47011V6.49522V6.52038V6.54559V6.57084V6.59613V6.62147V6.64686V6.67228V6.69775V6.72326V6.74881V6.77441V6.80004V6.82571V6.85141V6.87716V6.90294V6.92875V6.95461V6.98049V7.00641V7.03236V7.05835V7.08436V7.11041V7.13648V7.16258V7.18872V7.21488V7.24106V7.26727V7.29351V7.31977V7.34606V7.37237V7.3987V7.42505V7.45142V7.47782V7.50423V7.53066V7.55711V7.58357V7.61005V7.63655V7.66307V7.68959V7.71613V7.74268V7.76925V7.79582V7.82241V7.84901V7.87561V7.90222V7.92884V7.95547V7.9821V8.00874V8.03538V8.06203V8.08868V8.11533V8.14198V8.16864V8.19529V8.22194V8.24859V8.27524V8.30189V8.32853V8.35517V8.3818V8.40843V8.43505V8.46166V8.48826V8.51486V8.54145V8.56802V8.59459V8.62114V8.64768V8.6742V8.70072V8.72721V8.7537V8.78016V8.80661V8.83304V8.85945V8.88585V8.91222V8.93857V8.9649V8.99121V9.01749V9.04375V9.06999V9.0962V9.12239V9.14855V9.17468V9.20078V9.22686V9.2529V9.27892V9.3049V9.33085V9.35677V9.38265V9.4085V9.43432V9.4601V9.48584V9.51155V9.53722V9.56285V9.58844V9.61399V9.6395V9.66497V9.6904V9.71578V9.74112V9.76641V9.79166V9.81687V9.84202V9.86713V9.89219V9.91721V9.94217V9.96708V9.99194V10.0167V10.0415V10.0662V10.0909V10.1154V10.14V10.1645V10.1889V10.2133V10.2376V10.2618V10.286V10.3101V10.3342V10.3582V10.3821V10.406V10.4298V10.4536V10.4773V10.5009V10.5244V10.5479V10.5713V10.5946V10.6179V10.6411V10.6642V10.6873V10.7103V10.7332V10.756V10.7787V10.8014V10.824V10.8465V10.869V10.8914V10.9136V10.9358V10.958V10.98V11.002V11.0238V11.0456V11.0673V11.0889V11.1105V11.1319V11.1533V11.1745V11.1957V11.2168V11.2378V11.2587V11.2795V11.3002V11.3208V11.3413V11.3618V11.3821V11.4023V11.4225V11.4425V11.4625V11.4823V11.502V11.5217V11.5412V11.5606V11.58V11.5992V11.6183V11.6373V11.6562V11.675V11.6937V11.7123V11.7307V11.7491V11.7673V11.7855V11.8035V11.8214V11.8392V11.8569V11.8744V11.8919V11.9092V11.9264V11.9435V11.9605V11.9774V11.9941V12.0107V12.0272V12.0435V12.0598V12.0759V12.0919V12.1078V12.1235V12.1391V12.1546V12.1699V12.1852V12.2002V12.2152V12.23V12.2447V12.2593V12.2737V12.288V12.3022V12.3162V12.3301V12.3438V12.3574V12.3709V12.3842V12.3974V12.4104V12.4233V12.4361V12.4487V12.4612V12.4735V12.4857V12.4977V12.5096V12.5213V12.5329V12.5443V12.5556V12.5668V12.5777V12.5886V12.5992V12.6098V12.6201V12.6303V12.6404V12.6503V12.66V12.6696V12.679V12.6883V12.6974V12.7063V12.7151V12.7237V12.7321V12.7404V12.7485V12.7565V12.7642V12.7718V12.7793V12.7866V12.7937V12.8006V12.8074V12.814V12.8204V12.8266V12.8327V12.8386V12.8443V12.8498V12.8552V12.8604V12.8654V12.8702V12.8749C29.4497 13.448 29.0644 13.7813 28.7355 13.7813H28.7315H28.7276H28.7236H28.7196H28.7157H28.7117H28.7077H28.7036H28.6996H28.6956H28.6915H28.6875H28.6834H28.6793H28.6753H28.6712H28.6671H28.6629H28.6588H28.6547H28.6505H28.6464H28.6422H28.638H28.6339H28.6297H28.6255H28.6213H28.6171H28.6128H28.6086H28.6043H28.6001H28.5958H28.5916H28.5873H28.583H28.5787H28.5744H28.5701H28.5658H28.5615H28.5571H28.5528H28.5484H28.5441H28.5397H28.5353H28.531H28.5266H28.5222H28.5178H28.5134H28.5089H28.5045H28.5001H28.4957H28.4912H28.4868H28.4823H28.4778H28.4734H28.4689H28.4644H28.4599H28.4554H28.4509H28.4464H28.4419H28.4374H28.4329H28.4283H28.4238H28.4192H28.4147H28.4101H28.4056H28.401H28.3964H28.3919H28.3873H28.3827H28.3781H28.3735H28.3689H28.3643H28.3597H28.3551H28.3505H28.3459H28.3412H28.3366H28.332H28.3273H28.3227H28.318H28.3134H28.3087H28.3041H28.2994H28.2947H28.2901H28.2854H28.2807H28.276H28.2713H28.2666H28.262H28.2573H28.2526H28.2479H28.2432H28.2385H28.2337H28.229H28.2243H28.2196H28.2149H28.2102H28.2054H28.2007H28.196H28.1913H28.1865H28.1818H28.1771H28.1723H28.1676H28.1628H28.1581H28.1534H28.1486H28.1439H28.1391H28.1344H28.1296H28.1249H28.1201H28.1154H28.1106H28.1059H28.1011H28.0963H28.0916H28.0868H28.0821H28.0773H28.0726H28.0678H28.063H28.0583H28.0535H28.0488H28.044H28.0393H28.0345H28.0297H28.025H28.0202H28.0155H28.0107H28.006H28.0012H27.9965H27.9917H27.987H27.9822H27.9775H27.9727H27.968H27.9632H27.9585H27.9537H27.949H27.9443H27.9395H27.9348H27.9301H27.9253H27.9206H27.9159H27.9112H27.9064H27.9017H27.897H27.8923H27.8876H27.8829H27.8782H27.8735H27.8688H27.8641H27.8594H27.8547H27.85H27.8453H27.8406H27.836H27.8313H27.8266H27.8219H27.8173H27.8126H27.808H27.8033H27.7987H27.794H27.7894H27.7848H27.7801H27.7755H27.7709H27.7663H27.7616H27.757H27.7524H27.7478H27.7432H27.7386H27.7341H27.7295H27.7249H27.7203H27.7158H27.7112H27.7067H27.7021H27.6976H27.693H27.6885H27.684H27.6795H27.6749H27.6704H27.6659H27.6614H27.657H27.6525H27.648H27.6435H27.6391H27.6346H27.6302H27.6257H27.6213H27.6169H27.6124H27.608H27.6036H27.5992H27.5948H27.5904H27.586H27.5817H27.5773H27.573H27.5686H27.5643H27.5599H27.5556H27.5513H27.547H27.5427H27.5384H27.5341H27.5298H27.5256H27.5213H27.5171H27.5128H27.5086H27.5044H27.5001H27.4959H27.4917H27.4875H27.4834H27.4792H27.475H27.4709H27.4667H27.4626H27.4585H27.4544H27.4503H27.4462H27.4421H27.438H27.4339H27.4299H27.4258H27.4218H27.4178H27.4138H27.4098H27.4058H27.4018H27.3978H27.3939H27.3899H27.386H27.3821H27.3781H27.3742H27.3703H27.3665H27.3626H27.3587H27.3549H27.351H27.3472H27.3434H27.3396H27.3358H27.332H27.3283H27.3245H27.3208H27.317H27.3133H27.3096H27.3059H27.3022H27.2986H27.2949H27.2913H27.2876H27.284H27.2804H27.2768H27.2733H27.2697H27.2661H27.2626H27.2591H27.2556H27.2521H27.2486H27.2451H27.2417H27.2382H27.2348H27.2314H27.228H27.2246H27.2212H27.2178H27.2145H27.2112H27.2079H27.2045H27.2013H27.198H27.1947H27.1915H27.1883H27.1851H27.1819H27.1787H27.1755H27.1724H27.1692H27.1661H27.163H27.1599H27.1568H27.1538H27.1507H27.1477H27.1447H27.1417H27.1387H27.1357H27.1328H27.1299H27.127H27.1241H27.1212H27.1183H27.1155H27.1126H27.1098H27.107H27.1042H27.1015H27.0987H27.096H27.0933H27.0906H27.0879H27.0852H27.0826H27.08H27.0774H27.0748H27.0722H27.0697H27.0671H27.0646H27.0621H27.0596H27.0572H27.0547H27.0523H27.0499H27.0475H27.0451H27.0428H27.0404H27.0381H27.0358H27.0335H27.0313H27.029H27.0268H27.0246H27.0224H27.0203H27.0181H27.016H27.0139H27.0118H27.0098H27.0077H27.0057H27.0037H27.0017H26.9997H26.9978H26.9959H26.994H26.9921H26.9902H26.9884H26.9866H26.9848H26.983H26.9812H26.9795H26.9778H26.9761H26.9744H26.9727H26.9711H26.9695H26.9679H26.9663H26.9648H26.9633H26.9618H26.9603H26.9588H26.9574H26.956H26.9546H26.9532H26.9519H26.9505H26.9492H26.9479H26.9467H26.9455H26.9442H26.943H26.9419H26.9407H26.9396H26.9385H26.9374H26.9364H26.9354H26.9343H26.9334H26.9324H26.9315H26.9306H26.9297H26.9288H26.928H26.9271H26.9264H26.9256H26.9248H26.9241H26.9234H26.9228H26.9221H26.9215H26.9209H26.9203H26.9198H26.9192H26.9187H26.9183H26.9178H26.9174H26.917H26.9166H26.9163H26.9159H26.9156H26.9154H26.9151H26.9149H26.9147H26.9145H26.9144H26.9143H26.9142H26.9141H26.9141Z" stroke="#444444" stroke-linejoin="round"/>
<path fill-rule="evenodd" clip-rule="evenodd" d="M20.5016 4.69243C20.5016 4.74186 20.5626 5.76088 20.6096 6.53946C20.6403 7.04829 20.6485 7.19364 20.6713 7.63162C20.6847 7.88906 20.7007 8.17993 20.7068 8.278C20.7129 8.37607 20.7292 8.66193 20.7429 8.91324C20.7566 9.16455 20.7743 9.53631 20.7821 9.63763C20.7821 9.63763 20.7951 9.73269 20.8778 9.73269C20.931 9.73269 21.5019 9.73269 21.5019 9.73269C21.5019 9.73269 21.8937 9.73269 22.1315 9.73269C22.1818 9.73269 22.2098 9.68667 22.2129 9.63763C22.216 9.5886 22.2406 9.15229 22.2675 8.66806C22.2945 8.18383 22.3217 7.70239 22.3281 7.59819C22.3344 7.49399 22.3454 7.31344 22.3525 7.19698C22.3596 7.08052 22.3763 6.77461 22.3898 6.51717C22.4032 6.25973 22.4192 5.96886 22.4254 5.87079C22.4316 5.77272 22.4479 5.47683 22.4615 5.21326C22.4751 4.94969 22.4985 4.76182 22.4985 4.68162C22.4985 4.68162 22.522 4.5 22.3804 4.5C22.2388 4.5 21.8985 4.50001 21.5062 4.50001H20.6089C20.4786 4.5 20.5016 4.69243 20.5016 4.69243Z" fill="#444444"/>
<path d="M22.4189 11.6282C22.4189 12.1097 22.0057 12.5 21.5019 12.5C20.998 12.5 20.5895 12.1097 20.5895 11.6282C20.5895 11.1467 20.998 10.7564 21.5019 10.7564C22.0057 10.7564 22.4189 11.1467 22.4189 11.6282Z" fill="#444444"/>
<path fill-rule="evenodd" clip-rule="evenodd" d="M3.12294 27V20.2283H1.24917C0.558381 20.2283 0 19.5946 0 18.8106V9.26684C0 8.48287 0.558381 7.84918 1.24917 7.84918H16.2393C16.9301 7.84918 17.4884 8.48287 17.4884 9.26684V18.8106C17.4884 19.5946 16.9301 20.2283 16.2393 20.2283L9.54869 20.2385L3.12294 27ZM6.8092 10.4682C7.21946 10.3144 7.60022 10.2158 8.12566 10.1273C8.4755 10.0684 9.08949 10.0324 9.71181 10.1501C10.8129 10.3582 11.4048 11.1451 11.4048 12.0906C11.4048 12.8962 11.1703 13.2418 10.0803 14.0421C9.33453 14.5897 9.23843 14.9944 9.18965 15.1999L9.18523 15.2184C9.18523 15.2184 9.16496 15.48 9.04161 15.4846C8.89801 15.4899 8.44865 15.4846 8.44865 15.4846C8.44865 15.4846 8.00892 15.4899 7.84483 15.4846C7.67928 15.4792 7.69195 15.2916 7.70506 15.0975L7.70784 15.0554C7.72098 14.8472 7.97759 13.9805 8.77561 13.3981C9.72159 12.7078 9.94663 12.33 9.70795 11.8331C9.45231 11.3008 8.38598 11.2678 7.18609 11.755C7.16384 11.764 7.14255 11.7729 7.12156 11.7816C7.04935 11.8117 6.98053 11.8403 6.88741 11.8697C6.7438 11.9149 6.52332 11.4982 6.36084 11.1909L6.34012 11.1521C6.20579 10.902 6.11295 10.7292 6.8092 10.4682ZM8.44865 18.1598C8.9519 18.1598 9.36454 17.7652 9.36454 17.2785C9.36454 16.7917 8.9519 16.3972 8.44865 16.3972C7.94539 16.3972 7.53742 16.7917 7.53742 17.2785C7.53742 17.7652 7.94539 18.1598 8.44865 18.1598Z" fill="#444444"/>
</svg>
