<svg width="40" height="40" viewBox="0 0 40 40" fill="none" xmlns="http://www.w3.org/2000/svg">
<path d="M25.1547 5.07317L10.144 15.5034L14.496 18.263L29.728 7.82866L25.1547 5.07317Z" fill="#444444"/>
<path d="M20.054 2L20.5701 1.14346L20.0558 0.833564L19.5405 1.14192L20.054 2ZM4.00001 11.6076L3.48649 10.7495L3.00001 11.0406L3.00001 11.6076L4.00001 11.6076ZM4 27.8403L3 27.8403L3 28.3909L3.46524 28.6853L4 27.8403ZM20.054 38L19.5193 38.845L20.0593 39.1868L20.5963 38.8402L20.054 38ZM36 27.7094L36.5422 28.5496L37 28.2542L37 27.7094L36 27.7094ZM36 11.6076L37 11.6076L37 11.0426L36.5161 10.751L36 11.6076ZM8.20775 21.081C7.72811 20.8072 7.11733 20.974 6.84354 21.4537C6.56975 21.9333 6.73662 22.5441 7.21627 22.8179L8.20775 21.081ZM12.7203 25.9597C13.1999 26.2335 13.8107 26.0666 14.0845 25.587C14.3583 25.1073 14.1914 24.4966 13.7118 24.2228L12.7203 25.9597ZM8.11557 24.8988C7.64778 24.6052 7.03056 24.7464 6.73698 25.2142C6.44341 25.682 6.58464 26.2992 7.05243 26.5928L8.11557 24.8988ZM12.6844 30.1273C13.1522 30.4209 13.7694 30.2797 14.063 29.8119C14.3566 29.3441 14.2154 28.7269 13.7476 28.4333L12.6844 30.1273ZM29.728 7.82866L30.2441 6.97211L30.2441 6.97211L29.728 7.82866ZM19.5405 1.14192L3.48649 10.7495L4.51353 12.4657L20.5676 2.85808L19.5405 1.14192ZM3.00001 11.6076L3 27.8403L5 27.8403L5.00001 11.6076L3.00001 11.6076ZM3.46524 28.6853L19.5193 38.845L20.5888 37.155L4.53476 26.9953L3.46524 28.6853ZM20.5963 38.8402L36.5422 28.5496L35.4578 26.8692L19.5118 37.1598L20.5963 38.8402ZM37 27.7094L37 11.6076L35 11.6076L35 27.7094L37 27.7094ZM19.0515 21.7858L19.054 38.0002L21.054 37.9998L21.0515 21.7855L19.0515 21.7858ZM20.5894 22.6286L36.538 12.4506L35.462 10.7646L19.5135 20.9427L20.5894 22.6286ZM7.21627 22.8179L12.7203 25.9597L13.7118 24.2228L8.20775 21.081L7.21627 22.8179ZM7.05243 26.5928L12.6844 30.1273L13.7476 28.4333L8.11557 24.8988L7.05243 26.5928ZM3.4645 12.4521L9.6085 16.348L10.6795 14.6589L4.53552 10.7631L3.4645 12.4521ZM10.7146 16.3247L25.7253 5.89438L24.584 4.25196L9.57338 14.6822L10.7146 16.3247ZM9.6085 16.348L13.9605 19.1075L15.0315 17.4185L10.6795 14.6589L9.6085 16.348ZM13.9605 19.1075L19.5159 22.6302L20.587 20.9411L15.0315 17.4185L13.9605 19.1075ZM36.5161 10.751L30.2441 6.97211L29.2119 8.6852L35.4839 12.4641L36.5161 10.751ZM15.0612 19.088L30.2931 8.65365L29.1629 7.00366L13.9309 17.438L15.0612 19.088ZM30.2441 6.97211L25.6707 4.21663L24.6386 5.92971L29.2119 8.6852L30.2441 6.97211ZM25.6707 4.21663L20.5701 1.14346L19.538 2.85654L24.6386 5.92971L25.6707 4.21663Z" fill="#444444"/>
</svg>
