<svg width="32" height="30" viewBox="0 0 32 30" fill="none" xmlns="http://www.w3.org/2000/svg">
<path d="M20.0492 19.65V21.5H12.0492V19.65H14.9792V11.22C14.9792 10.8867 14.9892 10.5433 15.0092 10.19L12.9292 11.93C12.8092 12.0233 12.6892 12.0833 12.5692 12.11C12.4559 12.13 12.3459 12.13 12.2392 12.11C12.1392 12.09 12.0492 12.0567 11.9692 12.01C11.8892 11.9567 11.8292 11.9 11.7892 11.84L11.0092 10.77L15.4192 7.02H17.4492V19.65H20.0492Z" fill="#444444"/>
<path d="M30 13L31.1303 7.33821L25.6619 9.19027L30 13ZM2.49346 13.0806C2.80728 11.1593 3.8647 8.25053 6.00729 5.83152C8.1366 3.42751 11.3414 1.5 16 1.5V0.5C11.0266 0.5 7.55806 2.57249 5.25871 5.16848C2.97264 7.74947 1.84605 10.8407 1.50654 12.9194L2.49346 13.0806ZM16 1.5C22.5594 1.5 26.2632 5.32909 28.1109 8.96477L29.0024 8.51173C27.0367 4.64381 23.0392 0.5 16 0.5V1.5Z" fill="#444444"/>
<path d="M2 17L0.869737 22.6618L6.33812 20.8097L2 17ZM29.5065 16.9194C29.1927 18.8407 28.1353 21.7495 25.9927 24.1685C23.8634 26.5725 20.6586 28.5 16 28.5V29.5C20.9734 29.5 24.4419 27.4275 26.7413 24.8315C29.0274 22.2505 30.1539 19.1593 30.4935 17.0806L29.5065 16.9194ZM16 28.5C9.44059 28.5 5.73676 24.6709 3.88913 21.0352L2.99765 21.4883C4.9633 25.3562 8.96079 29.5 16 29.5V28.5Z" fill="#444444"/>
</svg>
