<svg width="30" height="30" viewBox="0 0 30 30" fill="none" xmlns="http://www.w3.org/2000/svg">
<path d="M25.979 16.4012C25.9573 16.577 26.0302 16.7511 26.1706 16.859L29.3914 19.334L29.3913 19.3341L29.4015 19.3415C29.4939 19.4089 29.5268 19.5172 29.4565 19.6427L26.3733 24.8321L26.3732 24.8321L26.369 24.8394C26.3032 24.9547 26.1625 25.0045 26.0368 24.958L22.2022 23.4593C22.0426 23.3969 21.8621 23.4206 21.724 23.5221C20.9621 24.0822 20.1314 24.5659 19.2321 24.9228C19.0659 24.9887 18.9475 25.1385 18.9217 25.3155L18.3432 29.2905C18.3427 29.2936 18.3423 29.2968 18.3419 29.2999C18.3414 29.3037 18.341 29.3075 18.3406 29.3113C18.3318 29.3969 18.2513 29.5 18.0858 29.5H11.9142C11.7785 29.5 11.6693 29.4178 11.635 29.2731L11.059 25.3155C11.0332 25.1385 10.9149 24.9887 10.7486 24.9228C9.84786 24.5653 9.03695 24.1001 8.25816 23.5232C8.11992 23.4208 7.93876 23.3967 7.77854 23.4593L3.9571 24.9529C3.80021 24.9987 3.66618 24.9348 3.6117 24.8394L3.61176 24.8394L3.60743 24.8321L0.527707 19.6486C0.471481 19.5382 0.504274 19.4015 0.590057 19.3334L3.8464 16.8607C3.99397 16.7486 4.06747 16.5641 4.03738 16.3813C3.96501 15.9416 3.9283 15.4626 3.9283 15C3.9283 14.5494 3.98202 14.0723 4.05667 13.6187C4.08676 13.4359 4.01326 13.2514 3.86568 13.1393L0.606319 10.6643L0.606376 10.6642L0.598523 10.6585C0.50611 10.5911 0.473234 10.4828 0.543543 10.3573L3.62672 5.16789L3.62678 5.16793L3.63099 5.16057C3.69683 5.04535 3.83741 4.99549 3.96312 5.04196L7.79783 6.54069C7.95744 6.60308 8.13789 6.57937 8.27597 6.47787C9.03793 5.91777 9.86864 5.43408 10.7679 5.07725C10.9341 5.01127 11.0525 4.86152 11.0783 4.68452L11.6565 0.71213C11.6766 0.586368 11.7712 0.5 11.9142 0.5H18.0858C18.2444 0.5 18.3449 0.601179 18.3628 0.712224C18.3629 0.71273 18.363 0.713236 18.3631 0.713742L18.941 4.68452C18.9668 4.86152 19.0851 5.01127 19.2514 5.07725C20.1521 5.43468 20.963 5.89991 21.7418 6.47678C21.8801 6.57917 22.0612 6.60332 22.2215 6.54069L26.0429 5.04714C26.1998 5.00129 26.3338 5.06524 26.3883 5.16057L26.3882 5.16061L26.3926 5.16789L29.4723 10.3514C29.5285 10.4617 29.4957 10.5985 29.41 10.6666L26.1536 13.1393C26.006 13.2514 25.9325 13.4359 25.9626 13.6187C26.0351 14.0589 26.0717 14.5192 26.0717 15C26.0717 15.4809 26.0351 15.9474 25.979 16.4012ZM8.71415 15C8.71415 18.3831 11.555 21.125 15 21.125C18.445 21.125 21.2859 18.3831 21.2859 15C21.2859 11.6169 18.445 8.875 15 8.875C11.555 8.875 8.71415 11.6169 8.71415 15Z" fill="#444444" stroke="#444444" stroke-linejoin="round"/>
</svg>
