<svg width="32" height="30" viewBox="0 0 32 30" fill="none" xmlns="http://www.w3.org/2000/svg">
<path d="M30 13L31.1303 7.33821L25.6619 9.19027L30 13ZM2.49346 13.0806C2.80728 11.1593 3.8647 8.25053 6.00729 5.83152C8.1366 3.42751 11.3414 1.5 16 1.5V0.5C11.0266 0.5 7.55806 2.57249 5.25871 5.16848C2.97264 7.74947 1.84605 10.8407 1.50654 12.9194L2.49346 13.0806ZM16 1.5C22.5594 1.5 26.2632 5.32909 28.1109 8.96477L29.0024 8.51173C27.0367 4.64381 23.0392 0.5 16 0.5V1.5Z" fill="#444444"/>
<path d="M2 17L0.869737 22.6618L6.33812 20.8097L2 17ZM29.5065 16.9194C29.1927 18.8407 28.1353 21.7495 25.9927 24.1685C23.8634 26.5725 20.6586 28.5 16 28.5V29.5C20.9734 29.5 24.4419 27.4275 26.7413 24.8315C29.0274 22.2505 30.1539 19.1593 30.4935 17.0806L29.5065 16.9194ZM16 28.5C9.44059 28.5 5.73676 24.6709 3.88913 21.0352L2.99765 21.4883C4.9633 25.3562 8.96079 29.5 16 29.5V28.5Z" fill="#444444"/>
<path d="M22.3889 15.8162C22.3672 15.992 22.4401 16.1661 22.5805 16.274L24.4746 17.7295L22.6642 20.7766L20.3941 19.8893C20.2345 19.8269 20.054 19.8506 19.916 19.9521C19.4703 20.2797 18.9867 20.5609 18.4655 20.7678C18.2992 20.8337 18.1809 20.9835 18.1551 21.1605L17.8146 23.5H14.1738L13.8333 21.1605C13.8075 20.9835 13.6892 20.8337 13.5229 20.7678C13.0002 20.5603 12.5287 20.2901 12.0739 19.9532C11.9357 19.8508 11.7545 19.8267 11.5943 19.8893L9.32419 20.7765L7.51397 17.7297L9.42879 16.2757C9.57637 16.1636 9.64987 15.9791 9.61977 15.7963C9.57826 15.5441 9.55698 15.2676 9.55698 15C9.55698 14.7444 9.58756 14.4698 9.63135 14.2037C9.66144 14.0209 9.58794 13.8364 9.44036 13.7243L7.52554 12.2703L9.33576 9.22345L11.6059 10.1107C11.7655 10.1731 11.946 10.1494 12.084 10.0479C12.5297 9.72027 13.0133 9.43908 13.5345 9.23225C13.7008 9.16627 13.8191 9.01652 13.8449 8.83952L14.1854 6.5H17.8262L18.1667 8.83952C18.1925 9.01652 18.3108 9.16627 18.4771 9.23225C18.9998 9.43968 19.4713 9.70991 19.9261 10.0468C20.0643 10.1492 20.2455 10.1733 20.4057 10.1107L22.6758 9.22345L24.486 12.2703L22.5712 13.7243C22.4236 13.8364 22.3501 14.0209 22.3802 14.2037C22.4218 14.4564 22.443 14.7217 22.443 15C22.443 15.2784 22.4218 15.5499 22.3889 15.8162ZM12.0285 15C12.0285 17.1456 13.8279 18.875 16 18.875C18.1721 18.875 19.9715 17.1456 19.9715 15C19.9715 12.8544 18.1721 11.125 16 11.125C13.8279 11.125 12.0285 12.8544 12.0285 15Z" fill="#444444" stroke="#444444" stroke-linejoin="round"/>
</svg>
