<svg width="30" height="30" viewBox="0 0 30 30" fill="none" xmlns="http://www.w3.org/2000/svg">
<path d="M28.8205 13.5258C28.6677 13.0202 28.3315 12.7281 27.8229 12.6591C26.4737 12.4759 25.168 13.6856 23.6068 14.6342C22.327 15.4118 22.1864 16.4706 19.5966 16.1191L19.5955 16.119C19.4876 16.1043 19.3782 16.0876 19.2661 16.0674C18.6996 15.9678 16.343 15.3044 15.7136 14.9643C15.3331 14.7587 14.2077 14.744 14.1915 13.3571C14.171 11.5957 16.922 12.8893 17.1795 12.9242C19.0129 13.173 21.2233 14.0864 21.2946 12.8214C21.3265 12.2567 21.1049 11.5957 20.7873 11.2143C20.3876 10.7343 19.9544 10.541 19.2652 10.1429C18.5346 9.7209 17.4648 9.31915 16.7283 9.07143C15.4519 8.64205 14.2634 8.16581 13.2687 8.03081C13.0288 7.99826 12.7988 7.99157 12.5855 8.01041C10.8622 8.15948 9.83269 8.86362 8.64057 9.67839C7.1648 10.6879 5.32848 11.9435 1.33964 12.7352C1.22465 12.7586 1.12147 12.8672 1.05939 13.0305C0.997316 13.1937 0.982985 13.3942 1.02073 13.5754C1.0836 13.8801 2.58897 21.0574 4.30116 22.9002C4.35422 22.957 4.41394 22.9897 4.47503 22.998C4.54549 23.0075 4.61822 22.9834 4.68376 22.9263C4.73417 22.8828 9.95344 18.3336 12.7314 19.098C14.2373 19.5087 15.1397 20.0009 15.8648 20.3967C16.2044 20.5824 16.4979 20.7417 16.7879 20.8559L17.172 21.0099C17.7265 21.2348 18.2058 21.4287 18.7282 21.4997C20.0265 21.6758 21.4463 21.0146 23.9676 19.0585C24.678 18.5078 25.3086 18.0344 25.8642 17.6181C28.0582 15.9722 28.6236 16.2667 28.9051 14.9643C29.084 14.1428 28.9837 14.0661 28.8205 13.5258Z" stroke="#444444"/>
</svg>
