<svg width="40" height="40" viewBox="0 0 40 40" fill="none" xmlns="http://www.w3.org/2000/svg">
<path fill-rule="evenodd" clip-rule="evenodd" d="M16.4705 4.41188C12.4393 5.32364 6.74871 8.10764 4.0586 10.4846C1.97388 12.3265 1.12977 13.8536 1.01208 15.9964C0.821349 19.4668 2.89605 21.6996 6.69572 22.1132C7.80934 22.2344 7.85374 22.2666 7.99076 23.0546C8.16311 24.0449 9.71884 25.75 10.9974 26.3497C12.3352 26.9771 14.8675 27.3069 17.2549 27.1647C19.2795 27.044 19.3609 27.0572 19.4516 27.5189C19.5034 27.7826 19.6636 28.5908 19.8073 29.315C20.1506 31.0443 21.5347 33.5975 22.5912 34.4502C24.214 35.7601 25.4382 35.1948 25.7203 33.0055L25.8597 31.9225L27.1106 32.131C30.234 32.6513 34.398 30.2603 34.398 27.9463C34.398 27.4563 34.6479 27.1524 35.5746 26.5165C37.9109 24.9133 39.0074 22.7536 39 19.7694C38.9942 17.4454 38.4683 15.5692 37.1855 13.296C34.8761 9.20373 29.4224 5.45881 24.088 4.30282C22.0448 3.86021 18.6989 3.90805 16.4705 4.41188ZM22.9448 4.84856C23.6401 4.96991 24.648 5.17772 25.1844 5.31048L26.1598 5.55186L25.1345 6.03264C23.8388 6.64049 22.2234 8.06858 22.2234 8.60643C22.2234 9.20615 22.4415 9.11815 23.3351 8.15855C23.7745 7.68632 24.6249 7.08177 25.2243 6.81516C26.806 6.1112 27.9528 6.29421 30.2455 7.61632C32.0034 8.63034 35.5849 11.5006 34.4734 11.0051C33.635 10.6312 31.7248 10.7301 30.7241 11.1991C29.8241 11.6208 29.8079 11.6208 29.3185 11.2017C28.6771 10.6522 27.9679 10.4512 27.6623 10.7321C27.4988 10.8824 27.642 11.06 28.1046 11.2801C29.038 11.7235 29.5453 12.284 29.7824 13.1325C30.0621 14.1349 30.4591 14.0101 30.4591 12.9197C30.4591 12.0253 30.4825 11.9991 31.5622 11.6886C32.8742 11.3112 34.0213 11.4606 35.1413 12.1545C36.2721 12.855 36.9444 13.8751 37.6541 15.9672C38.1936 17.5582 38.2592 18.0741 38.1716 20.0409C38.0876 21.9285 37.9701 22.4727 37.4469 23.404C36.7875 24.5769 35.3946 25.8751 34.1719 26.4563C33.4982 26.7765 33.4514 26.8713 33.5854 27.6422C33.7124 28.372 33.6314 28.5842 32.9575 29.2899C31.6899 30.6169 30.3056 31.2339 28.3355 31.3502C26.9218 31.4336 26.4004 31.3645 25.368 30.9561C23.3893 30.1736 22.6731 29.035 23.6492 28.2233C24.0672 27.8752 24.4131 27.8489 26.733 27.9871C28.4221 28.0876 29.5109 28.0615 29.8129 27.913C30.3438 27.6516 30.6088 26.9722 30.3371 26.5683C30.1209 26.2466 29.6236 26.4713 29.6236 26.8906C29.6236 27.3861 28.944 27.4627 26.738 27.2163C24.4327 26.9586 23.8182 27.0436 22.9992 27.7326C21.9087 28.6501 22.579 30.3595 24.415 31.343C25.0994 31.7097 25.1283 31.7825 24.9982 32.8128C24.7409 34.8472 23.6526 34.9549 22.2525 33.0842C21.2219 31.7075 20.6349 30.2179 20.3048 28.1436L20.02 26.3526H16.7486C12.9759 26.3526 11.446 26.0379 10.1557 24.9964C9.14687 24.1823 8.82866 23.6756 8.59591 22.5133C8.14569 20.2649 10.9363 17.7945 13.9265 17.7945C15.5832 17.7945 16.3573 18.2588 16.1661 19.1379C15.9439 20.1585 15.2993 20.8635 13.9461 21.5655C12.8098 22.1549 12.2593 22.8416 12.9229 22.8416C13.3268 22.8416 14.9489 22.0241 15.286 21.6507C15.7185 21.1716 15.8918 21.1909 20.3205 22.2122C26.3238 23.5969 29.7764 23.3838 32.1244 21.4837C33.1311 20.6691 34.5183 18.4921 34.6849 17.4653C34.8152 16.662 34.0969 17.0025 33.7594 17.9042C33.3094 19.1065 32.0996 20.6928 31.2027 21.2561C30.2257 21.8699 27.9437 22.4027 26.2911 22.4029C24.6821 22.4031 21.0298 21.7628 21.0298 21.4804C21.0298 21.1012 21.5602 20.32 22.0708 19.9476C22.5413 19.6042 22.5473 19.5662 22.1532 19.4273C21.6127 19.2366 20.8868 19.8238 20.5244 20.745L20.2518 21.4382L18.4325 21.0244C17.4321 20.7968 16.5913 20.5901 16.5641 20.5653C16.5371 20.5403 16.646 20.112 16.8061 19.6134C17.1537 18.5311 18.3237 17.5909 20.5027 16.6427C21.7925 16.0813 22.2174 16.0015 23.511 16.0772C24.9166 16.1595 25.245 16.2806 26.6616 17.2382C27.1142 17.5441 27.3183 17.2479 27.0144 16.7263C26.8712 16.4801 26.065 15.9765 25.2231 15.6071C23.5671 14.8806 22.4559 13.8736 22.4726 13.1145C22.4783 12.8523 22.6239 12.275 22.7963 11.8315C22.971 11.3814 23.0235 10.8976 22.9152 10.7361C22.6645 10.3635 22.3714 10.6547 22.0171 11.6281C21.6172 12.7279 21.685 13.5925 22.2353 14.4108L22.7244 15.1384L21.6994 15.3921C20.3623 15.7232 19.2112 16.272 17.8469 17.2292L16.7407 18.0056L15.8415 17.4394C15.0652 16.9505 14.7608 16.8878 13.6123 16.9804C11.2538 17.1704 9.03634 18.6218 8.08553 20.5974C7.61574 21.5736 7.61478 21.5741 6.62386 21.4295C5.14715 21.214 3.26606 20.3485 2.71963 19.6329C1.9586 18.6365 1.63323 17.423 1.7354 15.9624C1.85738 14.2185 2.62128 12.7819 4.1973 11.3332C5.30256 10.3174 9.08122 7.8351 9.26528 8.00407C9.30514 8.04072 9.16692 8.50592 8.95852 9.03762C8.7241 9.63471 8.57872 10.7196 8.57824 11.8752L8.57753 13.7457L7.64199 14.2407C7.12756 14.5128 6.7067 14.8255 6.7067 14.9354C6.7067 15.368 7.18604 15.3649 7.99291 14.9273C8.60331 14.5962 9.15546 14.4867 9.98047 14.5334C11.4319 14.6155 11.589 14.0722 10.2013 13.7704L9.27936 13.5701L9.37198 11.4514C9.45267 9.60816 9.55245 9.19474 10.1411 8.27156C10.7193 7.36441 11.0647 7.10613 12.5219 6.48995C13.4593 6.09365 14.8019 5.61352 15.5051 5.42305L16.7842 5.07677L16.3924 5.56568C15.7405 6.37979 15.0924 7.77695 14.9277 8.72382C14.842 9.21602 14.6491 9.61584 14.4992 9.61233C13.7114 9.59433 13.3908 9.70778 13.3908 10.0045C13.3908 10.2447 13.6651 10.3349 14.4053 10.3384C14.9635 10.3411 15.8873 10.5381 16.4586 10.7764C17.0298 11.0148 17.6008 11.151 17.7273 11.079C18.0823 10.8774 17.2528 10.1611 16.3459 9.88596C15.4256 9.60684 15.4044 9.5138 15.9076 7.95645C16.3246 6.66528 17.4509 5.36182 18.5187 4.93414C19.3898 4.58523 21.2301 4.54969 22.9448 4.84856Z" fill="#444444" stroke="#444444" stroke-width="0.5"/>
</svg>
