<svg width="30" height="30" viewBox="0 0 30 30" fill="none" xmlns="http://www.w3.org/2000/svg">
<circle cx="15" cy="15" r="14" stroke="#444444" stroke-width="2"/>
<path d="M17.3388 8.024C17.3388 8.632 17.1228 9.152 16.6908 9.584C16.2588 10.016 15.7468 10.232 15.1548 10.232C14.5628 10.232 14.0508 10.016 13.6188 9.584C13.1868 9.152 12.9708 8.632 12.9708 8.024C12.9708 7.432 13.1868 6.92 13.6188 6.488C14.0508 6.056 14.5628 5.84 15.1548 5.84C15.7468 5.84 16.2588 6.056 16.6908 6.488C17.1228 6.92 17.3388 7.432 17.3388 8.024ZM19.1388 22.592C19.1388 22.688 19.1188 22.8 19.0788 22.928C19.0388 23.056 18.9948 23.12 18.9468 23.12C18.4508 23.12 17.8308 23.1 17.0868 23.06C16.3428 23.02 15.6908 23 15.1308 23C14.5868 23 13.9868 23.02 13.3308 23.06C12.6748 23.1 12.1068 23.12 11.6268 23.12C11.5788 23.12 11.5348 23.056 11.4948 22.928C11.4548 22.8 11.4348 22.688 11.4348 22.592C11.4348 22.512 11.4548 22.408 11.4948 22.28C11.5348 22.152 11.5788 22.08 11.6268 22.064C12.2188 22 12.6388 21.84 12.8868 21.584C13.1348 21.328 13.2588 20.816 13.2588 20.048V16.448C13.2588 15.808 13.1348 15.392 12.8868 15.2C12.6388 15.008 12.2188 14.88 11.6268 14.816C11.5788 14.8 11.5348 14.732 11.4948 14.612C11.4548 14.492 11.4348 14.392 11.4348 14.312C11.4348 14.232 11.4548 14.128 11.4948 14C11.5348 13.872 11.5788 13.808 11.6268 13.808C12.3948 13.648 13.2588 13.388 14.2188 13.028C15.1788 12.668 15.9228 12.36 16.4508 12.104C16.4988 12.072 16.5788 12.032 16.6908 11.984C16.8028 11.936 16.8988 11.912 16.9788 11.912C17.1708 11.912 17.3108 11.944 17.3988 12.008C17.4868 12.072 17.5228 12.144 17.5068 12.224C17.4748 12.784 17.4348 13.464 17.3868 14.264C17.3388 15.064 17.3148 15.736 17.3148 16.28V20.048C17.3148 20.8 17.4428 21.312 17.6988 21.584C17.9548 21.856 18.3708 22.016 18.9468 22.064C18.9948 22.064 19.0388 22.132 19.0788 22.268C19.1188 22.404 19.1388 22.512 19.1388 22.592Z" fill="#444444"/>
</svg>
