<svg width="40" height="40" viewBox="0 0 40 40" fill="none" xmlns="http://www.w3.org/2000/svg">
<path fill-rule="evenodd" clip-rule="evenodd" d="M29.8289 27.1189C30.461 27.1189 31.0678 27.3704 31.5142 27.8178L39.2405 35.5627C40.254 36.5787 40.253 38.2236 39.2383 39.2383C38.2236 40.253 36.5787 40.254 35.5627 39.2405L27.8178 31.5142C27.3704 31.0678 27.1189 30.461 27.1189 29.8289C27.1189 29.2137 26.8803 28.6218 26.4532 28.179C23.6427 30.595 19.994 32.0496 16.0248 32.0496C7.17418 32.0496 0 24.8754 0 16.0248C0 7.17418 7.17418 0 16.0248 0C24.8754 0 32.0496 7.17418 32.0496 16.0248C32.0496 19.994 30.595 23.6427 28.179 26.4532C28.6218 26.8803 29.2137 27.1189 29.8289 27.1189ZM16 28.6667C22.9956 28.6667 28.6667 22.9956 28.6667 16C28.6667 9.00439 22.9956 3.33333 16 3.33333C9.00439 3.33333 3.33333 9.00439 3.33333 16C3.33333 22.9956 9.00439 28.6667 16 28.6667Z" fill="#444444"/>
</svg>
