<svg width="20" height="20" viewBox="0 0 20 20" fill="none" xmlns="http://www.w3.org/2000/svg">
<path d="M17.2223 3.12654e-08H2.7778C2.41301 -5.43874e-06 2.05179 0.0718404 1.71477 0.211436C1.37775 0.351031 1.07153 0.555643 0.813584 0.813583C0.555639 1.07153 0.351031 1.37775 0.211436 1.71477C0.0718405 2.05179 -5.46969e-06 2.413 3.1289e-10 2.77779V17.2222C-5.47469e-06 17.587 0.071841 17.9482 0.211437 18.2853C0.351032 18.6223 0.555644 18.9285 0.813589 19.1864C1.07153 19.4444 1.37775 19.649 1.71477 19.7886C2.0518 19.9282 2.41301 20 2.7778 20H17.2223C17.5871 20.0001 17.9483 19.9283 18.2853 19.7887C18.6224 19.6491 18.9286 19.4445 19.1866 19.1866C19.4445 18.9286 19.6491 18.6223 19.7887 18.2853C19.9283 17.9483 20.0001 17.587 20 17.2222V2.77779C20.0001 2.41299 19.9283 2.05176 19.7887 1.71471C19.6491 1.37767 19.4445 1.07143 19.1866 0.813478C18.9286 0.555523 18.6224 0.350915 18.2853 0.211337C17.9483 0.0717579 17.5871 -5.47038e-05 17.2223 3.12654e-08ZM6.11115 16.6667H3.33334V7.22224H6.11115V16.6667ZM4.71388 6.11114H4.69834C4.51561 6.11624 4.33379 6.08364 4.16424 6.01529C3.99469 5.94694 3.84106 5.84439 3.71296 5.71399C3.58485 5.58359 3.48501 5.42814 3.4197 5.25744C3.35438 5.08669 3.32498 4.90432 3.33334 4.72171C3.32594 4.5367 3.35706 4.35217 3.42475 4.17982C3.49243 4.00747 3.59518 3.85107 3.7265 3.72053C3.85782 3.59 4.01483 3.48817 4.18758 3.42151C4.36032 3.35486 4.54504 3.32483 4.73 3.33333C4.91387 3.32636 5.0972 3.35755 5.2684 3.42496C5.4396 3.49236 5.59495 3.5945 5.72475 3.72495C5.8545 3.85539 5.9558 4.01131 6.0223 4.18286C6.08885 4.35442 6.11905 4.53789 6.11115 4.72171C6.1185 4.90682 6.08735 5.09144 6.01965 5.26389C5.95195 5.43629 5.84915 5.59279 5.7178 5.72344C5.5864 5.85404 5.42935 5.95594 5.25655 6.02269C5.08375 6.08944 4.89894 6.11954 4.71388 6.11114ZM13.8889 16.6667V11.6117C13.8889 10.3906 13.2084 9.55724 12.1155 9.55724C11.7804 9.55989 11.4547 9.66814 11.1847 9.86664C10.9146 10.0651 10.7141 10.3437 10.6117 10.6628C10.5509 10.9937 10.5321 11.331 10.5556 11.6667V16.6667H7.7778V7.22224H10.5556V8.67554C10.8116 8.20884 11.195 7.82444 11.661 7.56719C12.127 7.30989 12.6565 7.19024 13.1878 7.22219C15.1756 7.22219 16.6662 8.47219 16.6662 11.2633L16.6667 16.6666L13.8889 16.6667Z" fill="black"/>
</svg>
