<svg width="30" height="30" viewBox="0 0 30 30" fill="none" xmlns="http://www.w3.org/2000/svg">
<path d="M12.8571 15L13.996 15.9762C14.4775 15.4145 14.4775 14.5855 13.996 14.0238L12.8571 15ZM3.28171 1.52381C2.74258 0.894825 1.79563 0.821983 1.16664 1.36112C0.537653 1.90025 0.464811 2.8472 1.00394 3.47619L3.28171 1.52381ZM1.00394 26.5238C0.464812 27.1528 0.537654 28.0998 1.16664 28.6389C1.79563 29.178 2.74258 29.1052 3.28171 28.4762L1.00394 26.5238ZM13.996 14.0238L3.28171 1.52381L1.00394 3.47619L11.7182 15.9762L13.996 14.0238ZM11.7182 14.0238L1.00394 26.5238L3.28171 28.4762L13.996 15.9762L11.7182 14.0238Z" fill="#444444"/>
<path d="M27.8571 15L28.996 15.9762C29.4775 15.4145 29.4775 14.5855 28.996 14.0238L27.8571 15ZM18.2817 1.52381C17.7426 0.894825 16.7956 0.821983 16.1666 1.36112C15.5377 1.90025 15.4648 2.8472 16.0039 3.47619L18.2817 1.52381ZM16.0039 26.5238C15.4648 27.1528 15.5377 28.0998 16.1666 28.6389C16.7956 29.178 17.7426 29.1052 18.2817 28.4762L16.0039 26.5238ZM28.996 14.0238L18.2817 1.52381L16.0039 3.47619L26.7182 15.9762L28.996 14.0238ZM26.7182 14.0238L16.0039 26.5238L18.2817 28.4762L28.996 15.9762L26.7182 14.0238Z" fill="#444444"/>
</svg>
