<svg width="40" height="40" viewBox="0 0 40 40" fill="none" xmlns="http://www.w3.org/2000/svg">
<path d="M11.0148 13.4712L10.8495 27.199C8.57601 28.2495 7.0082 30.6389 7.00003 33.4704C6.99143 36.4509 8.82885 38.9785 11.3093 39.9393L11.3278 33.5311L15.5849 33.5176L15.6371 40C18.194 39.0977 19.9753 36.4841 19.9839 33.5036C19.992 30.672 18.438 28.2926 16.1706 27.2566L16.2097 13.6952C16.2114 13.0991 15.787 12.6533 15.2194 12.6551L11.9557 12.6655C11.3173 12.593 10.9453 12.9498 11.0148 13.4712Z" fill="#444444"/>
<path d="M16.1731 26.3624L16.2122 12.801C18.4857 11.7505 20.0535 9.36115 20.0617 6.52963C20.0703 3.54909 18.2329 1.02151 15.7524 0.0607384L15.7339 6.4689L11.4768 6.48244L11.4246 0C8.86774 0.902292 7.08644 3.51591 7.07783 6.49645C7.06966 9.32796 8.74735 12.4352 11.0148 13.4712L10.9147 26.3706C10.9129 26.9668 11.2747 27.3467 11.8423 27.3449L15.106 27.3345C15.7444 27.407 16.2426 26.8838 16.1731 26.3624Z" fill="#444444"/>
<path d="M32.6734 36.8467L32.4573 22.6061L32.4879 22.6061C33.0021 22.6051 33.4186 22.1436 33.3985 21.5849C33.3794 21.0525 32.9339 20.6546 32.4387 20.6555L31.1768 20.6579C30.8876 20.6585 30.6544 20.4066 30.656 20.0954L30.7205 7.3446C30.7235 6.76445 30.8183 6.18841 31.0009 5.64123L31.0047 5.62996C31.2481 4.90075 31.3344 4.12263 31.257 3.35472L30.9605 0.411479C30.9368 0.17665 30.753 -0.000399614 30.5334 6.77406e-07L29.2953 0.00234498C29.0756 0.00277502 28.89 0.180546 28.864 0.41549L28.5381 3.35618C28.4528 4.12559 28.5311 4.9046 28.767 5.63419L28.7715 5.64808C28.9481 6.19421 29.0368 6.76933 29.0339 7.34888L28.9694 20.0986C28.9678 20.4099 28.7321 20.6626 28.4429 20.6632L27.1731 20.6656C26.6824 20.6666 26.2405 21.0629 26.2121 21.5904C26.1819 22.1529 26.5953 22.6174 27.1119 22.6164L27.1839 22.6163L26.8237 36.858C26.8149 38.5964 28.1172 40.0031 29.7327 40C31.348 39.9969 32.6646 38.5851 32.6734 36.8467Z" fill="#444444"/>
</svg>
