<svg width="30" height="30" viewBox="0 0 30 30" fill="none" xmlns="http://www.w3.org/2000/svg">
<path fill-rule="evenodd" clip-rule="evenodd" d="M14.3872 0L14.8872 0.505018L20.86 6.53773L21.355 7.03773V7.53773V11.3326C21.0334 11.141 20.6996 10.9679 20.355 10.8147V7.53773H14.3872H13.8872V7.03773V1H3V24.805H8.61804C8.85453 25.1557 9.1138 25.4897 9.39374 25.805H3H2V24.805V1V0H3H13.8872H14.3872ZM14.8872 1.92635L19.4528 6.53773H14.8872V1.92635Z" fill="#444444"/>
<path fill-rule="evenodd" clip-rule="evenodd" d="M22.423 24.2035C22.7074 24.2035 22.9805 24.3167 23.1814 24.518L26.6582 28.0032C27.1143 28.4604 27.1139 29.2006 26.6572 29.6572C26.2006 30.1139 25.4604 30.1143 25.0032 29.6582L21.518 26.1814C21.3167 25.9805 21.2035 25.7074 21.2035 25.423C21.2035 25.1462 21.0961 24.8798 20.904 24.6805C19.6392 25.7678 17.9973 26.4223 16.2112 26.4223C12.2284 26.4223 9 23.1939 9 19.2112C9 15.2284 12.2284 12 16.2112 12C20.1939 12 23.4223 15.2284 23.4223 19.2112C23.4223 20.9973 22.7678 22.6392 21.6805 23.904C21.8798 24.0961 22.1462 24.2035 22.423 24.2035ZM16.2 24.9C19.348 24.9 21.9 22.348 21.9 19.2C21.9 16.052 19.348 13.5 16.2 13.5C13.052 13.5 10.5 16.052 10.5 19.2C10.5 22.348 13.052 24.9 16.2 24.9Z" fill="#444444"/>
</svg>
