<svg width="32" height="30" viewBox="0 0 32 30" fill="none" xmlns="http://www.w3.org/2000/svg">
<path d="M19.5092 19.2C19.7759 19.2 19.9859 19.2767 20.1392 19.43C20.2992 19.5767 20.3792 19.7733 20.3792 20.02V21.5H10.4592V20.68C10.4592 20.5133 10.4926 20.34 10.5592 20.16C10.6326 19.9733 10.7459 19.8067 10.8992 19.66L15.2892 15.26C15.6559 14.8867 15.9826 14.53 16.2692 14.19C16.5626 13.85 16.8059 13.5133 16.9992 13.18C17.1926 12.8467 17.3392 12.51 17.4392 12.17C17.5459 11.8233 17.5992 11.46 17.5992 11.08C17.5992 10.7333 17.5492 10.43 17.4492 10.17C17.3492 9.90333 17.2059 9.68 17.0192 9.5C16.8392 9.32 16.6192 9.18667 16.3592 9.1C16.1059 9.00667 15.8192 8.96 15.4992 8.96C15.2059 8.96 14.9326 9.00333 14.6792 9.09C14.4326 9.17 14.2126 9.28667 14.0192 9.44C13.8259 9.58667 13.6626 9.76 13.5292 9.96C13.3959 10.16 13.2959 10.38 13.2292 10.62C13.1159 10.9267 12.9692 11.13 12.7892 11.23C12.6092 11.33 12.3492 11.3533 12.0092 11.3L10.7092 11.07C10.8092 10.3767 11.0026 9.77 11.2892 9.25C11.5759 8.72333 11.9326 8.28667 12.3592 7.94C12.7926 7.58667 13.2859 7.32333 13.8392 7.15C14.3992 6.97 14.9992 6.88 15.6392 6.88C16.3059 6.88 16.9159 6.98 17.4692 7.18C18.0226 7.37333 18.4959 7.65 18.8892 8.01C19.2826 8.37 19.5892 8.80333 19.8092 9.31C20.0292 9.81667 20.1392 10.38 20.1392 11C20.1392 11.5333 20.0592 12.0267 19.8992 12.48C19.7459 12.9333 19.5359 13.3667 19.2692 13.78C19.0092 14.1933 18.7026 14.5933 18.3492 14.98C17.9959 15.3667 17.6259 15.76 17.2392 16.16L13.9792 19.49C14.2926 19.3967 14.6026 19.3267 14.9092 19.28C15.2226 19.2267 15.5192 19.2 15.7992 19.2H19.5092Z" fill="#444444"/>
<path d="M30 13L31.1303 7.33821L25.6619 9.19027L30 13ZM2.49346 13.0806C2.80728 11.1593 3.8647 8.25053 6.00729 5.83152C8.1366 3.42751 11.3414 1.5 16 1.5V0.5C11.0266 0.5 7.55806 2.57249 5.25871 5.16848C2.97264 7.74947 1.84605 10.8407 1.50654 12.9194L2.49346 13.0806ZM16 1.5C22.5594 1.5 26.2632 5.32909 28.1109 8.96477L29.0024 8.51173C27.0367 4.64381 23.0392 0.5 16 0.5V1.5Z" fill="#444444"/>
<path d="M2 17L0.869737 22.6618L6.33812 20.8097L2 17ZM29.5065 16.9194C29.1927 18.8407 28.1353 21.7495 25.9927 24.1685C23.8634 26.5725 20.6586 28.5 16 28.5V29.5C20.9734 29.5 24.4419 27.4275 26.7413 24.8315C29.0274 22.2505 30.1539 19.1593 30.4935 17.0806L29.5065 16.9194ZM16 28.5C9.44059 28.5 5.73676 24.6709 3.88913 21.0352L2.99765 21.4883C4.9633 25.3562 8.96079 29.5 16 29.5V28.5Z" fill="#444444"/>
</svg>
