<svg width="40" height="40" viewBox="0 0 40 40" fill="none" xmlns="http://www.w3.org/2000/svg">
<path d="M2 22L0.142602 30.4587L8.39677 27.8379L2 22ZM37.2581 21.89C36.8538 24.6177 35.4928 28.7361 32.7445 32.1551C30.0148 35.5508 25.9277 38.25 20 38.25L20 39.75C26.4563 39.75 30.9492 36.7826 33.9136 33.0949C36.8592 29.4306 38.3062 25.049 38.7419 22.11L37.2581 21.89ZM20 38.25C11.8625 38.25 7.15527 33.1479 4.71773 28.1064L3.3673 28.7593C5.95414 34.1096 11.0865 39.75 20 39.75L20 38.25Z" fill="#444444"/>
<path d="M7.59619 14.5251L17.5251 4.5962C18.892 3.22936 21.108 3.22936 22.4749 4.59619L32.4038 14.5251C33.7706 15.892 33.7706 18.108 32.4038 19.4749L22.4749 29.4038C21.108 30.7706 18.892 30.7706 17.5251 29.4038L7.5962 19.4749C6.22936 18.108 6.22936 15.892 7.59619 14.5251Z" stroke="#444444" stroke-width="3"/>
</svg>
