<svg width="30" height="30" viewBox="0 0 30 30" fill="none" xmlns="http://www.w3.org/2000/svg">
<path d="M21 2.78571H27V27.2143C27 28.3386 26.1046 29.25 25 29.25H5C3.89543 29.25 3 28.3386 3 27.2143V2.78571H9M9 0.75H21V4.82143C21 5.94572 20.1046 6.85714 19 6.85714H11C9.89543 6.85714 9 5.94572 9 4.82143V0.75Z" stroke="#444444"/>
<path fill-rule="evenodd" clip-rule="evenodd" d="M8.7214 14.1996L13.1411 8.34961L14.2008 9.74465L8.7214 16.8996L5.80078 13.0859L6.85078 11.7246L8.7214 14.1996Z" fill="#444444"/>
<path fill-rule="evenodd" clip-rule="evenodd" d="M8.7214 23.6996L13.1411 17.8496L14.2008 19.2446L8.7214 26.3996L5.80078 22.5859L6.85078 21.2246L8.7214 23.6996Z" fill="#444444"/>
<path d="M21.6664 13.5996C21.9425 13.5996 22.1664 13.3758 22.1664 13.0996C22.1664 12.8235 21.9425 12.5996 21.6664 12.5996V13.5996ZM16.0664 12.5996C15.7903 12.5996 15.5664 12.8235 15.5664 13.0996C15.5664 13.3758 15.7903 13.5996 16.0664 13.5996V12.5996ZM21.6664 23.0996C21.9425 23.0996 22.1664 22.8758 22.1664 22.5996C22.1664 22.3235 21.9425 22.0996 21.6664 22.0996V23.0996ZM16.0664 22.0996C15.7903 22.0996 15.5664 22.3235 15.5664 22.5996C15.5664 22.8758 15.7903 23.0996 16.0664 23.0996V22.0996ZM21.6664 12.5996H16.0664V13.5996H21.6664V12.5996ZM21.6664 22.0996H16.0664V23.0996H21.6664V22.0996Z" fill="#444444"/>
</svg>
