<svg width="31" height="30" viewBox="0 0 31 30" fill="none" xmlns="http://www.w3.org/2000/svg">
<path fill-rule="evenodd" clip-rule="evenodd" d="M10.5334 4.11323C10.8252 2.32331 12.2734 0.634931 13.9238 0.160537C16.0321 -0.445388 18.3839 0.710755 19.3724 2.83904C19.4961 3.10557 19.6027 3.33319 19.6091 3.3449C19.6156 3.35662 19.8492 3.29855 20.1283 3.21595C22.0609 2.6437 24.2243 3.57923 25.1275 5.37762L25.3407 5.80198L26.3344 5.81657C31.5348 5.89291 31.623 13.9859 26.4263 14.2471L25.6623 14.2855L25.5794 14.81C24.9048 19.0779 20.1019 21.3756 16.5811 19.1146L16.0251 18.7576L15.3847 19.0578C12.5886 20.368 9.55448 18.958 8.62676 15.9174L8.4449 15.3213L7.93863 15.356C4.30982 15.6048 2.84969 10.399 6.03215 8.55882C6.37519 8.36045 6.39477 8.3326 6.46939 7.93742C6.79243 6.22612 8.1709 4.91008 9.88841 4.67318L10.4549 4.595L10.5334 4.11323ZM11.6031 5.69846C11.8365 4.36387 12.995 3.10499 14.3153 2.75127C16.002 2.29949 17.8834 3.16152 18.6742 4.7484C18.7732 4.94713 18.8585 5.11684 18.8636 5.12558C18.8688 5.13431 19.0557 5.09102 19.279 5.02943C20.8251 4.60275 22.5558 5.30029 23.2783 6.6412L23.4489 6.95761L24.2439 6.96849C28.4042 7.02541 28.4747 13.0597 24.3173 13.2544L23.7062 13.2831L23.6398 13.6741C23.1001 16.8563 19.2578 18.5695 16.4412 16.8837L15.9964 16.6175L15.4841 16.8413C13.2472 17.8182 10.8199 16.7669 10.0777 14.4998L9.93225 14.0553L9.52723 14.0812C6.62419 14.2667 5.45608 10.3852 8.00206 9.01315C8.27648 8.86525 8.29215 8.84448 8.35185 8.54982C8.61027 7.27386 9.71305 6.2926 11.0871 6.11596L11.5402 6.05767L11.6031 5.69846Z" fill="#444444"/>
<circle cx="2" cy="28" r="1.5" stroke="#444444"/>
<circle cx="7" cy="23" r="2.5" stroke="#444444"/>
</svg>
