<svg width="30" height="25" viewBox="0 0 30 25" fill="none" xmlns="http://www.w3.org/2000/svg">
<mask id="path-1-inside-1_7309_14062" fill="white">
<path fill-rule="evenodd" clip-rule="evenodd" d="M3 0C1.34315 0 0 1.34315 0 3V22C0 23.6569 1.34315 25 3 25H27C28.6569 25 30 23.6569 30 22V3C30 1.34315 28.6569 0 27 0H3ZM11.5551 9.26886C11.7425 9.17865 11.968 9.19397 12.1394 9.30856L20.0144 14.5717C20.1623 14.6705 20.25 14.83 20.25 15C20.25 15.17 20.1623 15.3295 20.0144 15.4283L12.1394 20.6914C11.968 20.806 11.7425 20.8214 11.5551 20.7311C11.3678 20.6409 11.25 20.4603 11.25 20.2632V9.73684C11.25 9.53969 11.3678 9.35907 11.5551 9.26886ZM2.5 2.5C2.5 2.22386 2.72386 2 3 2H6C6.27614 2 6.5 2.22386 6.5 2.5V5.5C6.5 5.77614 6.27614 6 6 6H3C2.72386 6 2.5 5.77614 2.5 5.5V2.5ZM10 2C9.72386 2 9.5 2.22386 9.5 2.5V5.5C9.5 5.77614 9.72386 6 10 6H13C13.2761 6 13.5 5.77614 13.5 5.5V2.5C13.5 2.22386 13.2761 2 13 2H10ZM16.5 2.5C16.5 2.22386 16.7239 2 17 2H20C20.2761 2 20.5 2.22386 20.5 2.5V5.5C20.5 5.77614 20.2761 6 20 6H17C16.7239 6 16.5 5.77614 16.5 5.5V2.5ZM24 2C23.7239 2 23.5 2.22386 23.5 2.5V5.5C23.5 5.77614 23.7239 6 24 6H27C27.2761 6 27.5 5.77614 27.5 5.5V2.5C27.5 2.22386 27.2761 2 27 2H24Z"/>
</mask>
<path fill-rule="evenodd" clip-rule="evenodd" d="M3 0C1.34315 0 0 1.34315 0 3V22C0 23.6569 1.34315 25 3 25H27C28.6569 25 30 23.6569 30 22V3C30 1.34315 28.6569 0 27 0H3ZM11.5551 9.26886C11.7425 9.17865 11.968 9.19397 12.1394 9.30856L20.0144 14.5717C20.1623 14.6705 20.25 14.83 20.25 15C20.25 15.17 20.1623 15.3295 20.0144 15.4283L12.1394 20.6914C11.968 20.806 11.7425 20.8214 11.5551 20.7311C11.3678 20.6409 11.25 20.4603 11.25 20.2632V9.73684C11.25 9.53969 11.3678 9.35907 11.5551 9.26886ZM2.5 2.5C2.5 2.22386 2.72386 2 3 2H6C6.27614 2 6.5 2.22386 6.5 2.5V5.5C6.5 5.77614 6.27614 6 6 6H3C2.72386 6 2.5 5.77614 2.5 5.5V2.5ZM10 2C9.72386 2 9.5 2.22386 9.5 2.5V5.5C9.5 5.77614 9.72386 6 10 6H13C13.2761 6 13.5 5.77614 13.5 5.5V2.5C13.5 2.22386 13.2761 2 13 2H10ZM16.5 2.5C16.5 2.22386 16.7239 2 17 2H20C20.2761 2 20.5 2.22386 20.5 2.5V5.5C20.5 5.77614 20.2761 6 20 6H17C16.7239 6 16.5 5.77614 16.5 5.5V2.5ZM24 2C23.7239 2 23.5 2.22386 23.5 2.5V5.5C23.5 5.77614 23.7239 6 24 6H27C27.2761 6 27.5 5.77614 27.5 5.5V2.5C27.5 2.22386 27.2761 2 27 2H24Z" fill="#444444"/>
<path d="M12.1394 9.30856L12.6951 8.47715L12.6951 8.47715L12.1394 9.30856ZM11.5551 9.26886L11.1213 8.36787L11.1213 8.36787L11.5551 9.26886ZM20.0144 14.5717L19.4588 15.4031L19.4588 15.4031L20.0144 14.5717ZM20.0144 15.4283L19.4588 14.5969L19.4588 14.5969L20.0144 15.4283ZM12.1394 20.6914L12.6951 21.5228L12.6951 21.5228L12.1394 20.6914ZM11.5551 20.7311L11.1213 21.6321L11.1213 21.6321L11.5551 20.7311ZM1 3C1 1.89543 1.89543 1 3 1V-1C0.790861 -1 -1 0.790861 -1 3H1ZM1 22V3H-1V22H1ZM3 24C1.89543 24 1 23.1046 1 22H-1C-1 24.2091 0.790862 26 3 26V24ZM27 24H3V26H27V24ZM29 22C29 23.1046 28.1046 24 27 24V26C29.2091 26 31 24.2091 31 22H29ZM29 3V22H31V3H29ZM27 1C28.1046 1 29 1.89543 29 3H31C31 0.79086 29.2091 -1 27 -1V1ZM3 1H27V-1H3V1ZM12.6951 8.47715C12.2264 8.16388 11.6243 8.12568 11.1213 8.36787L11.9889 10.1699C11.8607 10.2316 11.7096 10.2241 11.5838 10.14L12.6951 8.47715ZM20.5701 13.7403L12.6951 8.47715L11.5838 10.14L19.4588 15.4031L20.5701 13.7403ZM21.25 15C21.25 14.4781 20.9803 14.0145 20.5701 13.7403L19.4588 15.4031C19.3442 15.3266 19.25 15.1819 19.25 15H21.25ZM20.5701 16.2597C20.9803 15.9855 21.25 15.5219 21.25 15H19.25C19.25 14.8181 19.3442 14.6734 19.4588 14.5969L20.5701 16.2597ZM12.6951 21.5228L20.5701 16.2597L19.4588 14.5969L11.5838 19.86L12.6951 21.5228ZM11.1213 21.6321C11.6242 21.8743 12.2264 21.8361 12.6951 21.5228L11.5838 19.86C11.7096 19.7759 11.8607 19.7684 11.9889 19.8301L11.1213 21.6321ZM10.25 20.2632C10.25 20.8704 10.6119 21.3868 11.1213 21.6321L11.9889 19.8301C12.1237 19.895 12.25 20.0502 12.25 20.2632H10.25ZM10.25 9.73684V20.2632H12.25V9.73684H10.25ZM11.1213 8.36787C10.6119 8.61316 10.25 9.12955 10.25 9.73684H12.25C12.25 9.94984 12.1237 10.105 11.9889 10.1699L11.1213 8.36787ZM3 1C2.17157 1 1.5 1.67157 1.5 2.5H3.5C3.5 2.77614 3.27614 3 3 3V1ZM6 1H3V3H6V1ZM7.5 2.5C7.5 1.67157 6.82843 1 6 1V3C5.72386 3 5.5 2.77614 5.5 2.5H7.5ZM7.5 5.5V2.5H5.5V5.5H7.5ZM6 7C6.82843 7 7.5 6.32843 7.5 5.5H5.5C5.5 5.22386 5.72386 5 6 5V7ZM3 7H6V5H3V7ZM1.5 5.5C1.5 6.32843 2.17157 7 3 7V5C3.27614 5 3.5 5.22386 3.5 5.5H1.5ZM1.5 2.5V5.5H3.5V2.5H1.5ZM10.5 2.5C10.5 2.77614 10.2761 3 10 3V1C9.17157 1 8.5 1.67157 8.5 2.5H10.5ZM10.5 5.5V2.5H8.5V5.5H10.5ZM10 5C10.2761 5 10.5 5.22386 10.5 5.5H8.5C8.5 6.32843 9.17157 7 10 7V5ZM13 5H10V7H13V5ZM12.5 5.5C12.5 5.22386 12.7239 5 13 5V7C13.8284 7 14.5 6.32843 14.5 5.5H12.5ZM12.5 2.5V5.5H14.5V2.5H12.5ZM13 3C12.7239 3 12.5 2.77614 12.5 2.5H14.5C14.5 1.67157 13.8284 1 13 1V3ZM10 3H13V1H10V3ZM17 1C16.1716 1 15.5 1.67157 15.5 2.5H17.5C17.5 2.77614 17.2761 3 17 3V1ZM20 1H17V3H20V1ZM21.5 2.5C21.5 1.67157 20.8284 1 20 1V3C19.7239 3 19.5 2.77614 19.5 2.5H21.5ZM21.5 5.5V2.5H19.5V5.5H21.5ZM20 7C20.8284 7 21.5 6.32843 21.5 5.5H19.5C19.5 5.22386 19.7239 5 20 5V7ZM17 7H20V5H17V7ZM15.5 5.5C15.5 6.32843 16.1716 7 17 7V5C17.2761 5 17.5 5.22386 17.5 5.5H15.5ZM15.5 2.5V5.5H17.5V2.5H15.5ZM24.5 2.5C24.5 2.77614 24.2761 3 24 3V1C23.1716 1 22.5 1.67157 22.5 2.5H24.5ZM24.5 5.5V2.5H22.5V5.5H24.5ZM24 5C24.2761 5 24.5 5.22386 24.5 5.5H22.5C22.5 6.32843 23.1716 7 24 7V5ZM27 5H24V7H27V5ZM26.5 5.5C26.5 5.22386 26.7239 5 27 5V7C27.8284 7 28.5 6.32843 28.5 5.5H26.5ZM26.5 2.5V5.5H28.5V2.5H26.5ZM27 3C26.7239 3 26.5 2.77614 26.5 2.5H28.5C28.5 1.67157 27.8284 1 27 1V3ZM24 3H27V1H24V3Z" fill="#444444" mask="url(#path-1-inside-1_7309_14062)"/>
</svg>
