<svg width="30" height="30" viewBox="0 0 30 30" fill="none" xmlns="http://www.w3.org/2000/svg">
<path fill-rule="evenodd" clip-rule="evenodd" d="M14.1207 0.023946C13.1926 0.0790043 12.1931 0.233937 11.308 0.459959C8.13667 1.26983 5.33278 3.08305 3.27646 5.65378C0.789655 8.76262 -0.350439 12.7115 0.094254 16.6758C0.536837 20.6212 2.52516 24.2094 5.6621 26.7238C7.6414 28.3102 9.99924 29.3671 12.5034 29.7904C16.7125 30.502 21.0268 29.3829 24.352 26.7172C28.6283 23.289 30.6969 17.8802 29.7898 12.4988C28.76 6.39002 23.9914 1.48783 17.9062 0.282315C16.7075 0.0448536 15.3409 -0.0484339 14.1207 0.023946ZM14.4137 4.20623V7.19471L14.1383 7.19447C13.3845 7.19386 11.8264 7.06178 10.8157 6.91283C10.3056 6.83766 9.75601 6.7405 9.73779 6.72227C9.70737 6.69184 10.1083 5.72892 10.395 5.14379C11.4388 3.01351 12.7773 1.64577 14.191 1.26481C14.2813 1.24048 14.3683 1.21995 14.3844 1.21917C14.4077 1.21803 14.4137 1.8303 14.4137 4.20623ZM16.0076 1.32835C17.3236 1.76329 18.6 3.10886 19.579 5.09332C19.8829 5.7093 20.2938 6.69002 20.2616 6.72227C20.2434 6.7405 19.6937 6.83766 19.1836 6.91283C18.1681 7.06251 16.6182 7.19337 15.8494 7.19435L15.5857 7.19471V4.20517V1.21561L15.6736 1.23132C15.7219 1.23996 15.8722 1.28363 16.0076 1.32835ZM11.1099 1.95022C10.129 3.03319 9.3201 4.42334 8.68293 6.12145C8.57953 6.397 8.5497 6.45513 8.51454 6.44939C8.24747 6.40568 7.19082 6.06487 6.66697 5.8535C6.16246 5.64991 5.29577 5.20968 5.29577 5.15701C5.29577 5.12576 5.74149 4.70672 6.06927 4.42981C7.22893 3.45003 8.50816 2.68355 9.91333 2.1265C10.3472 1.9545 11.2703 1.64497 11.3613 1.64096C11.3778 1.64023 11.2647 1.77941 11.1099 1.95022ZM19.0014 1.74679C20.8416 2.31605 22.4051 3.16089 23.8598 4.37199C24.2088 4.66254 24.7036 5.12225 24.7036 5.15593C24.7036 5.20724 23.9327 5.60247 23.3996 5.82446C22.8809 6.04045 21.7895 6.39644 21.4848 6.44899C21.4496 6.45509 21.4204 6.39855 21.3187 6.12823C20.6557 4.36556 19.8075 2.92716 18.7859 1.83302C18.6865 1.72668 18.6165 1.63965 18.6302 1.63965C18.6439 1.63965 18.8109 1.68786 19.0014 1.74679ZM4.71777 6.17161C5.50745 6.66524 6.64768 7.13766 7.83894 7.4647C8.01943 7.51427 8.1749 7.56122 8.18444 7.56905C8.19396 7.5769 8.18041 7.65671 8.1543 7.74646C7.75243 9.12744 7.43061 10.9993 7.30014 12.7146C7.26522 13.1739 7.2182 14.0823 7.21794 14.3026L7.2178 14.4139H4.19109H1.1644L1.18058 14.1502C1.34048 11.5451 2.24255 9.029 3.77933 6.90172C3.96157 6.64944 4.45499 6.02275 4.47138 6.02275C4.47593 6.02275 4.58682 6.08974 4.71777 6.17161ZM25.7856 6.33332C27.0466 7.90371 27.9463 9.71075 28.431 11.6465C28.6299 12.4408 28.768 13.3362 28.819 14.162L28.8345 14.4139H25.808H22.7816L22.7813 14.3143C22.7809 14.1313 22.7352 13.1875 22.7106 12.8552C22.5805 11.0964 22.3005 9.40792 21.8925 7.92141C21.8412 7.73453 21.8067 7.57561 21.8158 7.56823C21.8248 7.56085 21.9799 7.51425 22.1604 7.46465C23.3758 7.13083 24.5658 6.63236 25.3482 6.12945C25.4384 6.07144 25.5177 6.02369 25.5243 6.02336C25.5309 6.02303 25.6485 6.1625 25.7856 6.33332ZM9.82016 7.91904C11.1157 8.15161 12.9944 8.34163 14.0152 8.34336C14.1377 8.34357 14.2775 8.35028 14.3258 8.35827L14.4137 8.3728V11.3934V14.4139H11.388H8.36237L8.37571 14.162C8.38304 14.0234 8.39497 13.7782 8.40222 13.617C8.48435 11.7919 8.79956 9.80444 9.27311 8.12589C9.3415 7.88351 9.36473 7.82873 9.3952 7.83804C9.4159 7.84434 9.60712 7.88081 9.82016 7.91904ZM20.7267 8.12641C21.1967 9.78667 21.5213 11.8435 21.597 13.6404C21.6043 13.8145 21.6163 14.0597 21.6236 14.1854L21.6368 14.4139H18.6112H15.5857V11.3932V8.37252L15.6589 8.35787C15.6992 8.34981 15.839 8.34317 15.9695 8.3431C17.1411 8.34249 19.4024 8.09374 20.6278 7.83063C20.6356 7.82894 20.6802 7.96205 20.7267 8.12641ZM7.21794 15.6972C7.2182 15.9176 7.26522 16.8259 7.30014 17.2852C7.42995 18.992 7.74441 20.827 8.14668 22.2253C8.17964 22.3398 8.20298 22.4365 8.19857 22.4402C8.19414 22.4438 8.03232 22.4916 7.83894 22.5464C6.64956 22.8833 5.5648 23.337 4.81526 23.811C4.68634 23.8925 4.56195 23.9712 4.53881 23.9858C4.50476 24.0072 4.48915 24.0029 4.45678 23.9632C3.6006 22.9139 3.1272 22.1957 2.61191 21.1644C2.35831 20.6568 2.29761 20.5205 2.09786 20.0098C1.58277 18.6929 1.26726 17.2619 1.18058 15.8496L1.1644 15.5859H4.19109H7.2178L7.21794 15.6972ZM14.4137 18.6065V21.627L14.3258 21.6416C14.2775 21.6496 14.1377 21.6562 14.0152 21.6564C13.2832 21.6573 11.7094 21.792 10.6986 21.9403C10.3778 21.9874 9.51542 22.136 9.41084 22.1623C9.36129 22.1747 9.3532 22.1579 9.27313 21.875C8.80205 20.211 8.48303 18.1943 8.40247 16.3711C8.39507 16.2035 8.3829 15.9583 8.37542 15.8261L8.36183 15.5859H11.3878H14.4137V18.6065ZM21.6236 15.8144C21.6163 15.9401 21.6043 16.1853 21.597 16.3594C21.5214 18.1539 21.1984 20.1996 20.7259 21.875C20.6461 22.1579 20.6381 22.1747 20.5885 22.1623C20.4839 22.136 19.6216 21.9874 19.3008 21.9403C18.29 21.792 16.7162 21.6573 15.9841 21.6564C15.8617 21.6562 15.7219 21.6496 15.6736 21.6416L15.5857 21.627V18.6065V15.5859H18.6112H21.6368L21.6236 15.8144ZM28.8188 15.8496C28.6715 18.2535 27.8876 20.5895 26.5435 22.6293C26.2304 23.1044 25.5685 23.9713 25.4998 23.9963C25.4885 24.0004 25.4181 23.9625 25.3434 23.9121C24.5842 23.4003 23.4368 22.9079 22.1604 22.5464C21.9671 22.4916 21.8052 22.4438 21.8008 22.4402C21.7964 22.4365 21.8194 22.3405 21.852 22.2267C22.256 20.8171 22.563 19.0284 22.6981 17.2969C22.7313 16.8722 22.7808 15.9137 22.7813 15.6855L22.7816 15.5859H25.8083H28.835L28.8188 15.8496ZM14.4137 25.7947V28.7842L14.3258 28.7683C14.047 28.7176 13.5207 28.4976 13.1831 28.2906C12.7596 28.0308 12.2297 27.5649 11.8361 27.1062C11.1834 26.3454 10.5625 25.3058 10.0652 24.1412C9.90307 23.7615 9.72303 23.2923 9.73489 23.2804C9.74834 23.267 10.3087 23.1663 10.7337 23.1009C11.7562 22.9436 13.1984 22.8171 14.068 22.8085L14.4137 22.8051V25.7947ZM16.5382 22.8288C17.6476 22.8915 18.7038 23.0045 19.611 23.1575C20.1177 23.243 20.2736 23.2726 20.2736 23.2833C20.2736 23.2999 20.0505 23.8686 19.9692 24.0591C19.1409 26.0009 18.1044 27.4292 16.9722 28.1889C16.5882 28.4466 16.0126 28.7023 15.6619 28.7709L15.5857 28.7858V25.7955V22.8051H15.8526C15.9994 22.8051 16.308 22.8158 16.5382 22.8288ZM8.65735 23.8073C8.9875 24.7129 9.46805 25.7151 9.93956 26.4812C10.3201 27.0995 10.6842 27.5854 11.1432 28.0874C11.4415 28.4138 11.4682 28.4053 10.8123 28.193C9.15701 27.6574 7.70909 26.8835 6.38321 25.8259C5.9479 25.4786 5.31921 24.9134 5.31921 24.8692C5.31921 24.8468 5.61536 24.6719 5.94035 24.5024C6.28393 24.3232 6.76471 24.1169 7.2178 23.9543C7.58988 23.8207 8.44396 23.56 8.51869 23.5572C8.55741 23.5558 8.58155 23.5993 8.65735 23.8073ZM21.9388 23.6838C22.6906 23.9036 23.2695 24.1206 23.8651 24.4061C24.1163 24.5265 24.6337 24.8142 24.6786 24.8585C24.6946 24.8743 24.5516 25.0163 24.2197 25.3139C22.6849 26.6902 20.8488 27.7129 18.8754 28.2905C18.7446 28.3288 18.6301 28.3602 18.6211 28.3602C18.6121 28.3602 18.704 28.2521 18.8253 28.1199C19.3774 27.5188 19.7843 26.9623 20.2267 26.2038C20.5924 25.5767 21.0499 24.5979 21.3195 23.866C21.3908 23.6724 21.446 23.5555 21.4663 23.5554C21.4842 23.5553 21.6968 23.613 21.9388 23.6838Z" fill="#444444"/>
</svg>
